<svg xmlns="http://www.w3.org/2000/svg" xml:space="preserve" stroke-linecap="round" stroke-linejoin="round" stroke-miterlimit="10" clip-rule="evenodd" viewBox="0 0 567.658 536.105"><defs><marker id="b" orient="auto" refX="0" refY="0" style="overflow:visible"><path d="m0 0 5-5-17.5 5L5 5z" style="fill-rule:evenodd;stroke:#81008e;stroke-width:1pt;stroke-opacity:1;fill:#81008e;fill-opacity:1" transform="rotate(180 -5 0)scale(.8)"/></marker><marker id="a" orient="auto" refX="0" refY="0" style="overflow:visible"><path d="m0 0 5-5-17.5 5L5 5z" style="fill-rule:evenodd;stroke:#81008e;stroke-width:1pt;stroke-opacity:1;fill:#81008e;fill-opacity:1" transform="rotate(180 -5 0)scale(.8)"/></marker><marker id="c" orient="auto" refX="0" refY="0" style="overflow:visible"><path d="m0 0 5-5-17.5 5L5 5Z" style="fill:#81008e;fill-opacity:1;fill-rule:evenodd;stroke:#81008e;stroke-width:1pt;stroke-opacity:1" transform="rotate(180 -5 0)scale(.8)"/></marker><marker id="d" orient="auto" refX="0" refY="0" style="overflow:visible"><path d="m0 0 5-5-17.5 5L5 5Z" style="fill:#81008e;fill-opacity:1;fill-rule:evenodd;stroke:#81008e;stroke-width:1pt;stroke-opacity:1" transform="rotate(180 -5 0)scale(.8)"/></marker></defs><path fill="#e2e2e2" d="M106.586 226.507c0-4.917 2.955-8.903 6.6-8.903H404.97c3.645 0 6.6 3.986 6.6 8.903s-2.955 8.902-6.6 8.902H113.186c-3.645 0-6.6-3.985-6.6-8.902"/><path fill="#726a6a" d="m323.167 120.659 7.91-7.948c3.774-3.793 3.942-8.298.27-11.953l-3.493-3.595c-3.613-3.655-8.237-3.283-12.012.39l-7.909 7.888zm-79.864 80.324 72.435-72.917-15.294-15.158-72.435 72.918-6.025 16.412c-1.193 3.246 2.057 6.06 4.878 5.033z"/><path fill="none" stroke="#c91e3e" stroke-dasharray="2" stroke-linecap="butt" stroke-width="2" d="M90.043 226.507h334.702" style="stroke:#00f;stroke-opacity:1"/><path d="m211.676 223.377 2.66-162.746" style="fill:none;stroke:red;stroke-width:1;stroke-linecap:butt;stroke-linejoin:miter;stroke-miterlimit:10;stroke-dasharray:4,1;stroke-dashoffset:0;stroke-opacity:1"/><path d="M218.052 68.594c37.07 1.037 63.162 17.77 82.392 44.314" style="fill:none;stroke:#81008e;stroke-width:1.67356;stroke-linecap:butt;stroke-linejoin:miter;stroke-miterlimit:10;stroke-dasharray:5.02069,1.67356;stroke-dashoffset:0;stroke-opacity:1;marker-mid:url(#a);marker-end:url(#b)"/><text xml:space="preserve" x="420.162" y="241.46" style="font-size:24px;line-height:1.25;font-family:&quot;Fugaz One&quot;;-inkscape-font-specification:&quot;Fugaz One, Normal&quot;"><tspan x="420.162" y="241.46" style="font-style:normal;font-variant:normal;font-weight:400;font-stretch:normal;font-family:Arial;-inkscape-font-specification:Arial">x-axis</tspan></text><text xml:space="preserve" x="178.17" y="51.058" style="font-size:24px;line-height:1.25;font-family:Arial;-inkscape-font-specification:&quot;Arial, Normal&quot;"><tspan x="178.17" y="51.058">z-axis</tspan></text><text xml:space="preserve" x="228.696" y="109.561" style="font-size:24px;line-height:1.25;font-family:Arial;-inkscape-font-specification:&quot;Arial, Normal&quot;;stroke:#1e23c9;stroke-opacity:1"><tspan x="228.696" y="109.561">tiltX</tspan></text><path fill="#e2e2e2" d="M104.619 474.289c0-4.917 2.955-8.903 6.6-8.903h291.783c3.645 0 6.6 3.986 6.6 8.903s-2.955 8.902-6.6 8.902H111.219c-3.645 0-6.6-3.985-6.6-8.902"/><path fill="#726a6a" d="m321.2 368.44 7.909-7.947c3.775-3.793 3.943-8.298.27-11.953l-3.492-3.595c-3.613-3.655-8.237-3.283-12.012.39l-7.91 7.888zm-79.864 80.325 72.435-72.917-15.294-15.158-72.435 72.918-6.025 16.412c-1.193 3.246 2.057 6.06 4.878 5.033z"/><path fill="none" stroke="#c91e3e" stroke-dasharray="2" stroke-linecap="butt" stroke-width="2" d="M88.076 474.289h334.702" style="stroke:#0f0;stroke-opacity:1"/><path d="m209.709 471.159 2.66-162.746" style="fill:none;stroke:red;stroke-width:1;stroke-linecap:butt;stroke-linejoin:miter;stroke-miterlimit:10;stroke-dasharray:4,1;stroke-dashoffset:0;stroke-opacity:1"/><path d="M216.084 316.375c37.07 1.038 63.163 17.771 82.393 44.315" style="fill:none;stroke:#81008e;stroke-width:1.67356;stroke-linecap:butt;stroke-linejoin:miter;stroke-miterlimit:10;stroke-dasharray:5.02069,1.67356;stroke-dashoffset:0;stroke-opacity:1;marker-mid:url(#c);marker-end:url(#d)"/><text xml:space="preserve" x="418.194" y="489.242" style="font-size:24px;line-height:1.25;font-family:&quot;Fugaz One&quot;;-inkscape-font-specification:&quot;Fugaz One, Normal&quot;"><tspan x="418.194" y="489.242" style="font-style:normal;font-variant:normal;font-weight:400;font-stretch:normal;font-family:Arial;-inkscape-font-specification:Arial">y-axis</tspan></text><text xml:space="preserve" x="176.202" y="298.839" style="font-size:24px;line-height:1.25;font-family:Arial;-inkscape-font-specification:&quot;Arial, Normal&quot;"><tspan x="176.202" y="298.839">z-axis</tspan></text><text xml:space="preserve" x="226.728" y="357.343" style="font-size:24px;line-height:1.25;font-family:Arial;-inkscape-font-specification:&quot;Arial, Normal&quot;;fill:#0f0;fill-opacity:1;stroke:#0f0;stroke-opacity:1"><tspan x="226.728" y="357.343">tiltY</tspan></text><ellipse cx="211.108" cy="226.771" rx="1.839" ry="2.604" style="fill:#0f0;fill-opacity:1;stroke:#0f0;stroke-width:2.15879;stroke-miterlimit:10;stroke-dasharray:6.47637,2.15879;stroke-dashoffset:0;stroke-opacity:1"/><ellipse cx="209.363" cy="474.243" rx="2.504" ry="2.744" style="fill:#00f;fill-opacity:1;stroke:#00f;stroke-width:1.31782;stroke-miterlimit:10;stroke-dasharray:3.95348,1.31782;stroke-dashoffset:0;stroke-opacity:1"/></svg>