<svg xmlns="http://www.w3.org/2000/svg" viewBox="200.237 272 691.184 287" width="691.184" height="287"><defs><marker orient="auto" overflow="visible" markerUnits="strokeWidth" id="a" stroke-linejoin="miter" stroke-miterlimit="10" viewBox="-1 -3 7 6" markerWidth="7" markerHeight="6" color="#ff2600"><path d="M4.8 0 0-1.8v3.6z" fill="currentColor" stroke="currentColor"/></marker><marker orient="auto" overflow="visible" markerUnits="strokeWidth" id="b" stroke-linejoin="miter" stroke-miterlimit="10" viewBox="-1 -3 6 6" markerWidth="6" markerHeight="6" color="#ff2600"><circle cx="1.8" r="1.8" fill="currentColor" stroke="currentColor"/></marker><marker orient="auto" overflow="visible" markerUnits="strokeWidth" id="c" stroke-linejoin="miter" stroke-miterlimit="10" viewBox="-5 -3 6 6" markerWidth="6" markerHeight="6" color="#ff2600"><circle cx="-1.8" r="1.8" fill="currentColor" stroke="currentColor"/></marker></defs><g fill="none"><path d="M288 416c3.127-11.099 6.293-22.659 9.383-33.299 3.09-10.64 6.071-20.977 9.162-30.548 3.091-9.571 6.259-19.144 9.387-26.882 3.127-7.739 6.255-14.104 9.383-19.552 3.128-5.447 6.295-10.183 9.386-13.136 3.09-2.953 6.068-4.633 9.159-4.582 3.09.051 6.258 1.936 9.386 4.888 3.128 2.953 6.255 7.332 9.383 12.83 3.128 5.499 6.295 12.425 9.387 20.163 3.09 7.738 6.071 16.75 9.162 26.27 3.09 9.52 6.255 20.215 9.383 30.855 3.127 10.64 6.256 21.996 9.383 32.993m.112 0c3.127 11.099 6.293 22.659 9.383 33.299 3.09 10.64 6.072 20.977 9.162 30.548 3.09 9.571 6.256 19.144 9.383 26.882 3.128 7.739 6.259 14.104 9.387 19.552 3.128 5.447 6.292 10.182 9.383 13.135 3.09 2.953 6.071 4.634 9.162 4.583 3.09-.051 6.255-1.936 9.383-4.889 3.128-2.953 6.258-7.331 9.386-12.83 3.129-5.498 6.296-12.424 9.387-20.162 3.09-7.738 6.068-16.75 9.159-26.27 3.09-9.52 6.258-20.215 9.386-30.855 3.128-10.64 6.256-21.996 9.383-32.993m0 0c1.34-8.324 2.697-16.994 4.021-24.974 1.325-7.98 2.602-15.733 3.927-22.911 1.325-7.179 2.682-14.359 4.023-20.162 1.34-5.804 2.68-10.578 4.021-14.663 1.34-4.086 2.698-7.638 4.023-9.853 1.324-2.214 2.6-3.474 3.925-3.436 1.325.038 2.682 1.451 4.023 3.666 1.34 2.215 2.68 5.499 4.021 9.623 1.34 4.123 2.698 9.318 4.023 15.122 1.324 5.803 2.602 12.563 3.926 19.703 1.325 7.14 2.681 15.16 4.022 23.14 1.34 7.98 2.68 16.498 4.021 24.745m.048 0c1.34 8.324 2.697 16.994 4.021 24.974 1.325 7.98 2.602 15.733 3.927 22.911 1.325 7.179 2.68 14.359 4.021 20.162 1.34 5.804 2.683 10.578 4.023 14.663 1.34 4.086 2.697 7.637 4.021 9.852 1.325 2.214 2.602 3.475 3.927 3.437 1.324-.038 2.68-1.452 4.021-3.667 1.34-2.214 2.682-5.498 4.023-9.621 1.34-4.124 2.698-9.32 4.023-15.123 1.324-5.803 2.6-12.563 3.925-19.703 1.324-7.14 2.682-15.16 4.023-23.14 1.34-7.98 2.68-16.498 4.021-24.745m0 0c1.005-5.55 2.023-11.33 3.016-16.65.993-5.32 1.951-10.488 2.945-15.274.994-4.785 2.012-9.572 3.017-13.44 1.005-3.87 2.01-7.053 3.016-9.776 1.005-2.724 2.024-5.092 3.017-6.568.993-1.477 1.95-2.317 2.944-2.291.993.025 2.012.967 3.017 2.444 1.005 1.476 2.01 3.666 3.016 6.415 1.005 2.749 2.023 6.212 3.017 10.081.994 3.87 1.952 8.375 2.945 13.135.993 4.76 2.01 10.107 3.016 15.427 1.005 5.32 2.01 10.999 3.016 16.497m.036 0c1.005 5.55 2.023 11.33 3.016 16.65.993 5.32 1.952 10.488 2.945 15.274.993 4.785 2.01 9.572 3.016 13.44 1.005 3.87 2.012 7.053 3.017 9.776 1.005 2.724 2.023 5.092 3.016 6.568.993 1.476 1.952 2.317 2.945 2.291.993-.025 2.01-.968 3.016-2.444 1.005-1.476 2.011-3.666 3.017-6.415 1.006-2.749 2.024-6.212 3.017-10.081.993-3.87 1.95-8.375 2.944-13.135.993-4.76 2.012-10.107 3.017-15.427S678.994 421.498 680 416m0 0c.782-2.775 1.573-5.665 2.346-8.325.772-2.66 1.518-5.244 2.29-7.637.773-2.392 1.565-4.786 2.347-6.72.782-1.935 1.564-3.526 2.346-4.888s1.574-2.546 2.346-3.284c.773-.738 1.517-1.158 2.29-1.146.773.013 1.565.484 2.347 1.222.781.739 1.563 1.833 2.345 3.208.782 1.374 1.574 3.106 2.347 5.04.773 1.935 1.518 4.188 2.29 6.568.773 2.38 1.564 5.054 2.346 7.714s1.564 5.499 2.346 8.248m.028 0c.782 2.775 1.573 5.665 2.346 8.325.772 2.66 1.518 5.244 2.29 7.637.773 2.392 1.564 4.786 2.346 6.72.782 1.935 1.565 3.526 2.347 4.888s1.573 2.546 2.345 3.284c.773.738 1.518 1.158 2.291 1.146.773-.013 1.564-.484 2.346-1.223.782-.738 1.564-1.832 2.346-3.207.782-1.374 1.574-3.106 2.347-5.04.772-1.935 1.517-4.188 2.29-6.568.772-2.38 1.564-5.054 2.346-7.714S735.218 418.75 736 416m0 0c1.005-6.937 2.023-14.162 3.016-20.812.993-6.65 1.951-13.11 2.945-19.093.994-5.981 2.012-11.965 3.017-16.8 1.005-4.837 2.01-8.816 3.016-12.22 1.005-3.405 2.024-6.365 3.017-8.21.993-1.846 1.95-2.896 2.944-2.864.993.032 2.012 1.21 3.017 3.055 1.005 1.845 2.01 4.582 3.016 8.019 1.005 3.436 2.023 7.765 3.017 12.601.994 4.837 1.952 10.47 2.945 16.42.993 5.95 2.01 12.633 3.016 19.283 1.005 6.65 2.01 13.748 3.016 20.621m.036 0c1.005 6.937 2.023 14.162 3.016 20.812.993 6.65 1.952 13.11 2.945 19.093.993 5.981 2.01 11.965 3.016 16.8 1.005 4.837 2.012 8.816 3.017 12.22 1.005 3.405 2.023 6.364 3.016 8.21.993 1.845 1.952 2.896 2.945 2.864.993-.032 2.01-1.21 3.016-3.055 1.005-1.846 2.011-4.582 3.017-8.019 1.006-3.436 2.024-7.765 3.017-12.601.993-4.837 1.95-10.47 2.944-16.42.993-5.95 2.012-12.633 3.017-19.283 1.005-6.65 2.01-13.748 3.016-20.621" stroke="#000" stroke-linecap="round" stroke-linejoin="round"/><path marker-end="url(#a)" stroke="#ff2600" stroke-linecap="round" stroke-linejoin="round" stroke-width="2" d="M288 416h531.1"/><path marker-end="url(#b)" marker-start="url(#c)" stroke="#ff2600" stroke-linecap="round" stroke-linejoin="round" stroke-width="2" d="M288 291.6v248.8"/><g fill="#ff2600"><text transform="translate(269 405)">
            <tspan font-family="Verdana" font-size="16" font-weight="400" x="0" y="16">0</tspan>
          </text><text transform="translate(237 277)">
            <tspan font-family="Verdana" font-size="16" font-weight="400" x="0" y="16">+1.0</tspan>
          </text><text transform="translate(239.914 533)">
            <tspan font-family="Verdana" font-size="16" font-weight="400" x="0" y="16">-1.0</tspan>
          </text><text transform="translate(237 341)">
            <tspan font-family="Verdana" font-size="16" font-weight="400" x="0" y="16">+0.5</tspan>
          </text><text transform="translate(242.828 469)">
            <tspan font-family="Verdana" font-size="16" font-weight="400" x="0" y="16">-0.5</tspan>
          </text></g><text transform="rotate(-90 336.737 131.5)" fill="#ff2600">
          <tspan font-family="Verdana" font-size="18" font-weight="700" x="0" y="18">Amplitude</tspan>
        </text><text transform="translate(837 405)" fill="#ff2600">
          <tspan font-family="Verdana" font-size="18" font-weight="700" x="0" y="18">Time</tspan>
        </text></g></svg>