<?xml version="1.0" encoding="UTF-8"?>
<svg width="133px" height="44px" viewBox="0 0 133 44" version="1.1" xmlns="http://www.w3.org/2000/svg" xmlns:xlink="http://www.w3.org/1999/xlink">
    <title>Group</title>
    <defs>
        <polygon id="path-1" points="0 0.044 131.6304 0.044 131.6304 44 0 44"></polygon>
    </defs>
    <g id="Page-1" stroke="none" stroke-width="1" fill="none" fill-rule="evenodd">
        <g id="Homepage" transform="translate(-960.000000, -1640.000000)">
            <g id="Group-4" transform="translate(799.000000, 1640.000000)">
                <g id="Group" transform="translate(161.500000, 0.000000)">
                    <g id="Group-3">
                        <mask id="mask-2" fill="white">
                            <use xlink:href="#path-1"></use>
                        </mask>
                        <g id="Clip-2"></g>
                        <path d="M121.1474,0 L10.4885,0 C10.0848,0 9.6866,0 9.284,0.0022 C8.9474,0.0044 8.613,0.011 8.2731,0.0165 C7.5405,0.0341 6.8002,0.0792 6.0687,0.2101 C5.3328,0.3399 4.6486,0.5599 3.9776,0.8998 C3.3198,1.2375 2.7181,1.6753 2.1978,2.1967 C1.6709,2.7181 1.2353,3.322 0.9009,3.9798 C0.5588,4.6497 0.3421,5.3372 0.2134,6.0731 C0.0814,6.8024 0.0352,7.5394 0.0165,8.2753 C0.0066,8.613 0.0055,8.9518 0,9.2884 C0,9.6877 0,10.087 0,10.4896 L0,33.5115 C0,33.9174 0,34.3145 0,34.7149 C0.0055,35.0559 0.0066,35.387 0.0165,35.728 C0.0352,36.465 0.0814,37.202 0.2134,37.9302 C0.3421,38.6672 0.5588,39.358 0.9009,40.0257 C1.2353,40.6802 1.6709,41.2841 2.1978,41.8011 C2.7181,42.3269 3.3198,42.7636 3.9776,43.098 C4.6486,43.4412 5.3328,43.659 6.0687,43.7921 C6.8002,43.923 7.5405,43.9659 8.2731,43.9857 C8.613,43.9934 8.9474,43.9978 9.284,43.9978 C9.6866,44 10.0848,44 10.4885,44 L121.1474,44 C121.5445,44 121.9449,44 122.3398,43.9978 C122.6764,43.9978 123.0196,43.9934 123.3551,43.9857 C124.0921,43.9659 124.8313,43.923 125.5551,43.7921 C126.2921,43.659 126.9763,43.4412 127.6539,43.098 C128.3106,42.7636 128.9123,42.3269 129.4337,41.8011 C129.9562,41.2841 130.3929,40.6802 130.7317,40.0257 C131.0694,39.358 131.2894,38.6672 131.4126,37.9302 C131.549,37.202 131.5908,36.465 131.6183,35.728 C131.6216,35.387 131.6216,35.0559 131.6216,34.7149 C131.6304,34.3145 131.6304,33.9174 131.6304,33.5115 L131.6304,10.4896 C131.6304,10.087 131.6304,9.6877 131.6216,9.2884 C131.6216,8.9518 131.6216,8.613 131.6183,8.2753 C131.5908,7.5394 131.549,6.8024 131.4126,6.0731 C131.2894,5.3372 131.0694,4.6497 130.7317,3.9798 C130.3929,3.322 129.9562,2.7181 129.4337,2.1967 C128.9123,1.6753 128.3106,1.2375 127.6539,0.8998 C126.9763,0.5599 126.2921,0.3399 125.5551,0.2101 C124.8313,0.0792 124.0921,0.0341 123.3551,0.0165 C123.0196,0.011 122.6764,0.0044 122.3398,0.0022 C121.9449,0 121.5445,0 121.1474,0" id="Fill-1" fill="#A9AAA9" mask="url(#mask-2)"></path>
                    </g>
                    <path d="M9.2895,43.0375 C8.954,43.0375 8.6273,43.0331 8.2951,43.0254 C7.6791,43.0089 6.9498,42.9737 6.2381,42.8461 C5.5671,42.7251 4.9709,42.5271 4.4165,42.2433 C3.8423,41.9529 3.3264,41.5767 2.8798,41.1257 C2.4244,40.678 2.0493,40.1654 1.7567,39.589 C1.4718,39.0335 1.2771,38.4373 1.1594,37.7663 C1.0252,37.026 0.9911,36.2758 0.9768,35.7038 C0.9691,35.4717 0.9603,34.6995 0.9603,34.6995 L0.9603,9.2884 C0.9603,9.2884 0.9702,8.5283 0.9768,8.305 C0.9911,7.7286 1.0252,6.9784 1.1583,6.2458 C1.276,5.5704 1.4707,4.9742 1.7567,4.4176 C2.0482,3.8401 2.4233,3.3242 2.8732,2.8798 C3.3275,2.4244 3.8456,2.0471 4.4154,1.7545 C4.9808,1.4674 5.5759,1.2716 6.2337,1.1561 C6.9751,1.0241 7.7253,0.99 8.2973,0.9757 L9.2895,0.9625 L122.3343,0.9625 L123.3386,0.9768 C123.9029,0.99 124.6542,1.0241 125.3835,1.155 C126.0457,1.2716 126.6463,1.4685 127.2216,1.7578 C127.7859,2.0471 128.3018,2.4244 128.7517,2.8754 C129.2038,3.322 129.5789,3.8412 129.8781,4.4198 C130.1619,4.9819 130.3544,5.5781 130.4677,6.2337 C130.5942,6.9278 130.6338,7.6406 130.658,8.3094 C130.6613,8.6207 130.6613,8.9562 130.6613,9.2884 C130.6712,9.7009 130.6712,10.0936 130.6712,10.4896 L130.6712,33.5115 C130.6712,33.9108 130.6712,34.3013 130.6613,34.694 C130.6613,35.0515 130.6613,35.3793 130.6569,35.717 C130.6338,36.3649 130.5942,37.0766 130.4688,37.7553 C130.3544,38.4296 130.1619,39.0258 129.8748,39.5923 C129.5789,40.1643 129.2016,40.6802 128.7583,41.1169 C128.3029,41.5767 127.787,41.9518 127.2194,42.2411 C126.6474,42.5315 126.0655,42.724 125.3835,42.8461 C124.6795,42.9737 123.9502,43.0089 123.3276,43.0254 C123.0064,43.0331 122.6676,43.0375 122.3398,43.0375 L121.1474,43.0397 L9.2895,43.0375" id="Fill-4" fill="#000000"></path>
                    <path d="M27.2459,22.3311 C27.2184,19.305 29.7231,17.8321 29.8386,17.7628 C28.4196,15.6948 26.2196,15.4121 25.4474,15.3901 C23.6005,15.1954 21.8097,16.4956 20.8681,16.4956 C19.9089,16.4956 18.4602,15.4088 16.8993,15.4418 C14.8907,15.4726 13.0097,16.6364 11.979,18.4426 C9.8516,22.1254 11.4389,27.5385 13.4761,30.5151 C14.4958,31.9737 15.6871,33.6028 17.2469,33.5445 C18.7726,33.4818 19.3424,32.571 21.1838,32.571 C23.0087,32.571 23.5433,33.5445 25.1339,33.5082 C26.7707,33.4818 27.8025,32.043 28.787,30.5712 C29.9651,28.9003 30.4381,27.2536 30.4568,27.17 C30.4183,27.1568 27.2767,25.9589 27.2459,22.3311" id="Fill-5" fill="#FFFFFE"></path>
                    <path d="M24.2407,13.4321 C25.0613,12.4058 25.6223,11.0099 25.4672,9.592 C24.2792,9.6448 22.7942,10.4137 21.9384,11.418 C21.1816,12.3024 20.5062,13.7522 20.68,15.1151 C22.0143,15.2152 23.3849,14.4419 24.2407,13.4321" id="Fill-6" fill="#FFFFFE"></path>
                    <path d="M41.8649,28.1501 L45.9921,28.1501 L43.9571,22.1584 L43.901,22.1584 L41.8649,28.1501 Z M46.5322,29.854 L41.3259,29.854 L40.0752,33.5456 L37.8697,33.5456 L42.8021,19.8858 L45.0934,19.8858 L50.0247,33.5456 L47.7818,33.5456 L46.5322,29.854 L46.5322,29.854 Z" id="Fill-7" fill="#FFFFFE"></path>
                    <path d="M58.575,28.567 C58.575,26.5507 57.5322,25.2252 55.9427,25.2252 C54.3807,25.2252 53.3302,26.5782 53.3302,28.567 C53.3302,30.5734 54.3807,31.9176 55.9427,31.9176 C57.5322,31.9176 58.575,30.6009 58.575,28.567 Z M60.676,28.567 C60.676,31.6613 59.0194,33.6501 56.5191,33.6501 C55.1001,33.6501 53.9737,33.0154 53.3863,31.9077 L53.339,31.9077 L53.339,36.8401 L51.2941,36.8401 L51.2941,23.5862 L53.273,23.5862 L53.273,25.2428 L53.3104,25.2428 C53.8791,24.1747 55.0913,23.4828 56.4817,23.4828 C59.0095,23.4828 60.676,25.4804 60.676,28.567 L60.676,28.567 Z" id="Fill-8" fill="#FFFFFE"></path>
                    <path d="M69.5354,28.567 C69.5354,26.5507 68.4937,25.2252 66.9042,25.2252 C65.3422,25.2252 64.2917,26.5782 64.2917,28.567 C64.2917,30.5734 65.3422,31.9176 66.9042,31.9176 C68.4937,31.9176 69.5354,30.6009 69.5354,28.567 Z M71.6364,28.567 C71.6364,31.6613 69.9809,33.6501 67.4806,33.6501 C66.0616,33.6501 64.9352,33.0154 64.3478,31.9077 L64.3005,31.9077 L64.3005,36.8401 L62.2556,36.8401 L62.2556,23.5862 L64.2345,23.5862 L64.2345,25.2428 L64.2719,25.2428 C64.8406,24.1747 66.0517,23.4828 67.4432,23.4828 C69.971,23.4828 71.6364,25.4804 71.6364,28.567 L71.6364,28.567 Z" id="Fill-9" fill="#FFFFFE"></path>
                    <path d="M78.8821,29.7396 C79.0328,31.0948 80.3495,31.9836 82.1469,31.9836 C83.8706,31.9836 85.1103,31.0948 85.1103,29.8727 C85.1103,28.8123 84.3623,28.1776 82.5924,27.7431 L80.8214,27.3163 C78.3134,26.7102 77.1485,25.5376 77.1485,23.6335 C77.1485,21.2773 79.2033,19.6581 82.1194,19.6581 C85.0058,19.6581 86.9847,21.2773 87.0507,23.6335 L84.9871,23.6335 C84.8639,22.2706 83.7364,21.4478 82.0908,21.4478 C80.443,21.4478 79.3166,22.2805 79.3166,23.4916 C79.3166,24.4574 80.036,25.0261 81.7971,25.4617 L83.3019,25.8302 C86.1047,26.4935 87.2696,27.6188 87.2696,29.6175 C87.2696,32.1728 85.2335,33.7733 81.9962,33.7733 C78.9668,33.7733 76.9208,32.2102 76.7888,29.7396 L78.8821,29.7396" id="Fill-10" fill="#FFFFFE"></path>
                    <path d="M91.6806,21.23 L91.6806,23.5862 L93.5748,23.5862 L93.5748,25.2054 L91.6806,25.2054 L91.6806,30.6955 C91.6806,31.5491 92.0601,31.9462 92.8928,31.9462 C93.1007,31.9462 93.4329,31.9176 93.5649,31.8989 L93.5649,33.5082 C93.3383,33.5654 92.884,33.6028 92.4297,33.6028 C90.4134,33.6028 89.6269,32.8449 89.6269,30.9144 L89.6269,25.2054 L88.1793,25.2054 L88.1793,23.5862 L89.6269,23.5862 L89.6269,21.23 L91.6806,21.23" id="Fill-11" fill="#FFFFFE"></path>
                    <path d="M102.036,28.567 C102.036,26.4176 101.0515,25.1482 99.3949,25.1482 C97.7383,25.1482 96.7549,26.4264 96.7549,28.567 C96.7549,30.7252 97.7383,31.9836 99.3949,31.9836 C101.0515,31.9836 102.036,30.7252 102.036,28.567 Z M94.6715,28.567 C94.6715,25.4331 96.5173,23.4641 99.3949,23.4641 C102.2824,23.4641 104.1194,25.4331 104.1194,28.567 C104.1194,31.7086 102.2923,33.6688 99.3949,33.6688 C96.4986,33.6688 94.6715,31.7086 94.6715,28.567 L94.6715,28.567 Z" id="Fill-12" fill="#FFFFFE"></path>
                    <path d="M105.8046,23.5862 L107.7549,23.5862 L107.7549,25.2813 L107.8022,25.2813 C108.1146,24.1549 109.0232,23.4828 110.1969,23.4828 C110.4906,23.4828 110.7359,23.5213 110.8976,23.5587 L110.8976,25.4705 C110.7359,25.4045 110.3762,25.3473 109.9791,25.3473 C108.6635,25.3473 107.8495,26.2383 107.8495,27.6386 L107.8495,33.5456 L105.8046,33.5456 L105.8046,23.5862" id="Fill-13" fill="#FFFFFE"></path>
                    <path d="M113.4122,27.6485 L118.3908,27.6485 C118.3435,26.1239 117.3689,25.1207 115.9488,25.1207 C114.5386,25.1207 113.5167,26.1437 113.4122,27.6485 Z M120.3224,30.6207 C120.0474,32.4291 118.2874,33.6688 116.0346,33.6688 C113.1372,33.6688 111.3387,31.7284 111.3387,28.6143 C111.3387,25.4903 113.1471,23.4641 115.9488,23.4641 C118.7043,23.4641 120.4368,25.3572 120.4368,28.3767 L120.4368,29.0774 L113.4023,29.0774 L113.4023,29.2006 C113.4023,30.9045 114.4726,32.021 116.0819,32.021 C117.2171,32.021 118.1081,31.482 118.382,30.6207 L120.3224,30.6207 L120.3224,30.6207 Z" id="Fill-14" fill="#FFFFFE"></path>
                    <path d="M40.2578,15.2394 L41.4953,15.2394 C42.8681,15.2394 43.659,14.3847 43.659,12.8788 C43.659,11.396 42.8549,10.5314 41.4953,10.5314 L40.2578,10.5314 L40.2578,15.2394 Z M41.6086,9.6041 C43.5556,9.6041 44.6974,10.7998 44.6974,12.8656 C44.6974,14.9622 43.5644,16.1678 41.6086,16.1678 L39.2381,16.1678 L39.2381,9.6041 L41.6086,9.6041 L41.6086,9.6041 Z" id="Fill-15" fill="#FFFFFE"></path>
                    <path d="M49.5154,13.6884 C49.5154,12.6148 49.0325,11.9878 48.1866,11.9878 C47.3363,11.9878 46.8589,12.6148 46.8589,13.6884 C46.8589,14.7708 47.3363,15.3945 48.1866,15.3945 C49.0325,15.3945 49.5154,14.7664 49.5154,13.6884 Z M45.8491,13.6884 C45.8491,12.0923 46.7401,11.1188 48.1866,11.1188 C49.6287,11.1188 50.5208,12.0923 50.5208,13.6884 C50.5208,15.2944 49.6331,16.2635 48.1866,16.2635 C46.7357,16.2635 45.8491,15.2944 45.8491,13.6884 L45.8491,13.6884 Z" id="Fill-16" fill="#FFFFFE"></path>
                    <polyline id="Fill-17" fill="#FFFFFE" points="56.7303 16.1678 55.7161 16.1678 54.6931 12.5191 54.615 12.5191 53.5964 16.1678 52.5921 16.1678 51.2259 11.2145 52.2181 11.2145 53.1047 14.9941 53.1784 14.9941 54.197 11.2145 55.1342 11.2145 56.1528 14.9941 56.2298 14.9941 57.1131 11.2145 58.091 11.2145 56.7303 16.1678"></polyline>
                    <path d="M59.2394,11.2145 L60.1799,11.2145 L60.1799,12.001 L60.2525,12.001 C60.4934,11.451 60.9851,11.1188 61.7309,11.1188 C62.8364,11.1188 63.4458,11.7821 63.4458,12.9613 L63.4458,16.1678 L62.4679,16.1678 L62.4679,13.2066 C62.4679,12.4102 62.1225,12.0142 61.3987,12.0142 C60.676,12.0142 60.2162,12.4971 60.2162,13.2693 L60.2162,16.1678 L59.2394,16.1678 L59.2394,11.2145" id="Fill-18" fill="#FFFFFE"></path>
                    <polygon id="Fill-19" fill="#FFFFFE" points="65.0034 16.1678 65.9813 16.1678 65.9813 9.2807 65.0034 9.2807"></polygon>
                    <path d="M71.0061,13.6884 C71.0061,12.6148 70.5232,11.9878 69.6773,11.9878 C68.827,11.9878 68.3496,12.6148 68.3496,13.6884 C68.3496,14.7708 68.827,15.3945 69.6773,15.3945 C70.5232,15.3945 71.0061,14.7664 71.0061,13.6884 Z M67.3398,13.6884 C67.3398,12.0923 68.2308,11.1188 69.6773,11.1188 C71.1194,11.1188 72.0115,12.0923 72.0115,13.6884 C72.0115,15.2944 71.1238,16.2635 69.6773,16.2635 C68.2264,16.2635 67.3398,15.2944 67.3398,13.6884 L67.3398,13.6884 Z" id="Fill-20" fill="#FFFFFE"></path>
                    <path d="M76.2245,14.344 L76.2245,13.9293 L75.0156,14.0063 C74.3336,14.0525 74.0245,14.2846 74.0245,14.7213 C74.0245,15.1668 74.4106,15.4264 74.9419,15.4264 C75.6789,15.4264 76.2245,14.9578 76.2245,14.344 Z M73.0411,14.7664 C73.0411,13.8754 73.7044,13.3606 74.8836,13.288 L76.2245,13.211 L76.2245,12.7831 C76.2245,12.2606 75.8791,11.9647 75.2114,11.9647 C74.6658,11.9647 74.2874,12.1649 74.1785,12.5147 L73.2325,12.5147 C73.3326,11.6644 74.1323,11.1188 75.2565,11.1188 C76.4984,11.1188 77.198,11.737 77.198,12.7831 L77.198,16.1678 L76.2575,16.1678 L76.2575,15.4715 L76.1794,15.4715 C75.8846,15.9676 75.3434,16.2492 74.6922,16.2492 C73.7374,16.2492 73.0411,15.6717 73.0411,14.7664 L73.0411,14.7664 Z" id="Fill-21" fill="#FFFFFE"></path>
                    <path d="M79.4926,13.6884 C79.4926,14.7389 79.9876,15.3714 80.8159,15.3714 C81.6398,15.3714 82.1491,14.7301 82.1491,13.6928 C82.1491,12.661 81.6343,12.0098 80.8159,12.0098 C79.9931,12.0098 79.4926,12.6467 79.4926,13.6884 Z M78.4828,13.6884 C78.4828,12.1231 79.288,11.132 80.5387,11.132 C81.2174,11.132 81.7894,11.4554 82.0578,12.001 L82.1315,12.001 L82.1315,9.2807 L83.1083,9.2807 L83.1083,16.1678 L82.1722,16.1678 L82.1722,15.3846 L82.0941,15.3846 C81.7993,15.9269 81.2207,16.2492 80.5387,16.2492 C79.2792,16.2492 78.4828,15.2581 78.4828,13.6884 L78.4828,13.6884 Z" id="Fill-22" fill="#FFFFFE"></path>
                    <path d="M90.8193,13.6884 C90.8193,12.6148 90.3364,11.9878 89.4905,11.9878 C88.6402,11.9878 88.1628,12.6148 88.1628,13.6884 C88.1628,14.7708 88.6402,15.3945 89.4905,15.3945 C90.3364,15.3945 90.8193,14.7664 90.8193,13.6884 Z M87.153,13.6884 C87.153,12.0923 88.0451,11.1188 89.4905,11.1188 C90.9326,11.1188 91.8247,12.0923 91.8247,13.6884 C91.8247,15.2944 90.937,16.2635 89.4905,16.2635 C88.0407,16.2635 87.153,15.2944 87.153,13.6884 L87.153,13.6884 Z" id="Fill-23" fill="#FFFFFE"></path>
                    <path d="M93.137,11.2145 L94.0775,11.2145 L94.0775,12.001 L94.1501,12.001 C94.391,11.451 94.8827,11.1188 95.6285,11.1188 C96.734,11.1188 97.3434,11.7821 97.3434,12.9613 L97.3434,16.1678 L96.3655,16.1678 L96.3655,13.2066 C96.3655,12.4102 96.0201,12.0142 95.2963,12.0142 C94.5736,12.0142 94.1138,12.4971 94.1138,13.2693 L94.1138,16.1678 L93.137,16.1678 L93.137,11.2145" id="Fill-24" fill="#FFFFFE"></path>
                    <path d="M102.8665,9.9814 L102.8665,11.2365 L103.9401,11.2365 L103.9401,12.0604 L102.8665,12.0604 L102.8665,14.6069 C102.8665,15.1261 103.081,15.3538 103.5672,15.3538 C103.7179,15.3538 103.8037,15.3439 103.9401,15.3307 L103.9401,16.1447 C103.7806,16.1722 103.598,16.1953 103.4077,16.1953 C102.3209,16.1953 101.8886,15.8125 101.8886,14.8577 L101.8886,12.0604 L101.1021,12.0604 L101.1021,11.2365 L101.8886,11.2365 L101.8886,9.9814 L102.8665,9.9814" id="Fill-25" fill="#FFFFFE"></path>
                    <path d="M105.2755,9.2807 L106.2446,9.2807 L106.2446,12.0098 L106.3216,12.0098 C106.5614,11.4554 107.085,11.1232 107.8319,11.1232 C108.8868,11.1232 109.538,11.792 109.538,12.9701 L109.538,16.1678 L108.559,16.1678 L108.559,13.211 C108.559,12.4201 108.1905,12.0186 107.4997,12.0186 C106.6989,12.0186 106.2523,12.5246 106.2523,13.2748 L106.2523,16.1678 L105.2755,16.1678 L105.2755,9.2807" id="Fill-26" fill="#FFFFFE"></path>
                    <path d="M111.7985,13.2341 L114.301,13.2341 C114.2779,12.4564 113.8049,11.9504 113.0811,11.9504 C112.3584,11.9504 111.8535,12.4608 111.7985,13.2341 Z M115.2371,14.8302 C115.0149,15.7179 114.2229,16.2635 113.091,16.2635 C111.672,16.2635 110.803,15.29 110.803,13.706 C110.803,12.1231 111.6907,11.1188 113.0866,11.1188 C114.4649,11.1188 115.2965,12.0604 115.2965,13.6158 L115.2965,13.9568 L111.7985,13.9568 L111.7985,14.0118 C111.8315,14.8797 112.3364,15.4308 113.1174,15.4308 C113.7103,15.4308 114.1151,15.2163 114.2966,14.8302 L115.2371,14.8302 L115.2371,14.8302 Z" id="Fill-27" fill="#FFFFFE"></path>
                </g>
            </g>
        </g>
    </g>
</svg>