<?xml version="1.0" encoding="UTF-8"?>
<svg width="304px" height="66px" viewBox="0 0 304 66" version="1.1" xmlns="http://www.w3.org/2000/svg" xmlns:xlink="http://www.w3.org/1999/xlink">
    <title>Group 5</title>
    <defs>
        <linearGradient x1="89.4889112%" y1="60.5110888%" x2="10.5110888%" y2="60.5110888%" id="linearGradient-1">
            <stop stop-color="#44AFF8" offset="0%"></stop>
            <stop stop-color="#3493D5" offset="100%"></stop>
        </linearGradient>
        <polygon id="path-2" points="17.4289602 0 289.714286 0 272.285325 52 1.0491558e-12 52"></polygon>
        <filter x="-3.1%" y="-17.3%" width="108.3%" height="146.2%" filterUnits="objectBoundingBox" id="filter-3">
            <feOffset dx="3" dy="3" in="SourceAlpha" result="shadowOffsetOuter1"></feOffset>
            <feGaussianBlur stdDeviation="3.5" in="shadowOffsetOuter1" result="shadowBlurOuter1"></feGaussianBlur>
            <feColorMatrix values="0 0 0 0 0   0 0 0 0 0   0 0 0 0 0  0 0 0 0.2 0" type="matrix" in="shadowBlurOuter1"></feColorMatrix>
        </filter>
    </defs>
    <g id="Homepage-/-Msite" stroke="none" stroke-width="1" fill="none" fill-rule="evenodd">
        <g id="Group-5" transform="translate(4.000000, 4.000000)">
            <g id="Tag">
                <use fill="black" fill-opacity="1" filter="url(#filter-3)" xlink:href="#path-2"></use>
                <use fill="url(#linearGradient-1)" fill-rule="evenodd" xlink:href="#path-2"></use>
            </g>
            <path d="M62.9667364,16.8571429 C64.2581739,16.858682 65.3049725,17.9160633 65.3064958,19.2212443 L65.3064958,19.2212443 L65.3064958,34.7787554 C65.3049725,36.0839364 64.2581739,37.1413177 62.9667364,37.1428569 L62.9667364,37.1428569 L43.5540451,37.1428569 C42.2623029,37.1413177 41.215809,36.0839364 41.2142857,34.7787554 L41.2142857,34.7787554 L41.2142857,19.2212443 C41.215809,17.9160633 42.2623029,16.858682 43.5540451,16.8571429 L43.5540451,16.8571429 Z M75.023809,19.3773119 L75.023809,34.6734791 L66.9833234,30.2380184 L66.9833234,23.8127725 L75.023809,19.3773119 Z" id="Combined-Shape" fill="#FFFFFF" fill-rule="nonzero"></path>
            <path d="M99.8085472,36.0088987 C101.193964,36.0362424 102.46317,35.8220497 103.616164,35.3663206 C104.769159,34.9105914 105.680618,34.2566201 106.350539,33.4044065 C107.020461,32.552193 107.396438,31.5381956 107.478469,30.3624143 C107.651646,27.9561643 106.393834,26.0876747 103.705032,24.7569456 L103.705032,24.7569456 L102.665969,24.2784299 L100.861282,23.5948362 C99.3573754,23.0115029 98.6920108,22.2230914 98.8651879,21.2296018 C98.992792,20.4730914 99.3938337,19.8783648 100.068313,19.4454221 C100.742792,19.0124794 101.535761,18.8051227 102.447219,18.8233518 C103.376907,18.841581 104.062779,19.1013466 104.504836,19.6026487 C104.946894,20.1039508 105.145136,20.8057737 105.099563,21.7081174 L105.099563,21.7081174 L109.09175,21.7081174 C109.10998,19.8487424 108.526646,18.365344 107.34175,17.2579221 C106.156855,16.1505003 104.602818,15.5785602 102.679641,15.5421018 C101.28511,15.5238727 99.9862816,15.7585732 98.7831566,16.2462034 C97.5800316,16.7338336 96.6457868,17.4060341 95.9804222,18.2628049 C95.3150577,19.1195758 94.9504743,20.1039508 94.8866722,21.2159299 C94.7317243,23.6130654 96.1855004,25.4952268 99.2480004,26.8624143 L99.2480004,26.8624143 L101.886672,27.9151487 C103.144485,28.4893674 103.677688,29.3187945 103.486282,30.4034299 C103.367792,31.1143674 102.994094,31.6840289 102.365188,32.1124143 C101.736282,32.5407997 100.934198,32.7549924 99.9589379,32.7549924 C97.7076358,32.7185341 96.6457868,31.6202268 96.773391,29.4600706 L96.773391,29.4600706 L92.7675316,29.4463987 C92.7310733,30.6768674 92.9817243,31.7706174 93.5194847,32.7276487 C94.0937035,33.7575966 94.9322452,34.5551227 96.0351097,35.1202268 C97.1379743,35.685331 98.3957868,35.9815549 99.8085472,36.0088987 Z M112.87886,35.7217893 L114.738235,25.1944456 C115.522089,24.2647581 116.433547,23.8181435 117.47261,23.8546018 C118.529901,23.8819456 119.10412,24.3878049 119.195266,25.3721799 C119.22261,25.6729612 119.213495,26.0010862 119.167922,26.3565549 L119.167922,26.3565549 L117.595657,35.7217893 L121.451125,35.7217893 L123.009719,26.3975706 C123.182896,24.638456 122.925409,23.2507607 122.237258,22.2344846 C121.549107,21.2182086 120.471308,20.6918414 119.00386,20.6553831 C117.490839,20.6371539 116.155552,21.2751747 114.998,22.5694456 L114.998,22.5694456 L116.52925,14.7217893 L112.66011,14.7217893 L109.023391,35.7217893 L112.87886,35.7217893 Z M129.093703,35.9952268 C130.497349,36.0316852 131.755162,35.4939247 132.867141,34.3819456 C132.848912,34.9014768 132.899042,35.3480914 133.017532,35.7217893 L133.017532,35.7217893 L136.804641,35.7217893 L136.818313,35.4620237 C136.645136,35.0154091 136.567662,34.4685341 136.585891,33.8213987 L136.585891,33.8213987 L136.65425,32.9463987 L137.789016,25.8643674 C137.943964,24.3513466 137.54748,23.1140419 136.599563,22.1524534 C135.651646,21.1908648 134.339146,20.6918414 132.662063,20.6553831 C130.848261,20.6371539 129.323847,21.067818 128.088821,21.9473753 C126.853795,22.8269326 126.204381,23.9730914 126.140578,25.3858518 L126.140578,25.3858518 L130.009719,25.3721799 C130.128209,24.779732 130.397089,24.3262815 130.81636,24.0118284 C131.235631,23.6973753 131.746047,23.5492633 132.34761,23.5674924 C132.803339,23.576607 133.170201,23.7019326 133.448196,23.943469 C133.72619,24.1850055 133.887974,24.5199664 133.933547,24.9483518 C133.960891,25.2217893 133.947219,25.5088987 133.892532,25.8096799 L133.892532,25.8096799 L133.701125,26.6983518 L131.896438,26.6710081 C129.727167,26.6710081 127.997675,27.1016721 126.707961,27.9630003 C125.418248,28.8243284 124.74149,30.0616331 124.677688,31.6749143 C124.623,32.8871539 125.021763,33.9057086 125.873977,34.7305784 C126.72619,35.5554482 127.799433,35.9769977 129.093703,35.9952268 Z M130.271247,33.0014508 L130.050735,33.0010862 C129.567662,32.9919716 129.187128,32.8438596 128.909133,32.5567503 C128.631138,32.2696409 128.528599,31.8799924 128.601516,31.3878049 C128.656203,30.9503049 128.79748,30.5811643 129.025344,30.2803831 C129.65425,29.450956 130.679641,29.0180133 132.101516,28.9815549 L132.101516,28.9815549 L133.44136,28.9952268 L132.962844,31.5518674 C132.133417,32.5544716 131.162714,33.0375445 130.050735,33.0010862 L130.271247,33.0014508 Z M143.790969,35.9952268 C145.194615,36.0316852 146.452427,35.4939247 147.564407,34.3819456 C147.546177,34.9014768 147.596308,35.3480914 147.714797,35.7217893 L147.714797,35.7217893 L151.501907,35.7217893 L151.515578,35.4620237 C151.342401,35.0154091 151.264927,34.4685341 151.283157,33.8213987 L151.283157,33.8213987 L151.351516,32.9463987 L152.486282,25.8643674 C152.64123,24.3513466 152.244745,23.1140419 151.296828,22.1524534 C150.348912,21.1908648 149.036412,20.6918414 147.359328,20.6553831 C145.545526,20.6371539 144.021112,21.067818 142.786086,21.9473753 C141.55106,22.8269326 140.901646,23.9730914 140.837844,25.3858518 L140.837844,25.3858518 L144.706985,25.3721799 C144.825474,24.779732 145.094355,24.3262815 145.513625,24.0118284 C145.932896,23.6973753 146.443313,23.5492633 147.044875,23.5674924 C147.500605,23.576607 147.867467,23.7019326 148.145461,23.943469 C148.423456,24.1850055 148.58524,24.5199664 148.630813,24.9483518 C148.658157,25.2217893 148.644485,25.5088987 148.589797,25.8096799 L148.589797,25.8096799 L148.398391,26.6983518 L146.593703,26.6710081 C144.424433,26.6710081 142.69494,27.1016721 141.405227,27.9630003 C140.115513,28.8243284 139.438756,30.0616331 139.374953,31.6749143 C139.320266,32.8871539 139.719029,33.9057086 140.571243,34.7305784 C141.423456,35.5554482 142.496698,35.9769977 143.790969,35.9952268 Z M144.968513,33.0014508 L144.748,33.0010862 C144.264927,32.9919716 143.884394,32.8438596 143.606399,32.5567503 C143.328404,32.2696409 143.225865,31.8799924 143.298782,31.3878049 C143.353469,30.9503049 143.494745,30.5811643 143.72261,30.2803831 C144.351516,29.450956 145.376907,29.0180133 146.798782,28.9815549 L146.798782,28.9815549 L148.138625,28.9952268 L147.66011,31.5518674 C146.830683,32.5544716 145.85998,33.0375445 144.748,33.0010862 L144.968513,33.0014508 Z M159.130813,36.0088987 C160.598261,36.045357 161.883417,35.4210081 162.986282,34.1358518 L162.986282,34.1358518 L162.767532,35.7217893 L166.212844,35.7217893 L169.849563,14.7217893 L165.980422,14.7217893 L164.531203,22.2960081 C163.683547,21.2296018 162.571568,20.6781695 161.195266,20.6417112 C160.083287,20.6143674 159.073847,20.8786904 158.166946,21.4346799 C157.260045,21.9906695 156.49442,22.8428831 155.870071,23.9913206 C155.245722,25.1397581 154.824172,26.4704872 154.605422,27.9835081 L154.605422,27.9835081 L154.523391,28.5987424 C154.468703,29.1365029 154.455032,29.6924924 154.482375,30.2667112 C154.518834,31.3604612 154.72619,32.3516721 155.104446,33.240344 C155.482701,34.1290159 156.018183,34.810331 156.710891,35.2842893 C157.403599,35.7582477 158.21024,35.9997841 159.130813,36.0088987 Z M160.467292,32.7980375 L160.265578,32.7960081 C159.062453,32.7686643 158.415318,31.9529091 158.324172,30.3487424 C158.296828,29.8747841 158.319615,29.2914508 158.392532,28.5987424 C158.620396,26.9125445 159.046503,25.693469 159.670852,24.9415159 C160.295201,24.1895628 161.076776,23.8272581 162.015578,23.8546018 C163.081985,23.9001747 163.792922,24.4105914 164.148391,25.3858518 L164.148391,25.3858518 L163.095657,31.2647581 C162.293573,32.3311643 161.350214,32.841581 160.265578,32.7960081 L160.467292,32.7980375 Z M174.689407,19.1651487 C175.327427,19.1469195 175.84468,18.9281695 176.241164,18.5088987 C176.637649,18.0896279 176.826776,17.5974404 176.808547,17.0323362 C176.790318,16.4398883 176.567011,15.9568154 176.138625,15.5831174 C175.71024,15.2094195 175.204381,15.0316852 174.621047,15.0499143 C174.028599,15.0499143 173.52274,15.2504352 173.103469,15.6514768 C172.684198,16.0525185 172.483677,16.5583779 172.501907,17.1690549 C172.520136,17.7888466 172.745722,18.2810341 173.178664,18.6456174 C173.611607,19.0102008 174.115188,19.1833779 174.689407,19.1651487 Z M173.363235,35.7217893 L175.933547,20.9288206 L172.050735,20.9288206 L169.480422,35.7217893 L173.363235,35.7217893 Z M187.787063,35.7217893 L188.703078,30.4854612 L189.988235,20.6827268 L192.65425,35.7217893 L195.402297,35.7217893 L203.031203,21.1885862 L201.089797,30.0479612 L200.105422,35.7217893 L204.124953,35.7217893 L207.583938,15.8155393 L202.251907,15.8155393 L194.828078,30.2120237 L192.380813,15.8155393 L187.240188,15.8155393 L183.781203,35.7217893 L187.787063,35.7217893 Z M214.488235,35.9952268 C215.69136,36.013456 216.817011,35.7878701 217.865188,35.318469 C218.913365,34.849068 219.715448,34.1950966 220.271438,33.3565549 L220.271438,33.3565549 L218.507766,31.1690549 C217.450474,32.2901487 216.220006,32.8324664 214.81636,32.7960081 C213.950474,32.7777789 213.266881,32.4815549 212.765578,31.9073362 C212.264276,31.3331174 212.031855,30.5674924 212.068313,29.6104612 L212.068313,29.6104612 L221.132766,29.6104612 L221.351516,27.9288206 C221.588495,25.841581 221.217076,24.1166461 220.237258,22.7540159 C219.25744,21.3913857 217.815058,20.6918414 215.91011,20.6553831 C214.570266,20.6189247 213.348912,20.9265419 212.246047,21.5782346 C211.143183,22.2299273 210.240839,23.1573362 209.539016,24.3604612 C208.837193,25.5635862 208.417922,26.8852008 208.281203,28.3253049 L208.281203,28.3253049 L208.240188,28.8721799 C208.130813,30.1846799 208.322219,31.3855263 208.814407,32.474719 C209.306594,33.5639117 210.051711,34.4206826 211.049758,35.0450315 C212.047805,35.6693805 213.193964,35.9861122 214.488235,35.9952268 Z M217.646438,26.9307737 L212.34175,26.9307737 C212.77925,25.7823362 213.273717,24.9756956 213.825149,24.5108518 C214.376581,24.0460081 215.007766,23.8227008 215.718703,23.8409299 C216.265578,23.8500445 216.71675,24.0027138 217.072219,24.2989378 C217.427688,24.5951617 217.650995,25.0075966 217.742141,25.5362424 C217.787714,25.8643674 217.783157,26.2107216 217.728469,26.5753049 L217.728469,26.5753049 L217.646438,26.9307737 Z M229.308547,35.9952268 C230.511672,36.013456 231.637323,35.7878701 232.6855,35.318469 C233.733677,34.849068 234.535761,34.1950966 235.09175,33.3565549 L235.09175,33.3565549 L233.328078,31.1690549 C232.270787,32.2901487 231.040318,32.8324664 229.636672,32.7960081 C228.770787,32.7777789 228.087193,32.4815549 227.585891,31.9073362 C227.084589,31.3331174 226.852167,30.5674924 226.888625,29.6104612 L226.888625,29.6104612 L235.953078,29.6104612 L236.171828,27.9288206 C236.408808,25.841581 236.037388,24.1166461 235.057571,22.7540159 C234.077753,21.3913857 232.63537,20.6918414 230.730422,20.6553831 C229.390578,20.6189247 228.169224,20.9265419 227.06636,21.5782346 C225.963495,22.2299273 225.061151,23.1573362 224.359328,24.3604612 C223.657506,25.5635862 223.238235,26.8852008 223.101516,28.3253049 L223.101516,28.3253049 L223.0605,28.8721799 C222.951125,30.1846799 223.142532,31.3855263 223.634719,32.474719 C224.126907,33.5639117 224.872024,34.4206826 225.870071,35.0450315 C226.868118,35.6693805 228.014276,35.9861122 229.308547,35.9952268 Z M232.46675,26.9307737 L227.162063,26.9307737 C227.599563,25.7823362 228.094029,24.9756956 228.645461,24.5108518 C229.196894,24.0460081 229.828078,23.8227008 230.539016,23.8409299 C231.085891,23.8500445 231.537063,24.0027138 231.892532,24.2989378 C232.248,24.5951617 232.471308,25.0075966 232.562453,25.5362424 C232.608026,25.8643674 232.603469,26.2107216 232.548782,26.5753049 L232.548782,26.5753049 L232.46675,26.9307737 Z M242.242141,35.9678831 C243.03511,35.9861122 243.773391,35.8812945 244.456985,35.6534299 L244.456985,35.6534299 L244.730422,32.6319456 C244.092401,32.6866331 243.700474,32.7094195 243.554641,32.7003049 C243.062453,32.6820758 242.752558,32.5499143 242.624953,32.3038206 C242.497349,32.0577268 242.460891,31.7022581 242.515578,31.2374143 L242.515578,31.2374143 L243.773391,23.8272581 L246.234328,23.8272581 L246.740188,20.9288206 L244.27925,20.9288206 L244.921828,17.2921018 L241.052688,17.2921018 L240.423782,20.9288206 L238.331985,20.9288206 L237.826125,23.8272581 L239.917922,23.8272581 L238.646438,31.6338987 C238.537063,32.9555133 238.792271,34.0036904 239.412063,34.7784299 C240.031855,35.5531695 240.975214,35.9496539 242.242141,35.9678831 Z" id="ShaadiMeet" fill="#FFFFFF" fill-rule="nonzero"></path>
        </g>
    </g>
</svg>