<?xml version="1.0" encoding="UTF-8"?>
<svg width="149px" height="44px" viewBox="0 0 149 44" version="1.1" xmlns="http://www.w3.org/2000/svg" xmlns:xlink="http://www.w3.org/1999/xlink">
    <title>google-play-badge</title>
    <defs>
        <linearGradient x1="61.023168%" y1="4.8392%" x2="26.115776%" y2="71.9688%" id="linearGradient-1">
            <stop stop-color="#00A0FF" offset="0%"></stop>
            <stop stop-color="#00A1FF" offset="0.657445%"></stop>
            <stop stop-color="#00BEFF" offset="26.01%"></stop>
            <stop stop-color="#00D2FF" offset="51.22%"></stop>
            <stop stop-color="#00DFFF" offset="76.04%"></stop>
            <stop stop-color="#00E3FF" offset="100%"></stop>
        </linearGradient>
        <linearGradient x1="107.727094%" y1="49.4294118%" x2="-130.66601%" y2="49.4294118%" id="linearGradient-2">
            <stop stop-color="#FFE000" offset="0%"></stop>
            <stop stop-color="#FFBD00" offset="40.87%"></stop>
            <stop stop-color="#FFA500" offset="77.54%"></stop>
            <stop stop-color="#FF9C00" offset="100%"></stop>
        </linearGradient>
        <linearGradient x1="86.3886228%" y1="30.8302174%" x2="-49.8886228%" y2="136.004783%" id="linearGradient-3">
            <stop stop-color="#FF3A44" offset="0%"></stop>
            <stop stop-color="#C31162" offset="100%"></stop>
        </linearGradient>
        <linearGradient x1="-18.5796407%" y1="-11.6819197%" x2="42.2742515%" y2="35.0647982%" id="linearGradient-4">
            <stop stop-color="#32A071" offset="0%"></stop>
            <stop stop-color="#2DA771" offset="6.85%"></stop>
            <stop stop-color="#15CF74" offset="47.62%"></stop>
            <stop stop-color="#06E775" offset="80.09%"></stop>
            <stop stop-color="#00F076" offset="100%"></stop>
        </linearGradient>
    </defs>
    <g id="Homepage-/-Msite" stroke="none" stroke-width="1" fill="none" fill-rule="evenodd">
        <g id="Desktop" transform="translate(-791.000000, -1636.000000)" fill-rule="nonzero">
            <g id="Group-4" transform="translate(791.000000, 1636.000000)">
                <g id="google-play-badge">
                    <path d="M143,44 L5.5,44 C2.42,44 0,41.58 0,38.5 L0,5.5 C0,2.42 2.42,0 5.5,0 L143,0 C146.08,0 148.5,2.42 148.5,5.5 L148.5,38.5 C148.5,41.58 146.08,44 143,44 Z" id="Path" fill="#000000"></path>
                    <path d="M143,0.88 C145.53,0.88 147.62,2.97 147.62,5.5 L147.62,38.5 C147.62,41.03 145.53,43.12 143,43.12 L5.5,43.12 C2.97,43.12 0.88,41.03 0.88,38.5 L0.88,5.5 C0.88,2.97 2.97,0.88 5.5,0.88 L143,0.88 M143,0 L5.5,0 C2.42,0 0,2.53 0,5.5 L0,38.5 C0,41.58 2.42,44 5.5,44 L143,44 C146.08,44 148.5,41.58 148.5,38.5 L148.5,5.5 C148.5,2.53 146.08,0 143,0 L143,0 Z" id="Shape" fill="#A6A6A6"></path>
                    <g id="Group" transform="translate(45.100000, 6.600000)" fill="#FFFFFF" stroke="#FFFFFF" stroke-width="0.5">
                        <path d="M7.04,4.62 C7.04,5.5 6.82,6.27 6.27,6.82 C5.61,7.48 4.84,7.81 3.85,7.81 C2.86,7.81 2.09,7.48 1.43,6.82 C0.77,6.16 0.44,5.39 0.44,4.4 C0.44,3.41 0.77,2.64 1.43,1.98 C2.09,1.32 2.86,0.99 3.85,0.99 C4.29,0.99 4.73,1.1 5.17,1.32 C5.61,1.54 5.94,1.76 6.16,2.09 L5.61,2.64 C5.17,2.09 4.62,1.87 3.85,1.87 C3.19,1.87 2.53,2.09 2.09,2.64 C1.54,3.08 1.32,3.74 1.32,4.51 C1.32,5.28 1.54,5.94 2.09,6.38 C2.64,6.82 3.19,7.15 3.85,7.15 C4.62,7.15 5.17,6.93 5.72,6.38 C6.05,6.05 6.27,5.61 6.27,5.06 L3.85,5.06 L3.85,4.18 L7.04,4.18 C7.04,4.29 7.04,4.51 7.04,4.62 Z" id="Path"></path>
                        <polygon id="Path" points="12.1 1.87 9.13 1.87 9.13 3.96 11.88 3.96 11.88 4.73 9.13 4.73 9.13 6.82 12.1 6.82 12.1 7.7 8.25 7.7 8.25 1.1 12.1 1.1"></polygon>
                        <polygon id="Path" points="15.73 7.7 14.85 7.7 14.85 1.87 12.98 1.87 12.98 1.1 17.6 1.1 17.6 1.87 15.73 1.87"></polygon>
                        <polygon id="Path" points="20.79 7.7 20.79 1.1 21.67 1.1 21.67 7.7"></polygon>
                        <polygon id="Path" points="25.41 7.7 24.53 7.7 24.53 1.87 22.66 1.87 22.66 1.1 27.17 1.1 27.17 1.87 25.3 1.87 25.3 7.7"></polygon>
                        <path d="M35.86,6.82 C35.2,7.48 34.43,7.81 33.44,7.81 C32.45,7.81 31.68,7.48 31.02,6.82 C30.36,6.16 30.03,5.39 30.03,4.4 C30.03,3.41 30.36,2.64 31.02,1.98 C31.68,1.32 32.45,0.99 33.44,0.99 C34.43,0.99 35.2,1.32 35.86,1.98 C36.52,2.64 36.85,3.41 36.85,4.4 C36.85,5.39 36.52,6.16 35.86,6.82 Z M31.68,6.27 C32.12,6.71 32.78,7.04 33.44,7.04 C34.1,7.04 34.76,6.82 35.2,6.27 C35.64,5.83 35.97,5.17 35.97,4.4 C35.97,3.63 35.75,2.97 35.2,2.53 C34.76,2.09 34.1,1.76 33.44,1.76 C32.78,1.76 32.12,1.98 31.68,2.53 C31.24,2.97 30.91,3.63 30.91,4.4 C30.91,5.17 31.13,5.83 31.68,6.27 Z" id="Shape"></path>
                        <polygon id="Path" points="38.06 7.7 38.06 1.1 39.05 1.1 42.24 6.27 42.24 6.27 42.24 4.95 42.24 1.1 43.12 1.1 43.12 7.7 42.24 7.7 38.83 2.31 38.83 2.31 38.83 3.63 38.83 7.7"></polygon>
                    </g>
                    <path d="M74.91,23.98 C72.27,23.98 70.18,25.96 70.18,28.71 C70.18,31.35 72.27,33.44 74.91,33.44 C77.55,33.44 79.64,31.46 79.64,28.71 C79.64,25.85 77.55,23.98 74.91,23.98 Z M74.91,31.46 C73.48,31.46 72.27,30.25 72.27,28.6 C72.27,26.95 73.48,25.74 74.91,25.74 C76.34,25.74 77.55,26.84 77.55,28.6 C77.55,30.25 76.34,31.46 74.91,31.46 Z M64.68,23.98 C62.04,23.98 59.95,25.96 59.95,28.71 C59.95,31.35 62.04,33.44 64.68,33.44 C67.32,33.44 69.41,31.46 69.41,28.71 C69.41,25.85 67.32,23.98 64.68,23.98 Z M64.68,31.46 C63.25,31.46 62.04,30.25 62.04,28.6 C62.04,26.95 63.25,25.74 64.68,25.74 C66.11,25.74 67.32,26.84 67.32,28.6 C67.32,30.25 66.11,31.46 64.68,31.46 Z M52.47,25.41 L52.47,27.39 L57.2,27.39 C57.09,28.49 56.65,29.37 56.1,29.92 C55.44,30.58 54.34,31.35 52.47,31.35 C49.5,31.35 47.3,29.04 47.3,26.07 C47.3,23.1 49.61,20.79 52.47,20.79 C54.01,20.79 55.22,21.45 56.1,22.22 L57.53,20.79 C56.32,19.69 54.78,18.81 52.58,18.81 C48.62,18.81 45.21,22.11 45.21,26.07 C45.21,30.03 48.62,33.33 52.58,33.33 C54.78,33.33 56.32,32.67 57.64,31.24 C58.96,29.92 59.4,28.05 59.4,26.62 C59.4,26.18 59.4,25.74 59.29,25.41 L52.47,25.41 L52.47,25.41 Z M102.41,26.95 C101.97,25.85 100.87,23.98 98.45,23.98 C96.03,23.98 94.05,25.85 94.05,28.71 C94.05,31.35 96.03,33.44 98.67,33.44 C100.76,33.44 102.08,32.12 102.52,31.35 L100.98,30.25 C100.43,31.02 99.77,31.57 98.67,31.57 C97.57,31.57 96.91,31.13 96.36,30.14 L102.63,27.5 L102.41,26.95 Z M96.03,28.49 C96.03,26.73 97.46,25.74 98.45,25.74 C99.22,25.74 99.99,26.18 100.21,26.73 L96.03,28.49 Z M90.86,33 L92.95,33 L92.95,19.25 L90.86,19.25 L90.86,33 Z M87.56,24.97 L87.56,24.97 C87.01,24.42 86.13,23.87 85.03,23.87 C82.72,23.87 80.52,25.96 80.52,28.6 C80.52,31.24 82.61,33.22 85.03,33.22 C86.13,33.22 87.01,32.67 87.45,32.12 L87.56,32.12 L87.56,32.78 C87.56,34.54 86.57,35.53 85.03,35.53 C83.82,35.53 82.94,34.65 82.72,33.88 L80.96,34.65 C81.51,35.86 82.83,37.4 85.14,37.4 C87.56,37.4 89.54,35.97 89.54,32.56 L89.54,24.2 L87.56,24.2 L87.56,24.97 L87.56,24.97 Z M85.14,31.46 C83.71,31.46 82.5,30.25 82.5,28.6 C82.5,26.95 83.71,25.74 85.14,25.74 C86.57,25.74 87.67,26.95 87.67,28.6 C87.67,30.25 86.57,31.46 85.14,31.46 Z M111.98,19.25 L107.03,19.25 L107.03,33 L109.12,33 L109.12,27.83 L111.98,27.83 C114.29,27.83 116.49,26.18 116.49,23.54 C116.49,20.9 114.29,19.25 111.98,19.25 Z M112.09,25.85 L109.12,25.85 L109.12,21.12 L112.09,21.12 C113.63,21.12 114.51,22.44 114.51,23.43 C114.4,24.64 113.52,25.85 112.09,25.85 Z M124.74,23.87 C123.2,23.87 121.66,24.53 121.11,25.96 L122.98,26.73 C123.42,25.96 124.08,25.74 124.85,25.74 C125.95,25.74 126.94,26.4 127.05,27.5 L127.05,27.61 C126.72,27.39 125.84,27.06 124.96,27.06 C122.98,27.06 121,28.16 121,30.14 C121,32.01 122.65,33.22 124.41,33.22 C125.84,33.22 126.5,32.56 127.05,31.9 L127.16,31.9 L127.16,33 L129.14,33 L129.14,27.72 C128.92,25.3 127.05,23.87 124.74,23.87 Z M124.52,31.46 C123.86,31.46 122.87,31.13 122.87,30.25 C122.87,29.15 124.08,28.82 125.07,28.82 C125.95,28.82 126.39,29.04 126.94,29.26 C126.72,30.58 125.62,31.46 124.52,31.46 Z M136.07,24.2 L133.76,30.14 L133.65,30.14 L131.23,24.2 L129.03,24.2 L132.66,32.56 L130.57,37.18 L132.66,37.18 L138.27,24.2 L136.07,24.2 L136.07,24.2 Z M117.59,33 L119.68,33 L119.68,19.25 L117.59,19.25 L117.59,33 Z" id="Shape" fill="#FFFFFF"></path>
                    <g id="Group" transform="translate(9.900000, 7.700000)">
                        <path d="M1.54,0.55 C1.21,0.88 1.1,1.43 1.1,2.09 L1.1,26.4 C1.1,27.06 1.32,27.61 1.65,27.94 L1.76,28.05 L15.4,14.41 L15.4,14.3 L15.4,14.19 L1.54,0.55 L1.54,0.55 Z" id="Path" fill="url(#linearGradient-1)"></path>
                        <path d="M19.8,19.03 L15.29,14.52 L15.29,14.3 L15.29,14.19 L19.8,9.68 L19.91,9.79 L25.3,12.87 C26.84,13.75 26.84,15.18 25.3,16.06 L19.8,19.03 L19.8,19.03 Z" id="Path" fill="url(#linearGradient-2)"></path>
                        <path d="M19.91,18.92 L15.29,14.3 L1.54,28.05 C2.09,28.6 2.86,28.6 3.85,28.16 L19.91,18.92" id="Path" fill="url(#linearGradient-3)"></path>
                        <path d="M19.91,9.68 L3.85,0.55 C2.86,1.38777878e-16 2.09,0.11 1.54,0.66 L15.29,14.3 L19.91,9.68 Z" id="Path" fill="url(#linearGradient-4)"></path>
                        <g transform="translate(0.000000, 18.700000)" fill="#000000" id="Path">
                            <path d="M19.8,0.11 L3.85,9.13 C2.97,9.68 2.2,9.57 1.65,9.13 L1.65,9.13 L1.54,9.24 L1.54,9.24 L1.65,9.35 L1.65,9.35 C2.2,9.79 2.97,9.9 3.85,9.35 L19.8,0.11 L19.8,0.11 Z" opacity="0.2"></path>
                            <path d="M1.54,9.13 C1.21,8.8 1.1,8.25 1.1,7.59 L1.1,7.7 C1.1,8.36 1.32,8.91 1.65,9.24 L1.65,9.13 L1.54,9.13 Z" opacity="0.12"></path>
                        </g>
                        <path d="M25.3,15.73 L19.8,18.81 L19.91,18.92 L25.3,15.84 C26.07,15.4 26.4,14.85 26.4,14.3 L26.4,14.3 C26.4,14.85 25.96,15.29 25.3,15.73 Z" id="Path" fill="#000000" opacity="0.12"></path>
                        <path d="M3.85,0.66 L25.3,12.87 C25.96,13.31 26.4,13.75 26.4,14.3 L26.4,14.3 C26.4,13.75 26.07,13.2 25.3,12.76 L3.85,0.55 C2.31,-0.33 1.1,0.33 1.1,2.09 L1.1,2.2 C1.1,0.55 2.31,-0.22 3.85,0.66 Z" id="Path" fill="#FFFFFF" opacity="0.25"></path>
                    </g>
                </g>
            </g>
        </g>
    </g>
</svg>