<svg xmlns="http://www.w3.org/2000/svg" stroke-linecap="round" stroke-linejoin="round" stroke-miterlimit="10" clip-rule="evenodd" viewBox="0 0 567.658 536.105" xml:space="preserve"><path fill="#fff" d="M0 0h567.658v536.105H0V0Z"/><path fill="#d6d2d2" d="M137.082 389.539c0-35.62 62.296-64.495 139.142-64.495s139.142 28.875 139.142 64.495c0 35.619-62.296 64.494-139.142 64.494s-139.142-28.875-139.142-64.494Z"/><path fill="none" stroke="#1ec94b" stroke-dasharray="2" stroke-linecap="butt" stroke-width="2" d="M256.249 386.881c0-7.118 13.28-12.889 29.661-12.889s29.66 5.771 29.66 12.889c0 7.118-13.279 12.888-29.66 12.888s-29.661-5.77-29.661-12.888Z"/><path fill="#e2e2e2" d="M110.841 200.978c0-4.917 2.955-8.903 6.6-8.903h291.783c3.645 0 6.6 3.986 6.6 8.903s-2.955 8.902-6.6 8.902H117.441c-3.645 0-6.6-3.985-6.6-8.902Z"/><path fill="#726a6a" d="m327.422 95.13 7.909-7.948c3.775-3.793 3.943-8.298.27-11.953l-3.492-3.595c-3.613-3.655-8.237-3.283-12.012.39l-7.909 7.888 15.234 15.218Zm-79.864 80.324 72.435-72.917-15.294-15.158-72.435 72.918-6.025 16.412c-1.193 3.246 2.057 6.061 4.878 5.033l16.441-6.288Z"/><path fill="none" stroke="#1e23c9" stroke-dasharray="2.711" stroke-linecap="butt" stroke-width="1.355" d="M357.381 180.294c2.869-13.723 9.024-55.293-12.9-87.22"/><path fill="#1e23c9" d="m345.181 94.031 5.929.068-9.432-4.852 1.778 10.457 1.725-5.673Zm12.471 85.109-3.807-4.547 2.453 10.319 6.784-8.153-5.43 2.381Z"/><path fill="none" stroke="#1e23c9" stroke-linecap="butt" stroke-width="1.228" d="m275.291 156.367-27.63 28.549h39.949"/><path fill="none" stroke="#1e23c9" stroke-linecap="butt" stroke-width="1.228" d="M261.649 170.642c7.947 5.031 4.432 14.097 4.432 14.097"/><path fill="#726a6a" d="m370.659 460.963 5.224-13.601h1.939l5.566 13.601h-2.05l-1.587-4.119h-5.687l-1.493 4.119h-1.912Zm3.925-5.585h4.611l-1.42-3.767c-.433-1.144-.754-2.084-.965-2.82a17.266 17.266 0 0 1-.733 2.598l-1.493 3.989Zm9.147 5.585v-1.355l6.272-7.199c-.712.037-1.339.056-1.884.056h-4.017v-1.355h8.053v1.104l-5.334 6.253-1.03 1.141c.748-.055 1.45-.083 2.106-.083h4.555v1.438h-8.721Zm10.391-11.68v-1.921h1.67v1.921h-1.67Zm0 11.68v-9.853h1.67v9.853h-1.67Zm4.212 0v-9.853h1.493v1.383a3.52 3.52 0 0 1 1.234-1.165c.514-.293 1.098-.44 1.754-.44.73 0 1.328.151 1.795.454.467.303.796.727.988 1.271.779-1.15 1.794-1.725 3.043-1.725.977 0 1.729.27 2.254.811.526.542.789 1.375.789 2.501v6.763h-1.661v-6.207c0-.668-.054-1.149-.162-1.442a1.397 1.397 0 0 0-.589-.71 1.844 1.844 0 0 0-1.002-.269c-.693 0-1.268.23-1.726.691-.457.461-.686 1.198-.686 2.213v5.724h-1.67v-6.402c0-.742-.136-1.298-.408-1.669-.273-.372-.718-.557-1.336-.557-.47 0-.905.124-1.304.371s-.688.609-.867 1.085c-.18.477-.269 1.163-.269 2.06v5.112h-1.67Zm22.284 0v-1.447c-.767 1.113-1.809 1.669-3.127 1.669a3.979 3.979 0 0 1-1.628-.334c-.504-.222-.878-.502-1.122-.839-.245-.337-.416-.75-.515-1.239-.068-.327-.102-.847-.102-1.558v-6.105h1.67v5.465c0 .872.034 1.459.102 1.762.105.439.328.784.668 1.035.34.25.76.375 1.261.375a2.75 2.75 0 0 0 1.411-.385c.439-.256.75-.606.932-1.048.182-.442.274-1.084.274-1.925v-5.279h1.67v9.853h-1.494Zm7.756-1.494.241 1.475c-.47.099-.891.149-1.262.149-.606 0-1.076-.096-1.41-.288-.334-.192-.569-.444-.705-.756s-.204-.969-.204-1.971v-5.669h-1.225v-1.299h1.225v-2.44l1.661-1.002v3.442h1.679v1.299h-1.679v5.761c0 .477.029.783.088.919a.694.694 0 0 0 .287.325c.133.08.323.12.571.12.185 0 .43-.022.733-.065Zm1.633 1.494v-13.601h1.67v4.88c.779-.903 1.762-1.354 2.95-1.354.73 0 1.364.143 1.902.431.538.288.923.685 1.155 1.192.232.507.348 1.243.348 2.208v6.244h-1.67v-6.244c0-.835-.181-1.442-.543-1.823-.362-.38-.874-.57-1.536-.57-.494 0-.96.128-1.396.385a2.167 2.167 0 0 0-.932 1.043c-.186.439-.278 1.046-.278 1.819v5.39h-1.67Zm25.609-1.216c-.619.526-1.214.897-1.786 1.114a5.171 5.171 0 0 1-1.842.324c-1.082 0-1.914-.264-2.496-.793-.581-.529-.872-1.204-.872-2.027 0-.482.11-.923.33-1.322.219-.399.507-.719.863-.96a4.038 4.038 0 0 1 1.201-.547c.328-.087.823-.171 1.484-.251 1.349-.161 2.341-.352 2.978-.575.007-.229.01-.374.01-.436 0-.68-.158-1.16-.474-1.438-.426-.377-1.06-.566-1.901-.566-.786 0-1.366.138-1.74.413-.374.275-.651.762-.83 1.461l-1.633-.223c.148-.699.393-1.263.733-1.693.34-.43.832-.761 1.475-.992.643-.232 1.389-.348 2.236-.348.841 0 1.524.099 2.05.296.526.198.912.447 1.16.747.247.3.42.679.519 1.137.056.284.084.798.084 1.54v2.226c0 1.553.035 2.535.107 2.946.071.411.211.806.422 1.183h-1.745a3.541 3.541 0 0 1-.333-1.216Zm-.14-3.729c-.606.247-1.515.458-2.727.631-.687.099-1.172.21-1.457.334a1.446 1.446 0 0 0-.658.543 1.421 1.421 0 0 0-.232.793c0 .445.168.816.505 1.113.337.297.831.445 1.48.445.643 0 1.215-.14 1.716-.422a2.595 2.595 0 0 0 1.104-1.155c.18-.377.269-.934.269-1.67v-.612Zm4.277 4.945v-9.853h1.503v1.401c.724-1.082 1.769-1.623 3.136-1.623a4.1 4.1 0 0 1 1.637.32c.498.213.871.493 1.118.839.248.347.421.758.52 1.234.062.309.093.851.093 1.624v6.058h-1.67v-5.993c0-.681-.065-1.189-.195-1.526a1.603 1.603 0 0 0-.691-.808c-.331-.201-.719-.301-1.165-.301-.711 0-1.325.226-1.841.677-.517.452-.775 1.308-.775 2.57v5.381h-1.67Zm10.261.816 1.623.241c.069.501.257.866.566 1.095.415.309.981.464 1.698.464.773 0 1.37-.155 1.791-.464.42-.309.705-.742.853-1.299.087-.34.127-1.054.121-2.143-.73.86-1.639 1.29-2.728 1.29-1.354 0-2.403-.489-3.145-1.466s-1.113-2.149-1.113-3.516c0-.94.17-1.808.51-2.602.34-.795.834-1.409 1.48-1.842.646-.433 1.405-.649 2.278-.649 1.162 0 2.121.47 2.876 1.41v-1.188h1.54v8.517c0 1.534-.157 2.621-.469 3.261-.312.64-.807 1.146-1.484 1.517-.678.371-1.511.556-2.501.556-1.175 0-2.124-.264-2.848-.793-.723-.529-1.073-1.325-1.048-2.389Zm1.382-5.919c0 1.293.257 2.236.77 2.83.514.594 1.157.89 1.93.89.767 0 1.41-.295 1.93-.885.519-.591.779-1.517.779-2.779 0-1.206-.268-2.115-.803-2.728-.535-.612-1.179-.918-1.934-.918-.742 0-1.373.301-1.892.904-.52.604-.78 1.499-.78 2.686Zm9.454 5.103v-13.601h1.67v13.601h-1.67Zm11.003-3.173 1.725.213c-.272 1.008-.776 1.791-1.512 2.348-.736.556-1.676.834-2.82.834-1.441 0-2.584-.443-3.428-1.331-.844-.887-1.266-2.132-1.266-3.734 0-1.658.426-2.944 1.28-3.859.853-.916 1.96-1.373 3.321-1.373 1.317 0 2.394.448 3.229 1.345s1.252 2.158 1.252 3.785c0 .099-.003.247-.009.445h-7.348c.062 1.083.368 1.911.919 2.487.55.575 1.237.862 2.059.862.612 0 1.135-.16 1.568-.482.433-.322.776-.835 1.03-1.54Zm-5.483-2.7h5.501c-.074-.829-.284-1.45-.63-1.864-.532-.644-1.222-.965-2.069-.965-.767 0-1.412.256-1.935.77-.522.513-.811 1.2-.867 2.059ZM383.668 127.477l5.223-13.601h1.939l5.567 13.601h-2.051l-1.586-4.119h-5.687l-1.494 4.119h-1.911Zm3.924-5.585h4.611l-1.419-3.767c-.433-1.144-.755-2.084-.965-2.82a17.385 17.385 0 0 1-.733 2.598l-1.494 3.989Zm9.992 5.585v-13.601h1.67v13.601h-1.67Zm7.904-1.494.242 1.475c-.47.099-.891.149-1.262.149-.606 0-1.076-.096-1.41-.288-.334-.192-.569-.444-.705-.756s-.204-.969-.204-1.971v-5.669h-1.225v-1.299h1.225v-2.44l1.66-1.001v3.441h1.679v1.299h-1.679v5.761c0 .477.03.783.088.919a.701.701 0 0 0 .288.325c.133.08.323.12.57.12.186 0 .43-.021.733-.065Zm1.642-10.186v-1.921h1.67v1.921h-1.67Zm0 11.68v-9.853h1.67v9.853h-1.67Zm7.858-1.494.242 1.475c-.47.099-.891.149-1.262.149-.606 0-1.076-.096-1.41-.288-.334-.192-.569-.444-.705-.756s-.204-.969-.204-1.971v-5.669h-1.225v-1.299h1.225v-2.44l1.66-1.001v3.441h1.679v1.299h-1.679v5.761c0 .477.03.783.088.919a.701.701 0 0 0 .288.325c.133.08.323.12.57.12.186 0 .43-.021.733-.065Zm8.09 1.494v-1.447c-.767 1.113-1.809 1.67-3.126 1.67a3.992 3.992 0 0 1-1.628-.334c-.504-.223-.879-.503-1.123-.84-.244-.337-.416-.75-.515-1.239-.068-.327-.102-.847-.102-1.558v-6.105h1.67v5.465c0 .872.034 1.459.102 1.762.105.44.328.784.668 1.035.34.25.761.376 1.262.376s.971-.129 1.41-.385c.439-.257.75-.607.932-1.049.183-.442.274-1.084.274-1.925v-5.279h1.67v9.853h-1.494Zm10.502 0v-1.243c-.625.977-1.543 1.466-2.755 1.466a3.86 3.86 0 0 1-2.166-.65c-.659-.433-1.169-1.037-1.531-1.814-.362-.776-.543-1.668-.543-2.676 0-.983.164-1.876.492-2.677.328-.801.819-1.414 1.475-1.841a3.94 3.94 0 0 1 2.199-.64c.593 0 1.122.125 1.586.375.464.251.841.577 1.132.979v-4.88h1.66v13.601h-1.549Zm-5.279-4.917c0 1.262.266 2.205.798 2.83.532.624 1.16.937 1.884.937.729 0 1.349-.299 1.86-.896.51-.597.765-1.507.765-2.732 0-1.348-.26-2.338-.779-2.969-.52-.63-1.16-.946-1.921-.946-.742 0-1.362.303-1.86.909-.498.606-.747 1.562-.747 2.867Zm16.199 1.744 1.725.213c-.272 1.009-.776 1.791-1.512 2.348-.736.556-1.676.835-2.82.835-1.441 0-2.584-.444-3.428-1.332-.845-.887-1.267-2.132-1.267-3.734 0-1.657.427-2.944 1.281-3.859.853-.916 1.96-1.373 3.321-1.373 1.317 0 2.393.448 3.228 1.345.835.897 1.253 2.158 1.253 3.785 0 .099-.003.248-.009.445h-7.348c.062 1.083.368 1.912.918 2.487.551.575 1.237.863 2.06.863.612 0 1.135-.161 1.568-.483.433-.321.776-.835 1.03-1.54Zm-5.483-2.7h5.501c-.074-.828-.284-1.45-.631-1.864-.532-.644-1.221-.965-2.069-.965-.766 0-1.411.256-1.934.77-.523.513-.812 1.2-.867 2.059Zm24.347 4.658c-.619.525-1.214.896-1.786 1.113a5.171 5.171 0 0 1-1.842.325c-1.082 0-1.914-.265-2.495-.794-.582-.528-.872-1.204-.872-2.027 0-.482.11-.923.329-1.322.22-.399.507-.719.863-.96a4.05 4.05 0 0 1 1.201-.547c.328-.087.823-.17 1.485-.251 1.348-.161 2.341-.352 2.978-.575.006-.229.009-.374.009-.436 0-.68-.158-1.16-.473-1.438-.427-.377-1.061-.566-1.902-.566-.786 0-1.365.138-1.74.413-.374.275-.65.762-.83 1.461l-1.633-.223c.149-.698.393-1.263.733-1.693.34-.43.832-.76 1.475-.992.644-.232 1.389-.348 2.236-.348.841 0 1.525.099 2.05.297.526.198.913.446 1.16.746.248.3.421.679.52 1.137.055.284.083.798.083 1.54v2.227c0 1.552.036 2.534.107 2.945.071.411.212.806.422 1.183h-1.744a3.535 3.535 0 0 1-.334-1.215Zm-.139-3.73c-.606.248-1.516.458-2.728.631-.686.099-1.172.21-1.456.334a1.455 1.455 0 0 0-.659.543 1.421 1.421 0 0 0-.232.793c0 .445.169.816.506 1.113.337.297.83.445 1.479.445.644 0 1.216-.14 1.717-.422a2.595 2.595 0 0 0 1.104-1.155c.179-.377.269-.934.269-1.67v-.612Zm4.277 4.945v-9.853h1.502v1.401c.724-1.082 1.769-1.623 3.136-1.623.594 0 1.14.106 1.638.32.498.213.87.493 1.118.839.247.347.42.758.519 1.234.062.31.093.851.093 1.624v6.058h-1.67v-5.993c0-.681-.065-1.189-.195-1.526a1.605 1.605 0 0 0-.691-.807c-.331-.201-.719-.302-1.164-.302-.712 0-1.325.226-1.842.677-.516.452-.775 1.308-.775 2.57v5.381h-1.669Zm10.26.816 1.624.242c.068.501.257.865.566 1.094.414.31.98.464 1.698.464.773 0 1.369-.154 1.79-.464.421-.309.705-.742.854-1.299.086-.34.126-1.054.12-2.143-.73.86-1.639 1.29-2.727 1.29-1.355 0-2.403-.489-3.145-1.466-.743-.977-1.114-2.149-1.114-3.516 0-.94.17-1.808.511-2.602.34-.795.833-1.409 1.479-1.842.647-.433 1.406-.649 2.278-.649 1.163 0 2.121.47 2.876 1.41v-1.188h1.54v8.517c0 1.534-.156 2.621-.469 3.261-.312.64-.807 1.146-1.484 1.517-.677.371-1.511.556-2.5.556-1.175 0-2.125-.264-2.848-.793-.724-.529-1.073-1.325-1.049-2.389Zm1.383-5.919c0 1.293.256 2.236.77 2.83.513.594 1.156.891 1.929.891.767 0 1.41-.296 1.93-.886.52-.591.779-1.517.779-2.779 0-1.206-.267-2.115-.802-2.727-.535-.613-1.18-.919-1.935-.919-.742 0-1.373.302-1.892.905-.52.603-.779 1.498-.779 2.685Zm9.453 5.103v-13.601h1.67v13.601h-1.67Zm11.003-3.173 1.726.213c-.272 1.009-.776 1.791-1.512 2.348-.736.556-1.677.835-2.821.835-1.441 0-2.584-.444-3.428-1.332-.844-.887-1.266-2.132-1.266-3.734 0-1.657.427-2.944 1.28-3.859.854-.916 1.961-1.373 3.321-1.373 1.318 0 2.394.448 3.229 1.345s1.252 2.158 1.252 3.785c0 .099-.003.248-.009.445h-7.348c.062 1.083.368 1.912.919 2.487.55.575 1.237.863 2.06.863.612 0 1.134-.161 1.567-.483.433-.321.777-.835 1.03-1.54Zm-5.483-2.7h5.502c-.075-.828-.285-1.45-.631-1.864-.532-.644-1.222-.965-2.069-.965-.767 0-1.412.256-1.934.77-.523.513-.812 1.2-.868 2.059Zm-49.601 88.276 5.26-7.087-4.638-6.513h2.143l2.467 3.488c.514.724.879 1.28 1.095 1.67a17.78 17.78 0 0 1 1.076-1.549l2.737-3.609h1.958l-4.778 6.41 5.149 7.19h-2.227l-3.423-4.852a22.69 22.69 0 0 1-.594-.909c-.303.495-.519.835-.649 1.021l-3.414 4.74h-2.162Zm25.55-1.215c-.619.526-1.214.897-1.786 1.113a5.15 5.15 0 0 1-1.842.325c-1.082 0-1.914-.264-2.495-.793-.582-.529-.872-1.205-.872-2.027 0-.483.109-.923.329-1.322.22-.399.507-.719.863-.96a4.04 4.04 0 0 1 1.201-.548c.328-.086.823-.17 1.485-.25 1.348-.161 2.341-.353 2.978-.576.006-.228.009-.374.009-.436 0-.68-.158-1.159-.473-1.438-.427-.377-1.061-.565-1.902-.565-.786 0-1.365.137-1.74.412-.374.276-.651.763-.83 1.462l-1.633-.223c.149-.699.393-1.263.733-1.693.34-.43.832-.761 1.475-.993.643-.232 1.389-.348 2.236-.348.841 0 1.525.099 2.05.297.526.198.913.447 1.16.747.247.3.421.679.52 1.136.055.285.083.798.083 1.54v2.227c0 1.552.036 2.534.107 2.946.071.411.212.805.422 1.182h-1.744a3.529 3.529 0 0 1-.334-1.215Zm-.139-3.729c-.607.247-1.516.457-2.728.63-.686.099-1.172.211-1.457.334a1.424 1.424 0 0 0-.89 1.336c0 .446.168.817.505 1.114.338.297.831.445 1.48.445.643 0 1.216-.141 1.717-.422a2.605 2.605 0 0 0 1.104-1.155c.179-.377.269-.934.269-1.67v-.612Zm3.163 4.944 3.6-5.121-3.331-4.731h2.088l1.512 2.31c.284.439.513.807.686 1.104.272-.408.523-.77.752-1.086l1.66-2.328h1.995l-3.405 4.639 3.665 5.213h-2.05l-2.023-3.061-.538-.826-2.588 3.887h-2.023Zm10.623-11.68v-1.92h1.67v1.92h-1.67Zm0 11.68v-9.852h1.67v9.852h-1.67Zm3.544-2.941 1.651-.259c.093.661.351 1.169.775 1.521.423.353 1.016.529 1.776.529.767 0 1.336-.156 1.707-.469.371-.312.557-.678.557-1.099 0-.377-.164-.674-.492-.89-.229-.149-.798-.338-1.707-.566-1.224-.31-2.073-.577-2.546-.803-.474-.226-.832-.538-1.077-.937a2.486 2.486 0 0 1-.366-1.322c0-.439.1-.846.301-1.22.202-.374.475-.685.822-.932.259-.192.613-.354 1.062-.487.448-.133.929-.2 1.442-.2.774 0 1.452.112 2.037.334.584.223 1.016.524 1.294.905.278.38.47.889.575 1.526l-1.633.223c-.074-.508-.289-.903-.644-1.188-.356-.285-.859-.427-1.508-.427-.767 0-1.314.127-1.642.381-.328.253-.492.55-.492.89 0 .217.068.412.204.585.136.179.35.328.64.445.167.062.659.204 1.476.427 1.181.315 2.005.573 2.472.774.467.201.833.494 1.099.877.266.384.399.86.399 1.429 0 .557-.162 1.081-.487 1.572-.324.492-.793.872-1.405 1.141-.613.27-1.305.404-2.078.404-1.281 0-2.256-.266-2.927-.798-.671-.532-1.1-1.32-1.285-2.366ZM144.845 465.998l5.261-7.088-4.639-6.513h2.143l2.468 3.489c.513.723.878 1.28 1.095 1.67.303-.495.661-1.012 1.076-1.55l2.737-3.609h1.957l-4.778 6.411 5.149 7.19h-2.226l-3.424-4.852a24.694 24.694 0 0 1-.593-.909c-.303.494-.52.835-.65 1.02l-3.414 4.741h-2.162Zm25.55-1.215c-.618.525-1.214.896-1.786 1.113a5.17 5.17 0 0 1-1.841.325c-1.083 0-1.914-.265-2.496-.794-.581-.528-.872-1.204-.872-2.027a2.734 2.734 0 0 1 1.192-2.282 4.044 4.044 0 0 1 1.202-.547c.328-.087.822-.17 1.484-.251 1.348-.161 2.341-.352 2.978-.575.006-.229.009-.374.009-.436 0-.68-.157-1.16-.473-1.438-.427-.377-1.06-.566-1.902-.566-.785 0-1.365.138-1.739.413-.374.275-.651.762-.83 1.461l-1.633-.223c.148-.698.392-1.263.733-1.693.34-.43.832-.76 1.475-.992.643-.232 1.388-.348 2.236-.348.841 0 1.524.099 2.05.297.526.198.912.446 1.16.746.247.3.42.679.519 1.137.056.284.084.798.084 1.54v2.226c0 1.553.035 2.535.106 2.946.071.411.212.806.422 1.183h-1.744a3.558 3.558 0 0 1-.334-1.215Zm-.139-3.73c-.606.247-1.515.458-2.727.631-.687.099-1.172.21-1.457.334a1.46 1.46 0 0 0-.659.543 1.43 1.43 0 0 0-.232.793c0 .445.169.816.506 1.113.337.297.83.445 1.48.445.643 0 1.215-.14 1.716-.422a2.595 2.595 0 0 0 1.104-1.155c.179-.377.269-.934.269-1.67v-.612Zm3.164 4.945 3.599-5.121-3.33-4.732h2.087l1.512 2.31c.285.44.514.808.687 1.104.272-.408.522-.77.751-1.085l1.661-2.329h1.995l-3.405 4.639 3.664 5.214h-2.05l-2.022-3.062-.538-.825-2.589 3.887h-2.022Zm10.622-11.68v-1.921h1.67v1.921h-1.67Zm0 11.68v-9.853h1.67v9.853h-1.67Zm3.544-2.941 1.652-.26c.092.662.351 1.169.774 1.522.424.352 1.016.529 1.777.529.767 0 1.336-.157 1.707-.469.371-.312.556-.679.556-1.099 0-.378-.163-.675-.491-.891-.229-.148-.798-.337-1.707-.566-1.225-.309-2.074-.577-2.547-.802-.473-.226-.832-.538-1.076-.937a2.486 2.486 0 0 1-.366-1.322c0-.44.1-.846.301-1.22.201-.375.475-.685.821-.933.26-.191.614-.354 1.062-.487.449-.133.93-.199 1.443-.199.773 0 1.452.111 2.036.334.585.222 1.016.524 1.295.904.278.381.47.889.575 1.526l-1.633.223c-.074-.507-.289-.903-.645-1.187-.356-.285-.858-.427-1.507-.427-.767 0-1.315.127-1.643.38-.327.254-.491.551-.491.891 0 .216.068.411.204.584.136.18.349.328.64.446.167.061.659.204 1.475.426 1.181.316 2.006.574 2.473.775a2.51 2.51 0 0 1 1.099.877c.266.383.399.859.399 1.428a2.81 2.81 0 0 1-.487 1.573c-.325.492-.793.872-1.406 1.141-.612.269-1.305.404-2.078.404-1.28 0-2.256-.266-2.927-.798-.671-.532-1.099-1.321-1.285-2.366Zm-69.947-126.292v-5.761l-5.242-7.84h2.189l2.682 4.101c.494.767.955 1.534 1.382 2.301.408-.712.903-1.512 1.484-2.403l2.635-3.999h2.097l-5.428 7.84v5.761h-1.799Zm19.992-1.215c-.618.525-1.213.896-1.786 1.113a5.17 5.17 0 0 1-1.841.325c-1.083 0-1.914-.265-2.496-.794-.581-.528-.872-1.204-.872-2.027 0-.482.11-.923.33-1.322.219-.399.507-.719.862-.96a4.044 4.044 0 0 1 1.202-.547c.328-.087.822-.17 1.484-.251 1.348-.161 2.341-.352 2.978-.575.006-.229.009-.374.009-.436 0-.68-.157-1.16-.473-1.438-.426-.377-1.06-.566-1.902-.566-.785 0-1.365.138-1.739.413-.374.275-.651.762-.83 1.461l-1.633-.223c.148-.698.393-1.263.733-1.693.34-.43.832-.76 1.475-.992.643-.232 1.388-.348 2.236-.348.841 0 1.524.099 2.05.297.526.198.912.447 1.16.746.247.3.42.679.519 1.137.056.284.084.798.084 1.54v2.227c0 1.552.035 2.534.106 2.945.071.411.212.806.422 1.183h-1.744a3.551 3.551 0 0 1-.334-1.215Zm-.139-3.73c-.606.248-1.515.458-2.727.631-.687.099-1.172.21-1.457.334a1.46 1.46 0 0 0-.659.543 1.43 1.43 0 0 0-.232.793c0 .445.169.816.506 1.113.337.297.83.446 1.48.446.643 0 1.215-.141 1.716-.423a2.595 2.595 0 0 0 1.104-1.155c.179-.377.269-.934.269-1.67v-.612Zm3.164 4.945 3.599-5.121-3.33-4.732h2.087l1.512 2.31c.285.44.514.808.687 1.104.272-.408.523-.77.751-1.085l1.661-2.329h1.995l-3.405 4.639 3.664 5.214h-2.05l-2.022-3.062-.538-.825-2.589 3.887h-2.022Zm10.622-11.68v-1.921h1.67v1.921h-1.67Zm0 11.68v-9.853h1.67v9.853h-1.67Zm3.544-2.941 1.652-.26c.092.662.351 1.169.774 1.522.424.352 1.016.529 1.777.529.767 0 1.336-.157 1.707-.469.371-.312.557-.679.557-1.099 0-.378-.164-.674-.492-.891-.229-.148-.798-.337-1.707-.566-1.225-.309-2.074-.577-2.547-.802-.473-.226-.832-.538-1.076-.937a2.486 2.486 0 0 1-.366-1.322c0-.439.1-.846.301-1.22.201-.375.475-.685.821-.933.26-.191.614-.354 1.062-.487.449-.133.93-.199 1.443-.199.773 0 1.452.111 2.036.334.585.222 1.016.524 1.295.904.278.381.47.889.575 1.526l-1.633.223c-.074-.507-.289-.903-.645-1.187-.355-.285-.858-.427-1.507-.427-.767 0-1.315.127-1.643.38-.327.254-.491.551-.491.891 0 .216.068.411.204.584.136.18.349.328.64.446.167.061.659.204 1.475.426 1.181.316 2.006.574 2.473.775a2.51 2.51 0 0 1 1.099.877c.266.383.399.859.399 1.428a2.81 2.81 0 0 1-.487 1.573c-.325.492-.793.872-1.406 1.141-.612.269-1.305.404-2.078.404-1.28 0-2.256-.266-2.927-.798-.671-.532-1.099-1.321-1.285-2.366Z"/><path fill="none" stroke="#c91e3e" stroke-dasharray="2" stroke-linecap="butt" stroke-width="2" d="M94.298 200.978H429m-78.739 135.787L198.002 441.422"/><path fill="none" stroke="#1ec9c7" stroke-dasharray="2" stroke-linecap="butt" stroke-width="2" d="m163.386 350.821 238.487 65.255"/><path fill="#726a6a" d="m379.1 321.833 7.903-6.262c3.772-2.989 4.372-7.029 1.432-10.74l-2.784-3.637c-2.887-3.704-7.083-3.895-10.843-1.015l-7.898 6.208 12.19 15.446Zm-79.819 63.292 72.4-57.463-12.249-15.399-72.401 57.464-7.051 14.103c-1.396 2.789 1.248 5.696 3.887 5.09l15.414-3.795Z" opacity=".667"/><path fill="none" stroke="#1ec94b" stroke-dasharray="3.521" stroke-linecap="butt" stroke-width="1.761" d="M251.615 425.821c25.527 3.681 122.453 13.608 117.381-48.87"/><path fill="#1ec94b" d="m369.193 378.479 6.701 3.799-7.683-11.439-4.541 13.01 5.523-5.37Zm-116.056 47.584 5.534-5.358-13.141 4.146 11.201 8.025-3.594-6.813Z"/></svg>