<svg xmlns="http://www.w3.org/2000/svg" xml:space="preserve" viewBox="0 0 400 400">
  <title>Mandala</title>
  <path d="M212.3 389.5c-1.2-1.6-5.3-6-11.5-12-5.2-5.4-11-11.3-12.7-13.3l-3.1-3.6-1 1.5a34.9 34.9 0 0 1-7.4 7.5 43.5 43.5 0 0 1-15.2 6 50.7 50.7 0 0 0-20.7 8.6c-.6 0-1.2-1.3-1.6-3.6-1.1-5.2-2.3-8-7.2-16.4l-4.3-8a26.5 26.5 0 0 1-3.1-10.6c-.6-.3-.2-8.1.5-9.7.1-.4-.1-.5-1.6-.7-1 0-1.9 0-2.2.2a375 375 0 0 1-33.4.3c0 .2-1.2.5-3 .8-2.7.4-3 .3-3.5-.2-.5-.4-.6-.7-.5-1.8.2-.6.4-1.3.7-1.5.2-.2.3-.4.2-.5-.1-.1-.2-8.1-.1-17.8a92.3 92.3 0 0 1 .6-18.9c-.1 0-.3-1-.3-2 0-1.8 0-1.9-.8-1.8a35.8 35.8 0 0 1-11 .2c-.2-.2-.5-.3-.6-.2-.5.5-6.2-2-10.7-4.5-8.2-4.8-10-5.8-12-6.8a36 36 0 0 0-9.2-3.1c-2.2-.5-3.4-1.1-3.4-1.8a43.3 43.3 0 0 0 7.6-18.3 51 51 0 0 1 6.6-17.7c1.6-2.4 5-6 7.4-7.6l1.9-1.4-2.5-2.2L41.4 215a162.3 162.3 0 0 0-13.1-12.5c-1.8-1-1.9-1.2-1.9-2.4 0-1.1.1-1.3 1.3-2 .7-.5 6.9-6.5 13.7-13.4 6.8-6.9 13.2-13.2 14.2-14l1.8-1.5-1.2-.7c-2-1.3-5.1-4.2-6.7-6.2a43 43 0 0 1-6.2-13.9l-1.1-4.4a98.8 98.8 0 0 0-2.7-9 43 43 0 0 0-5.3-10.6c0-.6 1-1.6 1.6-1.5h.8c.2-.2 1.4-.5 2.6-.8 1.2-.2 3.2-.8 4.3-1.3 2.5-1 7.2-3.5 12.3-6.6 6.4-3.8 12.8-6.7 14-6.2.1 0 .5 0 .7-.2a25.2 25.2 0 0 1 9.5.2l2 .3c1.1.2 1.2.2.7-.1-.7-.6-1.1-7.7-.5-8.9.4-.6.4-.9 0-1.7-.5-.8-.6-2.6-.6-15.2 0-7.8-.2-14.4-.4-14.6a6 6 0 0 1-.4-2c-.1-1.3 0-1.6.4-2.1.6-.5.9-.5 2.6-.2l2.9.3c.5 0 1.3.2 1.7.5a104.7 104.7 0 0 1 16.1 0c.3.3 12.2.2 13 0 .2-.2 2-.2 3.9-.1l3.4.2-.2-.8c0-.5-.3-1.3-.4-1.9-.2-.6-.3-2.4-.3-4 0-6 2-11.3 8.6-22.9 4-7 6-11.8 6.6-15.4.2-1.9.6-3.2 1-3 0 .2.3 0 .5-.2.3-.5.5-.4 2 .7a50 50 0 0 0 16.6 6.9 52.5 52.5 0 0 1 17.5 6.7 28.7 28.7 0 0 1 8.4 9c.2 0 1.8-1.8 3.8-4 1.9-2.3 7.4-8.1 12.2-13 8.9-9.1 11-11.3 12.2-13.4.6-1 .8-1.1 2-1.1 1.3 0 1.5.1 1.8.7.8 1.8 4.9 6.2 14 15.4 5.5 5.4 11 11 12.2 12.5l2.3 2.8 1.2-1.9c2.4-3.4 6.5-7 10-8.8a63 63 0 0 1 12.9-4.5l8.8-2.6a44 44 0 0 0 11.3-5.8c.6 0 1.5 1.6 1.7 3.2.4 3.8 2 7.8 6.9 16.3 6.6 11.8 8.2 16.2 8.2 22.2 0 1.7-.2 4-.5 5-.5 2.3-.6 2.2.7 2.2.7 0 1.3.1 1.5.3a80.2 80.2 0 0 1 17.9-.8 115.7 115.7 0 0 1 17 .1c.2-.2 1.4-.6 2.8-.8 2.4-.3 2.7-.3 3.2.1.9.9.6 4.4-.3 4.2a137.3 137.3 0 0 1 .2 19c0 17.2 0 18.4-.6 19-.4.3-.4.6-.2.8.2 0 .3.5.3.9v.6l1.9-.4c1-.3 2.3-.4 2.8-.3l1.2-.1c.3-.5 2.2-.4 2.4.2.1.3.3.3.6 0 .3-.2.9-.2 2.4.1 4.6.9 7.9 2.5 20 9.6 5.7 3.3 8.8 4.6 13 5.4 1.5.2 2.6.6 2.5.7 0 .2.1.4.4.6.7.3.6.8-.4 2.3-3 4.4-4.8 9-7.4 19.2a62.7 62.7 0 0 1-1.7 5.8 31.1 31.1 0 0 1-4.2 9.6 36.6 36.6 0 0 1-8.8 8.6 554.5 554.5 0 0 1 18 17.8c5 5 9.3 9.2 10.6 10.2 2 1.4 2.2 1.6 2.2 2.7 0 1-.1 1.2-2.4 2.9-1.3 1-5.8 5.3-10 9.7a304 304 0 0 1-15.3 15.3l-3.2 3 1.8 1.3c4 2.9 7.3 7 9.5 11.6 1.3 2.9 1.9 4.7 3.9 12.3l2 7.5c1.4 4.2 2.8 7 4.6 9.8.7 1 1.3 2.1 1.3 2.3 0 .7-1.2 1.3-3 1.6-5 .8-7.5 2-20.8 9.8-4.7 2.7-11 5.3-11.5 4.8-.1-.1-.4 0-.6.1-.5.5-3.3.7-3.8.4-.4-.4-2.1-.4-2.5 0-.3.3-1.9.2-3.7-.3a22 22 0 0 0-1.9-.4v3.3c.1 2.4.1 3.4-.2 3.7a76 76 0 0 1 .6 17.3 307.6 307.6 0 0 1 0 16.1c.3 0 .5.5.7 1.7.3 1.6.2 1.8-.3 2.4-.6.6-.7.6-3.3.2-1.5-.2-3-.6-3.3-.8a57.3 57.3 0 0 1-12.8 0c-.3-.4-4.1-.2-4.5.2-.4.4-11.8.4-12 0-.3-.4-2-.5-2.2-.2-.1.2-1.2.2-2.9 0l-2.6-.2.2 1.2c0 .6.3 1.6.4 2.2a24 24 0 0 1-.2 8.1c-.8 4-2.7 8.8-5.4 13.6l-1.3 2.1-2.6 4.6a56.4 56.4 0 0 0-4 8.5 22 22 0 0 0-1.3 5.3c-.3 1.5-1.1 3.1-1.7 3.1-.2 0-1.2-.6-2.2-1.3a41.1 41.1 0 0 0-14.2-6l-5.2-1.4a47 47 0 0 1-14.2-6 31 31 0 0 1-8.6-9l-3 3.3c-1.6 1.7-7.2 7.7-12.6 13.2a194.1 194.1 0 0 0-11.5 12.5c-1.8 2.4-1.9 2.5-3 2.5-1.3 0-1.3 0-3-2.5zm4.7-2.8c.9-1.1 5.8-6.3 11-11.6 11.6-11.9 17-18 20.2-23l.6-1-.8.2c-.6.2-1.1 0-2.2-.7a7.7 7.7 0 0 1-1.7-1.5c-.3-.5-.6-.1-3 3.1l-6.7 7.9c-5.8 6.3-18.5 19-19 19-.6 0-18.4-18-22-22a130.2 130.2 0 0 1-6.4-8.3s-.6.3-1 .8c-1.2 1-2.9 2-3.3 1.8-.1-.1-.4 0-.6.3-.3.3 0 .8 1.4 2.7 3.7 5 6.8 8.4 23.3 25.6l8.5 8.7 1.7-2zM152.8 375l8.3-2.5c11.4-3.1 15.6-5.2 18.8-9.6 1.7-2.2 2.8-4.1 2.8-4.6 0-.3-3.9-6.3-4.4-6.9-.1 0-.4.2-.7.6-1.6 2.5-4 4.2-6 4.2-.4 0-1.4-.3-2.2-.8-.8-.3-1.4-.6-1.4-.4 0 .6-3 3.6-4.3 4.2-1.3.6-3.9.7-5 .2-.4-.2-.6.2-1.1 1.4-1.3 3-4.5 5.3-7.4 5.3h-1l-2 5.2a142 142 0 0 1-2.6 6.2l-.6 1.1 2.3-1.1c1.2-.7 4.1-1.8 6.5-2.5zm132.1 0-2-5c-1.7-4.2-1.5-3.9-2.8-3.9-2 0-4.1-1.2-5.9-3.3-.8-1-1.5-2.2-1.5-2.4 0-1-.4-1.3-1.3-.9-.6.3-1 .3-1.4 0-.4-.2-.6-.2-.8 0-1 1-4.7-1.4-6.1-3.8-.6-1-.7-1-1.2-.6-1.4 1.2-4.5 1.2-6.3 0-.9-.7-2.6-2.6-3.2-3.6-.3-.4-.6 0-2.6 2.9l-2.3 3.3 1.1 2.1c3.4 6.4 10.3 10.4 22 13 3.4.8 10 3 13 4.6l2.8 1.3-1.5-3.7zm-142-1.3c.3-.4 1.2-2.7 2-5l1.7-4-.7-.5c-.4-.3-1-1.1-1.5-2-.7-1.1-.8-1.7-.8-3.6 0-2.2.3-3.4 1.2-4.5.4-.4.3-.6-.5-.9-1.5-.6-3.2-2.8-3.8-4.6-.4-1.6-.4-2 .4-4.7 0-.4-.1-.6-.7-.8-1.2-.3-2.4-1.2-3.5-2.7-.9-1.3-1-1.6-1-3.8 0-1.3.3-2.4.4-2.7.3-.4.3-.5-.2-.6l-.8.1c-.1.1-1.7.5-3.5.8l-3.1.5-.4 1.2c-1.6 6-1.1 11.4 1.6 17.8l4.6 8.6c3.9 6.8 5.5 10.1 6.6 13.2l.5 1.7.6-1.3 1-2.2zm148.7-2.8 3.5-6.4a66 66 0 0 0 7.8-17c.6-2.6.6-7.8 0-10.4-.6-2.1-.4-2-4-2.5l-2.3-.5-1.3-.2c-.9 0-1 0-.7.8.4 1.5.3 3.6-.3 4.9a8.6 8.6 0 0 1-3.8 3.6c-.8.2-.8.4-.3 2.5.5 2.3-.2 4.3-2.2 6.1-.9.8-1.7 1.4-2 1.4-.5 0-.5.4 0 1.3.3.4.7 1.5 1 2.4.6 2.5 0 4.8-2.2 7.1l-.7.8 2.1 5.4 2.5 6.1c.2.7.3.7 1-1 .3-1 1.2-3 1.9-4.4zm-78-2.9v-5.9l-2.6-2.7-2.7-2.7-.2 2.6-.4 5.6-.2 3.2 3 3 3 2.8.1-5.9zm9.2-4a88 88 0 0 0-.4-5.7l-.2-1.6-2.7 2.8-2.6 2.8v11.7l3-3 3-3-.1-4zm-17.8-7.4.2-3.4-1-1.1c-.6-.6-1.6-2-2.3-3.1l-1.4-2-.4 3.3-.7 6.3-.3 3 2.7 2.6 2.6 2.7.2-2.5c.2-1.3.3-4 .4-5.8zm26-.6-.7-6.2-.3-2.6-.8 1.1-2.3 3.1-1.5 2 .1 2.5.3 5.8.2 3.3 2.7-2.7 2.7-2.8-.4-3.5zm-78 6.3c1-.8 2.2-3 2-4 0-.6-.1-.6-2.3 1-2.2 1.7-2.8 2-2.8 1 0-.2-.2-.3-.5-.3-.5 0-.8-1-.9-2.2 0-1.2-.6-3.2-.9-3l-.8 2c-.4 1.6-.5 2-.1 3.2.2.8.5 1.7.8 2 1 1.2 4 1.3 5.5.3zm129.8-.1c1.4-1.4 1.6-4.4.5-6.8l-.5-1-.4 1.3c-.2.7-.4 1.8-.4 2.6 0 1.3-.8 2.7-1.6 2.7l-2.5-1.7c-1.3-.9-2.4-1.5-2.4-1.3-.3.6.8 3.2 1.6 4 1 1 1.7 1.1 3.5 1 1-.1 1.7-.4 2.1-.8zm-69.3-11.1v-2.4l-2.6 1.7-2.7 2c0 .2 1.2 1.6 2.6 3.2l2.6 2.8.1-2.4v-4.9zm8.2 2.3 1-1.1-2.6-1.6-2.8-1.8c-.3-.2-.4.8-.4 4.7v4.8l2-1.9 2.8-3zm-63.4-.3c2-1 6-2.5 9-3.6 14-5.3 20.3-8 24.8-11.1 3.6-2.4 3.5-2.3 3-4.9-.3-1-.7-1.9-.8-1.7a78 78 0 0 1-17.8 10.8c-5.2 2.4-16.7 6-20.3 6.6-1.5.1-1.6.1-2.5-.9l-1.6-2.1a120 120 0 0 1-4.2-8 102 102 0 0 1-9.3-26.3c-.2-.7-.3-1.8-.3-2.4 0-.7 0-1.3-.2-1.4l-1.6.8c-1.7 1.1-1.8 1.6-.9 5.7 1.5 6.6 4 13.3 11.6 29.9 1.5 3.1 3.4 8.2 4 10.3l.4 2 1.6-1c.8-.6 3.1-1.8 5-2.7zm4.9 3.1c1-.5 2.1-1.9 2.1-2.7 0-.2-.6 0-1.4.3a9 9 0 0 1-1.6.6l-2 .8c-1.6.7-1.7.8-1.2 1.2.9.6 2.8.5 4.1-.2zm108.2.2c.5-.4.5-.5-.5-.9a26.6 26.6 0 0 0-5.5-2c-.4.4.9 2.2 1.8 2.7 1.4.7 3.3.8 4.2.2zm8.2-2.3c.5-2 4.5-11.6 9.2-21.8a91 91 0 0 0 6.7-22c0-.3-.7-.9-1.5-1.4-1.7-1.2-1.5-1.5-2.1 2.9a99 99 0 0 1-15.4 37c-.8.6-1.6.6-4.4 0-12.6-3.3-27.6-10.1-34.5-15.8l-1.7-1.3-.3 1.5c-.7 2.7-.6 2.7 2.2 4.6 3.5 2.4 12 6.6 16.9 8.5 4.9 1.9 9.8 3.8 12 4.5a62.3 62.3 0 0 1 11 5c1.3 1 1.3 1 1.9-1.7zm-82.5-4.8.5-5.6c.1-2.5.1-2.6-.3-1.7-.6 1.2-2.9 3.5-4 4-1 .4-1.1.7-1.5 3-.2 1.4-.1 1.4 2.2 4.3l2.3 2.9.3-2c0-1.2.3-3.3.5-4.9zm39.5 3.9 2.3-2.7-.3-1.6c-.2-2.2-.4-2.5-1-2.8-1.2-.3-3-2-3.9-3.4l-.8-1.4v1.1c-.2 1 .2 4.8.8 9l.3 3.3c0 .7 0 1.2.2 1.2a22 22 0 0 0 2.4-2.7zm22.6.3c0-.2.5-.5 1.1-.8 1.4-.5 1.2-.8-1.9-1.9l-2.9-1c-.7-.4-.6.3.3 1.5.4.6 1.2 1.2 1.8 1.5.5.2 1 .6 1 .7 0 .2.1.3.3.3.2 0 .3-.1.3-.3zm-85.4-1c.7-.5 2-2.5 1.6-2.8l-2 .6c-4.5 1.7-5 2-3 2.6 1.1.3 2.1.1 3.4-.5zm-27.1-1.8-.7-1.7-1.4-3.2c-.6-1.2-.7-1.4-.9-.8-.7 1.6 0 4.8 1.3 5.4.7.4 1.7.5 1.7.3zm138.7-.2c.4-.2 1-.8 1.2-1.4.5-1 .6-3.4.2-4.4-.2-.6-.3-.4-2 4-1 2.2-1 2.5.6 1.8zm-57.5-5.6 1.2-2-4.6-3c-4-2.4-4.7-2.8-4.8-2.4l-1.4 2.6a9.5 9.5 0 0 0-1.3 3.6l-.2 1.5 3.9 2.5 3.8 2.5 1-1.6a75 75 0 0 0 2.4-3.6zm-18.1 3 3.7-2.5c.8-.7.3-2.4-1.4-5.5l-1.5-2.9-1.7 1.2-4.5 2.8a15 15 0 0 0-2.8 2c0 .2 2.6 4.5 3.7 6 .3.5.7.9.9.9l3.6-2zm-26.4.2c.8-.4 2-2.2 1.6-2.6 0 0-.4 0-.7.2l-2.6 1.2c-1.1.5-2 1-1.8 1.2.2.4 2.6.4 3.5 0zm67.2 0c.1-.1-.3-.5-1-.8l-2.5-1.2-1.6-.6c-.3.3.6 2 1.3 2.4 1 .5 3.5.7 3.8.2zm-61.3-2c0-.2-.2-.4-.5-.5-.5-.2-.5-.1-.2.5.2.6.7.6.7 0zm52.8-.5c0-.2-.2-.1-.4.1-.3.2-.4.5-.3.7.2.3.7-.3.7-.8zm-83.3-.2c8.9-2.6 15.4-4.7 17.8-6l1-.4-1.2-1.4-3-3.5-1.6-2.2-1.3 1.4a25.1 25.1 0 0 1-4 4.1 51.5 51.5 0 0 1-8.4 6c-1 .5-1 .5-1.7-.1-1.5-1.5-2.7-8.1-2.4-14.7 0-3.7 0-4.4-.3-4.2-.2.2-1 .4-1.7.4a7 7 0 0 0-1.6.3l-2.6.4-2.3.2.8 2.1c.8 2.3 3 7 4.8 10.3a259.8 259.8 0 0 1 4.6 8.2l3.2-.9zm118-2.3c3.2-5.6 7.9-15.9 7.9-17 0-.5-1-.8-3-.8-.8 0-1.5-.1-1.6-.3-.1 0-.5-.2-.9 0a4 4 0 0 1-1.7-.2l-1-.3v4.5c.2 4.5-.2 8.2-1 11.1-.5 2.1-1 3.3-1.2 3.1-.1-.1-.3 0-.6.3-.3.5-.5.4-2-.3a48.1 48.1 0 0 1-11.6-9.8l-1.4-1.7-.8 1.2c-.4.7-1.7 2.3-2.9 3.6-1.4 1.7-2 2.5-1.7 2.7a87 87 0 0 0 10 3.6c4.2 1.4 11.3 3.4 11.5 3.5.1 0 1-1.4 2-3.2zm-36.8.3.9-.5-2.5-1.6c-1.3-.8-2.5-1.5-2.5-1.3 0 0 0 .7.3 1.3.4.9 1.2 1.6 2.8 2.6l1-.5zm-47.4-.3c1-.5 2.1-2 2.1-2.9 0-.4-.3-.3-1.8.6-2.9 1.8-3.2 2.1-2.7 2.5.6.4 1.4.4 2.4-.1zm98.5-3.7c.5-.5.6-1 .6-2.6 0-1-.2-2.1-.4-2.3-.2-.2-.3-.2-.3 0l-1.1 2.9c-1.8 3.7-1.8 3.6-.5 3a7 7 0 0 0 1.8-1zm-149.2.9c0-.3-1.5-3.8-2.3-5.4l-.4-.7-.1.9-.3 1.2c-.1.2 0 1 .2 1.7.2 1.1.5 1.6 1.2 2 1 .7 1.7.7 1.7.3zm62-2.3c5.9-3.6 5.7-3.3 4.6-5.6a77.6 77.6 0 0 1-2.3-5.6l-8 5.1c-.5.5 1.6 8.1 2.2 8.1l3.5-2zm26.9.7c.8-2 1.7-5 1.8-6 0-.7-.3-1-4-3.4a99.4 99.4 0 0 0-4.3-2.5l-.7 1.7a45.4 45.4 0 0 1-2.2 5.8c0 .4 8 5.7 8.7 5.7.2 0 .4-.6.7-1.3zm-68.4-1.3c3.2-2.3 6.5-6 8.7-10l1.1-2-1.7.5c-2.7 1-5.3 2.3-5.9 2.9a195.4 195.4 0 0 1-3.7 8.3c-.8 1.9-.8 1.9 1.5.3zm106.5-1.8-1.8-4.6c-.3-.8-.7-1.6-1-1.9-.7-.8-3.2-2.1-5.6-3l-2.2-.8.5 1a32.2 32.2 0 0 0 11.3 12.5s-.4-1.4-1.2-3.2zm-110.8.9c0-.3.2-1 .6-1.7 2.3-5.3 2.4-5.6 2.4-7.6 0-1.8-.2-2.4-1.3-4.7-1-2.2-1.3-2.5-1.5-2l-.7 3.1c-.8 3.8-.6 15 .2 13.7l.3-.8zm115.3-5.4c0-5.4-.4-8.5-1.2-10.9-.3-.6-.3-.5-1 .8-1.2 3-1.8 5-1.8 6.3 0 1.8 3.2 10.2 3.7 9.7.2-.2.3-2.5.3-6zm-88.7 4c1.7-1 4.5-2.9 6.3-4.2 3-2.2 3.1-2.4 3.1-3.4 0-.6.2-1.3.3-1.6.2-.4.2-.6 0-.8-.2 0-.3-1.5-.3-3.4v-3.3l-2 .7c-2 .9-1.9.6-1.3 4.6.4 2.4.4 2.6-.2 3.2-.6.5-.8.6-1.9.3-.6-.3-2-.8-2.8-1.3a11 11 0 0 0-2-.9c-.2 0-.3.7-.3 1.4 0 2.2-1.1 7.2-2.3 10v.6c.2 0 1.7-.8 3.4-1.9zm64.4 1a67.8 67.8 0 0 1-2.3-11.1l-2.7 1.2c-2.7 1.3-3.7 1.4-3.7.6 0-.2-.1-.4-.3-.4-.6 0-.7-.4-.4-2.8.6-4 .7-3.6-1.3-4.5l-1.8-.7v10.3l2.3 1.8c3 2.1 10.2 6.5 10.3 6.4l-.1-.7zm-35.2-12.4c.1-.2.3-2 .4-4.2.2-3.1.2-4-.2-4.7-.4-.8-.5-2.4-.5-10.4V295l-.9 1.4a35 35 0 0 0-4.6 23.8c1 6 1.8 8.7 4.2 14l1.1 2.4.1-6.3c0-3.4.2-6.3.4-6.5zm5.5 7.1c2.5-6 3.5-11 3.5-16.6 0-6-.9-10-3.3-14.9-3-5.8-2.7-7.4-2.7 16.3v20.6l.9-1.6 1.6-3.8zm-40.2 2.3c.8-3.4 1.1-5 1.3-7.7.2-2 .1-2.5-.2-2.4l-2.6.8-2 .6-.9 1.9c-1.2 2.8-1.1 3.2 1.4 6.6 1.3 1.7 2.2 2.7 2.3 2.5.2-.2.4-1.2.7-2.3zm75 .2c1-1.2 2-2.7 2.2-3.3l.5-1.1-1.1-2.3-1.2-2.4-2.4-.6-2.4-.6.3 2.4c.3 4 1.7 10.6 2.2 10.2l2-2.3zm92-1.4c-.2-.9-.3-6.6-.3-13 0-15.4-.4-24.6-1.5-33l-.4-2.5-1.4.7c-.8.4-2 .7-2.6.7h-1l.1 1.9.4 3a37 37 0 0 1 .5 11c-.5.4-.5 2.1 0 3.1.4.7.5 2.3.5 8.3 0 4.2-.1 7.5-.3 7.6-.4.3-.7 4.1-.3 4.5.5.5.4 1.4-.4 2.2l-.6.7h-12.7a60.3 60.3 0 0 1-14.7-.5c-.4.3-7 0-7.7-.3a8 8 0 0 0-2-.3l-2.3-.2c-.6-.2-.7-.1-.7.8 0 1.2-.6 2.7-1.5 3.9-.6.8-.6.8 0 .8.2 0 .6 0 .7.2l2.1.3c1.2 0 2.2.2 2.3.3l3 .3a486.1 486.1 0 0 0 21.8.6c14.1 0 18.5 0 18.7.3.6.6.6.3.3-1.4zm-258 1a150.8 150.8 0 0 0 31.4-.5 71 71 0 0 0 8.2-.6c.9-.1 2.6-.3 3.7-.6l2-.3-.5-.8a6 6 0 0 1-1.3-3.5c0-1 0-1-.7-.8l-2 .3a26.5 26.5 0 0 1-9 .5 63.6 63.6 0 0 1-15.1.5c-13.2 0-13.2 0-14-.7-.5-.5-.6-.9-.6-2.6 0-1.2.2-2.2.3-2.3.5-.2.2-4.9-.3-5.3-.4-.4-.4-11 0-11.2.4-.2.7-3.4.3-3.8-.7-.7-.2-9.7.5-9.6.3 0 .3 0 0-.4-.2-.5-.2-1.3.2-3.5l.4-2.9h-1.1c-1.3 0-2.5-.4-3.5-1.3-.6-.6-.6-.5-.8.3-.3 1.3-1 7.2-1.4 10.4a398 398 0 0 0-.3 19.8c0 9.3 0 17.5-.2 18.2-.2 1.2-.1 1.3.3 1l3.4-.3zm49-3.3-1-2.9c-.8-2.5-1.2-2.6-1.2-.1 0 2.1.7 3.3 2.2 3.5.1 0 .2-.2 0-.5zm157.8-.5c.4-.4.5-1.1.5-2.7 0-2.4-.3-2.4-1.2.3-1.2 3.3-1.3 3.5-.5 3.3.3-.2.9-.5 1.2-.9zm-93-3.1c3-2 3.5-2.4 3.3-3l-.6-4.3-.5-3.8-3.5 2.4-3.6 2.4v3c0 4.3.2 6 .9 5.8l4-2.5zm31.1 1.3.3-3.8c.2-1.4.3-2.8.2-3.2-.1-.4-1.4-1.5-3.8-3l-3.6-2.5v1.4c0 1.4-.7 5.8-1 6.8-.2.3 0 .6.5 1 1.3 1 7 4.5 7.2 4.6.1 0 .2-.6.2-1.3zm-63.2-4.3c3-1 7.4-2.4 11-3.4 3-.8 10-3.2 11.8-4 5-2.1 12.2-6.3 12.2-7.1 0-.2-.5-.4-1-.5-.6 0-1.2-.3-1.3-.4a98.2 98.2 0 0 1-32 12.3l-3.9 1-.9-1c-.4-.4-1.7-2.2-2.7-4l-3.6-6.2c-2-3.4-5.4-10-6.5-12.8a60.7 60.7 0 0 1-3.3-10.8c0-.4-.4-1-1-1.4-1.6-1.4-1.8-1-1 2.5a93.5 93.5 0 0 0 11 26.5c3.7 6.6 5 9.3 5.3 10.8l.2 1 1.5-.8c.9-.5 2.8-1.3 4.3-1.7zm100.2-6.1 4-7.4c2.3-4.2 5-10 6.2-13a41 41 0 0 0 3-12.3c-.4-.5-2.5 1.1-2.5 1.9 0 1.2-1.4 6-2.7 9.2a141.5 141.5 0 0 1-13.4 24.7l-.8.7-3-.7a105.6 105.6 0 0 1-29.7-10.7c-2.9-1.7-2.9-1.7-4.2-1.4-1.3.4-1.4.4-1 1 .7 1 2.3 2 7.5 4.7 4.5 2.3 9.5 4 17.4 6.3l4.1 1.2 3.8 1.2c1.7.5 4 1.5 5.3 2l2.1 1.2 1.1-2.8a71 71 0 0 1 2.8-5.8zM110 324.6c.4-.3 1.4-.4 3.4-.4h2.8l1.3-1.6 5.9-7.6c.1-.3-.3-.2-1.7 0l-2.5.5h-1c-.2.2-1 .3-1.7.4-1 .1-1.5.5-3.4 2.5a90.3 90.3 0 0 0-3.7 4.1c-1.3 1.6-1.4 1.8-.9 2.2.7.5.8.5 1.5 0zm210.4 0c.4-.4.5-.4 1 0 .6.6 1.6.4 1.2-.2-.1-.3-1.8-2.2-3.7-4.4l-3.4-3.9-1.6-.2c-1 0-1.7-.3-1.8-.4 0-.2-.3-.2-.6 0a7 7 0 0 1-2.2-.3c-1-.2-1.9-.3-2-.2 0 0 .4.9 1.1 1.8l3.6 4.5 2.3 2.9h2.3c1.8 0 2.4 0 2.5.4.2.6.8.6 1.3 0zm-214.5-2.1c2.2-2.2 5.4-6 5.4-6.2 0-.1-1.8-.2-4-.2h-4l-4.2 4-4.1 4 4.6.1h4.7l1.6-1.7zm204.5 1.3c.2-.1-8.1-10.4-8.8-10.8-.8-.6-.8-.6-.6 0 1 2.1 1 2.2.5 2.8-.2.5-.3.8 0 1 .4.4.4 1.2-.2 2.4-.5 1-.5 1 .5 2.5l1 1.5 2.5.3c1.4 0 2.6.3 2.7.4 0 .2 2.1 0 2.4-.1zm24.5.1c.1 0-1.7-2-4-4.3-2.8-2.9-4-4-4.3-3.8-.2.2-1.8.3-3.9.3-4.2 0-4.2-.5.3 4.6l3 3.4h4.4c2.4 0 4.5 0 4.5-.2zm-210-.4 1.7-.2c1 0 1.2-.2 2.2-1.5l1-1.6-.5-1c-.8-1.2-.8-4 0-5.5l.5-1.1-.7.3a27 27 0 0 0-4 4.4l-4.2 5.3-1 1.4 2.2-.3 2.8-.3zm62.6-.9c0-1.3-.4-1.5-1.8-1.1l-1.3.4 1.3.7c1.7.8 1.8.8 1.8 0zm57.6 0 1.3-.7-1.5-.5c-1.4-.3-1.5-.3-1.7.3-.5 1.8-.2 2 1.9.9zm-112.2-.4-.5-.1c-.5 0-.7.2-.7.5 0 .4 0 .4.5 0l.7-.4zm166 .2c0-.2-.4-.3-.8-.3-.5 0-.5 0-.2.4.4.5 1.3.3 1-.1zm-148.3-.3 3.3-.5c1 0 1-.1 1.9-2.7l.9-2.6-.6-1-1.2-2.4-.7-1.3-.9 1a76.3 76.3 0 0 0-6.3 9.6c0 .3 1.1.2 3.6-.1zm132.9 0c0-.6-3.8-6.6-6-9.2l-1-1.3-1.3 2.3-1.4 2.3 1 2.6.8 2.5 1.4.3 1.8.4c.3.3 4.7.5 4.7.2zM101.1 310v-4.4l-3 2.8-4 3.5-.8.7v9.8l3.9-4 3.9-4V310zm236.1 3.1a78 78 0 0 0-7.7-7.3l-.1 4.2v4.1l3.8 4 3.8 4.1.2-4.3c.2-2.3.2-4.5 0-4.8zm-189.7 2.5 2.2-2.9c1.4-1.6 1.4-1.5-1.5-2.5-2.1-.8-2.8-1.1-2.5-1.5 0-.2-.1-.3-.5-.3-1 0-1-.8-.3-1.7l2.8-2 2-1.6-.3-.6a18 18 0 0 1-.9-2l-.6-1.4-3.5 3.5-3.4 3.5.2 1.6c.3 2.3 1 5.6 2 10l1 3.9 1.2-2.3 2-3.7zm139.8 3c.6-2.4 1.2-5.6 2-11.4.2-1.1.1-1.2-3.2-4.6l-3.4-3.5-1 2-.8 2 1.5 1.1c2.1 1.5 3.8 3 3.8 3.5 0 .6-1.8 1.8-4.3 2.6l-2.3.9 1.2 1.4a50.8 50.8 0 0 1 5.6 8.9l.9-2.9zm-153.7.4-.6-3c-.5-2.4-.8-2.5-1.1-.1-.2 1.4.2 3 .8 3.4.6.4 1 .2 1-.3zm164.3.2c.5 0 1-1.9.8-3.4-.2-1.4-.8-2.7-.8-1.7l-.6 3c-.4 2-.5 2.4 0 2.3l.6-.2zm-126.2-2.7c12.5-3.2 20-5.9 25.6-9l2-1.2-1.5-1.6c-.8-1-1.7-2-1.9-2.6l-.4-.9-1.1 1a10.3 10.3 0 0 1-12.8.6c-1.7-1.1-3.3-2.9-4.1-4.5-.4-.7-.7-1-1.2-1-.4.1-.6 0-.6-.2.1-.5-1.3-.9-1.8-.5-.2.2-1.1.5-2 .7-3.2.6-6.4-.5-9.4-3.2a10 10 0 0 1-3.4-6.5l-.3-1.7-1.2.4c-.7.3-2 .4-2.8.4-.8 0-1.6 0-1.7.2-.3.3.7 3.3 2 7 2.6 6.7 11.6 23.5 12.6 23.5l4-1zm92 .2c3-4.6 8.4-15 10.5-19.7 1.4-3.4 3.3-9 3.3-10 0-.1-.7-.2-1.6-.2a10 10 0 0 1-2.8-.4l-1.2-.4-.3 1.7c-.2.9-.6 2.3-1 3-.9 2-3.8 4.6-6 5.6s-5.5 1.3-7.3.6c-1.3-.5-2.5-.5-2.5 0 0 .6-.4.8-.8.4-.4-.3-.6-.1-1 1a13 13 0 0 1-4.9 5.1c-4.1 2.1-8.4 1.7-11.5-1a6.5 6.5 0 0 0-1.5-1.2l-.7 1.3c-.4.7-1.2 1.8-1.9 2.4l-1.2 1.2 1.3.8c4.8 3 11.4 5.6 20.9 8.1l6 1.7c3.3.8 3.7.8 4.2 0zm-149.5-4.3-.7-3.3-.7-2.6c-.1-.1-1.6 1.4-3.4 3.3L106 313h8.2l-.1-.8zm207-2.5c-3.1-3.1-4-3.7-3.9-2.6 0 .3-.1 1.6-.5 3l-.6 2.6c0 .2 1.9.3 4.1.3h4.2l-3.4-3.3zM120 312.4a52.8 52.8 0 0 1 5.4-1.3s-.4-2.4-1.5-7.1c-.4-1.3-.6-2.6-.6-3 0-.6 0-.6-2.3 0l-3.2 1c-2.4.7-2.5.9-1.6 5l1 4.6c.1 1 .2 1 1.2 1l1.6-.2zm194.1-4.5c1.2-5.2 1.2-5.1-2.3-6.2l-3.2-1c-.9-.3-1.4 0-1.4.6a78 78 0 0 1-1.9 9c0 1 0 1 3.8 1.8 3 .5 3.6.6 3.9.4l1.1-4.6zm-206.3-4.4-3.3-.8-.1 2.1c-.1 1.7-.2 2.1-.6 2-.4 0-.4 0 0 .3.2.3.3 1.2.3 2.2v1.8l3.5-3.4 3.4-3.4-3.2-.8zm219 4.4c.3-.5.3-2.6-.2-2.5-.2 0-.4-.4-.4-1.2-.1-1.4-.4-1.5-2-1l-2.8.6-1.9.4 3.4 3.4 3.4 3.4v-1.4c.1-.8.2-1.6.4-1.7zm-193.2-.4c1.8-1 2.2-1.5 2-1.9l-.6-2.3-.6-2.7-.6-2.6c-.4-1.6-.7-2-1.4-1.5-.1.2-1.6.9-3.2 1.6l-3 1.3.2 1.2c0 .7.6 3 1.1 5.3l1 4.1 1.4-.6a33 33 0 0 0 3.7-2zm169.3-1.4c1.7-7 1.7-6.6.6-7.1l-3.6-1.7-2.8-1.2-.1 1-1.5 6.4-.6 2.6.7.5c.6.5 6.3 3.5 6.4 3.4l1-4zm34.5-3-.3-2.5-2-1.8-4.6-3.7-2.4-2 .3 1.4.3 2.4.2 1.5.3 2c.1 1.4.3 1.7 1.5 2.7l4 3.6 2.7 2.5V303zm-240 2.3c3.3-3 3.7-3.6 3.9-4.6l.4-1.4c.2 0 .2-.4 0-.7 0-.4 0-1.6.3-2.7l.3-2.3c-.2-.2-5 3.5-7.9 6l-1.1 1.1v4c0 2.3 0 4.1.2 4.1l3.9-3.5zm54.4 1.7c-.7-1.4-.9-1.4-2-.7-1 .6-1 .9.6 1.4 2 .7 2 .6 1.4-.7zm129.4.1c.3-.2-.9-1.3-1.5-1.3-.2 0-1.3 1.8-1.3 2.3 0 .1 2.3-.7 2.8-1zm-75.1-4.4c1-3.1 2.9-6.5 5-9.2l1.8-2.3-1-1-4-3.4c-1.6-1.2-3.6-3-4.6-4l-1.6-1.7-1 2.3a16 16 0 0 1-7.3 7.3c-1.2.5-4.5 1.7-7.3 2.5-6.7 2-6.5 1.8-6 3.2a7 7 0 0 0 4.9 4.5c4 1.2 7.9-.4 9.3-3.6.7-1.8 1-2.1 1.3-2 .2 0 .3-.1.3-.3l.1-.7c0-.7 1-.5 1.6.3.3.6.5 1.4.6 2.8 0 3.1 1.5 5.6 3.9 6.8a6 6 0 0 0 2.5.7c.7 0 .8-.2 1.5-2.2zm23 1.2c2.2-1.4 3.4-3.7 3.4-7 0-1.5.1-1.9.8-2.5l.7-.7.9 1c.5.6.9 1.2.9 1.4 0 .7 1.1 2.6 1.9 3.3 1.4 1.3 2.6 1.7 5.3 1.7 2.2 0 2.8-.1 4-.8.9-.4 1.8-1 2-1.3.8-.9 1.9-3.4 1.6-3.7a81 81 0 0 0-9.1-3c-1.7-.5-3.8-1.3-4.6-1.7-2.9-1.4-7-6.1-7.6-8.5a4 4 0 0 0-.2-.9l-1.8 1.7c-1 1-3.6 3.2-5.7 4.9a26.3 26.3 0 0 0-3.8 3.4l1.1 1.7a32 32 0 0 1 5.9 10.6l.3 1.5 1.4-.2c.7-.1 1.9-.5 2.5-1zm-87.8-2.3c3.7-3.3 3.5-2.8 2.5-8l-.8-4.5-2.3 1.8-3.3 2.6-1 .8.5 2.7c.9 4.5 1.5 7 1.8 7l2.6-2.4zm151.6-.9 1.3-6.3c0-.2-1.1-1-2.4-2-1.4-1-2.8-2.2-3.2-2.6-.9-1-1.2-1-1.2 0a92.4 92.4 0 0 0-1 5.6l-.5 2.6.8 1c.8 1 5.2 5.1 5.3 5l.9-3.3zm-178.5-.2c.4-.9 1.5-4.3 1.8-6 .2-.9.2-1-1-1.1l-4.9-1.2c-3.2-.8-3.9-.8-4.1-.5-.3.5-1.2 4.2-1.4 6.2-.2 1.8-.5 1.5 3.7 2.5l4.7.9c.6 0 .9-.2 1.2-.8zm207.8-.1 3.8-1-.4-2.3c-.6-3.8-1-5.4-1.5-5.6l-4.1.8-4.1.8c-.1-.1-.3 0-.4.1-.1.1-.5.3-.8.3-.7 0-.7 0 .2 2.9a32 32 0 0 1 1.1 3.8c.6 1.4 1.2 1.4 6.2.2zm-197.1-4c8-3 15.4-8.2 19.5-13.6 1.5-2 3.5-6 4.3-8.3.6-1.7 1.5-5.8 1.3-6.2 0-.1-5.5 5.3-12.2 12.2-15 15.5-17 17.6-16.2 17.2l3.3-1.2zm175.3-8a754 754 0 0 0-20.2-20.1l1.1 5.1c.5 1.7 2.1 5.5 3.2 7.3 3.3 5.5 8.4 9.7 15.6 13.2 3.3 1.6 7.9 3.5 9.2 3.8l-9-9.2zm-201.4 4c2.7-2.2 5.1-4.3 5.3-4.8l.4-.7-.9.4c-1.2.7-3.8 1-4 .6-.1-.2-.4-.3-.6-.2-.3 0-.8 0-1.2-.4-.8-.4-.8-.4-2.1.4-1.6 1-1.6 1-2 5-.4 3.4-.4 3.8 0 3.8a90 90 0 0 0 5.1-4zm237.8 1.3c-.3-4.7-.4-4.9-2-6-1.4-.8-1.5-.8-2.3-.4-1.4 1-3.7 1-5.9 0-.4-.1-.4 0-.3.4.1.4 2 2.2 4.4 4a622.7 622.7 0 0 0 6 4.8c.2 0 .2-1.2.1-2.8zm-201.9-14c7.3-7.4 13-13.4 12.7-13.4-.6-.3-3.9.5-6.4 1.5-9.6 3.6-16.6 12-21.2 25.3l-1 2.6 1.5-1.3 14.4-14.7zm175.8 13.6a46.5 46.5 0 0 0-14.2-21.7 34.4 34.4 0 0 0-13.2-5.5c-1 0-.8.1 2.8 3.9 10.8 11 25.1 25.6 25.2 25.5l-.6-2.2zm-46.5-.3c3.8-1.8 5.3-6.3 3.4-10.5-.6-1.5-.6-1.6-.2-2.3.8-1.1 1.4-1 2.8.5 1.3 1.4 3.3 2.6 4.5 2.6.3 0 .7.2 1 .4.2.2.4.2.7 0 .2-.2.9-.4 1.6-.6 1-.1 2-.6 3-1.2.3-.2.1-1-1-3.1-1.5-3.3-2.3-6-2.8-9.7l-.4-2.6-3.2.1c-1.8 0-3.4.2-3.6.4l-4.2.3-3.9.2.4.6a15 15 0 0 1 1.7 6.2c0 2.6-1 6-2.5 8.7-1.4 2.5-4.6 9-4.8 9.5-.2.5 0 .7.8 1 2.3.7 4.4.6 6.7-.5zm-90.6.4.7-.4-1.2-2.2-3.2-6.3a47.2 47.2 0 0 1-3.1-7.6c-.7-2.3-.1-6.3 1.2-8.5l.7-1h-1c-.6 0-1.2-.2-1.4-.4-.3-.2-.5-.2-.8 0-.3.3-1 .4-2.5.2-1.1 0-2.1-.2-2.3-.3l-3.2-.3c-1.7 0-3.2-.2-3.3-.3-.4-.2-.4.1-.9 3.2-.6 4.1-2 8.4-3.5 10.9-.7 1.1-.7 1.2-.2 1.6a11 11 0 0 0 5.3 1.3c2.3 0 3.8-.7 5.6-2.5 1.5-1.6 1.7-1.6 2.5-.9.6.6.7 1.5.1 2.3-.7 1.1-1.2 3.4-1 4.8.3 1.6 1.5 4 2.4 5 1.3 1.1 3.4 1.8 6 1.8 1.4 0 2.8-.2 3.1-.4zm8.3-2.3 5.2-1.5c4.3-1.1 6.2-2 7.9-3.5 1.3-1.1 3-4 3.6-6.4l.6-1.8c.2-.3.2-1.7 0-3.2V272h-1.5c-.8 0-2-.3-2.6-.6-1.4-.6-3.6-2.9-3.9-3.9-.3-1.4-1.3-.8-2.2 1.2a3802.4 3802.4 0 0 0-9 22c-.5 1.2-.6 1.4 0 1.1l2-.7zm69 .5-5.2-12.8c-5.1-12.8-5.4-13.3-6.5-11-.6 1.3-2.5 3.1-3.9 3.7-.5.2-1.7.4-2.5.4-1.2 0-1.4 0-1.3.4 0 .3 0 1.4-.2 2.6-.2 1.3-.2 2.3 0 2.5l.6 2c.6 2.5 2 5.2 3.3 6.4 1.7 1.6 3.5 2.4 9.2 4.1l5.5 1.8c.7.4 1.3.4 1 0zM182.8 276l1.8-4.3c1.7-4.2 2.1-5.4 1.9-6.1-.2-.6-.2-.6-1.3-.3-1.3.5-4.1.6-5 .1-.3-.1-1.2-.9-2-1.6l-1.4-1.4-1.8 1.7c-1.6 1.4-2.1 2.1-3.2 4.5-2.6 5.7-2.5 8.2.7 14.3a57 57 0 0 1 4 8.2c0 .3 3-7 6.3-15.1zm72.8 12 2.7-5.1c3.2-5.8 3.3-10.1.4-15l-.9-1.8s-.9-1-2-1.9l-1.8-1.7-.9 1c-.5.4-1.4 1.2-2.1 1.6-1.2.7-1.6.8-3.2.6-1 0-2.2-.3-2.7-.4-.7-.2-.8-.1-.8.7 0 .7 4.1 11.6 6.2 16.2a301.5 301.5 0 0 1 3.5 8.7l1.6-2.9zm-137.2 1.3 1.3-3c1-2.5 1.2-3.1.5-3.1a5 5 0 0 1-1.5-.3l-1.6-.5-3.4-.6-2.6-.6-1.3 2.3a17.7 17.7 0 0 0-2.3 4.8l2.8.9 4.5 1c2.8.7 2.9.6 3.6-1zm201.2.1 4-1-1.9-3.5-2-3.7s-2 .3-4.4 1a77 77 0 0 1-4.8 1c-.6 0-.5.5.7 3.1l1.4 3.1c.5 1.3.5 1.4 1.8 1.1.6 0 3-.6 5.2-1zm-240.9.3 2-.5c.9-.2 1.7-.5 1.8-.7l.3-1.7c0-.8.1-1.6.3-1.8l.3-1.6c0-.7.1-1.6.3-2 .2-.9.1-.9-.6-.6-1.3.5-3.5.3-4.8-.3a8.3 8.3 0 0 1-3.8-3.7c-.4-1-.5-1-1.3-.8-3.3 1-7-.5-8.4-3.4l-.5-1.1-1.3.8a7 7 0 0 1-8.5-1.1l-1.2-1.2-2.7 1-3.8 1.7a82.1 82.1 0 0 1-4.8 2l-1.1.5 2.3.9a91.8 91.8 0 0 1 15.3 8 39.3 39.3 0 0 0 13.7 5.6c.2.3 5.8.2 6.5 0zm282.8-.6c3.9-1 7.7-3 15.1-7.4 4.7-2.8 9.5-5.3 12-6l1.2-.4-1-.5-2.9-1.3-5.2-2.1-3.3-1.4-1.2 1.1c-1.8 1.7-2.7 2-5 2-1.6 0-2.2-.1-3.3-.7l-1.4-.8-.5 1c-.9 1.5-2.7 3-4.2 3.4a10 10 0 0 1-4.7-.1c-.4-.2-.6 0-.8.8-.2.6-1.2 1.7-2 2.6-1.3 1.1-2 1.5-3 1.7a10 10 0 0 1-4.2-.3c-.3-.2-.4 0-.3 1 0 .6.1 1.3.3 1.5l.3 1.8.2 2c.6 1.8.7 1.8 2.5 2.2l2.1.5c.7.4 7.3 0 9.3-.6zM220 285.3c7-5.6 8.3-7.7 8-13.5-.2-2.2-.1-2.6.4-3.1.4-.5.7-.6 1.4-.4l2.8.3c1.9.2 2 .1 3-1l1.2-1.1-1.1-.3-1.5-.4a18.2 18.2 0 0 1-5-1.2 26.9 26.9 0 0 1-10.7-6.7l-1.7-1.8v32.2l.7-.7c.3-.5 1.5-1.4 2.5-2.3zm-6.5-13.2v-15.7l-1.9 1.9a26.4 26.4 0 0 1-14 7.1l-3.9 1 .6.8 1.2 1.2c.8.4 3.5.4 4.7 0 1-.4 1-.4 1.8.3.7.8.7.8.4 3.3a9 9 0 0 0 1.2 6.8c1 1.7 2.4 3 6.4 6.2a41 41 0 0 1 3.4 2.9l.1-15.8zM332 284.5l.5-1 .2-.6-2.3.6c-3.7.9-3.8 1-1.8 1.4 1.2.3 3 0 3.4-.4zm-229.1.1c.6-.4.4-.5-2.5-1.1l-2.6-.6.3.8.7 1c.5.3 3.6.3 4.1-.1zm238.7-3.2c1-.3 1.9-1.7 1.5-2-.1-.2-4.4 1.4-5.1 1.8-.4.2 1 .8 1.5.7.2 0 .5.2.6.4.2.2.3.2.3 0 .1-.3.6-.6 1.2-.9zM91 282c.1-.1.6-.3 1-.3s.7-.1.7-.3v-.3l-2.7-.9-2.6-.9.2.8c0 .5.5 1 1 1.3l1.4.6c.6.4.8.4 1 0zm242.8-2.5a123.2 123.2 0 0 0 17.1-7.1l2.6-1.2a50.1 50.1 0 0 0 5.4-2.4l1.8-.7c2.5-1.2 7.8-3 8.4-2.8.4.1.4 0 .2-.5a58.3 58.3 0 0 1-7.2-16.3 124 124 0 0 0-12-26.4c-1-1.6-1.4-1.9-2-1.7l-1.5.2c-1.7.2-1.8.6-.5 2.2a91.7 91.7 0 0 1 11.6 22.2 85.3 85.3 0 0 1 4.7 16.4c0 .5-1.4 1.7-2.9 2.6a127 127 0 0 1-17 9 81.2 81.2 0 0 1-20.8 5.8l.8 1.6 1 1.5 4-.9c2.2-.4 5-1.1 6.3-1.5zm-225.8.9c1.3-2 1.3-2-.5-2.1-1 0-1.8-.3-2-.4a105.2 105.2 0 0 1-33.7-13.3c-3.9-2.6-3.9-2.6-3.4-4.6a30 30 0 0 1 1-3.8 101 101 0 0 1 6.5-18.8 81.9 81.9 0 0 1 8.5-14.6c1.3-1.5 1.2-2-.3-2.2l-1.6-.2c-.8-.2-1 0-2.2 2A132.4 132.4 0 0 0 72 239a244 244 0 0 0-5.4 14.5 40.3 40.3 0 0 1-5.2 11 89.1 89.1 0 0 1 14.8 6.1c13.9 6.7 17.3 8 29 10.7 1.5.4 1.9.2 2.8-1.1zm15-.8 2.7-3.4 2-2.5-1-.2-4.5-1-3.3-.7-3 3.2a30 30 0 0 0-3.1 3.4c0 .1.2.2.5 0l1.5.3 1.8.5c.5 0 2 .3 3.3.7l2.5.6.7-.9zm187.9.3 1.2-.3 3-.7 2.6-.6-1.9-2.2c-2.2-2.7-4-4.4-4.6-4.2-1.6.6-7.5 1.8-8 1.6-.7-.3-.4.1 1.4 2.4a43 43 0 0 1 2.4 3.1c.8 1.3 1 1.4 2 1.3.6 0 1.4-.2 1.9-.4zm-227.7-2.4c.2-.2.2-.3 0-.3l-3.2-1.4a32 32 0 0 0-3-1.3c-.1 0 0 .6.3 1.4.5 1.2.8 1.5 1.6 1.8 1.1.4 3.8.3 4.3-.2zm268.5.2c1.1-.5 1.8-1.6 1.6-2.6 0-.4-.5-.3-3 .9-1.6.7-2.9 1.4-2.9 1.5 0 .7 3 .8 4.4.2zm-28.4-2.4 2.1-.5a161.1 161.1 0 0 0 9-2.1c.4 0-.4-.6-1.3-1.1-1.8-.8-5.2-3-7-4.5l-1.5-1.3-.3.8c-1.2 3.2-1.7 4.3-2.4 5l-.9 1-1-1.1c-.6-.6-1.6-1.8-2.2-2.8-.6-.9-1.2-1.7-1.4-1.7-.1 0-3.5 1.4-3.7 1.6l3.3 3.6 3.4 3.4h1.8l2.1-.3zM114.6 272l3.3-3.4-4-1.6-1.2 1.8a19 19 0 0 1-2.1 2.7l-1.1 1-.9-.8a8.5 8.5 0 0 1-1.6-3.4l-1-2.5-1.8 1.4a44.8 44.8 0 0 1-7.6 5c-.2.3.3.6 2.6 1.2a37.6 37.6 0 0 0 4.2 1.1l2.2.5c.7 0 1.4.2 1.4.3l2.3.1h2l3.3-3.4zM72.3 273c.5-.1.9-.3.9-.4 0-.4-6-2.9-6.2-2.6-.1 0 0 .7.4 1.3.8 1.6 2.5 2.2 4.9 1.7zm290.1-.6c.6-.5 1.4-2.1 1.1-2.3-.1-.2-2.9.8-5.3 2l-1.3.6.9.2c1.3.4 4 0 4.6-.4zm-320.6-.8a74.9 74.9 0 0 1 6.4-2.7l2.6-1.1c1-.4 1.1-.5 1.1-1.6l.4-2.4c.4-1.7 3.2-4.4 5-5.1l1.4-.6-.4-1c-1-2.3-.3-4.4 2.2-6.9l2.2-2c.4 0 .4-.2 0-.7-.3-.3-.7-1-.9-1.8-.6-2.4 1-5.5 3.8-7.3l1.3-.8-3-2.2a31.2 31.2 0 0 0-3.7-2.3c-.7-.2-5 2.6-6.6 4.3-1.6 1.8-3 4-3.8 5.7a198 198 0 0 0-6.5 20.4c-.5 2-1.7 5.2-2.6 7-1.1 2.1-1.2 2.1 1 1zm349.1.5-1.2-2.1c-1.4-2.6-2-4.2-3.9-11.5-4-15.3-7.5-21.8-13.6-24.9l-1.4-.6-3.3 2.3c-3.2 2.3-3.8 2.8-2.9 2.8.8 0 3.7 3.4 4.1 5 .4 1.5 0 3.4-.8 4.4-.5.5-.5.6 0 .9 1.3.7 3.5 3 4 4.2.8 1.6.9 3.5.3 4.7-.5.9-.5.9.3 1 3 .8 7 5.7 6 7.3-.6 1 .1 1.7 2.2 2.6l5.8 2.4c4 1.7 4.4 1.8 4.4 1.5zm-298.6-4.4c.3.1.3 0 0-.5-.2-.4-.2-1 0-2.7.4-1.8.4-2.2 0-2.4a32.8 32.8 0 0 1-14.3-.6c-3-.8-4.3-1.8-4-3.1a43 43 0 0 1 11-13.6l.8-.5-1.3-.9-3.6-2.8-2.2-1.9-1.6 4a124.4 124.4 0 0 0-5.6 18c1.6 1.4 11 6.3 16.6 8.8l3.6 1.5.1-1.6c0-1.2.3-1.7.5-1.7zm254.3 0a111.9 111.9 0 0 0 12.2-6.6c.2-.3 0-1.3-.6-4-1-4-4.4-14-5.5-16.7l-.8-1.7-2.2 1.8a45 45 0 0 1-4.8 3.9c.5 0 4.8 4.2 6.6 6.4 2.3 2.8 4.2 5.6 4.9 7.2.5 1.3.5 1.3 0 2-.7.5-3.8 1.6-4.4 1.5a29.1 29.1 0 0 1-13.9.6c-.3.2-.3.6 0 2.3.3 1.7.3 2.3 0 2.6-.2.3-.2.5.1.6.4.1.5.6.5 1.8v1.7l1.7-.6 6.3-2.9zm-285.5 2c.9-.2 1.7-.6 1.9-.8.4-.5 0-.6-2.7-1-.9 0-1.8-.4-2-.6-.2-.3-.6-.5-1-.5-.7-.2-.5-.9 1-2.8l1.5-2.3c.2-.5 0-.6-.8-.4-2.7.5-4 2.1-4 4.7.1 1.8.9 3.2 2 3.8 1.4.5 2.3.5 4.1 0zm313-.3c2.4-1.6 1.8-6.3-1-7.6-.7-.3-1.6-.6-2-.6-.8 0-.5.7 1.4 3.2l1.4 2-.8.7c-.4.4-1.3.7-2.3.8-2.8.4-3.6.6-3.4.8.7 1.1 5.2 1.6 6.6.7zM132 268c-.5-.8-1-1.3-1.9-1.5l-3.4-.9a77 77 0 0 1-17.9-8c-6.8-4-11.3-6.8-11.9-7.4l-.6-.8.7-2.6 1.6-6.4a88.9 88.9 0 0 1 10-25.8c.7-1.2.8-1.5.5-2.6-.2-.7-.5-1.3-.8-1.3-.2 0-.9.7-1.5 1.7-3.8 6-6.6 13.2-10.3 26.4a58.2 58.2 0 0 1-4.5 13s1 .6 2.2 1a244.3 244.3 0 0 1 17.3 9 102.7 102.7 0 0 0 7.9 4.1 86.8 86.8 0 0 0 12.2 3.4l1.2-.2-.8-1.1zm-34-.3c2.5-1.5 6.6-4.5 7.1-5.2.3-.3-.1-.7-1.8-1.6-2.3-1.5-2.3-1.5-5.2-.4-2.1.8-2.2.9-2.8 5-.4 2.6-.4 3.7 0 3.7l2.7-1.5zm205.4.6a66.8 66.8 0 0 0 19.8-8.7l3.8-2.1a105 105 0 0 1 10.8-5.4l.8-.3-.7-1.3a99 99 0 0 1-5-14.8c-1.9-6.4-2.7-9-4.4-13.6-.8-2.3-4-8.5-5-10-1.4-1.8-1.9-1.8-2.1 0-.2 1.2-.1 1.5 1 3.5a67.8 67.8 0 0 1 8.7 22.8c.2.3 1 2.8 1.7 5.8 1 4.2 1.2 5.4 1 5.7-1.5 1.8-14.8 9.5-21 12.2l-3.1 1.4c-1.7.7-7.2 2.5-9.1 3-1.3.3-1.7.5-2.2 1.3l-.6 1.2c0 .4 2.4.1 5.6-.7zm31.8-1.4-.6-4c-.3-1.6-.4-1.6-1.7-2.1l-2.4-.9c-1-.4-1.2-.3-3.4 1l-2.4 1.3 1.3 1c1.9 1.6 8.5 6 9 6 .3 0 .4-.5.2-2.3zm-224.4-.8c.2-.4.4-.9.3-1l-2.2-1c-.1.3.9 3.3 1.1 3.1.2 0 .5-.6.8-1zm31.8-2.2c1.4-.4 2.8-.7 3.1-.6l.8-.1c0-.1.8-.3 1.8-.4l1.6-.3-.2-2.2c0-1.3-.3-3.4-.5-4.7-.1-1.3-.2-3.1-.1-4v-3l-.2-1.3-1.2.6c-3 1.6-6.8 2-10 .9-1.8-.6-4.8-2-7.3-3.6-.8-.5-2.5-1.5-4-2.2l-2.8-1.4-.4.8c-.3.5-.4 1.7-.4 3.1 0 3.8 1.8 6.9 4.8 8 .8.3 1.7.7 2 1 .5.4 1 .4 1.7-.1.2-.3 1-.6 1.5-.7l2-.7c.8-.4 1-.4 1.6.2.9.8.8 1.4-.7 2.7-2.6 2.4-3.3 6.2-1.6 9.8l.7 1.6 2.7-1.3c1.4-.7 3.7-1.7 5.1-2zm154 .8a8 8 0 0 0-2-9l-1.6-1.6.6-.7c.8-.8 1.3-.9 2.5-.3l1.1.5 1.1.3c1 .4 2.2.5 2.7.2l1-.3c3.3-.8 5.4-4 5.5-7.9 0-2-.6-4-1-4a38 38 0 0 0-6.1 3.1c-3.1 1.9-6.4 3.5-8.3 4-3.2.8-6.6.4-9.5-1-1.2-.6-1.3-.6-1.4-.2 0 .3 0 .8.2 1 .2.4.2 1.8-.1 4.2-.5 5-.7 9.6-.4 9.6 1.4 0 5.8 1 8.2 1.7 1.7.5 5.6 2.5 5.9 2.9.2.3 1-.8 1.6-2.5zm24.4 1.2c.3-.9.5-1.6.4-1.7 0-.1-.6.1-1.2.5l-1 .6.6 1 .7 1.1.5-1.5zm-53.3-2a19 19 0 0 0 2.8-.2l2.5-.4 2-.2-10.7-10.9-10.9-10.9v1.3c.2 1.6-.3 5.8-1 7.8-.7 2.1-2.2 5-4.5 8.8-1.5 2.4-1.8 3.1-1.4 3.1.2 0 .6.1.8.3.2.2.5.2.9 0 .3 0 1-.4 1.4-.6.5-.3 1.3-1 1.6-1.5 1.2-1.9 1.8-2.6 2.3-2.6.3 0 1.5 1 2.6 2.3 2.3 2.6 3.8 3.5 6.4 3.8 1 .1 1.8.3 1.9.5h.5c.2-.3 1.5-.5 2.8-.5zm-67.1-2.8c7.2-2.4 11-5.3 12.5-9.5.3-1.2.3-1.2-1-2.7a38.8 38.8 0 0 1-4.6-5.6c-.1-.1-1 .7-1.9 2-2.5 3.3-5 6-7.7 8.3a283.9 283.9 0 0 0-5.8 4.8c-1 0-1.6-1.4-2-3.9a84.1 84.1 0 0 1 .5-18.2l-1.9.2c-1 .2-2.2.3-2.7.2l-1.2.1c0 .2-1 .3-1.9.3h-1.7l-.4 1.3c-.3.8-.5 2.6-.5 5.1 0 5.7.7 7.5 5.7 15.5 1.5 2.4 2.8 4.6 2.8 4.8.1.4.7.4 4.5-.6l7.3-2.1zm43.3-1.1c4-6.7 5.2-9.2 6-13.4a15 15 0 0 0 0-6.8c-.6-2.8-.6-2.7-2.5-2.7-1 0-1.8 0-2-.2 0-.1-1-.3-2-.3s-2.2-.1-2.7-.3l-.9-.2.2 2a49.4 49.4 0 0 1 .2 11.2c.4.2.4 4 0 6.3-.5 2.1-1.1 3-2.1 2.7a63 63 0 0 1-15-15.2c-.1 0-.7.7-1.3 1.6-.6 1-1.9 2.5-2.9 3.6-1 1-1.8 2.1-1.8 2.4 0 1 2.4 4.3 4.2 6 2.3 2.1 5.9 3.9 10 4.9 1.6.4 3.3.8 3.5 1h.8a17.6 17.6 0 0 1 5.7 1.7l2.6-4.3zm-73 3.1c.8-.4 2.3-1.8 3.4-3a9 9 0 0 1 2.6-2.2c.6 0 1.8 1.2 1.8 1.9 0 .5 1.5 2.2 1.9 2.2l1.3.5c.8.4 1.4.3 2.5-.4l-.5-.8c-1.7-2-5-8.1-6.1-11.8-.6-1.6-.7-2.7-.8-5.5v-3.4l-8 8.2a871 871 0 0 0-11 11.5l-3 3.2h2a34 34 0 0 0 7.5.4c5 0 5 0 6.5-.8zm-40.9-1.6c0-1 .2-2.3.5-3l.4-1.3h-1.4c-3 0-7.6-3.5-9.2-7-.9-2-1-6-.1-7.9.5-1.2.5-1.3 0-1.8-.3-.3-.6-.8-.6-1.1 0-.4-.3-.8-1-1a13 13 0 0 1-5.9-7.3c-.4-1.4-.4-5 0-6.3.5-1.2 1.8-3.2 2.7-4l.6-.6-1.4-.8c-.8-.5-2-1.4-2.6-2l-1-1.2-1.8 3.4a92 92 0 0 0-7.6 22c-1.7 6.5-1.8 7-1.3 7.4 2 1.4 13 7.8 17.2 9.8 5.3 2.5 10 4.3 11.7 4.4.8 0 .8 0 .8-1.7zm173.5 1c4.6-1.5 9.4-3.7 15.8-7.1 2.6-1.4 10.6-6.2 11-6.6.4-.3-3-13.3-5-19.4a78 78 0 0 0-5.2-11.7l-.8-1.3-1.4 1.3c-.8.8-2 1.6-2.5 2l-1 .4 1.1 1.3a9.3 9.3 0 0 1 2.4 4.6c0 .4-.2.9-.4 1.2-.3.5-.3.7 0 1.2.2.3.4.9.4 1.3 0 1-1 3.6-1.7 4.6-1 1.4-3.5 3.5-4.5 4-.7.3-1 .6-1 1 .2.2 0 .7-.4 1.1-.7.6-.7.7-.3 1.6.3.5.5 1.5.5 2.2 0 .6.2 1.3.3 1.5v.7l-.2 1.5c-.2 2.9-4 7.4-7.2 8.6-1 .4-2.2.7-2.9.7h-1.1l.5 1.5c.3.8.6 2.2.6 3 0 1 .1 1.5.4 1.5l2.6-.7zm-128.6-24h-.5c-.4.5-4.6.5-4.8.1-.1-.2-.4-.2-.6-.1-1.3.5-7.1-2.2-11.9-5.2-3-2-3.3-2-3.3-.1 0 1.5.8 2.8 2.5 4 2.5 1.6 2.5 1.7-.2 4.2-3 3-3.9 4.6-4 8l.5 7.2.4 4.6 11-11.2c6-6.2 11-11.3 10.9-11.5zm103.1 15c.2-2.1.3-4.4.2-5.3-.3-2.3-2-5-4.3-7.1-1-1-1.9-1.8-1.9-2 0-.5 1.3-1.6 2.7-2.4.5-.3 1.1-1 1.3-1.5.5-1.1.7-3.8.3-3.8l-2.3 1.4c-3.8 2.6-8 4.6-12 5.6-2 .6-5.5.6-5.8.2 0-.2-.3-.2-.6-.1s3.1 3.7 10.6 11.4l11 11.3.2-2.1.6-5.7zM92.5 259l2.5-.8a8 8 0 0 0 2.2-.7c0-.4-6.2-2.7-7.3-2.7-.6 0-5.5 1.9-8.6 3.3-1 .4-1.1.6-.7.6a81.4 81.4 0 0 0 12 .3zm257.8-.2c.5-.3.5-.4 0-.4a27 27 0 0 1-4.2-1.6c-5.3-2.3-5.5-2.4-7-1.8a23 23 0 0 0-5.8 2.5c0 .2 2 .8 4 1 .6.2 1.2.3 1.2.5.3.4 11 .2 11.8-.2zM63 254.3l1.4-3.4c.2-.4-1.6.6-2.4 1.4-.4.5-.7 1.2-.8 2.1-.2 1.4 0 2.9.4 2.9.2 0 .8-1.4 1.5-3zm306 2.3a6 6 0 0 0-.2-3.7 5 5 0 0 0-1.6-1.5l-1.2-.7.6 1.9c2 5.2 2 5.3 2.5 4zm-17.6-1.3c-1.3-2-4.6-5.6-6.7-7.4-2.4-2-5.4-3.9-5.8-3.7-.4 0 .7 2.8 2 5.5l1 2.1 5 2.1 4.9 2.2-.4-.8zM83.4 254c2.4-1 4.7-2.1 5.1-2.6 1-1 3.8-7.3 3.2-7.3l-2.3 1.3a29 29 0 0 0-7 6 24.9 24.9 0 0 0-3.4 4.4l4.4-1.8zm115.6-5c3.5-3.9 7.3-9 8.8-12l.6-1.2-1.2-1.3a24 24 0 0 1-2.4-3.5c-.8-1.6-1.3-2.2-1.7-2l-2.6.7c-1.2.4-2.5.6-2.9.6a3 3 0 0 0-1.2.1l-.9.3c-.3.1-.7 1.2-1.3 4.4-.6 3.1-1 7.9-1 13.2v6l2-1.8c1.2-1 2.9-2.6 3.8-3.6zm38.4 2c.3-5-.4-13.4-1.5-18-.6-2.4-1-2.7-3.3-2.8-.7 0-1.5-.3-1.7-.5-.2-.2-.5-.2-.6-.1 0 0-.9 0-1.7-.3-1.8-.6-1.7-.7-2.8 1.6-.4.8-1.4 2.2-2.1 3.1l-1.4 2a60.9 60.9 0 0 0 14.7 18c.1 0 .3-1.3.4-3zm-19-6.4c3-3.9 3-4 2.3-5.4l-.7-1-2.1 1.9c-1.2 1-2.4 1.9-2.7 1.9a12 12 0 0 1-2.6-2l-2.2-1.8-.5.9a4 4 0 0 0-.5 1.4c0 .5 3.2 5.1 4.9 6.8.9 1 1 1 1.5.5l2.7-3.2zm-75.3 2c.2-.2.5-.4.8-.4.8 0 3.3-1 4.8-2l1.9-1c.2 0 .3 0 .3-.2s.8-1 1.7-2l1.7-1.7-1.5-1.6c-2.3-2.4-2.5-3.8-1.5-7.3.2-.5 0-.7-.3-1-.6-.3-1.8 0-5.7 1.8l-4.9 2.1-6.8 2.9-3.2 1.3-2.2.9c-1 .5-2 .9-2.3.9-.2 0 .7.5 1.9 1.2l3.8 2a36.7 36.7 0 0 0 9.5 4.2c.8.5 1.5.5 2 0zm222.6-1.8c0-1.5-.9-3.4-1.8-3.9-1.2-.6-1.5-.5-1.2.3a84.4 84.4 0 0 1 1.9 5l.3 1 .4-.8c.2-.3.4-1.1.4-1.6zM67 243.4c.6-1.6.9-2.9.7-2.9-.8 0-2.3 1.6-2.6 2.8-.4 1.3 0 3.8.6 3.3l1.3-3.2zm227 1.7 3.8-2 4.3-2.4 2.5-1.4-1.4-.6a753 753 0 0 0-19.9-8.3c-2.4-1-3.8-1.2-4.1-.8-.1.2 0 .8.3 1.5.9 2.6.3 4.8-1.8 7l-1.2 1.2 1.3 1.4 1.7 2c.3.4 5.5 3 6.7 3.3h3.3c2.1 0 3-.2 4.6-1zM91 241l2.2-1 .6-2.2.7-2.7c.1-.5 0-.7-.3-.7-.2 0-.5.2-.6.4 0 .2-1.3.5-3 .7-2.9.4-8 1.5-8.4 1.9-.1 0 .1.5.5.8 1.1 1 5.4 4 5.7 4l2.6-1.1zm253.7-.2c2.6-1.8 4-3.1 3.9-3.4-.1-.2-1.5-.5-3-.9l-3.2-.8-2.3-.3c-1 0-2.2-.3-2.7-.6-.6-.3-1-.5-1.1-.4l.6 3 .8 2.7 2.1 1c1.2.6 2.3 1 2.6 1 .2.1 1.3-.5 2.3-1.3zm-125.8-5.4c2.4-2.6 5.3-7 5.3-8l-.1-.5-.6-.2c-.3-.1-.7.3-1.3 1.5l-1.7 2.9a25.3 25.3 0 0 1-5.2 5.4c-1 0-5.3-5.3-6.8-8.3-.9-1.7-1.1-1.9-1.7-1.2-.3.3-.2.7.3 1.8 1.3 2.5 3.6 5.5 5.8 7.6 2 1.9 2.4 2.2 2.8 2l3.2-3zm-147-3.6.3-1.2c-1.5.7-2 1-2.3 1.8-.5 1.1-.6 2.5-.3 3.4.2.5.3.3 2.2-4zm50.5 2.1 2.4-8.2a17 17 0 0 1 8.8-10.9l2.2-1-1-.7c-1-.8-3.3-3.5-6.8-8-1-1.4-2.1-2.5-2.3-2.5-.2 0-1.3.8-2.4 1.7a32 32 0 0 1-10.8 5.6c-.4.1-.4.3-.2 1.5.7 3.1 2.7 5.3 5.2 5.8.6 0 1.2.3 1.3.4.2.4 1.2.4 1.9 0 .7-.5 1.3-.2 2 .8.5.7.5.8-.2 1.4-.4.5-.9.8-1.1.8-.8 0-3.3 1.5-4 2.3-2.5 3.1-1.8 9.6 1.3 12 1 .7 2.3 1.3 2.7 1.2.2 0 .6-1 1-2.2zm5.4 1.3 6.1-2.6 12.2-5.1 3.2-1.6c.4-.7.2-1.3-.9-1.8-2.4-1.4-4.4-4.8-3.9-7 .2-.7.1-.7-1.2-.7l-2.5-.3c-.8-.2-1.3-.2-2 .1-.4.3-1.6.7-2.5 1-2.4.7-4.6 2-5.7 3.4a30.8 30.8 0 0 0-3.9 10 78 78 0 0 1-1.5 5c-.4.8-.1.8 2.6-.4zm177.8.5a98 98 0 0 1-2.2-7.2c-2-6.9-3.2-8.8-6.8-10.5-1.2-.6-2.4-1-2.6-1l-1.5-.6c-1-.5-1.4-.5-2.1-.3-.5.2-1.6.3-2.5.3h-1.6v1.3c0 .7-.2 1.8-.5 2.5-.5 1.3-2.6 3.6-3.6 4-1 .4-1.2 1.1-.5 1.8.3.3 1.8 1 3.3 1.7l3.9 1.6 4.9 2 7.5 3.2c4.1 1.8 4.7 2 4.3 1.2zm5.1-.1c2.7-1.3 4.2-4 4.2-7.5 0-3.6-1.5-6-4.2-7-1.5-.6-2.8-1.6-2.8-2.2l.7-1c.6-.6 1-.7 1.3-.4.8.5 4-.3 5.6-1.3 1.4-1 2.8-3.3 3-5.1.2-1 .2-1.3-.2-1.3s-3.3-1.1-5.3-2c-2.2-1-4.5-2.6-6-4-1.4-1.2-1.8-1.4-2.2-1.1l-4 4.8c-2 2.5-4 5-4.7 5.5l-1 1 2.2.9c1.8.8 2.6 1.4 4.2 3.1 3 3.2 4.3 6 6.2 14.2.4 1.9 1.3 4 1.5 4l1.5-.6zm50.6-1c0-1.8-.7-3-1.8-3.7l-1-.3.6 1.6c.3.8 1 2 1.2 2.7.6 1.5 1 1.4 1-.4zm-183.9.5 1.4-.4.2-3.7c.1-2 .3-4.2.5-4.8.3-1.4.1-1.9-.5-1.4-.2.2-1.2.4-2.2.4l-2 .3a88 88 0 0 1-13.4-.2c-1.6 0-2-.2-2.7-.8-.4-.4-.8-.9-.8-1.1a63 63 0 0 1 15-15.4l-1.7-1.5c-1-.7-2.6-2.1-3.6-3l-1.9-1.9-1.7.9a17 17 0 0 0-6.6 6.7c-1.5 3-2 4.6-3 8.4l-1.4 5.8-.6 2.9c0 .4 5 3.8 9.3 6 6 3.3 11.3 4.2 15.7 2.8zm86.1-.3c2.6-.8 5.2-2 10-5.1 2.5-1.6 4.6-3 4.8-3 .1-.2 0-1-.2-1.8l-1.4-5.4a40.5 40.5 0 0 0-3.5-10.5 9.9 9.9 0 0 0-3.2-4.3c-1-.8-2.5-1.9-3.4-2.3l-1.5-.8-2.5 2.3a48.8 48.8 0 0 1-4.8 4.1l1.7 1.3c2.3 1.5 7.3 6.5 10.4 10.2 3.2 3.8 3.2 4 2.2 5-.7.6-1 .8-2.9.8a83.8 83.8 0 0 1-15.3 0c-1-.1-2-.3-2.3-.5-.5-.5-.7 0-.4 1.3.2.6.4 2.7.5 4.8l.3 3.7 1.4.4 1.5.6c.3.3 7-.3 8.6-.8zm86-1.5c-1.9-3.3-4.8-7.9-6.1-9.7l-1.4-2h-5c-2.9 0-5.1.2-5.1.3l.6 1.5.6 1.6c0 .4 1.4.7 1.7.3l1.6-.4 1.4-.2c.4-.4 1.8-.2 2.3.4.7.8.5 2.4-.7 4.7l-.9 1.9c0 .1.8.4 1.6.4l1.9.5a18.7 18.7 0 0 1 6.7 1.5l1.4.6-.7-1.4zm-264.8 0a60.5 60.5 0 0 1 7.8-1.5l-1.1-2.2c-1-2-1.5-4-1-4.1.2 0 .5-.3.8-.6.3-.5.5-.5 2.7 0 3 .6 3.6.6 3.8 0l.6-1.8.5-1.3s-2.2-.2-5-.2c-4 0-5 .1-5.3.5-.8.8-5.2 7.6-6.5 10-1.2 2.3-1.3 2.4-.6 2.2l3.3-1zm104.8 0c1.8-.2 2.1-.4 2.4-1.8l.3-1h-1.4c-.7 0-1.4-.1-1.5-.3-.1-.1-.6-.2-1.2 0-.8 0-1.1 0-1.8-.8-.6-.8-.7-1.4-.9-3.3 0-1.2-.2-2.3-.3-2.4-.3-.3-1.8.3-2 1-.2.6-1.2 7.5-1.2 8.7 0 .3.6.4 2 .4 1 0 2 .1 2 .3.2.2.5.2 1-.1.5-.3 1.6-.6 2.6-.7zm57.6.5h1.6l-.3-3.7c-.3-5.7-.4-6-2-6.3l-.8-.2-.2 2.5c-.2 2-.4 2.6-1 3.3-.7.7-1 .8-2 .7l-1.3.1c0 .2-.7.3-1.3.3-1.2 0-1.2 0-1 1 .3 1.3.7 1.6 3.3 1.8 1.2.2 2.3.4 2.4.6 0 .1.4.2.6 0l2-.1zm-180.6-.8c-.2-.8.7-2.2 2-3.4l1-.8-1.5-1c-4.7-3.4-9.5-7.7-17.2-15.5-9-9-11.2-11.5-11.3-12.4-.1-.6 16.8-18 21.4-22.1 2.8-2.5 7.1-6 7.9-6.4.3-.2.2-.5-.8-1.6-1.4-1.5-1.9-2.7-1.3-3.4.2-.2.3-.5.2-.7 0-.3-6.5 4.6-10.8 8.4a297 297 0 0 0-12.4 12.3A244 244 0 0 1 32 198c-2.2 1.8-2.7 2.3-2 2.3.2 0 5.8 5.4 12.4 12l15 14.5a107 107 0 0 0 9.1 7.1v-.8zm300.4-.7 3.8-3c1.3-1 8.6-8 16.3-15.6l13.8-13.8-1.4-1c-.7-.7-6.2-6-12-11.9a175.3 175.3 0 0 0-19.7-18.2l-3.4-2.6c-.3-.3-.3-.2-.2.6.3 1-.4 2.4-1.9 3.6-.4.3-.7.7-.6.8 2 1.3 4.8 3.7 7.8 6.2 5.8 5 22.4 22 22.1 22.8 0 .2-4.4 4.7-9.6 10.1a154.7 154.7 0 0 1-18.6 17.2l-2 1.4 1.4 1.3c.8.8 1.4 1.8 1.6 2.5.4 1.2.3 1.2 2.6-.4zm-150.2-.8c1.3-1.7 3-4.6 3.6-6 .3-.8.3-1.1 0-1.4-.1-.2-.6.4-1.5 2.1-1.3 2.6-2.8 4.6-3.4 4.6-.7 0-2.3-2.1-3.5-4.5-.8-1.7-1.2-2.3-1.5-2.1-.3.2-.3.4 0 1.3 1 2.2 4.3 7.4 5 7.4.1 0 .8-.6 1.3-1.4zm-120.3-3.1s-.5-.2-1.2-.2H94l.5 1c1 2 1 2 1.5.6l.4-1.4zm240.3 0c0-.2-2.1 0-2.3.2l.2.7.5 1.3c.1.6.3.5.9-.7l.7-1.6zm-138.3-1.6c2.4-.4 4.2-.9 4.2-1.3 0-1.1-.3-1.3-1.6-.7-1.6.7-4.8 1.3-5.6 1.1l-.8.1c0 .2-1 .3-2 .3-2.5 0-3.2-.6-3.2-3.1 0-2.1.6-5.5 1.4-8.2l.6-1.8-.7-.2c-.6 0-.7 0-.9.7l-.3 1.2a34 34 0 0 0-.8 12c.3.3 7.5.6 8 .3.2-.2 1-.3 1.7-.4zm42.2.5 1.6-.2v-4c0-3.5-.4-6.6-1.1-9.3-.3-.6-.5-.8-.9-.8a2 2 0 0 0-.6.3l.4 2.1c.4 1.1.8 2.9 1 3.8.4 2 .3 6.4 0 6.2-.2 0-.5 0-.6.4-.2.3-.7.5-1.8.5-.8 0-1.6-.1-1.7-.3 0-.2-.5-.2-1 0-1 .1-4.5-.5-6.2-1.2l-1.2-.6-.3.8c0 .4-.1.8 0 .8.3.3 4.7 1.2 6.8 1.4 3.6.3 3.9.3 5.6.1zm-24.3-2.6c1.4-3 1.4-2.9.2-4.8l-1-1.7-1.2 1.6-1.1 1.8.5 1.3c.5 1.5 1.6 3.7 1.7 3.7l1-1.9zm-140-1.6c1.5-2.3 1.4-2.7-.3-1.5-1.1.7-1.9 2.4-1.6 3.5.2.8.5.6 2-2zm280 .7c-.1-1.1-.8-1.9-2.6-2.9l-1.2-.6.5.8 1.5 2.3c1.3 2.3 1.5 2.4 1.8 1.8.1-.2.2-.9 0-1.4zM226 219.6c0-.7-.3-1-2.1-2.4-2.1-1.6-2.1-1.6-2.1-.8l-.4 2.8c-.5 2.3-.5 2.2 2 4.1l1.8 1.4.4-2 .4-3zm-18.8 3.8 2-1.6c.5-.6.6-.8.3-2.3l-.5-2.8-.1-1.1-1.7 1.3a9 9 0 0 1-1.9 1.4c-.2 0-.3.5-.3 1.2 0 2 .4 4.8.7 4.8l1.5-.9zm-136.2 0c.3-.2.6-.7.7-1 .2-1 3.5-4.1 4.2-4.1.5 0 .5 0 0-.3-.4-.3-1.3-.2-3 0-1.5.2-2.8.3-3 .2l-.7.1c-.2.2-1.3.4-2.5.4a17.2 17.2 0 0 0-4 .6c-.8 0-.7.2 2 2.4l2.8 2.3 1.4-.2c.8 0 1.8-.3 2-.4zm294.9-1.6c1.4-1.1 2.5-2.2 2.4-2.4l-1.1-.2c-.6 0-1 0-1.2-.2l-2.1-.3c-1.1 0-2.1-.2-2.3-.3l-2.6-.3c-1.7 0-2.4-.2-2.7-.6-.4-.6-.9-.5-1.6.2-.5.5-.5.5.4.8 1.2.5 3.3 2.6 4 4 .5.9.8 1 1.8 1.2 2.3.4 2.4.3 5-1.9zm-167.1.5c2.6-.6 3.5-1 3-1.6-.2-.2-.8-.1-2.2.5-1 .4-2.6.8-3.5 1-1.4 0-1.5 0-2.1-.7-.7-1-.6-1.7.7-5.5l.6-2.2c-.4-.3-1.1.4-1.4 1.4-.5 2-1.2 5.6-1.2 6.8v1l1.6.2 1.9-.1 2.6-.8zm39.2-.6c0-3-1.3-7.7-2.2-7.8-.5-.1-.5 0-.3.4 1.5 3.7 2.1 7.1 1.3 7.1-.2 0-.4.3-.4.5 0 .8-2.9.2-6.9-1.4-.3-.1-.5 0-.5.4 0 .6 1.7 1.3 4.3 1.8.6 0 1.2.3 1.2.4h3.5v-1.4zm-61.8.7 4.6-1a46 46 0 0 0 4.4-.9l.4-2c.1-1.2.4-2.8.7-3.7l.6-2.4c.1-.4-.2-.8-1.6-1.6l-3.3-2.3c-1-.7-1.8-1.3-2-1.3a58.5 58.5 0 0 0-17.9 15.3c0 .2 13.5 0 14.1 0zm92.4 0a64.4 64.4 0 0 0-16.4-14.6l-1.5-.7-1.2.8a33.8 33.8 0 0 1-4.8 3.4c-1.2.5-1.2.5-.5 2.7l1 4.2.5 2.3 2 .6c1.2.3 3.4.7 4.8.8 1.5.2 2.8.4 3 .6.2.2 13.1.2 13.1 0zm-118.2-1.2c0-2 1.8-8.3 3-11 1.2-2.3 3-4.9 4.9-6.7l1.7-1.7h-15.1a150.3 150.3 0 0 1-15.8-.4c-.2 0 0 .5.4 1l3.4 4.3c4.8 5.9 5.5 6.3 10.8 6.3 3.3 0 3.6.1 4.3.7.7.6.7.7.2 2-.6 1.8-.6 2.6 0 4 .3 1 1.5 2.2 2 2.2 0 0 .2-.3.2-.7zm131.3-.1c1.3-1.2 1.5-2.7.9-5.2-.8-2.8-.6-2.9 4.2-2.9 4.4 0 5.3-.2 7.5-2.3.8-.7 2.2-2.3 3.2-3.7l3.6-4.3 1.9-1.9-15.2.2a182 182 0 0 0-16.4.8c-.6 0-.5.2.9 1.4 1.6 1.6 4 4.8 5 7 1.3 3 3 9.1 3 11 0 1 .3.9 1.4-.1zm-81-3.5c1-.3 1.2-.4 1.3-2l.4-2c.1-.3 0-.4-1-.2-2.8.4-2.8.4-3.7 2.8l-.8 2.5 3.8-1zm32.3-1.3c-.8-2.4-1.3-2.8-3.3-3-1.2 0-1.3 0-1.2.6l.2 1.6c0 .5.2 1.1.4 1.4.3.5 4.4 2 4.7 1.8l-.8-2.3zM100 215l2.4-3.7-2.5-.3a24.6 24.6 0 0 1-3.2-.4c-.3 0-1 0-1.7-.2-1.4-.3-1-.7-3.8 3.7a21.1 21.1 0 0 0-2.3 4.1c0 .3 1.8.4 5.3.4l3.3.1 2.5-3.7zm240.7 3.5 1.4-.3-1.4-2.2-2.5-4.1c-1.2-1.8-1.2-1.8-2.3-1.5-.6.1-1.2.2-1.5.1-.3 0-.7 0-1 .2-.1.1-1.3.3-2.7.4l-2.3.2 2.2 3.5 2.6 3.7c.4.2 5.5.2 7.5 0zm-253.8-2.8a117.8 117.8 0 0 0 3.1-5.1c.7-1 .7-1.3.4-1.5l-.8-.3a23 23 0 0 1-3.2-1.2 28 28 0 0 0-3-1.2c-.4 0-.4 0-2.8 4-2 3.4-2.8 4.7-2.8 5 0 .2 2.3 1 5.7 2 1.8.5 2.1.4 3.4-1.7zm126.8 0 .6-1.1-1.1-.2a4 4 0 0 0-1.2 0v1.8c.3 1.6.3 1.7.7 1.1l1-1.6zm5.1-.1c0-1.4 0-1.5-.7-1.3l-1.2.2c-.4 0-.3.3.5 1.6 1 1.8 1.4 1.7 1.4-.5zm129.2 1.6c3.3-.9 5.2-1.5 5.2-1.8 0 0-.3-.7-.8-1.3l-.7-1.2a56.5 56.5 0 0 0-4.1-6.5c-.6 0-7.3 2.8-7.3 3 0 .3 2.5 4.5 4.5 7.7.5.8.4.8 3.2 0zm-288-.4c.2-.4 1-.6 2.3-.7 1.1 0 2.1-.1 2.3-.3l2.6-.3c3.7-.1 3.7-.2 1-2.1l-3-2.4c-.8-.6-1-.6-3.4-.5-1.7.1-2.7 0-3-.1-.3-.3-.5-.3-1 0-.3.3-1.3.5-2.6.5H53l3 3.1 3.2 3.2c.2 0 .4-.2.6-.4zm314.8-3c3-2.8 3-2.9.2-2.9-1 0-2-.2-2.5-.5-.5-.2-1-.3-1.1-.1a8 8 0 0 1-2.8.3h-2.6l-1.3 1.2a44.2 44.2 0 0 1-4.2 3.4c0 .1 1 .3 2.2.3l2.6.4 2.7.3c1.3 0 2.5.2 2.7.4.5.5 1.5-.1 4.1-2.7zm-167.5-.3 1-.9-1-.7-1-.7c-.1 0-1 3.2-1 3.6 0 .4.5.1 2-1.3zm17.8-.4c-.2-.9-.5-1.7-.6-1.7l-1.1.5-1 .7 1.4 1.2 1.6 1.2c0-.1 0-1-.3-1.9zm-148.7-1.7 2.7-4.2c1.5-2.3 1.6-2.4.5-2.9-.5-.2-1.7-.8-2.6-1.4-1-.6-2-1-2.3-1-.3 0-.6-.2-.7-.5-.3-.7-1.2-.5-1.6.4-.2.5-1.3 2.4-2.5 4.2-1.1 1.9-2 3.5-1.9 3.7.3.4 6.5 4.5 6.8 4.4l1.6-2.7zm283.5.3 2.8-2c0-.2-.7-1.7-1.8-3.4l-2.3-3.9c-.7-1.4-1.8-1.2-5.3.8l-3 1.8 1.1 1.8 2.9 4.6c2 3.2 1.4 3.2 5.6.3zm-141.7-.5c4.5-1 7.2-4 8.1-8.8 1-5-1.8-11-5.8-12.6l-1.6-.7c-.9-.3-6.1-.2-7.2.2-3 1.1-4.9 2.8-6 5.2a12 12 0 0 0 0 11.2c2 4.4 7.2 6.7 12.5 5.5zm-20.2-1.7 1.5-2.1c.5-.7.5-.7-.3-.7a2 2 0 0 1-.9-.2l-1.4-.3c-1.4 0-1.9-.3-1.7-.7.2-.2.1-.3 0-.3-.5 0-3.9 4.7-3.5 5 .2.3 2.5.6 4.2.6 1 .1 1.2 0 2.1-1.3zm41 .8c.5-.2.4-.3-.8-2-2-2.6-2-2.6-3.6-2.2-.8.2-1.6.3-1.8.2-.3-.1-.6 0-.6.1-.2.2-.5.3-.8.3-.5 0-.4.3.8 1.9l1.3 2c0 .4 4.5 0 5.5-.3zm-34.6-1-.6-1.1-.7-.8-1.1 1.4-1.2 1.5c0 .2.8 0 1.8-.2 1-.3 1.8-.6 1.8-.8zm25.6 1-1.3-1.7-1-1.3-.5.8c-.8 1.3-.8 1.4 1 2 2 .6 2.2.6 1.8.1zm-43.2-3.8c-3.3-2-5.8-4-6.9-5.4l-.8-1 1.6-1.7c1.4-1.5 7-5.5 8.1-5.9.5-.1.1-1.4-.4-1.4a26 26 0 0 0-9.6 7.3l-1.4 1.7 1.3 1.8a31 31 0 0 0 9 7.1c.6.3.7.3 1.2-.3.4-.6.4-.7-2.1-2.2zm59.8.4c2.5-1.7 6.7-6 6.7-6.8a37.7 37.7 0 0 0-9.7-8.5c-1.2-.5-1.2-.6-1.6 0l-.4.7 1.5.9c1.8.8 6.4 4.5 7.6 6l.9.9-.7.9c-1.1 1.6-5.6 5-8.3 6.4-1.1.6-1.1.6-.7 1.4.3.6.4.6 2-.3l2.6-1.6zM329 208c.1-.2 1.2-.3 2.4-.4a14 14 0 0 0 3.7-.7c3.5-.6 9.1-2.6 13-4.5l2.8-1.3h-21.6c-12 0-21.5.1-21.3.2a35.6 35.6 0 0 0 16.1 6.7c.1.1.8.2 1.5 0 .7 0 1.4 0 1.5.2.2.3 1.3.2 1.9-.2zm-268.3-1-3-3.2L55 201l-5.5.1c-3 .1-5.4.3-5.4.4l3 3.2 3 3.1 4.5-.2c3.3-.1 4.5-.1 4.6.2.2.2.4.2.9 0 .4-.3.6-.6.6-.8zm315 .6 4.9.2 3-3.2c1.6-1.8 3-3.4 3-3.6a33.7 33.7 0 0 0-10.7.7c-1 0-1.4.3-3.8 2.8-2.2 2.2-2.7 2.8-2.4 3.1.2.3.4.3.7 0 .3-.1 2-.2 5.3 0zm-264.3-.8c3.1-.8 6.1-2.1 8.8-3.9l1.8-1.2h-7.8c-4.8 0-7.7-.1-7.8-.3-.2-.2-5-.3-13.5-.3H79.6l2 1a56.5 56.5 0 0 0 15.7 5.3c.1.1 2.8.2 5.8.2 4.9 0 6-.2 8.4-.8zm-44-2.6c.8-1.2 1.3-2.4 1.2-2.7-.1-.3-.8-.4-3.6-.4-2 0-3.5.1-3.6.3-.1.2-.6.3-1 .3-.8 0-.6.3 2 2.8 3.2 3.3 2.7 3.3 5-.3zm303.5-3a1 1 0 0 0-.8.2c-.2.2-1.8.3-4.3.3-2.2 0-4 0-4 .2a36.6 36.6 0 0 1 2.9 4.6l.5 1 3-3.1c2.3-2.2 3-3.2 2.7-3.2zm-194 4.3c.9-.6 1-.8.5-1.1l-2-2.3c-1-1.4-1.4-2-1.3-2.5l1.8-2.4c1-1 1.7-2 1.7-2 0-.2-.4-.6-1-1l-1-.5-2 1.4-4 3-1.9 1.8 1.7 1.6c1.8 1.7 5.8 4.7 6.2 4.7l1.3-.7zm79.5-.3 4-3 2.5-2.1-1.9-1.8c-1-1-2.8-2.4-4-3.2l-2-1.5-1 .7c-.6.3-1 .7-1 .9l2 2.4 1.9 2.3-1.2 1.6-2.2 2.4-.9 1 1.1.6 1.2.7c.1 0 .8-.4 1.5-1zm-64.8-.4c.1-.2 0-.4-.1-.4-.6 0-5.1-2.7-6-3.6l-.8-.9 1.2-1.1c.7-.7 2.3-1.7 3.6-2.3 1.8-1 2.2-1.2 1.9-1.6-.4-.4-.7-.3-3 .9-2 1-4 2.6-5 3.6l-.7.7 1.1.9c2.9 2.3 6.5 4.4 7.3 4.2.2 0 .5-.2.5-.4zm51.5-1.2 3.5-2.5 1.3-1.1-1.1-1c-1.5-1.3-2.6-2-4.7-3.2-2.3-1.2-2.6-1.3-3-.9-.2.3.3.7 2.3 1.7 1.4.7 3 1.8 3.4 2.3.9.9 1 1 .5 1.6-.6.8-2.2 2-4.6 3.2-1 .5-1.8 1-1.7 1.3.3.6 1.5.2 4-1.4zm-41.8-1c0-1.4-.3-1.5-2-.4l-1.7 1h1c2.6.4 2.7.4 2.7-.5zm31.4.5-1.5-1c-1.5-1-1.5-1-1.8-.3-.4 1.6-.3 1.8 1.5 1.5 1 0 1.8-.2 1.8-.3zm-36.3-2.4 1-.7-1.4-1.1-2-1.1c-.7 0-5.2 2-5 2.3l2.6 1.2c2.5 1 2.6 1 4.8-.6zm43 .3c2.1-.9 2.1-1 1.5-1.4l-2.4-1.2c-1.8-.7-1.9-.7-2.8-.2l-1.7 1.1c-.7.6-.7.7-.2 1 .3.1.9.6 1.3 1 1.1 1 1.8.9 4.3-.3zm-110-2.3c.2-.2 5.6-.3 15.5-.3H160l-2.4-2.5c-3.5-3.5-5.2-7-6.6-13.4l-.8-3.7-.2-.9-1 .8c-1.4 1.2-1.7 2.7-1 5.2l.4 2-.8.7c-.4.5-1 .6-1.1.5-.6-.4-6-.3-7.1.2-2.1.8-3.7 2.2-6 5.3a87 87 0 0 1-4 4.8c-1.2 1.3-1.4 1.6-.9 1.6.4 0 .8-.1.8-.3zm71.9-1.3c0-.7 0-.7-1.7-.9l-1.8.1c0 .2.6.7 1.5 1.3 1.6 1 2 1 2-.5zm31.2-.7c0-.2-3-.2-3.2 0v1l.3 1 1.5-.8c.8-.5 1.5-1 1.4-1.2zm126.6 0a97.1 97.1 0 0 1 3.6-6c0-.4-6.2-4.6-6.7-4.6-.2 0-1 1.2-1.9 2.6l-2.7 4.6-1.2 2 2.5 1.4 3 1.6c.3.2 1 .2 1.4.2.9-.1 1.2-.4 2-1.8zm12 1.7c0-.3-5.6-5.7-6-5.7l-.3.2c0 .2-.8 1.4-1.7 2.9l-1.6 2.8 4.8.1c2.6 0 4.8-.1 4.8-.3zm-312.8-2.8 2.8-2.9h-1.6c-1 0-1.7-.2-1.9-.5-.3-.3-.5-.3-.8 0-.2.1-1.4.2-3.4 0l-3-.2-2.8 2.7c-4 4-4.2 3.7 2.4 3.7h5.5l2.8-2.8zm10.1 1.8a81 81 0 0 1-3-4.7c-.2 0-4.4 4.1-5.7 5.5 0 .1 2 .2 4.6.2h4.8l-.7-1zm8.6-.3c3.8-2 3.6-1.5 1.9-4.3l-2.8-4.5a7.8 7.8 0 0 0-1.6-2.2 86 86 0 0 0-6.7 4.3l1.4 2.5 2.3 4c.9 1.4 1 1.5 2 1.5.9 0 2-.4 3.5-1.3zm44.5.7c-1.3-1-6.4-3.5-8.8-4.4-1.4-.4-3.5-.9-4.8-1l-3-.6c-.2-.2-.5-.2-.6 0-.1 0-1.6.3-3.4.4l-5.2.6c-3.5.8-9.6 3-13.2 4.7l-1.7.9h20.8c20.6 0 20.7 0 19.9-.6zm176.7-3.9c-5-6.3-5.8-6.8-10.7-6.9-1.6 0-3.2 0-3.5.2-.4.1-.8 0-1.3-.6l-.8-.7.6-1.4c.8-2.2 0-5.4-1.5-6.1-.6-.3-.7-.3-1.2 2.6-1.2 6.6-3.3 11-6.9 14.9l-2.4 2.5H301.8l-3.6-4.5zm50.7 4a65.5 65.5 0 0 0-20.5-6.3c-.8-.5-2-.5-2.8 0a6 6 0 0 1-2.3.6 16.2 16.2 0 0 0-4.3 1c-3.4.9-7.2 2.7-9.7 4.6-.8.6-.5.6 20 .6 20 0 20.6 0 19.6-.6zm34.5-2.7-3.1-3.1-2.8.2c-1.9.1-3 0-3.2-.1-.3-.3-.6-.3-1.2 0a6 6 0 0 1-2.2.5h-1.4l2.8 2.8 2.8 2.9H386.5l-3.1-3.2zm-215.2.6 3.7-3 1.2-.8-2-1.5a67.7 67.7 0 0 1-13.3-14.2c0-.6 1-1.2 2.4-1.6 1.7-.4 4.3-.4 4.7 0 .2.2.5.1 1.1-.2 1.2-.6 6.3-.6 7.2 0 .5.4.8.4 1 .2.2-.4 1.8-.4 3.7 0 .8.2 1.6.3 1.7.2l-.2-1.4c-.2-.8-.4-3-.5-4.8l-.3-3.5-1.9-.5-2-.5H170c-.2.2-1.6.6-3 1-3.3 1-7 3-11.3 5.8l-3.6 2.3c-.1 0 2.8 11.9 3.4 13.5 1.2 3.8 3.6 7.5 5.9 9.1 1.4 1 3.5 2.2 3.9 2.2.1 0 1.4-1 2.8-2.3zm98.7 1.5c2.1-1.2 3.5-2.4 4.8-4.3 2.5-3.4 3.8-7 5.2-13.5a171.7 171.7 0 0 1 1.4-6.2c-.5-.5-9.2-5.8-11-6.7-5.2-2.6-10.6-3.1-14.8-1.5-.8.4-.8.5-.8 2.7s-.4 5.8-.8 6.7c0 .3.1.5.7.6l.8-.1c.3-.4 4-.7 4.5-.3.3.2.5.2.6-.2.1-.3.9-.4 4-.4 2.4 0 4 .1 4.1.3.2.2.9.2 1.8.1 2.1-.3 4.2.3 4.9 1.3.4.7.4.8 0 1.5-2 3.2-9.5 10.8-13 13.4l-1.8 1.3 2.3 1.8c1.3 1 3 2.3 3.6 3l1.6 1.3 1.9-.8zm-138.2-3.6 5-5.8 1.9-2-1.7-.6c-1-.4-2.6-1.4-3.6-2.2-3-2.4-4.8-5.8-6.4-11.4a78 78 0 0 0-2.3-7.7c-.3-.4-2.6.6-3.5 1.6a9.7 9.7 0 0 0-1.6 9.8c.9 1.9 1.4 2.4 3.5 3.3 1 .4 2 1.1 2.4 1.5l.7.8-.7.7c-.5.6-1 .7-3 .9-2.6 0-4.2.7-5.5 2.2-.6.7-1.6 3-1.8 4.2-.1.8-.1 1 1.2 1.3a33.8 33.8 0 0 1 12.2 7.2l3.2-3.8zm178 2.5c3-2.6 7.3-5 10.6-6 1.3-.3 1.3-.3 1.2-1.4a9.2 9.2 0 0 0-2.9-5 7.8 7.8 0 0 0-5-1.3c-1.5 0-1.9-.1-2.4-.7-.7-.7-.7-.7-.1-1.5.3-.4 1.2-1 2-1.3 2.1-.7 3-1.4 3.7-3 1.3-2.7 1.3-6 0-8.7-.8-1.5-2.8-3.1-4.1-3.2-.8 0-.9 0-1.7 2.7l-1.1 3.7c-.8 3-1.9 6.3-2.6 7.7-1.5 3-4.4 5.8-7.8 7.1l-1.6.7 1.4 1.3c.8.8 3 3.3 5 5.8l3.7 4.4 1.7-1.3zm-108.5-2.5 1.8-.2-1.4-2-1.5-2a13.9 13.9 0 0 0-5.2.2c-.8 0-.6.6 1 2.6 1.4 1.8 2.5 2.4 3.2 1.8l2.1-.4zm39.5-1.4c1.5-2 1.7-2.6.9-2.6-.3 0-.7 0-.8-.2 0 0-1-.2-2.1-.2h-2l-.8 1.1-1.5 2c-1 1-.7 1.5.6 1.3.5 0 1.4 0 1.8.2 2 .6 2.4.4 3.9-1.6zm-151.9.4 3.5-1.3c.6-.3 1.1-.6 1-.7 0-.2-4.7-8.2-5-8.4l-6 1.6c-2.1.7-2.1.5.8 5.3 1.5 2.4 3 4.4 3.1 4.4l2.6-.9zm263-1 2.8-4.4 1.5-2.6-.7-.3-4-1.3c-3-.8-3.2-.9-3.6-.4l-.4.7a50 50 0 0 1-4.3 7.2c0 .2 1.3.8 3 1.5a35 35 0 0 1 3.3 1.3c.6.6 1.4 0 2.4-1.7zm-167.4.1c.8-.6 2.3-1.7 3.4-2.3 2.2-1.4 2.2-1.4 1.4-4.3l-.6-3.2c-.4-2.7-.3-2.7-4.6-3.4l-2-.5-2.2-.3a34 34 0 0 0-7.4-.4c-3 0-4.9 0-5.1-.3-.3-.2-.5-.2-.8.2l-.8.4c-.3 0-.4.1-.3.3a61.3 61.3 0 0 0 17.5 15s.8-.5 1.5-1.2zm73.7-1.6c2.8-1.9 6.8-5.4 9.8-8.5 3-3.2 3.6-4 3-4-.3 0-.7-.2-.9-.5-.3-.3-.5-.3-.8 0-.2.1-2 .2-5 .2a51.4 51.4 0 0 0-14.6 1.8c-1 .3-1 .3-1.5 2.6a34 34 0 0 1-1 4 6 6 0 0 0-.4 2.3c0 .2.8.6 1.5 1 .8.4 2.3 1.4 3.4 2.3l2 1.6 1.4-.8 3-2zm-51.3 1.5.8-1-1.9-.5-2-.4c0 .1 2 2.9 2.2 2.9l.9-1zm25.5-1.1c.6-1 .6-1 0-.8a89.8 89.8 0 0 0-3.1 1l.7 1c.6.9.6.9 1.2.3.4-.3.9-1 1.2-1.5zm-168-1.2c3.1 0 3.8 0 4.1-.5l2.8-2.3c1.5-1 2.1-1.7 1.8-1.7-.3 0-.7 0-.8-.2l-2.4-.3c-1.3 0-2.5-.2-2.7-.3L63 184c-.5 0-1.7 0-2.6-.2l-1.6-.2-2.9 2.8-2.8 2.8h1.6c1.2 0 1.9.2 2.1.5.3.3.5.3.7.1a14 14 0 0 1 4-.3zm37-.2 3.5-.4c.4 0 0-.9-1.8-3.5l-2.4-3.7c-.1-.2-9.1-.2-9.1 0l3.7 6c1.4 2.2 1.6 2.4 2.3 2.3l3.8-.7zm240.2-1.7c1.5-2.4 3.5-5.7 3.5-6h-4.5l-4.5.1-1.4 2.2c-2.4 3.5-3.2 5-2.7 5 1 0 6.6.8 6.7 1 .6.6 1.4 0 2.9-2.3zm38 1.6c1 0 1 0-1.8-2.8l-2.8-2.8-1.7.3a9 9 0 0 1-2.4 0c-.4 0-1 0-1.1.2a8 8 0 0 1-2.7.4 11 11 0 0 0-2.4.3l-1 .2c-.6 0-.4.2 1 1.2l3.3 2.5 1.3 1.1 3.8-.2c2.8-.1 3.8-.1 4 .2.1.2.3.2.9-.1.4-.3 1.1-.5 1.7-.5zm-53-1.4c4-6.2 7-13.7 10.4-26.4 1.7-6.3 2.7-9 4-11.5l.8-1.7-1.8-.7c-2-.7-5.4-2.5-10-5.1a161 161 0 0 0-13.7-7.1 51 51 0 0 0-15.2-4.5c-.4.2-.3.4.5 1.4.9 1 1.8 1.7 2.5 1.5 1.2-.2 9.4 3 15 5.8 6.7 3.3 16.4 9.2 17.7 10.6a124 124 0 0 1-6.6 25.4 62 62 0 0 1-4.8 9.3c-1 1.5-1 1.8-.8 3.1.2 1.4.3 1.9.5 1.9l1.5-2zM109 188c.3-1.4.3-1.5-.8-3a79.2 79.2 0 0 1-8-19.3l-.9-3.3-1.8-6.8-1.2-5 .7-.9c.8-.7 8.8-5.7 13.4-8.3 7.6-4.2 14.4-7 19-7.8 1.7-.4 2-.5 2.7-1.6.6-.9.6-1.1.3-1.3a31 31 0 0 0-9.3 2 115.5 115.5 0 0 0-20.4 10.1c-3.5 2-7 3.8-9 4.6l-2 .7.8 1.2a71 71 0 0 1 4 11.9c3.8 12.6 6.5 20 9 24.7 1.2 2 2.5 3.5 3 3.5l.5-1.4zm97.9-1.7c-2-1.6-2.1-1.5-1.3 1.2l.4 1.6 1.1-.8 1-.8-1.2-1.2zm18 .5c.2-.7.3-1.4.2-1.5-.2-.2-2.6 1.7-2.6 2 0 .2.4.7.8 1 1 .9.9 1 1.6-1.5zm-34 0c.2 0 .3-.3.3-.4-.2-.3-1.3-4.4-1.7-6.5-.2-1-.3-2.5-.2-3.4 0-1.3.2-1.7.7-2 .4-.2.7-.4.6-.6 0-.4 2.8-.5 3.2-.1.1.1.7.2 1.2 0 .5 0 1.4.1 1.8.3.6.2 1 .4 1.2.3l2.2.6c1.9.5 1.9.5 2 0 .3-.9 0-1-2.8-1.7l-2.7-.6a34 34 0 0 0-4.2-.1c-3.3 0-3.8 0-4 .5a33 33 0 0 0 1.2 13.2c.1.7.3.8 1.1.5zm11-1.8a7 7 0 0 0-.6-2.2c-.3-.3-3.8-1.5-4.3-1.5-.3 0 .4 2.2 1.2 4 .5 1.3.6 1.4 1.4 1.3.6-.2 2.5.1 2.7.4l-.3-2zm39 1.3a37.3 37.3 0 0 0 .7-14c-.3-.2-.5-.2-.6 0-.2.2-1.5.3-3.6.3a34 34 0 0 0-3.8 0c-.2.2-1.5.5-2.7.7-2.8.6-3.1.8-2.8 1.7.1.4.3.6.6.4a24 24 0 0 1 8-1.6c.4-.6 2.8-.3 3.6.3.7.6.8.8.8 2.6 0 2.5-.7 6.4-1.3 8.1-.3.7-.5 1.5-.4 1.8.3.6 1.3.5 1.5-.3zm-9-.2c.2-.2 1.7-4.3 1.7-4.7 0-.3-1.5.1-3.2.9-1.7.6-1.7.6-2 3.1l-.2 1.3 1.7-.2 2-.4zm5.2-3c.4-1.6.7-3.6.7-4.5V177l-1-.2h-1.3c0 .2-1.2.5-2.6.7-3.3.7-4.1 1-4.1 1.8 0 .6 0 .6 1.3 0 .7-.3 2.2-.8 3.4-1l2.2-.6.7.7c1 .8.9 1.7-.4 5.4-.5 1.6-.7 2.4-.5 2.5.6.2.9-.3 1.6-3.2zm-42 2.5c-.9-2-1.7-4.8-1.7-5.7 0-.6.2-1.4.5-1.7.5-.5 1.8-.7 2-.2.2.2.4.2.5.1l2.6.6c2 .8 2.8.8 2.8.2 0-.4-1.3-.8-4-1.4l-2.7-.7h-1.4c-1.2 0-1.2 0-1.2 1.3 0 1.4 1 6.6 1.6 7.5.1.3.4.5.7.5.3 0 .4-.2.3-.5zm18-1.8-1-1.5-.1 1c-.5 2.3-.1 3 1.4 2.4.6-.3.6-.4-.3-1.9zm5.5.7c0-2-.4-2.2-1.4-.5-1 1.4-1 1.5-.3 1.6 1.6.3 1.7.3 1.7-1zm-9.6-2.4.5-2.6c.1-.7 0-1-1.9-2.3-1-1-2-1.6-2.2-1.6-.1 0-.3.8-.4 1.7l-.4 2.8c-.1 1 0 1.2 2 2.6 1 .9 2 1.5 2 1.4l.4-2zm15.3.3c.8-.7 1.5-1.5 1.5-1.8 0-1.1-.7-5-.9-5-.3 0-3.7 2.7-4 3.2v1c.3.5.5 1.7.6 2.7.2 2 0 2 2.8-.2zm-81 1.2h1.2v-1.6c0-.9.2-2 .4-2.6a11 11 0 0 1 4-3.8c.6-.2.6-.3.3-1.2-.2-.6-.6-1-1.1-1.1a564 564 0 0 0-18-7.5l-3-1.3c-.6-.2-1.2-.5-1.3-.7l-.7-.2c-.3 0-.3.2 0 1 .3.7 1.1 3.3 1.8 6 2.3 8.5 3.4 9.8 9.4 12.4.6.3 1.4.5 1.7.4.2 0 .5.1.7.3.1.2.7.3 1.7.1l2.8-.2zm148.4.1a8 8 0 0 1 1.7-.6c3.3-.8 6.1-2.8 7.5-5.2.9-1.5 1.3-2.7 2.8-7.8l1.6-5.3.6-1.4-6 2.5a471.3 471.3 0 0 0-10 4.3l-4 1.6-2.6 1.1c-1.3.4-2.3 1.3-2.3 2 0 .2.5.6 1 .9 2.5 1.1 4.5 4.7 4 7-.3 1-.2 1 .6.8a8 8 0 0 1 2.2 0c1.9.4 2.6.4 2.9.1zm-177.2-3.2 1.2-.6-1-1.5a9.6 9.6 0 0 1-2.3-6.3c0-4.6 2.3-8.4 6.4-10.5.6-.3 1-.7.9-.8-.1 0 .1-.7.4-1.2.4-.6.6-1.1.5-1.2-.5-.5-1-2.7-1-4.5 0-2.7.8-4.7 2.8-7.2 2-2.2 4.3-3.6 6.9-4l1.6-.2-.6-1.6a7.5 7.5 0 0 1-.4-3c.1-1.2 0-1.3-.4-1.2-.2.2-1.2.4-2.1.7-6.8 1.8-15.3 6-25.1 12.3-2 1.2-2.5 1.7-2.4 2.1l.5 2c2.6 11 6 21.6 8.7 27 1.6 3 1.7 3.1 3.2 1.6.6-.8 1.7-1.6 2.2-1.8zm206.8-.4a157.2 157.2 0 0 0 9.2-29l-15.5-8.9c-4-2-8.8-4-12-4.9l-2.5-.6v1.5c0 1.4-.4 3.1-1 4-.2.3 0 .4.5.4 2.6 0 5.9 1.7 7.9 4 1.3 1.5 2.9 4.8 2.8 5.7 0 .3 0 .9.2 1.2v1c-.2.3-.3.8-.2 1.2l-.4 1.7c-.6 1.2-.4 2.2.3 2.4.2 0 .3.4.2.7-.1.5.2.8 1.2 1.3 3 1.6 5.9 5.7 5.9 8.6 0 .7-.1 1.3-.4 1.5-.2.3-.2.5 0 .8 1 .8-.1 3.9-2 6-.6.7-.9 1.2-.7 1.3.8.3 3.2 2 3.8 2.8.3.4.7.8.9.6l1.8-3.3zm39.3 1.7 2.9-.4 2.4-.3c2.5-.1 3-.3 2.2-1l-2.8-2.2c-1.9-1.6-2.3-1.8-3.4-1.8-2 0-2.5.3-3 1.6-.6 1.3-2.8 3.4-4 4-1 .3-.6.6.8.5.6 0 1.2.1 1.3.3.2.2.4.2.6-.1.3-.3 1-.5 3-.6zm-285 0c-1.8-1.1-3-2.2-3.7-3.4-1.2-2-1.5-2.3-3.1-2.3-1.4-.1-1.5 0-4.1 2.1-3.1 2.6-3.1 2.7.8 3l2.5.2c.2.1 1.4.3 2.8.3l2.7.4c0 .2.8.2 1.5.1 1 0 1.2-.1.7-.4zm141.4-2.8c.5-.8.5-1-.6-3.3-.7-1.4-1.2-2.2-1.4-2-.2.1-.7 1.2-1.2 2.4l-.9 2.3 1.1 1.5 1.2 1.7.6-.8c.4-.5 1-1.2 1.2-1.8zm-132.3.3h1l-1.5-2.1a87.6 87.6 0 0 1-10.2-18.9c-2.5-6.5-3.5-9.6-5.1-16l-1-3.7 1.4-1.3a96.2 96.2 0 0 1 39-15.8h.8l-1-1.6c-1.3-1.9-.8-1.8-6.5-.5a95.8 95.8 0 0 0-20.6 7.6l-6.2 3-4.8 2.2c-1.7.8-6.4 2.4-8 2.7l-.9.2 1 1.6L64 140c2 4.4 2.2 4.8 6.7 17.3 3.2 9 6.1 15.1 10 21 1 1.6 1 1.6 2.1 1.4l2-.3zm266.2-3c3.8-5.9 7-13.2 10.7-23.8a128.1 128.1 0 0 1 7.5-17.5l-4.1-1.4c-6-2-8-2.8-18.3-7.7-6-3-11.7-5-18.4-6.5-5.3-1.3-4.9-1.3-5.9.3l-.9 1.6s1.2.4 2.6.6a89 89 0 0 1 18.4 5.3c5.8 2.5 17.3 8.7 19.1 10.4.8.7.8.8 0 4a100.8 100.8 0 0 1-16.8 37.5l1.2.3c.8 0 1.4.1 1.5.3.6.5 1.5-.3 3.4-3.4zm-273.3 2.8a43 43 0 0 0-3-4.8c-.1-.1-.3.2-.4.6-.3 1 .6 2.8 1.9 3.6.9.6 1.5.9 1.5.6zm278.4-2.6c.3-.8.3-1.4.1-1.8-.2-.6-.4-.4-1.6 1.6l-1.6 2.5c-.2.3.4.1 1.3-.3 1.2-.7 1.5-1 1.8-2zm-266.3 2.1c.2-.2 2-.3 4.6-.3 2.3 0 4.3 0 4.3-.2l-.7-2c-.6-1.6-.7-1.7-1.4-1.5a9 9 0 0 1-1.6.3l-1.4.2c-1.4.5-2 .5-2.8-.2-1-.8-1-1.6.5-4.7 1-2.2 1-2.3.4-2.3-3.8-.5-8.2-1.5-10.5-2.4-.5-.2-.4.3.7 2.2 2.7 4.9 7 11.2 7.6 11.2 0 0 .3-.1.3-.3zm253.7-2.6a47.7 47.7 0 0 0 6.2-10.5s-.4 0-.7.2c-1.3.7-6 1.7-10.2 2.2-.6 0-.6.1.4 2.2 1.4 2.7 1.5 4 .7 4.7-.5.5-.9.6-2.6.4-1.2-.1-2.4-.4-2.9-.7-1-.4-1-.3-1.9 1.7l-.6 1.7c-.1.3.8.4 4.2.4 2.6 0 4.4.1 4.5.3.4.6.8.2 2.9-2.6zm-96-.3c.3-.3 1.2-7.3 1.2-9.3 0-.3-.4-.4-1-.4s-1.2-.2-1.3-.3c-.1-.2-.3-.2-.7.1-.3.3-1.3.5-2.7.6-2.2.1-3.7.5-4 1l-.3 1.3c-.2 1-.1 1.1.5 1.3.4.1.8 0 1-.1.3-.4 2.2-.4 3.2 0 1.2.4 1.7 1.5 2 4.1v2.4l1-.1c.4-.1 1-.3 1.1-.6zm-62.4.3c.4-5.7.8-6.2 3.9-6.3 2.6 0 3-.3 2.8-1.5-.1-.6-.4-1-.6-1.2l-1-.3-2.5-.3c-1.2 0-2.3-.2-2.4-.3-.2-.2-1-.2-2-.2l-1.6.2.2 1c0 .4.3 2 .3 3.3.3 3.6.7 5.4 1.3 5.6 1 .2 1.6.2 1.6 0zm27-2.7c1-2 2.7-4.3 3.3-4.3.5 0 2.4 2.5 3.3 4.7 1 2.2 1.4 2.6 1.7 1.7.3-.6-.5-2.1-2.5-5-2.7-4-2.4-3.9-3.6-2.5-1 1.3-3 4.4-3.9 6.3-.4 1-.4 1.2 0 1.6.3.4.3.4.4 0l1.2-2.5zM72 173c.2-.2.2-.4 0-.4 0 0-.4.2-.6.5-.2.2-.2.4 0 .4l.6-.4zm136.3-1c1.8-3.4 6-8.7 7-8.7.9 0 5 5 7 8.7.7 1.4.8 1.5 1.4 1 .5-.3.5-.5.2-1.2-1-2.8-7.4-10.3-8.6-10.3-1.3 0-6.7 6.4-8.3 9.7-.7 1.4-.7 1.5-.2 1.9l.7.4.8-1.6zm151 1c-.7-.4-1-.3-.7.2l.7.3c.5 0 .5 0 0-.4zm-23.2-2.5c-.5-1-.9-1.7-1-1.6l-.5 1.2c-.4 1.2-.2 1.6 1 1.6.4 0 .8.1.9.3.5.8.3.1-.4-1.5zm-240 .8L96 170l-.4-1.4-.8 1.7a23 23 0 0 0-.8 1.7c0 .1 2.1-.3 2.3-.5zm111.3-6 1-1.3-1.4-2.2c-3-5-7.5-10.6-11.3-14l-2.3-2.2-.1 5.8a60 60 0 0 0 1.6 16.6c.4 1.4.5 1.6 1.3 1.6 1 0 4.5.7 6.2 1.3l1.2.3 1.3-2.2c.8-1.3 1.9-3 2.5-3.6zm26 4.5c2 0 1.9.2 2.8-4.3 1-4.8 1.6-13.3 1.2-17.5l-.3-2.3-2.5 2.4c-5 4.7-9.2 10-11.6 14.5l-.8 1.5 1.6 2a24 24 0 0 1 2.3 3.7l.8 1.5 2.4-.7c1.3-.4 3.2-.8 4.2-.8zm-82 .7c0-.2-.1-1-.4-1.8-.8-2.6-.1-5 2-7l1.2-1-1.4-1.5c-.9-.8-1.6-1.7-1.8-1.9-.4-.7-5-3-6.9-3.3-2-.4-4.4-.2-6.4.4-.8.3-3.2 1.6-5.5 2.9a67.3 67.3 0 0 1-5.2 2.7c-1.2.4-1.3.8-.3 1a293.8 293.8 0 0 1 17.8 7.6c2.1 1 5.5 2.2 6.2 2.2.2 0 .5-.1.7-.3zm131-.4c2-1 4.9-2.2 9.5-4.1l6.8-2.8 4.4-1.9c.8-.3 1.3-.6 1.2-.7l-2.2-1.3a91 91 0 0 1-3.6-2c-4.7-2.8-6.3-3.4-9.6-3.4-1.7 0-3 .2-4 .5-2.3.8-5 2.4-5.7 3.2l-1.8 1.9-1.2 1.1 1.4 1.4c2.3 2.2 2.7 4 1.6 7.3-.5 1.6.6 2 3.2.8zM71 166.8c-.7-1.5-1.3-2.7-1.5-2.6-.3.2-.2 2.1.2 3.3.4.8 2.2 2.4 2.5 2l-1.2-2.7zm289.6 1.1c.6-.9.8-3 .3-3.9-.2-.3-.3-.3-.3 0s-1.5 3.8-2.1 4.9c-.5.8-.4.9.6.3.4-.2 1.1-.8 1.5-1.3zm-203-1.3c5.9-3.9 12.6-6.3 14-5 .2.3.4.3.7 0 .3-.2 1-.3 1.8-.3l1.3.1-11.1-11.3-11.2-11.4v1.5l-.6 5.5c-1 7.6-.1 9.9 4.8 14 1.5 1.2 1.5 1.2 1 1.9L156 163c-1 .6-1.6 1.1-1.9 1.8-.6 1.7-.3 4.1.4 3.7l3-2zm119 .5c0-2-.7-3.2-2.5-4.2-2.5-1.5-2.5-1.6.3-4.2 1.3-1.3 2.7-3 3-3.6 1-1.8 1.1-5 .6-10l-.5-5c0-1-.5-.4-11 10-10.5 10.7-10.8 11-10 11.1a5 5 0 0 1 1.7.5c.5.2.8.2 1.2-.1.5-.4 2.6-.3 4.8.4 2.3.8 5.7 2.7 9 4.8 1.6 1.1 3 2 3.2 1.8l.2-1.5zm97-1.6c5.6-3.8 8.3-8.8 11.6-21.6a79 79 0 0 1 4.4-13.6l1.2-2.5-1.4.6-10.1 4.2c-.6.2-.7.4-.7 1.7 0 .9-.3 2-.6 2.8-.8 1.7-3.3 4-4.9 4.5-1 .3-1.1.4-1 1 .5 1.3.5 3.6 0 4.7-.5 1.4-2.2 3.3-3.6 4.1-1 .6-1 .7-.6 1.2 1.8 2.2 1.3 5.2-1.1 7.7l-2.2 1.9c-.7.5-.7.5 2.5 2.7 3.7 2.6 3.4 2.6 6.4.6zm-312.3.4 3.4-2.3 1.9-1.3-1.1-.6c-2-1-4-4.2-4-6.2 0-.3.3-1.2.7-2l.8-1.5-1-.6a9.9 9.9 0 0 1-3.8-4.7c-.4-1.2-.3-2.7.2-4.2.1-.5 0-.6-1-1-2.6-.7-5.6-4.5-5.5-6.7 0-1.7 0-2-.7-2.2l-2.1-.9a327.3 327.3 0 0 0-6-2.5l-2.3-1-1-.4 1.2 2.6a63 63 0 0 1 4.3 13 57.8 57.8 0 0 0 4.6 13.8c1.2 2.4 2 3.6 4 5.5 1.9 2 5 4.3 5.8 4.3l1.6-1zm279.5-1.5c1.8-.2 7.5-1.5 7.8-1.8.2-.2-1.4-1.5-4-3.4l-2.2-1.5-2.4 1.1-2.4 1.1-.6 2.1-.6 2.5c-.1.3.1.4.6.4.4 0 .9.1 1 .3.1.2.3.2.6 0 .3-.3 1.3-.6 2.2-.8zm-246.8-1-.7-2.3c-.3-1.3 0-1-2.5-2.1l-2.3-1.5c-.2-.3-.3-.4-.3-.2s-.6.8-1.4 1.3a43 43 0 0 0-4.8 3.9c-.1.3 2.7 1 6.2 1.7l3.2.6c.3.2 1 .2 1.8.2l1.2-.2-.4-1.3zm152.6-.3h2.6l.3-1c1.2-3.4 1.2-6.9.3-10.6-.7-2.6-2.8-6.6-5.8-11.4l-2.6-4.2-1.4.4-1.7.4a3 3 0 0 0-1.1.3 4 4 0 0 1-1.4.3c-.2 0-.8 0-1.3.2a36.1 36.1 0 0 0-9.2 3c-3.7 1.8-8.1 6.7-8.1 9 0 .3.6 1.1 1.2 1.8.7.6 2 2.2 3 3.4l1.7 2.3 1.3-1.8a71 71 0 0 1 14-13.4c.2 0 .5.2.6.5.2.2.4.4.6.4.1 0 .4 1 .6 2.2.5 2.4.3 14.8-.1 17.5l-.3 1.5 2.1-.4a32 32 0 0 1 4.7-.4zm-56-.2c-.8-5.1-1-11.5-.4-16.8.4-3.1.6-4 1.2-3.8.2 0 .3 0 .2-.2-.4-.6.5-.6 1.4 0 3.5 2.5 9.8 8.7 13 13.1l1.4 1.8 1.4-2 3-3.5c.8-.8 1.5-1.7 1.5-2 0-1.2-1.7-4-3.5-5.8-2-2-4.8-3.5-9-4.9a35.6 35.6 0 0 0-4.2-1.3l-1-.3c-.3.1-4.4-.8-6-1.3-.4 0-1.2 1-3.1 4.2-6.3 10.5-7.6 15.8-5.5 22l.3 1h2.8a29.3 29.3 0 0 1 5.9.6c.7 0 .8 0 .7-.8zm20.6-1.5 2.2-2c2-1.6 1.8-1.6 4.7.8l2 1.7.5-.6c.3-.4.5-1 .5-1.4 0-.8-1.5-3.2-4-6.2l-1.7-2-1.4 1.5c-2.9 3.2-4.6 5.6-4.6 6.5 0 .5 1 2.2 1.2 2.2.2 0 .4-.2.6-.5zM80 160.6c.7-1 3-2.8 5-4.1l.7-.5-3.6-3.6a38.8 38.8 0 0 1-5.7-6.7c-2.6-3.9-2.8-4.7-1.8-5.6A19.4 19.4 0 0 1 83 138a30.5 30.5 0 0 1 9 0c.7 0 .7-.2.5-1.3l-.3-2.5c0-.8-.1-1.4-.2-1.5l-.2-1.8v-1.6l-.8.3c-3 .8-13.4 6-18.2 9l-1.3 1 1.1 4.3a125.5 125.5 0 0 0 6 17.3c.2.7.3.7 1.3-.5zm273.5-2.8c1.6-4 3-8.5 4.3-13.2 1.6-5.6 1.6-5-1-6.6-4.7-2.9-14.8-7.8-17.3-8.6-.6-.2-.7-.1-.8 1.8 0 1.6-.1 2-.5 2-.3-.1-.3 0 0 .4.4.4.3 2-.2 3.6-.1.5 0 .6.8.8.5 0 1 0 1-.2a28 28 0 0 1 8.4.2c.8-.2 6.2 1 7.2 1.5.3.1.4.3.3.5 0 .2.1.3.5.3 1.4 0 1 1.2-2.4 6a42.6 42.6 0 0 1-6.7 7.7l-1.8 1.6c-.1 0 .8 1 2.1 2s2.8 2.3 3.4 3c1.2 1.2 1 1.4 2.7-2.8zm-285.5 1-1-2.5c-1-2.9-1.2-3.1-1.5-3-.4.3-.7 2-.5 3 .3 1.2 1.5 2.8 2.4 3.2.8.3 1 .2.6-.7zm296.6-.2c1-1 1.4-2.8.9-4.4-.3-1-.4-1-.7-.6l-.5 1.3-1 2.8c-.7 2-.7 2-.1 1.9l1.4-1zm-91.8-22-3.4-.4c-.2-.2-2-.3-4.3-.3-4.8 0-5.6.4-9 4-2.4 2.6-2.5 2.6-3.1 2-.3-.3-.9-1-1.2-1.7-.3-.7-.8-1.5-1.1-1.8-.7-.6-2.7-1-3.8-.7l-.8.2 1.5 2.3c2.5 3.8 3.6 6 4.7 9 1 2.5 1 3.5 1.2 6.6l.2 3.5 11-11.2 11.1-11.3-3-.2zm-95.5 19c0-2.7.1-3.5 1-6 1.2-3.5 1.6-4.2 4.2-8.4 1.1-1.8 2-3.3 1.9-3.4-.4-.4-2.5-.2-3.6.2-.5.3-1.2.9-1.5 1.4l-1.4 2-.9 1-.7-.7-2-2.2c-.7-1-1.7-1.9-3-2.5-1.8-1-1.9-1-5.9-1a25.2 25.2 0 0 0-7.3.6l-2.6.3 10.8 11 10.9 11v-3.2zm-51 1.6c1.3-.7 3.6-1.9 5-2.8 5.2-3 8.4-4 11.5-3.8 2 .2 4.4.9 5.6 1.8l.8.5v-3.7c0-2 .2-4.2.3-4.8.1-.7.4-2.6.4-4.2l.3-2.9h-1.2c-2.8 0-7-1.2-10.9-3l-2.8-1.4c-.1-.1-.6.6-1 1.5-1.6 3.6-1.1 6.8 1.4 9.6 1.6 1.7 1.8 2.2 1 2.5-.2.1-.3.3-.2.4.3.6-.8.6-2 0-1.9-1-5.6-1-7.4 0-2.5 1.3-4 4-4 7.3 0 1.6.5 4.1.8 4.1l2.4-1.1zm181 0c.6-1.8.5-4.8-.3-6.5a7.3 7.3 0 0 0-3.1-3.7c-1-.7-1.6-.8-3.7-.8a7 7 0 0 0-3.8.7l-1.4.7-.9-.8-.9-.9 1.5-1.6c1.9-2 2.7-3.8 2.7-6 0-1.6-1-4.6-1.6-5.1-.2-.3-1.1 0-3 1a28 28 0 0 1-9.3 2.9l-2.6.3v2.6c0 1.4.1 3 .3 3.8.1.6.4 2.9.5 5l.2 3.7 1.6-.7c4.9-2.1 8.7-1.6 15.2 2.2 2.3 1.4 7.8 4.3 8 4.3.1 0 .4-.5.6-1.1zm36.2-4c2.6-2 6.3-5.7 7.8-7.8l1-1.4-4.9 2-5.2 2.5a27.4 27.4 0 0 0-3 6.8l-.4.9 1.2-.6 3.5-2.4zm-252.3.8c-1.3-3.5-2.4-5.4-3.5-6-2-1-8.5-3.8-8.7-3.7-.2.3 1.8 2.9 4.3 5.4 2.5 2.5 7.3 6.1 8.2 6.2.3 0 .1-.6-.3-1.9zm-26.7-5-2.5-6.3s-.2 0-.4.3c-.4.7-.4 2.9.2 4 .6 1.3 3.2 3.1 2.7 2zm304-1.3a7 7 0 0 0 .8-1.7c.2-.6.5-1 .7-1 .1 0 .3 0 .3-.2s-.2-.3-.3-.3c-.2 0-.5-.4-.7-1-.1-.4-.4-.7-.5-.6-.2.3-2 4.6-2.2 5.7-.3.7-.2.7.6.3.5-.3 1.1-.8 1.4-1.2zm-274.8-3.5c3.3-1.3 4.1-1.7 3.6-2a24 24 0 0 0-3.9-.8 66.4 66.4 0 0 0-11.6-.2c-1 0-1.1.5-.3.8l2.2.8c5.6 2.6 6.5 2.7 10 1.4zm252.2-.8a24 24 0 0 0 4.3-2l-1-.2c-.6 0-1 0-1.2-.2a72.5 72.5 0 0 0-10.4.3l-3 .7-1.6.5 1.3.6c2.7 1.2 5 2 6 2 .8 0 2.8-.6 5.6-1.7zm-131.6-7.5a46.5 46.5 0 0 1-.7-13.2v-10.5l-4.6 3.8a22.9 22.9 0 0 0-5.3 5.3c-1 1.9-1.5 4.9-1.1 7.3.2 1.8.2 2-.5 2.7-.6.5-.9.6-1.5.4l-2.7-.3c-1.8-.1-1.9-.1-3 1l-1 1.3c0 .2.8.4 1.7.6l2 .6a23 23 0 0 1 7.8 2.4c2.7 1.3 5.9 3.7 7.5 5.7l1 1.3v-3.9c0-2.1.3-4.2.4-4.5zm7.7 3.3c3.4-2.3 8.7-4.3 13.5-5 .7-.2 1.3-.4 1.3-.6l-1.1-1.3c-1-1-1.2-1-3-.9l-2.9.3c-.5 0-1-.1-1.4-.6-.6-.6-.6-.8-.3-1.8a15 15 0 0 0-.3-6.4c-.5-1.8-1.9-3.4-5.5-6.4a66.6 66.6 0 0 1-5-4.4c-.2 0-.3 7.1-.3 15.8v15.8l2-2a34 34 0 0 1 3-2.5zm-118.9.2 1.6-.9c.2 0 .5-.2.6-.4.3-.3 0-.7-1.3-1.7-2.7-2.1-8.1-5.7-8.7-5.7-.4 0 .6 7.4 1.1 8 .5.4 3.6 1.5 4.6 1.6.5 0 1.4-.4 2.1-.9zm229.2.1 2.2-.7.5-3.2.5-4v-1l-1.7 1c-3.5 2-8.5 5.7-8.5 6.3 0 .1.7.6 1.6 1l1.8 1.1c.5.4 1.3.4 3.6-.5zm42.5-2.6c1.3-2.2 1-5-.7-6-.4-.3-1.5-.7-2.4-.8-1.3-.1-1.8 0-2.8.5-.7.4-1.2.9-1.2 1 .1.2 1 .4 2.1.5 1.1 0 2 .3 2.2.4 0 .1.3.2.5.1.2 0 .6.1 1 .5.6.7.5 1-1.6 3.9-1.2 1.7-1.3 2-.8 2.1.7.3 3-1 3.7-2.2zm-316-.3c-1.7-2.5-1.7-2.5-1.3-3.3.7-.9.9-1 3.6-1.4l2.2-.4c.2-.2-.4-.5-2.4-1.3a5 5 0 0 0-3.5.3c-1.3.5-1.6 1-2 2.3-.2.6-.5 1-.7 1-.1 0-.3.1-.3.3 0 .3.2.5.4.4.1 0 .4.4.6 1 .1.6.6 1.5 1.1 2 .8.7 2.6 1.6 3.5 1.6.2 0-.3-1.1-1.3-2.5zm122-1.8c1.3-.6 1.5-.6 3.4 0l2.2.3c.3-.4 0-2.2-.5-3.5l-2-5-1.8-4.5-1.1-2.5-1-2.5-1.8-4.4-1.4-3.5-1.7 3.2c-4.5 8.4-5.2 10.2-5.2 12.9a17 17 0 0 0 5 10.8l1.8 1.7 1.3-1.2c.8-.7 2-1.5 2.8-1.8zm77-.2c.2 0 .3-.1.2-.3-.1-.1.2-1 .7-1.8 2.2-3.7 2.6-7.4 1.4-11-.4-1.1-2-4.4-3.4-7.2l-2.7-5.1-2.2 5.6-2.7 6.8a351 351 0 0 0-4.8 12.3c0 1.2 0 1.4.5 1.2 3.2-.9 3.3-.9 4.8-.5.9.3 1.9.9 2.9 1.8l1.5 1.4 1.8-1.6a11 11 0 0 1 2-1.6zm-147.5.9 1.1-.8-.7-1.3-.6-1-.5 1.4c-.6 1.6-.7 2.3-.5 2.3l1.2-.6zm211.3-.5-.6-1.8-.3-.7-.7 1c-.4.6-.7 1.2-.6 1.3a19 19 0 0 0 2.3 1.3l-.1-1zM107.8 130c.3-.7.8-1.5 1.2-1.8.5-.5.6-.5 1.6.5a22 22 0 0 1 2.2 3l1.3 1.8 1-.5 2-.8 1-.5-3.5-3.5c-3.4-3.5-3.6-3.6-4.7-3.5l-1.6.2-3.1.6c-3.4.7-8.4 2-8.7 2.3a50.7 50.7 0 0 1 8.4 5.8l1.1 1 .6-1.7 1.2-3zm175.8 4.1c1.3 0 4.6-1 7-2a36 36 0 0 0 17.4-18.5 58 58 0 0 0 3.4-9A4777.4 4777.4 0 0 1 290 126c-4.4 4.4-8 8.2-7.8 8.3.1.1.3 0 .5-.1.2-.2.6-.3 1-.3zm45.8-3.3 3.2-2c1-.4 1.5-.9 1.4-1-.1-.2-2-.7-4-1.2l-4.2-1.1-1.9-.3c-.8 0-1.5-.2-1.7-.3l-1.6-.2c-1.2 0-1.4.2-4.7 3.5-3.4 3.5-3.5 3.6-2.7 3.8l3 1.4c.2 0 .9-.8 1.6-2l2.3-2.8c.9-.9.9-.9 1.5-.4a16 16 0 0 1 2.7 5.8l.3.8 1.6-1.4c.8-.8 2.3-2 3.2-2.6zm-189.5-5.3-14.8-15-6-6 .6 1.7a56.4 56.4 0 0 0 11 19.4c3 3.4 9.3 6.8 14.9 8l2.5.6.4.2-8.6-9zm16.3 8.3c.2-.2 1.3-.4 2.6-.4a13 13 0 0 0 2.6-.4l3.8-.2h3.4l-.7-1.7c-2.4-5.6-1.6-9.8 3.5-18.2a23 23 0 0 0 2.6-5.6c0-.5-2-1.1-3.8-1.1-6 0-9.9 6-7.2 11.4l.8 1.6-1 1-.8.9-1.5-1.6c-2.1-2.3-3-2.6-6-2.6-1.9 0-2.8.1-3.6.5-1.9 1-1.9 1-.6 3.5.7 1.3 1.4 3 1.7 3.8.6 1.9 1.6 6.8 1.6 8 0 1 0 1 1 1.2l1.1.1c.1 0 .3 0 .5-.2zm120.7-.9c0-2.8 1.7-9 3.5-12.3 1.2-2.3 1.1-2.4-1.5-3.3-3.3-1.2-6-.5-8.5 1.9-1.4 1.3-2.3 1.5-3 .8-.4-.5-.4-.8.4-3 1-2.7.8-4.4-.4-6.8-1.2-2.5-3.8-4-7-4-1.7 0-3.9.6-3.9 1 0 .2.4 1.2 1 2.3 6.4 12.4 6.5 12.7 6.5 16.2a14.9 14.9 0 0 1-2.1 6.9l3 .2 3.8.2c.3.1 1.5.3 2.8.3l2.4.4c.2.2.9.2 1.6.2 1.3-.2 1.4-.2 1.4-1zm-85-1.2c.5-.8 1.6-1.9 2.3-2.4 1.6-1 3.8-1.5 4.6-.9.3.3.4.1.4-1.5 0-1 .1-2.5.3-3 .2-.8.1-1.3 0-1.5a6 6 0 0 1-.8-1.8c-.6-2.3-2-4.8-3.3-6.2-1.6-1.6-3.8-2.6-9.2-4.1-2.5-.7-5-1.5-5.6-1.8l-1.1-.4 4.2 10.4 4.7 11.8c1.3 3.3 2 3.7 3.5 1.4zm49 1c.4-.5 1.2-2.2 2.4-5.2l2.4-6 1.2-3A344.4 344.4 0 0 1 251 108l-1.5.5-4.6 1.5c-6.2 1.8-8.9 3-10.4 4.7-.7.8-2.2 4-2.6 5.6-.2.9-.5 1.7-.7 2-.1.1-.2 1 0 1.9l.2 2.8-.1 1.3 1-.2c1.8-.3 3.5.4 5.4 2.3 1 1 1.7 2 1.7 2.2 0 .7 1 .6 1.5 0zm67.3-29.1 1.1-1.3-.8.3c-1.8.5-6.7 2.6-9.4 4a32.4 32.4 0 0 0-18.9 25c0 .4 24.6-24.2 28-28zm-158.5 24.7c-3-11.2-10.4-18.8-23.4-24-5.6-2.4-5.6-2.4-2.7.6a696 696 0 0 0 26.6 26.4c.1-.3-.2-1.6-.5-3zm-95.5 1c.5-.5 1.4-1.2 2-1.5 1.3-.8 3.6-1.1 4-.7 0 .2.3.3.5.2.3 0 1.1.2 2 .6l1.5.8.6-1.2c.8-1.5 2.5-3 4-3.3a10 10 0 0 1 4.7.1c.4.2.6 0 .8-.8.3-.6 1-1.6 1.9-2.4 2-2 4.5-2.5 6.7-1.6l1 .4v-1.3l-.3-1.6c-.2-.2-.3-1-.3-1.8l-.3-1.7-.3-1c-.2-.9-1.2-1.3-3.9-1.7-.7 0-1.5-.3-1.7-.6-.3-.3-.5-.3-1 0-.4.3-.6.3-1 0-.5-.3-.7-.3-.8 0 0 .3-1 .5-2.2.6a33 33 0 0 0-13.1 5.1c-7.3 4.3-10 5.8-11.6 6.6-2.3 1-5.4 2.3-6 2.3-.9 0 0 .5 2.5 1.6l5.9 2.4 3.3 1.4c.1 0 .6-.4 1-1zm16.4-.5c1.4-.6 2.5-1.2 2.4-1.4-.3-.4-3.4-.2-4.3.3-1 .4-1.5 1.2-1.5 2 0 .6-.1.7 3.4-.9zm292.9.7-1.2-1.5c-.8-.7-1.2-.8-2.8-.8-1 0-2 .1-2 .3-.1.1.3.4 1 .7l2.7 1.2c2.1 1 2.5 1 2.3.1zm18.3-1.1a320.1 320.1 0 0 1 7.6-3.3s-.6-.4-1.4-.6c-2.2-.6-7-3-11.5-5.7-7-4.3-11.4-6.4-15.5-7.4-4.4-1-11.5-.8-12.6.5-.3.3-.5 1.2-.5 2s-.2 1.7-.4 1.9a7 7 0 0 0-.3 1.8c0 .8-.2 1.7-.4 2-.3.3-.2.3.8 0 1.8-.7 3.4-.6 5.2.3 1.6.8 3.2 2.5 3.5 4 .1.5.3.6 1 .4.4-.2 1.6-.3 2.7-.3 1.6 0 2.2.2 3.2.9 1.1.7 2.8 2.4 2.8 2.8 0 .9.5 1 2 .3 3-1.6 5.4-1.3 8 .8.8.8 1.7 1.3 1.9 1.3l3.9-1.7zm-260-.6 4.6-1 1.4-.3-1.4-1.5a24 24 0 0 1-2.6-3.4l-1.2-1.8-2.4.5-7 1.7c-.3.2 5 6.4 5.5 6.4l3.1-.6zm191.8-1.1c2.6-2.7 3.8-4.2 3.8-4.5 0-.2-1-.5-2.4-.8a9.7 9.7 0 0 1-2.5-.8c-.1-.1-.5-.2-.8 0-.3 0-1-.1-1.4-.4-1.4-.6-2.3-.2-3.7 1.8L304 125l-1.4 1.3 1.2.4 2.3.5c.6 0 1.2.3 1.3.4 0 .1.3.2.6.1.3 0 1 0 1.5.2 1.8.6 2.4.4 4-1.4zm-233.4-2.4 3-1.3c1 0-1-.6-2.3-.6-1.8 0-3 .6-3.5 1.8-.4 1.1-.4 1.6 0 1.4l2.8-1.3zm273.2 1c0-1.8-1.5-2.9-3.8-2.9-2.7 0-2.8.4-.2 1.5l3 1.4c.7.5 1 .5 1 0zm-264.3-5 2.7-1c1-.2 1.2-.4.7-.5-.8-.4-2.6-.3-3.6 0a2 2 0 0 0-1.3 1.3c-.4 1-.4 1.2 0 1l1.5-.7zm253.8 0c0-1-1.3-1.8-3-1.8-2.6 0-2.5.4 0 1.4 3 1.2 3 1.2 3 .5zm-222.3-3.9-1.2-2.5a71.1 71.1 0 0 0-1.5-3.6c0-.8-.5-.9-2.3-.4l-4.9 1.1c-1.7.4-3.1.9-3.2 1a36 36 0 0 0 3 6.7l.5.6 5-1.2c4-1 4.8-1.3 4.6-1.7zm110.5-1.7c1.1-1.8 4-4.2 6.3-5.3 1.2-.6 4.3-1.7 7-2.5 6.5-1.8 6.4-1.8 6.2-2.8-.7-3-3.8-5.2-7.6-5.2-2.1 0-3.5.4-5 1.5-1 .7-2.2 2.7-2.2 3.5 0 .6-1.4 2.3-1.9 2.3-.2 0-.6-.2-.9-.5-.4-.4-.5-1-.5-2.5 0-4.2-2.6-7.6-6.1-7.9h-1.1l-.8 2.1c-.4 1.3-1 2.8-1.4 3.5a48 48 0 0 1-5.3 7.8 21 21 0 0 0 5.3 4.9c1.3 1 3.2 2.7 4.2 3.8l1.8 1.9.6-1.7c.3-1 1-2.3 1.4-3zm-28 2.9 4.8-4.4c4-3.2 5-4.1 4.7-4.7l-1.8-2.5c-2-2.4-4.4-7-5-9.3l-.4-1.7-1.1.2a8.7 8.7 0 0 0-4.5 2.5 9.4 9.4 0 0 0-1.8 5.6c0 1.5-.7 2.9-1.3 2.9-.6 0-2-1.7-2-2.4 0-.8-.9-2.3-1.9-3.2-1.4-1.2-2.9-1.7-5.3-1.7-2 0-2.5 0-3.8.8a7.6 7.6 0 0 0-3.6 4c-.4.9-.4 1.1 0 1.3.4.3 3.8 1.3 7.7 2.4a19 19 0 0 1 9.7 5c1.6 1.6 3.8 5.3 3.8 6.3 0 .7.6.4 1.9-1.1zm117.8-.7c1.6-2.7 2.4-4.7 2-5-.2-.2-6.6-1.7-9.3-2.3-.5 0-.7.2-1.1 1.2l-1.7 3.6-1.1 2.5 4.4 1a55 55 0 0 0 5 1.2c.4 0 1-.5 1.8-2.2zm-218.7-.7c1.4-.3 1.4-.3.7-.6-2.1-.9-4.8-.3-4.8 1 0 .7-.1.7 4-.4zm230.3.5c-.2-.8-1.5-1.6-2.5-1.6l-2.1.5-1.4.3 2.8.7c3.4.8 3.4.8 3.2 0zm12.3-5.8c1-9.7 1.1-15.4 1-28.3l.2-14.2.3-1.4-2.3.1c-1.4.1-2.5 0-2.7-.1-.4-.4-1.3-.3-2.4.2a429 429 0 0 1-31 .4c-.4.3-1.5.5-3.5.6l-3.2.3a9 9 0 0 1-2 .3c-.9 0-1.7.2-1.7.3l.5 1.5c.5.9.8 2 .8 2.7v1.2l1.6-.3 2.8-.3a31.1 31.1 0 0 1 9.8-.5 155.9 155.9 0 0 1 26.2 0c0 .3.2.5.4.5.6 0 .8 1.3.3 1.9-.3.3-.3.5.1 1 .4.4.5 1.7.5 11.2s0 10.8-.5 11.5c-.5.8-.5 1-.1 1.7.3.6.4 1.6.2 4.3l-.4 3.8c-.1.2-.2.8-.1 1.4 0 .6-.1 1.5-.3 2-.2.5-.4 1.3-.4 1.8v1h1.8c1.5.1 2 .3 2.6.8.6.6.7.7.8.2l.7-5.7zm-254.1 4.4c1.2.2 1.2.4.5-3.2-.4-2-.4-3.3 0-3.7.3-.3.3-.5 0-.8-.5-.3-.7-1-.8-5-.1-3.4-.1-4.8.2-5 .4-.2.4-1.3-.1-2.3-.4-.7-.5-2.2-.5-7.4 0-5.7 0-6.7.5-7.5.5-.7.5-1 .2-1.5a8 8 0 0 1-.1-4.5c.2-.2.5-.5.7-.5.2 0 .4-.2.4-.4 0-.4 1.5-.5 11.3-.5l11.7.1c.6.5 2 .7 2.2.4a38.5 38.5 0 0 1 11 .5l3 .2c.8.3.8.2.8-.8 0-1.2.4-2.3 1.3-3.6l.5-.8-1.1-.2a18.8 18.8 0 0 0-4-.6 30.2 30.2 0 0 0-6.6-.6c-2.8 0-4.4-.3-5-.6-.9-.4-1.2-.4-1.7-.1-.6.4-11.2.4-11.4 0a68.5 68.5 0 0 1-17.1.1h-2.3l.2.8c0 .4.3 9 .4 18.9.2 17.4.3 19 1.3 27.6.4 2.5.3 2.5 2 1.6 1-.5 1.6-.7 2.5-.6zm58.2 0c.4-.3.8-.8.8-1 0-1.2 1.9-7.4 3.3-11.1 2-5 11-21.2 12.7-23l1-1 3.3 1 5.7 1.4a87.9 87.9 0 0 1 25 10.1c1 .7 1.4.8 2.6.6l1.5-.3c.7-.7-2.7-3-8.7-5.9-3.6-1.8-11-4.5-16.5-6a87.4 87.4 0 0 1-13.2-4.5l-2.3-1.1-.5 1.7c-.5 1.6-2.5 5.6-9 18.3a77.1 77.1 0 0 0-6.1 14.2 31 31 0 0 0-1.3 7.3c.2.4.3.4 1.7-.6zm134.6.3c0-1-2.5-10.4-3.3-12.3-1.5-3.7-5.6-11.9-8.1-16.3a56 56 0 0 1-5-10.5l-.7-2-2.6 1.3a94 94 0 0 1-14.8 5 98.5 98.5 0 0 0-10.8 3.6c-3.2 1.3-10.2 5-11.3 5.8-1.1.8-1.5 1.9-.7 1.9.3 0 .6.1.7.3.3.4 1.8 0 3-1a70 70 0 0 1 9.8-5 173 173 0 0 1 21.8-6.5l2.5-.5.8.7c.6.6 1.2 1.6 3 4.6l1.4 2.5 1.8 3.3c.5.8 1.3 2.3 2 3.2a65.2 65.2 0 0 1 8 20.7c.1.7 1.9 2 2.3 1.8l.2-.6zm-123.2-6.6c1.5-2.6 6.1-6.1 7.3-5.7.2.1.5 0 .6-.1.3-.5 3.3-.3 5 .3 1.6.5 1.7.5 2.2 0 .3-.4.8-.6 1-.5.4.1.8-.2 1.2-1.2.4-.7 1.4-2 2.4-2.9 4.6-4.3 10-4.5 14.5-.5 1 .9 1.4.9 1.4 0a8 8 0 0 1 1.8-2.5l1.8-2-3.2-1.6a134.1 134.1 0 0 0-28.2-9.5c-.2-.2-.4-.2-.6 0a378.1 378.1 0 0 0-8.2 14.4 74.2 74.2 0 0 0-6.3 16.3h1.9c1 .1 2.3.3 2.9.6l1 .4.3-2a8 8 0 0 1 1.2-3.5zm112.4 5 3-.5h1.9l-.2-1a87.2 87.2 0 0 0-9.5-21.4c-3.9-6.9-4.7-8.2-5.3-8.1-.6 0-7.3 1.7-12.1 3.1a75 75 0 0 0-18.8 7.9c-.3.1 0 .6 1 1.5a10 10 0 0 1 1.8 2.5l.5 1.3 1.4-1.2c1.7-1.4 2.8-2 4.8-2.4 4-.9 9.5 2 11.6 5.8.5 1 1 1.6 1.2 1.5.3-.1.8.1 1.1.5.7.6.7.6 1.7 0 1.6-.8 5.7-.7 7.8.3 3.8 1.8 7 6 7 9.2v1.6l1.1-.5zm-173.1-1.7c.3.1.6 0 .8-.1.2-.4 2-.1 3.2.5.8.4.9.4.7-.3-.2-.3-.6-1-1-1.3l-4.1-3.3-4.5-3.5-1.1-.9v1l.4 4 .4 2.8 1.3 1 1.3 1.1 1-.6c.6-.3 1.2-.5 1.6-.3zm236.8-2.1.4-4c.2-2.8.2-2.8-.4-2.4l-9.9 8-.3.6c-.2.7-.2.7.8.3.5-.3 1-.5 1.3-.5l.9-.1c.3-.2.7-.2 1 0 .3.1.8.2 1 .1.2 0 .9.2 1.3.6l1 .5 1.3-1c1-.8 1.4-1.2 1.6-2.1zm-192-6.3.5-1.8-3-2.9a20 20 0 0 0-3.2-2.9c-.2 0-.4.4-.5 1l-1.7 7.4c-.2.6-.2 1.1 0 1.2l2.7 2.2c1.4 1 2.8 2.2 3.2 2.6l.5.7.6-2.9 1-4.6zm145 5.7a71.7 71.7 0 0 1 4.9-3.8l-2.2-9.7-3.2 2.8-3.1 3 .9 4.5 1 4.6 1.8-1.4zm-180.7-1.3 1.1-.3 3.5-.8 3.3-.8-.4-1.2-.9-2.9c-1-3.7-1.2-3.9-4.1-3.2a7 7 0 0 1-2.3.4h-.5c0 .2-1 .5-1.9.7-2 .4-2 .3-1.3 4 .8 4.1 1 4.5 1.8 4.5.5 0 1.2-.2 1.7-.4zm216.4-2.7c.4-1.7.7-3.6.7-4 0-1 0-1-1.8-1.4l-2-.6c0-.2-.3-.2-.4-.2-.2.2-1.3 0-2.4-.3-2.1-.5-2.2-.5-2.7.1-.4.3-.9 1.5-1.2 2.7l-1 3.3-.4 1.3 1 .2a165.9 165.9 0 0 1 9.3 2c.1 0 .6-1.4 1-3.1zm-222.8.4c-.6-2.2-.7-3.4-.3-3.8.2-.3.2-.5 0-.6-.4 0-.6-.8-.7-1.8-.2-1.5-.4-1.8-1.3-2.5a58 58 0 0 1-4-3.5L93.4 91v8.3l1 .8 8.2 6.9-.2-1.1zm235-10.6c0-4.1 0-4.2-.6-3.6l-3.9 3.5-3.3 3.1-.3 1.7c0 1-.2 1.9-.3 2l-.3 1.5-.3 2.3c-.3 1-.2 1 4.3-2.6l4.6-3.7v-4.2zM213.6 84.4V63.6l-1 2.3a52 52 0 0 0-5 20.2c0 4.7 1.5 11.4 3.5 15.2.8 1.7 2.2 3.9 2.4 3.9V84.4zM219 102c4-7.3 4.9-17.4 2.3-27.2a61 61 0 0 0-3.6-9.7l-.9-1.6v21c0 23.5-.2 21.8 2.2 17.5zm-84.8-1.6 1-4.8a5 5 0 0 1 .4-1.3c.1-.1-.4-.6-1-1-1.3-.8-5.7-3-6-3-.1 0-.4.7-.6 1.6l-.9 4-.8 3.6-.1 1.2 3.4 1.7c1.8 1 3.4 1.7 3.5 1.7.1 0 .6-1.7 1-3.7zm166.5 2 3.6-1.7-2.4-10.3a26 26 0 0 0-5.4 2.5c-2 1.2-1.9.7-.8 5.3l1 4.2.4 1.7 3.6-1.7zm-13-6.3c1.4-1.2 1.6-1.6 1.7-2.5a79.9 79.9 0 0 0-3-14.7l-.7 1.4c-1 2-2.9 4.9-4.8 7-1 1.2-1.3 1.8-1 2 3.6 1 6.2 2.4 6.2 3.4 0 .6-1.7 2-3.9 3.5-.8.4-1.4.9-1.5 1l.2.4 1 2 .7 1.8 1.6-2c1-1 2.5-2.5 3.5-3.3zm-139 3c.5-1 .9-2 .8-2.1l-2.5-1.7c-3-2-3.2-2.3-2-3.5.6-.7 1.5-1.1 5.2-2.5l.7-.2-1.2-1.2a44.7 44.7 0 0 1-4.8-7.3l-.9-1.7-1 3.8c-1 4.2-2.1 9.9-2.1 10.9a78.7 78.7 0 0 0 6.8 7.5l1-2zm-24.3-5.4.8-3.6.1-1-2-.4c-6.1-1.4-6-1.4-6.2.3l-1 4.2c-.7 3-.7 3.9 0 4.4.3.1 5 1.7 6.7 2.1.1 0 .4-.6.6-1.6l1-4.4zm186.6 5c2.6-.8 3.9-1.4 3.9-2l-1-4.8-1-4.3-1.1.1-6.3 1.3c-.4.1-.5.3-.4 1l2.2 9.3c.1.4.3.4 3.7-.6zm-200.9-2.7c.6-.2.3-.6-2.6-3.5l-3.2-3.3v8.2l2.6-.5c1.5-.4 3-.7 3.3-.9zm216.2-3.2v-3.3l-3.1 3.2c-1.8 1.7-3.1 3.2-3 3.3l2.9.8 2.8.6.2-.6.2-4zM97.2 82 93.3 78v9.5l2.3 2 3.9 3.5 1.5 1.4V90l.1-4.2-3.9-4zM151.7 93l.6-1.3L149 93c-.1.1 1.7 1.4 2 1.4.1 0 .5-.6.8-1.4zm129 .8c.6-.4 1-.8.8-.9-.3-.3-3.2-1.2-3.3-1.1-.1.1 1.2 2.6 1.3 2.6l1.2-.6zm53.7-3.9 2.8-2.5V78l-3.8 4c-3.7 3.6-3.8 3.8-4 5.2a4 4 0 0 1-.3 1.7c-.4.2-.4 2.4 0 2.6.2.1.3.9.3 1.6v1.4l1.1-1 4-3.6zm-13.3.6 3.4-3.3h-8.3l.2.7.3 1.4.4 1.6c.2.5.3 1.2.2 1.5 0 .5.2 1.4.5 1.4l3.3-3.3zm-207.6.5.7-3.1c.2-.7.1-.7-1.6-.7-1 0-2-.2-2-.3-.3-.2-1.3-.3-2.4-.2H106l3.2 3.4c1.8 1.9 3.4 3.4 3.5 3.4a8 8 0 0 0 .7-2.5zm24.8-.2a82.3 82.3 0 0 1 5.7-20.7 97.2 97.2 0 0 1 8.2-16.5c2-3.2 2.2-3.4 4-3a93 93 0 0 1 35.6 15.5l2.8 2.1.3-1c.9-3.2 1-2.9-2.5-5.2-5-3.4-10.7-6-21-9.9a95.7 95.7 0 0 1-18.6-8c-1.3-.8-1.2-1-2 2.3-1.1 3.8-3 8.5-6.1 14.8a110.7 110.7 0 0 0-9.7 28.7c0 .2 2.7 2.1 3 2.1.2 0 .3-.5.3-1.2zm155.9.3c.9-.6 1.3-1.1 1.3-1.6a117.1 117.1 0 0 0-8.9-26.7 107 107 0 0 1-7-17l-.5-2c0-.2-1 .2-2.5 1.1a62.9 62.9 0 0 1-10.8 4.8c-9 3.3-11.8 4.4-14.7 5.6-7.3 3.1-15.9 8.2-15.9 9.4l.4 2 .3 1.6 1.2-1A95.4 95.4 0 0 1 272 51.3l4-1 .7 1a108.3 108.3 0 0 1 14 30.9 50.5 50.5 0 0 1 2 9.9l1.6-.9zm-138.7-5 1.2-2.3-.9-2.5c-.6-1.8-1-2.5-1.3-2.5-.3 0-.6 0-.7-.2l-1.5-.3-3.2-.3-2-.2c-.5.3 6.4 10.6 7 10.6.2 0 .8-1 1.4-2.3zm124.8-2.8c1.6-2.4 3.2-5.1 3.2-5.5 0-.1-3.2 0-3.5.2l-2.4.5-2 .3-.5 1.4-.6 1.8c-.7 1-.6 2 .4 4a50 50 0 0 0 1.3 2.2c.3.4 1.7-1.3 4.1-4.9zm22.4 2.8a79.8 79.8 0 0 0 6.2-7.8 68.3 68.3 0 0 0 1.6-2.3c-.3.3-1.7.5-3.2.5a22 22 0 0 0-4.1.6c-.3 0-1 .6-1.5 1.3l-.9 1.3.6 1.3a7 7 0 0 1-.1 5.5c-.6 1.1-.6 1.3-.1 1l1.5-1.4zm-173.4.4a7.5 7.5 0 0 1 0-5.6l.5-1-.9-1.4a7.8 7.8 0 0 0-1.3-1.6c-.2-.1-2-.3-3.8-.3l-3.5-.1 1.9 2.4 5.5 7.3c.3.3 1.7 1.3 2 1.3 0 0 0-.5-.4-1zm3.8-2.8.5-2.3c.2-.7.1-.7-.3-.6a3 3 0 0 0-.9.5c-.5.4-.7 2.5-.4 3.9.4 1.4.6 1.2 1.1-1.5zm165.5 1.1c.2-1.5-.2-3.9-.7-3.9a3 3 0 0 1-.7-.2c-.4-.1-.4 0-.2 1l.6 2.9c.2 1 .5 1.7.6 1.7.1 0 .3-.7.4-1.5zm-175.2.2-1.9-2.3a84.3 84.3 0 0 1-4.7-6.2c-.2-.2-1.5-.4-4.5-.5h-4.2l3.6 4c3.4 4 3.7 4.2 4.8 4.2.6 0 1.2.1 1.3.3 0 .1.5.2 1 .1.4 0 1.6 0 2.6.3 2.2.6 2.3.6 2 .1zm186.1-.2c1-.2 2-.3 2.4-.2.3.1.8 0 .9-.1 0-.2.7-.3 1.3-.3 1 0 1.3-.2 2.3-1.4l3.7-4.3 2.5-2.8-2.8.2-4.2.2c-1.4 0-1.4 0-3.2 2.3l-3.6 4.7c-1.3 1.5-1.8 2.3-1.4 2.2l2.1-.5zm-104.7-4.2.6-3.6c.1-.7-.2-1-3.8-3.2l-4.1-2.4c-.1.1-.3 2.2-.3 4.6l-.1 4.5 3.5 2.3 3.6 2.3v-.8l.6-3.7zm25.4 1.9 3.3-2.2v-3.2c-.1-3.2-.4-5.8-.6-5.8l-2.1 1.3-4 2.5c-1.6 1-1.8 1.2-1.7 1.9.5 2 1.1 5.7 1.1 6.8 0 1 0 1.3.4 1.1l3.6-2.4zm-120 0-3.4-3.8-2.3-2.6h-9.3l4 3.9 3.8 3.9h8.4l-1.2-1.3zM331.4 80l3.9-3.9H326l-1.7 1.9-3.4 3.9-1.8 2h8.4l3.9-3.9zM194 76.5v-5.3l-4.8-3.3c-6.3-4.1-8.1-5.2-7.8-4.5 1 2.5 2.1 7.8 2.3 10.4v1.4l2-1a32 32 0 0 1 3-1.4c1-.3 1.3-.3 1.8.2.7.6.8 1.8.1 4.8l-.3 2.3a58 58 0 0 0 3.6 1.7v-5.3zm46 3.9c.2-.1.3-.5.2-1.3-1-4.9-1-5.8-.1-5.6.2 0 .3-.2.3-.4 0-.7 1.3-.4 4 .9l2.5 1.2v-1.3a40 40 0 0 1 2.2-10.7l-1.4.7c-3.3 1.9-5 3-8 5.1l-3.1 2.3v10.4l1.5-.6 1.9-.7zM160 76.8c1.6-4 1.6-4.2-.4-9.3-1.3-3-1.9-4.3-2-4-.2.3-.4 2.7-.4 5.4-.2 4.6 0 6.4.9 10 .4 1.7.6 1.5 2-2zm112.8-.3c.6-2.3.7-11.7.2-13-.3-.6-.3-.6-.8.7-.4.6-.8 1.8-1.1 2.5-.4.7-.6 1.4-.6 1.5 0 .2-.2.8-.6 1.5-1 2-1 2.9-.1 5.4l1.4 3.8.6 1.5.3-1 .7-2.9zm-85.5 1.8c.3-1.7.3-1.9.2-1.8-1.8.8-3.1 1.5-3.1 1.7 0 .1 1.6.7 2.5.9 0 0 .3-.4.3-.8zm58 .3c.9-.3.8-.5-.8-1.2-1.6-.9-1.6-.9-1.6 0 0 1.3.3 1.8 1 1.5l1.3-.3zm-65-4.6-.5-3.9-1.4-5.4c-.2-.3-.8.3-2.1 2.1-3 4-3 4-1.7 6.7 1 1.9 1.3 2.3 2 2.5.4 0 1.5.4 2.4.7l1.7.5-.4-3.2zm72.8 2.2c1.6-.5 1.6-.5 2.6-2.7a14 14 0 0 0 1-2.7c0-.3-2.6-4.1-4-5.8l-.7-.8-.6 2.6a51 51 0 0 0-1.5 8l-.2 2.3.9-.2 2.5-.7zm-116.7-3.4.9-2.6-.6-.1c-1.3 0-2.3 3.2-1.6 5 .3.6.3.5 1.3-2.3zm17.4-1.9c0-4.7.2-7.2 1.3-11.3.3-1.4.8-2.5 1.3-3l.6-.7 2.7 1.6 4.3 2.9a53 53 0 0 1 7.5 7.7c0 .2.4-.2.9-1 .4-.7 1.8-2.3 3-3.6 1.1-1.3 2-2.4 1.9-2.5a136.3 136.3 0 0 0-21.5-7.1c-.5 0-2.9 4.1-5.6 9.8-2 4-4.5 10-4.5 10.5 0 .1.8.3 1.9.3l2 .3 1.9.3c.8 0 1.6.1 1.6.3.7.6.9-.2.7-4.5zM279.1 75l1.3-.2 2.4-.2 2.2-.1c0-1.3-8.9-19.3-10-20.6a108.4 108.4 0 0 0-18.8 6c-3.2 1.2-3.3 1.4-2.8 1.7.7.5 3.4 3.7 4.7 5.6l.7 1.1 1.1-1.5c2.3-3.1 8-8 12-10l1.5-.8.6.7c.4.3.8 1 1 1.5a31.7 31.7 0 0 1 1.7 9.4c.2.3.3 3 0 3.2 0 0-.2 1.2-.2 2.5v2.2l.7-.2 1.9-.3zm16.4-1.5c0-1.8-.5-3-1.3-3.3-1-.3-1 0 .3 3.7l.7 1.3c.2 0 .3-.8.3-1.7zm-123.8.1a45 45 0 0 0-11.2-12.5c-.2 0 .2 1 .8 2.3l1.5 3.7L164 70c.6 1.4.9 1.6 3 2.6 2.2 1 4.5 2 5 2 .1 0 0-.5-.3-1zm91.4-.9c1.9-.9 3.1-1.6 3.2-2l2-5c2-4.3 2-4.3 1-3.8-1.4.9-5 4.3-7 6.6a24.5 24.5 0 0 0-3.7 5.9c0 .3 1.5-.2 4.5-1.7zM207 71.6a70.6 70.6 0 0 1 2.1-5.9c0-.2-.8-.8-1.7-1.3a75.4 75.4 0 0 1-7-4.5c-.2 0-.8 1.6-2.1 6.1-.6 1.8-.4 2.1 1.6 3.3l4.1 2.6c1.2.8 2.3 1.4 2.4 1.3l.6-1.6zm19.6.4 4-2.6 2.1-1.4-.2-1.1c-.4-2-2-7-2.3-7-.1 0-8.6 5.3-8.7 5.5-.1.1 0 .5.1.9l1.5 3.7c.6 1.7 1.2 3.1 1.3 3.1l2.2-1.1zm73-6.3 2.6-.5.5-1.6c.6-2.4.8-8.4.2-10.8-1-4.6-2.3-7.4-6.6-15A72 72 0 0 1 289 23l-2.6 6.3-2.5 6 .8.7c1 1 1.8 2.3 2.3 3.9.4 1.6.2 2.9-.8 4.9-.7 1.4-.7 1.5-.2 1.8.3.1 1.2 1 2 1.8 2.2 2 2.8 4.3 1.9 7l-.5 1.2.9.1c1.1.3 3.4 2.3 4 3.6.6 1.2.6 3.8 0 5.3l-.3 1.1 1.4-.3 4-.7zm-163.7-.5a8.3 8.3 0 0 1 0-4.3c.4-1.4 2.8-3.9 4.1-4.1l1-.2-.5-1.7c-.7-2.7-.2-4.5 1.8-6.6 1-.9 1.9-1.6 2.1-1.6.7 0 .6-.4-.2-1.7-.5-1-.6-1.6-.6-3.6 0-2.6.4-3.8 2-5.2l1-.9L144 29c-2.4-6-2.6-6.3-2.8-5.4a56 56 0 0 1-6.2 12.9 55 55 0 0 0-7.5 17.2c-.5 2.4-.2 7.3.4 9.6l.3 1.5 3.7.7 4 .7c.2 0 .2-.3 0-1zm5.3-3.8.7-1.6c0-.4-1.2-.2-2 .5-.6.6-.8 1-1 2.4 0 1 0 2 .2 2.5.1.8.2.8.8-.8l1.3-3zm150.5 2.2c0-2-.6-3.3-1.8-3.7-.6-.2-1.1-.3-1.2-.2l1 2.7a20 20 0 0 1 1.3 3c0 .2.1.2.4 0 .1-.2.3-1 .3-1.8zM212.2 60c1.2-2.3 1.8-4.2 1.6-5l-1.2-1a191.4 191.4 0 0 1-6.6-4l-1.9 2.8c-1.9 2.8-2.7 4.2-2.5 4.4l3 1.8 4.3 2.8c1.8 1 1.8 1.1 3.3-1.8zm16.5-2.7c.2 0 .2-.4 0-1-.5-1-4-6.4-4.3-6.4a57.2 57.2 0 0 0-7.7 5.5c-.2.8.4 2.1 2.3 5.7l1 1.7 4.2-2.7 4.5-2.8zM194.8 60c-.8-2.4-1.9-3.4-3.6-3.4-1.8 0-1.6.5 1 2.2l2.7 1.7V60zm44.2-1.7c1.4-.9 1.8-1.3 1.5-1.4-.5-.4-1.7-.4-2.6 0-.8.5-2.1 2.3-2.1 3 0 .4.4.2 3.2-1.6zm-41.6-4.9-1-8.5v-1l-.7 1-2 2.4c-1.8 1.9-2 2.4-1.8 4.1.2 1.9.2 1.9 2 2.9 1.4.8 3.4 3.2 3.6 4l.1-1c.1-.8 0-2.5-.2-3.9zm38.2 1.6 1.8-1.1c.9-.4 1-.7 1.2-2.3.2-1.8.2-2-.7-3l-2.1-2.7a6.4 6.4 0 0 0-1.5-1.6s-.3 1.1-.4 2.5a126.9 126.9 0 0 1-1 9.6l-.2 2.5 1-1.6c.5-.9 1.3-1.9 1.9-2.3zM145 53.4c1.5-3.3 2-4.9 1.7-4.9-.2 0-.3.1-.3.3 0 .1-.5.5-1 .7-.9.4-1.1.7-1.6 2-.3 1-.4 2-.3 3 .3 1.5.4 1.4 1.5-1zm142 .2c.1-2.4-1-4.2-2.4-4.2-.6 0-.6.4.7 3.1.4 1 1 2.2 1 2.6.3.7.3.7.5.1.2-.3.3-1 .3-1.6zm-101.8.7c-.4-1-1.3-2.1-2.2-2.5-1-.4-2.8-.3-3 .2a26 26 0 0 0 5.3 2.8l-.1-.5zm4-.6c.2-.5.1-.5-.3-.1-.6.4-.7 1-.1.8.2 0 .4-.4.5-.7zm58.5-.1 2.2-.9.6-.4c.2-.4.2-.5-.2-.6-1.5-.6-3.7.2-4.5 1.6-.7 1.5-.6 1.5 2 .3zm-43.9-5.2 1.3-1.5-.1-2.7c0-1.5-.1-4.2-.3-5.9l-.2-3.1-2.7 2.8-2.6 2.8.3 3.3a130 130 0 0 0 .9 8v1l1.1-1.6 2.3-3.1zm26.8.1.6-6 .2-1.9-2.5-2.5a26.2 26.2 0 0 0-2.7-2.5 60 60 0 0 0-.6 9V47l1.5 2c1 1 2 2.4 2.3 3l.6.9.6-4.3zm-41.3-.3c4-5.4 7.6-9.3 16.8-18.4 8-8 8.7-8.7 9.4-8.4a35 35 0 0 1 4 3.3c6 5.4 15 15.2 21 22.7l3.2 4.1 1.3-1.2c1.5-1.5 2.3-1.9 3.3-1.6l.8.2-.5-.9c-3.4-5.3-6.6-9-18.8-21.3a367.7 367.7 0 0 1-14.6-15.3c-2.1 2.7-7.4 8.5-14 15.2-4.7 4.7-9.7 10-11.1 11.6-2.7 3.1-7.7 9.6-7.7 10 0 0 .7.5 1.5.8a7 7 0 0 1 2.8 2.5l2.6-3.3zm24.3-1.7v-4.8l-3 3c-2.3 2.3-2.8 3-2.4 3.2l2.9 1.8 2.4 1.5.1-4.7zm7.1 2.4a10 10 0 0 0 1.9-1.3l-2.8-3-2.9-2.9v9.6l1-.6 2.8-1.8zm-45.2 1.2c0-.7-1.3-2.3-2.3-2.7-1.2-.5-3-.4-3.6.3-.4.3-.2.5 1 .9l2.8 1c1.5.7 2.1.8 2.1.5zm82.9-.9a13 13 0 0 0 2.9-1.3c0-.3-1.7-.9-2.5-.9-1.4 0-3.8 2-3.8 3 0 .4.2.4 3.4-.8zm-76-6c.6-1 .6-1 .1-2-1-2-2.7-4.3-4.4-5.8-3.7-3.6-7.9-5.4-18-8.2a72.4 72.4 0 0 1-15.8-5.6l2.5 6.2 2.5 6.2 1-.1c.4-.1 1 0 1 .2.1.1.4.2.6.1 1.4-.5 5.4 3.1 6 5.4l.3 1.4 1-.5c1.7-.7 3.4-.5 5 .4 1.2.9 2.6 2.3 3.5 3.7.5.7.5.7 1.2.2a4.8 4.8 0 0 1 4.2-.7c1.5.4 4.3 2.8 4.8 4.1l.4.9 1.7-2.5 2.4-3.4zm70.6 4.4c.3-.5 1.1-1.4 1.8-2 2.2-1.9 4.8-2.2 6.9-.9.7.5.8.5 1.2-.3.6-1.2 3-3.3 4.3-3.9 1.4-.5 3.2-.5 4.2 0 .9.4.9.4 1.4-1 1-3 4.1-5.4 6.9-5.5h1.5l1.3-3.2 3.7-9.2-1 .5c-1.4.8-6.2 2.7-8.9 3.5l-7.7 2.2c-11.4 3.2-15.2 5.4-18.8 10.7-1.1 1.6-2 3.1-2 3.3a60.5 60.5 0 0 1 4.6 6.7s.4-.4.6-.9zm-88.2-2.2a4.7 4.7 0 0 0-1.9-1.6l-1.6-1c-.2-.2-2.3.8-2.3 1.2l2.5 1.2c4.3 1.7 4.2 1.7 3.3.2zm104 0c1.6-.7 3-1.3 3-1.5l-.9-.4c-.5 0-1-.3-1-.4-.2-.2-.4-.2-.7 0l-1.7.7c-.6.3-1.4 1-1.7 1.5-.6 1-.8 1.5-.3 1.3l3.3-1.3zm14.9-1.9c.5-1.8.4-3.1-.4-4.8-.8-1.6-3-2-5.4-1-1 .4-1.4.9-1.8 2-.7 1.2-1 2.5-.5 2.5l2.2-1.4c2.7-2 2.6-2 3.5-1.3.5.5.7 1 .7 1.8 0 1.5.6 4.2 1 4l.7-1.8zm-135.2-1.1c.2-2.4.8-3.5 1.7-3.5.3 0 1 .5 1.8 1.1a19 19 0 0 0 2.2 1.7l.9.5v-.8c0-1.2-1.2-3.1-2.5-3.7-1.3-.7-3.4-.8-4.4-.1-1.4 1-2 4.4-1 6.6.6 1.5 1 1 1.3-1.8zm65.2-10.5.1-6-3.1 3.2-3.1 3 .3 5.6.4 5.4 2.7-2.6 2.7-2.7v-6zm9 4.1.3-4.2-3-3-3.1-3v6l.2 6.1 2.5 2.6 2.6 2.5.2-1.4.3-5.6z"/>
</svg>