<svg xmlns="http://www.w3.org/2000/svg" width="729.896" height="437.5"><text transform="translate(660.935 330.5)">
        <tspan x="-52.961" y="7" font-family="Verdana" font-size="20">(1, -1, -1)</tspan>
      </text><text transform="translate(76.991 111.5)">
        <tspan x="-33.013" y="6.5" font-family="Verdana" font-size="20">(-1, 1, 1)</tspan>
      </text><text transform="translate(80.991 408.5)">
        <tspan x="-42.095" y="7" font-family="Verdana" font-size="20">(-1, -1, 1)</tspan>
      </text><text transform="translate(512.976 408.5)">
        <tspan x="-47.002" y="7" font-family="Verdana" font-size="20">(1, -1, 1)</tspan>
      </text><text transform="translate(505.976 111)">
        <tspan x="-47.002" y="7" font-family="Verdana" font-size="20">(1, 1, 1)</tspan>
      </text><text transform="translate(660.935 29)">
        <tspan x="-52.961" y="7" font-family="Verdana" font-size="20">(1, 1, -1)</tspan>
      </text><text transform="translate(217.974 29.5)">
        <tspan x="-42.095" y="6.5" font-family="Verdana" font-size="20">(-1, 1, -1)</tspan>
      </text><text transform="translate(352.983 349.5)">
        <tspan x="-60.991" y="7" font-family="Verdana" font-size="20">(-1, -1, -1)</tspan>
      </text><path d="M300.474 36.75a5.5 5.5 0 1 1 0-11 5.5 5.5 0 0 1 0 11z"/><path d="M300.474 36.75a5.5 5.5 0 1 1 0-11 5.5 5.5 0 0 1 0 11z" stroke="#000" stroke-width="2.5" fill="none"/><path d="M150.474 111.75a5.5 5.5 0 1 1 0-11 5.5 5.5 0 0 1 0 11z"/><path d="M150.474 111.75a5.5 5.5 0 1 1 0-11 5.5 5.5 0 0 1 0 11z" stroke="#000" stroke-width="2.5" fill="none"/><path d="M150.474 411.75a5.5 5.5 0 1 1 0-11 5.5 5.5 0 0 1 0 11z"/><path d="M150.474 411.75a5.5 5.5 0 1 1 0-11 5.5 5.5 0 0 1 0 11z" stroke="#000" stroke-width="2.5" fill="none"/><path d="M450.474 411.75a5.5 5.5 0 1 1 0-11 5.5 5.5 0 0 1 0 11z"/><path d="M450.474 411.75a5.5 5.5 0 1 1 0-11 5.5 5.5 0 0 1 0 11z" stroke="#000" stroke-width="2.5" fill="none"/><path d="M450.474 111.75a5.5 5.5 0 1 1 0-11 5.5 5.5 0 0 1 0 11z"/><path d="M450.474 111.75a5.5 5.5 0 1 1 0-11 5.5 5.5 0 0 1 0 11z" stroke="#000" stroke-width="2.5" fill="none"/><path d="M599.474 335.75a5.5 5.5 0 1 1 0-11 5.5 5.5 0 0 1 0 11z"/><path d="M599.474 335.75a5.5 5.5 0 1 1 0-11 5.5 5.5 0 0 1 0 11z" stroke="#000" stroke-width="2.5" fill="none"/><path d="M599.474 36.75a5.5 5.5 0 1 1 0-11 5.5 5.5 0 0 1 0 11z"/><path d="M599.474 36.75a5.5 5.5 0 1 1 0-11 5.5 5.5 0 0 1 0 11z" stroke="#000" stroke-width="2.5" fill="none"/><path d="M300.474 335.75a5.5 5.5 0 1 1 0-11 5.5 5.5 0 0 1 0 11z" fill="#7F7E80"/><path d="M300.474 335.75a5.5 5.5 0 1 1 0-11 5.5 5.5 0 0 1 0 11z" stroke="#7F7E80" stroke-width="2.5" fill="none"/><g stroke="#000" stroke-width="2.5" stroke-linejoin="round" fill="none"><path d="M149.974 406.25v-300l150-75h300v300l-150 75z" stroke-linecap="round"/><path d="M149.974 106.25h300l150-75"/><path d="M449.974 106.25v300" stroke-linecap="round"/><path d="m149.974 406.25 150-75v-300m0 300h300" stroke-dasharray="5,10" stroke-linecap="round"/></g></svg>