<svg height="487.4" width="487.4" xmlns="http://www.w3.org/2000/svg" xmlns:xlink="http://www.w3.org/1999/xlink"><linearGradient id="a"><stop offset="0" stop-color="#f4fff3"/><stop offset="1" stop-color="#5ebf53"/></linearGradient><radialGradient id="b" cx="244.303" cy="214.179" gradientTransform="matrix(1.63 -.374 0 1 -174.123 92.913)" gradientUnits="userSpaceOnUse" r="149.976" xlink:href="#a"/><radialGradient id="c" cx="292.081" cy="268.296" gradientUnits="userSpaceOnUse" r="142.239"><stop offset="0" stop-color="#ffeede"/><stop offset="1" stop-color="#ff8e52"/></radialGradient><radialGradient id="d" cx="244.303" cy="214.178" gradientTransform="matrix(1.63 -.374 0 1 -174.123 92.913)" gradientUnits="userSpaceOnUse" r="149.977" xlink:href="#a"/><radialGradient id="e" cx="286.748" cy="177.629" gradientUnits="userSpaceOnUse" r="204.831"><stop offset="0" stop-color="#deeeff"/><stop offset="1" stop-color="#3374ff"/></radialGradient><radialGradient id="f" cx="244.303" cy="214.177" gradientTransform="matrix(1.63 -.374 0 1 -174.123 92.913)" gradientUnits="userSpaceOnUse" r="149.977" xlink:href="#a"/><radialGradient id="g" cx="244.303" cy="214.178" gradientTransform="matrix(1.63 -.374 0 1 -174.123 92.913)" gradientUnits="userSpaceOnUse" r="149.976" xlink:href="#a"/><path d="m241.5 245 92.2-54.7v141.8l-92.2 54.7z" fill="url(#b)" opacity=".7"/><path d="m241.5 363.1 92.2-54.7m-92.2 31.2 92.2-54.7m-92.2 31 92.2-54.7m-92.2 31 92.2-54.7m-92.2 31.2 92.2-54.7m-92.2 172.8 92.2-54.7m-15.3-132.6v141.7M303 208.6v141.7m-15.4-132.6v141.7m-15.4-132.6v141.7m-15.4-132.6v141.8m76.9-187.4v141.8" fill="none" opacity=".7" stroke="#000" stroke-width=".25"/><path d="M192 190.3h141.7L241.5 245H99.7z" fill="url(#c)" opacity=".7"/><path d="M192 190.3h141.7m-218.5 45.6h141.7m-126.4-9.1h141.7m-126.3-9.1h141.7m-126.3-9.2H303m-126.4-9.1h141.7M192 190.3 99.7 245m210.4-54.7L217.9 245m68.6-54.7L194.2 245m68.7-54.7L170.6 245m68.7-54.7L147 245m68.6-54.7L123.3 245" fill="none" opacity=".7" stroke="#000" stroke-width=".25"/><path d="m241.5 103.3 92.2-54.7v141.7L241.5 245z" fill="url(#d)" opacity=".7"/><path d="m241.5 103.3 92.2-54.7m-92.2 172.8 92.2-54.7m-92.2 31.1 92.2-54.6m-92.2 31 92.2-54.7m-92.2 31 92.2-54.7M241.5 127l92.2-54.7m-15.3-14.6v141.8M303 66.9v141.7M287.6 76v141.7M272.2 85.1v141.7M256.8 94.2v141.7m76.9-187.3v141.7" fill="none" opacity=".7" stroke="#000" stroke-width=".25"/><path d="M333.7 190.3h141.8L383.2 245H241.5z" fill="url(#c)" opacity=".7"/><path d="M333.7 190.3h141.8m-218.6 45.6h141.7m-126.4-9.1h141.7m-126.3-9.1h141.7M303 208.5h141.7m-126.4-9.1H460m-8.1-9.1L359.6 245m68.6-54.7L335.9 245m68.7-54.7L312.3 245m68.7-54.7L288.7 245m68.6-54.7L265.1 245m118.1 0 92.3-54.7" fill="none" opacity=".7" stroke="#000" stroke-width=".25"/><path d="m241.5 245 158.1-93.783" fill="none" stroke="#000" stroke-width="4"/><path d="M404.7 144.133c-5.667 1.417-9.633 1.984-14.45 2.692l8.783 14.733c.992-1.416 5.242-7.083 9.209-11.333 4.25-4.675 8.358-8.5 11.05-10.625-3.259 1.275-8.5 2.975-14.592 4.533z"/><path d="M241.5 103.3h141.7V245H241.5z" fill="url(#e)" opacity=".7"/><path d="M241.5 103.3h141.7M241.5 221.4h141.7m-141.7-23.6h141.7m-141.7-23.6h141.7m-141.7-23.7h141.7M241.5 127h141.7m-23.6-23.7V245m-23.7-141.7V245m-23.6-141.7V245m-23.6-141.7V245m-23.6-141.7V245m118.1-141.7V245" fill="none" opacity=".7" stroke="#000" stroke-width=".25"/><path d="M99.7 103.3h141.7V245H99.7z" fill="url(#e)" opacity=".7"/><path d="M99.7 103.3h141.8M99.7 221.4h141.8M99.7 197.8h141.8M99.7 174.2h141.8M99.7 150.5h141.8M99.7 127h141.8M99.7 103.3V245m118.2-141.7V245m-23.7-141.7V245m-23.6-141.7V245M147 103.3V245m-23.7-141.7V245" fill="none" opacity=".7" stroke="#000" stroke-width=".25"/><path d="M99.7 245h141.7v141.7H99.7z" fill="url(#e)" opacity=".7"/><path d="M99.7 363.1h141.8M99.7 339.6h141.8M99.7 315.9h141.8M99.7 292.2h141.8M99.7 268.7h141.8M99.7 386.8h141.8M99.7 245v141.8M217.9 245v141.8M194.2 245v141.8M170.6 245v141.8M147 245v141.8M123.3 245v141.8" fill="none" opacity=".7" stroke="#000" stroke-width=".25"/><path d="M99.7 245h141.8l-92.3 54.8H7.5z" fill="url(#c)" opacity=".7"/><path d="M22.9 290.6h141.7m-126.4-9.1H180m-126.4-9.1h141.8M69 263.3h141.8m-126.5-9.1h141.8M7.5 299.8h141.7M99.7 245 7.5 299.8M217.9 245l-92.3 54.8m68.6-54.8L102 299.8m68.6-54.8-92.2 54.8M147 245l-92.2 54.8m68.5-54.8-92.2 54.8" fill="none" opacity=".7" stroke="#000" stroke-width=".25"/><path d="M241.5 245h141.7v141.7H241.5z" fill="url(#e)" opacity=".7"/><path d="M241.5 363.1h141.7m-141.7-23.5h141.7m-141.7-23.7h141.7m-141.7-23.7h141.7m-141.7-23.5h141.7M241.5 386.8h141.7M359.6 245v141.8M335.9 245v141.8M312.3 245v141.8M288.7 245v141.8M265.1 245v141.8M383.2 245v141.8" fill="none" opacity=".7" stroke="#000" stroke-width=".25"/><path d="M241.5 245H77.2" fill="none" stroke="#000" stroke-width="4"/><path d="M71.5 247.5c4 1.2 6.5 2.3 9.7 3.6V239c-1.1.5-5.8 2.4-9.7 3.6-4.2 1.3-8.1 2.2-10.6 2.5 2.5.2 6.4 1.1 10.6 2.4z"/><path d="m149.2 158 92.3-54.7V245l-92.3 54.7z" fill="url(#f)" opacity=".7"/><path d="m149.2 158 92.3-54.7M149.2 276l92.3-54.6m-92.3 31.1 92.3-54.7m-92.3 31 92.3-54.6m-92.3 31 92.3-54.7m-92.3 31.1 92.3-54.6m-92.3 31v141.7m76.9-187.3v141.7m-15.4-132.6v141.8m-15.3-132.7v141.8M180 139.7v141.8m-15.4-132.6v141.7" fill="none" opacity=".7" stroke="#000" stroke-width=".25"/><path d="m149.2 299.7 92.3-54.7v141.8l-92.3 54.6z" fill="url(#g)" opacity=".7"/><path d="m149.2 417.8 92.3-54.7m-92.3 31.1 92.3-54.6m-92.3 31 92.3-54.7m-92.3 31 92.3-54.7m-92.3 31.2 92.3-54.7m-92.3 172.7 92.3-54.6m-92.3-87.1v141.7m76.9-187.3v141.8m-15.4-132.6V405m-15.3-132.6v141.7M180 281.5v141.7m-15.4-132.6v141.7" fill="none" opacity=".7" stroke="#000" stroke-width=".25"/><path d="M241.5 245v164.8" fill="none" stroke="#000" stroke-width="4"/><path d="M243.9 415.4c1.2-4 2.3-6.5 3.6-9.7h-12.1c.5 1.1 2.4 5.8 3.6 9.7 1.3 4.2 2.2 8.1 2.5 10.6.3-2.5 1.2-6.3 2.4-10.6z"/><path d="M241.5 245h141.7L291 299.8H149.2z" fill="url(#c)" opacity=".7"/><path d="M164.6 290.6h141.8M180 281.5h141.7m-126.3-9.1h141.7m-126.3-9.1h141.7m-126.4-9.1h141.7m-218.6 45.6H291m68.6-54.8-92.2 54.8m68.5-54.8-92.2 54.8m68.6-54.8-92.2 54.8m68.6-54.8-92.2 54.8m68.6-54.8-92.3 54.8m118.2 0 92.2-54.8" fill="none" opacity=".7" stroke="#000" stroke-width=".25"/><path d="M241.5 245V80.3" fill="none" stroke="#000" stroke-width="4"/><path d="M239 74.6c-1.2 4-2.3 6.5-3.6 9.7h12.1c-.5-1.1-2.4-5.8-3.6-9.7-1.3-4.2-2.2-8.1-2.5-10.6-.2 2.5-1.1 6.4-2.4 10.6z"/><path d="M241.5 245h164.2" fill="none" stroke="#000" stroke-width="4"/><path d="M411.4 242.6c-4-1.2-6.5-2.3-9.7-3.6v12.1c1.1-.5 5.8-2.4 9.7-3.6 4.2-1.3 8.1-2.2 10.6-2.5-2.5-.3-6.3-1.1-10.6-2.4z"/><path d="M241.5 245 87.9 336.114" fill="none" stroke="#000" stroke-width="4"/><path d="M82.945 342.996c5.506-1.377 9.359-1.927 14.039-2.615l-8.533-14.314c-.964 1.376-5.093 6.881-8.947 11.01-4.129 4.542-8.12 8.258-10.735 10.323 3.028-1.239 8.258-2.89 14.176-4.404z"/><text transform="translate(445.988 242.796)"><tspan font-family="Helvetica" font-size="36" x="-19.512" y="12.5">+x</tspan></text><text transform="translate(243.912 41.5)"><tspan font-family="Helvetica" font-size="36" x="-19.512" y="12.5">+y</tspan></text><text transform="rotate(2.56 -8528.099 1376.052)"><tspan font-family="Helvetica" font-size="36" x="-19.512" y="12.5">+z</tspan></text><text transform="translate(33.488 242.796)"><tspan font-family="Helvetica" font-size="36" x="-10.477" y="12.5">-x</tspan></text><text transform="translate(243.7 441.5)"><tspan font-family="Helvetica" font-size="36" x="-19.512" y="12.5">-y</tspan></text><text transform="rotate(2.56 -3141.888 11070.472)"><tspan font-family="Helvetica" font-size="36" x="-19.512" y="12.5">-z</tspan></text></svg>