<svg xmlns="http://www.w3.org/2000/svg" height="1104.573" stroke-miterlimit="10" style="fill-rule:nonzero;clip-rule:evenodd;stroke-linecap:round;stroke-linejoin:round" width="2053.061" viewBox="0 0 1539.99 828.533" xml:space="preserve"><path fill="#fff" d="M0 0h1539.99v828.533H0V0Z"/><path fill="#ddd" d="M319.832 160h884.338c9.85 0 17.83 7.841 17.83 17.513v484.974c0 9.672-7.98 17.513-17.83 17.513H319.832c-9.848 0-17.832-7.841-17.832-17.513V177.513c0-9.672 7.984-17.513 17.832-17.513Z"/><path fill="#a4b2da" d="M322 180h880v478.543H322V180Z"/><text font-family="Helvetica" font-size="33" transform="translate(20 158.294)"><tspan x="34.762" y="32" textLength="185.238">screen (0, 0)</tspan></text><path fill="#7f19fd" fill-opacity=".5" d="M942 380H382.047V260H942"/><path fill="#ddd" d="M373.629 380h576.742c6.422 0 11.629 3.92 11.629 8.756v242.488c0 4.836-5.207 8.756-11.629 8.756H373.629c-6.422 0-11.629-3.92-11.629-8.756V388.756c0-4.836 5.207-8.756 11.629-8.756Z"/><path fill="#e94420" d="M376.795 402.088a7.087 7.087 0 1 1 14.175-.001 7.087 7.087 0 0 1-14.175.001Z"/><path fill="#ef9f46" d="M402.31 402.088a7.087 7.087 0 1 1 14.175-.001 7.087 7.087 0 0 1-14.175.001Z"/><path fill="#68c40c" d="M427.825 402.088a7.087 7.087 0 1 1 14.175-.001 7.087 7.087 0 0 1-14.175.001Z"/><path fill="#7f19fd" d="M942 620H382.047V420H942"/><path fill="#dafcef" fill-opacity=".5" d="M502 340h400v40H502v-40Z"/><path fill="#dafcef" fill-opacity=".9" d="M502 420h400v40H502v-40Z"/><path fill="none" stroke="#000" stroke-dasharray="2" stroke-linecap="butt" stroke-width="2" d="M320.935 166.65V195m-14.175-14.175H335"/><path fill="none" stroke="#000" stroke-linecap="butt" stroke-width="2" d="M310.993 180.825H242"/><path d="m307.993 187.825 12-7-12-7v14Z"/><text font-family="Helvetica" font-size="33" transform="translate(20 235.294)"><tspan x="60.398" y="32" textLength="159.602">page (0, 0)</tspan></text><text font-family="Helvetica" font-size="33" transform="translate(1262 280)"><tspan x="0" y="32" textLength="203.656">Page content </tspan> <tspan x="0" y="72" textLength="275.15">scrolled outside of </tspan> <tspan x="0" y="112" textLength="177.923">the viewport</tspan></text><path fill="none" stroke="#000" stroke-dasharray="2" stroke-linecap="butt" stroke-width="2" d="M380.582 243v33.35M362 259.675h37.019"/><path fill="none" stroke="#000" stroke-linecap="butt" stroke-width="2" d="M370.994 260H242"/><path d="m367.994 267 12-7-12-7v14Z"/><text font-family="Helvetica" font-size="33" transform="translate(21 395.587)"><tspan x="10.93" y="32" textLength="209.07">viewport (0, 0)</tspan></text><path fill="none" stroke="#000" stroke-dasharray="2" stroke-linecap="butt" stroke-width="2" d="M381.935 406v28.35M1002 260v120m-634.24 40.175H396M982 260h20m-20 120h20m0-60h240"/><path fill="none" stroke="#000" stroke-linecap="butt" stroke-width="2" d="M370.994 420.175H242"/><path d="m367.994 427.175 12-7-12-7v14Z"/></svg>