<svg xmlns="http://www.w3.org/2000/svg" width="750.6" height="504" viewBox="969.4 648 750.6 504"><defs><marker id="a" stroke-linejoin="miter" stroke-miterlimit="10" color="#000" markerHeight="8" markerUnits="strokeWidth" markerWidth="7" orient="auto" overflow="visible" viewBox="-1 -4 7 8"><path fill="none" stroke="currentColor" d="M0 0h4.8m0 3v-6M0 1.2 4.2 0 0-1.2"/></marker><marker id="b" stroke-linejoin="miter" stroke-miterlimit="10" color="#000" markerHeight="8" markerUnits="strokeWidth" markerWidth="7" orient="auto" overflow="visible" viewBox="-6 -4 7 8"><path fill="none" stroke="currentColor" d="M0 0h-4.8m0-3v6M0-1.2-4.2 0 0 1.2"/></marker></defs><g fill="none"><path fill="#fff" d="M969.4 648H1720v504H969.4z"/><path fill="#666" d="M992 736h320v360H992z"/><path stroke="#000" stroke-linecap="round" stroke-linejoin="round" d="M992 736h320v360H992z"/><text fill="#ffffd1" transform="translate(997 899)"><tspan x="91.733" y="28" font-family="Verdana" font-size="28" font-weight="700">Left Eye</tspan></text><path fill="#666" d="M1312 736h320v360h-320z"/><path stroke="#000" stroke-linecap="round" stroke-linejoin="round" d="M1312 736h320v360h-320z"/><text fill="#ffffd1" transform="translate(1317 899)"><tspan x="80.365" y="28" font-family="Verdana" font-size="28" font-weight="700">Right Eye</tspan></text><path stroke="#ebebeb" stroke-linecap="round" stroke-width="3" d="M1312 736v360"/><text fill="#ebebeb" transform="translate(1000.212 741)"><tspan x="0" y="16" font-family="Verdana" font-size="16" font-weight="700">(0, 0)</tspan></text><text fill="#ebebeb" transform="translate(1203.75 1069)"><tspan x="0" y="16" font-family="Verdana" font-size="16" font-weight="700">(639, 719)</tspan></text><text fill="#ebebeb" transform="translate(1512.375 1069)"><tspan x="0" y="16" font-family="Verdana" font-size="16" font-weight="700">(1279, 719)</tspan></text><text fill="#ebebeb" transform="translate(1325 741)"><tspan x="0" y="16" font-family="Verdana" font-size="16" font-weight="700">(640, 0)</tspan></text><path stroke="#000" stroke-linecap="round" stroke-width="2" d="m1312 1104-8 16h-304l-8-16"/><path fill="#fff" d="M1121.406 1104h61.188v32h-61.188z"/><text fill="#000" transform="translate(1126.406 1109)"><tspan x="0" y="18" font-family="Verdana" font-size="18" font-weight="700">1280</tspan></text><path stroke="#000" stroke-linecap="round" stroke-width="2" d="m1632 1104-8 16h-304l-8-16"/><path fill="#fff" d="M1441.406 1104h61.188v32h-61.188z"/><text fill="#000" transform="translate(1446.406 1109)"><tspan x="0" y="18" font-family="Verdana" font-size="18" font-weight="700">1280</tspan></text><path stroke="#ebebeb" stroke-linecap="round" stroke-width="3" d="M1312 736v360"/><path stroke="#000" stroke-linecap="round" stroke-width="2" marker-end="url(#a)" marker-start="url(#b)" d="M1001.6 704h620.8"/><path fill="#fff" d="M1275.711 687h66.875v34h-66.875z"/><text fill="#000" transform="translate(1280.711 692)"><tspan x="0" y="20" font-family="Verdana" font-size="20" font-weight="700">1280</tspan></text><text fill="#000" transform="translate(1235.2 669)"><tspan x="0" y="15" font-family="Fira Mono for Powerline" font-size="16" font-weight="400">framebufferWidth</tspan></text><path stroke="#000" stroke-linecap="round" stroke-width="2" marker-end="url(#a)" marker-start="url(#b)" d="M1664 745.6v332.8"/><path fill="#fff" d="M1647 885.672h34v52.656h-34z"/><text fill="#000" transform="rotate(90 392.664 1283.336)"><tspan x="0" y="20" font-family="Verdana" font-size="20" font-weight="700">720</tspan></text><text fill="#000" transform="rotate(90 434.3 1264.7)"><tspan x="0" y="15" font-family="Fira Mono for Powerline" font-size="16" font-weight="400">framebufferHeight</tspan></text></g></svg>