<svg xmlns="http://www.w3.org/2000/svg" width="750.6" height="504" viewBox="233.4 104 750.6 504"><defs><marker id="a" stroke-linejoin="miter" stroke-miterlimit="10" color="#000" markerHeight="8" markerUnits="strokeWidth" markerWidth="7" orient="auto" overflow="visible" viewBox="-1 -4 7 8"><path fill="none" stroke="currentColor" d="M0 0h4.8m0 3v-6M0 1.2 4.2 0 0-1.2"/></marker><marker id="b" stroke-linejoin="miter" stroke-miterlimit="10" color="#000" markerHeight="8" markerUnits="strokeWidth" markerWidth="7" orient="auto" overflow="visible" viewBox="-6 -4 7 8"><path fill="none" stroke="currentColor" d="M0 0h-4.8m0-3v6M0-1.2-4.2 0 0 1.2"/></marker></defs><g fill="none"><path fill="#fff" d="M233.4 104H984v504H233.4z"/><path fill="#666" d="M256 192h320v360H256z"/><path stroke="#000" stroke-linecap="round" stroke-linejoin="round" d="M256 192h320v360H256z"/><text fill="#ffffd1" transform="translate(261 506)"><tspan x="91.733" y="28" font-family="Verdana" font-size="28" font-weight="700">Left Eye</tspan></text><path fill="#666" d="M576 192h320v360H576z"/><path stroke="#000" stroke-linecap="round" stroke-linejoin="round" d="M576 192h320v360H576z"/><text fill="#ffffd1" transform="translate(581 506)"><tspan x="80.365" y="28" font-family="Verdana" font-size="28" font-weight="700">Right Eye</tspan></text><path stroke="#000" stroke-linecap="round" stroke-width="2" d="m576 560-8 16H264l-8-16"/><path fill="#fff" d="M385.406 560h61.188v32h-61.188z"/><text fill="#000" transform="translate(390.406 565)"><tspan x="0" y="18" font-family="Verdana" font-size="18" font-weight="700">1280</tspan></text><path stroke="#000" stroke-linecap="round" stroke-width="2" d="m896 560-8 16H584l-8-16"/><path fill="#fff" d="M705.406 560h61.188v32h-61.188z"/><text fill="#000" transform="translate(710.406 565)"><tspan x="0" y="18" font-family="Verdana" font-size="18" font-weight="700">1280</tspan></text><path stroke="#ebebeb" stroke-linecap="round" stroke-width="3" d="M576 192v360"/><path stroke="#000" stroke-linecap="round" stroke-width="2" marker-end="url(#a)" marker-start="url(#b)" d="M265.6 160h620.8"/><path fill="#fff" d="M539.711 143h66.875v34h-66.875z"/><text fill="#000" transform="translate(544.71 148)"><tspan x="0" y="20" font-family="Verdana" font-size="20" font-weight="700">2560</tspan></text><text fill="#000" transform="translate(499.2 125)"><tspan x="0" y="15" font-family="Fira Mono for Powerline" font-size="16" font-weight="400">framebufferWidth</tspan></text><path stroke="#000" stroke-linecap="round" stroke-width="2" marker-end="url(#a)" marker-start="url(#b)" d="M928 201.6v332.8"/><path fill="#fff" d="M911 334.563h34v66.875h-34z"/><text fill="#000" transform="rotate(90 300.219 639.781)"><tspan x="0" y="20" font-family="Verdana" font-size="20" font-weight="700">1440</tspan></text><text fill="#000" transform="rotate(90 338.3 624.7)"><tspan x="0" y="15" font-family="Fira Mono for Powerline" font-size="16" font-weight="400">framebufferHeight</tspan></text></g></svg>