<svg xmlns="http://www.w3.org/2000/svg" viewBox="969.4 648 750.6 504" width="750.6" height="504"><defs><marker orient="auto" overflow="visible" markerUnits="strokeWidth" id="a" stroke-linejoin="miter" stroke-miterlimit="10" viewBox="-1 -4 7 8" markerWidth="7" markerHeight="8" color="#000"><path d="M0 0h4.8m0 3v-6M0 1.2 4.2 0 0-1.2" fill="none" stroke="currentColor"/></marker><marker orient="auto" overflow="visible" markerUnits="strokeWidth" id="b" stroke-linejoin="miter" stroke-miterlimit="10" viewBox="-6 -4 7 8" markerWidth="7" markerHeight="8" color="#000"><path d="M0 0h-4.8m0-3v6M0-1.2-4.2 0 0 1.2" fill="none" stroke="currentColor"/></marker></defs><g fill="none"><path fill="#fff" d="M969.4 648H1720v504H969.4z"/><path fill="#666" d="M992 736h320v360H992z"/><path stroke="#000" stroke-linecap="round" stroke-linejoin="round" d="M992 736h320v360H992z"/><text transform="translate(997 899)" fill="#ffffd1">
              <tspan font-family="Verdana" font-size="28" font-weight="700" x="91.733" y="28">Left Eye</tspan>
            </text><path fill="#666" d="M1312 736h320v360h-320z"/><path stroke="#000" stroke-linecap="round" stroke-linejoin="round" d="M1312 736h320v360h-320z"/><text transform="translate(1317 899)" fill="#ffffd1">
              <tspan font-family="Verdana" font-size="28" font-weight="700" x="80.365" y="28">Right Eye</tspan>
            </text><path stroke="#ebebeb" stroke-linecap="round" stroke-width="3" d="M1312 736v360"/><text transform="translate(1000.212 741)" fill="#ebebeb">
            <tspan font-family="Verdana" font-size="16" font-weight="700" x="0" y="16">(0, 0)</tspan>
          </text><text transform="translate(1203.75 1069)" fill="#ebebeb">
            <tspan font-family="Verdana" font-size="16" font-weight="700" x="0" y="16">(639, 719)</tspan>
          </text><text transform="translate(1512.375 1069)" fill="#ebebeb">
            <tspan font-family="Verdana" font-size="16" font-weight="700" x="0" y="16">(1279, 719)</tspan>
          </text><text transform="translate(1325 741)" fill="#ebebeb">
            <tspan font-family="Verdana" font-size="16" font-weight="700" x="0" y="16">(640, 0)</tspan>
          </text><path d="m1312 1104-8 16h-304l-8-16" stroke="#000" stroke-linecap="round" stroke-width="2"/><path fill="#fff" d="M1121.406 1104h61.188v32h-61.188z"/><text transform="translate(1126.406 1109)" fill="#000">
            <tspan font-family="Verdana" font-size="18" font-weight="700" x="0" y="18">1280</tspan>
          </text><path d="m1632 1104-8 16h-304l-8-16" stroke="#000" stroke-linecap="round" stroke-width="2"/><path fill="#fff" d="M1441.406 1104h61.188v32h-61.188z"/><text transform="translate(1446.406 1109)" fill="#000">
            <tspan font-family="Verdana" font-size="18" font-weight="700" x="0" y="18">1280</tspan>
          </text><path stroke="#ebebeb" stroke-linecap="round" stroke-width="3" d="M1312 736v360"/><path marker-end="url(#a)" marker-start="url(#b)" stroke="#000" stroke-linecap="round" stroke-width="2" d="M1001.6 704h620.8"/><path fill="#fff" d="M1275.711 687h66.875v34h-66.875z"/><text transform="translate(1280.711 692)" fill="#000">
              <tspan font-family="Verdana" font-size="20" font-weight="700" x="0" y="20">1280</tspan>
            </text><text transform="translate(1235.2 669)" fill="#000">
              <tspan font-family="Fira Mono for Powerline" font-size="16" font-weight="400" x="0" y="15">framebufferWidth</tspan>
            </text><path marker-end="url(#a)" marker-start="url(#b)" stroke="#000" stroke-linecap="round" stroke-width="2" d="M1664 745.6v332.8"/><path fill="#fff" d="M1647 885.672h34v52.656h-34z"/><text transform="rotate(90 392.664 1283.336)" fill="#000">
              <tspan font-family="Verdana" font-size="20" font-weight="700" x="0" y="20">720</tspan>
            </text><text transform="rotate(90 434.3 1264.7)" fill="#000">
              <tspan font-family="Fira Mono for Powerline" font-size="16" font-weight="400" x="0" y="15">framebufferHeight</tspan>
            </text></g></svg>