<svg width="1832" height="1808" viewBox="0 0 1374 1356" xmlns="http://www.w3.org/2000/svg" xmlns:xlink="http://www.w3.org/1999/xlink"><g class="graph"><path stroke="#000" d="M0 1356V0h1374v1356H0z"/><a xlink:href="http://k0s.org/mozilla/workflow.svg" xlink:title="Mozilla workflow chart. Graphviz dot source at http://k0s.org/mozilla/mozilla_workflow.gv.txt . Contact: jhammel@mozilla.com" transform="translate(4 1352)"><image xlink:href="images/mozilla.png" width="134" height="104" preserveAspectRatio="xMinYMin meet" x="623" y="-1342"/></a><g class="node" transform="translate(4 1352)"><circle cx="677" cy="-1130" fill="none" stroke="#00f" r="43.818"/><circle cx="677" cy="-1130" fill="none" stroke="#00f" r="47.776"/><text text-anchor="middle" x="677" y="-1125.4" font-family="Arial" font-size="14" fill="#fff">reporter</text></g><a xlink:href="http://bugzilla.mozilla.org" xlink:title="Bugzilla is a defect tracking system to: track bugs and code changes; communicate with teammates; submit and review patches; and manage quality assurance. Each code change should be accompanied by a bug filed at bugzilla.mozilla.org" transform="translate(4 1352)"><image xlink:href="images/bugzilla.png" width="144" height="142" preserveAspectRatio="xMinYMin meet" x="705" y="-1028"/><path fill="none" stroke="#00f" d="M849-1028H705v142h144v-142z"/><text text-anchor="middle" x="777" y="-952.4" font-family="Arial" font-size="14" fill="#fff">bugzilla</text></a><g class="edge"><path d="M684 270c2 12 5 25 10 36 3 5 6 10 9 16" fill="none" stroke="orange"/><path fill="orange" stroke="orange" d="M705.8 319.9L709 330l-8.8-5.9 5.6-4.2z"/><text text-anchor="middle" x="732" y="-1050.9" font-family="Times New Roman" font-size="14" fill="#fff" transform="translate(4 1352)">issue is filed</text></g><g class="node" transform="translate(4 1352)"><circle cx="625" cy="-775" fill="none" stroke="#00f" r="53.199"/><circle cx="625" cy="-775" fill="none" stroke="#00f" r="57.164"/><text text-anchor="middle" x="625" y="-770.4" font-family="Arial" font-size="14" fill="#fff">developer</text></g><g class="edge"><path d="M725 466c-10 12-20 25-30 36l-21 24" fill="none" stroke="orange"/><path fill="orange" stroke="orange" d="M676.219 528.779L667 534l3.951-9.831 5.268 4.61z"/><text text-anchor="middle" x="766" y="-854.9" font-family="Times New Roman" font-size="14" fill="#fff" transform="translate(4 1352)">issue is assigned</text></g><g class="node" transform="translate(4 1352)"><circle cx="498" cy="-775" fill="none" stroke="#00f" r="45.828"/><circle cx="498" cy="-775" fill="none" stroke="#00f" r="49.789"/><text text-anchor="middle" x="498" y="-770.4" font-family="Arial" font-size="14" fill="#fff">reviewer</text></g><g class="edge" transform="translate(4 1352)"><a xlink:title="foo"><path d="M705-895c-11 9-22 18-32 27-8 8-8 13-19 18-38 20-56-1-95 18-7 4-14 8-20 13" fill="none" stroke="orange"/><path fill="orange" stroke="orange" d="M541.546-816.596L532-812l4.596-9.546 4.95 4.95z"/></a><a xlink:title="fleem"><text text-anchor="middle" x="683" y="-854.9" font-family="Times New Roman" font-size="14" fill="#fff">r?</text></a></g><a xlink:href="http://tests.themasta.com/tinderboxpushlog/?tree=Firefox" xlink:title="The Tinderbox Push Log organizes build + test results by changeset" transform="translate(4 1352)"><image xlink:href="images/tbpl.png" width="118" height="57" preserveAspectRatio="xMinYMin meet" x="170" y="-65.5"/><path fill="none" stroke="#00f" d="M288-65.5H170v57h118v-57z"/><text text-anchor="middle" x="229" y="-32.4" font-family="Arial" font-size="14">TBPL</text></a><g class="edge"><path d="M709 397C516 403 4 433 4 577v625c0 36 93 72 160 93" fill="none" stroke="orange"/><path fill="orange" stroke="orange" d="M165.427 1291.774L174 1298l-10.584.479 2.011-6.705z"/><text text-anchor="middle" x="76" y="-410.9" font-family="Times New Roman" font-size="14" fill="#fff" transform="translate(4 1352)">failures are suggested</text></g><a xlink:href="https://developer.mozilla.org/en/Mozilla_automated_testing" xlink:title="Test harnesses run tests for regression, unit, integration, and performance" transform="translate(4 1352)"><path fill="none" stroke="#00f" d="M1013-19v-36h313v36h-313z"/><text text-anchor="middle" x="1052" y="-38.4" font-family="Arial" font-size="14" fill="#fff">mochitest</text><path fill="none" stroke="#00f" d="M1091-19v-36"/><text text-anchor="middle" x="1119" y="-38.4" font-family="Arial" font-size="14" fill="#fff">reftest</text><path fill="none" stroke="#00f" d="M1148-19v-36"/><text text-anchor="middle" x="1180" y="-38.4" font-family="Arial" font-size="14" fill="#fff">mozmill</text><path fill="none" stroke="#00f" d="M1212-19v-36"/><text text-anchor="middle" x="1246" y="-38.4" font-family="Arial" font-size="14" fill="#fff">xpcshell</text><path fill="none" stroke="#00f" d="M1280-19v-36"/><text text-anchor="middle" x="1303" y="-38.4" font-family="Arial" font-size="14" fill="#fff">talos</text></a><g class="edge" transform="translate(4 1352)"><a xlink:href="https://developer.mozilla.org/en/How_to_add_a_build-time_test" xlink:title="tests are written"><path d="M849-952c113 9 325 33 378 84 30 30 23 51 23 93v625c0 30 2 41-14 66-6 9-14 17-23 23" fill="none" stroke="orange"/><path fill="orange" stroke="orange" d="M1215.1-58.2L1205-55l5.9-8.8 4.2 5.6z"/></a><a xlink:href="https://developer.mozilla.org/en/How_to_add_a_build-time_test" xlink:title="Tests are written to ensure code that fixes a bug does not regress or cause performance issues."><text text-anchor="middle" x="1308" y="-410.9" font-family="Times New Roman" font-size="14" fill="#fff">tests are written</text></a></g><a xlink:href="http://developer.mozilla.org" xlink:title="The Mozilla Developer Center: Welcome to the Mozilla Developer Network!" transform="translate(4 1352)"><image xlink:href="images/mdn.png" width="58" height="66" preserveAspectRatio="xMinYMin meet" x="986" y="-808"/><path fill="none" stroke="#00f" d="M1044-808h-58v66h58v-66z"/></a><g class="edge"><path d="M853 449c26 18 56 37 84 53 16 10 24 7 39 18 6 5 11 10 16 16" fill="none" stroke="orange"/><path fill="orange" stroke="orange" d="M994.8 533.9L998 544l-8.8-5.9 5.6-4.2z"/><text text-anchor="middle" x="1003" y="-854.9" font-family="Times New Roman" font-size="14" fill="#fff" transform="translate(4 1352)">work is documented</text></g><a xlink:href="http://wiki.mozilla.org" xlink:title="wiki for mozilla users, using MediaWiki" transform="translate(4 1352)"><path fill="none" stroke="#00f" d="M1128-793h-66v36h66v-36z"/><text text-anchor="middle" x="1095" y="-770.4" font-family="Arial" font-size="14" fill="#fff">wiki.m.o</text></a><g class="edge"><path d="M853 408c77 16 193 44 224 76 16 17 21 44 23 65" fill="none" stroke="orange"/><path fill="orange" stroke="orange" d="M1103.5 549l-3.5 10-3.5-10h7z"/><text text-anchor="middle" x="1153" y="-854.9" font-family="Times New Roman" font-size="14" fill="#fff" transform="translate(4 1352)">work is documented</text></g><a xlink:href="https://developer.mozilla.org/en/Mercurial_Queues" xlink:title="The issue is developed in a copy of mozilla-central. This may be done in different ways, but many developers use patch queues optionally publishing them to the web." transform="translate(4 1352)"><path fill="none" stroke="#00f" d="M601-641h-76v36h76v-36z"/><text text-anchor="middle" x="563" y="-618.4" font-family="Arial" font-size="14" fill="#fff">user repo</text></a><g class="edge" transform="translate(4 1352)"><a xlink:href="https://developer.mozilla.org/en-US/docs/Mozilla/Developer_Guide" xlink:title="issue is developed"><path d="M584-735c-8 7-18 13-27 17-30 16-53-8-74 18-16 21 7 41 33 55" fill="none" stroke="orange"/><path fill="orange" stroke="orange" d="M517.958-647.916L525-640l-10.441-1.797 3.399-6.119z"/></a><a xlink:href="https://developer.mozilla.org/en-US/docs/Mozilla/Developer_Guide" xlink:title="issue is developed"><text text-anchor="middle" x="548" y="-686.9" font-family="Times New Roman" font-size="14" fill="#fff">issue is developed</text></a></g><a xlink:href="https://wiki.mozilla.org/Build:TryServer" xlink:title="When you want to land your code, but you don’t have build/test/perf machines running locally to first verify your code is safe to land on every OS" transform="translate(4 1352)"><path fill="none" stroke="#00f" d="M1089-564h-78v36h78v-36z"/><text text-anchor="middle" x="1050" y="-541.4" font-family="Arial" font-size="14" fill="#fff">Try server</text></a><g class="edge"><path d="M679 604c85 46 253 137 332 179" fill="none" stroke="orange"/><path fill="orange" stroke="orange" d="M1012.96 780.084L1020 788l-10.44-1.797 3.4-6.119z"/><text text-anchor="middle" x="891" y="-686.9" font-family="Times New Roman" font-size="14" fill="#fff" transform="translate(4 1352)">change is tried in production</text></g><g class="edge"><path d="M588 617c-8 7-18 13-27 17-80 39-390 6-390 95v473c0 28 15 55 30 76" fill="none" stroke="orange"/><path fill="orange" stroke="orange" d="M203.8 1275.9l3.2 10.1-8.8-5.9 5.6-4.2z"/><text text-anchor="middle" x="235" y="-358.9" font-family="Times New Roman" font-size="14" fill="#fff" transform="translate(4 1352)">oranges are starred</text></g><g class="edge" transform="translate(4 1352)"><a xlink:href="https://developer.mozilla.org/en-US/docs/Mozilla/Developer_Guide/How_to_Submit_a_Patch" xlink:title="patch is submitted"><path d="M601-626c66-6 199-21 226-56 25-32 9-145-1-186-1-3-2-6-3-8" fill="none" stroke="orange"/><path fill="orange" stroke="orange" d="M819.521-875.416L820-886l6.226 8.573-6.705 2.011z"/></a><a xlink:href="https://developer.mozilla.org/en-US/docs/Mozilla/Developer_Guide/How_to_Submit_a_Patch" xlink:title="The patch is submitted to bugzilla with a review request"><text text-anchor="middle" x="902" y="-770.9" font-family="Times New Roman" font-size="14" fill="#fff">patch is submitted</text></a></g><a xlink:href="http://hg.mozilla.org/mozilla-central/" xlink:title="Mozilla mercurial repositories" transform="translate(4 1352)"><image xlink:href="images/hg.png" width="70" height="68" preserveAspectRatio="xMinYMin meet" x="643" y="-510"/><path fill="none" stroke="#00f" d="M713-510h-70v68h70v-68z"/><text text-anchor="middle" x="678" y="-471.4" font-family="Arial" font-size="14">hg.m.o</text></a><g class="edge" transform="translate(4 1352)"><a xlink:href="https://developer.mozilla.org/en/mozilla-central#Pushing_changes_to_mozilla-central" xlink:title="finalized change is pushed"><path d="M583-605c10 8 21 16 32 23 18 11 29 3 41 18 11 12 17 29 20 44" fill="none" stroke="orange"/><path fill="orange" stroke="orange" d="M679.488-520.299L677-510l-4.478-9.602 6.966-.697z"/></a><a xlink:href="https://developer.mozilla.org/en/mozilla-central#Pushing_changes_to_mozilla-central" xlink:title="finalized change is pushed"><text text-anchor="middle" x="766" y="-541.9" font-family="Times New Roman" font-size="14" fill="#fff">finalized change is pushed</text></a></g><g class="edge" transform="translate(4 1352)"><a xlink:href="https://developer.mozilla.org/en/Code_Review_FAQ" xlink:title="patch is reviewed: r+/-"><path d="M483-823c-1-16 0-32 9-45 25-33 128-59 203-74" fill="none" stroke="orange"/><path fill="orange" stroke="orange" d="M694.508-945.471L705-944l-9.119 5.393-1.373-6.864z"/></a><a xlink:href="https://developer.mozilla.org/en/Code_Review_FAQ" xlink:title="The patch is reviewed and given an r+ or an r-. For an r-, the developer must submit an additional patch that addresses the reviewers comments. For security and cross-module affecting patches, additional reviews may be required."><text text-anchor="middle" x="571" y="-854.9" font-family="Times New Roman" font-size="14" fill="#fff">patch is reviewed: r+/-</text></a></g><a xlink:href="https://wiki.mozilla.org/Buildbot" xlink:title="For each check-in, buildbot builds mozilla-central and tests are run with the built binary (continuous integration)" transform="translate(4 1352)"><image xlink:href="images/buildbot_med.png" width="64" height="50" preserveAspectRatio="xMinYMin meet" x="867" y="-284"/><path fill="none" stroke="#00f" d="M965-284H833v50h132v-50z"/><text text-anchor="middle" x="899" y="-254.4" font-family="Arial" font-size="14" fill="#fff">buildbot scheduler</text></a><g class="edge" stroke="orange"><path d="M1080 824c50 37 152 124 102 190-25 32-129 56-203 68" fill="none"/><path fill="orange" d="M979.492 1085.471L969 1084l9.119-5.393 1.373 6.864z"/></g><a xlink:href="http://tinderbox.mozilla.org/showbuilds.cgi?tree=Firefox" xlink:title="The tinderbox waterfall presents build and test data organized by time" transform="translate(4 1352)"><image xlink:href="images/tinderbox.png" width="118" height="60" preserveAspectRatio="xMinYMin meet" x="559" y="-180"/><path fill="none" stroke="#00f" d="M677-180H559v60h118v-60z"/><text text-anchor="middle" x="618" y="-145.4" font-family="Arial" font-size="14">tinderbox</text></a><g class="edge"><path d="M837 1099c-40 6-92 17-135 37-15 7-30 18-42 29" fill="none" stroke="orange"/><path fill="orange" stroke="orange" d="M661.831 1168.049L652 1172l5.221-9.219 4.61 5.268z"/><text text-anchor="middle" x="773" y="-202.9" font-family="Times New Roman" font-size="14" fill="#fff" transform="translate(4 1352)">results are reported</text></g><a xlink:title="Buildbot slaves that run tests. Test-running slaves are from a pool of machines that run and report on the results of different test harnesses on different platforms using the packaged builds + tests." transform="translate(4 1352)"><image xlink:href="images/buildbot_med.png" width="64" height="50" preserveAspectRatio="xMinYMin meet" x="819" y="-175"/><path fill="none" stroke="#00f" d="M891-175h-80v50h80v-50z"/><text text-anchor="middle" x="851" y="-145.4" font-family="Arial" font-size="14" fill="#fff">testslaves</text></a><g class="edge"><path d="M925 1118c7 11 12 25 6 36s-16 20-27 27" fill="none" stroke="orange"/><path fill="orange" stroke="orange" d="M905.441 1184.203L895 1186l7.042-7.916 3.399 6.119z"/><text text-anchor="middle" x="1004" y="-202.9" font-family="Times New Roman" font-size="14" fill="#fff" transform="translate(4 1352)">buildbot triggers tests</text></g><a xlink:title="buildslaves build a packaged binaries and tests for the platforms of interest" transform="translate(4 1352)"><image xlink:href="images/buildbot_med.png" width="64" height="50" preserveAspectRatio="xMinYMin meet" x="647" y="-388"/><path fill="none" stroke="#00f" d="M722-388h-86v50h86v-50z"/><text text-anchor="middle" x="679" y="-358.4" font-family="Arial" font-size="14" fill="#fff">buildslaves</text></a><g class="edge"><path d="M837 1074c-17-6-35-14-50-24-9-6-8-11-18-18s-22-14-34-20" fill="none" stroke="orange"/><path fill="orange" stroke="orange" d="M733.717 1015.26L726 1008l10.56.863-2.843 6.397z"/><text text-anchor="middle" x="887" y="-306.9" font-family="Times New Roman" font-size="14" fill="#fff" transform="translate(4 1352)">changeset sent to build slaves</text></g><g class="edge" transform="translate(4 1352)"><a xlink:href="https://developer.mozilla.org/en/Mercurial_FAQ#How_can_I_check_out_Mozilla.3f" xlink:title="source pulled"><path d="M643-481c-27-6-64-19-82-47-13-20-11-47-6-67" fill="none" stroke="orange"/><path fill="orange" stroke="orange" d="M551.607-595.881L557-605l1.471 10.492-6.864-1.373z"/></a><a xlink:href="https://developer.mozilla.org/en/Mercurial_FAQ#How_can_I_check_out_Mozilla.3f" xlink:title="source pulled"><text text-anchor="middle" x="607" y="-541.9" font-family="Times New Roman" font-size="14" fill="#fff">source pulled</text></a></g><g class="edge"><path d="M717 880c77 10 258 38 295 84 23 30 23 55 2 86-5 8-19 14-35 21" fill="none" stroke="orange"/><path fill="orange" stroke="orange" d="M979.584 1074.479L969 1074l8.573-6.226 2.011 6.705z"/><text text-anchor="middle" x="1099" y="-358.9" font-family="Times New Roman" font-size="14" fill="#fff" transform="translate(4 1352)">push triggers builders</text></g><g class="edge"><path d="M682 910c1 14 1 30 1 44" fill="none" stroke="orange"/><path fill="orange" stroke="orange" d="M686.5 954l-3.5 10-3.5-10h7z"/><text text-anchor="middle" x="725" y="-410.9" font-family="Times New Roman" font-size="14" fill="#fff" transform="translate(4 1352)">source pulled</text></g><g class="edge"><path d="M563 1210c-50 7-124 21-187 40-26 9-54 21-78 32" fill="none" stroke="orange"/><path fill="orange" stroke="orange" d="M299.56 1285.137L289 1286l7.717-7.26 2.843 6.397z"/><text text-anchor="middle" x="502" y="-88.9" font-family="Times New Roman" font-size="14" fill="#fff" transform="translate(4 1352)">results are organized by changeset</text></g><g class="node"><path fill="none" stroke="#00f" d="M653 1297h-62v36h62v-36z"/><text text-anchor="middle" x="618" y="-32.4" font-family="Arial" font-size="14" fill="#fff" transform="translate(4 1352)">topfails</text></g><g class="edge" stroke="orange"><path d="M622 1232v55" fill="none"/><path fill="orange" d="M625.5 1287l-3.5 10-3.5-10h7z"/></g><g class="node"><path fill="none" stroke="#00f" d="M1003 971H881v36h122v-36z"/><text text-anchor="middle" x="938" y="-358.4" font-family="Arial" font-size="14" fill="#fff" transform="translate(4 1352)">nightly scheduler</text></g><g class="edge" stroke="orange"><path d="M977 1007c18 12 33 27 23 43-5 8-13 16-22 21" fill="none"/><path fill="orange" d="M979.441 1074.203L969 1076l7.042-7.916 3.399 6.119z"/></g><g class="edge"><path d="M847 1177c-3-13-4-28 2-41 2-4 4-8 7-11" fill="none" stroke="orange"/><path fill="orange" stroke="orange" d="M853.454 1122.596L863 1118l-4.596 9.546-4.95-4.95z"/><text text-anchor="middle" x="884" y="-202.9" font-family="Times New Roman" font-size="14" fill="#fff" transform="translate(4 1352)">test results</text></g><g class="edge"><path d="M895 1206c44 6 117 18 175 44 12 6 12 11 24 18 12 8 25 16 37 24" fill="none" stroke="orange"/><path fill="orange" stroke="orange" d="M1132.96 1289.084L1140 1297l-10.44-1.797 3.4-6.119z"/><text text-anchor="middle" x="1163" y="-88.9" font-family="Times New Roman" font-size="14" fill="#fff" transform="translate(4 1352)">build slaves run tests</text></g><a xlink:href="http://graphs.mozilla.org/" xlink:title="Performance graphs from talos results" transform="translate(4 1352)"><image xlink:href="images/graphserver.png" width="114" height="47" preserveAspectRatio="xMinYMin meet" x="794" y="-60.5"/><path fill="none" stroke="#00f" d="M908-60.5H794v47h114v-47z"/><text text-anchor="middle" x="851" y="-32.4" font-family="Arial" font-size="14">graphserver</text></a><g class="edge"><path d="M855 1227v54" fill="none" stroke="orange"/><path fill="orange" stroke="orange" d="M858.5 1281l-3.5 10-3.5-10h7z"/><text text-anchor="middle" x="957" y="-88.9" font-family="Times New Roman" font-size="14" fill="#fff" transform="translate(4 1352)">talos results go to graphserver</text></g><g class="edge"><path d="M674 1014c-3 12-4 27 4 36 19 23 91 34 149 39" fill="none" stroke="orange"/><path fill="orange" stroke="orange" d="M827.398 1085.522L837 1090l-10.299 2.488.697-6.966z"/><text text-anchor="middle" x="716" y="-306.9" font-family="Times New Roman" font-size="14" fill="#fff" transform="translate(4 1352)">build results</text></g><a xlink:href="ftp://ftp.mozilla.org/pub/firefox/tinderbox-builds/" xlink:title="ftp.m.o" transform="translate(4 1352)"><path fill="none" stroke="#00f" d="M482-277h-60v36h60v-36z"/><text text-anchor="middle" x="452" y="-254.4" font-family="Arial" font-size="14" fill="#fff">ftp.m.o</text></a><g class="edge"><path d="M640 992c-57 4-153 15-177 40-8 9-10 22-10 33" fill="none" stroke="orange"/><path fill="orange" stroke="orange" d="M456.5 1065l-3.5 10-3.5-10h7z"/><text text-anchor="middle" x="565" y="-306.9" font-family="Times New Roman" font-size="14" fill="#fff" transform="translate(4 1352)">builds are uploaded to ftp.m.o</text></g><g class="edge"><path d="M467 1111c9 15 24 34 42 43 36 19 141 13 181 18 39 5 82 13 115 20" fill="none" stroke="orange"/><path fill="orange" stroke="orange" d="M805.881 1188.607L815 1194l-10.492 1.471 1.373-6.864z"/><text text-anchor="middle" x="587" y="-202.9" font-family="Times New Roman" font-size="14" fill="#fff" transform="translate(4 1352)">packaged builds + tests</text></g><a xlink:href="https://wiki.mozilla.org/Sheriff_Duty" xlink:title="The sheriff is a person from the mozilla community is selected to watch over the build tree." transform="translate(4 1352)"><circle cx="348" cy="-623" fill="none" stroke="#00f" r="37.113"/><circle cx="348" cy="-623" fill="none" stroke="#00f" r="41.065"/><text text-anchor="middle" x="348" y="-618.4" font-family="Arial" font-size="14" fill="#fff">sheriff</text></a><g class="edge"><path d="M353 770c2 19 9 41 23 54 37 34 185 46 261 50" fill="none" stroke="orange"/><path fill="orange" stroke="orange" d="M637.398 870.522L647 875l-10.299 2.488.697-6.966z"/><text text-anchor="middle" x="461" y="-541.9" font-family="Times New Roman" font-size="14" fill="#fff" transform="translate(4 1352)">breakages are backed out</text></g><g class="edge"><path d="M348 770c-6 56-19 158-37 244-19 95-50 205-66 262" fill="none" stroke="orange"/><path fill="orange" stroke="orange" d="M248.226 1277.427L242 1286l-.479-10.584 6.705 2.011z"/><text text-anchor="middle" x="372" y="-306.9" font-family="Times New Roman" font-size="14" fill="#fff" transform="translate(4 1352)">oranges are starred</text></g><g class="node" transform="translate(4 1352)"><image xlink:href="images/firefox-logo.png" width="100" height="100" preserveAspectRatio="xMinYMin meet" x="783" y="-1340"/><circle cx="833" cy="-1290" fill="none" stroke="#00f" r="53.982"/><circle cx="833" cy="-1290" fill="none" stroke="#00f" r="57.948"/><text text-anchor="middle" x="833" y="-1285.4" font-family="Arial" font-size="14" fill="#fff">firefoxen</text></g><a xlink:href="http://crash-stats.mozilla.com/products/Firefox" xlink:title="socorro collects crash reports" transform="translate(4 1352)"><image xlink:href="images/socorro.png" width="68" height="60" preserveAspectRatio="xMinYMin meet" x="743" y="-1160"/><path fill="none" stroke="#00f" d="M811-1160h-68v60h68v-60z"/><text text-anchor="middle" x="777" y="-1125.4" font-family="Arial" font-size="14" fill="#fff">socorro</text></a><g class="edge" transform="translate(4 1352)"><a xlink:href="https://wiki.mozilla.org/Breakpad" xlink:title="breakpad"><path d="M801-1241c-5 8-10 18-13 27-5 14-8 30-9 44" fill="none" stroke="orange"/><path fill="orange" stroke="orange" d="M782.478-1169.6L778-1160l-2.488-10.3 6.966.7z"/></a><a xlink:href="https://wiki.mozilla.org/Breakpad" xlink:title="breakpad"><text text-anchor="middle" x="823" y="-1200.9" font-family="Times New Roman" font-size="14" fill="#fff">breakpad</text></a></g><a xlink:href="https://litmus.mozilla.org/" xlink:title="Litmus is the integrated manual testcase management and QA tool that is designed to improve workflow, visibility, and turnaround time in the Mozilla QA process." transform="translate(4 1352)"><image xlink:href="images/litmus.png" width="112" height="50" preserveAspectRatio="xMinYMin meet" x="829" y="-1155"/><path fill="none" stroke="#00f" d="M941-1155H829v50h112v-50z"/></a><g class="edge"><path d="M855 118c8 23 16 49 23 69" fill="none" stroke="orange"/><path fill="orange" stroke="orange" d="M881.479 186.42L881 197l-6.226-8.57 6.705-2.01z"/><text text-anchor="middle" x="902" y="-1200.9" font-family="Times New Roman" font-size="14" fill="#fff" transform="translate(4 1352)">user testing</text></g><g class="edge" stroke="orange"><path d="M781 252v62" fill="none"/><path fill="orange" d="M784.5 314l-3.5 10-3.5-10h7z"/></g><g class="edge" stroke="orange"><path d="M873 247c-12 18-27 43-43 68" fill="none"/><path fill="orange" d="M832.916 316.96L825 324l1.797-10.44 6.119 3.4z"/></g></g></svg>
