<svg xmlns="http://www.w3.org/2000/svg" viewBox="119.5 281.5 291 379" width="291" height="379"><g fill="none"><path fill="#ededff" d="M120 282h290v378H120z"/><path stroke="#000" stroke-linecap="round" stroke-linejoin="round" d="M120 282h290v378H120z"/><text transform="translate(125 287)" fill="#000"><tspan font-family="Courier New" font-size="14" font-weight="400" x="0" y="12">Window</tspan></text><path fill="#ffc0c0" d="M130 312h266.984v338H130z"/><path stroke="#000" stroke-linecap="round" stroke-linejoin="round" d="M130 312h266.984v338H130z"/><text transform="translate(135 317)" fill="#000"><tspan font-family="Courier New" font-size="14" font-weight="400" x="0" y="12">Document</tspan></text><path fill="#ffffc0" d="M143.016 340H390v80H143.016z"/><path stroke="#000" stroke-linecap="round" stroke-linejoin="round" d="M143.016 340H390v80H143.016z"/><text transform="translate(148.016 345)" fill="#000"><tspan font-family="Courier New" font-size="14" font-weight="400" x="0" y="12">Element</tspan></text><path fill="#ffffc0" d="M143.016 430H390v130H143.016z"/><path stroke="#000" stroke-linecap="round" stroke-linejoin="round" d="M143.016 430H390v130H143.016z"/><text transform="translate(148.016 435)" fill="#000"><tspan font-family="Courier New" font-size="14" font-weight="400" x="0" y="12">Element</tspan></text><path fill="#c0ffff" d="M150 460h230v30H150z"/><path stroke="#000" stroke-linecap="round" stroke-linejoin="round" d="M150 460h230v30H150z"/><text transform="translate(155 465)" fill="#000"><tspan font-family="Courier New" font-size="14" font-weight="400" x="0" y="12">Element</tspan></text><path fill="#c0ffff" d="M150 500h230v30H150z"/><path stroke="#000" stroke-linecap="round" stroke-linejoin="round" d="M150 500h230v30H150z"/><text transform="translate(155 505)" fill="#000"><tspan font-family="Courier New" font-size="14" font-weight="400" x="0" y="12">Element</tspan></text></g></svg>