<svg xmlns="http://www.w3.org/2000/svg" xmlns:xl="http://www.w3.org/1999/xlink" viewBox="191.5 263.5 661.387 565" width="661.387" height="565"><defs><marker orient="auto" overflow="visible" markerUnits="strokeWidth" id="a" stroke-linejoin="miter" stroke-miterlimit="10" viewBox="-9 -4 10 8" markerWidth="10" markerHeight="8" color="#000"><path d="M-8 0l8 3v-6z" fill="none" stroke="currentColor"/></marker><marker orient="auto" overflow="visible" markerUnits="strokeWidth" id="b" stroke-linejoin="miter" stroke-miterlimit="10" viewBox="-1 -4 10 8" markerWidth="10" markerHeight="8" color="#000"><path d="M8 0L0-3v6z" fill="none" stroke="currentColor"/></marker></defs><g fill="none"><a xl:href="https://developer.mozilla.org/en-US/docs/Web/API/EventTarget"><path fill="#ededff" d="M192 516h114.968v48H192z"/><path stroke="#000" stroke-linecap="round" stroke-linejoin="round" d="M192 516h114.968v48H192z"/><text transform="translate(197 531.5)" fill="#000"><tspan font-family="Courier New" font-size="14" font-weight="400" x="6.276" y="12">EventTarget</tspan></text></a><a xl:href="https://developer.mozilla.org/en-US/docs/Web/API/Node"><path fill="#ededff" d="M327.871 516h62.71v48h-62.71z"/><path stroke="#000" stroke-linecap="round" stroke-linejoin="round" d="M327.871 516h62.71v48h-62.71z"/><text transform="translate(332.871 531.5)" fill="#000"><tspan font-family="Courier New" font-size="14" font-weight="400" x="9.552" y="12">Node</tspan></text></a><a xl:href="https://developer.mozilla.org/en-US/docs/Web/API/Element"><path fill="#ededff" d="M411.484 516h94.065v48h-94.065z"/><path stroke="#000" stroke-linecap="round" stroke-linejoin="round" d="M411.484 516h94.065v48h-94.065z"/><text transform="translate(416.484 531.5)" fill="#000"><tspan font-family="Courier New" font-size="14" font-weight="400" x="12.627" y="12">Element</tspan></text></a><a xl:href="https://developer.mozilla.org/en-US/docs/Web/API/HTMLElement"><path fill="#ededff" d="M526.452 516H641.42v48H526.452z"/><path stroke="#000" stroke-linecap="round" stroke-linejoin="round" d="M526.452 516H641.42v48H526.452z"/><text transform="translate(531.452 531.5)" fill="#000"><tspan font-family="Courier New" font-size="14" font-weight="400" x="6.276" y="12">HTMLElement</tspan></text></a><a xl:href="https://developer.mozilla.org/en-US/docs/Web/API/HTMLAnchorElement"><path fill="#ededff" d="M685.161 264h167.226v48H685.161z"/><path stroke="#000" stroke-linecap="round" stroke-linejoin="round" d="M685.161 264h167.226v48H685.161z"/><text transform="translate(690.161 279.5)" fill="#000"><tspan font-family="Courier New" font-size="14" font-weight="400" x="7.201" y="12">HTMLAnchorElement</tspan></text></a><a xl:href="https://developer.mozilla.org/en-US/docs/Web/API/HTMLAreaElement"><path fill="#ededff" d="M685.161 324h167.226v48H685.161z"/><path stroke="#000" stroke-linecap="round" stroke-linejoin="round" d="M685.161 324h167.226v48H685.161z"/><text transform="translate(690.161 339.5)" fill="#000"><tspan font-family="Courier New" font-size="14" font-weight="400" x="15.603" y="12">HTMLAreaElement</tspan></text></a><a xl:href="https://developer.mozilla.org/en-US/docs/Web/API/HTMLAnchorElement"><path fill="#ededff" d="M685.161 384h167.226v48H685.161z"/><path stroke="#000" stroke-linecap="round" stroke-linejoin="round" d="M685.161 384h167.226v48H685.161z"/><text transform="translate(690.161 399.5)" fill="#000"><tspan font-family="Courier New" font-size="14" font-weight="400" x="7.201" y="12">HTMLAnchorElement</tspan></text></a><a xl:href="https://developer.mozilla.org/en-US/docs/Web/API/"><path fill="#ededff" d="M685.161 444h167.226v48H685.161z"/><path stroke="#000" stroke-linecap="round" stroke-linejoin="round" d="M685.161 444h167.226v48H685.161z"/><text transform="translate(690.161 459.5)" fill="#000"><tspan font-family="Courier New" font-size="14" font-weight="400" x="24.004" y="12">HTMLBRElement</tspan></text></a><a xl:href="https://developer.mozilla.org/en-US/docs/Web/API/HTMLTrackElement"><path fill="#ededff" d="M685.161 600h167.226v48H685.161z"/><path stroke="#000" stroke-linecap="round" stroke-linejoin="round" d="M685.161 600h167.226v48H685.161z"/><text transform="translate(690.161 615.5)" fill="#000"><tspan font-family="Courier New" font-size="14" font-weight="400" x="11.402" y="12">HTMLTrackElement</tspan></text></a><a xl:href="https://developer.mozilla.org/en-US/docs/Web/API/HTMLUListElement"><path fill="#ededff" d="M685.161 660h167.226v48H685.161z"/><path stroke="#000" stroke-linecap="round" stroke-linejoin="round" d="M685.161 660h167.226v48H685.161z"/><text transform="translate(690.161 675.5)" fill="#000"><tspan font-family="Courier New" font-size="14" font-weight="400" x="11.402" y="12">HTMLUListElement</tspan></text></a><a xl:href="https://developer.mozilla.org/en-US/docs/Web/API/HTMLUnknownElement"><path fill="#ededff" d="M685.161 720h167.226v48H685.161z"/><path stroke="#000" stroke-linecap="round" stroke-linejoin="round" d="M685.161 720h167.226v48H685.161z"/><text transform="translate(690.161 735.5)" fill="#000"><tspan font-family="Courier New" font-size="14" font-weight="400" x="3.001" y="12">HTMLUnknownElement</tspan></text></a><a xl:href="https://developer.mozilla.org/en-US/docs/Web/API/HTMLVideoElement"><path fill="#ededff" d="M685.161 780h167.226v48H685.161z"/><path stroke="#000" stroke-linecap="round" stroke-linejoin="round" d="M685.161 780h167.226v48H685.161z"/><text transform="translate(690.161 795.5)" fill="#000"><tspan font-family="Courier New" font-size="14" font-weight="400" x="11.402" y="12">HTMLVideoElement</tspan></text></a><ellipse cx="763.548" cy="510" rx="5.226" ry="6" fill="#666"/><ellipse cx="763.548" cy="510" rx="5.226" ry="6" stroke="#999" stroke-linecap="round" stroke-linejoin="round"/><ellipse cx="763.548" cy="534" rx="5.226" ry="6" fill="#666"/><ellipse cx="763.548" cy="534" rx="5.226" ry="6" stroke="#999" stroke-linecap="round" stroke-linejoin="round"/><ellipse cx="763.548" cy="558" rx="5.226" ry="6" fill="#666"/><ellipse cx="763.548" cy="558" rx="5.226" ry="6" stroke="#999" stroke-linecap="round" stroke-linejoin="round"/><ellipse cx="763.548" cy="582" rx="5.226" ry="6" fill="#666"/><ellipse cx="763.548" cy="582" rx="5.226" ry="6" stroke="#999" stroke-linecap="round" stroke-linejoin="round"/><path marker-start="url(#a)" stroke="#000" stroke-linecap="round" stroke-linejoin="round" d="M316.868 540h11.003m72.61 0h11.003m103.964 0h11.004"/><path d="M685.161 288h-24v252h-9.842" marker-end="url(#b)" stroke="#000" stroke-linecap="round" stroke-linejoin="round"/><path d="M651.32 540h9.841v264h24" marker-start="url(#a)" stroke="#000" stroke-linecap="round" stroke-linejoin="round"/><path stroke="#000" stroke-linecap="round" stroke-linejoin="round" d="M661.161 348h24m-24 59.5h24m-24 59.5h24m-24 157h24m-24 60h24m-24 60h24"/></g></svg>
