<svg xmlns="http://www.w3.org/2000/svg" xmlns:xlink="http://www.w3.org/1999/xlink" viewBox="0 0 918 918"><switch><g><path fill="#961C49" d="M686 356.94c-.08-2.27-.27-7.58-3.94-12.57-.4-.55-1.88-2.45-4.07-4.09-70.94-52.93-207.79-57.04-248.05-57.04-4.54 0-7.07.06-7.17.06-5.03.12-123.73 3.44-174.33 47.45-12.14 10.57-14.15 22.81-14.34 24.17-.77 5.57-.99 16.2 6.25 24.81.97 1.16 2.05 2.24 3.22 3.22l2.78 2.34 3.63.01 14.6.03a86.067 86.067 0 00-6.58 5.84 87.053 87.053 0 00-8.48 9.68c-24.19 7.89-41.42 29.28-44.13 54.34l-.09.85c-.07.71-.12 1.43-.17 2.14l-.06.92c-.05 1-.08 2-.08 3v96.21c0 35.53 28.91 64.43 64.43 64.43h295.13c.61 0 1.22-.03 1.82-.05.41-.01.83-.01 1.24-.03.85-.04 1.69-.11 2.53-.18.16-.01.31-.02.47-.04 30.11-2.82 54.25-26.45 57.88-56.31 5.24-9.04 9.55-17.85 12.81-26.22 12.19-31.23 11.9-60.08 10.65-74.5l-.03-.35c-1.85-21.28-4.38-50.42-25.56-73.54a87.645 87.645 0 00-13.57-12.01c20.1-.69 40.02-1.44 59.61-2.24l2.46-.1 2.13-1.23c1.25-.72 2.4-1.59 3.42-2.58 5.96-5.75 5.69-13.5 5.59-16.42zm-67 201.37c0 1.56-.08 3.11-.21 4.64-.07.86-.17 1.71-.28 2.56 0 .02 0 .03-.01.05-.11.84-.24 1.67-.4 2.49 0 .03-.01.05-.01.07-.15.82-.32 1.63-.51 2.43-.01.03-.01.06-.02.09-.19.8-.39 1.6-.62 2.39-.01.03-.02.05-.02.08-.23.79-.47 1.58-.73 2.36-.01.02-.01.03-.02.05-.27.79-.55 1.57-.85 2.34-3.03 7.81-7.82 14.76-13.87 20.37l-.04.04c-.52.48-1.06.95-1.6 1.42-.11.09-.21.19-.32.28-.49.41-.99.81-1.5 1.21-.17.13-.33.26-.5.39-.47.36-.96.71-1.44 1.06l-.63.45c-.46.32-.93.63-1.4.94-.25.16-.49.32-.74.48-.46.29-.92.56-1.38.83-.28.16-.55.32-.83.48-.45.25-.91.5-1.37.74-.3.16-.6.31-.91.47-.45.23-.91.45-1.36.66-.32.15-.65.3-.97.44-.45.2-.91.4-1.36.58-.34.14-.69.28-1.03.41-.45.18-.91.35-1.36.51-.36.13-.72.25-1.09.37-.46.15-.91.3-1.37.44-.37.11-.75.22-1.13.32-.46.13-.91.26-1.38.37-.39.1-.78.18-1.17.27-.46.1-.92.21-1.38.3-.4.08-.81.15-1.21.22-.46.08-.93.17-1.39.24-.41.06-.82.11-1.24.16-.47.06-.94.12-1.41.17-.41.04-.83.06-1.24.1-.48.04-.96.08-1.44.1-.4.02-.8.02-1.2.03-.49.01-.98.04-1.47.04H269.44c-29.94 0-54.43-24.5-54.43-54.43v-96.21c0-.87.03-1.74.07-2.6.01-.27.04-.54.05-.81.04-.59.08-1.18.14-1.76.03-.31.07-.62.1-.94.06-.55.13-1.09.21-1.63.04-.31.09-.62.14-.93.09-.56.19-1.11.3-1.67.05-.28.1-.55.16-.83.15-.69.31-1.37.48-2.05l.09-.39c.21-.81.44-1.61.69-2.4.07-.22.15-.45.22-.67.18-.57.37-1.13.57-1.69.1-.28.21-.56.32-.85.19-.49.38-.99.58-1.47.12-.29.24-.58.37-.87.21-.48.43-.96.65-1.43.13-.27.26-.55.39-.82.26-.53.53-1.05.8-1.56.11-.21.21-.41.32-.62.39-.71.79-1.4 1.2-2.09.12-.2.25-.39.37-.58.31-.49.62-.99.94-1.47.18-.27.36-.53.55-.79.28-.4.56-.8.85-1.2.2-.28.41-.55.62-.82.29-.38.58-.75.88-1.12.22-.27.43-.54.66-.8.32-.38.64-.75.97-1.11.21-.24.42-.48.64-.72.48-.53.98-1.04 1.48-1.55.23-.23.47-.46.7-.69.39-.38.77-.75 1.17-1.11.27-.25.54-.48.81-.72.33-.29.66-.58 1-.87.3-.25.59-.49.89-.73.33-.26.66-.53.99-.78.31-.24.62-.48.94-.71.34-.25.69-.49 1.03-.73.32-.22.63-.45.96-.66.38-.26.78-.5 1.17-.75.52-.33 1.04-.65 1.57-.96.42-.25.84-.5 1.27-.73a104.203 104.203 0 012.15-1.13c.37-.18.75-.36 1.13-.54.36-.17.72-.33 1.08-.49.39-.17.78-.34 1.17-.5.37-.15.73-.29 1.1-.44.39-.15.78-.3 1.18-.45.39-.14.78-.27 1.18-.4.48-.16.96-.32 1.44-.47a53.906 53.906 0 0115.69-2.33h295.13c29.94 0 54.43 24.5 54.43 54.43v96.2zm54.47-192.12c-.55.53-1.08.88-1.47 1.1-36.93 1.51-74.23 2.81-111.87 3.91 18.58 1.74 41.56 8.19 58.87 27.09 18.98 20.73 21.18 47.02 23 68 .8 9.21 2.47 38.05-10 70-.95 2.43-1.96 4.81-3 7.13v-81.31c0-35.53-28.91-60.43-64.43-60.43H269.44c-2.73 0-5.42.16-8.07.45 1.14-1.29 2.35-2.57 3.63-3.84 23.7-23.31 54.4-23.18 61-23l.61-.09c-25.69.13-51.23.16-76.61.09-.51-.43-1.24-1.1-2-2-5.46-6.49-4.22-15.39-4-17 0 0 1.33-9.59 11-18 48.46-42.16 168-45 168-45s169.87-4.04 249 55c1.17.87 2 2 2 2 1.8 2.45 1.94 5.19 2 7 .08 2.16.22 6.23-2.53 8.9z"/><path d="M260.34 321.89C277.51 274.45 314.04 229.26 364 206c31.55-14.69 59.07-16.27 80.5-17.5 66.26-3.8 120.12 18.55 146.5 35.5 13.76 8.84 26.89 19.89 26.89 19.89 10.15 8.57 25.02 21.13 35.27 36.2 11.05 16.26 16.18 34.36 18.18 55.5 2.27 1.52 4.49 3.08 6.64 4.69 2.05 1.53 3.47 3.28 3.97 3.95-1.42-27.06-6.75-49.51-20.52-69.76-11.02-16.21-26.7-29.45-37.11-38.24-.56-.47-13.9-11.63-27.91-20.64-13.69-8.8-64.05-37.51-137-37.51-5.14 0-10.35.15-15.49.44-21.46 1.23-50.86 2.92-84.15 18.42-30.85 14.37-58.4 37.45-79.69 66.75-15.52 21.36-26.97 44.88-33.73 68.98.66-.64 1.35-1.28 2.08-1.92 3.64-3.17 7.64-6.11 11.91-8.86zm431.39 113.8c-1.25-5.3-3.9-16.44-11.37-21.11.22-3.72.43-7.41.62-11.06.6-11.42 1.08-22.13 1.28-32.25-.54.72-1.14 1.43-1.84 2.1-1.02.99-2.18 1.86-3.42 2.58l-2.13 1.23-2.46.1c-.09 0-.19.01-.28.01-.25 8.16-.66 16.71-1.13 25.7-.37 7.14-.79 14.02-1.23 20.64 1.24-.87 2.49-1.31 3.73-1.14 2.36.32 5.53 2.96 8.5 15.5 8.59 36.25-9.46 49.88-11 96-.25 7.64-.31 23.89-11 34-1.67 1.58-5.25 5.01-8 4-.35-.13-.65-.33-.94-.58-.73 3.82-1.42 7.36-2.06 10.58-.39 6.29-1.19 15.29-3 26-1.41 8.38-2.8 16.62-5 23-1.87 5.43-6.06 12.11-52 50-15.62 12.88-19.23 15.29-35.05 28.62-8.18 6.89-17.64 15.11-28.95 25.38-17.15 15.57-28.27 26.7-47 30-6.04 1.06-14.36 1.04-31 1-11.47-.03-30.18-.34-37-1-29.42-2.85-34.74-30.19-91-85-22.81-22.22-34.25-29.78-42-50-.98-2.55-1.58-4.49-2.16-7.25h-5.41c-1.62 0-3.22-.08-4.81-.2.8 4.47 1.58 7.23 3.04 11.03 7.04 18.36 17.06 27.77 32.23 42.03 3.6 3.38 7.68 7.22 12.13 11.55 21.51 20.96 35.22 37.56 46.24 50.9 17.89 21.67 28.69 34.74 50.77 36.89 7.37.72 26.73 1.02 37.94 1.05 3.03.01 5.79.01 8.31.01 12.08 0 18.82-.17 24.45-1.17 20.34-3.58 32.84-14.98 48.66-29.41 1.09-.99 2.19-2 3.33-3.03 10.03-9.11 19.41-17.33 28.67-25.13 8.96-7.55 13.85-11.47 19.52-16.01 4.29-3.44 8.72-6.99 15.45-12.54 48.3-39.83 52.4-46.64 55.09-54.46 2.47-7.16 3.96-16.02 5.41-24.6 1.47-8.72 2.5-17.59 3.08-26.36.17-.85.34-1.72.52-2.61 3.33-1.56 5.88-3.97 7.42-5.42 13.25-12.53 13.82-31.07 14.09-39.98l.03-.96c.63-18.95 4.13-31.72 7.51-44.08 4.45-16.26 8.65-31.63 3.22-54.55zm-442.21-34.86c-.18-5.56-.27-10.71-.24-15.55l-2.93-.01-2.78-2.34c-1.16-.98-2.24-2.06-3.22-3.22-.34-.41-.65-.82-.96-1.24-.24 7.95-.12 16.62.27 26.51 3.13-1.62 6.42-3.02 9.86-4.15-.01.01 0 .01 0 0z" fill="#5D3D2C"/><path fill="#FF7C17" d="M336.04 125.81c0 16.69 20.47 31.45 51.83 40.43v-8.72c-2.93-1.07-5.71-2.2-8.32-3.39-16.56-7.54-26.61-17.46-26.61-28.32 0-23.61 47.49-42.75 106.06-42.75s106.06 19.14 106.06 42.75c0 16.26-22.51 30.39-55.66 37.62-.29.1-1.92.67-2.68 2.37-.16.36-.76 1.7-.12 3.13.77 1.71 2.63 2.06 2.8 2.09 42.77-7.76 72.55-25.09 72.55-45.22 0-27.37-55.05-49.56-122.96-49.56s-122.95 22.2-122.95 49.57z"/><path fill="#FF7C17" d="M387.88 177.16c-1.09-.91-2.02-2.41-2.01-14.93.01-10.6.05-15.92 2.01-17.02 1.97-1.1 4.53.35 18.04 10.01 14.58 10.42 16.64 12.32 16.19 14.3-.27 1.2-1.41 2.2-17.19 5.93-13.17 3.12-15.34 3.12-17.04 1.71zm400.38 159.38c-16.69 0-31.45 20.47-40.43 51.83h8.72c1.07-2.93 2.2-5.71 3.39-8.32 7.54-16.56 17.46-26.61 28.32-26.61 23.61 0 42.75 47.49 42.75 106.06s-19.14 106.06-42.75 106.06c-16.26 0-30.39-22.51-37.62-55.66-.1-.29-.67-1.92-2.37-2.68-.36-.16-1.7-.76-3.13-.12-1.71.77-2.06 2.63-2.09 2.8 7.76 42.77 25.09 72.55 45.22 72.55 27.37 0 49.56-55.05 49.56-122.96s-22.2-122.95-49.57-122.95z"/><path fill="#FF7C17" d="M736.91 388.37c.91-1.09 2.41-2.02 14.93-2.01 10.6.01 15.92.05 17.02 2.01 1.1 1.97-.35 4.53-10.01 18.04-10.42 14.58-12.32 16.64-14.3 16.19-1.2-.27-2.2-1.41-5.93-17.19-3.12-13.17-3.12-15.34-1.71-17.04z"/><path fill="#29ABE2" d="M459 0c9 23.99 18 48 27 72h-18v774h18c-9 23.99-18 48-27 72-9-24-18-48.01-27-72h18V72h-18c9-24 18-48.01 27-72z" opacity=".7"/><path fill="#29ABE2" d="M0 459c23.99-9 48-18 72-27v18h774v-18c23.99 9 48 18 72 27-24 9-48.01 18-72 27v-18H72v18c-24-9-48.01-18-72-27z" opacity=".7"/><g opacity=".7"><defs><path id="a" d="M472.17 402.41l-.13-7.9h17.9l.13 7.9h-17.9z"/></defs><clipPath id="b"><use xlink:href="#a" overflow="visible"/></clipPath><g clip-path="url(#b)"><path fill="#8BD1EF" d="M472.17 402.41l-.13-7.9h17.9l.13 7.9h-17.9"/></g><defs><path id="c" d="M507.97 402.41l-.13-7.9h17.9l.13 7.9h-17.9z"/></defs><clipPath id="d"><use xlink:href="#c" overflow="visible"/></clipPath><g clip-path="url(#d)"><path fill="#8BD1EF" d="M507.97 402.41l-.13-7.9h17.9l.13 7.9h-17.9"/></g><defs><path id="e" d="M428.06 523.49l-.13-7.9 79.91-121.08.13 7.9c-20.13 30.51-59.78 90.58-79.91 121.08z"/></defs><clipPath id="f"><use xlink:href="#e" overflow="visible"/></clipPath><g clip-path="url(#f)"><path fill="#259CCE" d="M428.06 523.49l-.13-7.9 79.91-121.08.13 7.9c-20.13 30.51-59.78 90.58-79.91 121.08"/></g><defs><path id="g" d="M411.68 534.75l-.13-7.9c11.43-3.75 22.86-7.51 34.29-11.26l.13 7.9c-11.44 3.76-22.86 7.51-34.29 11.26z"/></defs><clipPath id="h"><use xlink:href="#g" overflow="visible"/></clipPath><g clip-path="url(#h)"><path fill="#5CBFE9" d="M411.68 534.75l-.13-7.9c11.43-3.75 22.86-7.51 34.29-11.26l.13 7.9c-11.44 3.76-22.86 7.51-34.29 11.26"/></g><defs><path id="i" d="M392.26 523.49l-.13-7.9c6.47 3.75 12.95 7.51 19.42 11.26l.13 7.9c-6.48-3.75-12.95-7.5-19.42-11.26z"/></defs><clipPath id="j"><use xlink:href="#i" overflow="visible"/></clipPath><g clip-path="url(#j)"><path fill="#165B78" d="M392.26 523.49l-.13-7.9c6.47 3.75 12.95 7.51 19.42 11.26l.13 7.9c-6.48-3.75-12.95-7.5-19.42-11.26"/></g><path fill="#155975" d="M411.55 526.85c-6.47-3.75-12.95-7.51-19.42-11.26h17.9l79.91-121.08h-17.9c11.43-3.75 22.86-7.51 34.29-11.26 6.47 3.75 12.95 7.51 19.42 11.26h-17.9c-20.13 30.51-59.78 90.58-79.91 121.08h17.9c-11.44 3.75-22.87 7.51-34.29 11.26z"/></g><path fill="#FF7C17" d="M520.54 446.73c7.05-2.93 14.63-6.07 19.08-2.72 3.26 2.45 2.36 6.53 2.14 25.2-.21 17.57.49 21.81-2.09 23.02-1.94.91-4.36-.54-19.46-13.95-14.91-13.24-16.73-15.55-16.4-18.62.68-6.27 9.76-10.04 16.73-12.93z"/><path fill="#FF7C17" d="M424.8 616.88c-58.36 0-105.67-47.31-105.67-105.67s47.31-105.67 105.67-105.67c36.09 0 67.95 18.1 87.02 45.71h19.83c-20.99-37.33-60.97-62.55-106.84-62.55-67.65 0-122.5 54.84-122.5 122.5s54.84 122.5 122.5 122.5c46.28 0 86.56-25.67 107.4-63.55-.23-.7-1.48-4.32-5.17-5.98-3.9-1.75-7.6-.01-8.83.57-3.41 1.6-5.1 4.33-5.69 5.41-19 28.19-51.19 46.73-87.72 46.73zm279.54-357.52h8.88v6.47c1.22-2.32 2.83-4.16 4.82-5.5s4.14-2.01 6.44-2.01c4.13 0 7.68 1.97 10.66 5.91s4.47 9.52 4.47 16.76c0 7.59-1.49 13.41-4.48 17.44-2.99 4.03-6.54 6.05-10.67 6.05-1.91 0-3.69-.46-5.33-1.39-1.65-.93-3.38-2.61-5.21-5.04v22.16h-9.59v-60.85zm9.45 21.29c0 5 .81 8.67 2.42 11.03 1.61 2.36 3.57 3.54 5.86 3.54 2.18 0 4.02-1.09 5.51-3.27 1.49-2.18 2.24-5.74 2.24-10.68 0-4.69-.77-8.15-2.3-10.39-1.53-2.23-3.4-3.35-5.61-3.35-2.32 0-4.25 1.09-5.8 3.27-1.54 2.18-2.32 5.46-2.32 9.85zm33.42-27.27v-10.79h9.59v10.79h-9.59zm0 50.06v-44.08h9.59v44.08h-9.59zm35.9-44.08v9.3h-6.52v17.79c0 3.85.1 6.08.29 6.69.39 1.11 1.18 1.66 2.37 1.66.89 0 2.16-.37 3.82-1.12l.83 9.05c-2.21 1.16-4.72 1.74-7.51 1.74-2.44 0-4.39-.58-5.85-1.74-1.47-1.16-2.45-2.84-2.95-5.03-.39-1.61-.58-4.88-.58-9.81v-19.24h-4.4v-9.3h4.4v-8.76l9.59-6.81v15.56h6.51zm38.23 12.99l-9.42 2.07c-.7-4.62-2.88-6.93-6.55-6.93-2.37 0-4.27 1-5.72 3-1.45 2-2.17 5.37-2.17 10.12 0 5.25.72 8.95 2.16 11.12s3.37 3.25 5.79 3.25c1.8 0 3.29-.62 4.45-1.85s2-3.41 2.5-6.54l9.42 1.95c-1.94 10.63-7.51 15.94-16.73 15.94-5.89 0-10.27-2.24-13.12-6.73-2.85-4.49-4.27-9.9-4.27-16.22 0-7.57 1.61-13.33 4.84-17.28 3.23-3.95 7.46-5.93 12.7-5.93 4.24 0 7.69 1.12 10.37 3.36 2.67 2.24 4.58 5.8 5.75 10.67zm16.77-29.76v22.33c1.52-2.21 3.2-3.87 5.04-4.96 1.84-1.09 3.84-1.64 6-1.64 2.88 0 5.28.76 7.22 2.29 1.94 1.52 3.32 3.68 4.15 6.48.61 2.05.91 5.54.91 10.47v25.88h-9.59v-23.31c0-5.4-.34-8.78-1.03-10.14-.97-1.83-2.61-2.74-4.92-2.74-2.46 0-4.37.99-5.73 2.97s-2.05 5.69-2.05 11.11v22.11h-9.59V242.6h9.59zm-667.9-141.76h10.21l8.61 31.31 8.45-31.31h9.92l-12.75 42.42-2.45 8.26c-1.08 3.1-2.16 5.37-3.22 6.81-1.07 1.44-2.43 2.54-4.07 3.32-1.65.77-3.68 1.16-6.09 1.16-1.86 0-3.67-.24-5.45-.71l-.83-9.13c1.49.36 2.84.54 4.03.54 1.83 0 3.33-.61 4.51-1.82 1.18-1.21 2.14-3.42 2.89-6.63l-13.76-44.22zm50.47 13.4l-8.67-1.91c1.05-4.46 2.79-7.66 5.21-9.61 2.42-1.95 5.9-2.93 10.44-2.93 4.04 0 7.12.57 9.26 1.7 2.13 1.14 3.65 2.68 4.57 4.63s1.37 5.5 1.37 10.66l-.08 13.63c0 3.82.15 6.67.46 8.54.3 1.87.87 3.86 1.7 5.96h-9.46l-1.25-4.81c-1.63 1.94-3.38 3.4-5.25 4.38s-3.85 1.47-5.96 1.47c-3.51 0-6.39-1.18-8.63-3.55s-3.36-5.52-3.36-9.46c0-2.49.46-4.67 1.37-6.52s2.2-3.34 3.86-4.45 4.32-2.09 7.97-2.95c4.43-1.02 7.51-1.98 9.26-2.87 0-2.45-.17-4.06-.52-4.82-.35-.77-.98-1.39-1.91-1.88-.93-.49-2.23-.73-3.92-.73-1.72 0-3.06.39-4.05 1.16-1.01.78-1.8 2.23-2.41 4.36zm12.78 9.51c-1.22.5-3.11 1.08-5.69 1.75-2.96.78-4.9 1.64-5.81 2.58s-1.37 2.17-1.37 3.66c0 1.69.5 3.11 1.51 4.27 1.01 1.15 2.28 1.73 3.8 1.73 1.36 0 2.7-.46 4.03-1.39s2.25-2.03 2.76-3.31c.51-1.28.77-3.59.77-6.95v-2.34zm25.67 21.16l-11.52-44.08h9.3l6.79 28.89 6.27-28.89h9.16l6.03 28.89 6.99-28.89h9.42l-11.7 44.08h-9.12l-6.26-28.35-6.15 28.35h-9.21zm-54.42 599.7h-9.59v-44.08H204v6.27c1.52-2.93 2.88-4.88 4.09-5.85 1.2-.97 2.59-1.45 4.17-1.45 2.19 0 4.27.73 6.27 2.2l-2.99 10.17c-1.58-1.27-3.07-1.91-4.48-1.91-1.33 0-2.5.49-3.51 1.48-1.01.98-1.74 2.76-2.18 5.34-.44 2.58-.66 7.31-.66 14.21v13.62zm15.69-22.67c0-4.32.86-8.26 2.57-11.81 1.72-3.55 3.96-6.21 6.72-7.98 2.77-1.77 5.88-2.66 9.34-2.66 5.81 0 10.38 2.28 13.7 6.84 3.32 4.56 4.98 9.89 4.98 15.99 0 4.55-.86 8.65-2.59 12.31s-4 6.41-6.81 8.25c-2.81 1.84-5.89 2.76-9.23 2.76-5.37 0-9.82-2.05-13.36-6.15-3.55-4.1-5.32-9.95-5.32-17.55zm9.79.63c0 4.47.87 7.85 2.62 10.14 1.75 2.29 3.86 3.43 6.32 3.43 2.41 0 4.48-1.15 6.2-3.46 1.72-2.3 2.58-5.7 2.58-10.2 0-4.39-.87-7.73-2.62-10.03-1.75-2.3-3.84-3.46-6.28-3.46-2.41 0-4.49 1.15-6.22 3.46s-2.6 5.68-2.6 10.12zm35.03 22.04v-60.84h9.59v60.84h-9.59zm19.38 0v-60.84h9.59v60.84h-9.59z"/><path d="M82.31 398.3v-12.09h-10v-8.35h10v-12.09h6.67v12.09H99v8.35H88.97v12.09h-6.66zm18.98 6.7l13.19-24.22-11.98-22.31h9l7.56 13.92 7.6-13.92h8.91l-11.98 22.26L136.77 405h-9.29l-8.47-15.77-8.49 15.77h-9.23zM529.04 69.55V57.46h-10v-8.35h10V37.02h6.67v12.09h10.03v8.35h-10.03v12.09h-6.67zm32.85 6.7V56.66l-13.96-26.94h9.01l8.96 18.4 8.84-18.4h8.85l-14.03 27v19.53h-7.67zm-63.7 278.32v-12.09h-10v-8.35h10v-12.09h6.67v12.09h10.03v8.35h-10.03v12.09h-6.67zm19.52 6.7v-8.5l20.04-30.15h-17.79v-7.87h27.93v7.3l-20.88 31.36h21.71v7.87h-31.01z" fill="#00708B"/></g></switch></svg>