<?xml version="1.0" encoding="UTF-8" standalone="no"?>
<!-- Created with Inkscape (http://www.inkscape.org/) -->
<!-- Created for mdn web docs by: Felix Niemeyer <niemeyer.felix@gmail.com> -->

<svg
   width="600"
   height="400"
   viewBox="0 0 158.75 105.83333"
   version="1.1"
   id="svg1"
   xmlns:xlink="http://www.w3.org/1999/xlink"
   xmlns="http://www.w3.org/2000/svg"
   xmlns:svg="http://www.w3.org/2000/svg">
  <defs
     id="defs1">
    <marker
       style="overflow:visible"
       id="DartArrow"
       refX="0"
       refY="0"
       orient="auto-start-reverse"
       markerWidth="1"
       markerHeight="1"
       viewBox="0 0 1 1"
       preserveAspectRatio="xMidYMid">
      <path
         style="fill:#fff;fill-rule:evenodd;stroke:none"
         d="M 0,0 5,-5 -12.5,0 5,5 Z"
         transform="scale(-0.5)"
         id="path6" />
    </marker>
    <marker
       style="overflow:visible"
       id="Dot"
       refX="0"
       refY="0"
       orient="auto"
       markerWidth="1"
       markerHeight="1"
       viewBox="0 0 1 1"
       preserveAspectRatio="xMidYMid">
      <path
         transform="scale(0.5)"
         style="fill:#fff;fill-rule:evenodd;stroke:none"
         d="M 5,0 C 5,2.76 2.76,5 0,5 -2.76,5 -5,2.76 -5,0 c 0,-2.76 2.3,-5 5,-5 2.76,0 5,2.24 5,5 z"
         id="path17" />
    </marker>
    <linearGradient
       id="linearGradient10">
      <stop
         style="stop-color:#ffffff;stop-opacity:1;"
         offset="0"
         id="stop10" />
      <stop
         style="stop-color:#3c3c3c;stop-opacity:1;"
         offset="1"
         id="stop11" />
    </linearGradient>
    <radialGradient
       xlink:href="#linearGradient10"
       id="radialGradient11"
       cx="73.860985"
       cy="251.56468"
       fx="73.860985"
       fy="251.56468"
       r="15.208168"
       gradientTransform="matrix(2.0102014,0,0,1.9916047,-68.886177,-408.31996)"
       gradientUnits="userSpaceOnUse" />
  </defs>
  <g
     id="layer1">
    <path
       style="fill:#9c9c9c;fill-opacity:1;stroke:none;stroke-width:0.4;stroke-linecap:round;stroke-linejoin:round;stroke-dasharray:none;stroke-opacity:1"
       id="path68"
       d="M 8.3409002,87.947727 A 71.978516,71.978516 0 0 1 40.0582,16.034293 a 71.978516,71.978516 0 0 1 78.59726,-0.02369 71.978516,71.978516 0 0 1 31.76063,71.894304 L 79.375,76.32605 Z" />
    <text
       xml:space="preserve"
       style="font-size:4.23333px;font-family:FreeSerif;-inkscape-font-specification:'FreeSerif, Normal';fill:#9c9c9c;fill-opacity:1;stroke:none;stroke-width:0.4;stroke-linecap:round;stroke-linejoin:round;stroke-dasharray:none;stroke-opacity:1"
       x="69.52858"
       y="13.431345"
       id="text68"><tspan
         id="tspan68"
         style="font-style:normal;font-variant:normal;font-weight:normal;font-stretch:normal;font-size:4.23333px;font-family:sans-serif;-inkscape-font-specification:sans-serif;fill:#ffffff;fill-opacity:1;stroke:none;stroke-width:0.4;stroke-opacity:1"
         x="69.52858"
         y="13.431345">total FOV</tspan></text>
    <path
       id="path4"
       style="fill:url(#radialGradient11);stroke-width:0.499999;stroke-linecap:round;stroke-linejoin:round"
       d="m 79.379497,65.074668 c -9.63875,0.0204 -13.709243,17.757059 -13.709243,17.757059 0,0 -2.721377,3.816551 -0.794784,4.7041 0.811327,0.37377 1.076158,0.0315 1.141016,-0.39894 0.305321,3.311761 2.126758,14.574453 12.837461,14.344853 0.18292,-0.004 0.36221,-0.0131 0.5395,-0.0263 0.17763,0.0133 0.35727,0.0229 0.54054,0.0269 10.71122,0.22961 12.53227,-11.034233 12.83746,-14.345373 0.0648,0.43047 0.32968,0.77272 1.14101,0.39894 1.9266,-0.88755 -0.79478,-4.7041 -0.79478,-4.7041 0,0 -4.07049,-17.73614 -13.70924,-17.75654 l -0.0145,0.0171 z" />
    <g
       id="g76"
       transform="translate(-27.117123,-93.594733)">
      <path
         id="path5"
         style="fill:#000000;fill-opacity:1;stroke-width:0.682263;stroke-linecap:round;stroke-linejoin:round"
         d="m 101.39124,170.82363 a 2.6853862,1.1204258 0 0 0 -2.685034,1.12048 2.6853862,1.1204258 0 0 0 0.158932,0.3732 2.6853862,1.1204258 0 0 1 2.517472,-0.73582 2.6853862,1.1204258 0 0 1 2.52883,0.74375 2.6853862,1.1204258 0 0 0 0.16529,-0.38113 2.6853862,1.1204258 0 0 0 -2.68549,-1.12048 z" />
      <path
         id="path5-3"
         style="fill:#000000;fill-opacity:1;stroke-width:0.588704;stroke-linecap:round;stroke-linejoin:round"
         d="m 106.55681,165.43089 a 1.4896092,1.503864 0 0 0 -1.48941,1.50394 1.4896092,1.503864 0 0 0 0.0882,0.50092 1.4896092,1.503864 0 0 1 1.39646,-0.98764 1.4896092,1.503864 0 0 1 1.40277,0.99828 1.4896092,1.503864 0 0 0 0.0917,-0.51156 1.4896092,1.503864 0 0 0 -1.48967,-1.50394 z" />
      <ellipse
         style="fill:#000000;fill-opacity:1;stroke-width:0.499999;stroke-linecap:round;stroke-linejoin:round"
         id="path8"
         cx="106.56222"
         cy="162.38837"
         rx="3.2639074"
         ry="0.42548802" />
      <ellipse
         style="fill:#000000;fill-opacity:1;stroke-width:0.539366;stroke-linecap:round;stroke-linejoin:round"
         id="path9"
         cx="74.950272"
         cy="183.08978"
         rx="4.2514606"
         ry="0.51810217"
         transform="matrix(0.99448353,-0.10489287,0.1412052,0.98998035,0,0)" />
      <path
         id="path5-2"
         style="fill:#000000;fill-opacity:1;stroke-width:0.682263;stroke-linecap:round;stroke-linejoin:round"
         d="m 111.60728,170.77203 a 2.6853862,1.1204258 0 0 1 2.68504,1.12048 2.6853862,1.1204258 0 0 1 -0.15894,0.3732 2.6853862,1.1204258 0 0 0 -2.51747,-0.73582 2.6853862,1.1204258 0 0 0 -2.52883,0.74375 2.6853862,1.1204258 0 0 1 -0.16528,-0.38113 2.6853862,1.1204258 0 0 1 2.68548,-1.12048 z" />
      <ellipse
         style="fill:#000000;fill-opacity:1;stroke-width:0.539366;stroke-linecap:round;stroke-linejoin:round"
         id="path9-2"
         cx="-136.04803"
         cy="160.68146"
         rx="4.2514606"
         ry="0.51810217"
         transform="matrix(-0.99448353,-0.10489287,-0.1412052,0.98998035,0,0)" />
    </g>
    <path
       style="fill:#004dff;fill-opacity:0.40346718;stroke-width:0.778364;stroke-linecap:round;stroke-linejoin:round"
       id="path11-3"
       d="M 157.86727,-51.47932 A 57.936764,57.936764 0 0 1 107.7028,1.5619048 57.936764,57.936764 0 0 1 45.462159,-36.594992 l 54.635221,-19.278513 z"
       transform="matrix(0.97299298,0.23083472,0.23083472,-0.97299298,0,0)" />
    <path
       style="display:inline;fill:#44ff00;fill-opacity:0.39907652;stroke-width:0.778364;stroke-linecap:round;stroke-linejoin:round"
       id="path78"
       d="m 3.4771004,-88.107143 a 57.936764,57.936764 0 0 1 -50.1644714,53.041225 57.936764,57.936764 0 0 1 -62.240639,-38.156897 l 54.635224,-19.278513 z"
       transform="rotate(166.65378)" />
    <text
       xml:space="preserve"
       style="font-style:normal;font-variant:normal;font-weight:normal;font-stretch:normal;font-size:4.23333px;font-family:sans-serif;-inkscape-font-specification:sans-serif;text-align:center;text-anchor:middle;fill:#ffffff;fill-opacity:1;stroke:none;stroke-width:0.4;stroke-linecap:round;stroke-linejoin:round;stroke-dasharray:none;stroke-opacity:1"
       x="40.341576"
       y="65.551727"
       id="text69"><tspan
         id="tspan69"
         style="text-align:center;text-anchor:middle;stroke-width:0.4"
         x="40.341576"
         y="65.551727">left eye</tspan><tspan
         style="text-align:center;text-anchor:middle;stroke-width:0.4"
         x="40.341576"
         y="70.843391"
         id="tspan70">FOV</tspan></text>
    <text
       xml:space="preserve"
       style="font-style:normal;font-variant:normal;font-weight:normal;font-stretch:normal;font-size:4.23333px;font-family:sans-serif;-inkscape-font-specification:sans-serif;text-align:center;text-anchor:middle;fill:#ffffff;fill-opacity:1;stroke:none;stroke-width:0.4;stroke-linecap:round;stroke-linejoin:round;stroke-dasharray:none;stroke-opacity:1"
       x="119.88937"
       y="66.202049"
       id="text69-0"><tspan
         style="text-align:center;text-anchor:middle;stroke-width:0.4"
         x="119.88937"
         y="66.202049"
         id="tspan71">right eye</tspan><tspan
         style="text-align:center;text-anchor:middle;stroke-width:0.4"
         x="119.88937"
         y="71.493713"
         id="tspan70-3">FOV</tspan></text>
    <g
       id="g54"
       style="fill:#004dff;fill-opacity:1;stroke-width:1.88976;stroke-linecap:round;stroke-linejoin:round">
      <path
         id="path59"
         style="fill:#e9e9ff;fill-rule:evenodd;stroke:none;stroke-linejoin:round"
         d="m 79.417483,42.878992 -5.196272,2.534182 -0.02055,-6.350606 5.199316,-1.593327 z"
         points="74.221211,45.413174 74.200662,39.062568 79.399978,37.469241 79.417483,42.878992 " />
      <path
         id="path54"
         style="fill:#353564;fill-rule:evenodd;stroke:none;stroke-linejoin:round"
         d="m 84.568945,45.389033 -0.02076,-6.415523 -5.148207,-1.504269 0.0175,5.409751 z"
         points="84.548185,38.97351 79.399978,37.469241 79.417483,42.878992 84.568945,45.389033 " />
      <path
         id="path55"
         style="fill:#4d4d9f;fill-rule:evenodd;stroke:none;stroke-linejoin:round"
         d="m 84.568945,45.389033 -5.270263,3.640759 -5.077471,-3.616618 5.196272,-2.534182 z"
         points="79.298682,49.029792 74.221211,45.413174 79.417483,42.878992 84.568945,45.389033 " />
      <path
         id="path58"
         style="fill:#afafde;fill-rule:evenodd;stroke:none;stroke-linejoin:round"
         d="m 84.548185,38.97351 -5.274687,2.273324 -5.072836,-2.184266 5.199316,-1.593327 z"
         points="79.273498,41.246834 74.200662,39.062568 79.399978,37.469241 84.548185,38.97351 " />
      <path
         id="path57"
         style="fill:#d7d7ff;fill-rule:evenodd;stroke:none;stroke-linejoin:round"
         d="m 79.298682,49.029792 -0.02518,-7.782958 -5.072836,-2.184266 0.02055,6.350606 z"
         points="79.273498,41.246834 74.200662,39.062568 74.221211,45.413174 79.298682,49.029792 " />
      <path
         id="path56"
         style="fill:#8686bf;fill-rule:evenodd;stroke:none;stroke-linejoin:round"
         d="m 84.568945,45.389033 -5.270263,3.640759 -0.02518,-7.782958 5.274687,-2.273324 z"
         points="79.298682,49.029792 79.273498,41.246834 84.548185,38.97351 84.568945,45.389033 " />
    </g>
    <path
       style="display:inline;fill:#004dff;fill-opacity:1;stroke:#ffffff;stroke-width:0.4;stroke-linecap:round;stroke-linejoin:round;stroke-dasharray:none;stroke-opacity:1;marker-start:url(#Dot);marker-end:url(#DartArrow)"
       d="M 74.068617,76.511417 77.802718,48.549506"
       id="path65" />
    <text
       xml:space="preserve"
       style="font-style:normal;font-variant:normal;font-weight:normal;font-stretch:normal;font-size:4.23333px;font-family:sans-serif;-inkscape-font-specification:sans-serif;text-align:center;text-anchor:middle;fill:#ffffff;fill-opacity:1;stroke:none;stroke-width:0.4;stroke-linecap:round;stroke-linejoin:round;stroke-dasharray:none;stroke-opacity:1"
       x="79.313118"
       y="28.547564"
       id="text78"><tspan
         id="tspan78"
         style="fill:#ffffff;fill-opacity:1;stroke-width:0.4"
         x="79.313118"
         y="28.547564">binocular</tspan><tspan
         style="fill:#ffffff;fill-opacity:1;stroke-width:0.4"
         x="79.985947"
         y="33.839226"
         id="tspan80">overlap region </tspan></text>
    <path
       style="display:inline;fill:#004dff;fill-opacity:1;stroke:#ffffff;stroke-width:0.4;stroke-linecap:round;stroke-linejoin:round;stroke-dasharray:none;stroke-opacity:1;marker-start:url(#Dot);marker-end:url(#DartArrow)"
       d="M 84.536708,76.422986 80.802607,48.461075"
       id="path79" />
  </g>
</svg>
