<svg width="600" height="400" viewBox="0 0 158.75 105.833" xmlns:xlink="http://www.w3.org/1999/xlink" xmlns="http://www.w3.org/2000/svg"><defs><radialGradient xlink:href="#a" id="b" cx="73.861" cy="251.565" fx="73.861" fy="251.565" r="15.208" gradientTransform="matrix(2.0102 0 0 1.9916 -68.886 -408.32)" gradientUnits="userSpaceOnUse"/><linearGradient id="a"><stop style="stop-color:#fff;stop-opacity:1" offset="0"/><stop style="stop-color:#3c3c3c;stop-opacity:1" offset="1"/></linearGradient><marker style="overflow:visible" id="c" refX="0" refY="0" orient="auto" markerWidth="1" markerHeight="1" viewBox="0 0 1 1" preserveAspectRatio="xMidYMid"><path transform="scale(.5)" style="fill:#fff;fill-rule:evenodd;stroke:none" d="M5 0c0 2.76-2.24 5-5 5s-5-2.24-5-5 2.3-5 5-5c2.76 0 5 2.24 5 5z"/></marker></defs><path style="fill:#9c9c9c;fill-opacity:1;stroke:none;stroke-width:.4;stroke-linecap:round;stroke-linejoin:round;stroke-dasharray:none;stroke-opacity:1" d="M8.34 87.948a71.979 71.979 0 0 1 31.718-71.914 71.979 71.979 0 0 1 78.597-.023 71.979 71.979 0 0 1 31.761 71.894L79.375 76.326Z"/><text xml:space="preserve" style="font-size:4.23333px;font-family:FreeSerif;-inkscape-font-specification:'FreeSerif, Normal';fill:#9c9c9c;fill-opacity:1;stroke:none;stroke-width:.4;stroke-linecap:round;stroke-linejoin:round;stroke-dasharray:none;stroke-opacity:1" x="69.529" y="13.431"><tspan style="font-style:normal;font-variant:normal;font-weight:400;font-stretch:normal;font-size:4.23333px;font-family:sans-serif;-inkscape-font-specification:sans-serif;fill:#fff;fill-opacity:1;stroke:none;stroke-width:.4;stroke-opacity:1" x="69.529" y="13.431">total FOV</tspan></text><path style="fill:url(#b);stroke-width:.499999;stroke-linecap:round;stroke-linejoin:round" d="M79.38 65.075c-9.64.02-13.71 17.757-13.71 17.757s-2.721 3.816-.795 4.704c.812.374 1.077.031 1.141-.4.306 3.313 2.127 14.575 12.838 14.346a9.52 9.52 0 0 0 .54-.027c.177.014.357.023.54.027 10.711.23 12.532-11.034 12.837-14.345.065.43.33.773 1.141.399 1.927-.888-.794-4.704-.794-4.704s-4.07-17.736-13.71-17.757l-.014.017z"/><g transform="translate(-27.117 -93.595)"><path style="fill:#000;fill-opacity:1;stroke-width:.682263;stroke-linecap:round;stroke-linejoin:round" d="M101.391 170.824a2.685 1.12 0 0 0-2.685 1.12 2.685 1.12 0 0 0 .16.373 2.685 1.12 0 0 1 2.517-.736 2.685 1.12 0 0 1 2.528.744 2.685 1.12 0 0 0 .166-.38 2.685 1.12 0 0 0-2.686-1.121z"/><path style="fill:#000;fill-opacity:1;stroke-width:.588704;stroke-linecap:round;stroke-linejoin:round" d="M106.557 165.43a1.49 1.504 0 0 0-1.49 1.505 1.49 1.504 0 0 0 .089.5 1.49 1.504 0 0 1 1.396-.987 1.49 1.504 0 0 1 1.403.998 1.49 1.504 0 0 0 .092-.511 1.49 1.504 0 0 0-1.49-1.504z"/><ellipse style="fill:#000;fill-opacity:1;stroke-width:.499999;stroke-linecap:round;stroke-linejoin:round" cx="106.562" cy="162.388" rx="3.264" ry=".425"/><ellipse style="fill:#000;fill-opacity:1;stroke-width:.539366;stroke-linecap:round;stroke-linejoin:round" cx="74.95" cy="183.09" rx="4.251" ry=".518" transform="matrix(.99448 -.1049 .1412 .98998 0 0)"/><path style="fill:#000;fill-opacity:1;stroke-width:.682263;stroke-linecap:round;stroke-linejoin:round" d="M111.607 170.772a2.685 1.12 0 0 1 2.685 1.12 2.685 1.12 0 0 1-.159.374 2.685 1.12 0 0 0-2.517-.736 2.685 1.12 0 0 0-2.529.744 2.685 1.12 0 0 1-.165-.381 2.685 1.12 0 0 1 2.685-1.121z"/><ellipse style="fill:#000;fill-opacity:1;stroke-width:.539366;stroke-linecap:round;stroke-linejoin:round" cx="-136.048" cy="160.681" rx="4.251" ry=".518" transform="matrix(-.99448 -.1049 -.1412 .98998 0 0)"/></g><path style="fill:#004dff;fill-opacity:.40346718;stroke-width:.778364;stroke-linecap:round;stroke-linejoin:round" d="M157.867-51.48a57.937 57.937 0 0 1-50.164 53.042 57.937 57.937 0 0 1-62.24-38.157l54.634-19.279z" transform="scale(1 -1) rotate(-13.346)"/><path style="display:inline;fill:#4f0;fill-opacity:.39907652;stroke-width:.778364;stroke-linecap:round;stroke-linejoin:round" d="M3.477-88.107a57.937 57.937 0 0 1-50.164 53.041 57.937 57.937 0 0 1-62.241-38.157L-54.293-92.5z" transform="rotate(166.654)"/><text xml:space="preserve" style="font-style:normal;font-variant:normal;font-weight:400;font-stretch:normal;font-size:4.23333px;font-family:sans-serif;-inkscape-font-specification:sans-serif;text-align:center;text-anchor:middle;fill:#fff;fill-opacity:1;stroke:none;stroke-width:.4;stroke-linecap:round;stroke-linejoin:round;stroke-dasharray:none;stroke-opacity:1" x="40.342" y="65.552"><tspan style="text-align:center;text-anchor:middle;stroke-width:.4" x="40.342" y="65.552">left eye</tspan><tspan style="text-align:center;text-anchor:middle;stroke-width:.4" x="40.342" y="70.843">FOV</tspan></text><text xml:space="preserve" style="font-style:normal;font-variant:normal;font-weight:400;font-stretch:normal;font-size:4.23333px;font-family:sans-serif;-inkscape-font-specification:sans-serif;text-align:center;text-anchor:middle;fill:#fff;fill-opacity:1;stroke:none;stroke-width:.4;stroke-linecap:round;stroke-linejoin:round;stroke-dasharray:none;stroke-opacity:1" x="119.889" y="66.202"><tspan style="text-align:center;text-anchor:middle;stroke-width:.4" x="119.889" y="66.202">right eye</tspan><tspan style="text-align:center;text-anchor:middle;stroke-width:.4" x="119.889" y="71.494">FOV</tspan></text><g style="fill:#004dff;fill-opacity:1;stroke-width:1.88976;stroke-linecap:round;stroke-linejoin:round"><path style="fill:#e9e9ff;fill-rule:evenodd;stroke:none;stroke-linejoin:round" d="m79.417 42.879-5.196 2.534-.02-6.35 5.199-1.594z"/><path style="fill:#353564;fill-rule:evenodd;stroke:none;stroke-linejoin:round" d="m84.569 45.389-.02-6.415-5.149-1.505.017 5.41z"/><path style="fill:#4d4d9f;fill-rule:evenodd;stroke:none;stroke-linejoin:round" d="m84.569 45.389-5.27 3.64-5.078-3.616 5.196-2.534z"/><path style="fill:#afafde;fill-rule:evenodd;stroke:none;stroke-linejoin:round" d="m84.548 38.974-5.275 2.273-5.072-2.184 5.199-1.594z"/><path style="fill:#d7d7ff;fill-rule:evenodd;stroke:none;stroke-linejoin:round" d="m79.299 49.03-.025-7.783-5.073-2.184.02 6.35z"/><path style="fill:#8686bf;fill-rule:evenodd;stroke:none;stroke-linejoin:round" d="m84.569 45.389-5.27 3.64-.025-7.782 5.274-2.273z"/></g><path style="display:inline;fill:#004dff;fill-opacity:1;stroke:#fff;stroke-width:.4;stroke-linecap:round;stroke-linejoin:round;stroke-dasharray:none;stroke-opacity:1;marker-start:url(#c);marker-end:url(#DartArrow)" d="m74.069 76.511 3.734-27.961"/><text xml:space="preserve" style="font-style:normal;font-variant:normal;font-weight:400;font-stretch:normal;font-size:4.23333px;font-family:sans-serif;-inkscape-font-specification:sans-serif;text-align:center;text-anchor:middle;fill:#fff;fill-opacity:1;stroke:none;stroke-width:.4;stroke-linecap:round;stroke-linejoin:round;stroke-dasharray:none;stroke-opacity:1" x="79.313" y="28.548"><tspan style="fill:#fff;fill-opacity:1;stroke-width:.4" x="79.313" y="28.548">binocular</tspan><tspan style="fill:#fff;fill-opacity:1;stroke-width:.4" x="79.986" y="33.839">overlap region </tspan></text><path style="display:inline;fill:#004dff;fill-opacity:1;stroke:#fff;stroke-width:.4;stroke-linecap:round;stroke-linejoin:round;stroke-dasharray:none;stroke-opacity:1;marker-start:url(#c);marker-end:url(#DartArrow)" d="m84.537 76.423-3.734-27.962"/></svg>