<svg xmlns="http://www.w3.org/2000/svg" width="810" height="607.45"><defs><clipPath clipPathUnits="userSpaceOnUse" id="a"><path d="M0 595.28h841.89V0H0v595.28z"/></clipPath><clipPath clipPathUnits="userSpaceOnUse" id="b"><path d="M648.141 325.083c-.2-.073-.403-.146-.604-.223-.532-.052-1.052-.206-1.537-.581-5.607-.792-10.929-2.495-16.002-4.994-1.587-.444-3.189-.839-4.758-1.338-10.086-3.204-94.908-29.416-106.627-31.644-1.069-.202-16.597-3.951-33.01-8.021a43.793 43.793 0 01-.449-.126c-1.173-.377-9.642-2.451-16.15-4.03-9.586-2.43-17.725-4.56-21.162-5.616-3.671-1.44-10.474-4.234-14.953-6.215-1.844-.981-3.264-1.773-3.711-2.039a34.973 34.973 0 01-2.18-1.414c-13.615-11.949-17.884-27.944-18.663-45.452-.333-1.718-.484-27.049-.537-34.442.556-6.764-.597-28.832 5.493-54.577.565-1.784 1.182-3.413 1.857-4.837 1.602-2.46 3.572-4.651 5.98-6.426.071-.02.139-.052.212-.07 7.035-1.728 17.547-2.349 23.999-1.059 29.689 5.931 136.261 43.638 160.609 53.533l16.026 6.85c4.62 1.806 9.182 3.72 12.988 7.031-.413.333 22.387 18.364 25.8 35.115 1.619 7.948 5.886 27.691 7.849 39.029 2.327 22.024 1.979 42.542.488 53.229v-.015l-.001.018c-.247 5.96-.416 11.945-4.999 16.601l-.182-.13c-.136.01-.269.04-.401.069l-.173-.123c-1.967.15-4.146 1.826-8.004 2.34-.114-.082-.223-.149-.339-.245a6.848 6.848 0 01-.919.361 16.97 16.97 0 01-1 .029c-1.433 0-3.066-.17-4.94-.588"/></clipPath><clipPath clipPathUnits="userSpaceOnUse" id="d"><path d="M0 595.28h841.89V0H0v595.28z"/></clipPath><clipPath clipPathUnits="userSpaceOnUse" id="e"><path d="M533.433 337.155c-.727-.319-1.435-.688-2.15-1.035-6.37-3.457-12.674-7.076-20.073-7.928a7.75 7.75 0 00-.283-.866c1.034-.37 2.067-.739 3.102-1.107 5.676.538 10.092-3.475 15.537-4.053-9.039-4.073-18.631-5.714-27.773-8.797-1.418-.498-2.846-.744-4.329-.862-2.71-.217-5.622.014-9.042.089-.168.003-.325.009-.495.013l.15.095 7.398 4.708-.004.026c-2.02.505-3.666.059-5.191-.387-1.141-.334-2.214-.667-3.325-.603-3.328-1.275-6.635-1.447-10.168-.583-6.252 1.528-12.387-.069-18.541-1.178-8.728-1.573-17.494-2.949-26.243-4.408l-.438-.036c-5.204-.452-10.428-.738-15.534-1.973a18.417 18.417 0 00-.087-.006l-14.117-.805-21.815-1.245c-2.744-.052-7.69-.222-12.627-.395a6183.5 6183.5 0 00-7.502-.339 200.82 200.82 0 01-7.897-.251c-4.222-.672-8.502-.946-12.736-1.528-2.436-.334-9.128-1.479-10.073-1.484l-.003-.001c-.022-.01-9.855-3.076-10.192-3.156-2.689-.643-7.362-3.065-10.292-4.663l-.596-.387c-.664-.35-1.33-.698-1.995-1.048l-1.123-.59c-3.794-3.049-7.12-6.505-9.507-10.794-.153-.274-.311-.548-.469-.822-.569-.986-1.136-1.972-1.469-2.997.349-.583.642-1.24.851-1.994.438-1.583.633-3.176.716-4.781 1.825-1.707 1.092-3.945.895-5.913a641.309 641.309 0 01-.297-3.018c.462-1.477.255-3.023-.389-4.414-.194-2.4-.337-4.802-.42-7.208-2.48-33.028.2-53.217 4.395-65.643 3.509-9.601 7.793-12.713 10.777-15.376a21.624 21.624 0 015.936-5.132l-1.067-1.164c5.707-2.261 10.499-6.154 15.925-8.918l.004-.003c4.157-3.806 9.139-6.33 14.019-9.012l-.001-.001c4.026-3.517 8.864-5.802 13.479-8.301 7.823-4.234 15.006-9.765 23.673-12.361l-2.754 2.623c-.98.617-1.889 1.3-2.758 2.019-2.921 2.414-5.273 5.347-7.336 8.545-.317.491-.63.983-.934 1.484l-5.702 13.285-.507 1.84-.868 3.149-.574 2.08c.407 2.575-1.5 4.851-1.05 7.433.015.089.027.178.047.269l-1.013 6.276-.302 22.662.998 18.088 1.27 11.898c1.871 7.282 3.207 14.712 6.019 21.733l2.965 5.09c1.316 1.651 2.63 3.303 3.945 4.955l.08.101c.302.002 9.503 11.574 22.032 15.105 2.877.636 5.687 1.458 8.264 2.94l31.579 6.097c11.265 1.416 22.446 3.335 33.586 5.486 2.797.539 5.592 1.091 8.386 1.656 20.107 2.888 39.762 7.88 59.424 12.827 30.765 7.743 60.141 19.197 88.546 33.235.143.047.286.102.428.153 3.92 1.396 7.619 3.712 11.801 4.036 1.406.171 2.865.132 4.405-.245-4.218 3.129-9.1 4.666-14.113 5.887l-.002-.001c-3.509 2.032-7.524 2.607-11.334 3.613-15.058 3.978-30.003 8.505-45.529 10.457-1.606.97-3.394 1.032-5.182.975-4.078-.132-8.106-.039-11.803 2.023-.646-13.481-9.476-20.251-20.608-25.139m-153.421-30.941c.353-.155.711-.271 1.068-.391a3 3 0 00-1.068.391m-51.275-142.816c-4.24 1.66-8.099 3.82-11.671 6.384-2.66 1.457-4.82 3.241-6.625 5.516a71.225 71.225 0 00-2.456 2.46c-1.264 1.335-2.592 2.61-2.98 4.515-1.57 2.55-8.994 31.348-8.895 33.522.196 4.27-.306 8.574-.16 12.844.112 3.285.088 6.578.216 9.854.064 1.65.17 3.297.35 4.935.311 2.828.849 5.634 1.81 8.402.83 2.394 1.897 4.611 3.65 6.463h.002c6.885 7.143 14.532 5.761 22.265 1.811 3.366-1.719 6.508-3.877 9.751-5.834.212-.297.431-.591.649-.883 1.856-2.481 3.878-4.853 5.108-7.745.064-.151.138-.296.198-.45v-.001l-.021-.101c3.342-6.613 3.535-15.51 3.935-22.623.274-4.86.38-9.597.243-14.311.032-2.84-.681-17.975-1.041-20.548l-.005-.077c-.008-.044-.016-.068-.024-.106a1.428 1.428 0 00-.033-.148l-.017-1.058v-.005l-.029-1.913-.001-.001h.001l.015-8.012c-.45-2.449-.647-4.977-1.4-7.328-1.416-4.43-4.259-6.586-7.985-6.586-1.488 0-3.116.344-4.85 1.024m-33.787 77.45l-.028-28.031v-.02c-1.3 9.349-1.201 18.7.028 28.051m51.059-22.551l.005-.01-.005-.001v.011z"/></clipPath><clipPath clipPathUnits="userSpaceOnUse" id="g"><path d="M0 595.28h841.89V0H0v595.28z"/></clipPath><clipPath clipPathUnits="userSpaceOnUse" id="h"><path d="M637.599 339.585c-3.949-.478-7.486-2.65-11.227-3.982-.142-.052-.284-.106-.427-.154-28.405-14.038-57.782-25.492-88.547-33.234-19.661-4.948-39.316-9.94-59.424-12.827a926.49 926.49 0 00-8.385-1.656c-11.141-2.152-22.321-4.07-33.587-5.486l-31.579-6.097c-2.577-1.482-5.386-2.304-8.264-2.94-2.665-1.518-5.977-1.66-8.3-3.903-4.212-3.781-9.673-6.117-12.834-11.111a4.676 4.676 0 00-.898-.091 33.95 33.95 0 01-.08-.101l-3.944-4.956-2.966-5.089c-2.812-7.022-4.148-14.451-6.018-21.733l-1.271-11.899-.998-18.087.302-22.663 1.014-6.275c-.021-.091-.033-.18-.048-.27-.45-2.582 1.457-4.857 1.05-7.432l.574-2.08.868-3.15.508-1.839c1.899-4.429 3.8-8.858 5.701-13.285.304-.501.617-.994.934-1.485 2.063-3.197 4.415-6.131 7.336-8.544a26.635 26.635 0 012.759-2.02l3.097-2.948c-.31.084-.612.181-.918.272l.343-.325c8.05-4.985 36.946-10.821 40.181-11.503-.49.11-1.374.318-1.286.311-.047.034-.091.071-.137.105-2.371.701-4.345 2.985-5.98 6.426a30.045 30.045 0 00-1.131 1.874c-.255.994-.494 1.979-.726 2.963-8.043 25.358-5.405 83.873-5.38 83.918.323 1.663-2.286 35.552 19.087 50.553a55.49 55.49 0 001.606 1.36c.385.312 2.044 1.1 4.285 2.093 4.571 2.427 11.757 6.008 13.259 5.611.179.112.766.319 1.694.604 1.213.477 2.088.808 2.418.909 1.836.719 10.435 2.702 11.082 2.855 0 0 3.413.821 7.662 1.852a3338.93 3338.93 0 0016.599 4.156c1.754.488 8.306 2.28 11.811 2.953 1.857.853 18.346 4.582 20.625 5.015 11.719 2.228 96.541 28.439 106.627 31.644 1.568.499 3.171.893 4.758 1.337 5.073 2.499 10.395 4.203 16.002 4.995.485.374 1.005.529 1.537.58.409.109.791.19 1.178.277 1.924.702 3.867 1.217 5.94.559.438-.025.858-.063 1.258-.116 3.474 2.531 5.416-1.63 8.177-2.217l.009.007c-1.535 3.891-5.561 5.093-8.3 7.684l-1.725.22c-3.24 3.86-8.653 4.471-12.07 8.066-.973.238-1.913.339-2.828.339-.338 0-.672-.014-1.003-.04M453.6 275.341l-.69.018-.892.896 2.817 1.126 2.182.873 17.863 4.165 1.089-1.099-.723-.207-10.424-2.984-8.526-2.443c-.43.157-.903-.067-1.326-.378l-1.37.033m-71.677-42.084c-.108 2.958 1.211 3.993 4.037 3.002l1.581-.996 1.509-.952.197-.05c2.518-3.403 5.616-6.405 8.972-9.033.064-.335.12-.674.163-1.019.066-.522.106-1.056.126-1.599.008-.462.007-.925.01-1.386a28.844 28.844 0 00-.121-1.996c-.278-2.91-.35-5.843-.368-8.779-.017-2.657.008-5.319-.038-7.974l-.002-.181s-.968-24.036-.976-36.02c-.109-2.048.126-4.056.53-6.044a6.442 6.442 0 01-1.513-2.479c-5.051-1.45-10.091-2.968-15.384-2.792-.301.158-.606.309-.9.478a7.234 7.234 0 01-.409.225c-.064.061-.141.135-.252.233l-.081.073c-.188.617-.264 1.291-.361 1.914a15.31 15.31 0 01-.789 3.015c1.165 1.31 1.152 3.099 1.146 4.911-.012 3.156 1.189 55.613 1.785 59.683l1.139 7.767-.001-.001m-13.924-19.977l2.01-1.988 1.014-1.002-.004-25.718v-.286c-.023-4.596.083-9.197-.113-13.786-.112-2.627-1.006-4.748-3.879-4.416-.32.037-.66.096-1.032.198 1.719 8.126 1.336 16.417 1.603 24.627.11 3.377-.518 6.899-.603 10.372-.001.095.001.192.002.287.002 1.04.062 2.089-.046 3.112-.074.695-.229 1.377-.547 2.034a1.952 1.952 0 01-.353.63c.457 2.152-1.288 3.537-2.058 5.202 1 .767 2.006.744 2.98.722.162-.004.323-.007.482-.007.183 0 .364.004.544.019"/></clipPath><clipPath clipPathUnits="userSpaceOnUse" id="j"><path d="M0 595.28h841.89V0H0v595.28z"/></clipPath><linearGradient x1="0" y1="0" x2="1" y2="0" gradientUnits="userSpaceOnUse" gradientTransform="scale(110.83693 -110.83693) rotate(52.638 4.844 3.134)" spreadMethod="pad" id="c"><stop offset="0" stop-color="#e6e6ea"/><stop offset=".488" stop-color="#1d1d1b"/><stop offset="1" stop-color="#1d1d1b"/></linearGradient><linearGradient x1="0" y1="0" x2="1" y2="0" gradientUnits="userSpaceOnUse" gradientTransform="scale(53.54846 -53.54846) rotate(-65.714 .835 -8.206)" spreadMethod="pad" id="f"><stop offset="0" stop-color="#c7c8cc"/><stop offset=".34" stop-color="#fff"/><stop offset=".899" stop-color="#d8d8d8"/><stop offset="1" stop-color="#d8d8d8"/></linearGradient><linearGradient x1="0" y1="0" x2="1" y2="0" gradientUnits="userSpaceOnUse" gradientTransform="scale(79.90397 -79.90397) rotate(-65.344 1.185 -5.65)" spreadMethod="pad" id="i"><stop offset="0" stop-color="#1d1d1b"/><stop offset=".34" stop-color="#838382"/><stop offset=".899" stop-color="#1d1d1b"/><stop offset="1" stop-color="#1d1d1b"/></linearGradient></defs><g clip-path="url(#a)" transform="matrix(1.62047 0 0 -1.62047 -281.182 782.795)"><path d="M233.658 476.482l.67.144a1.34 1.34 0 01-.67-.144" fill="#141414"/></g><g clip-path="url(#b)" transform="matrix(1.62047 0 0 -1.62047 -281.182 782.795)"><path d="M648.141 325.083c-.2-.073-.403-.146-.604-.223-.532-.052-1.052-.206-1.537-.581-5.607-.792-10.929-2.495-16.002-4.994-1.587-.444-3.189-.839-4.758-1.338-10.086-3.204-94.908-29.416-106.627-31.644-1.069-.202-16.597-3.951-33.01-8.021a43.793 43.793 0 01-.449-.126c-1.173-.377-9.642-2.451-16.15-4.03-9.586-2.43-17.725-4.56-21.162-5.616-3.671-1.44-10.474-4.234-14.953-6.215-1.844-.981-3.264-1.773-3.711-2.039a34.973 34.973 0 01-2.18-1.414c-13.615-11.949-17.884-27.944-18.663-45.452-.333-1.718-.484-27.049-.537-34.442.556-6.764-.597-28.832 5.493-54.577.565-1.784 1.182-3.413 1.857-4.837 1.602-2.46 3.572-4.651 5.98-6.426.071-.02.139-.052.212-.07 7.035-1.728 17.547-2.349 23.999-1.059 29.689 5.931 136.261 43.638 160.609 53.533l16.026 6.85c4.62 1.806 9.182 3.72 12.988 7.031-.413.333 22.387 18.364 25.8 35.115 1.619 7.948 5.886 27.691 7.849 39.029 2.327 22.024 1.979 42.542.488 53.229v-.015l-.001.018c-.247 5.96-.416 11.945-4.999 16.601l-.182-.13c-.136.01-.269.04-.401.069l-.173-.123c-1.967.15-4.146 1.826-8.004 2.34-.114-.082-.223-.149-.339-.245a6.848 6.848 0 01-.919.361 16.97 16.97 0 01-1 .029c-1.433 0-3.066-.17-4.94-.588" fill="url(#c)"/></g><g clip-path="url(#d)" transform="matrix(1.62047 0 0 -1.62047 -281.182 782.795)"><path d="M195.83 383.015c-.12-.06-.222-.121-.331-.183l.164-.308c.53-.022 1.046-.015 1.556.008-.448.179-.906.346-1.39.483" fill="#101010"/><path d="M221.262 465.408c7.1 1.618 14.222 3.127 21.336 4.674.033.013.063.029.095.04.203.066.404.109.614.145.158.028 2.861.365 2.861.365s.74-5.19.78-5.226v-.001c-8.292-.98-16.297-3.351-24.449-5.006-1.61-.326-3.847-1.621-4.432 1.289-.469 2.333 1.335 3.296 3.195 3.72m22.392 4.92c-.406-.036.531.1 0 0m-29.75-17.691c.383.364.632.917.885 1.47.068.152.14.28.212.396.024.037.048.067.072.1.033.044.067.087.103.13.037.044.073.09.111.127.491.46 1.056.255 1.671-.537 2.36-2.42 6.096 1.449 8.44-2.063-3.798-1.756-8.514-1.476-11.386-5.077l.157.026c.666.354 1.323.707 1.966 1.064 3.08 1.709 6.822 1.649 10.157 2.468 3.275.804 6.443 1.997 9.72 2.776 3.12.743 6.133.9 9.251 1.09l.138.077.684.378c-.299 1.72-1.317 3.397-.318 5.198l1.325 3.769-.03.285.03-.285c4.894 3.203 3.576 8.676 4.828 13.21l-8.414-1.711-9.967-2.027c-.845-.36-1.852-.472-2.737-.74-3.436-1.034-7.15-.966-10.348-2.583.096.01.115-.228.193-.206 5.752.303 11.091 2.686 16.814 2.68l.013-.002a3.346 3.346 0 00-.334-.08c-6.723-1.114-13.43-2.316-19.95-4.368-.416.06-1.127.01-1.196.197-.33.892.607 1.186 1.017 1.739h.001c-3.609 1.647-.167 1.767.526 1.913 5.752 1.212 11.532 2.29 17.304 3.408l-1.184 1.024c-6.659-1.13-13.322-2.237-19.972-3.413-.762-.135-1.948-.504-2.105-1.017-1.29-4.243-2.477-8.522-3.502-12.836-.638-2.69 2.304-2.706 3.388-4.116.554-.72.558-1.864.811-2.817.756-.175 1.254 0 1.626.353" fill="#0f0f0f"/><path d="M217.284 470.194l-.272-.056c-.014-.018-.032-.033-.045-.05.106.034.212.071.317.106" fill="#0f0f0f"/><path d="M216.967 470.088l.044.05c-.41-.553-1.346-.847-1.016-1.74.069-.186.78-.137 1.195-.196 6.52 2.052 13.227 3.254 19.95 4.368.099.017.214.047.335.08-.005 0-.01 0-.013.003-5.724.005-11.063-2.378-16.814-2.681-.08-.023-.098.217-.194.206 3.198 1.617 6.912 1.549 10.348 2.584.885.266 1.892.379 2.738.739a93610.16 93610.16 0 01-16.256-3.307c-.105-.035-.211-.072-.317-.106" fill="#0f0f0f"/><path d="M177.174 393.235c-.024 0-.042.005-.066.004.019-.064.042-.061.066-.004" fill="#2a2a2a"/><path d="M234.843 475.458h-.001c-5.771-1.118-11.552-2.195-17.304-3.408-.693-.146-4.135-.265-.527-1.911l.273.055c3.222 1.058 6.398 2.446 9.679 3.176 3.084.685 6.238.911 9.316 1.596 2.355.525 4.962 1.049 7.227.561l8.414 1.712-.002 1.074c-.155 1.533-1.083 1.861-2.426 1.572-5.054-1.089-10.11-2.174-15.164-3.259l-.67-.144 1.184-1.023v-.001z" fill="#252525"/><path d="M236.278 474.966c-3.078-.685-6.232-.91-9.316-1.597-3.28-.729-6.457-2.117-9.678-3.175 5.418 1.103 10.837 2.204 16.255 3.306l9.966 2.027c-2.264.487-4.872-.036-7.227-.56" fill="#252525"/><path d="M212.278 452.284l-1.301-1.989a3.09 3.09 0 011.955.957c-.218.2-.436.533-.654 1.032" fill="#343434"/><path d="M213.977 449.84c1.109 1.403 1.997 2.98 2.982 4.482h-.001c-1.795.416-1.476-1.285-2.031-2.074-.707-1.006-1.355-1.581-1.995-.995a3.088 3.088 0 00-1.955-.958c.79-1.544 1.882-1.868 3-.455" fill="#343434"/><path d="M213.904 452.637c-.372-.352-.87-.528-1.626-.353.218-.5.436-.832.654-1.031.386.397.689.879.972 1.384" fill="#343434"/><path d="M215.288 454.86c-.038-.037-.075-.084-.112-.127a6.528 6.528 0 01-.103-.13c-.023-.034-.048-.063-.071-.1a3.411 3.411 0 01-.213-.395c-.252-.555-.501-1.107-.885-1.472-.283-.505-.586-.987-.972-1.384.64-.585 1.288-.01 1.995.995.555.79.236 2.491 2.03 2.075h.002c-.615.792-1.18.997-1.671.537" fill="#343434"/><path d="M284.999 304.28l1.965 1.992h-.001l-1.097 2.459c-2.78-2.031-4.125-5.031-5.471-8.03a834.06 834.06 0 011.683-1.346c.663-.53 1.825-1.557 2.718-2.26.17-.005.342-.03.516-.073l.042-.008c.199-.053.4-.124.604-.227.068-.184.124-.368.181-.553l2.871-1.944c.137-.146 2.238-1.56 2.308-1.708 1.32-.758 1.742-9.673 1.686-21.45.092.06.179.122.275.179.265.15.534.267.806.36.013.955.009 1.537-.017 1.6-1.753 2.844-.409 5.162.932 7.485.158.275.316.548.469.822 2.387 4.289 5.714 7.745 9.507 10.794-6.348 2.853-12.671 5.763-19.059 8.524-1.967.85-2.983 1.606-.918 3.385m14.284-119.493c-3.54 9.688-6.29 25.983-6.115 55.1.013 2.3.735 22.701.894 30.432l-.038-.033a6.593 6.593 0 01-1.022.467c-.11-19.574-1.511-46.815-2.311-57.765-.065-5.256-.76-3.96-3.695-2.714a84.966 84.966 0 01-1.618 2.293c-.191.264-.39.522-.583.782a91.91 91.91 0 01-1.096 1.452c-.24.308-.483.614-.727.92-.333.42-.67.838-1.01 1.254a106.517 106.517 0 01-1.784 2.115c-.291.335-.58.67-.874 1-.315.355-.635.707-.955 1.058-.311.341-.62.684-.934 1.021-.297.32-.6.633-.901.95-.925.971-1.862 1.932-2.818 2.875-.002-.06-.008-.13-.01-.186a234.256 234.256 0 01-3.76 3.764l-.091.085-.54.498c-.5.46-1.02.936-1.06.975l-.18.167c-.038-1.41-.856-11.38.03-14.99 1.52-11.472 5.9-21.626 13.867-30.129 2.442-3.55 5.548-6.424 9.046-8.9 1.917-2.247 4.509-3.592 6.923-5.175 5.327-3.64 11.237-6.183 17.007-8.988.355.388.71.776 1.067 1.163-1.354.801-10.628 2.49-16.712 20.51" fill="#0c0c0c"/><path d="M293.28 271.31c-.097-.057-.184-.119-.276-.178l-.003-.379a6.64 6.64 0 001.023-.466l.037.033c.011.511.02.96.024 1.351a4.67 4.67 0 01-.806-.36m-7.925 25.703c-.014.004-.028.005-.042.008a2.69 2.69 0 01-.505.066c.535-.42.972-.722 1.144-.727l.188-.127c-.057.185-.113.369-.18.553a2.928 2.928 0 01-.604.227" fill="#0c0c0c"/><path d="M285.312 297.022a2.518 2.518 0 01-.516.074l.011-.009c.167-.006.335-.025.505-.065m.042-.008" fill="#0c0c0c"/><path d="M222.5 460.399c8.152 1.654 16.156 4.026 24.447 5.005-.04.037-.78 5.227-.78 5.227s-2.701-.336-2.86-.364a4.416 4.416 0 01-.613-.144c-.032-.013-.063-.03-.095-.041-7.115-1.547-14.237-3.057-21.336-4.674-1.86-.424-3.665-1.387-3.196-3.72.584-2.911 2.821-1.616 4.432-1.29" fill="#878787"/><path d="M243.654 470.33c.53.1-.406-.039 0 0m-.487-.125c.04-.09.096-.167.138-.255-.01.082-.03.173-.047.26-.032-.003-.059-.002-.09-.005" fill="#646464"/><path d="M382.866 332.481c-1.637.024-3.273.043-4.87-.345 0-.077 1.798.054 4.87.345m6.136.702c-.12-.046-.242-.083-.362-.124l.31.033c.018.03.03.061.051.091" fill="#272727"/><path d="M388.95 333.092l.052.005v.086c-.021-.03-.033-.061-.051-.091" fill="#272727"/><path d="M388.64 333.06a643.236 643.236 0 00-5.774-.58c1.945-.027 3.891-.056 5.773.58M226.292 450.74c-3.335-.818-7.078-.758-10.157-2.467-.643-.357-1.3-.71-1.966-1.064 1.435.22 2.86.49 4.275.79 8.564 1.825 16.851 4.883 25.591 5.93l1.228.679c-3.118-.19-6.133-.348-9.25-1.091-3.278-.78-6.447-1.972-9.72-2.776m302.904-83.266c-4.706 4.339-9.734 2.919-14.678 2.153 4.658-1.41 9.263-3.231 14.678-2.153m-48.895-24.345c.56.161 1.503.441.864 1.204-.45.538-1.42.64-2.16.937-.32-3.015-2.44-1.084-3.71-1.262-1.768-.247-3.456-1.174-5.315-.719 3.418-1.476 6.869-1.157 10.32-.16" fill="#2e2e2e"/><path d="M476.905 344.997a66.673 66.673 0 01-2.148-.276c.735-.214 1.458-.223 2.148.276" fill="#2e2e2e"/><path d="M475.297 344.01c1.27.178 3.389-1.753 3.71 1.26l-.001.002a52.203 52.203 0 00-2.101-.275c-.69-.5-1.413-.49-2.148-.276-1.644-.244-3.26-.612-4.776-1.431 1.859-.454 3.546.472 5.316.72m-86.347-10.918l-.311-.032c-1.882-.636-3.827-.608-5.773-.58-3.072-.29-4.87-.421-4.87-.344.419-.603.516-1.155.238-1.648 2.243.257 4.487.493 6.738.627 1.305.212 2.589.54 3.834 1.087-.083.302-.025.598.145.89" fill="#2e2e2e"/><path d="M388.806 332.202c.064.028.13.047.194.077 0 .272 0 .545.002.818l-.051-.005c-.17-.292-.228-.588-.145-.89m-10.686-1.889c2.264.382 4.586.435 6.853.803-2.252-.135-4.496-.37-6.74-.628a1.402 1.402 0 00-.112-.175m-.125 1.823l-.003-1.676.24.028c.279.493.182 1.045-.237 1.648" fill="#2e2e2e"/><path d="M377.993 330.46v-.166l.128.019c.044.057.08.116.113.175-.08-.01-.161-.02-.241-.028" fill="#2e2e2e"/><path d="M514.9 369.627c4.942.767 9.971 2.186 14.677-2.153-5.415-1.077-10.02.744-14.678 2.153m-34.218-26.498c-3.452-.996-6.903-1.315-10.32.161 1.517.818 3.132 1.187 4.775 1.431.714.106 1.431.192 2.15.276.701.082 1.403.165 2.1.274.74-.297 1.71-.399 2.16-.937.638-.763-.305-1.043-.865-1.205m61.878 24.393c-.914 1.324-2.3 1.423-3.572.984-4.602-1.589-33.613 18.772-36.023 20.108-16.793 9.312-33.667 18.48-50.515 27.692-5.49.441-10.279 2.932-15.175 5.147-2.82 1.276-5.502 3.051-8.792 2.97-.34 1.017-1.147 1.51-2.093 1.863-7.28 2.716-14.32 6.083-21.877 8.05-6.22 2.735-12.686 4.767-19.178 6.726-1.39.418-2.803.77-4.164 1.265-10.919 3.967-22.078 7.044-33.52 9.072-4.676 1.376-9.419 2.407-14.285 2.814-16.129 3.593-32.592 3.997-48.979 5.135-7.005.72-14.006.582-21.006-.074-.98.047-2.006-.078-2.932.17-4.719 1.267-9.644-1.277-14.3.815-1-1.8.018-3.477.316-5.198l-.684-.378-.137-.076-1.228-.679c-8.74-1.047-17.027-4.105-25.59-5.929a74.937 74.937 0 00-4.276-.79c-.053-.008-.105-.019-.158-.027 2.873 3.602 7.59 3.321 11.387 5.077-2.344 3.512-6.08-.357-8.44 2.063-.985-1.502-1.873-3.079-2.982-4.483-1.118-1.413-2.209-1.089-3 .455-3.447-1.595-7.054-2.919-10.308-4.84-7.46-4.409-14.629-9.226-17.799-17.943.264-1.407 3.15 2.553 2.178-.973-1.653-6.002-2.126-12.094-2.07-18.267.097-4.912 1.941-9.179 4.067-13.342.967-1.893 1.992-3.763 2.937-5.664 2.4-.517 2.064-4.562 5.247-4.066-.462-.899-.118-1.637.27-2.367.11.061.212.123.331.182.483-.137.941-.304 1.39-.483 4.676 4.511 17.125 9.392 17.128 9.86 1.231.42 2.466.83 3.67 1.318 13.672 5.545 26.556 11 41.978 13.682 12.638.664 25.271.252 37.904-.113 59.425-4.42 123.294-36.126 123.967-35.759 15.325-7.926 30.08-16.817 44.498-26.282 4.788-2.58-52.645-9.554-77.363-12.14 0-.273 0-.546-.002-.819-.063-.029-.13-.048-.194-.076-1.244-.548-2.529-.875-3.833-1.087-2.266-.368-4.589-.42-6.852-.803l-.128-.019v.166l.003 1.676c-5.572-1.452-24.59-2.638-28.272-3.73-11.283-1.86-22.74-2.77-33.728-6.226-2.209-.6-4.486-1.024-6.616-1.833-8.203-3.118-17.135-4.795-23.513-11.615l1.097-2.46 1.171.46 3.904 1.535c.76-1.118 1.871-1.542 2.99-.862 4.313 2.622 9.052 3.465 13.842 4.092 1.386.181 6.306 1.21 10.167 1.967a48.93 48.93 0 003.365.63c.315.053.606.1.837.133.33.047.902.112 1.666.192 14.494 1.523 104.45 9.076 105.08 9.174 8.512 1.331 17.052 2.515 25.51 4.137 13.613 2.61 27.163 5.56 40.738 8.376l.771.161c4.244 1.316 8.558 2.444 12.716 3.988 7.768 2.885 16.04 4.748 22.764 9.852.612.465 1.21.964 1.795 1.486.245.22.494.43.734.66 2.432 1.751 4.631 3.735 6.491 6.053.51.634 1 1.29 1.454 1.977.04 1.767.08 3.534.118 5.301.052.81-.094 1.525-.897 1.94" fill="#575756"/><path d="M505.076 325.223c-1.469-1.515-5.633-2.252-4.436-3.977 1.805-2.603 4.016.79 5.973 1.873.141.078.256.197.383.296l-.002.002.002-.001 4.507 1.797c.842.336 1.683.67 2.525 1.007l-3.1 1.106c-.245-.028-.479-.083-.719-.124a13.468 13.468 0 01-5.133-1.98" fill="#1d1d1b"/><path d="M522.058 321.511c.327-.124.653-.25.964-.398-1.411-.315-3.518-.296-4.86-.595-5.775-1.289-10.322-2.792-16.5-4.17 4.879 5.254 14.112 7.533 20.396 5.163m-28.734-3.862a7.355 7.355 0 002.147-.21c.012-.004.024-.005.035-.008l-.03-.019c-2.551-1.623-4.454-2.836-7.398-4.708l-.151-.096c.17-.003.327-.009.495-.013 3.42-.074 6.332-.305 9.042-.088 1.483.118 2.91.363 4.329.862 9.143 3.082 18.734 4.725 27.774 8.796-5.446.578-9.862 4.591-15.538 4.054-.842-.335-1.684-.67-2.526-1.007l-4.507-1.796h-.001c-.125-.1-.241-.22-.381-.297-1.957-1.083-4.168-4.477-5.973-1.873-1.197 1.724 2.967 2.462 4.436 3.976a13.482 13.482 0 005.132 1.98c.24.04.475.096.719.123.043.11.07.224.109.335-6.267-.028-13.362-4.956-17.713-10.01"/><path d="M546.256 349.366c.562 4.235 1.842 7.845-.72 11.918 4.552-3.011 4.646-6.08.72-11.918m-3.18 16.218l-.117-5.301a26.549 26.549 0 00-1.454-1.978c-1.86-2.317-4.06-4.301-6.491-6.053-.24-.23-.49-.44-.735-.66a29.918 29.918 0 00-1.794-1.485c-6.725-5.104-14.997-6.968-22.764-9.852-4.158-1.545-8.473-2.672-12.716-3.99-.257-.052-.515-.107-.771-.16-13.576-2.815-27.125-5.766-40.74-8.376-8.457-1.621-16.997-2.805-25.51-4.136-.663-.103-1.326-.203-1.988-.308-9.504-.925-89.372-7.431-103.09-8.866a56.847 56.847 0 01-1.666-.192c-.28-.04-.558-.09-.837-.134-.886-.15-2.06-.373-3.365-.63a37.436 37.436 0 01-4.101-1.17c-2.013-.305-4.044-.532-6.066-.797-4.791-.627-9.53-1.47-13.844-4.091-1.118-.68-2.23-.256-2.988.86l-.001.002-3.903-1.535-1.171-.46-1.965-1.991c-2.065-1.78-1.05-2.535.918-3.385 6.388-2.761 12.71-5.671 19.059-8.524l1.123.59c.213.112 1.21.684 2.59 1.436 3.824 2.478 15.372 9.399 43.297 10.83.236.038.475.064.71.105.103.017.206.03.309.048 1.47-.02 7.918.212 14.38.439 10.619.483 29.315 1.347 34.44 1.639l14.119.806c.03 0 .059.003.088.005 5.105 1.235 10.329 1.52 15.534 1.972l.437.038c8.749 1.459 17.515 2.834 26.243 4.407 6.155 1.11 12.289 2.707 18.54 1.179 3.534-.865 6.84-.693 10.169.583 2.035-.118 3.943 1.09 6.368 1.2 4.352 5.056 11.447 9.983 17.714 10.012.06.176.126.35.173.53 7.399.853 13.703 4.472 20.072 7.93.716.346 1.423.715 2.15 1.035 11.133 4.887 19.963 11.657 20.609 25.139-2.716 4.225-6.91 3.524-10.965 3.289" fill="#1f1f1f"/><path d="M546.256 349.366c3.926 5.839 3.832 8.907-.72 11.918 2.562-4.073 1.282-7.683.72-11.918m-227.218-35.902c-3.861-.757-8.781-1.786-10.167-1.968 2.022.265 4.053.492 6.066.797 1.355.475 2.723.858 4.1 1.17m3.366.63c.279.043.557.094.837.134-.231-.033-.522-.08-.837-.134m107.581 9.5c-.629-.098-90.585-7.651-105.079-9.174 13.718 1.435 93.587 7.94 103.091 8.866.662.105 1.325.204 1.988.308m93.037-2.48c-.31.149-.637.275-.964.398a37.967 37.967 0 00-3.146-1.315l4.11.917"/><path d="M268.231 231.136l-.002.003.002-.003c.359-.322.708-.654 1.063-.98l.541-.498c.512-.473 1.032-.94 1.538-1.418a137.937 137.937 0 005.141-5.121c.301-.316.604-.63.901-.95.315-.336.623-.68.934-1.02a91.819 91.819 0 001.828-2.059 117.765 117.765 0 001.786-2.114c.34-.415.676-.833 1.009-1.254.243-.306.487-.611.726-.92.371-.48.735-.964 1.096-1.451.195-.261.393-.52.584-.782a86.58 86.58 0 001.618-2.293c2.935-1.246 2.935-1.246 3 4.009.826 11.312 1.566 22.625 1.899 33.955.254.694.404 1.474.408 2.352.043 9.758.657 19.556-.831 29.246-.153.996-.283 2.026-.418 3.067.062 2.51-.047 5.01-.991 7.46-.053 1.214-.137 2.42-.757 3.484-.07.147-.158.295-.296.44-.957.65-1.914 1.297-2.871 1.945l-.187.127-1.907.054c-.342.01-.685.018-1.028.029-.009.282-.015.563-.021.842-1.019.907-2.612.685-3.525 1.62-.686.705-.809 1.392-.007 1.543.211.04.472.052.819.006l.112.247c-7.209 5.77-34.435 27.6-36.22 29.483-.568.115-1.09.29-1.56.528-.128-.027-.254-.063-.381-.098.017-.021.034-.041.05-.063a5.55 5.55 0 01.03-2.641c-.513-1.324-.846-2.68-1.08-4.051-.123-2.624-.282-5.895-.468-9.56l.001-.141c.048-6.48 0-12.961 0-19.441 0-4.498-.165-8.988-.385-13.476-.727-6.447-1.273-12.911-1.793-19.378a6.451 6.451 0 00-.746.88c-.18.152-.355.308-.534.459a5.091 5.091 0 00-.054-.24c.713-.944 30.48-31.323 30.216-31.054-2.318 2.136-.222.14.584-.611.06-.053.117-.108.176-.162" fill="#2e2e2e"/><path d="M283.098 298.229c-.044.029-.088.061-.134.088.046-.027.09-.059.134-.088m-.753.388l-.048.02.048-.02m-.894.388c-.037.019-.075.036-.11.056.035-.02.073-.037.11-.056m2.995-1.688c-.291.193-.58.35-.866.49.089-.11.17-.23.24-.369.066-.149.096-.304.135-.457.258.088.522.118.789.114-.102.073-.192.152-.298.222m-1.156.775c.045-.037.084-.081.127-.122-.042.04-.081.085-.126.122m-1.479.744l-.099.042.099-.042m.931-.401l-.128.063c.043-.02.085-.042.128-.063m.955-83.633c-.239.309-.483.614-.726.92.243-.306.487-.611.726-.92m1.68-2.234c-.191.264-.39.521-.583.782.194-.26.392-.518.583-.782m-17.143 18.562l1.06-.974c-.356.326-.705.658-1.064.98l.004-.005m10.114-9.981c-.311.34-.62.683-.934 1.02.315-.337.623-.68.934-1.02" fill="#2e2e2e"/><path d="M268.231 231.136c-.059.054-.116.109-.176.162l.18-.167-.004.005m3.142-2.896c-.506.48-1.026.944-1.538 1.418l.091-.085a230.307 230.307 0 003.761-3.765c0 .057.007.127.008.187a137.937 137.937 0 01-2.322 2.245m21.631 42.893c.056 11.776-.366 20.69-1.686 21.449-.07.148-2.17 1.562-2.308 1.708.138-.146.226-.294.296-.441.62-1.064.704-2.27.757-3.485.944-2.45 1.053-4.95.99-7.46.136-1.041.266-2.07.419-3.066 1.488-9.69.874-19.488.83-29.246a6.888 6.888 0 00-.407-2.353c-.333-11.33-1.073-22.642-1.9-33.954-.064-5.256-.064-5.256-3-4.01 2.936-1.246 3.63-2.541 3.696 2.714.799 10.95 2.202 38.19 2.31 57.765-.123.046-.246.097-.372.138.12.084.25.16.375.24m-11.996 28.144c.104-.08.216-.15.332-.215.036-.02.074-.037.11-.056a6.36 6.36 0 01.263-.127l.099-.042c.16-.068.322-.134.485-.2l.048-.02c.09-.037.18-.078.27-.118.043-.02.085-.042.128-.063a3.3 3.3 0 00.22-.118c.047-.028.09-.059.135-.088.066-.044.13-.087.193-.138.045-.036.084-.08.127-.122.054-.052.112-.102.162-.162.287-.14.575-.297.866-.49.106-.07.196-.149.298-.222l.053.001c-.893.701-2.056 1.728-2.72 2.26l-1.682 1.345-.112-.246a1.66 1.66 0 01.254-.82c.157-.12.315-.238.47-.359" fill="#2e2e2e"/><path d="M283.82 297.438c-.07.14-.152.26-.24.37-.05.06-.108.11-.163.162-.042.04-.082.085-.127.121-.06.051-.127.094-.193.138-.044.03-.088.061-.133.087a4.699 4.699 0 01-.22.12c-.044.02-.086.043-.13.063a5.948 5.948 0 01-.27.117l-.047.02c-.163.067-.325.132-.485.2a4.935 4.935 0 00-.36.168c-.038.02-.076.037-.112.057a2.59 2.59 0 00-.333.215c-.155.12-.313.24-.47.358.59-.979 2.074-1.193 2.46-2.348h-.002c.006-.28.013-.56.022-.842.304.252.617.428.938.537-.04.153-.069.308-.135.457m-.856.879" fill="#2e2e2e"/><path d="M283.29 298.092c-.062.05-.127.094-.193.137.067-.044.133-.087.194-.137m.127-.122c.055-.053.112-.102.162-.163-.05.06-.107.11-.162.163m9.212-27.078c.124-.041.247-.092.371-.138l.003.379c-.126-.08-.256-.157-.375-.241m-7.885 26.204a2.304 2.304 0 01-.789-.114c.05-.186.08-.376.09-.567l1.907-.054c-.172.005-.609.307-1.145.727-.02 0-.042.008-.063.008" fill="#2e2e2e"/><path d="M284.807 297.087a.106.106 0 01-.01.01l-.053-.002c.021 0 .042-.007.063-.008m-1.79-.643l1.028-.03a2.863 2.863 0 01-.09.567 2.97 2.97 0 01-.938-.537m-2.734 4.011a2.576 2.576 0 01-.819-.006c.36-.269.717-.54 1.073-.814a1.66 1.66 0 00-.254.82" fill="#2e2e2e"/><path d="M280.537 299.635c-.356.273-.713.545-1.073.814-.802-.151-.679-.838.007-1.542.913-.936 2.506-.714 3.524-1.621h.001c-.385 1.156-1.87 1.37-2.459 2.349" fill="#2e2e2e"/><path d="M180.289 417.32c.08.278 1.085-6.447 2.688-9.049-.055 6.173.418 12.265 2.07 18.267.97 3.526-1.913-.434-2.177.973-2.62-4.39-3.22-9.313-3.747-14.254.307-.345.86 4.408 1.166 4.063" fill="#2c2c2c"/><path d="M239.188 316.25a4.63 4.63 0 00-.736.953c.336.284.674.508 1.016.686a31.17 31.17 0 00-.28-1.639m-28.975 36.358c-2.074-.56-3.841.038-5.112 2.537-.642 1.263-2.34 2.578-1.341 3.891 1.454 1.911 2.749-.752 4.246-.765.144-.07.288-.143.432-.214l.142-.07.601-.299.818-.406.523-1.033 1.484-2.926a9.11 9.11 0 00-1.793-.715m31.021-28.749c.185 3.954.287 6.433.269 6.52.241.092.485.168.731.236-1.65 2.294-3.947 3.953-6.109 5.744v.001c-4.679 6.3-10.866 11.142-16.204 16.806h-.002c-1.401 1.637-2.607 3.506-4.237 4.87a58.76 58.76 0 00-2.037 1.813 14.881 14.881 0 01-2.067 1.986c-5.377 5.374-9.892 11.51-14.847 17.258-.785.911-1.512 1.815-.909 3.12-.051.103-.104.207-.159.31l-.164.31c-.389.73-.733 1.467-.27 2.366-3.184-.496-2.849 3.55-5.247 4.066-.945 1.901-1.97 3.771-2.937 5.664-2.126 4.163-3.971 8.43-4.067 13.341l-.001.001c-1.603 2.602-2.297 6.17-2.694 4.791l-.241-.84-.919 1.035c-.784-6.228-1.596-19.188-1.949-20.023 1.845.038 2.031-1.299 2.314-2.555-.449-.14-.973-.242-1.458-.398l-.923 2.957c-.688-9.26-.699-18.543.148-27.773.685-7.47 1.054-15.053 3.854-22.18 1.165-5.418 3.183-10.526 5.575-15.497.095-.198.187-.397.283-.595.727-2.177 2.207-4.413 2.043-6.52-.534-6.827 3.3-11.263 7.534-15.613 13.585-13.955 25.849-29.227 40.765-41.857.923 4.457 2.522 32.675 3.457 51.096-.026 3.198-.067 6.426.468 9.56" fill="#6b6b6b"/><path d="M179.488 390.68c-.283 1.255-.47 2.593-2.314 2.555-.024-.057-.047-.06-.066.004l.922-2.957c.485.155 1.009.257 1.458.397m59.7-74.429c.107.546.203 1.093.28 1.64a5.503 5.503 0 01-1.016-.686 4.63 4.63 0 01.736-.953m2.046 7.609c.234 1.371.567 2.727 1.08 4.051-.232.944-.224 1.83-.03 2.64l-.05.064a8.265 8.265 0 01-.73-.235c.018-.087-.085-2.567-.27-6.52m-2.645-61.997c.52 6.468 1.066 12.932 1.793 19.38.22 4.486.385 8.976.385 13.474 0 6.48.049 12.962 0 19.441l-.001.141c-.935-18.42-2.533-46.639-3.457-51.096.179-.152.354-.308.534-.459.225-.325.479-.612.746-.88m-29.775 95.008c-.28.001-.498.123-.636.407-.186-.868.099-1.466.61-1.933-.102.48-.102.986.025 1.526" fill="#6b6b6b"/><path d="M208.814 356.872a3.445 3.445 0 01-.025-1.526c.867-.792 2.356-1.227 3.217-2.023-.494.975-.99 1.95-1.483 2.926-.363.245-.717.503-1.063.774-.238-.096-.456-.152-.646-.15" fill="#6b6b6b"/><path d="M210.523 356.249l-.524 1.033a4.645 4.645 0 00-.538-.259 17.86 17.86 0 011.061-.774m-2.345 1.03c-.11.224-.173.543-.17.993-1.498.012-2.793 2.676-4.247.765-.999-1.313.7-2.63 1.341-3.891 1.27-2.5 3.038-3.097 5.112-2.537-.619.875-1.215 1.755-1.425 2.737-.51.468-.797 1.065-.61 1.933" fill="#6b6b6b"/><path d="M208.789 355.346c.209-.982.805-1.863 1.425-2.738a9.135 9.135 0 011.793.714l-.001.001c-.861.796-2.35 1.231-3.217 2.023m.025 1.526c.042.177.084.354.157.54.009.015.022.024.03.04-.137.18-.281.356-.421.535l-.141.07a3.76 3.76 0 01-.261-.778c.138-.284.357-.406.636-.407" fill="#6b6b6b"/><path d="M209.18 357.688c-.2.1-.4.2-.6.298.14-.179.284-.354.42-.535.052.09.122.157.18.237m-.032-.422c-.047.063-.1.124-.147.186-.008-.015-.022-.024-.03-.04a3.794 3.794 0 01-.157-.54c.189-.001.408.056.646.152-.104.08-.21.158-.312.242" fill="#6b6b6b"/><path d="M209.148 357.266c.102-.084.208-.161.312-.242.17.069.349.15.539.259l-.818.406c-.06-.08-.13-.148-.18-.237.048-.062.1-.123.147-.186m-.71.791l-.432.214c-.002-.449.061-.768.171-.992.051.238.132.494.261.778m-28.155 55.005c.397 1.378 1.091-2.189 2.694-4.791-1.603 2.602-2.609 9.328-2.689 9.049-.306.346-.859-4.408-1.165-4.063l.918-1.034.242.839" fill="#6b6b6b"/></g><g clip-path="url(#e)" transform="matrix(1.62047 0 0 -1.62047 -281.182 782.795)"><path d="M533.433 337.155c-.727-.319-1.435-.688-2.15-1.035-6.37-3.457-12.674-7.076-20.073-7.928a7.75 7.75 0 00-.283-.866c1.034-.37 2.067-.739 3.102-1.107 5.676.538 10.092-3.475 15.537-4.053-9.039-4.073-18.631-5.714-27.773-8.797-1.418-.498-2.846-.744-4.329-.862-2.71-.217-5.622.014-9.042.089-.168.003-.325.009-.495.013l.15.095 7.398 4.708-.004.026c-2.02.505-3.666.059-5.191-.387-1.141-.334-2.214-.667-3.325-.603-3.328-1.275-6.635-1.447-10.168-.583-6.252 1.528-12.387-.069-18.541-1.178-8.728-1.573-17.494-2.949-26.243-4.408l-.438-.036c-5.204-.452-10.428-.738-15.534-1.973a18.417 18.417 0 00-.087-.006l-14.117-.805-21.815-1.245c-2.744-.052-7.69-.222-12.627-.395a6183.5 6183.5 0 00-7.502-.339 200.82 200.82 0 01-7.897-.251c-4.222-.672-8.502-.946-12.736-1.528-2.436-.334-9.128-1.479-10.073-1.484l-.003-.001c-.022-.01-9.855-3.076-10.192-3.156-2.689-.643-7.362-3.065-10.292-4.663l-.596-.387c-.664-.35-1.33-.698-1.995-1.048l-1.123-.59c-3.794-3.049-7.12-6.505-9.507-10.794-.153-.274-.311-.548-.469-.822-.569-.986-1.136-1.972-1.469-2.997.349-.583.642-1.24.851-1.994.438-1.583.633-3.176.716-4.781 1.825-1.707 1.092-3.945.895-5.913a641.309 641.309 0 01-.297-3.018c.462-1.477.255-3.023-.389-4.414-.194-2.4-.337-4.802-.42-7.208-2.48-33.028.2-53.217 4.395-65.643 3.509-9.601 7.793-12.713 10.777-15.376a21.624 21.624 0 015.936-5.132l-1.067-1.164c5.707-2.261 10.499-6.154 15.925-8.918l.004-.003c4.157-3.806 9.139-6.33 14.019-9.012l-.001-.001c4.026-3.517 8.864-5.802 13.479-8.301 7.823-4.234 15.006-9.765 23.673-12.361l-2.754 2.623c-.98.617-1.889 1.3-2.758 2.019-2.921 2.414-5.273 5.347-7.336 8.545-.317.491-.63.983-.934 1.484l-5.702 13.285-.507 1.84-.868 3.149-.574 2.08c.407 2.575-1.5 4.851-1.05 7.433.015.089.027.178.047.269l-1.013 6.276-.302 22.662.998 18.088 1.27 11.898c1.871 7.282 3.207 14.712 6.019 21.733l2.965 5.09c1.316 1.651 2.63 3.303 3.945 4.955l.08.101c.302.002 9.503 11.574 22.032 15.105 2.877.636 5.687 1.458 8.264 2.94l31.579 6.097c11.265 1.416 22.446 3.335 33.586 5.486 2.797.539 5.592 1.091 8.386 1.656 20.107 2.888 39.762 7.88 59.424 12.827 30.765 7.743 60.141 19.197 88.546 33.235.143.047.286.102.428.153 3.92 1.396 7.619 3.712 11.801 4.036 1.406.171 2.865.132 4.405-.245-4.218 3.129-9.1 4.666-14.113 5.887l-.002-.001c-3.509 2.032-7.524 2.607-11.334 3.613-15.058 3.978-30.003 8.505-45.529 10.457-1.606.97-3.394 1.032-5.182.975-4.078-.132-8.106-.039-11.803 2.023-.646-13.481-9.476-20.251-20.608-25.139m-153.421-30.941c.353-.155.711-.271 1.068-.391a3 3 0 00-1.068.391m-51.275-142.816c-4.24 1.66-8.099 3.82-11.671 6.384-2.66 1.457-4.82 3.241-6.625 5.516a71.225 71.225 0 00-2.456 2.46c-1.264 1.335-2.592 2.61-2.98 4.515-1.57 2.55-8.994 31.348-8.895 33.522.196 4.27-.306 8.574-.16 12.844.112 3.285.088 6.578.216 9.854.064 1.65.17 3.297.35 4.935.311 2.828.849 5.634 1.81 8.402.83 2.394 1.897 4.611 3.65 6.463h.002c6.885 7.143 14.532 5.761 22.265 1.811 3.366-1.719 6.508-3.877 9.751-5.834.212-.297.431-.591.649-.883 1.856-2.481 3.878-4.853 5.108-7.745.064-.151.138-.296.198-.45v-.001l-.021-.101c3.342-6.613 3.535-15.51 3.935-22.623.274-4.86.38-9.597.243-14.311.032-2.84-.681-17.975-1.041-20.548l-.005-.077c-.008-.044-.016-.068-.024-.106a1.428 1.428 0 00-.033-.148l-.017-1.058v-.005l-.029-1.913-.001-.001h.001l.015-8.012c-.45-2.449-.647-4.977-1.4-7.328-1.416-4.43-4.259-6.586-7.985-6.586-1.488 0-3.116.344-4.85 1.024m-33.787 77.45l-.028-28.031v-.02c-1.3 9.349-1.201 18.7.028 28.051m51.059-22.551l.005-.01-.005-.001v.011z" fill="url(#f)"/></g><g clip-path="url(#g)" transform="matrix(1.62047 0 0 -1.62047 -281.182 782.795)"><path d="M346.01 218.286l.003.001c0 .004-.003.007-.004.01v-.01zm-51.942 54.986c.026-.063.03-.646.017-1.6.191.065.383.125.58.155l.292-.709-.896-.798c-.159-7.732-.88-28.133-.894-30.434-.174-29.115 2.576-45.41 6.115-55.098-4.195 12.425-6.875 32.615-4.396 65.643.083 2.405.226 4.808.421 7.208.644 1.391.851 2.937.388 4.413.097 1.006.197 2.012.297 3.018.198 1.97.93 4.207-.894 5.913-.084 1.605-.278 3.2-.717 4.782a7.995 7.995 0 01-.85 1.993c.333 1.026.9 2.011 1.47 2.997-1.343-2.323-2.686-4.64-.933-7.484" fill="#7d7d7d"/><path d="M294.665 271.827a3.337 3.337 0 01-.58-.155c-.005-.392-.013-.84-.024-1.352l.896.798-.292.71m.257-59.031v.02c-.69 9.343-.723 18.688.028 28.03-1.228-9.35-1.328-18.7-.028-28.05" fill="#7d7d7d"/><path d="M294.922 212.816l.028 28.031c-.751-9.343-.718-18.687-.028-28.03m85.091 93.397l21.813 1.245c-5.126-.293-23.822-1.156-34.44-1.64 4.937.173 9.883.343 12.627.395m-61.031-7.154c.336.081 10.17 3.146 10.192 3.156l.002.001c.946.005 7.638 1.15 10.074 1.485 4.234.581 8.514.856 12.735 1.526-27.925-1.432-39.473-8.352-43.295-10.83 2.93 1.597 7.603 4.02 10.292 4.662m61.031 7.154a2.99 2.99 0 011.067-.392c-.357.121-.714.237-1.067.392m-37.027-119.995l.016 1.058-.016-1.062v.004zm.074 1.312l.004.076c-.01-.068-.019-.132-.028-.182.008.038.016.062.024.106" fill="#7d7d7d"/><path d="M343.863 222.468c-.4 7.112-.594 16.01-3.935 22.622l.02.102c-.059.155-.133.299-.197.45-1.23 2.892-3.252 5.264-5.108 7.745-.218.293-.437.586-.65.883-3.243 1.958-6.384 4.116-9.75 5.835-7.733 3.949-15.38 5.332-22.266-1.812-1.755-1.851-2.82-4.07-3.652-6.463-.96-2.767-1.498-5.574-1.81-8.402a70.623 70.623 0 01-.349-4.935c-.128-3.276-.104-6.57-.217-9.854-.146-4.27.357-8.573.161-12.844-.1-2.174 7.325-30.972 8.895-33.521.388-1.906 1.715-3.181 2.981-4.516a70.319 70.319 0 012.455-2.46c1.805-2.274 3.965-4.06 6.625-5.516 3.571-2.564 7.431-4.723 11.67-6.384 6.078-2.382 10.854-.637 12.836 5.562.752 2.35.95 4.88 1.4 7.328l-.015 8.012h-.002.001l.03 1.915c-.339-5.694-.996-11.834-3.664-16.777-4.479-8.298-16.07-1.286-22.628 2.749-1.909 2.244-4.38 3.76-6.23 6.235-.287.384-.563.789-.83 1.207-.109 3.423-1.096 6.996-2.349 10.089-.42 1.037-1.72 1.633-2.707 1.359-.796 2.229-1.536 4.484-2.17 6.798-.548 1.995-1.097 4.03-1.56 6.084.056 3.589-.01 7.183-.01 10.773 0 2.897.526 6.146-.322 8.954-.134.444-.434.794-.8 1.047.138 5.282-.034 10.589.496 15.844.176 1.752-1.633 2.294-2.88 1.655.728 4.162 1.96 8.173 3.903 11.905 4.953 9.51 15.625 7.677 23.613 3.613 7.036-3.58 12.692-9.668 15.662-16.971 3.071-7.552 2.566-16.595 2.66-24.601.104-9.012.431-18.004-.025-27.013l-.08-1.557c.36 2.573 1.073 17.709 1.041 20.547.136 4.715.03 9.453-.243 14.313" fill="#969696"/><path d="M334.715 191.602c-1.342-.114-2.19.587-2.408 1.909-.238 1.444.26 2.546 1.56 3.112 1.891-.002 2.264-1.313 2.533-2.603.274-1.32-.227-2.293-1.685-2.418m8.454 24.576c-.093 8.006.412 17.049-2.659 24.6-2.97 7.304-8.626 13.393-15.662 16.972-7.988 4.064-18.66 5.897-23.613-3.613-1.944-3.732-3.175-7.743-3.903-11.905 1.247.64 3.056.098 2.88-1.654-.53-5.256-.358-10.563-.497-15.845.367-.253.667-.603.801-1.047.848-2.808.322-6.057.322-8.954 0-3.59.065-7.184.01-10.773.463-2.052 1.012-4.088 1.56-6.084a94.56 94.56 0 012.17-6.797c.986.273 2.287-.323 2.707-1.36 1.253-3.093 2.24-6.666 2.35-10.09.266-.417.542-.822.83-1.206 1.848-2.475 4.32-3.991 6.23-6.235 6.556-4.035 18.148-11.047 22.627-2.75 2.668 4.944 3.325 11.084 3.664 16.778l.016 1.062c.011.032.023.096.034.148.01.05.018.115.028.183l.081 1.557c.456 9.009.13 18 .024 27.013" fill="#969696"/><path d="M333.867 196.622c-1.3-.565-1.797-1.668-1.56-3.11.217-1.324 1.066-2.025 2.408-1.91 1.46.124 1.96 1.097 1.685 2.417-.269 1.291-.64 2.601-2.533 2.603" fill="#969696"/></g><g clip-path="url(#h)" transform="matrix(1.62047 0 0 -1.62047 -281.182 782.795)"><path d="M637.599 339.585c-3.949-.478-7.486-2.65-11.227-3.982-.142-.052-.284-.106-.427-.154-28.405-14.038-57.782-25.492-88.547-33.234-19.661-4.948-39.316-9.94-59.424-12.827a926.49 926.49 0 00-8.385-1.656c-11.141-2.152-22.321-4.07-33.587-5.486l-31.579-6.097c-2.577-1.482-5.386-2.304-8.264-2.94-2.665-1.518-5.977-1.66-8.3-3.903-4.212-3.781-9.673-6.117-12.834-11.111a4.676 4.676 0 00-.898-.091 33.95 33.95 0 01-.08-.101l-3.944-4.956-2.966-5.089c-2.812-7.022-4.148-14.451-6.018-21.733l-1.271-11.899-.998-18.087.302-22.663 1.014-6.275c-.021-.091-.033-.18-.048-.27-.45-2.582 1.457-4.857 1.05-7.432l.574-2.08.868-3.15.508-1.839c1.899-4.429 3.8-8.858 5.701-13.285.304-.501.617-.994.934-1.485 2.063-3.197 4.415-6.131 7.336-8.544a26.635 26.635 0 012.759-2.02l3.097-2.948c-.31.084-.612.181-.918.272l.343-.325c8.05-4.985 36.946-10.821 40.181-11.503-.49.11-1.374.318-1.286.311-.047.034-.091.071-.137.105-2.371.701-4.345 2.985-5.98 6.426a30.045 30.045 0 00-1.131 1.874c-.255.994-.494 1.979-.726 2.963-8.043 25.358-5.405 83.873-5.38 83.918.323 1.663-2.286 35.552 19.087 50.553a55.49 55.49 0 001.606 1.36c.385.312 2.044 1.1 4.285 2.093 4.571 2.427 11.757 6.008 13.259 5.611.179.112.766.319 1.694.604 1.213.477 2.088.808 2.418.909 1.836.719 10.435 2.702 11.082 2.855 0 0 3.413.821 7.662 1.852a3338.93 3338.93 0 0016.599 4.156c1.754.488 8.306 2.28 11.811 2.953 1.857.853 18.346 4.582 20.625 5.015 11.719 2.228 96.541 28.439 106.627 31.644 1.568.499 3.171.893 4.758 1.337 5.073 2.499 10.395 4.203 16.002 4.995.485.374 1.005.529 1.537.58.409.109.791.19 1.178.277 1.924.702 3.867 1.217 5.94.559.438-.025.858-.063 1.258-.116 3.474 2.531 5.416-1.63 8.177-2.217l.009.007c-1.535 3.891-5.561 5.093-8.3 7.684l-1.725.22c-3.24 3.86-8.653 4.471-12.07 8.066-.973.238-1.913.339-2.828.339-.338 0-.672-.014-1.003-.04M453.6 275.341l-.69.018-.892.896 2.817 1.126 2.182.873 17.863 4.165 1.089-1.099-.723-.207-10.424-2.984-8.526-2.443c-.43.157-.903-.067-1.326-.378l-1.37.033m-71.677-42.084c-.108 2.958 1.211 3.993 4.037 3.002l1.581-.996 1.509-.952.197-.05c2.518-3.403 5.616-6.405 8.972-9.033.064-.335.12-.674.163-1.019.066-.522.106-1.056.126-1.599.008-.462.007-.925.01-1.386a28.844 28.844 0 00-.121-1.996c-.278-2.91-.35-5.843-.368-8.779-.017-2.657.008-5.319-.038-7.974l-.002-.181s-.968-24.036-.976-36.02c-.109-2.048.126-4.056.53-6.044a6.442 6.442 0 01-1.513-2.479c-5.051-1.45-10.091-2.968-15.384-2.792-.301.158-.606.309-.9.478a7.234 7.234 0 01-.409.225c-.064.061-.141.135-.252.233l-.081.073c-.188.617-.264 1.291-.361 1.914a15.31 15.31 0 01-.789 3.015c1.165 1.31 1.152 3.099 1.146 4.911-.012 3.156 1.189 55.613 1.785 59.683l1.139 7.767-.001-.001m-13.924-19.977l2.01-1.988 1.014-1.002-.004-25.718v-.286c-.023-4.596.083-9.197-.113-13.786-.112-2.627-1.006-4.748-3.879-4.416-.32.037-.66.096-1.032.198 1.719 8.126 1.336 16.417 1.603 24.627.11 3.377-.518 6.899-.603 10.372-.001.095.001.192.002.287.002 1.04.062 2.089-.046 3.112-.074.695-.229 1.377-.547 2.034a1.952 1.952 0 01-.353.63c.457 2.152-1.288 3.537-2.058 5.202 1 .767 2.006.744 2.98.722.162-.004.323-.007.482-.007.183 0 .364.004.544.019" fill="url(#i)"/></g><g clip-path="url(#j)" transform="matrix(1.62047 0 0 -1.62047 -281.182 782.795)"><path d="M432.89 262.295c4.478 1.98 11.28 4.774 14.952 6.216-.928-.285-1.514-.492-1.693-.606-1.503.399-8.69-3.182-13.26-5.61m-17.741-142.761c1.634-3.44 3.608-5.726 5.98-6.426-2.409 1.775-4.378 3.966-5.98 6.426m-7.237 88.756c-.025-.046-2.663-58.56 5.38-83.919-6.089 25.745-4.937 47.814-5.493 54.577.053 7.394.204 32.724.537 34.442.78 17.507 5.048 33.503 18.663 45.452-21.374-15-18.765-48.89-19.087-50.553m77.243 69.867c.013.004.178.051.45.126a3338.93 3338.93 0 01-16.6-4.156c6.508 1.58 14.977 3.652 16.15 4.03m170.185 47.37c3.858-.514 6.037-2.19 8.004-2.34l.173.122c-2.761.588-4.703 4.75-8.177 2.218m-7.197-.443c2.324.519 4.277.655 5.939.56-2.073.658-4.016.142-5.94-.56m-191.375-48.216c-.565-1.16-1.975-1.199-3.166-1.525.456-.01.913-.023 1.37-.034.423.311.897.535 1.326.378l8.527 2.443c-2.554-.652-5.135-1.185-7.801-1.335-.086.028-.171.046-.256.073" fill="#3f3f3f"/><path d="M457.022 276.794c2.666.15 5.247.684 7.8 1.335l10.424 2.984c-.229.38-.362.81-.366 1.306-5.954-1.39-11.908-2.777-17.863-4.165.012-.59-.082-1.038-.252-1.387.085-.027.17-.045.256-.073" fill="#3f3f3f"/><path d="M453.6 275.342c1.19.326 2.6.364 3.166 1.525a23.17 23.17 0 01-1.931.514l-2.817-1.126.893-.896.689-.017" fill="#3f3f3f"/><path d="M457.018 278.254l-2.183-.873a23.567 23.567 0 001.93-.514c.17.349.265.797.253 1.387m18.951 3.066l-1.088 1.1c.004-.497.137-.927.365-1.307.24.07.482.138.723.207" fill="#3f3f3f"/><path d="M379.848 127.196a26.49 26.49 0 00-2.76 2.02c-2.92 2.413-5.271 5.347-7.335 8.544-.316.491-.63.984-.934 1.485l-5.701 13.285c-.17.612-.338 1.226-.507 1.84-.29 1.05-.58 2.098-.868 3.148l-.574 2.08c.406 2.576-1.501 4.851-1.051 7.433.016.09.027.18.048.27l-1.013 6.275h-.001l-.302 22.662.998 18.088c.424 3.966.848 7.933 1.27 11.898 1.87 7.283 3.208 14.712 6.02 21.734l2.965 5.09c1.315 1.651 2.63 3.302 3.944 4.955a7 7 0 01.08.1c.303.002.602.032.898.091 3.16 4.994 8.622 7.331 12.834 11.111 2.324 2.244 5.636 2.386 8.3 3.904 2.878.635 5.688 1.458 8.264 2.94 10.527 2.031 21.054 4.065 31.579 6.097 11.266 1.416 22.447 3.334 33.587 5.485a926.49 926.49 0 018.385 1.656c20.108 2.888 39.763 7.88 59.425 12.828 30.764 7.742 60.14 19.196 88.546 33.234.143.048.285.102.427.153 3.742 1.332 7.279 3.504 11.227 3.983-4.182-.324-7.88-2.64-11.801-4.036-.142-.05-.284-.105-.428-.154-28.404-14.038-57.781-25.49-88.545-33.234-19.663-4.947-39.317-9.94-59.425-12.827a926.537 926.537 0 00-8.385-1.657c-11.141-2.15-22.321-4.069-33.587-5.485l-31.58-6.098c-2.575-1.48-5.385-2.303-8.262-2.939-12.53-3.53-21.731-15.104-22.033-15.105a17089.97 17089.97 0 00-4.024-5.057c-.99-1.696-1.977-3.393-2.966-5.089-2.812-7.02-4.148-14.45-6.018-21.733l-1.271-11.899-.998-18.088c.1-7.553.2-15.108.302-22.662l1.014-6.275c-.021-.09-.033-.18-.048-.27-.45-2.582 1.457-4.857 1.05-7.432l.574-2.08.868-3.15.507-1.839 5.702-13.285c.304-.5.618-.994.934-1.484 2.064-3.198 4.415-6.132 7.336-8.545a26.384 26.384 0 012.759-2.02l2.754-2.622c.305-.092.608-.188.917-.272l-3.097 2.948" fill="#3f3f3f"/><path d="M398.382 224.209a15.91 15.91 0 01-.163 1.019c-3.356 2.627-6.455 5.63-8.972 9.033l-.197.051-1.509.951-1.58.996h-.002c-2.825.991-4.144-.044-4.036-3.001v-.001l.001.002-1.139-7.768c-.596-4.07-1.797-56.527-1.786-59.683.007-1.812.02-3.601-1.145-4.911.36-.964.623-1.956.788-3.014.098-.624.174-1.298.362-1.915l.08-.072c.111-.099.19-.172.253-.234.096-.049.225-.118.41-.224.293-.17.598-.321.9-.479 5.292-.176 10.332 1.342 15.382 2.792.304.933.83 1.772 1.514 2.479-.404 1.988-.64 3.996-.53 6.044.008 11.984.976 36.02.976 36.02l.002.181c.046 2.655.021 5.317.038 7.974.02 2.937.09 5.868.368 8.78.065.679.105 1.343.121 1.995-.004.462-.002.923-.01 1.385a18.84 18.84 0 01-.126 1.6m-27.363-39.637c0 8.572.003 17.145.005 25.717l-1.014 1.003-2.01 1.988c-1.284-.105-2.65.306-4.006-.734.77-1.665 2.514-3.05 2.057-5.203.17-.202.279-.413.354-.629.317-.658.472-1.339.546-2.035.109-1.022.048-2.07.046-3.11 0-.097-.002-.193-.001-.289.085-3.472.712-6.994.603-10.37-.267-8.21.116-16.502-1.604-24.628a6.819 6.819 0 011.033-.198c2.873-.332 3.766 1.79 3.879 4.416.196 4.59.09 9.19.112 13.786v.286z" fill="#1d1d1b"/><path d="M206.291 402.43c3.461.344 6.501 1.164 9.932 2.022 6.432 1.608 9.716 3.475 12.874 7.809 2.134 2.93 3.935 4.694 7.624 1.97 3.867-2.856 10.628-2.355 14.65.517.813.58 1.649 1.128 2.476 1.69 0 .274.009.548.015.82.097 4.523.976 8.975 1.559 13.453.375 2.882 1.089 11.416 1.404 12.773-.362.345-.21.393 0-.001l.985 9.019.12 1.027c-.467.123-15.266-1.942-16.05-2.093-.374.075-13.018-2.942-13.018-2.942-1.388-.278-17.591-4.961-19.152-5.573a102.586 102.586 0 00-4.028-1.501l-.782-3.964h.001c-.841-2.334-2.569-22.251-2.771-31.127-.047-2.1-.207-4.331 4.161-3.898" fill="#212121"/></g></svg>