<svg xmlns="http://www.w3.org/2000/svg" xmlns:xlink="http://www.w3.org/1999/xlink" xml:space="preserve" id="Layer_1" x="0" y="0" version="1.1" viewBox="0 0 239.1 352.59"><style>.st5{stroke:#169e4d}.st5,.st7,.st9{fill:none;stroke-miterlimit:10}.st7{stroke:#ad1f2b}.st9{stroke:#4359a7}.st16{font-family:&quot;ArialMT&quot;}.st17{font-size:11.7593px}.st18{fill:#ad1f2b}.st19{fill:#169e4d}</style><path d="M220.65 350.81 17.61 266.52C8.12 262.58.84 250.74.84 240.06V13.97C.84 3.3 8.95-2.16 18.44 1.78l203.04 84.29c9.49 3.94 16.77 15.78 16.77 26.46v226.09c.01 10.67-8.11 16.13-17.6 12.19z" style="fill:#e8e7e7;stroke:#7b7b7a;stroke-miterlimit:10"/><path d="m194.91 79.45 24.54 10.19c8.33 3.46 15.05 13.85 15.01 23.22l-.1 31.85" style="fill:none;stroke:#fff;stroke-miterlimit:10"/><path id="SVGID_00000170266893873361786040000017399607012027470465_" d="M198.82 125.16 32.44 56.52v195.36l166.38 68.64z" style="fill:#fff"/><defs><path id="SVGID_1_" d="M198.82 125.87 32.44 54.1v195.38l166.38 71.77z"/></defs><clipPath id="SVGID_00000082344733951147842450000000730666954693725060_"><use xlink:href="#SVGID_1_" style="overflow:visible"/></clipPath><g style="clip-path:url(#SVGID_00000082344733951147842450000000730666954693725060_)"><path d="M115.16 299.23v-1.2" class="st5"/><path d="M115.16 265.67v-68.32" style="fill:none;stroke:#169e4d;stroke-miterlimit:10;stroke-dasharray:1.973,1.973"/><path d="M115.16 196.16v-1.2" class="st5"/><path d="m111.77 193.57 71.06 29.31M15.27 153.75l1.11.46" class="st7"/><path d="m47.1 166.89 61.54 25.38" style="fill:none;stroke:#ad1f2b;stroke-miterlimit:10;stroke-dasharray:1.9754,1.9754"/><path d="m110.67 193.11 1.1.46" class="st7"/><path d="m215.04 153.75-1.11.46" class="st9"/><path d="m183.46 166.95-62.72 25.7" style="fill:none;stroke:#4359a7;stroke-miterlimit:10;stroke-dasharray:1.9754,1.9754"/><path d="m119.65 193.11-1.11.46" class="st9"/><path d="m173.36 212.88 9.47 10-10.3 2.18M56.58 176.89l-9.48-10 10.3-2.19" class="st7"/></g><defs><path id="SVGID_00000155116983695360445960000009686122351240577929_" d="M198.82 125.16 32.44 56.52v195.36l166.38 68.64z"/></defs><clipPath id="SVGID_00000181802763030648857450000016343228431161913258_"><use xlink:href="#SVGID_00000155116983695360445960000009686122351240577929_" style="overflow:visible"/></clipPath><path d="M114.57 196.83v-84.11" style="clip-path:url(#SVGID_00000181802763030648857450000016343228431161913258_);fill:none;stroke:#169e4d;stroke-miterlimit:10"/><defs><path id="SVGID_00000152963288482878037840000010041605502840201877_" d="M198.82 125.16 32.44 56.52v195.36l166.38 68.64z"/></defs><clipPath id="SVGID_00000081623272825291447510000008457952048155865515_"><use xlink:href="#SVGID_00000152963288482878037840000010041605502840201877_" style="overflow:visible"/></clipPath><path d="m109.68 118.84 4.89-6.12 4.89 8.81m.59 138.58-4.89 5.56-4.89-9.37" style="clip-path:url(#SVGID_00000081623272825291447510000008457952048155865515_);fill:none;stroke:#169e4d;stroke-miterlimit:10"/><path id="SVGID_00000123429618481904490370000003851149974309723826_" d="M198.82 125.16 32.44 56.52v195.36l166.38 68.64z" style="fill:none;stroke:#231f20;stroke-miterlimit:10"/><text class="st16 st17" style="fill:#4259a7" transform="translate(186.782 167.462)">-z</text><text class="st18 st16 st17" transform="translate(184.15 227.82)">+x</text><text class="st18 st16 st17" transform="translate(34.358 168.152)">-x</text><text class="st19 st16 st17" transform="translate(109.678 106.265)">+y</text><text class="st19 st16 st17" transform="translate(108.294 275.99)">-y</text><path d="M198.82 125.16 32.44 56.52v195.36l166.38 68.64z" style="fill:none;stroke:#231f20;stroke-width:.4464;stroke-miterlimit:10"/><path d="m169.05 167.35 14.41-.4-4.55 6.35" class="st9"/></svg>