<?xml version="1.0" encoding="utf-8"?>
<!-- Generator: Adobe Illustrator 26.5.3, SVG Export Plug-In . SVG Version: 6.00 Build 0)  -->
<svg version="1.1" id="Layer_1" xmlns="http://www.w3.org/2000/svg" xmlns:xlink="http://www.w3.org/1999/xlink" x="0px" y="0px"
	 viewBox="0 0 290.35 266.33" style="enable-background:new 0 0 290.35 266.33;" xml:space="preserve">
<style type="text/css">
	.st0{fill:#E8E7E7;stroke:#7B7B7A;stroke-width:1.1022;stroke-miterlimit:10;}
	.st1{fill:none;stroke:#FFFFFF;stroke-width:1.1022;stroke-miterlimit:10;}
	.st2{fill:#FFFFFF;}
	.st3{fill:none;}
	.st4{fill:none;stroke:#231F20;stroke-width:1.1022;stroke-miterlimit:10;}
	.st5{fill:#BCBCBC;}
	.st6{fill:#BCBCBC;stroke:#231F20;stroke-width:1.1022;stroke-miterlimit:10;}
	.st7{opacity:0.5;fill:none;stroke:#FFFFFF;stroke-width:1.1022;stroke-miterlimit:10;}
</style>
<g>
	<path class="st0" d="M267.99,265.78l-246.65-0.25c-11.53-0.01-20.83-7.34-20.79-18.04L1.39,21.11C1.44,10.42,10.83,0.55,22.36,0.55
		l246.65,0.01c11.53,0,20.83,7.46,20.79,18.16l-0.83,226.38C288.9,255.79,279.52,265.79,267.99,265.78z"/>
	<path class="st1" d="M237.86,2.89l29.81-0.24c10.12-0.08,18.28,7.45,18.23,16.84l-0.12,31.89"/>
	<g>
		<polygon id="SVGID_00000124137132618158914670000010685612454656465322_" class="st2" points="246.47,49.32 44.35,49.31 
			44.35,244.68 246.47,244.68 		"/>
	</g>
	<polygon class="st3" points="246.47,49.32 44.35,49.31 44.35,244.68 246.47,244.68 	"/>
	<polygon class="st3" points="246.47,49.32 44.35,49.31 44.35,244.68 246.47,244.68 	"/>
	<polygon class="st3" points="246.47,49.32 44.35,49.31 44.35,244.68 246.47,244.68 	"/>
	<g>
		<polygon id="SVGID_00000155855186613595597500000000463447462450297015_" class="st4" points="246.47,49.32 44.35,49.31 
			44.35,244.68 246.47,244.68 		"/>
	</g>
	<g>
		<polyline class="st5" points="223.11,106.1 220.67,109.56 224.25,118.28 229.26,115.21 230.22,107.91 		"/>
		<path class="st6" d="M227.96,112.79c-1.9-4.17-4.73-3.23-8.82-3.14s-11.81,1.98-16.27,3.32l-1.9-9.1
			c5.01-1.13,15.46-3.35,20.41-2.57c4.95,0.78,10.99,3.09,10.78,9.89s-3.32,15.76-9.31,23.37s-8.11,9.02-8.11,9.02l-2.01-13.81
			c0,0,3.37-4.94,5.82-10.28c2.45-5.34,2.67-7.65,2.12-9.93"/>
	</g>
	<path class="st6" d="M107.55,109.74c4.51-9.82,15.98-14.11,33.02-16.31c17.04-2.2,30.17-1.61,44.56,2.36
		c14.39,3.97,19.03,8.46,22.08,16.67s13.26,34,11.47,47.84c-1.79,13.84-5.97,20.21-12.53,26.22c-6.56,6.01-14.12,9.42-14.12,9.42
		c-7.09,6.36-20.09,9.87-35.08,11.13c-14.99,1.26-30.5-4.44-39.52-10.29c-9.02-5.85-16.71-13.09-19.1-16.46s-6.17-17.82-5.9-26.43
		C92.69,145.29,99.46,125.95,107.55,109.74z"/>
	<path class="st7" d="M191.15,193.57c-4.33,4.99-38.87,15.54-62.87,6.76"/>
	<path class="st6" d="M115.24,107.32c3.12-4.64,20.09-13.53,43.3-11.88s36.93,7.05,40.05,13c3.12,5.95-1.26,12.56-19.83,15.45
		s-36.73,2-49.6-1.69S111.59,112.75,115.24,107.32z"/>
	<path class="st6" d="M150.98,99.34c1.06-2.83-1.25-3.73-3.61-6.74s-3.14-5.41-0.46-7.01s8.18-3.19,14.68-2.14
		c6.5,1.06,8.16,2.88,8.29,4.52c0.13,1.65-1.06,3.59-3.32,5.58s-3.12,2.62-3.58,4.26"/>
	<g>
		<path class="st6" d="M102.35,182.88c-9.81-0.38-15.99-3.81-21.55-9.81c-5.56-6-8.64-16.63-10.73-23.02s-6.48-11.06-12.18-13.62
			c-4.74-2.13-10.85-2.41-11.31-4.6c0.23-2.31,10.35-4.64,16.06-4.73s12.05,1.12,15.52,6.96s6.37,13.96,8.11,16.81
			c1.74,2.84,4.16,2.89,10.21,2.87"/>
		<path class="st6" d="M51.57,131.13c0.05,0.44,4.69,1.8,8.4,1.49c3.71-0.31,9.74-1.12,9.37-2.06"/>
	</g>
	<path class="st7" d="M114.04,117.53c3.78,4.35,13.51,10.5,39.17,10.53"/>
	<path class="st7" d="M67.46,133.83c9.15,1.88,9.64,11.55,14.5,17.32"/>
	<path class="st7" d="M99.39,156.71c3.61,1.15,6.77,7.84,4.51,16.06"/>
</g>
</svg>
