<svg xmlns="http://www.w3.org/2000/svg" xmlns:xlink="http://www.w3.org/1999/xlink" xml:space="preserve" id="Layer_1" x="0" y="0" version="1.1" viewBox="0 0 456.88 396.62"><style>.st0{opacity:.5}.st1,.st2,.st3{fill:#bcbcbc;stroke:#231f20;stroke-width:1.6922;stroke-miterlimit:10;stroke-dasharray:3.3843}.st2,.st3{fill:none;stroke:#169e4d}.st3{stroke:#4259a7}.st4{stroke:#ad1f2b}.st4,.st5,.st7{fill:none;stroke-width:1.6922;stroke-miterlimit:10;stroke-dasharray:3.3843}.st5{opacity:.5;stroke:#fff;enable-background:new}.st7{stroke:#231f20}.st14{stroke:#169e4d}.st14,.st16,.st17{fill:none;stroke-width:1.6806;stroke-miterlimit:10}.st16{opacity:.5;stroke:#231f20;enable-background:new}.st17{stroke:#ad1f2b}.st21{fill:none;stroke:#4259a7}.st21,.st22,.st26,.st28{stroke-width:1.6806;stroke-miterlimit:10}.st22{fill:#bcbcbc;stroke:#231f20}.st26,.st28{fill:none}.st26{opacity:.5;stroke:#fff;enable-background:new}.st28{stroke:#231f20}.st34{font-family:&quot;ArialMT&quot;}.st35{font-size:11.7593px}.st36{fill:#ad1f2b}</style><g class="st0"><g class="st0"><path d="M375.77 108.27c-7.72-4.26-25.87 4.53-34.88 7.99l-14.54-13.71c11.71-4.26 32.69-12.42 44.67-9.02s17.07 8.97 16.43 19.39-7.7 33.1-14.35 43.3-9.26 12.35-9.26 12.35l-11.17-25.15s.73 1.81 4.81-4.91 10.63-26.82 6.95-30.66" class="st1"/><g class="st0"><path d="M293.37.78v168.86" class="st2"/><path d="m34.76 273.97 257.83-105.85" class="st3"/><path d="m456.56 236.08-162.13-66.9" class="st4"/></g><path d="M369.04 170.37s-16.52-42.68-23.94-51.48c-7.43-8.82-23.67-32.2-86.99-32.2s-79.55 23.4-86.99 32.2c-7.43 8.82-23.94 51.48-23.94 51.48-10.46 65.52 30 86.71 30 86.71s1.66 4.4 1.66 4.96c20.1 15.97 55.33 20.37 79.28 20.37s59.19-4.4 79.28-20.37c0-.56 1.66-4.96 1.66-4.96s52.28-21.74 29.98-86.71z" class="st1"/><path d="M181.74 112.91c9.17-8.95 31.15-22.22 75.81-22.22s62.42 10.59 76.82 22.22" class="st5"/><path d="M188.55 248.96c-24.33-.83-39.36-4.31-47.28-23.08-7.92-18.78-5.43-36.16-14.47-41.86s-17.94-9.17-9.46-12.93 22.39-6.4 28.09-.69c5.7 5.7 15.86 22.12 18.78 28.51 2.93 6.4 6.4 11.83 19.88 8.07" class="st1"/><path d="M248.69 111.74c4.08 2.89 12.66 3.33 18.65 0" class="st5"/><path d="M117.45 175.79c2.78.86 7.63 1.07 12.89-.64 5.28-1.71 9.12-3.49 8.61-5.28" style="fill:#a2a2a3;stroke:#231f20;stroke-width:1.6922;stroke-miterlimit:10;stroke-dasharray:3.3843"/><path d="M119.06 177.16c2.83.71 6.01.68 12.34-1.03s9.65-4.75 9.15-6.53m-14.11 9.74c4.13-.93 11.25-3.93 16.38-1.64 5.13 2.28 6.13 7.34 6.13 7.34M188.1 210c4.7 3.08 9.78 12.34 8.82 20.36-.96 8-3.32 13.74-5.84 16.18" class="st5"/><path d="M183.39 131.52c-1.84-5.14-2.28-15.13 8.85-21.79 11.13-6.67 33.06-16.55 65.69-16.55m74.51 38.17c1.78-4.94 2.34-14.76-8.8-21.44-11.13-6.67-33.06-16.55-65.69-16.55" class="st7"/><path d="M177.96 122.44c4.04 11.61 25.42 31.49 82.05 31.49s72.09-17.31 77.62-32.59" class="st7"/><path d="M174.07 123.01c4.25 12.69 26.67 34.47 86.08 34.47s75.64-18.95 81.43-35.67" class="st5"/><path d="M269.27 109.73c-.78-2.49-2-5.7.61-7.58s8.41-7.85 8.63-10.34 1.17-11.78-20.97-11.78c-22.13 0-21.19 9.29-20.97 11.78s6.02 8.46 8.63 10.34 1.39 5.09.61 7.58" class="st1"/><path d="M275.97 93.52c-3.44 3.1-8.63 6.31-18.43 6.31s-14.99-3.22-18.43-6.31m-79.86 112.12c4.55 7.92 4.89 17.34 27.95 11.79m153.26-108.62c7.73-3.54 22.91-11 34.64-7.01m-259.44 72.48c-.25-.98 2.13-2.25 5.18-3.11s7.85-2.4 11.98-2.79c4.13-.37 6.21.42 6.21.42" class="st5"/><g class="st0"><path d="M34.76 107.29 292.59 1.44m-94.95 172.1L455.49 67.67M197.64 341.08l257.85-105.87" class="st3"/><path d="M196.88 173.54 34.76 106.65m162.12 235.29L34.76 275.05M455.49 67.67 293.37.78" class="st4"/><path d="M34.76 106.19v168.86m162.27-100.46v168.86M455.49 67.67v168.86" class="st2"/></g></g></g><path d="M220.65 394.84 17.61 310.55C8.12 306.61.46 294.77.5 284.09L1.19 58c.04-10.67 7.77-16.13 17.26-12.19l203.04 84.29c9.49 3.94 17.15 15.78 17.11 26.46l-.68 226.09c-.06 10.67-7.78 16.13-17.27 12.19z" style="fill:#e8e7e7;stroke:#7b7b7a;stroke-miterlimit:10"/><path d="m194.91 123.48 24.54 10.19c8.33 3.46 15.05 13.85 15.01 23.22l-.1 31.85" style="fill:none;stroke:#fff;stroke-miterlimit:10"/><path id="SVGID_00000059273903712830778430000011648958018660756889_" d="M198.82 169.19 32.44 100.55v195.36l166.38 68.64z" style="fill:#fff"/><defs><path id="SVGID_1_" d="M198.82 169.19 32.44 100.55v195.36l166.38 68.64z"/></defs><clipPath id="SVGID_00000073707097986657624050000003465653945874409361_"><use xlink:href="#SVGID_1_" style="overflow:visible"/></clipPath><g style="clip-path:url(#SVGID_00000073707097986657624050000003465653945874409361_)"><path d="M113.57 386.8v-1.68" class="st14"/><path d="M113.57 381.81V244.2" style="fill:none;stroke:#169e4d;stroke-width:1.6806;stroke-miterlimit:10;stroke-dasharray:3.3158,3.3158"/><path d="M113.57 242.54v-1.68" class="st14"/><path d="m-26.24 183.18 139.81-57.68 279.62 115.36-139.81 57.67m93.2-76.9-139.8 57.68" class="st16"/><path d="m108.83 238.91 144.55 59.62M-26.24 183.18l1.55.64" class="st17"/><path d="m-21.62 185.09 127.36 52.54" style="fill:none;stroke:#ad1f2b;stroke-width:1.6806;stroke-miterlimit:10;stroke-dasharray:3.3198,3.3198"/><path d="m107.28 238.27 1.55.64" class="st17"/><path d="m253.38 183.18-1.56.64m-131.96 54.45-1.55.64" style="fill:none;stroke-width:1.6806;stroke-miterlimit:10;stroke:#4359a7"/><path d="m116.04 239.85-7.21 2.96" class="st21"/><path d="m227.53 296.32 25.85 2.21-6.88-12.94" class="st17"/><path d="M375.54 108.39c-7.71-4.27-25.85 4.54-34.82 7.98l-14.52-13.7c11.7-4.27 32.65-12.4 44.62-9.01s17.06 8.96 16.42 19.38-7.7 33.06-14.34 43.24-9.26 12.34-9.26 12.34l-11.16-25.12s.72 1.82 4.81-4.89c4.08-6.71 10.6-26.79 6.96-30.62" class="st22"/><g class="st0"><path d="M308.82-5.9v168.66" style="fill:none;stroke:#169e4d;stroke-width:1.6806;stroke-miterlimit:10;stroke-dasharray:3.3612"/><path d="m34.92 273.91 273.13-112.68" style="fill:none;stroke:#4259a7;stroke-width:1.6806;stroke-miterlimit:10;stroke-dasharray:3.3612"/><path d="m471.84 229.11-161.94-66.8" style="fill:none;stroke:#ad1f2b;stroke-width:1.6806;stroke-miterlimit:10;stroke-dasharray:3.3612,3.3612"/></g><path d="M368.82 170.42s-16.5-42.62-23.91-51.41c-7.43-8.81-23.65-32.17-86.89-32.17s-79.46 23.38-86.89 32.17c-7.43 8.81-23.91 51.41-23.91 51.41-10.45 65.44 29.96 86.62 29.96 86.62s1.65 4.4 1.65 4.94c20.07 15.95 55.27 20.35 79.19 20.35s59.12-4.4 79.19-20.35c0-.55 1.65-4.94 1.65-4.94s52.24-21.73 29.96-86.62z" class="st22"/><path d="M181.73 113.05c9.16-8.94 31.12-22.2 75.73-22.2s62.35 10.59 76.74 22.2" class="st26"/><path d="M188.54 248.92c-24.32-.84-39.31-4.3-47.22-23.06-7.92-18.76-5.41-36.12-14.45-41.81s-17.92-9.18-9.44-12.92c8.47-3.75 22.35-6.39 28.07-.69s15.83 22.08 18.76 28.49c2.92 6.39 6.39 11.81 19.86 8.05" class="st22"/><path d="M248.62 111.87c4.07 2.89 12.64 3.33 18.64 0" class="st26"/><path d="M117.52 175.83c2.77.86 7.61 1.08 12.87-.64 5.26-1.71 9.11-3.48 8.6-5.26" style="fill:#a2a2a3;stroke:#231f20;stroke-width:1.6806;stroke-miterlimit:10"/><path d="M119.13 177.2c2.82.71 6 .67 12.32-1.04s9.65-4.74 9.14-6.52m-14.1 9.76c4.13-.92 11.24-3.92 16.37-1.63s6.12 7.33 6.12 7.33m39.12 24.92c4.71 3.08 9.76 12.34 8.81 20.34-.96 8-3.31 13.73-5.83 16.15" class="st26"/><path d="M183.4 131.63c-1.83-5.14-2.29-15.11 8.84-21.76 11.13-6.66 33.02-16.52 65.61-16.52m74.42 38.1c1.76-4.94 2.34-14.74-8.79-21.41s-33.02-16.52-65.61-16.52" class="st28"/><path d="M177.97 122.54c4.05 11.6 25.39 31.46 81.95 31.46s72.01-17.29 77.53-32.55" class="st28"/><path d="M174.09 123.11c4.25 12.69 26.64 34.42 85.98 34.42s75.54-18.92 81.34-35.63" class="st26"/><path d="M269.18 109.85c-.77-2.49-1.98-5.7.61-7.56 2.59-1.87 8.4-7.85 8.62-10.34s1.16-11.76-20.94-11.76-21.16 9.28-20.94 11.76c.22 2.49 6.02 8.45 8.62 10.34 2.6 1.88 1.38 5.08.61 7.56" class="st22"/><path d="M275.86 93.67c-3.43 3.09-8.62 6.3-18.4 6.3s-14.97-3.21-18.4-6.3" class="st26"/><path d="M332.89 258.97c-22.69 11.04-41.75 16.02-75.36 16.02s-52.67-4.97-75.36-16.02" class="st16"/><path d="M159.28 205.65c4.54 7.9 4.87 17.33 27.91 11.78m153.09-108.5c7.73-3.53 22.89-10.97 34.59-6.99m-11.23 53.04c4.54-4.42 9.97-15.39 12.49-28.5m-260.39 47.86c-.25-.97 2.12-2.24 5.18-3.11 3.04-.86 7.83-2.4 11.97-2.77 4.12-.37 6.2.42 6.2.42m45.6 83.3c18.08 11.41 41.75 14.81 78.01 14.81s83.09-14.13 99.89-38.72" class="st26"/><g class="st0"><path d="M34.92 107.43 308.05-5.25M197.63 173.6 470.76 60.92M197.63 340.94l273.13-112.69" class="st21"/><path d="M196.86 173.6 34.92 106.78m161.94 235.01-161.94-66.8M470.76 60.92 308.82-5.9" class="st17"/><path d="M34.92 106.33v168.66m162.11-100.35v168.67M470.76 60.92v168.66" class="st14"/></g></g><defs><path id="SVGID_00000114793284306539547240000014209567962533812913_" d="M198.82 169.19 32.44 100.55v195.36l166.38 68.64z"/></defs><clipPath id="SVGID_00000159427642944263462890000010251405040877733565_"><use xlink:href="#SVGID_00000114793284306539547240000014209567962533812913_" style="overflow:visible"/></clipPath><path d="M114.57 240.86v-84.11" style="clip-path:url(#SVGID_00000159427642944263462890000010251405040877733565_);fill:none;stroke:#169e4d;stroke-miterlimit:10"/><defs><path id="SVGID_00000068651273864383734910000014647908243754384261_" d="M198.82 169.19 32.44 100.55v195.36l166.38 68.64z"/></defs><clipPath id="SVGID_00000169519654452169993060000018199043322662358178_"><use xlink:href="#SVGID_00000068651273864383734910000014647908243754384261_" style="overflow:visible"/></clipPath><path d="m109.68 164.16 4.89-7.41 4.89 7.52" style="clip-path:url(#SVGID_00000169519654452169993060000018199043322662358178_);fill:none;stroke:#169e4d;stroke-miterlimit:10"/><path id="SVGID_00000181066547247909708780000013413441637776263578_" d="M198.82 169.19 32.44 100.55v195.36l166.38 68.64z" style="fill:none;stroke:#231f20;stroke-miterlimit:10"/><text class="st34 st35" style="fill:#4259a7" transform="translate(201.365 205.699)">-z</text><text class="st36 st34 st35" transform="translate(200.893 284.876)">+x</text><text class="st36 st34 st35" transform="translate(17.073 205.665)">-x</text><text class="st34 st35" style="fill:#169e4d" transform="translate(109.678 152.46)">+y</text><path d="M198.82 169.19 32.44 100.55v195.36l166.38 68.64z" style="fill:none;stroke:#231f20;stroke-width:.4464;stroke-miterlimit:10"/></svg>