<?xml version="1.0" encoding="utf-8"?>
<!-- Generator: Adobe Illustrator 26.5.3, SVG Export Plug-In . SVG Version: 6.00 Build 0)  -->
<svg version="1.1" id="Layer_1" xmlns="http://www.w3.org/2000/svg" xmlns:xlink="http://www.w3.org/1999/xlink" x="0px" y="0px"
	 viewBox="0 0 289.95 352.59" style="enable-background:new 0 0 289.95 352.59;" xml:space="preserve">
<style type="text/css">
	.st0{fill:#E8E7E7;stroke:#7B7B7A;stroke-miterlimit:10;}
	.st1{fill:none;stroke:#231F20;stroke-width:0.695;stroke-miterlimit:10;}
	.st2{opacity:0.5;}
	.st3{fill:#BCBCBC;}
	.st4{fill:#BCBCBC;stroke:#231F20;stroke-miterlimit:10;}
	.st5{fill:#BCBCBC;stroke:#231F20;stroke-miterlimit:10;stroke-dasharray:1.973,1.973;}
	.st6{opacity:0.5;fill:none;stroke:#FFFFFF;stroke-miterlimit:10;enable-background:new    ;}
	.st7{opacity:0.5;fill:none;stroke:#FFFFFF;stroke-miterlimit:10;stroke-dasharray:1.973,1.973;enable-background:new    ;}
	.st8{fill:#A2A2A3;stroke:#231F20;stroke-miterlimit:10;}
	.st9{fill:none;stroke:#231F20;stroke-miterlimit:10;}
	.st10{fill:none;stroke:#231F20;stroke-miterlimit:10;stroke-dasharray:1.973,1.973;}
	.st11{opacity:0.5;fill:none;stroke:#231F20;stroke-miterlimit:10;stroke-dasharray:1.973,1.973;enable-background:new    ;}
	.st12{opacity:0.5;fill:none;stroke:#231F20;stroke-miterlimit:10;enable-background:new    ;}
	.st13{fill:none;stroke:#FFFFFF;stroke-miterlimit:10;}
	.st14{fill:#FFFFFF;}
	.st15{clip-path:url(#SVGID_00000080901894528253165950000017371113532648813990_);}
	.st16{fill:none;stroke:#231F20;stroke-width:0.4464;stroke-miterlimit:10;}
</style>
<g>
	<path class="st0" d="M220.65,350.81L17.61,266.52c-9.49-3.94-17.15-15.78-17.11-26.46L1.19,13.97C1.23,3.3,8.96-2.16,18.45,1.78
		l203.04,84.29c9.49,3.94,17.15,15.78,17.1,26.46l-0.68,226.09C237.86,349.29,230.13,354.74,220.65,350.81z"/>
	<path class="st1" d="M33.18,172.73"/>
	<g class="st2">
		<path class="st3" d="M133.47,133.28l11.58-32.43l48.92-11.14c0,0,16.29-1.76,25.35-0.29s22.82,7.96,22.82,7.96L261.91,187
			l-8.73,18.96l-10.58,12.42l-19.82,5.75l-46.19-4.29l-23.7-38.94"/>
		<path class="st4" d="M281.15,103.35c-5.45-3.01-18.28,3.21-24.63,5.64l-10.26-9.68c8.27-3.01,23.09-8.77,31.55-6.37
			c8.46,2.4,12.06,6.33,11.61,13.7s-5.44,23.37-10.13,30.58s-6.54,8.72-6.54,8.72l-7.89-17.76c0,0,0.51,1.28,3.4-3.46
			c2.89-4.75,7.5-18.94,4.92-21.65"/>
		<path class="st4" d="M237.76,220.27c5.95-2.08,11.43-4.81,15.87-8.34c0-0.39,1.17-3.5,1.17-3.5s19.1-7.06,24.16-30.36
			c1.74-8.02,1.53-18.26-2.97-30.88c0,0-11.66-30.13-16.91-36.35c-3.71-4.39-10.51-13.92-29.93-19.14"/>
		<path class="st5" d="M145.04,101.78c-4.44,3.52-7.01,6.91-8.83,9.07c-5.25,6.22-16.91,36.35-16.91,36.35
			c-15.74,45.88,21.17,61.24,21.17,61.24s1.17,3.11,1.17,3.5c14.19,11.28,39.08,14.39,55.99,14.39c11.63,0,27.03-1.47,40.12-6.05"/>
		<path class="st5" d="M229.14,91.71c-8.08-2.17-18.36-3.6-31.5-3.6c-29.21,0-44.23,7.05-52.6,13.67"/>
		<path class="st6" d="M232.68,95.87c9.52,3.21,15.48,7.41,18.91,10.76"/>
		<path class="st7" d="M143.78,106.63c10.17-8.22,22.72-15.7,54.26-15.7c14.85,0,26.16,2.08,34.63,4.94"/>
		<path class="st4" d="M148.94,202.7c-17.19-0.59-27.79-3.04-33.39-16.3c-5.6-13.26-3.83-25.54-10.21-29.56s-12.67-6.48-6.68-9.13
			s15.81-4.52,19.84-0.49s11.2,15.62,13.26,20.13c2.06,4.52,4.52,8.35,14.04,5.7"/>
		<path class="st7" d="M191.12,105.8c4.23,2.35,10.3,2.04,13.17,0"/>
		<path class="st8" d="M98.73,151.02c1.96,0.6,5.38,0.75,9.11-0.45c3.72-1.21,6.44-2.47,6.09-3.72"/>
		<path class="st6" d="M99.87,151.99c1.99,0.5,4.25,0.48,8.71-0.73c4.47-1.21,6.82-3.35,6.46-4.61"/>
		<path class="st6" d="M105.07,153.54c2.92-0.65,7.95-2.77,11.57-1.16s4.33,5.18,4.33,5.18"/>
		<path class="st6" d="M148.62,175.19c3.32,2.18,6.9,8.72,6.23,14.37s-2.34,9.7-4.13,11.42"/>
		<path class="st9" d="M234.38,99.51c4.02,1.65,7.28,3.37,9.77,4.87c7.87,4.71,7.55,11.76,6.25,15.39"/>
		<path class="st10" d="M197.76,92.7c15.74,0,27.95,3.25,36.62,6.81"/>
		<path class="st10" d="M197.76,92.82c-23.04,0-38.53,6.97-46.39,11.68c-7.87,4.71-7.47,11.65-6.22,15.14"/>
		<path class="st9" d="M238.54,127.86c9.57-4.59,14.24-10.32,15.7-14.51"/>
		<path class="st10" d="M141.49,112.57c3.9,10.8,14.82,23.02,54.81,23.02c19.52,0,33.11-3.35,42.24-7.73"/>
		<path class="st6" d="M238.15,130.75c11.65-5.19,17.2-12.06,18.85-17"/>
		<path class="st7" d="M138.69,112.9c4.1,11.81,15.56,25.19,57.51,25.19c18.85,0,32.43-3.1,41.94-7.34"/>
		<path class="st5" d="M206.34,104.38c-0.55-1.76-1.41-4.02,0.43-5.35c1.83-1.33,5.93-5.55,6.09-7.31
			c0.15-1.76,0.82-8.32-14.81-8.32s-14.97,6.56-14.81,8.32c0.15,1.76,4.25,5.98,6.09,7.31c1.84,1.33,0.98,3.59,0.43,5.35"/>
		<path class="st7" d="M211.05,92.93c-2.42,2.18-6.09,4.45-13.01,4.45s-10.59-2.26-13.01-4.45"/>
		<path class="st11" d="M237.22,215.67c-10.97,3.72-22.57,5.45-39.23,5.45c-23.77,0-37.24-3.52-53.28-11.33"/>
		<path class="st12" d="M251.27,209.8c-4.8,2.34-9.37,4.29-14.05,5.88"/>
		<path class="st13" d="M143.78,106.63"/>
		<path class="st13" d="M251.58,106.63"/>
		<path class="st6" d="M128.25,172.1c3.21,5.59,3.45,12.25,19.74,8.32"/>
		<path class="st6" d="M256.22,103.73c5.46-2.5,16.18-7.76,24.46-4.95"/>
		<path class="st6" d="M272.74,136.28c3.21-3.12,7.05-10.88,8.83-20.16"/>
		<path class="st6" d="M97.46,149.96c-0.18-0.69,1.5-1.58,3.65-2.19s5.54-1.7,8.46-1.97c2.91-0.26,4.38,0.3,4.38,0.3"/>
		<path class="st6" d="M237.79,210.49c4.28-1.44,8.14-3.25,11.7-5.49"/>
		<path class="st7" d="M123.69,188.09c11.89,17.39,44.98,27.38,70.63,27.38c18.51,0,32.38-1.25,43.46-4.98"/>
	</g>
	<g>
		<g>
			<polygon id="SVGID_00000066497523286901700440000013180367418761478296_" class="st14" points="198.82,125.15 32.44,56.51 
				32.44,251.88 198.82,320.52 			"/>
		</g>
		<g>
			<defs>
				<polygon id="SVGID_1_" points="198.82,125.15 32.44,56.51 32.44,251.88 198.82,320.52 				"/>
			</defs>
			<clipPath id="SVGID_00000098207237526784388660000016150444666568949918_">
				<use xlink:href="#SVGID_1_"  style="overflow:visible;"/>
			</clipPath>
			<g style="clip-path:url(#SVGID_00000098207237526784388660000016150444666568949918_);">
				<path class="st4" d="M280.67,103.6c-5.45-3.01-18.28,3.21-24.63,5.64l-10.26-9.68c8.27-3.01,23.09-8.77,31.55-6.37
					c8.46,2.4,12.06,6.33,11.61,13.7s-5.44,23.37-10.13,30.58s-6.54,8.72-6.54,8.72l-7.89-17.76c0,0,0.51,1.28,3.4-3.46
					c2.89-4.75,7.5-18.94,4.92-21.65"/>
				<path class="st4" d="M275.92,147.45c0,0-11.66-30.13-16.91-36.35c-5.25-6.22-16.72-22.74-61.43-22.74s-56.18,16.52-61.43,22.74
					s-16.91,36.35-16.91,36.35c-7.39,46.27,21.19,61.24,21.19,61.24s1.17,3.11,1.17,3.5c14.19,11.28,39.07,14.39,55.99,14.39
					c16.91,0,41.8-3.11,55.99-14.39c0-0.39,1.17-3.5,1.17-3.5S291.66,193.33,275.92,147.45z"/>
				<path class="st6" d="M143.64,106.88c6.48-6.33,22-15.7,53.54-15.7s44.09,7.48,54.26,15.7"/>
				<path class="st4" d="M148.46,202.95c-17.19-0.59-27.79-3.04-33.39-16.3c-5.6-13.26-3.83-25.54-10.21-29.56
					s-12.67-6.48-6.68-9.13s15.81-4.52,19.84-0.49s11.2,15.62,13.26,20.13c2.06,4.52,4.52,8.35,14.04,5.7"/>
				<path class="st6" d="M190.93,106.05c2.87,2.04,8.94,2.35,13.17,0"/>
				<path class="st8" d="M98.25,151.27c1.96,0.6,5.38,0.75,9.11-0.45c3.72-1.21,6.44-2.47,6.09-3.72"/>
				<path class="st6" d="M99.39,152.24c1.99,0.5,4.25,0.48,8.71-0.73c4.47-1.21,6.82-3.35,6.46-4.61"/>
				<path class="st6" d="M104.59,153.79c2.92-0.65,7.95-2.77,11.57-1.16s4.33,5.18,4.33,5.18"/>
				<path class="st6" d="M148.14,175.44c3.32,2.18,6.9,8.72,6.23,14.37s-2.34,9.7-4.13,11.42"/>
				<path class="st9" d="M144.82,120.02c-1.3-3.63-1.62-10.68,6.25-15.39c7.86-4.71,23.35-11.68,46.39-11.68"/>
				<path class="st9" d="M250.07,119.89c1.25-3.49,1.65-10.43-6.22-15.14c-7.86-4.71-23.35-11.68-46.39-11.68"/>
				<path class="st9" d="M140.98,113.6c2.86,8.19,17.95,22.24,57.94,22.24s50.91-12.22,54.81-23.02"/>
				<path class="st6" d="M138.23,114c3,8.97,18.84,24.34,60.79,24.34s53.41-13.38,57.51-25.19"/>
				<path class="st4" d="M205.46,104.63c-0.55-1.76-1.41-4.02,0.43-5.35c1.84-1.33,5.94-5.55,6.09-7.31
					c0.16-1.76,0.82-8.32-14.81-8.32s-14.96,6.56-14.81,8.32c0.16,1.76,4.26,5.98,6.09,7.31c1.84,1.33,0.98,3.59,0.43,5.35"/>
				<path class="st6" d="M210.19,93.18c-2.42,2.19-6.09,4.45-13.01,4.45s-10.59-2.27-13.01-4.45"/>
				<path class="st12" d="M250.51,210.05c-16.04,7.81-29.51,11.33-53.28,11.33s-37.24-3.52-53.28-11.33"/>
				<path class="st13" d="M251.44,106.88"/>
				<path class="st13" d="M143.64,106.88"/>
				<path class="st6" d="M127.77,172.35c3.21,5.59,3.45,12.25,19.74,8.32"/>
				<path class="st6" d="M255.74,103.98c5.46-2.5,16.18-7.76,24.46-4.95"/>
				<path class="st6" d="M272.26,136.53c3.21-3.12,7.05-10.88,8.83-20.16"/>
				<path class="st6" d="M96.98,150.21c-0.18-0.69,1.5-1.58,3.65-2.19s5.54-1.7,8.46-1.97c2.91-0.26,4.38,0.3,4.38,0.3"/>
				<path class="st6" d="M145.74,205.25c12.78,8.07,29.51,10.47,55.16,10.47c25.65,0,58.74-9.99,70.63-27.38"/>
			</g>
		</g>
		<g>
			<defs>
				<polygon id="SVGID_00000001655912849080856440000018369144494095447197_" points="198.82,125.15 32.44,56.51 32.44,251.88 
					198.82,320.52 				"/>
			</defs>
			<clipPath id="SVGID_00000101785490586760916440000015435682605102143410_">
				<use xlink:href="#SVGID_00000001655912849080856440000018369144494095447197_"  style="overflow:visible;"/>
			</clipPath>
		</g>
		<g>
			<defs>
				<polygon id="SVGID_00000097457967799686267580000013226295211164010151_" points="198.82,125.15 32.44,56.51 32.44,251.88 
					198.82,320.52 				"/>
			</defs>
			<clipPath id="SVGID_00000098938306476689897880000008955207915683535244_">
				<use xlink:href="#SVGID_00000097457967799686267580000013226295211164010151_"  style="overflow:visible;"/>
			</clipPath>
		</g>
		<g>
			<polygon id="SVGID_00000061441205929151570660000006143195547468752045_" class="st9" points="198.82,125.15 32.44,56.51 
				32.44,251.88 198.82,320.52 			"/>
		</g>
	</g>
	<polygon class="st16" points="198.82,125.15 32.44,56.51 32.44,251.88 198.82,320.52 	"/>
	<path class="st13" d="M195.9,79.43l24.54,10.19c8.33,3.46,15.05,13.85,15.01,23.22l-0.1,31.85"/>
</g>
</svg>
