<svg xmlns="http://www.w3.org/2000/svg" xmlns:xlink="http://www.w3.org/1999/xlink" width="1024" height="720" viewBox="0 0 384 270" version="1.1" id="svg621"><style id="style10">.B{overflow:visible}.C{stroke:none}.D{stroke-miterlimit:10}.E{fill:none}.F{stroke-width:3}.H{stroke:#000}.I{stroke-width:.5}.S{stroke:#4d00ff}.ROD{stroke-dasharray:1.5,3;stroke:teal;stroke-width:1.5}.M{stroke:#00eb4d}.L{stroke:#f06}</style><defs id="defs259"><symbol id="N4" class="B"><path d="M4.281-2.187h-.828v-2.906l.031-.969-.031-.016h-.312c-.062 0-.125.063-.156.109-.625.766-1.781 2.406-2.703 3.828.031.156.094.422.391.422h2.031v.922c0 .453-.375.453-.812.484-.062.063-.062.266 0 .328L3.078 0l1.078.016c.063-.062.063-.266 0-.328-.484-.031-.703-.016-.703-.484v-.922h.688c.141 0 .297-.187.297-.312 0-.094-.047-.156-.156-.156zm-1.578-2.86v2.859H.797zm0 0" class="C" id="path12"/></symbol><symbol id="N0" class="B"><path d="M2.266.094c.781 0 1.938-.766 1.938-3.109 0-.984-.234-1.844-.672-2.422-.266-.344-.687-.641-1.219-.641-.984 0-1.922 1.172-1.922 3.141 0 1.078.328 2.063.875 2.625a1.43 1.43 0 0 0 1 .406zm.047-5.828a.68.68 0 0 1 .453.172c.313.266.578 1.016.578 2.359 0 .906-.031 1.531-.172 2.047-.219.813-.703.906-.891.906-.922 0-1.031-1.703-1.031-2.578 0-2.453.609-2.906 1.063-2.906zm0 0" class="C" id="path15"/></symbol><symbol id="N5" class="B"><path d="M3.188-1.891c0 .953-.5 1.656-1.109 1.656-.375 0-.5-.25-.656-.453C1.297-.859 1.125-1 .922-1c-.187 0-.391.156-.391.359 0 .406.859.75 1.422.75 1.234 0 2.109-.922 2.109-2.172 0-.969-.656-1.828-1.781-1.828-.422 0-.797.078-.969.156L1.5-5.406c.375.047.688.094 1.172.094.297 0 .641-.016 1.047-.062l.156-.672-.062-.047-1.641.109c-.375 0-.719-.016-1.078-.047L.75-3.156c.531-.203.922-.25 1.281-.25.641 0 1.156.438 1.156 1.516zm0 0" class="C" id="path18"/></symbol><symbol id="N6" class="B"><path d="M1.438-3.422c.266-.906.906-1.906 2.234-2.406 0-.125-.047-.219-.125-.266-1 .297-1.625.719-2.187 1.375C.75-4 .438-3.094.438-2.312.438-.297 1.578.109 2.359.109c1.297 0 1.844-1.266 1.844-2.125s-.469-1.625-1.828-1.625a2.46 2.46 0 0 0-.937.219zm-.094.359a1.45 1.45 0 0 1 .828-.234c.984 0 1.203.969 1.203 1.469 0 1.094-.422 1.594-.906 1.594-.641 0-1.203-.344-1.203-2.047 0-.234.016-.484.078-.781zm0 0" class="C" id="path21"/></symbol><symbol id="N7" class="B"><path d="M1.688-5.328h1.797L1.234.063l.078.063L2 .094l2.234-6.062-.172-.125c-.172.047-.391.109-.766.109H1.25c-.344 0-.328-.094-.5-.141-.031 0-.047 0-.047.031C.703-5.61.594-5.016.516-4.5c.109.031.203.047.313.031.219-.797.547-.859.859-.859zm0 0" class="C" id="path24"/></symbol><symbol id="N1" class="B"><path d="M2.875-1.219v-3.453l.031-1.344c0-.047-.031-.047-.062-.047-.547.344-1.078.594-1.953 1a.41.41 0 0 0 .141.266c.469-.187.688-.25.875-.25.172 0 .203.234.203.578v3.25c0 .828-.281.875-.969.906-.062.063-.062.266 0 .328L2.516 0l1.219.016c.063-.062.063-.266 0-.328-.687-.031-.859-.078-.859-.906zm0 0" class="C" id="path27"/></symbol><symbol id="N2" class="B"><path d="M.609-4.672c0 .219.188.391.391.391.172 0 .469-.172.469-.391 0-.078-.016-.141-.031-.219-.016-.062-.078-.156-.078-.234 0-.25.25-.609.984-.609.359 0 .859.25.859 1.203 0 .641-.219 1.156-.812 1.766l-.734.719C.672-1.047.516-.562.516.016L1.344 0h1.75l.781.016a11.04 11.04 0 0 0 .234-1.578c-.062-.047-.187-.062-.297-.047-.156.719-.328.969-.687.969H1.344c0-.484.688-1.156.734-1.219l1.016-.969c.563-.547 1-.984 1-1.734 0-1.078-.891-1.516-1.687-1.516-1.109 0-1.797.813-1.797 1.406zm0 0" class="C" id="path33"/></symbol><symbol id="Nn" class="B"><path d="M1.828-3.562c-.047.063-.109.078-.109 0-.016-.281-.031-.672-.078-.766-.031-.047-.047-.078-.125-.078-.281.109-.531.203-1.219.297-.031.047 0 .219.016.266.531.063.641.109.641.688v1.938c0 .813-.094.859-.687.906-.062.063-.062.266 0 .328L1.359 0l1 .016c.047-.062.047-.266 0-.328-.516-.047-.609-.094-.609-.906v-1.625c0-.219.078-.344.156-.422.391-.375.828-.594 1.219-.594.203 0 .406.125.531.359.109.203.125.469.125.766v1.516c0 .813-.109.859-.625.906-.047.063-.047.266 0 .328L4.172 0l1.063.016c.047-.062.047-.266 0-.328-.562-.047-.672-.094-.672-.906v-1.484c0-.547-.031-1.031-.266-1.328-.172-.219-.484-.344-.828-.344-.484 0-1.047.125-1.641.813zm0 0" class="C" id="path39"/></symbol><symbol id="Nm" class="B"><path d="M1.688-3.562c0-.312-.016-.672-.078-.766-.016-.047-.031-.078-.109-.078-.281.109-.547.203-1.234.297a.52.52 0 0 0 .031.266c.531.063.641.109.641.688v1.938c0 .813-.125.875-.672.906-.062.063-.062.266 0 .328L1.328 0l1.016.016c.063-.062.063-.266 0-.328-.516-.047-.625-.094-.625-.906v-1.625a.56.56 0 0 1 .172-.422c.406-.391.766-.594 1.078-.594.375 0 .656.234.656.906v1.734c0 .813-.078.875-.609.906-.062.063-.062.266 0 .328L4.031 0 5 .016c.047-.062.047-.266 0-.328-.5-.031-.578-.094-.578-.906v-1.578l-.016-.406c.484-.531.922-.656 1.313-.656.375 0 .594.219.594.891v1.75c0 .813-.094.875-.609.906-.047.063-.047.266 0 .328L6.719 0 7.75.016c.047-.062.047-.266 0-.328-.547-.031-.641-.094-.641-.906v-1.578c0-.875-.156-1.578-1.031-1.578-.5 0-1.125.188-1.641.734-.031.031-.094.078-.109-.016-.094-.406-.484-.719-1-.719-.578 0-1.094.344-1.516.813-.047.047-.109.109-.125 0zm0 0" class="C" id="path42"/></symbol><symbol id="N9" class="B"><path d="M3.266-2.547c-.281.906-.906 1.906-2.234 2.406 0 .125.031.203.109.266C2.156-.172 2.766-.594 3.328-1.25c.625-.719.922-1.625.922-2.406 0-2.031-1.141-2.422-1.906-2.422C1.031-6.078.5-4.812.5-3.953s.453 1.625 1.813 1.625c.266 0 .641-.078.953-.219zm.078-.359c-.328.219-.656.219-.828.219-.969 0-1.187-.953-1.187-1.453 0-1.094.422-1.594.906-1.594.625 0 1.188.344 1.188 2.047 0 .219-.016.484-.078.781zm0 0" class="C" id="path45"/></symbol><symbol id="N8" class="B"><path d="M3.922-4.828c0-.719-.562-1.25-1.547-1.25-1.016 0-1.672.609-1.672 1.375 0 .563.281.969.875 1.344l.266.156a4.606 4.606 0 0 0-.812.547c-.406.359-.578.813-.578 1.203 0 1.016.719 1.547 1.781 1.547 1.297 0 1.938-.953 1.938-1.703 0-.578-.25-1.094-.766-1.406l-.719-.437c.469-.219 1.234-.75 1.234-1.375zM2.25-.25a1.12 1.12 0 0 1-1.125-1.203c0-.297.125-1 .984-1.562l.469.281c.625.375.875.844.875 1.313 0 1-.75 1.172-1.203 1.172zm.078-5.484c.656 0 .891.438.891.891 0 .531-.531.984-.797 1.188l-.312-.187c-.625-.406-.687-.734-.687-1.047 0-.469.313-.844.906-.844zm0 0" class="C" id="path48"/></symbol><symbol id="N3" class="B"><path d="M2.141-5.734c.438 0 .828.266.828.906 0 .484-.578 1.266-1.562 1.406l.047.313c.172-.016.344-.016.484-.016.563 0 1.297.156 1.297 1.281C3.234-.516 2.359-.25 2-.25c-.5 0-.594-.234-.719-.406-.094-.141-.219-.266-.422-.266-.219 0-.422.188-.422.359 0 .391.844.656 1.438.656 1.188 0 2.234-.766 2.234-2.078 0-1.094-.812-1.469-1.391-1.578l-.016-.016c.813-.391 1.047-.797 1.047-1.328 0-.297-.078-.531-.312-.781-.219-.219-.562-.391-1.078-.391-1.469 0-1.891.953-1.891 1.281 0 .141.094.344.344.344.344 0 .391-.328.391-.516 0-.641.688-.766.938-.766zm0 0" class="C" id="path54"/></symbol><linearGradient id="AS" gradientUnits="userSpaceOnUse" x1="-13" y1="0" x2="400" y2="0"><stop offset="0" stop-color="#303" id="stop222"/><stop offset=".1" stop-color="#606" id="stop224"/><stop offset=".15" stop-color="#7F00E5" id="stop226"/><stop offset=".292" stop-color="#7F00FF" id="stop228"/><stop offset=".354" stop-color="#00F" id="stop230"/><stop offset=".385" stop-color="#007FFF" id="stop232"/><stop offset=".435" stop-color="#0FF" id="stop234"/><stop offset=".545" stop-color="#00FF7F" id="stop236"/><stop offset=".575" stop-color="#0F0" id="stop238"/><stop offset=".595" stop-color="#7FFF00" id="stop240"/><stop offset=".634" stop-color="#FF0" id="stop242"/><stop offset=".69" stop-color="#FF7F00" id="stop244"/><stop offset=".74" stop-color="#FF4D00" id="stop246"/><stop offset=".815" stop-color="#FF004D" id="stop248"/><stop offset=".9" stop-color="#F05" id="stop250"/><stop offset=".96" stop-color="#99002F" id="stop252"/><stop offset="1" stop-color="#4D0000" id="stop254"/></linearGradient><clipPath id="AR"><path d="M34.5 195h360v35H15zm0 0" id="path219"/></clipPath></defs><g class="E D" id="g271" transform="translate(-14.578 22.722)"><g stroke="#bfbfbf" class="I" id="g265"><path d="M66.664 194.977V13.035M120 194.977V13.035m53.336 181.941V13.035m53.336 181.941V13.035m53.336 181.941V13.035m53.336 181.941V13.035m53.336 181.941V13.035" id="path261"/><path d="M34.66 176.781h352.02M34.66 158.586h352.02M34.66 140.395h352.02M34.66 122.199h352.02M34.66 85.813h352.02M34.66 67.617h352.02M34.66 49.422h352.02M34.66 31.227h352.02M34.66 194.977h352.02M34.66 104.004h352.02M34.66 13.035h352.02" id="path263"/></g><path d="M77.332 194.977v-2.836M88 194.977v-2.836m10.664 2.836v-2.836m10.668 2.836v-2.836m21.336 2.836v-2.836m10.668 2.836v-2.836M152 194.977v-2.836m10.668 2.836v-2.836m21.336 2.836v-2.836m10.668 2.836v-2.836m10.664 2.836v-2.836m10.668 2.836v-2.836m21.336 2.836v-2.836m10.668 2.836v-2.836m10.664 2.836v-2.836m10.668 2.836v-2.836m21.336 2.836v-2.836m10.668 2.836v-2.836m10.668 2.836v-2.836m10.664 2.836v-2.836m21.336 2.836v-2.836m10.668 2.836v-2.836m10.668 2.836v-2.836m10.664 2.836v-2.836M77.332 13.035v2.836M88 13.035v2.836m10.664-2.836v2.836m10.668-2.836v2.836m21.336-2.836v2.836m10.668-2.836v2.836M152 13.035v2.836m10.668-2.836v2.836m21.336-2.836v2.836m10.668-2.836v2.836m10.664-2.836v2.836m10.668-2.836v2.836m21.336-2.836v2.836m10.668-2.836v2.836m10.664-2.836v2.836m10.668-2.836v2.836m21.336-2.836v2.836m10.668-2.836v2.836m10.668-2.836v2.836m10.664-2.836v2.836m21.336-2.836v2.836m10.668-2.836v2.836m10.668-2.836v2.836m10.664-2.836v2.836M66.664 194.977v-4.254M120 194.977v-4.254m53.336 4.254v-4.254m53.336 4.254v-4.254m53.336 4.254v-4.254m53.336 4.254v-4.254m53.336 4.254v-4.254M66.664 13.035v4.25M120 13.035v4.25m53.336-4.25v4.25m53.336-4.25v4.25m53.336-4.25v4.25m53.336-4.25v4.25m53.336-4.25v4.25M34.66 176.781h2.836m-2.836-18.195h2.836m-2.836-18.191h2.836M34.66 122.2h2.836M34.66 85.813h2.836M34.66 67.617h2.836M34.66 49.422h2.836M34.66 31.227h2.836M386.68 176.781h-2.836m2.836-18.195h-2.836m2.836-18.191h-2.836m2.836-18.195h-2.836m2.836-36.387h-2.836m2.836-18.195h-2.836m2.836-18.195h-2.836m2.836-18.195h-2.836M34.66 194.977h4.254m-4.254-90.973h4.254M34.66 13.035h4.254M386.68 194.977h-4.25m4.25-90.973h-4.25m4.25-90.969h-4.25" stroke-width=".199" stroke="#7f7f7f" id="path267"/><path d="M34.66 194.977V13.035h352.02v181.941zm0 0" class="H I" id="path269"/></g><g id="g327" transform="translate(-14.25 22.5)" style="fill:navy"><use xlink:href="#N4" x="59.714" y="227.573" id="use273" width="100%" height="100%"/><use xlink:href="#N0" x="64.347" y="227.573" id="use275" width="100%" height="100%"/><use xlink:href="#N0" x="68.979" y="227.573" id="use277" width="100%" height="100%"/><use xlink:href="#N4" x="113.05" y="227.583" id="use279" width="100%" height="100%"/><use xlink:href="#N5" x="117.683" y="227.583" id="use281" width="100%" height="100%"/><use xlink:href="#N0" x="122.315" y="227.583" id="use283" width="100%" height="100%"/><use xlink:href="#N5" x="166.385" y="227.583" id="use285" width="100%" height="100%"/><use xlink:href="#N0" x="171.018" y="227.583" id="use287" width="100%" height="100%"/><use xlink:href="#N0" x="175.65" y="227.583" id="use289" width="100%" height="100%"/><use xlink:href="#N5" x="219.721" y="227.583" id="use291" width="100%" height="100%"/><use xlink:href="#N5" x="224.354" y="227.583" id="use293" width="100%" height="100%"/><use xlink:href="#N0" x="228.986" y="227.583" id="use295" width="100%" height="100%"/><use xlink:href="#N6" x="273.056" y="227.583" id="use297" width="100%" height="100%"/><use xlink:href="#N0" x="277.689" y="227.583" id="use299" width="100%" height="100%"/><use xlink:href="#N0" x="282.321" y="227.583" id="use301" width="100%" height="100%"/><use xlink:href="#N6" x="326.391" y="227.583" id="use303" width="100%" height="100%"/><use xlink:href="#N5" x="331.024" y="227.583" id="use305" width="100%" height="100%"/><use xlink:href="#N0" x="335.656" y="227.583" id="use307" width="100%" height="100%"/><use xlink:href="#N7" x="379.727" y="227.613" id="use309" width="100%" height="100%"/><use xlink:href="#N0" x="384.36" y="227.613" id="use311" width="100%" height="100%"/><use xlink:href="#N0" x="388.992" y="227.613" id="use313" width="100%" height="100%"/><use xlink:href="#N0" x="26.509" y="197.965" id="use315" width="100%" height="100%"/><use xlink:href="#N5" x="21.877" y="106.995" id="use317" width="100%" height="100%"/><use xlink:href="#N0" x="26.51" y="106.995" id="use319" width="100%" height="100%"/><use xlink:href="#N1" x="17.244" y="16.025" id="use321" width="100%" height="100%"/><use xlink:href="#N0" x="21.877" y="16.025" id="use323" width="100%" height="100%"/><use xlink:href="#N0" x="26.509" y="16.025" id="use325" width="100%" height="100%"/></g><path d="m20.082 108.535 10.742-16.594c5.359-8.152 5.328-7.039 10.719-16.039 5.391-9 5.547-11.277 10.871-20 5.324-8.723 5.297-9.824 10.441-14.91 5.144-5.086 4.867-5.496 10.168-5.457 5.301.039 5.496.234 11.051 5.609s5.754 4.578 11.191 15.922c5.437 11.344 5.242 12.785 10.57 29.496s5.434 21.695 10.762 37.418c5.328 15.723 5.117 14.121 10.582 25.531 5.465 11.41 5.949 11.5 11.309 20.152 5.36 8.652 5.035 8.664 10.145 14.484 5.11 5.82 4.957 4.703 10.316 8.828 5.359 4.125 5.668 3.992 11.133 7.695 5.465 3.703 5.316 4.133 10.754 7.125a75.39 75.39 0 0 0 11.031 4.859" class="D E F S" id="path329"/><path d="M52.488 157.77s5.57-.453 10.719-2.18c5.149-1.727 4.602-1.59 9.91-4.73 5.308-3.14 5.777-2.09 11.363-7.848 5.586-5.758 5.711-6.336 11.008-15.207 5.297-8.871 4.938-9.879 10.199-20.305l10.867-21.434c5.305-10.57 5.066-11.652 10.371-20.879 5.305-9.227 5.477-9.383 10.859-16.066s5.492-7.305 10.688-10.695c5.196-3.39 4.926-3.695 10.113-2.891 5.187.804 5.203.258 10.656 6.109s5.559 6.832 11.168 17.316c5.609 10.484 5.586 11.711 11.285 24.668 5.699 12.957 6.125 12.844 11.531 27.215 5.406 14.371 5.207 16.805 10.125 30.32s4.543 13.824 9.555 23.813c5.012 9.989 5.09 9.156 10.52 16.172s5.602 6.465 11.223 11.926 5.727 5.754 11.285 9.945c5.558 4.191 10.977 6.828 10.977 6.828" class="D E F H ROD" id="path343"/><path d="m52.629 152.395 10.707.648 9.91.93s6.004 1.457 11.563 1.211c5.559-.246 5.434-.461 10.699-2.191 5.265-1.73 5.121-1.598 10.391-4.742s5.445-2.309 10.711-7.855 5.016-7.406 10.367-14.371c5.351-6.965 5.633-5.352 11.063-13.52 5.43-8.168 5.547-9.742 10.688-19.184 5.141-9.442 4.719-9.531 9.902-18.621 5.183-9.09 5.465-9.883 10.848-17.773 5.383-7.89 5.344-8.539 10.699-13.812 5.355-5.273 5.188-5.848 10.742-7.309 5.554-1.461 6.113-1.242 11.5 1.469 5.387 2.711 5.047 2.152 10.066 9.379 5.019 7.227 5.023 8.313 10.039 19.57s4.555 12.203 10.051 25.508l11.945 27.773c5.734 12.813 5.52 12.34 11.02 23.527 5.5 11.187 5.652 12.055 11 21.262s5.207 8.727 10.41 15.598 5.195 6.605 10.422 11.922 5.18 5.68 10.508 9.371c5.328 3.691 5.664 2.922 10.824 5.414a372.98 372.98 0 0 0 9.848 4.559" class="D E F M" id="path357"/><path d="M52.617 149.848s5.566 1.531 10.719 3.48 4.586 1.953 9.91 4.324c5.324 2.371 5.852 3.293 11.414 5.168 5.562 1.875 5.555 1.313 10.859 2.336s5.074 2.512 10.391 1.766 5.668-1.875 10.891-4.738c5.223-2.863 4.664-2.168 10.027-6.73 5.363-4.562 5.871-5.211 11.445-11.539 5.574-6.328 5.789-6.555 10.883-13.809 5.094-7.254 4.316-7.691 9.516-15.227 5.2-7.536 5.801-6.559 11.293-14.937 5.492-8.378 5.289-9.816 10.711-18.625 5.422-8.809 5.566-8.828 11-16.645s5.496-8.684 10.75-14.668 5.227-5.781 10.297-9.293c5.07-3.512 4.941-3.801 10.004-4.766 5.063-.965 4.848-1.457 10.262.895 5.414 2.352 5.742 2.434 11.414 8.531s6.023 7.035 11.297 15.887c5.274 8.852 4.609 8.727 9.813 19.559 5.204 10.832 5.742 11.352 11.02 23.805s4.648 13.543 10.125 26.07c5.477 12.527 6.473 14.32 11.797 24.09 5.324 9.77 4.52 7.238 9.527 15.027 5.007 7.789 4.887 9.012 10.516 16.164 5.629 7.152 6.871 7.801 12.023 12.48 5.152 4.679 3.68 3.203 8.609 6.258s11.125 5.973 11.125 5.973" class="D E F L" id="path371"/><g clip-path="url(#AR)" id="g387" transform="translate(-14.25 22.5)"><path d="M34.5 220V20H387v200zm0 0" fill="url(#AS)" id="path385" style="fill:url(#AS)"/></g><g class="D" id="g543" transform="translate(-14.25 22.5)"><path d="M296.617 72.012h85.305v-53.32h-85.305zm0 0" class="H I" id="path539" style="fill:#e6e0dd;fill-opacity:.87451"/><path d="M300.598 26.902h17.008" class="E F S" id="path541"/></g><path d="M286.348 86.336h24.857" class="D E F H ROD" id="path565"/><path d="M286.348 61.87h17.008" class="D E F M" id="path577"/><path d="M286.348 74.305h17.008" class="D E F L" id="path601"/><g aria-label="Wavelength (nm)" id="text629" style="fill:#30a;fill-opacity:1;stroke-width:.375"><path d="M151.12 262q-.107 0-.131-.095l-2.256-8.172-.012-.036q0-.096.12-.096h.972q.108 0 .132.108l1.572 5.976q.012.024.024.024.024 0 .036-.024l1.488-5.976q.024-.108.132-.108h.948q.108 0 .132.108l1.572 5.988q.012.024.024.024t.024-.024l1.584-5.988q.024-.108.132-.108h.912q.06 0 .084.036.036.036.024.096l-2.172 8.16q-.024.108-.132.108h-.924q-.108 0-.132-.108L153.7 255.7q-.012-.036-.024-.036t-.024.036l-1.524 6.192q-.012.108-.132.108z" style="fill:#30a;fill-opacity:1;stroke-width:.375" id="path2214"/><path d="M161.407 255.797q.732 0 1.272.264.552.252.84.72.3.456.3 1.044v4.056q0 .12-.12.12h-.912q-.12 0-.12-.12v-.432q0-.06-.06-.024-.312.324-.768.504-.444.168-.996.168-.888 0-1.476-.444-.576-.456-.576-1.368 0-.936.648-1.464.66-.54 1.836-.54h1.344q.048 0 .048-.048v-.324q0-.528-.312-.816-.3-.3-.924-.3-.504 0-.828.204-.312.192-.384.528-.036.12-.144.108l-.972-.132q-.12-.024-.108-.096.096-.708.756-1.152.66-.456 1.656-.456zm-.312 5.328q.636 0 1.104-.336.468-.336.468-.852v-.708q0-.048-.048-.048h-1.128q-.708 0-1.128.276-.42.276-.42.768 0 .444.312.672.324.228.84.228z" style="fill:#30a;fill-opacity:1;stroke-width:.375" id="path2216"/><path d="M166.877 262q-.108 0-.144-.095l-1.956-5.88-.012-.048q0-.084.108-.084h1.008q.108 0 .144.096l1.32 4.344q.012.024.036.024.024 0 .036-.024l1.308-4.344q.036-.096.144-.096l1.008.012q.132 0 .096.132l-1.944 5.868q-.036.096-.144.096z" style="fill:#30a;fill-opacity:1;stroke-width:.375" id="path2218"/><path d="M175.838 258.185q.048.492.036 1.104 0 .12-.12.12h-3.828q-.048 0-.048.048 0 .408.072.624.132.48.528.756.408.264 1.02.264.888 0 1.368-.732.06-.12.156-.036l.684.456q.084.072.036.156-.336.54-.96.852-.612.312-1.392.312-.876 0-1.476-.384t-.9-1.092q-.288-.708-.288-1.716 0-.876.132-1.332.216-.828.864-1.308.648-.48 1.572-.48 1.212 0 1.812.612.6.6.732 1.776zm-2.544-1.392q-.516 0-.852.264-.336.252-.456.684-.084.264-.108.672 0 .048.048.048h2.748q.048 0 .048-.048-.024-.396-.072-.588-.12-.468-.48-.744-.348-.288-.876-.288z" style="fill:#30a;fill-opacity:1;stroke-width:.375" id="path2220"/><path d="M177.436 262q-.12 0-.12-.12v-8.16q0-.12.12-.12h.912q.12 0 .12.12v8.16q0 .12-.12.12z" style="fill:#30a;fill-opacity:1;stroke-width:.375" id="path2222"/><path d="M185.072 258.185q.048.492.036 1.104 0 .12-.12.12h-3.828q-.048 0-.048.048 0 .408.072.624.132.48.528.756.408.264 1.02.264.888 0 1.368-.732.06-.12.156-.036l.684.456q.084.072.036.156-.336.54-.96.852-.612.312-1.392.312-.876 0-1.476-.384t-.9-1.092q-.288-.708-.288-1.716 0-.876.132-1.332.216-.828.864-1.308.648-.48 1.572-.48 1.212 0 1.812.612.6.6.732 1.776zm-2.544-1.392q-.516 0-.852.264-.336.252-.456.684-.084.264-.108.672 0 .048.048.048h2.748q.048 0 .048-.048-.024-.396-.072-.588-.12-.468-.48-.744-.348-.288-.876-.288z" style="fill:#30a;fill-opacity:1;stroke-width:.375" id="path2224"/><path d="M189.274 255.809q.984 0 1.56.576.576.564.576 1.536v3.96q0 .12-.12.12h-.912q-.12 0-.12-.12v-3.732q0-.6-.348-.972t-.924-.372q-.564 0-.924.372-.36.372-.36.96v3.744q0 .12-.12.12h-.912q-.12 0-.12-.12v-5.868q0-.12.12-.12h.912q.12 0 .12.12v.432q0 .024.012.036.024.012.036-.012.516-.66 1.524-.66z" style="fill:#30a;fill-opacity:1;stroke-width:.375" id="path2226"/><path d="M196.822 256.013q0-.12.12-.12h.912q.12 0 .12.12v5.676q0 1.452-.828 2.076-.816.624-2.196.624-.192 0-.6-.024-.12-.012-.12-.132l.036-.828q0-.048.036-.084.036-.036.096-.024.168.012.492.012 1.02 0 1.476-.384.456-.372.456-1.272v-.216q0-.024-.024-.036-.012-.012-.036.012-.504.588-1.476.588-.78 0-1.416-.408-.624-.408-.864-1.2-.156-.528-.156-1.464 0-.996.18-1.536.228-.72.804-1.152.588-.444 1.38-.444.984 0 1.548.6.024.024.036.024.024-.012.024-.036zm-.072 4.032q.036-.192.048-.408.024-.216.024-.72t-.024-.708q-.012-.216-.06-.408-.096-.444-.432-.72-.336-.288-.84-.288t-.84.288q-.336.276-.48.72-.132.36-.132 1.116 0 .828.12 1.128.12.444.468.732.36.276.864.276.528 0 .852-.276.336-.288.432-.732z" style="fill:#30a;fill-opacity:1;stroke-width:.375" id="path2228"/><path d="M202.593 256.72q0 .12-.12.12h-1.296q-.048 0-.048.049v3.18q0 .504.228.732.228.216.708.216h.348q.12 0 .12.12v.744q0 .12-.12.12-.384.024-.552.024-.912 0-1.38-.324-.456-.336-.456-1.224v-3.588q0-.048-.048-.048h-.732q-.12 0-.12-.12v-.708q0-.12.12-.12h.732q.048 0 .048-.048v-1.416q0-.12.12-.12h.864q.12 0 .12.12v1.416q0 .048.048.048h1.296q.12 0 .12.12z" style="fill:#30a;fill-opacity:1;stroke-width:.375" id="path2230"/><path d="M206.735 255.809q.984 0 1.56.576.576.564.576 1.536v3.96q0 .12-.12.12h-.912q-.12 0-.12-.12v-3.732q0-.6-.348-.972t-.924-.372q-.564 0-.924.372-.36.372-.36.96v3.744q0 .12-.12.12h-.912q-.12 0-.12-.12v-8.16q0-.12.12-.12h.912q.12 0 .12.12v2.724q0 .024.012.036.024.012.036-.012.516-.66 1.524-.66z" style="fill:#30a;fill-opacity:1;stroke-width:.375" id="path2232"/><path d="M213.577 263.2q-.084 0-.144-.071-.624-.912-1.008-2.232-.384-1.32-.384-2.832 0-1.548.384-2.88.396-1.344 1.032-2.256.048-.072.144-.072h.864q.072 0 .096.048.024.036-.012.096-.528.948-.876 2.268-.336 1.308-.336 2.784 0 1.476.336 2.772.348 1.296.876 2.232.024.048.024.072 0 .072-.108.072z" style="fill:#30a;fill-opacity:1;stroke-width:.375" id="path2234"/><path d="M219.133 255.809q.984 0 1.56.576.576.564.576 1.536v3.96q0 .12-.12.12h-.912q-.12 0-.12-.12v-3.732q0-.6-.348-.972t-.924-.372q-.564 0-.924.372-.36.372-.36.96v3.744q0 .12-.12.12h-.912q-.12 0-.12-.12v-5.868q0-.12.12-.12h.912q.12 0 .12.12v.432q0 .024.012.036.024.012.036-.012.516-.66 1.524-.66z" style="fill:#30a;fill-opacity:1;stroke-width:.375" id="path2236"/><path d="M229.273 255.809q.912 0 1.44.552.528.54.528 1.512v4.008q0 .12-.12.12h-.9q-.12 0-.12-.12v-3.768q0-.6-.336-.948-.324-.36-.876-.36t-.9.348q-.348.348-.348.936v3.792q0 .12-.12.12h-.9q-.12 0-.12-.12v-3.768q0-.6-.336-.948-.324-.36-.876-.36t-.888.348q-.324.348-.324.936v3.792q0 .12-.12.12h-.912q-.12 0-.12-.12v-5.868q0-.12.12-.12h.912q.12 0 .12.12v.408q0 .024.012.036.024.012.048-.012.528-.636 1.536-.636.612 0 1.044.24.432.228.672.684.036.048.072 0 .288-.468.756-.696.48-.228 1.056-.228z" style="fill:#30a;fill-opacity:1;stroke-width:.375" id="path2238"/><path d="M233.991 252.857q.084 0 .144.072.636.912 1.02 2.232.384 1.32.384 2.832 0 1.536-.396 2.88-.384 1.332-1.02 2.256-.048.072-.144.072h-.876q-.072 0-.096-.048-.024-.036.012-.096.54-.948.876-2.256.348-1.32.348-2.796 0-1.464-.348-2.76-.336-1.308-.876-2.244-.024-.048-.024-.072 0-.072.108-.072z" style="fill:#30a;fill-opacity:1;stroke-width:.375" id="path2240"/></g><g aria-label="NORMALIZED HUMAN CONE RESPONSE" id="text629-2" style="fill:#30a;fill-opacity:1;stroke-width:.375"><path d="M38.656 6.562h1.857l5.708 2.988V6.562h1.857v9.158H46.22v-4.201l-5.708-2.97v7.171h-1.857z" style="fill:#30a;fill-opacity:1;stroke-width:.375" id="path1908"/><path d="M50.129 11.115q0-1.038.38-1.899.381-.861 1.067-1.476.691-.622 1.652-.961.967-.34 2.139-.34 1.166 0 2.133.34.967.34 1.652.96.692.616 1.072 1.477.381.861.381 1.899 0 1.043-.38 1.916-.381.867-1.073 1.494-.685.627-1.652.978-.967.346-2.133.346-1.172 0-2.139-.346-.96-.351-1.652-.978-.686-.627-1.066-1.494-.381-.873-.381-1.916zm1.857 0q0 .709.252 1.277.258.568.71.973.456.398 1.071.615.621.217 1.348.217.727 0 1.342-.217.62-.217 1.072-.615.451-.405.71-.973.257-.568.257-1.277 0-.71-.258-1.272t-.709-.95q-.451-.392-1.072-.597-.615-.205-1.342-.205-.727 0-1.348.205-.615.205-1.072.598-.451.387-.709.95-.252.562-.252 1.27z" style="fill:#30a;fill-opacity:1;stroke-width:.375" id="path1910"/><path d="M62.668 6.562h4.658q1.055 0 1.828.222.774.217 1.283.633.51.416.756 1.014.252.598.252 1.353 0 .51-.123.973-.123.457-.38.844-.253.387-.64.691-.386.3-.908.498l1.993 2.93h-2.274l-1.723-2.602h-.052l-2.813-.005v2.607h-1.857zm4.705 4.945q.527 0 .92-.123.398-.123.662-.346.27-.222.398-.539.135-.322.135-.715 0-.767-.527-1.183-.528-.422-1.588-.422h-2.848v3.328z" style="fill:#30a;fill-opacity:1;stroke-width:.375" id="path1912"/><path d="M73.642 6.562H75.5l3.328 3.34 3.328-3.34h1.857v9.158h-1.857V9.134l-3.328 3.205L75.5 9.134v6.586h-1.858z" style="fill:#30a;fill-opacity:1;stroke-width:.375" id="path1914"/><path d="M89.744 6.562h1.969l4.43 9.158H94.19l-.732-1.541h-5.35L87.4 15.72h-1.957zm2.982 6.088-1.98-4.16-1.928 4.16z" style="fill:#30a;fill-opacity:1;stroke-width:.375" id="path1916"/><path d="M97.566 6.562h1.858v7.53h5.326v1.628h-7.184z" style="fill:#30a;fill-opacity:1;stroke-width:.375" id="path1918"/><path d="M106.308 6.562h1.87v9.158h-1.87z" style="fill:#30a;fill-opacity:1;stroke-width:.375" id="path1920"/><path d="m114.763 9.216.88-1.072h-5.503V6.562h8.96l-5.128 6.44-.914 1.136h5.754v1.582h-9.123z" style="fill:#30a;fill-opacity:1;stroke-width:.375" id="path1922"/><path d="M120.582 6.562h7.799V8.19h-5.942v1.828h5.262v1.53h-5.262v2.548h6.065v1.623h-7.922z" style="fill:#30a;fill-opacity:1;stroke-width:.375" id="path1924"/><path d="M130.566 6.562h3.358q1.47 0 2.554.316 1.084.317 1.793.908.715.586 1.06 1.43.352.838.352 1.887 0 .996-.345 1.846-.346.843-1.055 1.464-.709.616-1.793.967-1.084.346-2.555.346l-3.369-.006zm3.815 7.553q.832 0 1.459-.211.627-.217 1.043-.61.422-.392.632-.949.211-.557.211-1.242 0-.674-.21-1.213-.211-.545-.633-.92-.416-.38-1.043-.586-.627-.205-1.46-.205h-1.956v5.936z" style="fill:#30a;fill-opacity:1;stroke-width:.375" id="path1926"/><path d="M145.537 6.562h1.857v2.39h5.696v-2.39h1.863v9.158h-1.863v-5.18h-5.696v5.18h-1.857z" style="fill:#30a;fill-opacity:1;stroke-width:.375" id="path1928"/><path d="M157.22 6.562h1.858v5.045q0 .62.17 1.107.17.48.504.815.34.334.838.51.498.17 1.16.17.656 0 1.154-.17.504-.176.838-.51.34-.334.51-.815.17-.486.17-1.107V6.562h1.857v5.267q0 .903-.305 1.641-.304.738-.884 1.266-.58.527-1.424.814-.838.287-1.916.287-1.078 0-1.922-.287-.838-.287-1.418-.814-.58-.528-.885-1.266-.304-.738-.304-1.64z" style="fill:#30a;fill-opacity:1;stroke-width:.375" id="path1930"/><path d="M168.54 6.562h1.858l3.328 3.34 3.329-3.34h1.857v9.158h-1.857V9.134l-3.329 3.205-3.328-3.205v6.586h-1.857z" style="fill:#30a;fill-opacity:1;stroke-width:.375" id="path1932"/><path d="M184.642 6.562h1.97l4.429 9.158h-1.951l-.733-1.541h-5.35l-.708 1.541h-1.957zm2.983 6.088-1.98-4.16-1.928 4.16z" style="fill:#30a;fill-opacity:1;stroke-width:.375" id="path1934"/><path d="M192.453 6.562h1.857l5.707 2.988V6.562h1.858v9.158h-1.858v-4.201l-5.707-2.97v7.171h-1.857z" style="fill:#30a;fill-opacity:1;stroke-width:.375" id="path1936"/><path d="M207.892 11.085q0-.978.37-1.822.369-.85 1.066-1.47.703-.628 1.71-.985 1.015-.357 2.292-.357 1.119 0 2.05.228.938.223 1.74.686l-.855 1.406q-.24-.158-.556-.281-.31-.123-.668-.206-.352-.087-.733-.134-.375-.047-.744-.047-.89 0-1.588.223-.697.216-1.177.615-.475.392-.727.943-.246.545-.246 1.201 0 .68.258 1.248.258.569.744.985.492.41 1.195.644.71.229 1.6.229.404 0 .803-.059.398-.058.767-.158.375-.106.72-.246.347-.147.645-.317l.856 1.407q-.75.48-1.734.756-.985.27-2.092.27-1.412 0-2.479-.364-1.066-.37-1.781-1.008-.715-.645-1.078-1.512-.358-.873-.358-1.875z" style="fill:#30a;fill-opacity:1;stroke-width:.375" id="path1938"/><path d="M218.926 11.115q0-1.038.38-1.899.381-.861 1.067-1.476.691-.622 1.652-.961.967-.34 2.139-.34 1.166 0 2.133.34.966.34 1.652.96.691.616 1.072 1.477.381.861.381 1.899 0 1.043-.38 1.916-.382.867-1.073 1.494-.686.627-1.652.978-.967.346-2.133.346-1.172 0-2.139-.346-.96-.351-1.652-.978-.686-.627-1.067-1.494-.38-.873-.38-1.916zm1.857 0q0 .709.252 1.277.258.568.709.973.457.398 1.072.615.621.217 1.348.217.726 0 1.342-.217.62-.217 1.072-.615.451-.405.709-.973.258-.568.258-1.277 0-.71-.258-1.272t-.71-.95q-.45-.392-1.071-.597-.616-.205-1.342-.205-.727 0-1.348.205-.615.205-1.072.598-.451.387-.709.95-.252.562-.252 1.27z" style="fill:#30a;fill-opacity:1;stroke-width:.375" id="path1940"/><path d="M231.453 6.562h1.857l5.707 2.988V6.562h1.858v9.158h-1.858v-4.201l-5.707-2.97v7.171h-1.857z" style="fill:#30a;fill-opacity:1;stroke-width:.375" id="path1942"/><path d="M243.465 6.562h7.798V8.19h-5.94v1.828h5.26v1.53h-5.26v2.548h6.064v1.623h-7.922z" style="fill:#30a;fill-opacity:1;stroke-width:.375" id="path1944"/><path d="M257.433 6.562h4.659q1.054 0 1.828.222.773.217 1.283.633.51.416.756 1.014.252.598.252 1.353 0 .51-.123.973-.123.457-.381.844-.252.387-.639.691-.387.3-.908.498l1.992 2.93h-2.273l-1.723-2.602h-.053l-2.812-.005v2.607h-1.858zm4.705 4.945q.528 0 .92-.123.399-.123.663-.346.27-.222.398-.539.135-.322.135-.715 0-.767-.528-1.183-.527-.422-1.588-.422h-2.847v3.328z" style="fill:#30a;fill-opacity:1;stroke-width:.375" id="path1946"/><path d="M268.402 6.562h7.799V8.19h-5.941v1.828h5.261v1.53h-5.261v2.548h6.064v1.623h-7.922z" style="fill:#30a;fill-opacity:1;stroke-width:.375" id="path1948"/><path d="M278.814 12.995q.498.282 1.008.51.516.223 1.066.381.551.152 1.155.234.61.082 1.295.082.826 0 1.406-.105.58-.111.943-.299.37-.193.534-.457.17-.264.17-.574 0-.498-.417-.785-.416-.293-1.283-.293-.38 0-.803.053-.421.046-.855.105-.428.059-.85.111-.416.047-.785.047-.615 0-1.183-.158-.563-.158-1.002-.475-.434-.316-.692-.79-.258-.475-.258-1.108 0-.375.1-.744.106-.37.328-.703.229-.34.586-.627.358-.293.861-.504.51-.211 1.172-.328.668-.123 1.518-.123.615 0 1.236.07.621.064 1.207.187.592.123 1.137.3.545.17 1.014.38l-.815 1.5q-.386-.17-.832-.31-.445-.147-.931-.252-.487-.106-1.008-.164-.516-.065-1.055-.065-.768 0-1.266.111-.492.112-.785.288-.293.17-.41.386-.111.211-.111.422 0 .41.369.674.37.258 1.125.258.305 0 .697-.041l.832-.1q.44-.053.89-.094.458-.046.886-.046.808 0 1.43.181.626.182 1.048.522.422.334.639.814.217.475.217 1.067 0 .79-.37 1.412-.363.615-1.043 1.043-.673.421-1.628.644-.955.217-2.127.217-.774 0-1.512-.1-.738-.093-1.418-.27-.674-.18-1.29-.427-.608-.252-1.13-.55z" style="fill:#30a;fill-opacity:1;stroke-width:.375" id="path1950"/><path d="M290.387 6.562h4.828q1.054 0 1.828.228.773.229 1.283.662.51.428.756 1.05.252.62.252 1.4 0 .732-.246 1.353t-.756 1.078q-.504.451-1.277.71-.774.251-1.829.251l-2.982-.006v2.432h-1.857zm4.875 5.12q.527 0 .92-.122.398-.129.662-.358.27-.234.398-.562.135-.334.135-.738 0-.815-.533-1.266-.528-.457-1.582-.457h-3.018v3.504z" style="fill:#30a;fill-opacity:1;stroke-width:.375" id="path1952"/><path d="M300.816 11.115q0-1.038.381-1.899t1.066-1.476q.692-.622 1.653-.961.967-.34 2.139-.34 1.166 0 2.132.34.967.34 1.653.96.691.616 1.072 1.477.38.861.38 1.899 0 1.043-.38 1.916-.38.867-1.072 1.494-.686.627-1.653.978-.966.346-2.132.346-1.172 0-2.14-.346-.96-.351-1.652-.978-.685-.627-1.066-1.494-.38-.873-.38-1.916zm1.858 0q0 .709.252 1.277.257.568.709.973.457.398 1.072.615.621.217 1.348.217.726 0 1.341-.217.621-.217 1.073-.615.45-.405.709-.973.257-.568.257-1.277 0-.71-.257-1.272-.258-.562-.71-.95-.45-.392-1.072-.597-.615-.205-1.341-.205-.727 0-1.348.205-.615.205-1.072.598-.452.387-.71.95-.251.562-.251 1.27z" style="fill:#30a;fill-opacity:1;stroke-width:.375" id="path1954"/><path d="M313.344 6.562h1.857l5.707 2.988V6.562h1.857v9.158h-1.857v-4.201l-5.707-2.97v7.171h-1.857z" style="fill:#30a;fill-opacity:1;stroke-width:.375" id="path1956"/><path d="M325.783 12.995q.498.282 1.008.51.515.223 1.066.381.551.152 1.155.234.609.082 1.294.082.827 0 1.407-.105.58-.111.943-.299.37-.193.533-.457.17-.264.17-.574 0-.498-.416-.785-.416-.293-1.283-.293-.38 0-.803.053-.422.046-.855.105-.428.059-.85.111-.416.047-.785.047-.615 0-1.184-.158-.562-.158-1.002-.475-.433-.316-.69-.79-.259-.475-.259-1.108 0-.375.1-.744.105-.37.328-.703.228-.34.586-.627.357-.293.861-.504.51-.211 1.172-.328.668-.123 1.518-.123.615 0 1.236.07.621.064 1.207.187.592.123 1.137.3.545.17 1.013.38l-.814 1.5q-.387-.17-.832-.31-.445-.147-.932-.252-.486-.106-1.008-.164-.515-.065-1.054-.065-.768 0-1.266.111-.492.112-.785.288-.293.17-.41.386-.111.211-.111.422 0 .41.369.674.369.258 1.125.258.304 0 .697-.041l.832-.1q.44-.053.89-.094.458-.046.885-.046.809 0 1.43.181.627.182 1.049.522.422.334.639.814.216.475.216 1.067 0 .79-.369 1.412-.363.615-1.043 1.043-.674.421-1.629.644-.955.217-2.127.217-.773 0-1.511-.1-.739-.093-1.418-.27-.674-.18-1.29-.427-.609-.252-1.13-.55z" style="fill:#30a;fill-opacity:1;stroke-width:.375" id="path1958"/><path d="M337.355 6.562h7.8V8.19h-5.942v1.828h5.261v1.53h-5.261v2.548h6.064v1.623h-7.922z" style="fill:#30a;fill-opacity:1;stroke-width:.375" id="path1960"/></g><g aria-label="S Cone (Blue)" id="text1474" style="stroke-width:.375"><path d="M311.403 50.558q0 .504-.157.914-.158.399-.43.672-.263.273-.63.42-.368.147-.788.147-.567 0-1.082-.231-.504-.242-.808-.63l.556-.683q.242.315.599.494.367.178.735.178.472 0 .777-.315.304-.315.304-.913 0-.284-.094-.494-.095-.22-.263-.388-.168-.179-.388-.315-.21-.147-.462-.273-.305-.147-.578-.326-.262-.189-.472-.43-.21-.242-.336-.567-.116-.336-.116-.788 0-.535.168-.934.168-.4.441-.662.284-.262.641-.388.357-.126.724-.126.536 0 .956.178.43.179.714.536l-.567.672q-.399-.525-1.071-.525-.2 0-.399.073-.189.063-.347.22-.157.148-.252.379-.094.23-.094.556 0 .284.084.494.094.2.241.367.158.158.357.294.2.126.431.242.294.147.577.336.284.178.515.43.231.252.367.599.147.336.147.787z" style="stroke-width:.375" id="path2047"/><path d="M320.031 51.734q-.283.441-.724.714-.441.263-1.071.263-.62 0-1.113-.294-.494-.294-.83-.82-.336-.524-.514-1.228-.179-.714-.179-1.554 0-.84.179-1.554.189-.714.525-1.228.346-.525.83-.82.493-.293 1.102-.293.567 0 1.04.22.472.22.776.672l-.588.64q-.23-.335-.535-.493-.305-.168-.651-.168-.43 0-.746.242-.315.241-.525.65-.2.41-.304.967-.105.546-.105 1.165 0 .62.105 1.166.105.546.315.966.21.41.525.65.325.242.756.242.388 0 .682-.21.305-.21.483-.514l.567.62z" style="stroke-width:.375" id="path2049"/><path d="M324.395 49.907q0 .63-.136 1.145-.126.514-.378.882-.242.367-.599.577-.357.2-.808.2-.441 0-.798-.2-.357-.21-.61-.577-.24-.368-.377-.882-.126-.515-.126-1.145t.126-1.155q.136-.525.378-.892.241-.368.598-.567.357-.21.809-.21.451 0 .808.21.357.2.599.567.252.367.378.892.136.525.136 1.155zm-.924-.01q0-.43-.063-.798-.052-.378-.178-.651t-.315-.43q-.19-.158-.441-.158-.252 0-.441.157-.19.158-.315.43-.116.274-.179.652-.052.367-.052.798 0 .43.052.798.063.367.179.64.126.273.315.43.189.158.44.158.263 0 .452-.157.19-.158.305-.43.126-.274.178-.641.063-.368.063-.798z" style="stroke-width:.375" id="path2051"/><path d="M328.313 52.532v-3.36q0-.22-.021-.451t-.105-.42q-.074-.19-.221-.305-.147-.115-.399-.115-.22 0-.41.126-.189.115-.325.336-.137.21-.21.514-.073.294-.073.651v3.024h-.893v-3.937q0-.315-.01-.672-.011-.368-.032-.662h.85q.032.263.043.525.02.263.02.389h.022q.147-.462.483-.777.346-.315.84-.315.42 0 .682.178.273.179.41.473.147.294.199.672.052.378.052.766v3.36z" style="stroke-width:.375" id="path2053"/><path d="M331.31 50.128q0 .378.062.703.074.326.2.567.136.242.336.378.2.137.462.137.357 0 .567-.22.21-.221.336-.526l.672.389q-.21.504-.61.83-.388.325-.997.325-.903 0-1.417-.735-.515-.746-.515-2.069 0-.63.137-1.144.136-.525.388-.893.252-.378.61-.577.356-.21.787-.21.483 0 .819.21.336.2.546.556.22.347.315.83.094.472.094 1.018v.43zm1.89-.725q0-.693-.221-1.113-.21-.43-.672-.43-.273 0-.462.168-.179.157-.294.399-.116.23-.168.504-.053.262-.053.472z" style="stroke-width:.375" id="path2055"/><path d="M339.53 45.067q-.473.63-.85 1.365-.379.735-.652 1.522-.273.777-.42 1.586-.147.808-.147 1.596 0 .787.126 1.512.137.735.4 1.333l-.652.284q-.273-.62-.44-1.439-.169-.819-.169-1.659 0-.86.147-1.722.158-.86.441-1.68.284-.819.693-1.585.41-.767.935-1.439l.588.326z" id="path2057"/><path d="M344.255 46.705q0 .41-.116.735-.105.325-.294.567-.178.23-.42.388-.241.158-.504.231v.021q.179.032.357.137.179.105.326.294.147.178.241.44.095.253.095.589 0 .609-.2 1.07-.2.452-.535.757-.326.294-.767.451-.43.147-.892.147h-1.985l1.292-7.434h1.711q.315 0 .62.095.304.094.535.294.242.189.389.493.147.305.147.725zm-1.208 3.391q0-.294-.105-.493-.094-.21-.262-.336-.158-.137-.357-.19-.2-.062-.399-.062h-.903l-.483 2.75h.945q.693 0 1.123-.43.441-.44.441-1.239zm.326-3.276q0-.493-.305-.724-.294-.231-.735-.231h-.766l-.42 2.436h.83q.251 0 .503-.084.252-.095.452-.273.2-.19.315-.462.126-.284.126-.662z" id="path2059"/><path d="M345.569 52.532h-.861l1.375-7.938h.861z" id="path2061"/><path d="M350.583 47.272h.85l-.682 3.927q-.01.084-.042.273-.031.189-.063.399-.031.21-.063.399-.02.189-.031.262h-.84q.02-.147.052-.41.042-.272.084-.524h-.02q-.21.472-.589.798-.378.315-.871.315-.305 0-.515-.116-.21-.105-.346-.283-.126-.179-.19-.41-.052-.23-.052-.472 0-.147.021-.368.021-.22.063-.43l.578-3.36h.86l-.577 3.36-.042.294q-.02.147-.02.294 0 .304.115.514.126.21.472.21.231 0 .441-.126.22-.126.389-.346.178-.22.304-.515.126-.304.19-.661z" id="path2063"/><path d="M355.944 48.805q0 .105-.01.22 0 .116-.01.273-.011.147-.043.347l-.073.483h-2.74l-.043.315q-.01.147-.01.294 0 .525.189.85.189.326.609.326.357 0 .598-.22.252-.221.43-.526l.61.389q-.294.504-.714.83-.41.325-1.019.325-.735 0-1.155-.494-.42-.504-.42-1.428 0-.672.168-1.333.168-.672.473-1.187.315-.525.756-.85.44-.326.976-.326.378 0 .651.126t.441.357q.179.22.252.536.084.315.084.693zm-.808.02q0-.44-.168-.703-.158-.262-.515-.262-.273 0-.483.168-.21.157-.367.399-.158.23-.263.504-.094.273-.136.493h1.869q.063-.346.063-.598z" id="path2065"/><path d="M356.119 53.929q.472-.63.85-1.365t.651-1.512q.273-.788.42-1.596.147-.809.147-1.596 0-.788-.136-1.512-.126-.735-.389-1.334l.651-.283q.273.62.441 1.438.168.82.168 1.66 0 .86-.157 1.721-.147.861-.43 1.68-.284.82-.704 1.586-.41.766-.924 1.438l-.588-.325z" id="path2067"/></g><g aria-label="M Cone (Green)" id="text1474-5" style="stroke-width:.375"><path d="M311.625 64.532V58.38h-.031l-1.659 6.153h-.85l-1.639-6.153h-.031v6.153h-.872v-7.434h1.386L309.515 63h.042l1.554-5.9h1.449v7.433z" style="stroke-width:.375" id="path2070"/><path d="M320.288 63.734q-.284.441-.725.714-.44.263-1.07.263-.62 0-1.114-.294-.493-.294-.83-.82-.335-.524-.514-1.228-.178-.714-.178-1.554 0-.84.178-1.554.19-.714.525-1.228.347-.525.83-.82.493-.293 1.102-.293.567 0 1.04.22.472.22.777.672l-.588.64q-.231-.335-.536-.493-.304-.168-.65-.168-.431 0-.746.242-.315.241-.525.65-.2.41-.305.967-.105.546-.105 1.165 0 .62.105 1.166.105.546.315.966.21.41.525.65.326.242.756.242.389 0 .683-.21.304-.21.483-.514l.567.62z" style="stroke-width:.375" id="path2072"/><path d="M324.652 61.907q0 .63-.137 1.145-.126.514-.378.882-.241.367-.598.577-.357.2-.809.2-.441 0-.798-.2-.357-.21-.609-.577-.241-.368-.378-.882-.126-.515-.126-1.145t.126-1.155q.137-.525.378-.892.242-.368.599-.567.357-.21.808-.21.452 0 .809.21.357.2.598.567.252.367.378.892.137.525.137 1.155zm-.924-.01q0-.43-.063-.798-.053-.378-.179-.651t-.315-.43q-.189-.158-.441-.158t-.441.157q-.189.158-.315.43-.115.274-.178.652-.053.367-.053.798 0 .43.053.798.063.367.178.64.126.273.315.43.189.158.441.158.263 0 .452-.157.189-.158.304-.43.126-.274.179-.641.063-.368.063-.798z" style="stroke-width:.375" id="path2074"/><path d="M328.569 64.532v-3.36q0-.22-.021-.451t-.105-.42q-.074-.19-.22-.305-.148-.115-.4-.115-.22 0-.41.126-.188.115-.325.336-.136.21-.21.514-.073.294-.073.651v3.024h-.893v-3.937q0-.315-.01-.672-.01-.368-.032-.662h.85q.032.263.043.525.02.263.02.389h.022q.147-.462.483-.777.346-.315.84-.315.42 0 .682.178.273.179.41.473.147.294.2.672.052.378.052.766v3.36z" style="stroke-width:.375" id="path2076"/><path d="M331.566 62.128q0 .378.063.703.073.326.2.567.136.242.335.378.2.137.462.137.357 0 .567-.22.21-.221.336-.526l.672.389q-.21.504-.609.83-.388.325-.997.325-.903 0-1.418-.735-.514-.746-.514-2.069 0-.63.136-1.144.137-.525.389-.893.252-.378.609-.577.357-.21.787-.21.483 0 .82.21.335.2.545.556.22.347.315.83.095.472.095 1.018v.43zm1.89-.725q0-.693-.22-1.113-.21-.43-.673-.43-.273 0-.462.168-.178.157-.294.399-.115.23-.168.504-.052.262-.052.472z" style="stroke-width:.375" id="path2078"/><path d="M339.786 57.067q-.472.63-.85 1.365t-.651 1.522q-.273.777-.42 1.586-.147.808-.147 1.596 0 .787.126 1.512.136.735.399 1.333l-.651.284q-.273-.62-.441-1.439-.168-.819-.168-1.659 0-.86.147-1.722.157-.86.44-1.68.284-.819.694-1.585.41-.767.934-1.439l.588.326z" id="path2080"/><path d="M344.396 58.432q-.336-.683-1.082-.683-.367 0-.693.19-.315.188-.577.514-.252.315-.452.735t-.336.882q-.136.462-.21.945-.063.472-.063.903 0 .871.315 1.417.326.536.998.536.304 0 .567-.084.262-.084.43-.21l.41-2.331h-.998l.147-.788h1.859l-.62 3.612q-.367.273-.85.452-.473.168-1.092.168-.525 0-.924-.2-.389-.2-.662-.556-.262-.368-.399-.872-.136-.504-.136-1.123 0-.882.241-1.775.252-.903.693-1.617.452-.714 1.071-1.165.63-.452 1.386-.452.588 0 1.008.22.42.221.651.673z" id="path2082"/><path d="M348.21 60.028q-.043-.01-.085-.01-.042-.011-.094-.011-.252 0-.473.168-.22.157-.399.42-.178.252-.304.588-.126.336-.19.682l-.461 2.667h-.861l.682-3.927q.01-.084.042-.273t.063-.399q.032-.21.053-.399l.042-.262h.83l-.032.23q-.021.148-.053.316-.02.168-.052.325-.032.158-.042.242h.031q.242-.64.61-.945.367-.305.766-.305.084 0 .115.01z" id="path2084"/><path d="M352.058 60.805q0 .105-.01.22 0 .116-.011.273-.01.147-.042.347l-.073.483h-2.741l-.042.315q-.01.147-.01.294 0 .525.189.85.189.326.609.326.357 0 .598-.22.252-.221.43-.526l.61.389q-.294.504-.714.83-.41.325-1.019.325-.735 0-1.155-.494-.42-.504-.42-1.428 0-.672.168-1.333.168-.672.473-1.187.315-.525.756-.85.44-.326.976-.326.378 0 .651.126t.441.357q.179.22.252.536.084.315.084.693zm-.808.02q0-.44-.168-.703-.158-.262-.515-.262-.273 0-.483.168-.21.157-.367.399-.158.23-.263.504-.095.273-.137.493h1.87q.063-.346.063-.598z" id="path2086"/><path d="M356.59 60.805q0 .105-.01.22 0 .116-.01.273-.011.147-.043.347l-.073.483h-2.74l-.043.315q-.01.147-.01.294 0 .525.189.85.189.326.609.326.357 0 .598-.22.252-.221.43-.526l.61.389q-.294.504-.714.83-.41.325-1.019.325-.735 0-1.155-.494-.42-.504-.42-1.428 0-.672.168-1.333.168-.672.473-1.187.315-.525.756-.85.44-.326.976-.326.378 0 .651.126t.441.357q.179.22.252.536.084.315.084.693zm-.808.02q0-.44-.168-.703-.158-.262-.515-.262-.273 0-.483.168-.21.157-.367.399-.158.23-.263.504-.094.273-.136.493h1.869q.063-.346.063-.598z" id="path2088"/><path d="M358.088 64.532h-.85l.682-3.927.031-.273q.032-.189.063-.399.032-.21.063-.399.032-.189.042-.262h.84q-.02.147-.063.42-.031.262-.073.514h.021q.21-.472.588-.787.378-.326.871-.326.305 0 .515.116.21.105.336.283.136.179.189.41.063.23.063.472 0 .147-.021.368-.021.22-.063.43l-.578 3.36h-.86l.577-3.36.042-.294q.021-.147.021-.294 0-.304-.126-.514-.116-.21-.462-.21-.231 0-.452.126-.21.126-.388.346-.168.22-.294.525-.126.294-.189.651z" id="path2090"/><path d="M361.769 65.929q.472-.63.85-1.365t.651-1.512q.273-.788.42-1.596.147-.809.147-1.596 0-.788-.136-1.512-.126-.735-.389-1.334l.651-.283q.273.62.441 1.438.168.82.168 1.66 0 .86-.157 1.721-.147.861-.43 1.68-.284.82-.704 1.586-.41.766-.924 1.438l-.588-.325z" id="path2092"/></g><g aria-label="L Cone (Red)" id="text1474-5-2" style="stroke-width:.375"><path d="M308.793 77.282v-7.434h.945V76.4h2.1v.882z" style="stroke-width:.375" id="path2095"/><path d="M320.548 76.484q-.283.441-.724.714-.441.263-1.071.263-.62 0-1.113-.294-.494-.294-.83-.82-.336-.524-.514-1.228-.179-.714-.179-1.554 0-.84.179-1.554.189-.714.525-1.228.346-.525.83-.82.493-.293 1.102-.293.567 0 1.04.22.472.22.776.672l-.588.64q-.23-.335-.535-.493-.305-.168-.651-.168-.43 0-.746.242-.315.241-.525.65-.2.41-.304.967-.105.546-.105 1.165 0 .62.105 1.166.105.546.315.966.21.41.525.65.325.242.756.242.388 0 .682-.21.305-.21.483-.514l.567.62z" style="stroke-width:.375" id="path2097"/><path d="M324.912 74.657q0 .63-.136 1.145-.126.514-.378.882-.242.367-.599.577-.357.2-.808.2-.441 0-.798-.2-.357-.21-.61-.577-.24-.368-.377-.882-.126-.515-.126-1.145t.126-1.155q.136-.525.378-.892.241-.368.598-.567.357-.21.809-.21.451 0 .808.21.357.2.599.567.252.367.378.892.136.525.136 1.155zm-.924-.01q0-.43-.063-.798-.052-.378-.178-.651t-.315-.43q-.19-.158-.441-.158-.252 0-.441.157-.19.158-.315.43-.116.274-.179.652-.052.367-.052.798 0 .43.052.798.063.367.179.64.126.273.315.43.189.158.44.158.263 0 .452-.157.19-.158.305-.43.126-.274.178-.641.063-.368.063-.798z" style="stroke-width:.375" id="path2099"/><path d="M328.83 77.282v-3.36q0-.22-.021-.451t-.105-.42q-.074-.19-.22-.305-.148-.115-.4-.115-.22 0-.41.126-.188.115-.325.336-.136.21-.21.514-.073.294-.073.651v3.024h-.893v-3.937q0-.315-.01-.672-.01-.368-.032-.662h.85q.032.263.043.525.02.263.02.389h.022q.147-.462.483-.777.346-.315.84-.315.42 0 .682.178.273.179.41.473.147.294.2.672.052.378.052.766v3.36z" style="stroke-width:.375" id="path2101"/><path d="M331.827 74.878q0 .378.063.703.073.326.199.567.137.242.336.378.2.137.462.137.357 0 .567-.22.21-.221.336-.526l.672.389q-.21.504-.609.83-.388.325-.997.325-.903 0-1.418-.735-.514-.746-.514-2.069 0-.63.136-1.144.137-.525.389-.893.252-.378.609-.577.357-.21.787-.21.483 0 .819.21.336.2.546.556.22.347.315.83.095.472.095 1.018v.43zm1.89-.725q0-.693-.221-1.113-.21-.43-.672-.43-.273 0-.462.168-.178.157-.294.399-.115.23-.168.504-.052.262-.052.472z" style="stroke-width:.375" id="path2103"/><path d="M340.047 69.817q-.472.63-.85 1.365t-.651 1.522q-.273.777-.42 1.586-.147.808-.147 1.596 0 .787.126 1.512.136.735.399 1.333l-.651.284q-.273-.62-.441-1.439-.168-.819-.168-1.659 0-.86.147-1.722.157-.86.44-1.68.284-.819.694-1.585.409-.767.934-1.439l.588.326z" id="path2105"/><path d="M344.898 71.539q0 .451-.126.84-.115.378-.336.672-.22.294-.525.493-.294.2-.651.284l.987 3.454h-.945l-.882-3.339h-.882l-.577 3.34h-.882l1.291-7.435h1.712q.871 0 1.344.42.472.42.472 1.27zm-.871.115q0-.556-.305-.798-.294-.241-.756-.241h-.85l-.452 2.625h.893q.315 0 .577-.105.273-.116.473-.326.199-.21.304-.493.116-.294.116-.662z" id="path2107"/><path d="M348.935 73.555q0 .105-.01.22 0 .116-.011.273-.01.147-.042.347-.032.2-.074.483h-2.74l-.042.315q-.01.147-.01.294 0 .525.188.85.19.326.61.326.356 0 .598-.22.252-.221.43-.526l.61.389q-.295.504-.715.83-.409.325-1.018.325-.735 0-1.155-.494-.42-.504-.42-1.428 0-.672.168-1.333.168-.672.472-1.187.315-.525.756-.85.441-.326.977-.326.378 0 .651.126t.441.357q.178.22.252.536.084.315.084.693zm-.809.02q0-.44-.168-.703-.157-.262-.514-.262-.273 0-.483.168-.21.157-.368.399-.157.23-.262.504-.095.273-.137.493h1.87q.062-.346.062-.598z" id="path2109"/><path d="M353.047 77.282h-.83l.148-.85h-.01q-.21.44-.547.735-.325.294-.871.294-.64 0-.956-.515-.315-.514-.315-1.354 0-.64.158-1.302.157-.672.44-1.208.295-.546.704-.892.42-.347.945-.347.473 0 .735.273.263.263.315.693h.021l.599-3.465h.85zm-.294-3.433q0-.567-.178-.914-.179-.346-.567-.346-.357 0-.63.294t-.462.735q-.179.44-.273.955-.095.515-.095.945 0 .536.168.861.179.326.567.326.347 0 .62-.284.273-.283.462-.714.189-.43.283-.924.105-.504.105-.934z" id="path2111"/><path d="M354.073 78.679q.472-.63.85-1.365t.651-1.512q.273-.788.42-1.596.147-.809.147-1.596 0-.788-.136-1.512-.126-.735-.389-1.334l.651-.283q.273.62.441 1.438.168.82.168 1.66 0 .86-.157 1.721-.147.861-.43 1.68-.284.82-.704 1.586-.41.766-.924 1.438l-.588-.325z" id="path2113"/></g><g aria-label="Rods (Night)" id="text1474-5-2-0" style="stroke-width:.375"><path d="m320.088 89.282-1.26-3.318h-.86v3.318h-.925v-7.434h1.922q.41 0 .766.116.368.105.641.346.273.242.43.63.158.389.158.935 0 .451-.116.787-.115.336-.304.578-.179.23-.399.367-.22.137-.43.179l1.385 3.496zm-.063-5.365q0-.378-.105-.62-.105-.241-.273-.388-.168-.147-.388-.2-.22-.063-.441-.063h-.85v2.583h.871q.535 0 .861-.336.325-.346.325-.976z" style="stroke-width:.375" id="path2116"/><path d="M325.636 86.657q0 .63-.137 1.145-.126.514-.378.882-.241.367-.598.577-.357.2-.809.2-.44 0-.798-.2-.357-.21-.609-.577-.241-.368-.378-.882-.126-.515-.126-1.145t.126-1.155q.137-.525.378-.892.242-.368.599-.567.357-.21.808-.21.452 0 .809.21.357.2.598.567.252.367.378.892.137.525.137 1.155zm-.924-.01q0-.43-.063-.798-.053-.378-.179-.651t-.315-.43q-.189-.158-.44-.158-.253 0-.442.157-.189.158-.315.43-.115.274-.178.652-.053.367-.053.798 0 .43.053.798.063.367.178.64.126.273.315.43.19.158.441.158.263 0 .452-.157.189-.158.304-.43.126-.274.179-.641.063-.368.063-.798z" style="stroke-width:.375" id="path2118"/><path d="M329.511 89.282v-.83h-.02q-.127.431-.41.725-.273.284-.82.284-.398 0-.713-.21-.315-.22-.536-.599-.21-.378-.325-.892-.105-.525-.105-1.145 0-.609.105-1.113.105-.514.315-.882.22-.378.535-.577.315-.21.725-.21.462 0 .777.262.315.263.43.672h.021v-3.423h.893v7.938zm0-2.635q0-.43-.063-.798-.063-.378-.2-.651-.125-.273-.314-.43-.19-.158-.441-.158-.263 0-.452.157-.178.158-.304.43-.116.274-.179.652-.052.367-.052.798 0 .43.052.798.063.367.179.64.126.273.304.43.19.158.452.158.252 0 .44-.157.2-.158.326-.43.126-.274.19-.641.062-.368.062-.798z" style="stroke-width:.375" id="path2120"/><path d="M334.01 85.009q-.136-.2-.357-.326-.21-.136-.504-.136-.304 0-.504.22-.2.21-.2.578 0 .367.2.535.21.168.63.326.22.084.43.21.221.115.39.304.178.19.283.452.105.252.105.609 0 .41-.126.724-.116.315-.336.525-.21.21-.504.315-.294.116-.64.116-.473 0-.862-.19-.388-.199-.65-.524l.524-.578q.179.22.42.389.242.157.599.157.336 0 .525-.241.2-.242.2-.63 0-.22-.074-.378t-.2-.263q-.126-.115-.304-.189-.168-.084-.368-.157-.2-.074-.399-.179-.189-.105-.346-.273-.158-.178-.252-.42-.095-.252-.095-.609 0-.346.116-.63.126-.283.336-.483.21-.21.493-.315.284-.115.61-.115.472 0 .808.168.346.157.567.42z" style="stroke-width:.375" id="path2122"/><path d="M339.848 81.817q-.473.63-.85 1.365-.379.735-.652 1.522-.273.777-.42 1.586-.147.808-.147 1.596 0 .787.126 1.512.137.735.4 1.333l-.652.284q-.273-.62-.44-1.439-.169-.819-.169-1.659 0-.86.147-1.722.158-.86.441-1.68.284-.819.693-1.585.41-.767.935-1.439l.588.326z" id="path2124"/><path d="M344.216 89.282h-1.06l-1.408-5.848h-.031l-1.008 5.848h-.83l1.292-7.434h1.081l1.365 5.86h.032l1.029-5.86h.83z" id="path2126"/><path d="M346.625 89.282h-.85l.913-5.26h.85zm1.28-6.909q0 .273-.178.473-.168.189-.43.189-.231 0-.357-.147-.126-.158-.126-.357 0-.252.168-.452.168-.21.43-.21.231 0 .357.147.137.137.137.357z" id="path2128"/><path d="M351.544 89.272q-.094.535-.262.997-.168.462-.441.798-.273.347-.672.536-.399.2-.956.2-.525 0-.976-.221-.441-.22-.693-.567l.577-.599q.2.252.494.43.294.18.682.18.326 0 .567-.137.242-.137.4-.378.167-.231.272-.557.105-.315.168-.682l.158-.84h-.021q-.105.22-.231.41-.116.178-.273.325-.158.136-.368.21-.199.084-.472.084-.64 0-.998-.515-.346-.514-.346-1.365 0-.64.147-1.302.157-.672.441-1.207.283-.546.693-.882.41-.347.934-.347.462 0 .746.273.294.263.346.693h.032l.136-.787h.83zm-.304-3.423q0-.567-.179-.914-.178-.346-.567-.346-.357 0-.63.294t-.462.735q-.178.44-.273.955-.094.515-.094.945 0 .536.168.861.178.326.567.326.346 0 .62-.284.272-.283.461-.703.19-.43.284-.935.105-.504.105-.934z" id="path2130"/><path d="M357.305 85.124q0 .147-.02.368-.022.22-.064.43l-.577 3.36h-.861l.577-3.36.042-.294q.021-.147.021-.294 0-.304-.126-.514-.115-.21-.462-.21-.23 0-.451.126-.21.126-.389.346-.168.22-.294.525-.126.294-.189.651l-.525 3.024h-.86l1.375-7.938h.86l-.63 3.591h.022q.2-.451.577-.766.378-.326.872-.326.304 0 .514.116.21.105.336.283.137.179.19.41.062.23.062.472z" id="path2132"/><path d="M360.68 84.715h-.881l-.525 3.087q-.021.105-.032.21-.01.105-.01.189 0 .262.105.357.105.094.315.094.094 0 .2-.02.115-.032.199-.064l-.084.683q-.137.052-.294.084-.158.031-.305.031-.514 0-.756-.262-.241-.263-.241-.704 0-.189.042-.43l.567-3.255h-.725l.116-.693h.703l.242-1.407h.83l-.232 1.407h.893z" id="path2134"/><path d="M360.374 90.679q.473-.63.85-1.365.379-.735.652-1.512.273-.788.42-1.596.147-.809.147-1.596 0-.788-.137-1.512-.126-.735-.388-1.334l.65-.283q.274.62.442 1.438.168.82.168 1.66 0 .86-.158 1.721-.147.861-.43 1.68-.284.82-.704 1.586-.41.766-.924 1.438l-.588-.325z" id="path2136"/></g><g aria-label="Violet" id="text1566" style="fill:#9cff9c;fill-opacity:1;stroke-width:.375"><path d="M41.413 234.436q-.12 0-.156-.12l-2.424-8.112-.012-.048q0-.12.132-.12h1.836q.132 0 .168.12l1.38 5.46q.012.036.036.036.024 0 .036-.036l1.356-5.46q.036-.12.168-.12h1.8q.072 0 .108.048.036.048.012.12l-2.46 8.112q-.036.12-.156.12z" style="fill:#9cff9c;fill-opacity:1;stroke-width:.375" id="path2139"/><path d="M47.686 227.68q-.456 0-.756-.288-.288-.3-.288-.756 0-.468.288-.756.3-.288.756-.288t.744.288q.3.288.3.756 0 .444-.3.744-.288.3-.744.3zm-.864 6.756q-.06 0-.108-.036-.036-.048-.036-.108v-5.916q0-.06.036-.096.048-.048.108-.048h1.704q.06 0 .096.048.048.036.048.096v5.916q0 .06-.048.108-.036.036-.096.036z" style="fill:#9cff9c;fill-opacity:1;stroke-width:.375" id="path2141"/><path d="M52.545 234.532q-1.08 0-1.836-.576t-1.008-1.56q-.144-.492-.144-1.08 0-.66.156-1.164.276-.948 1.02-1.476.756-.54 1.824-.54 1.056 0 1.788.54.732.528 1.02 1.464.168.54.168 1.152 0 .552-.132 1.056-.252 1.008-1.008 1.596-.756.588-1.848.588zm0-1.704q.348 0 .576-.216.228-.228.336-.612.072-.312.072-.684 0-.36-.084-.696-.096-.372-.324-.576-.228-.204-.576-.204-.696 0-.912.78-.072.288-.072.696 0 .372.072.684.096.384.324.612.24.216.588.216z" style="fill:#9cff9c;fill-opacity:1;stroke-width:.375" id="path2143"/><path d="M56.548 234.436q-.06 0-.108-.036-.036-.048-.036-.108v-8.112q0-.06.036-.096.048-.048.108-.048h1.704q.06 0 .096.048.048.036.048.096v8.112q0 .06-.048.108-.036.036-.096.036z" style="fill:#9cff9c;fill-opacity:1;stroke-width:.375" id="path2145"/><path d="M65.129 230.788q.06.36.036.948-.012.144-.156.144h-3.66q-.024 0-.048.024-.024.012-.012.036.024.132.12.348.144.252.432.408.288.156.708.156.756 0 1.188-.492.048-.06.108-.06t.096.048l.924 1.056q.048.036.048.096 0 .048-.048.096-.42.456-1.044.696-.612.24-1.344.24-1.092 0-1.86-.468-.756-.48-1.092-1.332-.252-.6-.252-1.5 0-.624.192-1.2.312-.888 1.02-1.392.72-.516 1.704-.516.792 0 1.416.348.624.336 1.008.948.396.6.516 1.368zm-2.94-.948q-.624 0-.828.588-.048.132-.06.252-.024.06.048.06h1.704q.048 0 .048-.048 0-.096-.048-.24-.084-.3-.312-.456-.216-.156-.552-.156z" style="fill:#9cff9c;fill-opacity:1;stroke-width:.375" id="path2147"/><path d="M69.654 229.684q0 .06-.048.108-.036.036-.096.036h-1.092q-.06 0-.06.06v2.184q0 .684.552.684h.444q.06 0 .096.048.048.036.048.096v1.392q0 .132-.144.156-.576.024-.84.024-1.044 0-1.548-.324-.504-.336-.516-1.26v-3q0-.06-.06-.06h-.684q-.06 0-.108-.036-.036-.048-.036-.108v-1.308q0-.06.036-.096.048-.048.108-.048h.684q.06 0 .06-.06v-1.452q0-.06.036-.096.048-.048.108-.048h1.62q.06 0 .096.048.048.036.048.096v1.452q0 .06.06.06h1.092q.06 0 .096.048.048.036.048.096z" style="fill:#9cff9c;fill-opacity:1;stroke-width:.375" id="path2149"/></g><g aria-label="Blue" id="text1566-7" style="fill:#ffff7b;fill-opacity:1;stroke-width:.375"><path d="M101.365 230.068q-.072.036 0 .072 1.092.576 1.092 1.92 0 1.2-.828 1.788-.828.588-2.172.588h-3.192q-.06 0-.108-.036-.036-.048-.036-.108v-8.112q0-.06.036-.096.048-.048.108-.048h3.096q1.464 0 2.208.552.756.552.756 1.788 0 1.176-.96 1.692zm-3.192-2.328q-.06 0-.06.06v1.512q0 .06.06.06h1.188q.492 0 .756-.204.264-.216.264-.6 0-.396-.264-.612-.264-.216-.756-.216zm1.284 4.98q.48 0 .744-.216.264-.228.264-.648 0-.408-.264-.624-.252-.228-.744-.228h-1.284q-.06 0-.06.06v1.596q0 .06.06.06z" style="fill:#ffff7b;fill-opacity:1;stroke-width:.375" id="path2152"/><path d="M103.587 234.436q-.06 0-.108-.036-.036-.048-.036-.108v-8.112q0-.06.036-.096.048-.048.108-.048h1.704q.06 0 .096.048.048.036.048.096v8.112q0 .06-.048.108-.036.036-.096.036z" style="fill:#ffff7b;fill-opacity:1;stroke-width:.375" id="path2154"/><path d="M110.008 228.376q0-.06.036-.096.048-.048.108-.048h1.704q.06 0 .096.048.048.036.048.096v5.916q0 .06-.048.108-.036.036-.096.036h-1.704q-.06 0-.108-.036-.036-.048-.036-.108v-.42q0-.036-.024-.048-.024-.012-.048.024-.48.684-1.512.684-.912 0-1.476-.576t-.564-1.608v-3.972q0-.06.036-.096.048-.048.108-.048h1.704q.06 0 .096.048.048.036.048.096v3.516q0 .42.216.672.216.252.588.252.336 0 .552-.204.228-.204.276-.54z" style="fill:#ffff7b;fill-opacity:1;stroke-width:.375" id="path2156"/><path d="M118.754 230.788q.06.36.036.948-.012.144-.156.144h-3.66q-.024 0-.048.024-.024.012-.012.036.024.132.12.348.144.252.432.408.288.156.708.156.756 0 1.188-.492.048-.06.108-.06t.096.048l.924 1.056q.048.036.048.096 0 .048-.048.096-.42.456-1.044.696-.612.24-1.344.24-1.092 0-1.86-.468-.756-.48-1.092-1.332-.252-.6-.252-1.5 0-.624.192-1.2.312-.888 1.02-1.392.72-.516 1.704-.516.792 0 1.416.348.624.336 1.008.948.396.6.516 1.368zm-2.94-.948q-.624 0-.828.588-.048.132-.06.252-.024.06.048.06h1.704q.048 0 .048-.048 0-.096-.048-.24-.084-.3-.312-.456-.216-.156-.552-.156z" style="fill:#ffff7b;fill-opacity:1;stroke-width:.375" id="path2158"/></g><g aria-label="Cyan" id="text1566-7-0" style="fill:#d40000;fill-opacity:1;stroke-width:.375"><path d="M146.455 234.532q-.96 0-1.692-.372-.72-.372-1.128-1.056-.396-.684-.396-1.584v-2.592q0-.888.396-1.56.408-.684 1.128-1.056.732-.372 1.692-.372t1.68.36q.732.348 1.128.996.408.636.408 1.476 0 .06-.048.096-.036.036-.096.036l-1.704.108q-.144 0-.144-.132 0-.564-.336-.9-.336-.336-.888-.336t-.888.348q-.336.336-.336.888v2.724q0 .552.336.888.336.336.888.336t.888-.336q.336-.336.336-.888 0-.132.144-.132l1.704.084q.06 0 .096.036.048.036.048.084 0 .852-.408 1.5-.396.648-1.128 1.008-.72.348-1.68.348z" style="fill:#d40000;fill-opacity:1;stroke-width:.375" id="path2161"/><path d="M150.66 236.824q-.036 0-.06-.048-.024-.036-.024-.096v-1.344q0-.144.132-.144.768 0 1.104-.144.336-.144.408-.576.012-.024 0-.072l-1.932-6.012q-.012-.024-.012-.06 0-.108.132-.108h1.812q.12 0 .156.12l.828 3.552q.012.048.036.048.024 0 .036-.048l.828-3.552q.036-.12.156-.12h1.776q.072 0 .108.048.036.036.012.12l-2.028 6.168q-.3.9-.636 1.356-.324.468-.96.684-.624.228-1.788.228z" style="fill:#d40000;fill-opacity:1;stroke-width:.375" id="path2163"/><path d="M159.027 228.136q.804 0 1.452.276.648.264 1.02.744.372.468.372 1.044v4.092q0 .06-.048.108-.036.036-.096.036h-1.704q-.06 0-.108-.036-.036-.048-.036-.108v-.42q0-.048-.024-.048-.024-.012-.048.036-.456.672-1.56.672-.96 0-1.536-.444-.564-.456-.564-1.332 0-.924.636-1.428.648-.504 1.872-.504h1.164q.06 0 .06-.06v-.228q0-.324-.216-.504-.216-.192-.6-.192-.288 0-.504.108-.204.108-.264.276-.06.132-.168.12l-1.728-.228q-.144-.024-.144-.108.048-.528.408-.948.372-.432.984-.672.624-.252 1.38-.252zm-.192 4.968q.456 0 .744-.228.3-.24.3-.624v-.288q0-.06-.06-.06h-.72q-.456 0-.708.156-.24.156-.24.468 0 .264.18.42.18.156.504.156z" style="fill:#d40000;fill-opacity:1;stroke-width:.375" id="path2165"/><path d="M166.35 228.136q.935 0 1.535.6.6.588.6 1.608v3.948q0 .06-.048.108-.036.036-.096.036h-1.704q-.06 0-.108-.036-.036-.048-.036-.108v-3.516q0-.408-.228-.672-.228-.264-.588-.264-.372 0-.6.264-.228.252-.228.672v3.516q0 .06-.048.108-.036.036-.096.036h-1.704q-.06 0-.108-.036-.036-.048-.036-.108v-5.916q0-.06.036-.096.048-.048.108-.048h1.704q.06 0 .096.048.048.036.048.096v.444q0 .048.012.06.024 0 .048-.036.456-.708 1.44-.708z" style="fill:#d40000;fill-opacity:1;stroke-width:.375" id="path2167"/></g><g aria-label="Green" id="text1566-7-0-9" style="fill:#bf00bf;fill-opacity:1;stroke-width:.375"><path d="M196.705 239.032q-.96 0-1.692-.384-.72-.384-1.128-1.08-.396-.696-.396-1.608v-2.46q0-.912.396-1.596.408-.696 1.128-1.08.732-.384 1.692-.384.948 0 1.68.372.732.36 1.128.996.408.636.408 1.404v.06q0 .06-.048.108-.036.036-.096.036h-1.704q-.06 0-.108-.036-.036-.048-.036-.108 0-.468-.336-.792-.324-.336-.888-.336-.552 0-.888.36-.336.36-.336.936v2.58q0 .576.372.936.372.36.936.36.528 0 .852-.276.324-.288.324-.792v-.336q0-.06-.06-.06h-1.2q-.06 0-.108-.036-.036-.048-.036-.108v-1.32q0-.06.036-.096.048-.048.108-.048h3.072q.06 0 .096.048.048.036.048.096v1.632q0 .9-.408 1.584-.396.684-1.128 1.056-.72.372-1.68.372z" style="fill:#bf00bf;fill-opacity:1;stroke-width:.375" id="path2170"/><path d="M204.173 232.648q.432 0 .672.156.096.06.072.18l-.276 1.668q-.012.144-.168.084-.216-.048-.408-.048-.204 0-.312.024-.372.048-.636.288-.252.24-.252.636v3.156q0 .06-.048.108-.036.036-.096.036h-1.704q-.06 0-.108-.036-.036-.048-.036-.108v-5.916q0-.06.036-.096.048-.048.108-.048h1.704q.06 0 .096.048.048.036.048.096v.384q0 .036.024.048.024.012.036-.024.48-.636 1.248-.636z" style="fill:#bf00bf;fill-opacity:1;stroke-width:.375" id="path2172"/><path d="M211.121 235.288q.06.36.036.948-.012.144-.156.144h-3.66q-.024 0-.048.024-.024.012-.012.036.024.132.12.348.144.252.432.408.288.156.708.156.756 0 1.188-.492.048-.06.108-.06t.096.048l.924 1.056q.048.036.048.096 0 .048-.048.096-.42.456-1.044.696-.612.24-1.344.24-1.092 0-1.86-.468-.756-.48-1.092-1.332-.252-.6-.252-1.5 0-.624.192-1.2.312-.888 1.02-1.392.72-.516 1.704-.516.792 0 1.416.348.624.336 1.008.948.396.6.516 1.368zm-2.94-.948q-.624 0-.828.588-.048.132-.06.252-.024.06.048.06h1.704q.048 0 .048-.048 0-.096-.048-.24-.084-.3-.312-.456-.216-.156-.552-.156z" style="fill:#bf00bf;fill-opacity:1;stroke-width:.375" id="path2174"/><path d="M217.73 235.288q.06.36.036.948-.012.144-.156.144h-3.66q-.024 0-.048.024-.024.012-.012.036.024.132.12.348.144.252.432.408.288.156.708.156.756 0 1.188-.492.048-.06.108-.06t.096.048l.924 1.056q.048.036.048.096 0 .048-.048.096-.42.456-1.044.696-.612.24-1.344.24-1.092 0-1.86-.468-.756-.48-1.092-1.332-.252-.6-.252-1.5 0-.624.192-1.2.312-.888 1.02-1.392.72-.516 1.704-.516.792 0 1.416.348.624.336 1.008.948.396.6.516 1.368zm-2.94-.948q-.624 0-.828.588-.048.132-.06.252-.024.06.048.06h1.704q.048 0 .048-.048 0-.096-.048-.24-.084-.3-.312-.456-.216-.156-.552-.156z" style="fill:#bf00bf;fill-opacity:1;stroke-width:.375" id="path2176"/><path d="M222.084 232.636q.936 0 1.536.6.6.588.6 1.608v3.948q0 .06-.048.108-.036.036-.096.036h-1.704q-.06 0-.108-.036-.036-.048-.036-.108v-3.516q0-.408-.228-.672-.228-.264-.588-.264-.372 0-.6.264-.228.252-.228.672v3.516q0 .06-.048.108-.036.036-.096.036h-1.704q-.06 0-.108-.036-.036-.048-.036-.108v-5.916q0-.06.036-.096.048-.048.108-.048h1.704q.06 0 .096.048.048.036.048.096v.444q0 .048.012.06.024 0 .048-.036.456-.708 1.44-.708z" style="fill:#bf00bf;fill-opacity:1;stroke-width:.375" id="path2178"/></g><g aria-label="Yellow" id="text1566-7-0-9-1" style="fill:#0000d4;fill-opacity:1;stroke-width:.375"><path d="M221.485 227.662q-.06 0-.108-.036-.036-.048-.036-.108v-2.844q0-.048-.012-.072l-2.46-5.148q-.024-.048-.024-.072 0-.096.132-.096h1.848q.12 0 .168.108l1.308 3.036q.036.072.072 0l1.32-3.036q.048-.108.168-.108h1.86q.084 0 .108.048.036.036 0 .12l-2.496 5.148q-.012.024-.012.072v2.844q0 .06-.048.108-.036.036-.096.036z" style="fill:#0000d4;fill-opacity:1;stroke-width:.375" id="path2181"/><path d="M231.371 224.038q.06.36.036.948-.012.144-.156.144h-3.66q-.024 0-.048.024-.024.012-.012.036.024.132.12.348.144.252.432.408.288.156.708.156.756 0 1.188-.492.048-.06.108-.06t.096.048l.924 1.056q.048.036.048.096 0 .048-.048.096-.42.456-1.044.696-.612.24-1.344.24-1.092 0-1.86-.468-.756-.48-1.092-1.332-.252-.6-.252-1.5 0-.624.192-1.2.312-.888 1.02-1.392.72-.516 1.704-.516.792 0 1.416.348.624.336 1.008.948.396.6.516 1.368zm-2.94-.948q-.624 0-.828.588-.048.132-.06.252-.024.06.048.06h1.704q.048 0 .048-.048 0-.096-.048-.24-.084-.3-.312-.456-.216-.156-.552-.156z" style="fill:#0000d4;fill-opacity:1;stroke-width:.375" id="path2183"/><path d="M232.376 227.686q-.06 0-.108-.036-.036-.048-.036-.108v-8.112q0-.06.036-.096.048-.048.108-.048h1.704q.06 0 .096.048.048.036.048.096v8.112q0 .06-.048.108-.036.036-.096.036z" style="fill:#0000d4;fill-opacity:1;stroke-width:.375" id="path2185"/><path d="M235.353 227.686q-.06 0-.108-.036-.036-.048-.036-.108v-8.112q0-.06.036-.096.048-.048.108-.048h1.704q.06 0 .096.048.048.036.048.096v8.112q0 .06-.048.108-.036.036-.096.036z" style="fill:#0000d4;fill-opacity:1;stroke-width:.375" id="path2187"/><path d="M241.03 227.782q-1.08 0-1.837-.576-.756-.576-1.008-1.56-.144-.492-.144-1.08 0-.66.156-1.164.276-.948 1.02-1.476.756-.54 1.824-.54 1.056 0 1.788.54.732.528 1.02 1.464.168.54.168 1.152 0 .552-.132 1.056-.252 1.008-1.008 1.596-.756.588-1.848.588zm0-1.704q.347 0 .575-.216.228-.228.336-.612.072-.312.072-.684 0-.36-.084-.696-.096-.372-.324-.576-.228-.204-.576-.204-.696 0-.912.78-.072.288-.072.696 0 .372.072.684.096.384.324.612.24.216.588.216z" style="fill:#0000d4;fill-opacity:1;stroke-width:.375" id="path2189"/><path d="M246.134 227.686q-.12 0-.156-.12l-1.74-5.928-.012-.048q0-.12.132-.12h1.764q.132 0 .156.132l.72 3.252q.012.048.036.048.024 0 .036-.048l.78-3.264q.036-.12.156-.12h1.536q.132 0 .168.12l.816 3.276q.012.036.036.036.024 0 .036-.036l.804-3.276q.036-.12.168-.12l1.752.024q.072 0 .096.048.036.036.024.108l-1.764 5.916q-.036.12-.156.12h-1.764q-.132 0-.168-.12l-.792-2.796q-.012-.036-.036-.036-.024 0-.036.036l-.672 2.796q-.036.12-.156.12z" style="fill:#0000d4;fill-opacity:1;stroke-width:.375" id="path2191"/></g><g aria-label="Orange" id="text1566-7-0-9-1-9" style="fill:#bff;fill-opacity:1;stroke-width:.375"><path d="M252.253 239.068q-.972 0-1.716-.384-.732-.396-1.14-1.104-.408-.708-.408-1.644v-2.4q0-.912.408-1.608.408-.708 1.14-1.092.744-.396 1.716-.396t1.716.396q.744.384 1.152 1.092.408.696.408 1.608v2.4q0 .936-.408 1.644-.408.708-1.152 1.104-.744.384-1.716.384zm0-1.704q.576 0 .924-.372.36-.372.36-.996v-2.484q0-.612-.36-.984-.348-.384-.924-.384-.564 0-.924.384-.348.372-.348.984v2.484q0 .624.348.996.36.372.924.372z" style="fill:#bff;fill-opacity:1;stroke-width:.375" id="path2194"/><path d="M259.79 232.648q.432 0 .672.156.096.06.072.18l-.276 1.668q-.012.144-.168.084-.216-.048-.408-.048-.204 0-.312.024-.372.048-.636.288-.252.24-.252.636v3.156q0 .06-.048.108-.036.036-.096.036h-1.704q-.06 0-.108-.036-.036-.048-.036-.108v-5.916q0-.06.036-.096.048-.048.108-.048h1.704q.06 0 .096.048.048.036.048.096v.384q0 .036.024.048.024.012.036-.024.48-.636 1.248-.636z" style="fill:#bff;fill-opacity:1;stroke-width:.375" id="path2196"/><path d="M263.676 232.636q.804 0 1.452.276.648.264 1.02.744.372.468.372 1.044v4.092q0 .06-.048.108-.036.036-.096.036h-1.704q-.06 0-.108-.036-.036-.048-.036-.108v-.42q0-.048-.024-.048-.024-.012-.048.036-.456.672-1.56.672-.96 0-1.536-.444-.564-.456-.564-1.332 0-.924.636-1.428.648-.504 1.872-.504h1.164q.06 0 .06-.06v-.228q0-.324-.216-.504-.216-.192-.6-.192-.288 0-.504.108-.204.108-.264.276-.06.132-.168.12l-1.728-.228q-.144-.024-.144-.108.048-.528.408-.948.372-.432.984-.672.624-.252 1.38-.252zm-.192 4.968q.456 0 .744-.228.3-.24.3-.624v-.288q0-.06-.06-.06h-.72q-.456 0-.708.156-.24.156-.24.468 0 .264.18.42.18.156.504.156z" style="fill:#bff;fill-opacity:1;stroke-width:.375" id="path2198"/><path d="M270.998 232.636q.936 0 1.536.6.6.588.6 1.608v3.948q0 .06-.048.108-.036.036-.096.036h-1.704q-.06 0-.108-.036-.036-.048-.036-.108v-3.516q0-.408-.228-.672-.228-.264-.588-.264-.372 0-.6.264-.228.252-.228.672v3.516q0 .06-.048.108-.036.036-.096.036h-1.704q-.06 0-.108-.036-.036-.048-.036-.108v-5.916q0-.06.036-.096.048-.048.108-.048h1.704q.06 0 .096.048.048.036.048.096v.444q0 .048.012.06.024 0 .048-.036.456-.708 1.44-.708z" style="fill:#bff;fill-opacity:1;stroke-width:.375" id="path2200"/><path d="M277.883 232.876q0-.06.036-.096.048-.048.108-.048h1.704q.06 0 .096.048.048.036.048.096v5.364q0 1.644-.948 2.352t-2.4.708q-.54 0-1.14-.096-.12-.012-.12-.156l.06-1.488q0-.084.048-.12.048-.024.12 0 .492.108.912.108.684 0 1.08-.312t.396-.984l-.084.084q-.432.432-1.248.432-.792 0-1.452-.348-.66-.348-.948-1.224-.192-.576-.192-1.416 0-.924.228-1.512.276-.744.876-1.188.612-.444 1.416-.444.864 0 1.332.528.024.024.048.024.024-.012.024-.048zm-.108 3.792q.108-.276.108-.9 0-.324-.024-.504-.024-.192-.096-.36-.096-.264-.312-.408-.204-.156-.504-.156-.564 0-.804.564-.18.336-.18.888 0 .588.156.864.108.252.324.408.216.156.516.156.612 0 .816-.552z" style="fill:#bff;fill-opacity:1;stroke-width:.375" id="path2202"/><path d="M286.613 235.288q.06.36.036.948-.012.144-.156.144h-3.66q-.024 0-.048.024-.024.012-.012.036.024.132.12.348.144.252.432.408.288.156.708.156.756 0 1.188-.492.048-.06.108-.06t.096.048l.924 1.056q.048.036.048.096 0 .048-.048.096-.42.456-1.044.696-.612.24-1.344.24-1.092 0-1.86-.468-.756-.48-1.092-1.332-.252-.6-.252-1.5 0-.624.192-1.2.312-.888 1.02-1.392.72-.516 1.704-.516.792 0 1.416.348.624.336 1.008.948.396.6.516 1.368zm-2.94-.948q-.624 0-.828.588-.048.132-.06.252-.024.06.048.06h1.704q.048 0 .048-.048 0-.096-.048-.24-.084-.3-.312-.456-.216-.156-.552-.156z" style="fill:#bff;fill-opacity:1;stroke-width:.375" id="path2204"/></g><g aria-label="Red" id="text1566-7-0-9-1-9-5" style="fill:#b1ffb1;fill-opacity:1;stroke-width:.375"><path d="M313.621 234.436q-.12 0-.168-.108l-1.416-3.192q-.024-.048-.072-.048h-.792q-.06 0-.06.06v3.144q0 .06-.048.108-.036.036-.096.036h-1.704q-.06 0-.108-.036-.036-.048-.036-.108v-8.112q0-.06.036-.096.048-.048.108-.048h3.564q.792 0 1.392.324.6.324.924.924.336.588.336 1.356 0 .804-.396 1.392-.396.588-1.104.852-.06.024-.036.084l1.584 3.3q.024.048.024.072 0 .096-.132.096zm-2.448-6.696q-.06 0-.06.06v1.704q0 .06.06.06h1.332q.444 0 .72-.24.276-.252.276-.66 0-.42-.276-.672-.276-.252-.72-.252z" style="fill:#b1ffb1;fill-opacity:1;stroke-width:.375" id="path2207"/><path d="M322.027 230.788q.06.36.036.948-.012.144-.156.144h-3.66q-.024 0-.048.024-.024.012-.012.036.024.132.12.348.144.252.432.408.288.156.708.156.756 0 1.188-.492.048-.06.108-.06t.096.048l.924 1.056q.048.036.048.096 0 .048-.048.096-.42.456-1.044.696-.612.24-1.344.24-1.092 0-1.86-.468-.756-.48-1.092-1.332-.252-.6-.252-1.5 0-.624.192-1.2.312-.888 1.02-1.392.72-.516 1.704-.516.792 0 1.416.348.624.336 1.008.948.396.6.516 1.368zm-2.94-.948q-.624 0-.828.588-.048.132-.06.252-.024.06.048.06h1.704q.048 0 .048-.048 0-.096-.048-.24-.084-.3-.312-.456-.216-.156-.552-.156z" style="fill:#b1ffb1;fill-opacity:1;stroke-width:.375" id="path2209"/><path d="M326.729 226.18q0-.06.036-.096.048-.048.108-.048h1.704q.06 0 .096.048.048.036.048.096v8.112q0 .06-.048.108-.036.036-.096.036h-1.704q-.06 0-.108-.036-.036-.048-.036-.108v-.396q0-.036-.024-.036-.024-.012-.048.012-.48.66-1.38.66-.816 0-1.452-.492-.624-.492-.888-1.344-.192-.648-.192-1.392 0-.84.252-1.512.276-.744.876-1.2.612-.456 1.476-.456t1.308.564q.024.036.048.024.024-.012.024-.048zm-.204 6.18q.204-.384.204-1.02 0-.696-.228-1.08-.252-.42-.708-.42-.492 0-.732.432-.24.408-.24 1.068 0 .636.216 1.032.252.456.756.456.48 0 .732-.468z" style="fill:#b1ffb1;fill-opacity:1;stroke-width:.375" id="path2211"/></g><g aria-label="420nm" id="text1566-7-9" style="fill:navy;fill-opacity:1;stroke-width:.375"><path d="M62.557 29.101q.049 0 .078.039.039.03.039.078v.78q0 .049-.04.088-.028.029-.077.029h-.41q-.048 0-.048.049v1.628q0 .049-.04.088-.029.029-.077.029h-.897q-.05 0-.088-.03-.03-.038-.03-.087v-1.628q0-.049-.048-.049h-2.964q-.049 0-.088-.03-.03-.038-.03-.087v-.624q0-.059.03-.146l1.843-4.056q.039-.088.136-.088h.956q.068 0 .088.039.029.03 0 .097l-1.736 3.822q-.01.02 0 .04.01.019.03.019h1.735q.049 0 .049-.049v-1.326q0-.049.029-.078.039-.039.088-.039h.897q.048 0 .078.04.039.028.039.077v1.326q0 .049.048.049z" style="fill:navy;fill-opacity:1;stroke-width:.375" id="path1996"/><path d="M65.18 30.875q-.02.02-.02.04.01.019.039.019h2.778q.05 0 .078.039.04.03.04.078v.741q0 .049-.04.088-.029.029-.078.029h-4.192q-.049 0-.088-.03-.03-.038-.03-.087v-.702q0-.088.06-.146.74-.79 1.715-1.94l.459-.537q.897-1.043.897-1.58 0-.399-.283-.653-.283-.253-.731-.253-.449 0-.732.253-.273.254-.273.673v.254q0 .048-.039.087-.029.03-.078.03h-.906q-.05 0-.088-.03-.03-.039-.03-.087v-.42q.02-.526.303-.916t.76-.605q.488-.214 1.083-.214.653 0 1.14.244.488.243.751.672.263.42.263.946 0 .8-.848 1.843-.468.585-1.54 1.755z" style="fill:navy;fill-opacity:1;stroke-width:.375" id="path1998"/><path d="M71.31 32.016q-1.024 0-1.629-.575-.594-.585-.594-1.57v-2.75q0-.974.594-1.54.605-.575 1.629-.575 1.023 0 1.628.575.614.566.614 1.54v2.75q0 .985-.614 1.57-.605.575-1.628.575zm0-.985q.507 0 .809-.292.302-.302.302-.81v-2.846q0-.507-.302-.8-.302-.302-.81-.302-.497 0-.799.302-.292.293-.292.8v2.847q0 .507.292.809.302.292.8.292z" style="fill:navy;fill-opacity:1;stroke-width:.375" id="path2000"/><path d="M77.085 26.849q.79 0 1.258.468.478.468.478 1.277v3.198q0 .049-.04.088-.029.029-.077.029h-.897q-.05 0-.088-.03-.03-.038-.03-.087v-2.964q0-.449-.253-.722-.253-.282-.673-.282-.419 0-.682.273-.254.273-.254.721v2.974q0 .049-.039.088-.029.029-.078.029h-.897q-.048 0-.087-.03-.03-.038-.03-.087v-4.748q0-.049.03-.078.039-.04.087-.04h.897q.05 0 .078.04.04.029.04.078v.312q0 .029.019.039.02.01.03-.02.399-.526 1.208-.526z" style="fill:navy;fill-opacity:1;stroke-width:.375" id="path2002"/><path d="M85.343 26.849q.75 0 1.17.458.429.448.429 1.258v3.227q0 .049-.04.088-.029.029-.077.029h-.888q-.048 0-.087-.03-.03-.038-.03-.087v-2.993q0-.449-.243-.712-.234-.263-.634-.263t-.653.263q-.254.263-.254.702v3.003q0 .049-.039.088-.03.029-.078.029h-.887q-.049 0-.088-.03-.03-.038-.03-.087v-2.993q0-.449-.243-.712-.244-.263-.643-.263-.37 0-.615.214-.234.215-.273.585v3.169q0 .049-.039.088-.029.029-.078.029h-.897q-.048 0-.087-.03-.03-.038-.03-.087v-4.748q0-.049.03-.078.039-.04.087-.04h.897q.05 0 .078.04.04.029.04.078v.321q0 .03.019.04.02.01.039-.02.214-.273.526-.4.322-.136.712-.136.478 0 .839.195.36.195.555.565.03.04.069 0 .214-.39.594-.575.38-.185.849-.185z" style="fill:navy;fill-opacity:1;stroke-width:.375" id="path2004"/></g><g aria-label="498nm" id="text1566-7-9-1" style="fill:teal;fill-opacity:1;stroke-width:.375"><path d="M146.557 29.101q.049 0 .078.039.039.03.039.078v.78q0 .049-.04.088-.028.029-.077.029h-.41q-.048 0-.048.049v1.628q0 .049-.04.088-.029.029-.077.029h-.897q-.05 0-.088-.03-.03-.038-.03-.087v-1.628q0-.049-.048-.049h-2.964q-.049 0-.088-.03-.03-.038-.03-.087v-.624q0-.059.03-.146l1.843-4.056q.039-.088.136-.088h.956q.068 0 .088.039.029.03 0 .097l-1.736 3.822q-.01.02 0 .04.01.019.03.019h1.735q.049 0 .049-.049v-1.326q0-.049.029-.078.039-.039.088-.039h.897q.048 0 .078.04.039.028.039.077v1.326q0 .049.048.049z" style="fill:teal;fill-opacity:1;stroke-width:.375" id="path1985"/><path d="M151.675 26.293q.156.41.156.955v2.974q0 .527-.263.926-.263.4-.741.624-.468.215-1.082.215-.595 0-1.063-.215-.458-.214-.722-.604-.253-.39-.253-.897v-.215q0-.048.03-.078.038-.039.087-.039h.897q.049 0 .078.04.039.029.039.077v.069q0 .39.253.643.254.244.654.244.419 0 .682-.254.273-.263.273-.672v-1.073q0-.029-.02-.039-.019-.01-.038.01-.42.41-1.141.41-.575 0-1.014-.244-.43-.244-.673-.702-.273-.488-.273-1.21 0-.594.195-1.042.234-.556.741-.868.507-.312 1.2-.312.73 0 1.247.341.527.332.751.936zm-1.131 1.657q.156-.312.156-.76 0-.37-.127-.653-.234-.537-.877-.537-.624 0-.878.527-.146.322-.146.692 0 .439.176.751.273.468.838.468.605 0 .858-.488z" style="fill:teal;fill-opacity:1;stroke-width:.375" id="path1987"/><path d="M156.856 28.955q.214.429.214.984 0 .585-.253 1.063-.254.458-.741.722-.488.263-1.15.263-.654 0-1.161-.254-.507-.263-.76-.76-.254-.458-.254-1.043 0-.527.224-.995.195-.4.556-.604.049-.03.01-.069-.244-.175-.439-.487-.253-.41-.253-.907 0-.614.36-1.102.264-.38.712-.585.449-.214 1.004-.214.576 0 1.005.214.438.205.702.585.34.498.34 1.102 0 .536-.262.936-.186.273-.43.449-.038.039 0 .068.371.214.576.634zm-2.77-2.516q-.116.254-.116.449 0 .331.165.594.234.4.78.4.527 0 .8-.41.146-.214.146-.594 0-.215-.107-.449-.127-.224-.341-.35-.215-.137-.507-.137-.273 0-.488.136-.214.127-.331.361zm1.639 4.173q.204-.283.204-.77 0-.449-.156-.702-.243-.449-.858-.449-.575 0-.838.43-.166.263-.166.73 0 .45.176.732.263.429.838.429.546 0 .8-.4z" style="fill:teal;fill-opacity:1;stroke-width:.375" id="path1989"/><path d="M160.514 26.849q.79 0 1.258.468.477.468.477 1.277v3.198q0 .049-.039.088-.029.029-.078.029h-.897q-.048 0-.087-.03-.03-.038-.03-.087v-2.964q0-.449-.253-.722-.254-.282-.673-.282-.419 0-.682.273-.254.273-.254.721v2.974q0 .049-.039.088-.029.029-.078.029h-.897q-.049 0-.087-.03-.03-.038-.03-.087v-4.748q0-.049.03-.078.039-.04.087-.04h.897q.049 0 .078.04.04.029.04.078v.312q0 .029.019.039.02.01.029-.02.4-.526 1.209-.526z" style="fill:teal;fill-opacity:1;stroke-width:.375" id="path1991"/><path d="M168.771 26.849q.751 0 1.17.458.43.448.43 1.258v3.227q0 .049-.04.088-.029.029-.078.029h-.887q-.049 0-.088-.03-.029-.038-.029-.087v-2.993q0-.449-.244-.712-.234-.263-.633-.263-.4 0-.654.263-.253.263-.253.702v3.003q0 .049-.039.088-.03.029-.078.029h-.887q-.05 0-.088-.03-.03-.038-.03-.087v-2.993q0-.449-.243-.712-.244-.263-.644-.263-.37 0-.614.214-.234.215-.273.585v3.169q0 .049-.039.088-.03.029-.078.029h-.897q-.048 0-.087-.03-.03-.038-.03-.087v-4.748q0-.049.03-.078.039-.04.087-.04h.897q.049 0 .078.04.04.029.04.078v.321q0 .03.019.04.02.01.039-.02.214-.273.526-.4.322-.136.712-.136.478 0 .838.195.361.195.556.565.03.04.069 0 .214-.39.594-.575.38-.185.849-.185z" style="fill:teal;fill-opacity:1;stroke-width:.375" id="path1993"/></g><g aria-label="534nm" id="text1566-7-9-1-5" style="fill:#00b56d;fill-opacity:1;stroke-width:.375"><path d="M182.878 28.847q.127.44.127.907 0 .458-.127.868-.205.624-.75.994-.547.361-1.278.361-.722 0-1.258-.35-.536-.362-.75-.966-.079-.215-.127-.488v-.019q0-.107.117-.107h.926q.097 0 .127.107.01.058.048.175.108.322.342.498.234.175.565.175.341 0 .585-.185.244-.195.341-.527.088-.234.088-.536 0-.283-.078-.556-.068-.321-.312-.487-.244-.176-.595-.176-.331 0-.604.156-.263.147-.341.39-.04.098-.137.098h-.946q-.048 0-.087-.03-.03-.038-.03-.087v-3.861q0-.049.03-.078.039-.039.087-.039h3.793q.049 0 .078.039.04.03.04.078v.741q0 .049-.04.088-.03.029-.078.029h-2.73q-.049 0-.049.049l-.01 1.755q0 .039.02.048.02 0 .039-.019.458-.341 1.102-.341.682 0 1.18.35.506.342.692.946z" style="fill:#00b56d;fill-opacity:1;stroke-width:.375" id="path2007"/><path d="M187.863 28.662q.195.468.195 1.073 0 .546-.166.965-.224.614-.74.955-.517.332-1.249.332-.721 0-1.257-.36-.527-.371-.751-.995-.117-.303-.137-.79 0-.117.117-.117h.907q.117 0 .117.117.02.312.098.497.087.312.321.497.244.176.585.176.644 0 .888-.585.126-.283.126-.731 0-.498-.146-.82-.253-.545-.877-.545-.166 0-.449.195-.039.02-.068.02-.05 0-.098-.06l-.448-.623q-.03-.049-.03-.078 0-.049.04-.088l1.608-1.58q.02-.019.01-.039-.01-.019-.039-.019h-2.437q-.05 0-.088-.03-.03-.038-.03-.087v-.741q0-.049.03-.078.039-.039.088-.039h3.89q.049 0 .078.039.039.03.039.078v.848q0 .088-.059.146l-1.394 1.404q-.039.04.04.059.906.127 1.286 1.004z" style="fill:#00b56d;fill-opacity:1;stroke-width:.375" id="path2009"/><path d="M193.647 29.101q.049 0 .078.039.04.03.04.078v.78q0 .049-.04.088-.03.029-.078.029h-.41q-.048 0-.048.049v1.628q0 .049-.04.088-.028.029-.077.029h-.897q-.049 0-.088-.03-.03-.038-.03-.087v-1.628q0-.049-.048-.049h-2.964q-.049 0-.087-.03-.03-.038-.03-.087v-.624q0-.059.03-.146l1.842-4.056q.04-.088.137-.088h.955q.069 0 .088.039.03.03 0 .097l-1.736 3.822q-.01.02 0 .04.01.019.03.019h1.735q.049 0 .049-.049v-1.326q0-.049.03-.078.038-.039.087-.039h.897q.049 0 .078.04.039.028.039.077v1.326q0 .049.049.049z" style="fill:#00b56d;fill-opacity:1;stroke-width:.375" id="path2011"/><path d="M197.264 26.849q.79 0 1.258.468.477.468.477 1.277v3.198q0 .049-.039.088-.029.029-.078.029h-.897q-.048 0-.087-.03-.03-.038-.03-.087v-2.964q0-.449-.253-.722-.254-.282-.673-.282-.419 0-.682.273-.254.273-.254.721v2.974q0 .049-.039.088-.029.029-.078.029h-.897q-.049 0-.087-.03-.03-.038-.03-.087v-4.748q0-.049.03-.078.039-.04.087-.04h.897q.049 0 .078.04.04.029.04.078v.312q0 .029.019.039.02.01.029-.02.4-.526 1.209-.526z" style="fill:#00b56d;fill-opacity:1;stroke-width:.375" id="path2013"/><path d="M205.521 26.849q.751 0 1.17.458.43.448.43 1.258v3.227q0 .049-.04.088-.029.029-.078.029h-.887q-.049 0-.088-.03-.029-.038-.029-.087v-2.993q0-.449-.244-.712-.234-.263-.633-.263-.4 0-.654.263-.253.263-.253.702v3.003q0 .049-.039.088-.03.029-.078.029h-.887q-.05 0-.088-.03-.03-.038-.03-.087v-2.993q0-.449-.243-.712-.244-.263-.644-.263-.37 0-.614.214-.234.215-.273.585v3.169q0 .049-.039.088-.03.029-.078.029h-.897q-.048 0-.087-.03-.03-.038-.03-.087v-4.748q0-.049.03-.078.039-.04.087-.04h.897q.049 0 .078.04.04.029.04.078v.321q0 .03.019.04.02.01.039-.02.214-.273.526-.4.322-.136.712-.136.478 0 .838.195.361.195.556.565.03.04.069 0 .214-.39.594-.575.38-.185.849-.185z" style="fill:#00b56d;fill-opacity:1;stroke-width:.375" id="path2015"/></g><g aria-label="564nm" id="text1566-7-9-1-4" style="fill:#5e9c00;fill-opacity:1;stroke-width:.375"><path d="M216.628 28.847q.127.44.127.907 0 .458-.127.868-.205.624-.75.994-.547.361-1.278.361-.722 0-1.258-.35-.536-.362-.75-.966-.079-.215-.127-.488v-.019q0-.107.117-.107h.926q.097 0 .127.107.01.058.048.175.108.322.342.498.234.175.565.175.341 0 .585-.185.244-.195.341-.527.088-.234.088-.536 0-.283-.078-.556-.068-.321-.312-.487-.244-.176-.595-.176-.331 0-.604.156-.263.147-.341.39-.04.098-.137.098h-.946q-.048 0-.087-.03-.03-.038-.03-.087v-3.861q0-.049.03-.078.039-.039.087-.039h3.793q.049 0 .078.039.04.03.04.078v.741q0 .049-.04.088-.03.029-.078.029h-2.73q-.049 0-.049.049l-.01 1.755q0 .039.02.048.02 0 .039-.019.458-.341 1.102-.341.682 0 1.18.35.506.342.692.946z" style="fill:#5e9c00;fill-opacity:1;stroke-width:.375" id="path2018"/><path d="M221.642 28.545q.264.497.264 1.21 0 .594-.195 1.042-.234.566-.741.878-.498.302-1.2.302-.731 0-1.248-.331-.516-.342-.74-.946-.157-.41-.157-.956v-2.973q0-.527.264-.927.263-.4.73-.614.479-.224 1.093-.224.595 0 1.053.214.468.215.721.605.264.39.264.897v.214q0 .05-.04.088-.029.03-.077.03h-.897q-.05 0-.088-.03-.03-.039-.03-.088v-.068q0-.39-.263-.634-.253-.253-.653-.253-.41 0-.682.263-.264.254-.264.663v1.063q0 .03.02.039.02.01.039-.01.41-.4 1.13-.4.576 0 1.005.244.439.244.692.702zm-1.014 1.921q.147-.293.147-.692 0-.439-.166-.751-.273-.468-.848-.468-.605 0-.858.487-.147.293-.147.761 0 .4.127.653.234.536.878.536.614 0 .867-.526z" style="fill:#5e9c00;fill-opacity:1;stroke-width:.375" id="path2020"/><path d="M227.378 29.101q.049 0 .078.039.04.03.04.078v.78q0 .049-.04.088-.029.029-.078.029h-.41q-.048 0-.048.049v1.628q0 .049-.04.088-.028.029-.077.029h-.897q-.049 0-.088-.03-.029-.038-.029-.087v-1.628q0-.049-.049-.049h-2.964q-.049 0-.088-.03-.029-.038-.029-.087v-.624q0-.059.03-.146l1.842-4.056q.04-.088.137-.088h.955q.069 0 .088.039.03.03 0 .097l-1.736 3.822q-.01.02 0 .04.01.019.03.019h1.735q.049 0 .049-.049v-1.326q0-.049.03-.078.038-.039.087-.039h.897q.049 0 .078.04.039.028.039.077v1.326q0 .049.049.049z" style="fill:#5e9c00;fill-opacity:1;stroke-width:.375" id="path2022"/><path d="M230.995 26.849q.79 0 1.258.468.477.468.477 1.277v3.198q0 .049-.039.088-.029.029-.078.029h-.897q-.048 0-.087-.03-.03-.038-.03-.087v-2.964q0-.449-.253-.722-.254-.282-.673-.282-.42 0-.682.273-.254.273-.254.721v2.974q0 .049-.039.088-.03.029-.078.029h-.897q-.049 0-.088-.03-.029-.038-.029-.087v-4.748q0-.049.03-.078.038-.04.087-.04h.897q.049 0 .078.04.04.029.04.078v.312q0 .029.019.039.02.01.029-.02.4-.526 1.209-.526z" style="fill:#5e9c00;fill-opacity:1;stroke-width:.375" id="path2024"/><path d="M239.252 26.849q.751 0 1.17.458.43.448.43 1.258v3.227q0 .049-.04.088-.029.029-.078.029h-.887q-.049 0-.088-.03-.029-.038-.029-.087v-2.993q0-.449-.244-.712-.234-.263-.633-.263-.4 0-.654.263-.253.263-.253.702v3.003q0 .049-.04.088-.028.029-.077.029h-.887q-.05 0-.088-.03-.03-.038-.03-.087v-2.993q0-.449-.243-.712-.244-.263-.644-.263-.37 0-.614.214-.234.215-.273.585v3.169q0 .049-.039.088-.029.029-.078.029h-.897q-.049 0-.088-.03-.029-.038-.029-.087v-4.748q0-.049.03-.078.038-.04.087-.04h.897q.049 0 .078.04.04.029.04.078v.321q0 .03.019.04.02.01.039-.02.214-.273.526-.4.322-.136.712-.136.478 0 .838.195.361.195.556.565.03.04.068 0 .215-.39.595-.575.38-.185.848-.185z" style="fill:#5e9c00;fill-opacity:1;stroke-width:.375" id="path2026"/></g><g aria-label="S" id="text1566-7-0-9-1-6" style="fill:#0000c1;fill-opacity:1;stroke-width:.375"><path d="M73.338 50.468q-1.245 0-2.175-.39-.915-.405-1.425-1.14-.495-.75-.495-1.725v-.285q0-.075.045-.12.06-.06.135-.06h2.085q.075 0 .12.06.06.045.06.12v.18q0 .495.495.87.495.36 1.335.36.66 0 .975-.285.315-.285.315-.66 0-.3-.195-.48-.18-.195-.495-.315-.315-.135-.975-.36-.09-.045-.18-.06-.09-.03-.165-.06-.975-.315-1.695-.675-.72-.375-1.23-1.02-.51-.66-.51-1.62 0-.93.48-1.62.495-.705 1.365-1.08.87-.375 1.965-.375 1.155 0 2.07.42.93.42 1.455 1.185.525.765.525 1.755v.21q0 .075-.06.135-.045.045-.12.045h-2.085q-.075 0-.135-.045-.045-.06-.045-.135v-.105q0-.525-.465-.93t-1.245-.405q-.585 0-.915.24-.33.24-.33.675 0 .33.21.555.21.21.645.405.45.18 1.365.48 1.05.36 1.635.63t1.095.885q.525.6.525 1.59 0 .975-.495 1.68t-1.395 1.095q-.885.375-2.07.375z" style="fill:#0000c1;fill-opacity:1;stroke-width:.375" id="path2044"/></g><g aria-label="M" id="text1566-7-0-9-1-6-1" style="fill:#00c376;fill-opacity:1;stroke-width:.375"><path d="M196.263 39.968q.06-.12.21-.12h2.115q.076 0 .12.06.06.045.06.12v10.14q0 .075-.06.135-.044.045-.12.045h-2.13q-.074 0-.134-.045-.045-.06-.045-.135v-6.03q0-.06-.03-.06t-.06.045l-1.29 2.07q-.06.12-.21.12h-1.065q-.15 0-.21-.12l-1.305-2.085q-.03-.045-.06-.045t-.03.06v6.045q0 .075-.06.135-.045.045-.12.045h-2.13q-.075 0-.135-.045-.045-.06-.045-.135v-10.14q0-.075.045-.12.06-.06.135-.06h2.115q.135 0 .21.12l2.085 3.27q.045.09.09 0z" style="fill:#00c376;fill-opacity:1;stroke-width:.375" id="path2032"/></g><g aria-label="L" id="text1566-7-0-9-1-6-1-5" style="fill:#7bcc00;fill-opacity:1;stroke-width:.375"><path d="M223.458 50.348q-.075 0-.135-.045-.045-.06-.045-.135v-10.14q0-.075.046-.12.06-.06.134-.06h2.13q.075 0 .12.06.06.045.06.12v8.115q0 .075.075.075h4.785q.075 0 .12.06.06.045.06.12v1.77q0 .075-.06.135-.045.045-.12.045z" style="fill:#7bcc00;fill-opacity:1;stroke-width:.375" id="path2029"/></g><g aria-label="Rods" id="text1566-7-0-9-1-6-1-1" style="fill:teal;fill-opacity:1;stroke-width:.375"><path d="M151.516 49.598q-.12 0-.156-.12l-1.02-3.444q-.025-.048-.06-.048h-.637q-.06 0-.06.06v3.408q0 .06-.048.108-.036.036-.096.036h-1.104q-.06 0-.108-.036-.036-.048-.036-.108v-8.112q0-.06.036-.096.048-.048.108-.048h2.256q.636 0 1.116.312.492.3.756.864.276.552.276 1.272 0 .744-.288 1.284t-.804.816q-.048.012-.036.072l1.176 3.612q.012.024.012.06 0 .108-.132.108zm-1.872-7.2q-.06 0-.06.06v2.388q0 .06.06.06h.731q.432 0 .696-.336.276-.336.276-.912 0-.576-.276-.912-.264-.348-.696-.348z" style="fill:teal;fill-opacity:1;stroke-width:.375" id="path2035"/><path d="M155.667 49.694q-.996 0-1.572-.528-.564-.528-.564-1.428v-2.412q0-.888.576-1.416.576-.54 1.56-.54.996 0 1.572.54.576.528.576 1.416v2.412q0 .9-.576 1.428-.564.528-1.572.528zm0-1.212q.336 0 .54-.228.216-.24.216-.624v-2.208q0-.372-.216-.612-.204-.24-.54-.24-.336 0-.54.24-.204.228-.204.612v2.208q0 .384.204.624.204.228.54.228z" style="fill:teal;fill-opacity:1;stroke-width:.375" id="path2037"/><path d="M161.554 41.342q0-.06.036-.096.048-.048.108-.048h1.104q.06 0 .096.048.048.036.048.096v8.112q0 .06-.048.108-.036.036-.096.036h-1.104q-.06 0-.108-.036-.036-.048-.036-.108v-.144q0-.036-.024-.048-.024-.012-.048.012-.432.42-1.08.42-.804 0-1.248-.528-.444-.528-.444-1.416v-2.436q0-.912.444-1.428.456-.516 1.248-.516.276 0 .564.108.288.096.516.324.024.024.048.012t.024-.048zm-.72 7.152q.288 0 .48-.18.192-.192.24-.504v-2.556q-.048-.312-.24-.492-.192-.192-.48-.192-.336 0-.54.24-.204.228-.204.612v2.22q0 .384.204.624.204.228.54.228z" style="fill:teal;fill-opacity:1;stroke-width:.375" id="path2039"/><path d="M165.94 49.67q-.948 0-1.512-.456-.564-.456-.564-1.236v-.084q0-.06.036-.096.048-.048.108-.048h1.032q.06 0 .096.048.048.036.048.096v.06q0 .288.216.48.228.192.552.192.312 0 .492-.18t.18-.456q0-.24-.156-.396-.156-.168-.336-.252-.18-.084-.648-.276-.684-.264-1.128-.672-.432-.408-.432-1.212 0-.84.528-1.308.54-.48 1.452-.48.936 0 1.476.504.552.492.552 1.332 0 .06-.048.108-.036.036-.096.036h-1.008q-.06 0-.108-.036-.036-.048-.036-.108v-.072q0-.288-.204-.48-.192-.192-.492-.192-.312 0-.504.204-.18.192-.18.468 0 .228.144.384t.324.252q.18.084.6.264.504.204.84.408.348.192.6.564.264.36.264.9 0 .804-.564 1.272-.564.468-1.524.468z" style="fill:teal;fill-opacity:1;stroke-width:.375" id="path2041"/></g><g aria-label="Myndex Perception Research" id="text1965" style="stroke-width:.375"><path d="m58.02 213.374-.005-3.144-1.538 2.656h-.131l-1.539-2.646v3.134h-.262V209.7h.226l1.643 2.84 1.643-2.84h.22l.006 3.675z" style="fill:#30a;fill-opacity:1;stroke-width:.375" id="path389"/><path d="m61.675 210.634-1.407 3.113q-.158.362-.368.515-.205.152-.488.152-.189 0-.357-.063-.163-.063-.278-.184l.131-.2q.21.216.51.216.199 0 .34-.11.142-.11.263-.378l.147-.331-1.234-2.73h.278l1.098 2.452 1.097-2.452z" style="fill:#30a;fill-opacity:1;stroke-width:.375" id="path391"/><path d="M63.582 210.613q.515 0 .814.3.3.298.3.86v1.601h-.263v-1.58q0-.462-.236-.703-.231-.242-.651-.242-.483 0-.762.289-.278.289-.278.777v1.46h-.262v-2.741h.252v.593q.141-.289.42-.451.283-.163.666-.163z" style="fill:#30a;fill-opacity:1;stroke-width:.375" id="path393"/><path d="M68.227 209.479v3.895h-.257v-.645q-.163.32-.457.493-.294.173-.666.173-.384 0-.693-.178-.31-.179-.489-.494-.173-.315-.173-.719 0-.404.173-.72.179-.32.489-.493.31-.178.693-.178.367 0 .656.173.294.173.462.483v-1.79zm-1.365 3.68q.315 0 .562-.147.252-.147.394-.41.147-.262.147-.598 0-.336-.147-.598-.142-.263-.394-.41-.247-.147-.562-.147-.315 0-.567.147-.246.147-.393.41-.142.262-.142.598 0 .336.142.599.147.262.393.41.252.146.567.146z" style="fill:#30a;fill-opacity:1;stroke-width:.375" id="path395"/><path d="M71.654 212.067h-2.357q.01.32.163.572.152.247.41.384.262.136.587.136.268 0 .494-.094.231-.1.383-.29l.152.174q-.178.215-.451.33-.268.116-.583.116-.41 0-.73-.178-.32-.179-.504-.494-.178-.315-.178-.719 0-.399.168-.714.173-.32.472-.499.3-.178.672-.178.373 0 .667.178.3.174.467.489.174.315.174.714zm-1.302-1.223q-.288 0-.52.131-.23.126-.372.362-.137.231-.158.525h2.1q-.015-.294-.157-.525-.142-.23-.373-.362-.23-.131-.52-.131z" style="fill:#30a;fill-opacity:1;stroke-width:.375" id="path397"/><path d="m74.138 213.374-.94-1.223-.94 1.223h-.299l1.087-1.412-1.03-1.328h.3l.882 1.14.882-1.14h.294l-1.029 1.328 1.103 1.412z" style="fill:#30a;fill-opacity:1;stroke-width:.375" id="path399"/><path d="M77.878 209.7q.693 0 1.086.33.394.326.394.908 0 .578-.394.909-.393.325-1.086.325h-1.05v1.202h-.268V209.7zm0 2.23q.588 0 .897-.257.31-.257.31-.735 0-.477-.31-.735-.31-.262-.897-.262h-1.05v1.99z" style="fill:#30a;fill-opacity:1;stroke-width:.375" id="path401"/><path d="M82.472 212.067h-2.357q.01.32.163.572.152.247.41.384.262.136.587.136.268 0 .494-.094.23-.1.383-.29l.152.174q-.178.215-.451.33-.268.116-.583.116-.41 0-.73-.178-.32-.179-.504-.494-.178-.315-.178-.719 0-.399.168-.714.173-.32.472-.499.3-.178.672-.178.373 0 .667.178.3.174.467.489.174.315.174.714zm-1.302-1.223q-.288 0-.52.131-.23.126-.372.362-.137.231-.158.525h2.1q-.015-.294-.157-.525-.142-.23-.373-.362-.23-.131-.52-.131z" style="fill:#30a;fill-opacity:1;stroke-width:.375" id="path403"/><path d="M83.547 211.232q.126-.299.394-.456.267-.163.65-.163v.257l-.062-.005q-.457 0-.714.289-.258.283-.258.793v1.428h-.262v-2.74h.252z" style="fill:#30a;fill-opacity:1;stroke-width:.375" id="path405"/><path d="M86.381 213.395q-.399 0-.714-.178-.315-.179-.493-.494-.179-.32-.179-.719 0-.404.179-.72.178-.32.493-.493.315-.178.714-.178.33 0 .599.131.273.126.44.373l-.194.142q-.147-.205-.367-.305-.215-.105-.478-.105-.32 0-.577.147-.252.142-.4.404-.141.263-.141.604 0 .341.142.604.147.262.399.41.257.141.577.141.263 0 .478-.1.22-.105.367-.31l.195.142q-.168.247-.441.378-.268.126-.599.126z" style="fill:#30a;fill-opacity:1;stroke-width:.375" id="path407"/><path d="M90.47 212.067h-2.357q.01.32.163.572.152.247.41.384.262.136.587.136.268 0 .494-.094.23-.1.383-.29l.152.174q-.178.215-.451.33-.268.116-.583.116-.41 0-.73-.178-.32-.179-.504-.494-.178-.315-.178-.719 0-.399.168-.714.173-.32.472-.499.3-.178.672-.178.373 0 .667.178.3.174.467.489.174.315.174.714zm-1.302-1.223q-.288 0-.52.131-.23.126-.372.362-.137.231-.158.525h2.1q-.015-.294-.157-.525-.142-.23-.373-.362-.23-.131-.52-.131z" style="fill:#30a;fill-opacity:1;stroke-width:.375" id="path409"/><path d="M92.668 210.613q.384 0 .693.178.31.179.483.494.179.315.179.72 0 .403-.179.724-.173.315-.483.493-.31.173-.693.173-.362 0-.656-.168-.294-.173-.457-.477v1.643h-.262v-3.76h.252v.647q.163-.315.457-.489.299-.178.666-.178zm-.015 2.546q.315 0 .567-.147.252-.147.393-.41.147-.262.147-.598 0-.336-.147-.598-.141-.263-.393-.41-.252-.147-.567-.147-.315 0-.567.147-.247.147-.394.41-.142.262-.142.598 0 .336.142.599.147.262.394.41.252.146.567.146z" style="fill:#30a;fill-opacity:1;stroke-width:.375" id="path411"/><path d="M96.2 213.201q-.1.095-.252.147-.147.047-.31.047-.356 0-.55-.194-.195-.2-.195-.551v-1.79h-.504v-.226h.504v-.599h.263v.599h.871v.226h-.871v1.764q0 .267.126.41.131.136.383.136.257 0 .425-.153z" style="fill:#30a;fill-opacity:1;stroke-width:.375" id="path413"/><path d="M96.933 210.634h.262v2.74h-.262zm.13-.667q-.088 0-.151-.058-.063-.063-.063-.152t.063-.152q.063-.063.152-.063t.152.063q.063.058.063.147 0 .09-.063.152-.063.063-.152.063z" style="fill:#30a;fill-opacity:1;stroke-width:.375" id="path415"/><path d="M99.378 213.395q-.389 0-.704-.178-.31-.179-.488-.494-.179-.32-.179-.719 0-.399.179-.714.178-.32.488-.499.315-.178.704-.178.388 0 .698.178.315.179.493.5.179.314.179.713 0 .4-.179.72-.178.314-.493.493-.31.178-.698.178zm0-.236q.315 0 .561-.147.252-.147.394-.41.147-.262.147-.598 0-.336-.147-.598-.142-.263-.394-.41-.246-.147-.561-.147-.315 0-.567.147-.247.147-.394.41-.142.262-.142.598 0 .336.142.599.147.262.394.41.252.146.567.146z" style="fill:#30a;fill-opacity:1;stroke-width:.375" id="path417"/><path d="M102.896 210.613q.514 0 .814.3.299.298.299.86v1.601h-.263v-1.58q0-.462-.236-.703-.231-.242-.651-.242-.483 0-.761.289t-.278.777v1.46h-.263v-2.741h.252v.593q.142-.289.42-.451.284-.163.667-.163z" style="fill:#30a;fill-opacity:1;stroke-width:.375" id="path419"/><path d="m109.084 213.374-.877-1.228q-.194.026-.357.026h-1.05v1.202h-.268V209.7h1.318q.693 0 1.087.331.393.326.393.908 0 .436-.225.735-.22.294-.636.415l.92 1.286zm-1.234-1.438q.588 0 .898-.257.31-.263.31-.74 0-.478-.31-.736-.31-.262-.898-.262h-1.05v1.995z" style="fill:#30a;fill-opacity:1;stroke-width:.375" id="path421"/><path d="M112.547 212.067h-2.357q.01.32.163.572.152.247.41.384.262.136.587.136.268 0 .494-.094.23-.1.383-.29l.152.174q-.178.215-.451.33-.268.116-.583.116-.41 0-.73-.178-.32-.179-.504-.494-.178-.315-.178-.719 0-.399.168-.714.173-.32.472-.499.3-.178.672-.178.373 0 .667.178.3.174.467.489.173.315.173.714zm-1.302-1.223q-.289 0-.52.131-.23.126-.372.362-.137.231-.158.525h2.1q-.016-.294-.157-.525-.142-.23-.373-.362-.231-.131-.52-.131z" style="fill:#30a;fill-opacity:1;stroke-width:.375" id="path423"/><path d="M114.063 213.395q-.331 0-.63-.1-.3-.1-.468-.251l.121-.21q.168.141.43.236.268.094.557.094.415 0 .609-.136.2-.137.2-.378 0-.173-.11-.273-.106-.1-.263-.147-.158-.047-.436-.1-.325-.058-.525-.126t-.341-.22q-.142-.153-.142-.42 0-.326.268-.536.273-.215.772-.215.262 0 .52.073.257.074.42.195l-.121.21q-.168-.121-.384-.184-.215-.063-.44-.063-.384 0-.578.142-.194.141-.194.372 0 .184.11.289.11.1.268.152.162.047.451.105.32.058.515.126.199.063.336.21.136.147.136.405 0 .34-.283.546-.284.204-.798.204z" style="fill:#30a;fill-opacity:1;stroke-width:.375" id="path425"/><path d="M118.197 212.067h-2.357q.01.32.162.572.153.247.41.384.262.136.588.136.268 0 .493-.094.231-.1.384-.29l.152.174q-.179.215-.452.33-.267.116-.582.116-.41 0-.73-.178-.32-.179-.504-.494-.179-.315-.179-.719 0-.399.168-.714.174-.32.473-.499.3-.178.672-.178.373 0 .667.178.299.174.467.489.173.315.173.714zm-1.302-1.223q-.289 0-.52.131-.23.126-.373.362-.136.231-.157.525h2.1q-.016-.294-.158-.525-.141-.23-.372-.362-.231-.131-.52-.131z" style="fill:#30a;fill-opacity:1;stroke-width:.375" id="path427"/><path d="M119.861 210.613q.51 0 .783.262.273.258.273.762v1.737h-.252v-.488q-.132.242-.384.378-.252.131-.603.131-.457 0-.725-.215-.262-.215-.262-.567 0-.341.241-.551.247-.215.782-.215h.94v-.22q0-.384-.21-.584-.205-.2-.604-.2-.273 0-.525.095-.246.095-.42.252l-.13-.189q.204-.183.493-.283.288-.105.603-.105zm-.147 2.567q.342 0 .578-.157.241-.158.362-.457v-.515h-.934q-.405 0-.588.147-.179.147-.179.405 0 .267.2.425.2.152.561.152z" style="fill:#30a;fill-opacity:1;stroke-width:.375" id="path429"/><path d="M122.255 211.232q.126-.299.394-.456.268-.163.651-.163v.257l-.063-.005q-.457 0-.714.289-.257.283-.257.793v1.428h-.263v-2.74h.252z" style="fill:#30a;fill-opacity:1;stroke-width:.375" id="path431"/><path d="M125.09 213.395q-.4 0-.714-.178-.315-.179-.494-.494-.178-.32-.178-.719 0-.404.178-.72.179-.32.494-.493.315-.178.714-.178.33 0 .598.131.273.126.441.373l-.194.142q-.147-.205-.368-.305-.215-.105-.477-.105-.32 0-.578.147-.252.142-.399.404-.142.263-.142.604 0 .341.142.604.147.262.4.41.256.141.577.141.262 0 .477-.1.22-.105.368-.31l.194.142q-.168.247-.44.378-.269.126-.6.126z" style="fill:#30a;fill-opacity:1;stroke-width:.375" id="path433"/><path d="M128.202 210.613q.515 0 .814.3.3.298.3.86v1.601h-.263v-1.58q0-.462-.236-.703-.231-.242-.651-.242-.483 0-.762.289-.278.289-.278.777v1.46h-.262v-3.896h.262v1.727q.142-.283.42-.436.278-.157.656-.157z" style="fill:#30a;fill-opacity:1;stroke-width:.375" id="path435"/></g></svg>