<svg xmlns="http://www.w3.org/2000/svg" width="463" height="319"><path d="M4 117.5h140v80H4zm-.5 0" fill="#E6E6FF"/><path d="M4.5 118h140v80H4.5zm-.5 0" stroke="#000" stroke-linecap="round" stroke-linejoin="round" fill="none"/><text transform="translate(73.5 143.5)"><tspan x="-36.006" y="4" font-family="Helvetica" font-size="12">T</tspan> <tspan x="-28.678" y="4" font-family="Helvetica" font-size="12">EX</tspan> <tspan x="-12.67" y="4" font-family="Helvetica" font-size="12">T</tspan> <tspan x="-5.343" y="4" font-family="Helvetica" font-size="12">_N</tspan> <tspan x="10.002" y="4" font-family="Helvetica" font-size="12">O</tspan> <tspan x="19.334" y="4" font-family="Helvetica" font-size="12">D</tspan> <tspan x="28.002" y="4" font-family="Helvetica" font-size="12">E</tspan></text><text transform="translate(231.5 170.5)"><tspan x="-43.255" y="0" font-family="Helvetica" font-size="12">thing...&quot;</tspan></text><text transform="translate(74 165)"><tspan x="-38.829" y="-3.5" font-family="Helvetica" font-size="12">&quot;An in</tspan> <tspan x="-7.203" y="-3.5" font-family="Helvetica" font-size="12">t</tspan> <tspan x="-3.872" y="-3.5" font-family="Helvetica" font-size="12">e</tspan> <tspan x="2.804" y="-3.5" font-family="Helvetica" font-size="12">r</tspan> <tspan x="6.8" y="-3.5" font-family="Helvetica" font-size="12">e</tspan> <tspan x="13.477" y="-3.5" font-family="Helvetica" font-size="12">s</tspan> <tspan x="19.477" y="-3.5" font-family="Helvetica" font-size="12">t</tspan> <tspan x="22.808" y="-3.5" font-family="Helvetica" font-size="12">ing</tspan> <tspan x="38.829" y="-3.5" font-family="Helvetica" font-size="12"> </tspan> <tspan x="-20.142" y="11.5" font-family="Helvetica" font-size="12">t</tspan> <tspan x="-16.81" y="11.5" font-family="Helvetica" font-size="12">hing</tspan> <tspan x="5.887" y="11.5" font-family="Helvetica" font-size="12">...</tspan> <tspan x="15.882" y="11.5" font-family="Helvetica" font-size="12">&quot;</tspan></text><path d="M4 1.5h140v80H4zm-.5 0" fill="#E6FFE6"/><path d="M4.5 2h140v80H4.5zM4 2" stroke="#000" stroke-linecap="round" stroke-linejoin="round" fill="none"/><text transform="translate(73.504 34.5)"><tspan x="-49.014" y="4" font-family="Helvetica" font-size="12">E</tspan> <tspan x="-41.01" y="4" font-family="Helvetica" font-size="12">L</tspan> <tspan x="-34.334" y="4" font-family="Helvetica" font-size="12">EME</tspan> <tspan x="-8.33" y="4" font-family="Helvetica" font-size="12">N</tspan> <tspan x=".338" y="4" font-family="Helvetica" font-size="12">T</tspan> <tspan x="7.666" y="4" font-family="Helvetica" font-size="12">_N</tspan> <tspan x="23.01" y="4" font-family="Helvetica" font-size="12">O</tspan> <tspan x="32.342" y="4" font-family="Helvetica" font-size="12">D</tspan> <tspan x="41.01" y="4" font-family="Helvetica" font-size="12">E</tspan></text><text transform="translate(73.502 48.5)"><tspan x="-13.684" y="4" font-family="Helvetica" font-size="12">&lt;</tspan> <tspan x="-6.676" y="4" font-family="Helvetica" font-size="12">h2</tspan> <tspan x="6.676" y="4" font-family="Helvetica" font-size="12">&gt;</tspan></text><path d="M162 117.5h140v80H162zm-.5 0" fill="#E6E6FF"/><path d="M162.5 118h140v80h-140zm-.5 0" stroke="#000" stroke-linecap="round" stroke-linejoin="round" fill="none"/><text transform="translate(231.5 150.5)"><tspan x="-36.006" y="4" font-family="Helvetica" font-size="12">T</tspan> <tspan x="-28.678" y="4" font-family="Helvetica" font-size="12">EX</tspan> <tspan x="-12.67" y="4" font-family="Helvetica" font-size="12">T</tspan> <tspan x="-5.343" y="4" font-family="Helvetica" font-size="12">_N</tspan> <tspan x="10.002" y="4" font-family="Helvetica" font-size="12">O</tspan> <tspan x="19.334" y="4" font-family="Helvetica" font-size="12">D</tspan> <tspan x="28.002" y="4" font-family="Helvetica" font-size="12">E</tspan></text><text transform="translate(226.099 164.5)"><tspan x="-9.599" y="4" font-family="Helvetica" font-size="12">&quot;</tspan> <tspan x="-5.34" y="4" font-family="Helvetica" font-size="12">A</tspan> <tspan x="1.68" y="4" font-family="Helvetica" font-size="12"> </tspan> <tspan x="5.34" y="4" font-family="Helvetica" font-size="12">&quot;</tspan></text><path d="M320 233.5h140v80H320zm-.5 0" fill="#E6E6FF"/><path d="M320.5 234h140v80h-140zm-.5 0" stroke="#000" stroke-linecap="round" stroke-linejoin="round" fill="none"/><text transform="translate(389.5 266.5)"><tspan x="-36.006" y="4" font-family="Helvetica" font-size="12">T</tspan> <tspan x="-28.678" y="4" font-family="Helvetica" font-size="12">EX</tspan> <tspan x="-12.67" y="4" font-family="Helvetica" font-size="12">T</tspan> <tspan x="-5.343" y="4" font-family="Helvetica" font-size="12">_N</tspan> <tspan x="10.002" y="4" font-family="Helvetica" font-size="12">O</tspan> <tspan x="19.334" y="4" font-family="Helvetica" font-size="12">D</tspan> <tspan x="28.002" y="4" font-family="Helvetica" font-size="12">E</tspan></text><text transform="translate(389.501 280.5)"><tspan x="-10.598" y="4" font-family="Helvetica" font-size="12">&quot;v</tspan> <tspan x="-.338" y="4" font-family="Helvetica" font-size="12">e</tspan> <tspan x="6.338" y="4" font-family="Helvetica" font-size="12">&quot;</tspan></text><path d="M320 117.5h140v80H320zm-.5 0" fill="#E6FFE6"/><path d="M320.5 118h140v80h-140zm-.5 0" stroke="#000" stroke-linecap="round" stroke-linejoin="round" fill="none"/><text transform="translate(389.504 150.5)"><tspan x="-49.014" y="4" font-family="Helvetica" font-size="12">E</tspan> <tspan x="-41.01" y="4" font-family="Helvetica" font-size="12">L</tspan> <tspan x="-34.334" y="4" font-family="Helvetica" font-size="12">EME</tspan> <tspan x="-8.33" y="4" font-family="Helvetica" font-size="12">N</tspan> <tspan x=".338" y="4" font-family="Helvetica" font-size="12">T</tspan> <tspan x="7.666" y="4" font-family="Helvetica" font-size="12">_N</tspan> <tspan x="23.01" y="4" font-family="Helvetica" font-size="12">O</tspan> <tspan x="32.342" y="4" font-family="Helvetica" font-size="12">D</tspan> <tspan x="41.01" y="4" font-family="Helvetica" font-size="12">E</tspan></text><text transform="translate(389.501 164.5)"><tspan x="-15.344" y="4" font-family="Helvetica" font-size="12">&lt;</tspan> <tspan x="-8.336" y="4" font-family="Helvetica" font-size="12">e</tspan> <tspan x="-1.66" y="4" font-family="Helvetica" font-size="12">m</tspan> <tspan x="8.336" y="4" font-family="Helvetica" font-size="12">&gt;</tspan></text><path d="M320 1.5h140v80H320zm-.5 0" fill="#E6FFE6"/><path d="M320.5 2h140v80h-140zm-.5 0" stroke="#000" stroke-linecap="round" stroke-linejoin="round" fill="none"/><text transform="translate(389.504 34.5)"><tspan x="-49.014" y="4" font-family="Helvetica" font-size="12">E</tspan> <tspan x="-41.01" y="4" font-family="Helvetica" font-size="12">L</tspan> <tspan x="-34.334" y="4" font-family="Helvetica" font-size="12">EME</tspan> <tspan x="-8.33" y="4" font-family="Helvetica" font-size="12">N</tspan> <tspan x=".338" y="4" font-family="Helvetica" font-size="12">T</tspan> <tspan x="7.666" y="4" font-family="Helvetica" font-size="12">_N</tspan> <tspan x="23.01" y="4" font-family="Helvetica" font-size="12">O</tspan> <tspan x="32.342" y="4" font-family="Helvetica" font-size="12">D</tspan> <tspan x="41.01" y="4" font-family="Helvetica" font-size="12">E</tspan></text><text transform="translate(389.501 48.5)"><tspan x="-10.346" y="4" font-family="Helvetica" font-size="12">&lt;</tspan> <tspan x="-3.338" y="4" font-family="Helvetica" font-size="12">p</tspan> <tspan x="3.338" y="4" font-family="Helvetica" font-size="12">&gt;</tspan></text><path d="M390.5 82v36m0 80v36M335.517 82l-49.034 36M74.5 82v36" stroke="#000" stroke-linecap="round" fill="none"/></svg>