<svg xmlns="http://www.w3.org/2000/svg" width="544" height="431.367"><path d="M0 415.562l19.756-15.319 12.256 15.805-19.756 15.319z"/><path d="M23.513 409.983l6.547-16.035 10.614 13.688z"/><path d="M36.609 401.5l180-400m-180 400l286.062-194.075M36.609 401.5L525.21 283.4M36.609 401.5l438.97-376.164" stroke="#000" stroke-dasharray="3,2" stroke-linecap="round" stroke-linejoin="round" fill="none"/><path d="M196.609 46.5l66.533 201.778L455.609 300.5l-48-217z" fill="#CCC" fill-opacity=".559"/><path d="M196.609 46.5l66.533 201.778L455.609 300.5l-48-217z" stroke="#000" stroke-width="3" stroke-linecap="round" stroke-linejoin="round" fill="none"/><path d="M101.609 257.5l95-211 211 37-237 203z" fill="red" fill-opacity=".559"/><path d="M101.609 257.5l95-211 211 37-237 203z" stroke="#000" stroke-width="3" stroke-linecap="round" stroke-linejoin="round" fill="none"/><path d="M455.609 300.5l-48-217-237 203 27 77z" fill="#0F0" fill-opacity=".559"/><path d="M455.609 300.5l-48-217-237 203 27 77z" stroke="#000" stroke-width="3" stroke-linecap="round" stroke-linejoin="round" fill="none"/><path d="M101.609 257.5l69 29 27 77-68.699-24.611z" fill="#FF0" fill-opacity=".559"/><path d="M101.609 257.5l69 29 27 77-68.699-24.611z" stroke="#000" stroke-width="3" stroke-linecap="round" stroke-linejoin="round" fill="none"/><text transform="translate(219.895 389.302)"><tspan x="-60.35" y="4" font-family="ArialMT" font-size="22">Near Plane</tspan></text><text transform="translate(483.65 93)"><tspan x="-60.35" y="4" font-family="ArialMT" font-size="22">Far Plane</tspan></text></svg>