<svg xmlns="http://www.w3.org/2000/svg" xmlns:xlink="http://www.w3.org/1999/xlink" viewBox="0 0 500 432"><path fill="#F4F4F4" d="M119.9 128.3l14.8 220.3 222.5 9.2 60.5-112-4.5-190.9H220.9z"/><path fill="#00CE00" d="M280.7 103.3l-6.5-5.5-6.5 5.5 6.5-14.1z"/><path fill="#A50000" d="M371.8 201.6l5.4-6.5-5.4-6.6 14.1 6.6z"/><path fill="#0A00EC" d="M312.7 165.8l-5.6-2.8-9.3 2 12.7-6.4z"/><path fill="none" stroke="#0A00EC" stroke-width="4" stroke-linecap="round" stroke-miterlimit="10" d="M278.7 193.5l28.1-30.8"/><path fill="none" stroke="#00CE00" stroke-width="4" stroke-linecap="round" stroke-miterlimit="10" d="M278.8 193.5l-4.6-95.8"/><path fill="none" stroke="#A50000" stroke-width="4" stroke-linecap="round" stroke-miterlimit="10" d="M278.7 193.5l99.8 1.7"/><g font-family="'CourierNewPSMT'" font-size="10"><text transform="translate(258.696 205.393)">(0,0,0)</text><text transform="translate(396.863 48.56)">(1,1,1)</text><text transform="translate(102.86 364.06)">(-1,-1,-1)</text><text transform="translate(329.194 370.06)">(1,-1,-1)</text><text transform="translate(417.195 257.06)">(1,-1,1)</text><text transform="translate(229.194 255.06)">(-1,-1,1)</text><text transform="translate(193.529 48.727)">(-1,1,1)</text><text transform="translate(60.528 130.06)">(-1,1,-1)</text><text transform="translate(355.195 139.06)">(1,1,-1)</text></g><g opacity=".2" fill="none" stroke="#6D6D6D" stroke-width=".75" stroke-miterlimit="10"><path d="M189 287l200 6-5.3-203.3L175 88z"/><path d="M244 351.5l-10.5-222 74-74L313 243z"/><path d="M127.5 235.6l224.5 2.9 63-79-188.7-1.8zm110.5.9l72.5-78M182 192l204 3m-102.7 94.8l-9.3-201"/></g><defs><path id="a" d="M413.2 54.9l4.5 190.9-187.3-4.5-9.5-186.4z"/></defs><clipPath id="b"><use xlink:href="#a" overflow="visible"/></clipPath><path clip-path="url(#b)" fill="none" stroke="#000" stroke-width="3" stroke-miterlimit="10" d="M413.2 54.9l4.5 190.9-187.3-4.5-9.5-186.4z"/><defs><path id="c" d="M349.7 130.5l7.5 227.3-222.8-8.5-14.5-221z"/></defs><clipPath id="d"><use xlink:href="#c" overflow="visible"/></clipPath><path clip-path="url(#d)" fill="none" stroke="#000" stroke-width="3" stroke-miterlimit="10" d="M349.7 130.5l7.5 227.3-222.8-8.5-14.5-221z"/><defs><path id="e" d="M349.7 130.5l63.5-75.6 4.5 190.9-60.5 112z"/></defs><clipPath id="f"><use xlink:href="#e" overflow="visible"/></clipPath><path clip-path="url(#f)" fill="none" stroke="#000" stroke-width="3" stroke-miterlimit="10" d="M349.7 130.5l63.5-75.6 4.5 190.9-60.5 112z"/><defs><path id="g" d="M357.2 357.8l-222.8-8.5 96-108 187.3 4.5z"/></defs><clipPath id="h"><use xlink:href="#g" overflow="visible"/></clipPath><path clip-path="url(#h)" fill="none" stroke="#000" stroke-width="3" stroke-miterlimit="10" d="M357.2 357.8l-222.8-8.5 96-108 187.3 4.5z"/><defs><path id="i" d="M134.4 349.3l-14.5-221 101-73.4 9.5 186.4z"/></defs><clipPath id="j"><use xlink:href="#i" overflow="visible"/></clipPath><path clip-path="url(#j)" fill="none" stroke="#000" stroke-width="3" stroke-miterlimit="10" d="M134.4 349.3l-14.5-221 101-73.4 9.5 186.4z"/><defs><path id="k" d="M119.9 128.3l101-73.4h192.3l-63.5 75.6z"/></defs><clipPath id="l"><use xlink:href="#k" overflow="visible"/></clipPath><path clip-path="url(#l)" fill="none" stroke="#000" stroke-width="3" stroke-miterlimit="10" d="M119.9 128.3l101-73.4h192.3l-63.5 75.6z"/><text transform="translate(14 418.334)" font-family="'CourierNewPSMT'" font-size="19.633">Clipspace</text></svg>