<svg xmlns="http://www.w3.org/2000/svg" width="531" height="432.367"><defs><linearGradient id="a" gradientUnits="userSpaceOnUse" x1="1017.875" y1="1034.054" x2="1079.235" y2="637.946"><stop offset="0" stop-color="red" stop-opacity=".56"/><stop offset=".838" stop-color="red" stop-opacity=".56"/><stop offset="1" stop-color="#FFF" stop-opacity=".56"/></linearGradient><linearGradient id="b" gradientUnits="userSpaceOnUse" x1="837.656" y1="902.355" x2="1311.453" y2="800.645"><stop offset="0" stop-color="#0F0" stop-opacity=".56"/><stop offset=".751" stop-color="#0F0" stop-opacity=".56"/><stop offset="1" stop-color="#FFF" stop-opacity=".56"/></linearGradient></defs><g stroke="#000" stroke-dasharray="3,2" stroke-linecap="round" stroke-linejoin="round" fill="none"><path d="M36.609 402.5l180-400"/><path d="M36.609 402.5l248.891-167" stroke-opacity=".35"/><path d="M36.609 402.5L525.21 284.4M36.609 402.5L477.5 33.5"/></g><path d="M0 416.562l19.756-15.32 12.256 15.806-19.756 15.319z"/><path d="M23.513 410.983l6.547-16.035 10.614 13.687z"/><path d="M828.109 1036l180-400L1269 667z" fill="url(#a)" transform="translate(-792 -634)"/><path d="M35.609 402.5l180-400m260.891 31l-440.891 369" stroke="#000" stroke-width="3" stroke-linecap="round" stroke-linejoin="round" fill="none"/><path d="M1321 918l-52-251-440.891 369z" fill="url(#b)" transform="translate(-792 -634)"/><path d="M477.5 32.5l-440.891 369m.001 0l492.89-118" stroke="#000" stroke-width="3" stroke-linecap="round" stroke-linejoin="round" fill="none"/><path d="M216.609 2.5l68.891 233 244 49-52-251z" stroke="#000" stroke-opacity=".354" stroke-dasharray="3,2" stroke-linecap="round" stroke-linejoin="round" fill="none"/></svg>