<svg xmlns="http://www.w3.org/2000/svg" xmlns:xlink="http://www.w3.org/1999/xlink" xmlns:lucid="lucid" width="1140" height="724"><g transform="translate(-180 1220)" lucid:page-tab-id="0_0"><path d="M200-1194c0-3.3 2.7-6 6-6h288c3.3 0 6 2.7 6 6v292c0 3.3-2.7 6-6 6H206c-3.3 0-6-2.7-6-6z" stroke="#5e5e5e" stroke-width="3" fill="#fff"/><path d="M200-1157.33h300m-300 197.5h300" stroke="#5e5e5e" stroke-width="3" fill="none"/><use xlink:href="#a" transform="translate(324.691 -1174.056)"/><use xlink:href="#b" transform="translate(212 -1120.556)"/><use xlink:href="#c" transform="translate(231.136 -1120.556)"/><use xlink:href="#b" transform="translate(212 -1093.889)"/><use xlink:href="#d" transform="translate(231.136 -1093.889)"/><use xlink:href="#b" transform="translate(212 -1067.222)"/><use xlink:href="#e" transform="translate(231.136 -1067.222)"/><use xlink:href="#b" transform="translate(212 -1040.556)"/><use xlink:href="#f" transform="translate(231.136 -1040.556)"/><use xlink:href="#b" transform="translate(212 -1013.889)"/><use xlink:href="#g" transform="translate(231.136 -1013.889)"/><use xlink:href="#b" transform="translate(212 -987.222)"/><use xlink:href="#h" transform="translate(231.136 -987.222)"/><use xlink:href="#b" transform="translate(212 -922.889)"/><use xlink:href="#i" transform="translate(231.136 -922.889)"/><path d="M200-814c0-3.3 2.7-6 6-6h288c3.3 0 6 2.7 6 6v292c0 3.3-2.7 6-6 6H206c-3.3 0-6-2.7-6-6z" stroke="#5e5e5e" stroke-width="3" fill="#fff"/><path d="M200-777.33h300m-300 197.5h300" stroke="#5e5e5e" stroke-width="3" fill="none"/><use xlink:href="#j" transform="translate(282.716 -794.056)"/><use xlink:href="#b" transform="translate(212 -740.556)"/><use xlink:href="#k" transform="translate(231.136 -740.556)"/><use xlink:href="#b" transform="translate(212 -713.889)"/><use xlink:href="#l" transform="translate(231.136 -713.889)"/><use xlink:href="#b" transform="translate(212 -687.222)"/><use xlink:href="#m" transform="translate(231.136 -687.222)"/><use xlink:href="#b" transform="translate(212 -660.556)"/><use xlink:href="#n" transform="translate(231.136 -660.556)"/><use xlink:href="#b" transform="translate(212 -633.889)"/><use xlink:href="#o" transform="translate(231.136 -633.889)"/><use xlink:href="#p" transform="translate(309.901 -633.889)"/><use xlink:href="#b" transform="translate(212 -607.222)"/><use xlink:href="#q" transform="translate(231.136 -607.222)"/><use xlink:href="#b" transform="translate(212 -542.889)"/><use xlink:href="#i" transform="translate(231.136 -542.889)"/><path d="M660-1114c0-3.3 2.7-6 6-6h208c3.3 0 6 2.7 6 6v159c0 3.3-2.7 6-6 6H666c-3.3 0-6-2.7-6-6z" stroke="#5e5e5e" stroke-width="3" fill="#fff"/><path d="M660-1077.33h220m-220 64.16h220" stroke="#5e5e5e" stroke-width="3" fill="none"/><use xlink:href="#r" transform="translate(739.167 -1094.056)"/><use xlink:href="#b" transform="translate(672 -1040.389)"/><use xlink:href="#s" transform="translate(691.136 -1040.389)"/><use xlink:href="#b" transform="translate(672 -976.222)"/><use xlink:href="#i" transform="translate(691.136 -976.222)"/><path d="M660-854c0-3.3 2.7-6 6-6h208c3.3 0 6 2.7 6 6v159c0 3.3-2.7 6-6 6H666c-3.3 0-6-2.7-6-6z" stroke="#5e5e5e" stroke-width="3" fill="#fff"/><path d="M660-817.33h220m-220 64.16h220" stroke="#5e5e5e" stroke-width="3" fill="none"/><use xlink:href="#t" transform="translate(720.617 -834.056)"/><use xlink:href="#b" transform="translate(672 -780.389)"/><use xlink:href="#s" transform="translate(691.136 -780.389)"/><use xlink:href="#b" transform="translate(672 -716.222)"/><use xlink:href="#i" transform="translate(691.136 -716.222)"/><path d="M1000-1194c0-3.3 2.7-6 6-6h288c3.3 0 6 2.7 6 6v239c0 3.3-2.7 6-6 6h-288c-3.3 0-6-2.7-6-6z" stroke="#5e5e5e" stroke-width="3" fill="#fff"/><path d="M1000-1157.33h300m-300 144.16h300" stroke="#5e5e5e" stroke-width="3" fill="none"/><use xlink:href="#u" transform="translate(1117.315 -1174.056)"/><use xlink:href="#b" transform="translate(1012 -1120.389)"/><use xlink:href="#v" transform="translate(1031.136 -1120.389)"/><use xlink:href="#b" transform="translate(1012 -1093.722)"/><use xlink:href="#w" transform="translate(1031.136 -1093.722)"/><use xlink:href="#b" transform="translate(1012 -1067.056)"/><use xlink:href="#x" transform="translate(1031.136 -1067.056)"/><use xlink:href="#b" transform="translate(1012 -1040.389)"/><use xlink:href="#y" transform="translate(1031.136 -1040.389)"/><use xlink:href="#b" transform="translate(1012 -976.222)"/><use xlink:href="#i" transform="translate(1031.136 -976.222)"/><path d="M502.5-1176.3h495" stroke="#5e5e5e" stroke-width="2" fill="none"/><path d="M502.53-1175.3h-1.03v-2h1.03zm495.97 0h-1.03v-2h1.03z" fill="#5e5e5e"/><use xlink:href="#z" transform="translate(501 -1157.898)"/><use xlink:href="#A" transform="translate(978.821 -1187.498)"/><path d="M502.5-1079.44h155" stroke="#5e5e5e" stroke-width="2" fill="none"/><path d="M502.53-1078.44h-1.03v-2h1.03zm155.97 0h-1.03v-2h1.03z" fill="#5e5e5e"/><use xlink:href="#B" transform="translate(507.402 -1061.041)"/><use xlink:href="#z" transform="translate(622.175 -1090.641)"/><path d="M502.5-978H574c3.3 0 6 2.7 6 6v145c0 3.32 2.7 6 6 6h71.5" stroke="#5e5e5e" stroke-width="2" fill="none"/><path d="M502.53-977h-1.03v-2h1.03zM658.5-820h-1.03v-2h1.03z" fill="#5e5e5e"/><use xlink:href="#B" transform="translate(505.489 -959.589)"/><use xlink:href="#A" transform="translate(643.553 -832.189)"/><path d="M350-893.5v71" stroke="#5e5e5e" stroke-width="2" fill="none"/><path d="M351-893.47h-2v-1.03h2zm0 71.97h-2v-1.03h2z" fill="#5e5e5e"/><use xlink:href="#A" transform="translate(332 -880.9)"/><use xlink:href="#B" transform="translate(358 -827.9)"/><defs><path fill="#333" d="M160-131c35 5 61 23 61 61C221 17 115-2 30 0v-248c76 3 177-17 177 60 0 33-19 50-47 57zm-97-11c50-1 110 9 110-42 0-47-63-36-110-37v79zm0 115c55-2 124 14 124-45 0-56-70-42-124-44v89" id="C"/><path fill="#333" d="M100-194c62-1 85 37 85 99 1 63-27 99-86 99S16-35 15-95c0-66 28-99 85-99zM99-20c44 1 53-31 53-75 0-43-8-75-51-75s-53 32-53 75 10 74 51 75" id="D"/><path fill="#333" d="M143 0 79-87 56-68V0H24v-261h32v163l83-92h37l-77 82L181 0h-38" id="E"/><path fill="#333" d="M118-107v75H92v-75H18v-26h74v-75h26v75h74v26h-74" id="av"/><path fill="#333" d="M59-47c-2 24 18 29 38 22v24C64 9 27 4 27-40v-127H5v-23h24l9-43h21v43h35v23H59v120" id="F"/><path fill="#333" d="M24-231v-30h32v30H24zM24 0v-190h32V0H24" id="G"/><path fill="#333" d="M24 0v-261h32V0H24" id="H"/><path fill="#333" d="M100-194c63 0 86 42 84 106H49c0 40 14 67 53 68 26 1 43-12 49-29l28 8c-11 28-37 45-77 45C44 4 14-33 15-96c1-61 26-98 85-98zm52 81c6-60-76-77-97-28-3 7-6 17-6 28h103" id="I"/><path fill="#333" d="M33-154v-36h34v36H33zM33 0v-36h34V0H33" id="J"/><path fill="#333" d="M185-189c-5-48-123-54-124 2 14 75 158 14 163 119 3 78-121 87-175 55-17-10-28-26-33-46l33-7c5 56 141 63 141-1 0-78-155-14-162-118-5-82 145-84 179-34 5 7 8 16 11 25" id="K"/><path fill="#333" d="M114-163C36-179 61-72 57 0H25l-1-190h30c1 12-1 29 2 39 6-27 23-49 58-41v29" id="L"/><path fill="#333" d="M117-194c89-4 53 116 60 194h-32v-121c0-31-8-49-39-48C34-167 62-67 57 0H25l-1-190h30c1 10-1 24 2 32 11-22 29-35 61-36" id="M"/><path fill="#333" d="M177-190C167-65 218 103 67 71c-23-6-38-20-44-43l32-5c15 47 100 32 89-28v-30C133-14 115 1 83 1 29 1 15-40 15-95c0-56 16-97 71-98 29-1 48 16 59 35 1-10 0-23 2-32h30zM94-22c36 0 50-32 50-73 0-42-14-75-50-75-39 0-46 34-46 75s6 73 46 73" id="N"/><path fill="#333" d="M141-36C126-15 110 5 73 4 37 3 15-17 15-53c-1-64 63-63 125-63 3-35-9-54-41-54-24 1-41 7-42 31l-33-3c5-37 33-52 76-52 45 0 72 20 72 64v82c-1 20 7 32 28 27v20c-31 9-61-2-59-35zM48-53c0 20 12 33 32 33 41-3 63-29 60-74-43 2-92-5-92 41" id="O"/><path fill="#333" d="M84 4C-5 8 30-112 23-190h32v120c0 31 7 50 39 49 72-2 45-101 50-169h31l1 190h-30c-1-10 1-25-2-33-11 22-28 36-60 37" id="P"/><path fill="#333" d="M106-169C34-169 62-67 57 0H25v-261h32l-1 103c12-21 28-36 61-36 89 0 53 116 60 194h-32v-121c2-32-8-49-39-48" id="Q"/><path fill="#333" d="m205 0-28-72H64L36 0H1l101-248h38L239 0h-34zm-38-99-47-123c-12 45-31 82-46 123h93" id="R"/><path fill="#333" d="M26 75v-336h71v23H56V52h41v23H26" id="S"/><path fill="#333" d="M27 0v-27h64v-190l-56 39v-29l58-41h29v221h61V0H27" id="T"/><path fill="#333" d="M3 75V52h41v-290H3v-23h71V75H3" id="U"/><path fill="#333" d="M135-143c-3-34-86-38-87 0 15 53 115 12 119 90S17 21 10-45l28-5c4 36 97 45 98 0-10-56-113-15-118-90-4-57 82-63 122-42 12 7 21 19 24 35" id="V"/><path fill="#333" d="M210-169c-67 3-38 105-44 169h-31v-121c0-29-5-50-35-48C34-165 62-65 56 0H25l-1-190h30c1 10-1 24 2 32 10-44 99-50 107 0 11-21 27-35 58-36 85-2 47 119 55 194h-31v-121c0-29-5-49-35-48" id="W"/><path fill="#333" d="M179-190 93 31C79 59 56 82 12 73V49c39 6 53-20 64-50L1-190h34L92-34l54-156h33" id="X"/><path fill="#333" d="M33 0v-248h34V0H33" id="Y"/><path fill="#333" d="M190 0 58-211 59 0H30v-248h39L202-35l-2-213h31V0h-41" id="Z"/><path fill="#333" d="M143 4C61 4 22-44 18-125c-5-107 100-154 193-111 17 8 29 25 37 43l-32 9c-13-25-37-40-76-40-61 0-88 39-88 99 0 61 29 100 91 101 35 0 62-11 79-27v-45h-74v-28h105v86C228-13 192 4 143 4" id="aa"/><path fill="#333" d="M33 0v-38h34V0H33" id="ab"/><path fill="#333" d="m80-196 47-18 7 23-49 13 32 44-20 13-27-46-27 45-21-12 33-44-49-13 8-23 47 19-2-53h23" id="ac"/><path fill="#333" d="M30 0v-248h33v221h125V0H30" id="ad"/><path fill="#333" d="M-5 72V49h209v23H-5" id="ae"/><path fill="#333" d="M96-169c-40 0-48 33-48 73s9 75 48 75c24 0 41-14 43-38l32 2c-6 37-31 61-74 61-59 0-76-41-82-99-10-93 101-131 147-64 4 7 5 14 7 22l-32 3c-4-21-16-35-41-35" id="af"/><path fill="#333" d="M145-31C134-9 116 4 85 4 32 4 16-35 15-94c0-59 17-99 70-100 32-1 48 14 60 33 0-11-1-24 2-32h30l-1 268h-32zM93-21c41 0 51-33 51-76s-8-73-50-73c-40 0-46 35-46 75s5 74 45 74" id="ag"/><path fill="#333" d="M85-194c31 0 48 13 60 33l-1-100h32l1 261h-30c-2-10 0-23-3-31C134-8 116 4 85 4 32 4 16-35 15-94c0-66 23-100 70-100zm9 24c-40 0-46 34-46 75 0 40 6 74 45 74 42 0 51-32 51-76 0-42-9-74-50-73" id="ah"/><path fill="#333" d="M115-194c53 0 69 39 70 98 0 66-23 100-70 100C84 3 66-7 56-30L54 0H23l1-261h32v101c10-23 28-34 59-34zm-8 174c40 0 45-34 45-75 0-40-5-75-45-74-42 0-51 32-51 76 0 43 10 73 51 73" id="ai"/><path fill="#333" d="M30-248c118-7 216 8 213 122C240-48 200 0 122 0H30v-248zM63-27c89 8 146-16 146-99s-60-101-146-95v194" id="aj"/><path fill="#333" d="M63-220v92h138v28H63V0H30v-248h175v28H63" id="ak"/><path fill="#333" d="M140-251c81 0 123 46 123 126C263-46 219 4 140 4 59 4 17-45 17-125s42-126 123-126zm0 227c63 0 89-41 89-101s-29-99-89-99c-61 0-89 39-89 99S79-25 140-24" id="al"/><path fill="#333" d="M127-220V0H93v-220H8v-28h204v28h-85" id="am"/><path fill="#333" d="M232-93c-1 65-40 97-104 97C67 4 28-28 28-90v-158h33c8 89-33 224 67 224 102 0 64-133 71-224h33v155" id="an"/><path fill="#333" d="M115-194c55 1 70 41 70 98S169 2 115 4C84 4 66-9 55-30l1 105H24l-1-265h31l2 30c10-21 28-34 59-34zm-8 174c40 0 45-34 45-75s-6-73-45-74c-42 0-51 32-51 76 0 43 10 73 51 73" id="ao"/><path fill="#333" d="M206 0h-36l-40-164L89 0H53L-1-190h32L70-26l43-164h34l41 164 42-164h31" id="ap"/><path fill="#333" d="M101-234c-31-9-42 10-38 44h38v23H63V0H32v-167H5v-23h27c-7-52 17-82 69-68v24" id="aq"/><path d="M27 0v-27h64v-190l-56 39v-29l58-41h29v221h61V0H27" id="ar"/><path d="M33 0v-38h34V0H33" id="as"/><path d="m80-196 47-18 7 23-49 13 32 44-20 13-27-46-27 45-21-12 33-44-49-13 8-23 47 19-2-53h23" id="at"/><path d="M101-251c68 0 85 55 85 127S166 4 100 4C33 4 14-52 14-124c0-73 17-127 87-127zm-1 229c47 0 54-49 54-102s-4-102-53-102c-51 0-55 48-55 102 0 53 5 102 54 102" id="au"/><g id="a"><use transform="rotate(.413) scale(.06173)" xlink:href="#C"/><use transform="translate(14.815) scale(.06173)" xlink:href="#D"/><use transform="translate(27.16) scale(.06173)" xlink:href="#D"/><use transform="translate(39.506) scale(.06173)" xlink:href="#E"/></g><g id="c"><use transform="rotate(.413) scale(.06173)" xlink:href="#F"/><use transform="translate(6.173) scale(.06173)" xlink:href="#G"/><use transform="translate(11.05) scale(.06173)" xlink:href="#F"/><use transform="translate(17.222) scale(.06173)" xlink:href="#H"/><use transform="translate(22.099) scale(.06173)" xlink:href="#I"/><use transform="translate(34.444) scale(.06173)" xlink:href="#J"/><use transform="translate(40.617) scale(.06173)" xlink:href="#K"/><use transform="translate(55.432) scale(.06173)" xlink:href="#F"/><use transform="translate(61.605) scale(.06173)" xlink:href="#L"/><use transform="translate(68.95) scale(.06173)" xlink:href="#G"/><use transform="translate(73.827) scale(.06173)" xlink:href="#M"/><use transform="translate(86.173) scale(.06173)" xlink:href="#N"/></g><g id="d"><use transform="rotate(.413) scale(.06173)" xlink:href="#O"/><use transform="translate(12.346) scale(.06173)" xlink:href="#P"/><use transform="translate(24.691) scale(.06173)" xlink:href="#F"/><use transform="translate(30.864) scale(.06173)" xlink:href="#Q"/><use transform="translate(43.21) scale(.06173)" xlink:href="#D"/><use transform="translate(55.556) scale(.06173)" xlink:href="#L"/><use transform="translate(62.901) scale(.06173)" xlink:href="#J"/><use transform="translate(69.074) scale(.06173)" xlink:href="#R"/><use transform="translate(83.889) scale(.06173)" xlink:href="#P"/><use transform="translate(96.235) scale(.06173)" xlink:href="#F"/><use transform="translate(102.407) scale(.06173)" xlink:href="#Q"/><use transform="translate(114.753) scale(.06173)" xlink:href="#D"/><use transform="translate(127.099) scale(.06173)" xlink:href="#L"/><use transform="translate(134.444) scale(.06173)" xlink:href="#S"/><use transform="translate(140.617) scale(.06173)" xlink:href="#T"/><use transform="translate(152.963) scale(.06173)" xlink:href="#U"/></g><g id="e"><use transform="rotate(.413) scale(.06173)" xlink:href="#V"/><use transform="translate(11.111) scale(.06173)" xlink:href="#P"/><use transform="translate(23.457) scale(.06173)" xlink:href="#W"/><use transform="translate(41.914) scale(.06173)" xlink:href="#W"/><use transform="translate(60.37) scale(.06173)" xlink:href="#O"/><use transform="translate(72.716) scale(.06173)" xlink:href="#L"/><use transform="translate(80.062) scale(.06173)" xlink:href="#X"/><use transform="translate(91.173) scale(.06173)" xlink:href="#J"/><use transform="translate(97.346) scale(.06173)" xlink:href="#K"/><use transform="translate(112.16) scale(.06173)" xlink:href="#F"/><use transform="translate(118.333) scale(.06173)" xlink:href="#L"/><use transform="translate(125.679) scale(.06173)" xlink:href="#G"/><use transform="translate(130.556) scale(.06173)" xlink:href="#M"/><use transform="translate(142.901) scale(.06173)" xlink:href="#N"/></g><g id="f"><use transform="rotate(.413) scale(.06173)" xlink:href="#Y"/><use transform="translate(6.173) scale(.06173)" xlink:href="#K"/><use transform="translate(20.988) scale(.06173)" xlink:href="#C"/><use transform="translate(35.802) scale(.06173)" xlink:href="#Z"/><use transform="translate(51.79) scale(.06173)" xlink:href="#J"/><use transform="translate(57.963) scale(.06173)" xlink:href="#K"/><use transform="translate(72.778) scale(.06173)" xlink:href="#F"/><use transform="translate(78.95) scale(.06173)" xlink:href="#L"/><use transform="translate(86.296) scale(.06173)" xlink:href="#G"/><use transform="translate(91.173) scale(.06173)" xlink:href="#M"/><use transform="translate(103.519) scale(.06173)" xlink:href="#N"/></g><g id="g"><use transform="rotate(.413) scale(.06173)" xlink:href="#N"/><use transform="translate(12.346) scale(.06173)" xlink:href="#I"/><use transform="translate(24.691) scale(.06173)" xlink:href="#M"/><use transform="translate(37.037) scale(.06173)" xlink:href="#L"/><use transform="translate(44.383) scale(.06173)" xlink:href="#I"/><use transform="translate(56.728) scale(.06173)" xlink:href="#J"/><use transform="translate(62.901) scale(.06173)" xlink:href="#aa"/><use transform="translate(80.185) scale(.06173)" xlink:href="#I"/><use transform="translate(92.53) scale(.06173)" xlink:href="#M"/><use transform="translate(104.877) scale(.06173)" xlink:href="#L"/><use transform="translate(112.222) scale(.06173)" xlink:href="#I"/><use transform="translate(124.568) scale(.06173)" xlink:href="#S"/><use transform="translate(130.74) scale(.06173)" xlink:href="#T"/><use transform="translate(143.086) scale(.06173)" xlink:href="#ab"/><use transform="translate(149.26) scale(.06173)" xlink:href="#ab"/><use transform="translate(155.432) scale(.06173)" xlink:href="#ac"/><use transform="translate(164.074) scale(.06173)" xlink:href="#U"/></g><g id="h"><use transform="rotate(.413) scale(.06173)" xlink:href="#H"/><use transform="translate(4.877) scale(.06173)" xlink:href="#O"/><use transform="translate(17.222) scale(.06173)" xlink:href="#M"/><use transform="translate(29.568) scale(.06173)" xlink:href="#N"/><use transform="translate(41.914) scale(.06173)" xlink:href="#P"/><use transform="translate(54.26) scale(.06173)" xlink:href="#O"/><use transform="translate(66.605) scale(.06173)" xlink:href="#N"/><use transform="translate(78.95) scale(.06173)" xlink:href="#I"/><use transform="translate(91.296) scale(.06173)" xlink:href="#J"/><use transform="translate(97.47) scale(.06173)" xlink:href="#ad"/><use transform="translate(109.815) scale(.06173)" xlink:href="#O"/><use transform="translate(122.16) scale(.06173)" xlink:href="#M"/><use transform="translate(134.506) scale(.06173)" xlink:href="#N"/><use transform="translate(146.852) scale(.06173)" xlink:href="#P"/><use transform="translate(159.198) scale(.06173)" xlink:href="#O"/><use transform="translate(171.543) scale(.06173)" xlink:href="#N"/><use transform="translate(183.889) scale(.06173)" xlink:href="#I"/><use transform="translate(196.235) scale(.06173)" xlink:href="#S"/><use transform="translate(202.407) scale(.06173)" xlink:href="#T"/><use transform="translate(214.753) scale(.06173)" xlink:href="#U"/></g><g id="i"><use transform="rotate(.413) scale(.06173)" xlink:href="#ae"/><use transform="translate(12.346) scale(.06173)" xlink:href="#ae"/><use transform="translate(24.691) scale(.06173)" xlink:href="#V"/><use transform="translate(35.802) scale(.06173)" xlink:href="#F"/><use transform="translate(41.975) scale(.06173)" xlink:href="#L"/><use transform="translate(49.321) scale(.06173)" xlink:href="#ae"/><use transform="translate(61.667) scale(.06173)" xlink:href="#ae"/><use transform="translate(74.012) scale(.06173)" xlink:href="#J"/><use transform="translate(80.185) scale(.06173)" xlink:href="#K"/><use transform="translate(95) scale(.06173)" xlink:href="#F"/><use transform="translate(101.173) scale(.06173)" xlink:href="#L"/><use transform="translate(108.519) scale(.06173)" xlink:href="#G"/><use transform="translate(113.395) scale(.06173)" xlink:href="#M"/><use transform="translate(125.74) scale(.06173)" xlink:href="#N"/></g><g id="j"><use transform="rotate(.413) scale(.06173)" xlink:href="#C"/><use transform="translate(14.815) scale(.06173)" xlink:href="#D"/><use transform="translate(27.16) scale(.06173)" xlink:href="#D"/><use transform="translate(39.506) scale(.06173)" xlink:href="#E"/><use transform="translate(50.617) scale(.06173)" xlink:href="#Y"/><use transform="translate(56.79) scale(.06173)" xlink:href="#M"/><use transform="translate(69.136) scale(.06173)" xlink:href="#V"/><use transform="translate(80.247) scale(.06173)" xlink:href="#F"/><use transform="translate(86.42) scale(.06173)" xlink:href="#O"/><use transform="translate(98.765) scale(.06173)" xlink:href="#M"/><use transform="translate(111.111) scale(.06173)" xlink:href="#af"/><use transform="translate(122.222) scale(.06173)" xlink:href="#I"/></g><g id="k"><use transform="rotate(.413) scale(.06173)" xlink:href="#P"/><use transform="translate(12.346) scale(.06173)" xlink:href="#M"/><use transform="translate(24.691) scale(.06173)" xlink:href="#G"/><use transform="translate(29.568) scale(.06173)" xlink:href="#ag"/><use transform="translate(41.914) scale(.06173)" xlink:href="#P"/><use transform="translate(54.26) scale(.06173)" xlink:href="#I"/><use transform="translate(66.605) scale(.06173)" xlink:href="#Y"/><use transform="translate(72.778) scale(.06173)" xlink:href="#ah"/><use transform="translate(85.123) scale(.06173)" xlink:href="#J"/><use transform="translate(91.296) scale(.06173)" xlink:href="#K"/><use transform="translate(106.111) scale(.06173)" xlink:href="#F"/><use transform="translate(112.284) scale(.06173)" xlink:href="#L"/><use transform="translate(119.63) scale(.06173)" xlink:href="#G"/><use transform="translate(124.506) scale(.06173)" xlink:href="#M"/><use transform="translate(136.852) scale(.06173)" xlink:href="#N"/></g><g id="l"><use transform="rotate(.413) scale(.06173)" xlink:href="#ah"/><use transform="translate(12.346) scale(.06173)" xlink:href="#P"/><use transform="translate(24.691) scale(.06173)" xlink:href="#I"/><use transform="translate(37.037) scale(.06173)" xlink:href="#ae"/><use transform="translate(49.383) scale(.06173)" xlink:href="#ai"/><use transform="translate(61.728) scale(.06173)" xlink:href="#O"/><use transform="translate(74.074) scale(.06173)" xlink:href="#af"/><use transform="translate(85.185) scale(.06173)" xlink:href="#E"/><use transform="translate(96.296) scale(.06173)" xlink:href="#J"/><use transform="translate(102.47) scale(.06173)" xlink:href="#aj"/><use transform="translate(118.457) scale(.06173)" xlink:href="#O"/><use transform="translate(130.802) scale(.06173)" xlink:href="#F"/><use transform="translate(136.975) scale(.06173)" xlink:href="#I"/><use transform="translate(149.321) scale(.06173)" xlink:href="#ak"/><use transform="translate(162.84) scale(.06173)" xlink:href="#G"/><use transform="translate(167.716) scale(.06173)" xlink:href="#I"/><use transform="translate(180.062) scale(.06173)" xlink:href="#H"/><use transform="translate(184.938) scale(.06173)" xlink:href="#ah"/></g><g id="m"><use transform="rotate(.413) scale(.06173)" xlink:href="#V"/><use transform="translate(11.111) scale(.06173)" xlink:href="#F"/><use transform="translate(17.284) scale(.06173)" xlink:href="#O"/><use transform="translate(29.63) scale(.06173)" xlink:href="#F"/><use transform="translate(35.802) scale(.06173)" xlink:href="#P"/><use transform="translate(48.148) scale(.06173)" xlink:href="#V"/><use transform="translate(59.26) scale(.06173)" xlink:href="#J"/><use transform="translate(65.432) scale(.06173)" xlink:href="#ad"/><use transform="translate(77.778) scale(.06173)" xlink:href="#al"/><use transform="translate(95.062) scale(.06173)" xlink:href="#R"/><use transform="translate(109.877) scale(.06173)" xlink:href="#Z"/><use transform="translate(125.864) scale(.06173)" xlink:href="#ae"/><use transform="translate(138.21) scale(.06173)" xlink:href="#K"/><use transform="translate(153.025) scale(.06173)" xlink:href="#am"/><use transform="translate(164.877) scale(.06173)" xlink:href="#R"/><use transform="translate(178.025) scale(.06173)" xlink:href="#am"/><use transform="translate(191.543) scale(.06173)" xlink:href="#an"/><use transform="translate(207.53) scale(.06173)" xlink:href="#K"/></g><g id="n"><use transform="rotate(.413) scale(.06173)" xlink:href="#ai"/><use transform="translate(12.346) scale(.06173)" xlink:href="#D"/><use transform="translate(24.691) scale(.06173)" xlink:href="#D"/><use transform="translate(37.037) scale(.06173)" xlink:href="#E"/><use transform="translate(48.148) scale(.06173)" xlink:href="#J"/><use transform="translate(54.321) scale(.06173)" xlink:href="#C"/><use transform="translate(69.136) scale(.06173)" xlink:href="#D"/><use transform="translate(81.481) scale(.06173)" xlink:href="#D"/><use transform="translate(93.827) scale(.06173)" xlink:href="#E"/><use transform="translate(104.938) scale(.06173)" xlink:href="#S"/><use transform="translate(111.111) scale(.06173)" xlink:href="#T"/><use transform="translate(123.457) scale(.06173)" xlink:href="#U"/></g><g id="o"><use transform="rotate(.413) scale(.06173)" xlink:href="#G"/><use transform="translate(4.877) scale(.06173)" xlink:href="#W"/><use transform="translate(23.333) scale(.06173)" xlink:href="#ao"/><use transform="translate(35.679) scale(.06173)" xlink:href="#L"/><use transform="translate(43.025) scale(.06173)" xlink:href="#G"/><use transform="translate(47.901) scale(.06173)" xlink:href="#M"/><use transform="translate(60.247) scale(.06173)" xlink:href="#F"/><use transform="translate(66.42) scale(.06173)" xlink:href="#J"/></g><g id="p"><use transform="rotate(.413) scale(.06173)" xlink:href="#K"/><use transform="translate(14.815) scale(.06173)" xlink:href="#F"/><use transform="translate(20.988) scale(.06173)" xlink:href="#L"/><use transform="translate(28.333) scale(.06173)" xlink:href="#G"/><use transform="translate(33.21) scale(.06173)" xlink:href="#M"/><use transform="translate(45.556) scale(.06173)" xlink:href="#N"/></g><g id="q"><use transform="rotate(.413) scale(.06173)" xlink:href="#ai"/><use transform="translate(12.346) scale(.06173)" xlink:href="#D"/><use transform="translate(24.691) scale(.06173)" xlink:href="#L"/><use transform="translate(32.037) scale(.06173)" xlink:href="#L"/><use transform="translate(39.383) scale(.06173)" xlink:href="#D"/><use transform="translate(51.728) scale(.06173)" xlink:href="#ap"/><use transform="translate(67.716) scale(.06173)" xlink:href="#I"/><use transform="translate(80.062) scale(.06173)" xlink:href="#L"/><use transform="translate(87.407) scale(.06173)" xlink:href="#J"/><use transform="translate(93.58) scale(.06173)" xlink:href="#an"/><use transform="translate(109.568) scale(.06173)" xlink:href="#V"/><use transform="translate(120.679) scale(.06173)" xlink:href="#I"/><use transform="translate(133.025) scale(.06173)" xlink:href="#L"/><use transform="translate(140.37) scale(.06173)" xlink:href="#S"/><use transform="translate(146.543) scale(.06173)" xlink:href="#T"/><use transform="translate(158.889) scale(.06173)" xlink:href="#U"/></g><g id="r"><use transform="rotate(.413) scale(.06173)" xlink:href="#aa"/><use transform="translate(17.284) scale(.06173)" xlink:href="#I"/><use transform="translate(29.63) scale(.06173)" xlink:href="#M"/><use transform="translate(41.975) scale(.06173)" xlink:href="#L"/><use transform="translate(49.321) scale(.06173)" xlink:href="#I"/></g><g id="s"><use transform="rotate(.413) scale(.06173)" xlink:href="#M"/><use transform="translate(12.346) scale(.06173)" xlink:href="#O"/><use transform="translate(24.691) scale(.06173)" xlink:href="#W"/><use transform="translate(43.148) scale(.06173)" xlink:href="#I"/><use transform="translate(55.494) scale(.06173)" xlink:href="#J"/><use transform="translate(61.667) scale(.06173)" xlink:href="#K"/><use transform="translate(76.481) scale(.06173)" xlink:href="#F"/><use transform="translate(82.654) scale(.06173)" xlink:href="#L"/><use transform="translate(90) scale(.06173)" xlink:href="#G"/><use transform="translate(94.877) scale(.06173)" xlink:href="#M"/><use transform="translate(107.222) scale(.06173)" xlink:href="#N"/></g><g id="t"><use transform="rotate(.413) scale(.06173)" xlink:href="#ad"/><use transform="translate(12.346) scale(.06173)" xlink:href="#O"/><use transform="translate(24.691) scale(.06173)" xlink:href="#M"/><use transform="translate(37.037) scale(.06173)" xlink:href="#N"/><use transform="translate(49.383) scale(.06173)" xlink:href="#P"/><use transform="translate(61.728) scale(.06173)" xlink:href="#O"/><use transform="translate(74.074) scale(.06173)" xlink:href="#N"/><use transform="translate(86.42) scale(.06173)" xlink:href="#I"/></g><g id="u"><use transform="rotate(.413) scale(.06173)" xlink:href="#R"/><use transform="translate(14.815) scale(.06173)" xlink:href="#P"/><use transform="translate(27.16) scale(.06173)" xlink:href="#F"/><use transform="translate(33.333) scale(.06173)" xlink:href="#Q"/><use transform="translate(45.679) scale(.06173)" xlink:href="#D"/><use transform="translate(58.025) scale(.06173)" xlink:href="#L"/></g><g id="v"><use transform="rotate(.413) scale(.06173)" xlink:href="#M"/><use transform="translate(12.346) scale(.06173)" xlink:href="#O"/><use transform="translate(24.691) scale(.06173)" xlink:href="#W"/><use transform="translate(43.148) scale(.06173)" xlink:href="#I"/><use transform="translate(55.494) scale(.06173)" xlink:href="#J"/><use transform="translate(61.667) scale(.06173)" xlink:href="#K"/><use transform="translate(76.481) scale(.06173)" xlink:href="#F"/><use transform="translate(82.654) scale(.06173)" xlink:href="#L"/><use transform="translate(90) scale(.06173)" xlink:href="#G"/><use transform="translate(94.877) scale(.06173)" xlink:href="#M"/><use transform="translate(107.222) scale(.06173)" xlink:href="#N"/></g><g id="w"><use transform="rotate(.413) scale(.06173)" xlink:href="#ah"/><use transform="translate(12.346) scale(.06173)" xlink:href="#O"/><use transform="translate(24.691) scale(.06173)" xlink:href="#F"/><use transform="translate(30.864) scale(.06173)" xlink:href="#I"/><use transform="translate(43.21) scale(.06173)" xlink:href="#ae"/><use transform="translate(55.556) scale(.06173)" xlink:href="#D"/><use transform="translate(67.901) scale(.06173)" xlink:href="#aq"/><use transform="translate(74.074) scale(.06173)" xlink:href="#ae"/><use transform="translate(86.42) scale(.06173)" xlink:href="#ai"/><use transform="translate(98.765) scale(.06173)" xlink:href="#G"/><use transform="translate(103.642) scale(.06173)" xlink:href="#L"/><use transform="translate(110.988) scale(.06173)" xlink:href="#F"/><use transform="translate(117.16) scale(.06173)" xlink:href="#Q"/><use transform="translate(129.506) scale(.06173)" xlink:href="#J"/><use transform="translate(135.679) scale(.06173)" xlink:href="#aj"/><use transform="translate(151.667) scale(.06173)" xlink:href="#O"/><use transform="translate(164.012) scale(.06173)" xlink:href="#F"/><use transform="translate(170.185) scale(.06173)" xlink:href="#I"/><use transform="translate(182.53) scale(.06173)" xlink:href="#ak"/><use transform="translate(196.05) scale(.06173)" xlink:href="#G"/><use transform="translate(200.926) scale(.06173)" xlink:href="#I"/><use transform="translate(213.272) scale(.06173)" xlink:href="#H"/><use transform="translate(218.148) scale(.06173)" xlink:href="#ah"/></g><g id="x"><use transform="rotate(.413) scale(.06173)" xlink:href="#ah"/><use transform="translate(12.346) scale(.06173)" xlink:href="#O"/><use transform="translate(24.691) scale(.06173)" xlink:href="#F"/><use transform="translate(30.864) scale(.06173)" xlink:href="#I"/><use transform="translate(43.21) scale(.06173)" xlink:href="#ae"/><use transform="translate(55.556) scale(.06173)" xlink:href="#D"/><use transform="translate(67.901) scale(.06173)" xlink:href="#aq"/><use transform="translate(74.074) scale(.06173)" xlink:href="#ae"/><use transform="translate(86.42) scale(.06173)" xlink:href="#ah"/><use transform="translate(98.765) scale(.06173)" xlink:href="#I"/><use transform="translate(111.111) scale(.06173)" xlink:href="#O"/><use transform="translate(123.457) scale(.06173)" xlink:href="#F"/><use transform="translate(129.63) scale(.06173)" xlink:href="#Q"/><use transform="translate(141.975) scale(.06173)" xlink:href="#J"/><use transform="translate(148.148) scale(.06173)" xlink:href="#ah"/><use transform="translate(160.494) scale(.06173)" xlink:href="#O"/><use transform="translate(172.84) scale(.06173)" xlink:href="#F"/><use transform="translate(179.012) scale(.06173)" xlink:href="#I"/><use transform="translate(191.358) scale(.06173)" xlink:href="#ak"/><use transform="translate(204.877) scale(.06173)" xlink:href="#G"/><use transform="translate(209.753) scale(.06173)" xlink:href="#I"/><use transform="translate(222.099) scale(.06173)" xlink:href="#H"/><use transform="translate(226.975) scale(.06173)" xlink:href="#ah"/></g><g id="y"><use transform="rotate(.413) scale(.06173)" xlink:href="#ai"/><use transform="translate(12.346) scale(.06173)" xlink:href="#D"/><use transform="translate(24.691) scale(.06173)" xlink:href="#D"/><use transform="translate(37.037) scale(.06173)" xlink:href="#E"/><use transform="translate(48.148) scale(.06173)" xlink:href="#V"/><use transform="translate(59.26) scale(.06173)" xlink:href="#J"/><use transform="translate(65.432) scale(.06173)" xlink:href="#C"/><use transform="translate(80.247) scale(.06173)" xlink:href="#D"/><use transform="translate(92.593) scale(.06173)" xlink:href="#D"/><use transform="translate(104.938) scale(.06173)" xlink:href="#E"/><use transform="translate(116.05) scale(.06173)" xlink:href="#S"/><use transform="translate(122.222) scale(.06173)" xlink:href="#T"/><use transform="translate(134.568) scale(.06173)" xlink:href="#ab"/><use transform="translate(140.74) scale(.06173)" xlink:href="#ab"/><use transform="translate(146.914) scale(.06173)" xlink:href="#ac"/><use transform="translate(155.556) scale(.06173)" xlink:href="#U"/></g><g id="z"><use transform="scale(.05)" xlink:href="#ar"/><use transform="translate(10) scale(.05)" xlink:href="#as"/><use transform="translate(15) scale(.05)" xlink:href="#as"/><use transform="translate(20) scale(.05)" xlink:href="#at"/></g><g id="B"><use transform="scale(.05)" xlink:href="#au"/><use transform="translate(10) scale(.05)" xlink:href="#as"/><use transform="translate(15) scale(.05)" xlink:href="#as"/><use transform="translate(20) scale(.05)" xlink:href="#at"/></g><use transform="rotate(.413) scale(.06173)" xlink:href="#av" id="b"/><use transform="scale(.05)" xlink:href="#ar" id="A"/></defs></g></svg>