<svg xmlns="http://www.w3.org/2000/svg" viewBox="0 0 300 200" xml:space="preserve"><style>.st1{fill:none;stroke:#231f20;stroke-miterlimit:10}</style><path d="M115 100c0-25.91 14.08-48.51 35-60.61A69.667 69.667 0 0 0 115 30c-38.66 0-70 31.34-70 70s31.34 70 70 70c12.75 0 24.7-3.43 35-9.39-20.92-12.1-35-34.7-35-60.61zm70-70c-12.75 0-24.7 3.43-35 9.39 20.92 12.1 35 34.71 35 60.61s-14.08 48.51-35 60.61a69.667 69.667 0 0 0 35 9.39c38.66 0 70-31.34 70-70s-31.34-70-70-70z" style="fill:#39cac4"/><circle class="st1" cx="115" cy="100" r="70"/><circle class="st1" cx="185" cy="100" r="70"/><text transform="translate(99.37 50.4)">A</text><text transform="translate(190.014 50.4)">B</text></svg>