<svg xmlns="http://www.w3.org/2000/svg" viewBox="0 0 600 200"><style>@font-face{font-family:&apos;Open Sans Light&apos;;src:url(//mozorg.cdn.mozilla.net/media/fonts/OpenSans-LightItalic-webfont.eot);src:url(//mozorg.cdn.mozilla.net/media/fonts/OpenSans-LightItalic-webfont.eot?#iefix) format(&apos;embedded-opentype&apos;),url(//mozorg.cdn.mozilla.net/media/fonts/OpenSans-LightItalic-webfont.woff) format(&apos;woff&apos;),url(//mozorg.cdn.mozilla.net/media/fonts/OpenSans-LightItalic-webfont.ttf) format(&apos;truetype&apos;),url(//mozorg.cdn.mozilla.net/media/fonts/OpenSans-LightItalic-webfont.svg#OpenSansRegular) format(&apos;svg&apos;);font-weight:400;font-style:italic}@font-face{font-family:&apos;Open Sans&apos;;src:url(//mozorg.cdn.mozilla.net/media/fonts/OpenSans-Regular-webfont.eot);src:url(//mozorg.cdn.mozilla.net/media/fonts/OpenSans-Regular-webfont.eot?#iefix) format(&apos;embedded-opentype&apos;),url(//mozorg.cdn.mozilla.net/media/fonts/OpenSans-Regular-webfont.woff) format(&apos;woff&apos;),url(//mozorg.cdn.mozilla.net/media/fonts/OpenSans-Regular-webfont.ttf) format(&apos;truetype&apos;),url(//mozorg.cdn.mozilla.net/media/fonts/OpenSans-Regular-webfont.svg#OpenSansRegular) format(&apos;svg&apos;);font-weight:400;font-style:normal}.st0{font-family:&apos;Open Sans Light&apos;,sans-serif;font-style:italic}.st1{font-size:14px;text-anchor:middle}.st2{font-family:&apos;Open Sans&apos;,sans-serif}</style><g id="Server"><g id="Hardware_1_"><path id="Container_2_" d="M45 55c16.6 0 30 13.4 30 30s-13.4 30-30 30-30-13.4-30-30 13.4-30 30-30m0-5c-19.3 0-35 15.7-35 35s15.7 35 35 35 35-15.7 35-35-15.7-35-35-35z"/><text x="45" y="90" class="st0 st1">Files</text></g><g id="Software_1_"><path id="Container_3_" d="M125 55c16.6 0 30 13.4 30 30s-13.4 30-30 30-30-13.4-30-30 13.4-30 30-30m0-5c-19.3 0-35 15.7-35 35s15.7 35 35 35 35-15.7 35-35-15.7-35-35-35z"/><text><tspan x="125" y="80" class="st0 st1">HTTP</tspan> <tspan x="125" y="97" class="st0 st1">server</tspan></text></g><path id="Container_1_" d="M85 5c44.1 0 80 35.9 80 80s-35.9 80-80 80S5 129.1 5 85 40.9 5 85 5m0-5C38.1 0 0 38.1 0 85s38.1 85 85 85 85-38.1 85-85S131.9 0 85 0z"/><text x="85" y="195" class="st2 st1">Web server</text></g><g id="Browser"><g id="Computer_2_"><path id="Screen_2_" d="M550 57.6v40h-70v-40h70m0-5h-70c-2.8 0-5 2.2-5 5v40c0 2.8 2.2 5 5 5h70c2.8 0 5-2.2 5-5v-40c0-2.7-2.2-5-5-5z"/><path id="Keyboard_2_" d="M565 110.6H465c-2.8 0-5-2.2-5-5h110c0 2.8-2.2 5-5 5z"/></g><path id="Container_5_" d="M515 5.6c44.1 0 80 35.9 80 80s-35.9 80-80 80-80-35.9-80-80 35.9-80 80-80m0-5c-46.9 0-85 38.1-85 85s38.1 85 85 85 85-38.1 85-85-38.1-85-85-85z"/><text x="515" y="195" class="st2 st1">Browser</text></g><g id="HTTP"><path id="left_arrow" d="M175 54v-6l-10 7.5 10 7.5v-5.9h265V54z"/><path id="right_arrow" d="M425 113v-6l10 7.5-10 7.5v-5.9H160V113z"/><text x="375" y="73" class="st0 st1">HTTP Request</text><text x="227" y="107" class="st0 st1">HTTP Response</text></g></svg>