<svg xmlns="http://www.w3.org/2000/svg" width="1856.693" height="453.543"><defs><marker orient="auto" refY="0" refX="0" id="a" overflow="visible"><path d="M8.719 4.034L-2.207.016 8.719-4.002c-1.746 2.372-1.736 5.618 0 8.036z" transform="matrix(-1.1 0 0 -1.1 -1.1 0)" font-size="12" fill-rule="evenodd" stroke-width=".625" stroke-linejoin="round"/></marker><marker orient="auto" refY="0" refX="0" id="b" overflow="visible"><path d="M8.719 4.034L-2.207.016 8.719-4.002c-1.746 2.372-1.736 5.618 0 8.036z" transform="matrix(-1.1 0 0 -1.1 -1.1 0)" font-size="12" fill-rule="evenodd" stroke-width=".625" stroke-linejoin="round"/></marker></defs><path fill="green" d="M282.342 259.461H434.36V411.48H282.342z"/><text style="line-height:125%;-inkscape-font-specification:Sans" x="278.7" y="571.346" font-size="48" font-weight="400" letter-spacing="0" word-spacing="0" fill="#fff" stroke="#fff" font-family="Bitstream Vera Sans Mono" transform="translate(20.198 -222.097)"><tspan x="278.7" y="571.346" font-size="40">Cache</tspan></text><path fill="green" d="M536.866 259.462h152.018V411.48H536.866z"/><text style="line-height:125%;-inkscape-font-specification:Sans" x="559.704" y="458.484" font-size="48" font-weight="400" letter-spacing="0" word-spacing="0" fill="#fff" stroke="#fff" font-family="Bitstream Vera Sans Mono" transform="translate(-3.442 -106.795)"><tspan x="559.704" y="458.484">Tree</tspan></text><path fill="green" d="M795.74 259.462h152.018V411.48H795.74z"/><text style="text-align:center;line-height:125%;-inkscape-font-specification:Sans" x="843.146" y="460.788" font-size="36" font-weight="400" letter-spacing="0" word-spacing="0" text-anchor="middle" fill="#fff" stroke="#fff" font-family="Bitstream Vera Sans Mono" transform="translate(28.198 -135.433)"><tspan x="843.146" y="460.788">Display</tspan><tspan x="843.146" y="505.788">List</tspan></text><path fill="green" d="M1034.136 259.462h152.018V411.48h-152.018z"/><text style="line-height:125%;-inkscape-font-specification:Sans" x="1010.289" y="578.237" font-size="40" font-weight="400" letter-spacing="0" word-spacing="0" fill="#fff" stroke="#fff" font-family="Bitstream Vera Sans Mono" transform="translate(27.591 -229.006)"><tspan x="1010.289" y="578.237">Pixels</tspan></text><path d="M560.1 109.35c.196 44.523-35.737 80.775-80.26 80.971-44.522.196-80.774-35.737-80.97-80.26-.197-44.522 35.737-80.774 80.26-80.97 44.52-.196 80.772 35.736 80.97 80.258" fill="#00f"/><text style="line-height:125%;-inkscape-font-specification:Sans" x="406.858" y="264.702" font-size="40" font-weight="400" letter-spacing="0" word-spacing="0" fill="#fff" stroke="#fff" font-family="Bitstream Vera Sans Mono" transform="translate(11.913 -141.48)"><tspan x="406.858" y="264.702">Parse</tspan></text><path d="M812.089 109.35c.196 44.523-35.737 80.775-80.26 80.971-44.522.196-80.774-35.737-80.97-80.26-.196-44.522 35.737-80.774 80.26-80.97 44.521-.196 80.773 35.736 80.97 80.258" fill="#00f"/><text style="line-height:125%;-inkscape-font-specification:Sans" x="597.61" y="264.702" font-size="40" font-weight="400" letter-spacing="0" word-spacing="0" fill="#fff" stroke="#fff" font-family="Bitstream Vera Sans Mono" transform="translate(84.245 -141.48)"><tspan x="597.61" y="264.702">Flow</tspan></text><path d="M1064.078 109.35c.197 44.523-35.737 80.775-80.26 80.971-44.522.196-80.773-35.737-80.97-80.26-.196-44.522 35.738-80.774 80.26-80.97 44.522-.196 80.773 35.736 80.97 80.258" fill="#00f"/><text style="line-height:125%;-inkscape-font-specification:Sans" x="821.659" y="251.127" font-size="40" font-weight="400" letter-spacing="0" word-spacing="0" fill="#fff" stroke="#fff" font-family="Bitstream Vera Sans Mono" transform="translate(101.297 -127.66)"><tspan x="821.659" y="251.127">Paint</tspan></text><path d="M197.384 551.853c57.583-2.304 41.46-29.943 41.46-138.199" fill="none" stroke="#000" stroke-width="3.543" marker-end="url(#a)" transform="translate(-6.135 -202.603)"/><path fill="green" d="M27.714 259.462h152.018V411.48H27.714z"/><text y="592.172" x="48.902" style="line-height:125%;-inkscape-font-specification:Sans" font-size="48" font-weight="400" letter-spacing="0" word-spacing="0" fill="#fff" stroke="#fff" font-family="Bitstream Vera Sans Mono" transform="translate(11.591 -240.482)"><tspan y="592.172" x="48.902" font-size="40">URL</tspan></text><path d="M312.11 109.35c.197 44.523-35.737 80.775-80.26 80.971-44.522.196-80.773-35.737-80.97-80.26-.196-44.522 35.737-80.774 80.26-80.97 44.521-.196 80.773 35.736 80.97 80.258" fill="#00f"/><text style="line-height:125%;-inkscape-font-specification:Sans" x="156.101" y="318.83" font-size="40" font-weight="400" letter-spacing="0" word-spacing="0" fill="#fff" stroke="#fff" font-family="Bitstream Vera Sans Mono" transform="translate(14.984 -195.608)"><tspan x="156.101" y="318.83">Fetch</tspan></text><path d="M312.11 109.35c.197 44.523-35.737 80.775-80.26 80.971-44.522.196-80.773-35.737-80.97-80.26-.196-44.522 35.737-80.774 80.26-80.97 44.521-.196 80.773 35.736 80.97 80.258" fill="#00f"/><text y="318.83" x="156.101" style="line-height:125%;-inkscape-font-specification:Sans" font-size="40" font-weight="400" letter-spacing="0" word-spacing="0" fill="#fff" stroke="#fff" font-family="Bitstream Vera Sans Mono" transform="translate(14.984 -195.608)"><tspan y="318.83" x="156.101">Fetch</tspan></text><path d="M332.063 290.743c50.673-4.607 48.37-4.607 46.066 142.805m88.133 118.305c57.582-2.304 41.459-29.943 41.459-138.199m213.601 138.199c57.583-2.304 41.46-29.943 41.46-138.199m206.691 138.199c57.582-2.304 41.459-29.943 41.459-138.199M582.766 290.743c50.673-4.607 48.37-4.607 46.066 142.805M840.13 290.743c50.673-4.607 48.37-4.607 46.066 142.805m218.208-142.805c50.672-4.607 48.37-4.607 46.066 142.805" fill="none" stroke="#000" stroke-width="3.543" marker-end="url(#a)" transform="translate(-6.135 -202.603)"/><path d="M1834.93 351.802c.196 44.523-35.737 80.774-80.26 80.97-44.522.197-80.774-35.736-80.97-80.259-.196-44.522 35.737-80.774 80.26-80.97 44.521-.197 80.773 35.736 80.97 80.257" fill="#00f"/><text style="line-height:125%;-inkscape-font-specification:Sans" x="406.858" y="264.702" font-size="40" font-weight="400" letter-spacing="0" word-spacing="0" fill="#fff" stroke="#fff" font-family="Bitstream Vera Sans Mono" transform="translate(1286.949 100.97)"><tspan x="406.858" y="264.702">Event</tspan></text><path d="M1551.838 99.282c.196 44.523-35.737 80.774-80.26 80.97-44.522.197-80.774-35.736-80.97-80.259-.196-44.522 35.737-80.774 80.26-80.97 44.521-.197 80.773 35.736 80.97 80.257" fill="#00f"/><text style="line-height:125%;-inkscape-font-specification:Sans" x="597.61" y="264.702" font-size="40" font-weight="400" letter-spacing="0" word-spacing="0" fill="#fff" stroke="#fff" font-family="Bitstream Vera Sans Mono" transform="translate(823.994 -151.55)"><tspan x="597.61" y="264.702">Flow</tspan></text><path d="M1834.93 99.282c.196 44.523-35.737 80.774-80.26 80.97-44.522.197-80.774-35.736-80.97-80.259-.196-44.522 35.737-80.774 80.26-80.97 44.521-.197 80.772 35.736 80.97 80.257" fill="#00f"/><text style="line-height:125%;-inkscape-font-specification:Sans" x="821.659" y="251.127" font-size="40" font-weight="400" letter-spacing="0" word-spacing="0" fill="#fff" stroke="#fff" font-family="Bitstream Vera Sans Mono" transform="translate(872.148 -137.73)"><tspan x="821.659" y="251.127">Paint</tspan></text><path d="M1545.935 350.054c.196 44.522-35.737 80.774-80.26 80.97-44.522.197-80.774-35.737-80.97-80.259-.196-44.522 35.737-80.774 80.26-80.97 44.521-.197 80.772 35.735 80.97 80.257" fill="#00f"/><text style="line-height:125%;-inkscape-font-specification:Sans" x="156.101" y="318.83" font-size="40" font-weight="400" letter-spacing="0" word-spacing="0" fill="#fff" stroke="#fff" font-family="Bitstream Vera Sans Mono" transform="translate(1248.809 45.095)"><tspan x="156.101" y="318.83">Fetch</tspan></text><path d="M1557.741 353.55c.197 44.523-35.737 80.774-80.259 80.97-44.522.197-80.774-35.736-80.97-80.259-.197-44.522 35.737-80.774 80.259-80.97 44.522-.197 80.773 35.736 80.97 80.257" fill="#00f"/><text y="318.83" x="156.101" style="line-height:125%;-inkscape-font-specification:Sans" font-size="40" font-weight="400" letter-spacing="0" word-spacing="0" fill="#fff" stroke="#fff" font-family="Bitstream Vera Sans Mono" transform="translate(1248.809 45.095)"><tspan y="318.83" x="156.101">Script</tspan></text><path d="M1587.4 302.303h62.806m2.934 252.395h-62.806m170.054-159.504v62.805m-282.968 2.934v-62.805" fill="none" stroke="#000" stroke-width="3.543" marker-end="url(#b)" transform="translate(-6.135 -202.603)"/><path fill="none" stroke="#000" stroke-width="3.543" d="M1369.818 6.771h480v440h-480zm-1362.942 0h1200v440h-1200z"/></svg>