<svg xmlns="http://www.w3.org/2000/svg" width="1417.323" height="496.063"><defs><marker orient="auto" refY="0" refX="0" id="a" overflow="visible"><path d="M4.616 0l-6.92 4v-8l6.92 4z" fill-rule="evenodd" stroke="#000" stroke-width=".8pt"/></marker><marker orient="auto" refY="0" refX="0" id="b" overflow="visible"><path d="M4.616 0l-6.92 4v-8l6.92 4z" fill-rule="evenodd" stroke="#000" stroke-width=".8pt"/></marker></defs><text style="line-height:125%;-inkscape-font-specification:Sans" x="545.197" y="-7.539" font-size="12" font-weight="400" letter-spacing="0" word-spacing="0" font-family="Bitstream Vera Sans Mono" transform="translate(75.881 30.114)"><tspan x="545.197" y="-7.539">ObjectPrototye</tspan></text><path d="M595.412.641v15.613" fill="none" stroke="#000" stroke-width=".999" marker-end="url(#a)" transform="translate(75.881 30.114)"/><text style="line-height:125%;-inkscape-font-specification:Sans" x="548.417" y="39.485" font-size="12" font-weight="400" letter-spacing="0" word-spacing="0" font-family="Bitstream Vera Sans Mono" transform="translate(75.881 30.114)"><tspan x="548.417" y="39.485">EventPrototye</tspan></text><path d="M645.68 65.823v-7.806l-20 .097V50.21" fill="none" stroke="#00f" stroke-width=".999" marker-end="url(#a)" transform="translate(75.881 30.114)"/><text style="line-height:125%;-inkscape-font-specification:Sans" x="629.173" y="76.72" onclick="location.href='/en-US/docs/Web/API/Event'" font-size="12" font-weight="400" letter-spacing="0" word-spacing="0" font-family="Bitstream Vera Sans Mono" transform="translate(75.881 30.114)"><tspan x="629.173" y="76.72" fill="#00f">Event</tspan></text><path d="M80.707 156.221v-25.443l443.497-.12 827.676.699v21.753" fill="none" stroke="#000"/><path d="M595.412 100.916V50.215" fill="none" stroke="#000" marker-end="url(#b)" transform="translate(75.881 30.114)"/><g onclick="location.href='/en-US/docs/Web/API/CustomEvent'"><text y="223.649" x="-49.04" style="line-height:125%;-inkscape-font-specification:Sans" font-size="12" font-weight="400" letter-spacing="0" word-spacing="0" font-family="Bitstream Vera Sans Mono" transform="translate(57.282 -55.346)"><tspan y="223.649" x="-49.04">CustomEventPrototype</tspan></text><text onclick="location.href='/en-US/docs/Web/API/CustomEvent'" y="249.485" x="-16.599" style="line-height:125%;-inkscape-font-specification:Sans" font-size="12" font-weight="400" letter-spacing="0" word-spacing="0" font-family="Bitstream Vera Sans Mono" transform="translate(57.282 -55.346)"><tspan y="249.485" x="-16.599" fill="#00f">CustomEvent</tspan></text><path d="M22.761 240.142v-7.613" fill="none" stroke="#00f" stroke-width=".999" marker-end="url(#a)" transform="translate(57.282 -55.346)"/></g><g onclick="location.href='/en-US/docs/Web/API/ProgressEvent'"><text y="223.649" x="-49.04" style="line-height:125%;-inkscape-font-specification:Sans" font-size="12" font-weight="400" letter-spacing="0" word-spacing="0" font-family="Bitstream Vera Sans Mono" transform="translate(129.87 12.533)"><tspan y="223.649" x="-49.04">ProgressEventPrototype</tspan></text><text onclick="location.href='/en-US/docs/Web/API/ProgressEvent'" y="245.485" x="-16.599" style="line-height:125%;-inkscape-font-specification:Sans" font-size="12" font-weight="400" letter-spacing="0" word-spacing="0" font-family="Bitstream Vera Sans Mono" transform="translate(129.87 12.533)"><tspan y="245.485" x="-16.599" fill="#00f">ProgressEvent</tspan></text><path d="M30.334 238.142v-7.613" fill="none" stroke="#00f" stroke-width=".999" marker-end="url(#a)" transform="translate(129.87 12.533)"/></g><path d="M160.4 131.848v94.861" fill="none" stroke="#000"/><text y="223.649" x="-49.04" style="line-height:125%;-inkscape-font-specification:Sans" font-size="12" font-weight="400" letter-spacing="0" word-spacing="0" font-family="Bitstream Vera Sans Mono" transform="translate(203.452 96.276)"><tspan y="223.649" x="-49.04">BeforeUnloadEventPrototype</tspan></text><text y="251.485" x="-16.599" style="line-height:125%;-inkscape-font-specification:Sans" font-size="12" font-weight="400" letter-spacing="0" word-spacing="0" font-family="Bitstream Vera Sans Mono" transform="translate(203.452 96.276)"><tspan y="251.485" x="-16.599" fill="#00f">BeforeUnloadEvent</tspan></text><path d="M44.587 240.782v-8.253" fill="none" stroke="#00f" stroke-width=".999" marker-end="url(#a)" transform="translate(203.452 96.276)"/><path d="M248.04 131.04v175.412" fill="none" stroke="#000"/><g onclick="location.href='/en-US/docs/Web/API/StorageEvent'"><text y="223.649" x="-52.93" style="line-height:125%;-inkscape-font-specification:Sans" font-size="12" font-weight="400" letter-spacing="0" word-spacing="0" font-family="Bitstream Vera Sans Mono" transform="translate(1330.562 -55.2)"><tspan y="223.649" x="-52.93">StorageEventPrototype</tspan></text><text onclick="location.href='/en-US/docs/Web/API/StorageEvent'" y="249.485" x="-20.49" style="line-height:125%;-inkscape-font-specification:Sans" font-size="12" font-weight="400" letter-spacing="0" word-spacing="0" font-family="Bitstream Vera Sans Mono" transform="translate(1330.562 -55.2)"><tspan y="249.485" x="-20.49" fill="#00f">StorageEvent</tspan></text><path d="M22.761 240.142v-7.613" fill="none" stroke="#00f" stroke-width=".999" marker-end="url(#a)" transform="translate(1330.562 -55.2)"/></g><text y="223.649" x="-49.04" style="line-height:125%;-inkscape-font-specification:Sans" font-size="12" font-weight="400" letter-spacing="0" word-spacing="0" font-family="Bitstream Vera Sans Mono" transform="translate(424.655 34.935)"><tspan y="223.649" x="-49.04">FocusEventPrototype</tspan></text><text onclick="location.href='/en-US/docs/Web/API/FocusEvent'" y="251.485" x="-16.599" style="line-height:125%;-inkscape-font-specification:Sans" font-size="12" font-weight="400" letter-spacing="0" word-spacing="0" font-family="Bitstream Vera Sans Mono" transform="translate(424.655 34.935)"><tspan y="251.485" x="-16.599" fill="#00f">FocusEvent</tspan></text><path d="M22.761 240.142v-7.613" fill="none" stroke="#00f" stroke-width=".999" marker-end="url(#a)" transform="translate(424.655 34.935)"/><text style="line-height:125%;-inkscape-font-specification:Sans" x="520.612" y="150.32" font-size="12" font-weight="400" letter-spacing="0" word-spacing="0" font-family="Bitstream Vera Sans Mono" transform="translate(75.881 30.114)"><tspan x="520.612" y="150.32">UIEventPrototye</tspan></text><path d="M617.875 176.658v-7.806l-20 .097v-7.904" fill="none" stroke="#00f" stroke-width=".999" marker-end="url(#a)" transform="translate(75.881 30.114)"/><text style="line-height:125%;-inkscape-font-specification:Sans" x="601.368" y="187.555" onclick="location.href='/en-US/docs/Web/API/UIEvent'" font-size="12" font-weight="400" letter-spacing="0" word-spacing="0" font-family="Bitstream Vera Sans Mono" transform="translate(75.881 30.114)"><tspan x="601.368" y="187.555" fill="#00f">UIEvent</tspan></text><text style="line-height:125%;-inkscape-font-specification:Sans" x="616.222" y="284.025" font-size="12" font-weight="400" letter-spacing="0" word-spacing="0" font-family="Bitstream Vera Sans Mono" transform="translate(75.881 30.114)"><tspan x="616.222" y="284.025">MouseEventPrototye</tspan></text><path d="M713.485 310.363v-7.806l-20 .097v-7.903" fill="none" stroke="#00f" stroke-width=".999" marker-end="url(#a)" transform="translate(75.881 30.114)"/><text style="line-height:125%;-inkscape-font-specification:Sans" x="687.982" y="318.398" onclick="location.href='/en-US/docs/Web/API/MouseEvent'" font-size="12" font-weight="400" letter-spacing="0" word-spacing="0" font-family="Bitstream Vera Sans Mono" transform="translate(75.881 30.114)"><tspan x="687.982" y="318.398" fill="#00f">MouseEvent</tspan></text><g onclick="location.href='/en-US/docs/Web/API/WheelEvent'"><text y="231.009" x="-47.404" style="line-height:125%;-inkscape-font-specification:Sans" font-size="12" font-weight="400" letter-spacing="0" word-spacing="0" font-family="Bitstream Vera Sans Mono" transform="translate(658.826 155.477)"><tspan y="231.009" x="-47.404">WheelEventPrototype</tspan></text><text onclick="location.href='/en-US/docs/Web/API/WheelEvent'" y="258.845" x="-14.964" style="line-height:125%;-inkscape-font-specification:Sans" font-size="12" font-weight="400" letter-spacing="0" word-spacing="0" font-family="Bitstream Vera Sans Mono" transform="translate(658.826 155.477)"><tspan y="258.845" x="-14.964" fill="#00f">WheelEvent</tspan></text><path d="M20.553 247.502v-7.613" fill="none" stroke="#00f" stroke-width=".999" marker-end="url(#a)" transform="translate(658.826 155.477)"/></g><text y="223.649" x="-49.04" style="line-height:125%;-inkscape-font-specification:Sans" font-size="12" font-weight="400" letter-spacing="0" word-spacing="0" font-family="Bitstream Vera Sans Mono" transform="translate(812.157 160.793)"><tspan y="223.649" x="-49.04">DragEventPrototype</tspan></text><text onclick="location.href='/en-US/docs/Web/API/DragEvent'" y="251.485" x="-16.599" style="line-height:125%;-inkscape-font-specification:Sans" font-size="12" font-weight="400" letter-spacing="0" word-spacing="0" font-family="Bitstream Vera Sans Mono" transform="translate(812.157 160.793)"><tspan y="251.485" x="-16.599" fill="#00f">DragEvent</tspan></text><path d="M15.806 240.142v-7.613" fill="none" stroke="#00f" stroke-width=".999" marker-end="url(#a)" transform="translate(812.157 160.793)"/><path d="M563.196 195.162v-34.381" fill="none" stroke="#000" marker-end="url(#b)" transform="translate(75.881 30.114)"/><path d="M446.598 243.654v-17.378h387.926v17.378m-302.666-17.378v77.378m220.108-77.378v77.378" fill="none" stroke="#000"/><path d="M676.494 326.673v-34.382" fill="none" stroke="#000" marker-end="url(#b)" transform="translate(75.881 30.114)"/><path d="M679.861 375.416V358.04h147.926v17.377" fill="none" stroke="#000"/><g onclick="location.href='/en-US/docs/Web/API/KeyboardEvent'"><text y="222.832" x="-41.271" style="line-height:125%;-inkscape-font-specification:Sans" font-size="12" font-weight="400" letter-spacing="0" word-spacing="0" font-family="Bitstream Vera Sans Mono" transform="translate(492.372 90.691)"><tspan y="222.832" x="-41.271">KeyboardEventPrototype</tspan></text><text onclick="location.href='/en-US/docs/Web/API/KeyboardEvent'" y="250.667" x="-8.83" style="line-height:125%;-inkscape-font-specification:Sans" font-size="12" font-weight="400" letter-spacing="0" word-spacing="0" font-family="Bitstream Vera Sans Mono" transform="translate(492.372 90.691)"><tspan y="250.667" x="-8.83" fill="#00f">KeyboardEvent</tspan></text><path d="M37.966 239.324v-7.613" fill="none" stroke="#00f" stroke-width=".999" marker-end="url(#a)" transform="translate(492.372 90.691)"/></g><path d="M633.175 226.276v17.378" fill="none" stroke="#000"/><g onclick="location.href='/en-US/docs/Web/API/TouchEvent'"><text y="222.832" x="-41.271" style="line-height:125%;-inkscape-font-specification:Sans" font-size="12" font-weight="400" letter-spacing="0" word-spacing="0" font-family="Bitstream Vera Sans Mono" transform="translate(807.376 33.955)"><tspan y="222.832" x="-41.271">TouchEventPrototype</tspan></text><text onclick="location.href='/en-US/docs/Web/API/TouchEvent'" y="250.667" x="-8.83" style="line-height:125%;-inkscape-font-specification:Sans" font-size="12" font-weight="400" letter-spacing="0" word-spacing="0" font-family="Bitstream Vera Sans Mono" transform="translate(807.376 33.955)"><tspan y="250.667" x="-8.83" fill="#00f">TouchEvent</tspan></text><path d="M26.847 239.324v-7.613" fill="none" stroke="#00f" stroke-width=".999" marker-end="url(#a)" transform="translate(807.376 33.955)"/></g><g onclick="location.href='/en-US/docs/Web/API/CompositionEvent'"><text y="223.649" x="-49.04" style="line-height:125%;-inkscape-font-specification:Sans" font-size="12" font-weight="400" letter-spacing="0" word-spacing="0" font-family="Bitstream Vera Sans Mono" transform="translate(591.983 36)"><tspan y="223.649" x="-49.04">CompositionEventPrototype</tspan></text><text onclick="&quot;location.href='/en-US/docs/Web/API/Event'&quot;" y="251.485" x="-16.599" style="line-height:125%;-inkscape-font-specification:Sans" font-size="12" font-weight="400" letter-spacing="0" word-spacing="0" font-family="Bitstream Vera Sans Mono" transform="translate(591.983 36)"><tspan y="251.485" x="-16.599" fill="#00f">CompositionEvent</tspan></text><path d="M40.75 240.142v-7.613" fill="none" stroke="#00f" stroke-width=".999" marker-end="url(#a)" transform="translate(591.983 36)"/></g><path d="M834.01 226.342h19.626" fill="none" stroke="#000" stroke-dasharray="1,3"/><path d="M647.05 130.659v34.86" fill="none" stroke="#000"/><path d="M1147.43 199.955c-6.329 27.425-19.245-18.498-30.802 7.165-11.558 25.664 31.391 4.899 15.049 27.814-16.342 22.916-10.7-24.455-31.2-5.168-20.498 19.287 27.128 16.539 3.26 31.456-23.867 14.918-.527-26.688-26.847-16.714-26.319 9.975 18.734 25.661-9.026 30.31-27.759 4.648 9.726-24.86-18.407-25.716-28.133-.857 7.488 30.877-19.938 24.548-27.425-6.329 18.499-19.245-7.165-30.802-25.663-11.558-4.898 31.391-27.814 15.049-22.915-16.342 24.455-10.7 5.168-31.2-19.287-20.498-16.539 27.128-31.456 3.26-14.917-23.867 26.689-.527 16.714-26.846-9.974-26.32-25.66 18.733-30.31-9.027-4.647-27.759 24.86 9.726 25.717-18.407.856-28.133-30.877 7.488-24.548-19.937 6.328-27.426 19.244 18.498 30.802-7.165 11.557-25.664-31.392-4.9-15.05-27.815 16.343-22.915 10.701 24.455 31.2 5.168s-27.127-16.539-3.26-31.456c23.868-14.917.528 26.689 26.847 16.714 26.32-9.974-18.733-25.66 9.026-30.31 27.76-4.647-9.726 24.86 18.407 25.717 28.133.856-7.487-30.877 19.938-24.548 27.425 6.328-18.499 19.244 7.165 30.802 25.663 11.557 4.899-31.392 27.814-15.05 22.916 16.343-24.455 10.701-5.168 31.2s16.539-27.127 31.456-3.26c14.918 23.868-26.688.528-16.714 26.847 9.975 26.32 25.661-18.733 30.31 9.026 4.648 27.76-24.86-9.726-25.716 18.407-.857 28.133 30.877-7.487 24.548 19.938z" fill="#ccc" stroke="#00f" stroke-dasharray="1,3"/><text y="-333.19" x="275.671" style="text-align:center;line-height:125%;-inkscape-font-specification:Sans" font-size="72" font-weight="400" letter-spacing="0" word-spacing="0" text-anchor="middle" font-family="Bitstream Vera Sans Mono" transform="rotate(-15.546 2489.089 -2913.652)"><tspan style="text-align:center" y="-333.19" x="275.671" font-size="36">More</tspan><tspan style="text-align:center" y="-288.19" x="275.671" font-size="36">(ToDo)</tspan></text></svg>