<svg xmlns="http://www.w3.org/2000/svg" width="543" height="431" viewBox="153 313 543 431"><defs><marker id="a" stroke-linejoin="miter" stroke-miterlimit="10" color="#000" markerHeight="6" markerUnits="strokeWidth" markerWidth="7" orient="auto" overflow="visible" viewBox="-1 -3 7 6"><path fill="currentColor" stroke="currentColor" d="M4.8 0 0-1.8v3.6z"/></marker><marker id="b" stroke-linejoin="miter" stroke-miterlimit="10" color="#000" markerHeight="6" markerUnits="strokeWidth" markerWidth="6" orient="auto" overflow="visible" viewBox="-5 -3 6 6"><circle cx="-1.8" r="1.8" fill="currentColor" stroke="currentColor"/></marker></defs><g fill="none"><path fill="#ccc" d="M560 640h128v96H560zm-400 0h128v96H160zm336-320h192v64H496zm-336 0h192v64H160zm0 64h528v256H160z"/><path stroke="#000" stroke-linecap="round" stroke-width="2" marker-end="url(#a)" marker-start="url(#b)" d="M160 727.8V332.9m8.2-12.9h170.9m12.9 8.2v42.9m8.2 12.9h122.9m12.9-8.2v-42.9m8.2-12.9h170.9m12.9 8.2v394.9m-8.2 12.9H572.9m-12.9-8.2v-74.9m-8.2-12.9H300.9m-12.9 8.2v74.9m-8.2 12.9H172.9"/><circle cx="416" cy="512" r="4" fill="#000"/><circle cx="416" cy="512" r="4" stroke="#000" stroke-linecap="round" stroke-linejoin="round"/><text fill="#000" transform="translate(429 503.5)"><tspan x="0" y="14" font-family="Verdana" font-size="14" font-weight="400">Origin (0, 0)</tspan></text></g></svg>