<svg xmlns="http://www.w3.org/2000/svg" width="325" height="257.5" viewBox="129.5 102.5 325 257.5"><path fill="#709ED0" stroke="#000" d="M196.167 120.5h196.834v216H196.167z"/><text transform="translate(240.834 147.073)" fill="#231F20" font-family="'ArialMT'" font-size="11">ChannelMergerNode</text><path d="M410.009 235.233l16.84 5.834-16.84 5.5z"/><path fill="none" stroke="#000" stroke-miterlimit="10" d="M341.792 241.32h68.217"/><path d="M341.5 181.5H167.834m173.666 24H167.834m173.666 24H167.834m173.666 22H167.834m173.666 24H167.834m173.666 24H167.834m173.958.484V180.979" fill="none" stroke="#000"/><path pointer-events="none" fill="#FFF" stroke="#000" d="M284.5 173.5h24v16h-24z"/><text transform="translate(294.275 184.5)" font-family="'Helvetica'" font-size="8">L</text><path pointer-events="none" fill="#FFF" stroke="#000" d="M284.5 196.5h24v16h-24z"/><text transform="translate(293.611 207.5)" font-family="'Helvetica'" font-size="8">R</text><path pointer-events="none" fill="#FFF" stroke="#000" d="M284.5 220.5h24v16h-24z"/><text transform="translate(291.607 231.5)" font-family="'Helvetica'" font-size="8">SL</text><path pointer-events="none" fill="#FFF" stroke="#000" d="M284.5 243.5h24v16h-24z"/><text transform="translate(289.943 254.5)" font-family="'Helvetica'" font-size="8">SR</text><path pointer-events="none" fill="#FFF" stroke="#000" d="M284.5 267.5h24v16h-24z"/><text transform="translate(293.611 278.5)" font-family="'Helvetica'" font-size="8">C</text><path pointer-events="none" fill="#FFF" stroke="#000" d="M284.5 291.5h24v16h-24z"/><text transform="translate(289.164 302.5)" font-family="'Helvetica'" font-size="8">LFE</text></svg>