<svg xmlns="http://www.w3.org/2000/svg" width="325" height="257.5" viewBox="129.5 102.5 325 257.5"><path fill="#709ED0" stroke="#000" d="M188.007 119.5h196.834v216H188.007z"/><text transform="translate(231.674 146.073)" fill="#231F20" font-family="'ArialMT'" font-size="11">ChannelSplitterNode</text><path d="M403.34 174.312l16.84 5.834-16.84 5.5zm0 23.521l16.84 5.834-16.84 5.5zm0 25l16.84 5.834-16.84 5.5zm0 21.739l16.84 5.834-16.84 5.5zm0 23.521l16.84 5.834-16.84 5.5zm0 25l16.84 5.834-16.84 5.5z"/><path fill="none" stroke="#000" stroke-miterlimit="10" d="M161.457 240.32h68.217"/><path d="M403.34 180.5H229.674m173.666 24H229.674m173.666 24H229.674m173.666 22H229.674m173.666 24H229.674m173.666 24H229.674m0 .484V179.979" fill="none" stroke="#000"/><path pointer-events="none" fill="#FFF" stroke="#000" d="M276.34 172.5h24v16h-24z"/><text transform="translate(286.115 183.5)" font-family="'Helvetica'" font-size="8">L</text><path pointer-events="none" fill="#FFF" stroke="#000" d="M276.34 195.5h24v16h-24z"/><text transform="translate(285.45 206.5)" font-family="'Helvetica'" font-size="8">R</text><path pointer-events="none" fill="#FFF" stroke="#000" d="M276.34 219.5h24v16h-24z"/><text transform="translate(283.447 230.5)" font-family="'Helvetica'" font-size="8">SL</text><path pointer-events="none" fill="#FFF" stroke="#000" d="M276.34 242.5h24v16h-24z"/><text transform="translate(281.783 253.5)" font-family="'Helvetica'" font-size="8">SR</text><path pointer-events="none" fill="#FFF" stroke="#000" d="M276.34 266.5h24v16h-24z"/><text transform="translate(285.45 277.5)" font-family="'Helvetica'" font-size="8">C</text><path pointer-events="none" fill="#FFF" stroke="#000" d="M276.34 290.5h24v16h-24z"/><text transform="translate(281.004 301.5)" font-family="'Helvetica'" font-size="8">LFE</text></svg>