<svg xmlns="http://www.w3.org/2000/svg" width="692.929" height="206.323"><path fill="none" stroke="#010101" d="M25.556 31.667v59.458"/><path fill="#010101" d="M19.722 32.667l5.834-16.839 5.5 16.839zm210.915 51.914l16.839 5.834-16.839 5.5z"/><path fill="none" stroke="#010101" stroke-miterlimit="10" d="M25.722 53.167h36.667s4.167-14.333 9-11c0 0 2.333.417 7.333 14 0 0 2.917 10.583 8 8.167 0 0 3.333-.417 6.667-14.167 0 0 3.333-11.917 8.5-7.333 0 0 2.667 1.833 6.5 13.333 0 0 4 12 8.5 7.5 0 0 3.333-2.666 6.167-13.5 0 0 3.167-12.667 9-7.667 0 0 2.292.562 5.667 13.5 0 0 4.167 13.083 9.5 7.667 0 0 2.188-1.729 5-13.5 0 0 3.25-12.667 8.5-7.667 0 0 2.938 3.25 6.667 13.667 0 0 5.021 12.333 8.833 7.667 0 0 3.812-4.646 4.667-10.561h30"/><text transform="translate(252.055 94.834)" font-family="'ArialMT'" font-size="14">t</text><text transform="translate(23.222 106.333)"><tspan x="0" y="0" font-family="'ArialMT'" font-size="14">0</tspan><tspan x="7.786" y="0" font-family="'ArialMT'" font-size="14" letter-spacing="24"> </tspan><tspan x="36" y="0" font-family="'ArialMT'" font-size="14">1</tspan><tspan x="43.786" y="0" font-family="'ArialMT'" font-size="14" letter-spacing="24"> </tspan><tspan x="72" y="0" font-family="'ArialMT'" font-size="14">2</tspan><tspan x="79.786" y="0" font-family="'ArialMT'" font-size="14" letter-spacing="24"> </tspan><tspan x="108" y="0" font-family="'ArialMT'" font-size="14">3</tspan><tspan x="115.787" y="0" font-family="'ArialMT'" font-size="14" letter-spacing="24"> </tspan><tspan x="144" y="0" font-family="'ArialMT'" font-size="14">4</tspan></text><path fill="none" stroke="#010101" stroke-miterlimit="10" d="M25.556 90.667h205.081"/><path fill="none" stroke="#010101" d="M431.556 31.667v59.458"/><path fill="#010101" d="M425.722 32.667l5.834-16.839 5.5 16.839zm210.914 51.914l16.84 5.834-16.84 5.5z"/><path fill="none" stroke="#010101" stroke-miterlimit="10" d="M431.722 53.167h36.666s4.167-14.333 9-11c0 0 2.334.417 7.334 14 0 0 2.916 10.583 8 8.167 0 0 3.334-.417 6.666-14.167 0 0 3.334-11.917 8.5-7.333 0 0 2.667 1.833 6.5 13.333 0 0 4 12 8.5 7.5 0 0 3.334-2.666 6.168-13.5 0 0 3.166-12.667 9-7.667 0 0 2.291.562 5.666 13.5 0 0 4.167 13.083 9.5 7.667 0 0 2.188-1.729 5-13.5 0 0 3.25-12.667 8.5-7.667 0 0 2.938 3.25 6.667 13.667 0 0 5.021 12.333 8.833 7.667 0 0 3.812-4.646 4.667-10.561h30"/><text transform="translate(658.055 94.834)" font-family="'ArialMT'" font-size="14">t</text><text transform="translate(429.222 106.333)"><tspan x="0" y="0" font-family="'ArialMT'" font-size="14">0</tspan><tspan x="7.786" y="0" font-family="'ArialMT'" font-size="14" letter-spacing="24"> </tspan><tspan x="36" y="0" font-family="'ArialMT'" font-size="14">1</tspan><tspan x="43.786" y="0" font-family="'ArialMT'" font-size="14" letter-spacing="24"> </tspan><tspan x="72" y="0" font-family="'ArialMT'" font-size="14">2</tspan><tspan x="79.786" y="0" font-family="'ArialMT'" font-size="14" letter-spacing="24"> </tspan><tspan x="108" y="0" font-family="'ArialMT'" font-size="14">3</tspan><tspan x="115.787" y="0" font-family="'ArialMT'" font-size="14" letter-spacing="24"> </tspan><tspan x="144" y="0" font-family="'ArialMT'" font-size="14">4</tspan></text><path fill="none" stroke="#010101" stroke-miterlimit="10" d="M431.556 90.667h205.08"/><path fill="#010101" d="M401.636 47.489l16.84 5.834-16.84 5.5z"/><path fill="none" stroke="#010101" stroke-miterlimit="10" d="M273.555 53.576h128.081"/><path fill="#010101" d="M347.889 148.454l-5.834 16.84-5.5-16.84z"/><path fill="#719FD0" stroke="#010101" d="M299.222 35h86v96.5h-86z"/><text transform="translate(304.223 56.823)" font-family="'ArialMT'" font-size="11">AnalyserNode</text><path fill="none" stroke="#010101" stroke-miterlimit="10" d="M341.803 118v30.454"/><text transform="translate(331.889 106.333)" font-family="'Arial-BoldMT'" font-size="11">FFT</text><path fill="none" stroke="#2C2C76" stroke-miterlimit="10" d="M321.889 86.667h41l-8 29.333h-25.333z"/><g font-family="'ArialMT'" font-size="11"><text transform="translate(484.89 131.5)">unchanged output</text><text transform="translate(302.223 176.167)">frequency data</text></g></svg>