<svg xmlns="http://www.w3.org/2000/svg" width="798.989" height="339.657"><linearGradient id="a" gradientUnits="userSpaceOnUse" x1="350.572" y1="166.922" x2="364.528" y2="101.264"><stop offset="0"/><stop offset=".047" stop-color="#4c4c4e" stop-opacity=".968"/><stop offset=".119" stop-color="#76777a" stop-opacity=".917"/><stop offset=".195" stop-color="#97999c" stop-opacity=".865"/><stop offset=".272" stop-color="#b5b7b9" stop-opacity=".811"/><stop offset=".353" stop-color="#cfd0d2" stop-opacity=".755"/><stop offset=".436" stop-color="#e2e3e4" stop-opacity=".697"/><stop offset=".525" stop-color="#f1f1f2" stop-opacity=".636"/><stop offset=".622" stop-color="#fafafa" stop-opacity=".568"/><stop offset=".742" stop-color="#fff" stop-opacity=".485"/><stop offset="1" stop-color="#828486" stop-opacity="0"/></linearGradient><path fill="url(#a)" stroke="#000" stroke-miterlimit="10" d="M191.465 132h317.667s18.667 4 9 26.333c0 0-15 28-42.667 34 0 0-8-.333-24-4 0 0-249.667-53.666-260-56.333z"/><path fill="none" stroke="#000" stroke-miterlimit="10" d="M191.465 132l363.333 37.828M32.131 206l144.667-66.333M131.131 231l60.334-97.667"/><circle fill="#010101" stroke="#719FD0" cx="192.465" cy="132" r="4.667"/><path fill="none" stroke="#797A7D" stroke-miterlimit="10" d="M31.84 178.292v28m-.542 0h32.666m-32.124 0l19.666-19.959"/><path fill="#010101" d="M136.265 233.093l-13.96 11.078 4.397-17.16zm32.069-96.371l17.678-2.262-12.638 12.414z"/><path fill="#797A7D" d="M28.536 178.292l3.363-9.833 3.246 9.807zm34.916 24.696l9.833 3.364-9.807 3.245zm-14.807-18.467l9.065-5.081-4.126 9.472z"/><path fill="#010101" d="M556.342 163.985l16.157 7.522-17.312 3.753z"/><text transform="translate(25.798 219.5)" fill="#797A7D" font-family="'ArialMT'" font-size="12">0</text><path fill="none" stroke="#719FD0" d="M97.798 88.5l18.5 71.5m365-101l-32.906 82.5m-280.469 42.25L211.298 271m319.183-96.246l14.611 56.468"/><g font-family="'ArialMT'" font-size="12"><text transform="translate(161.298 288.25)">Velocity vector indicating how the source is moving</text><text transform="translate(387.894 50.25)">Cone in which the sound can be listened to</text><text transform="translate(390.894 250.75)">Direction vector indicating where the PannerNode is pointing to</text><text transform="translate(20.145 77)">Positioning vector placing the source in the space</text></g></svg>