<svg xmlns="http://www.w3.org/2000/svg" style="background-color:#fff" width="643" height="143"><path fill="#fff" stroke="#000" pointer-events="none" d="M1.5 1.5h640v140H1.5z"/><text x="41" y="12" text-anchor="middle" font-size="12" font-family="Helvetica" transform="translate(279.5 17.5)">Audio context</text><path d="M149.5 85.5h92.56" fill="none" stroke="#000" stroke-width="8" stroke-miterlimit="10" pointer-events="none"/><path d="M252.56 85.5l-14 7 3.5-7-3.5-7z" stroke="#000" stroke-width="8" stroke-miterlimit="10" pointer-events="none"/><path fill="#fff" stroke="#000" pointer-events="none" d="M29.5 55.5h120v60h-120z"/><text x="18" y="12" text-anchor="middle" font-size="12" font-family="Helvetica" transform="translate(74.5 79.5)">Inputs</text><path fill="#fff" stroke="#000" pointer-events="none" d="M261.5 55.5h120v60h-120z"/><text x="15" y="12" text-anchor="middle" font-size="12" font-family="Helvetica" transform="translate(302.5 79.5)">Effects</text><path fill="#fff" stroke="#000" pointer-events="none" d="M491.5 56.5h120v60h-120z"/><text x="16" y="12" text-anchor="middle" font-size="12" font-family="Helvetica" transform="translate(533.5 80.5)">Destination</text><path d="M381.5 85.5l90.56.82" fill="none" stroke="#000" stroke-width="8" stroke-miterlimit="10" pointer-events="none"/><path d="M482.56 86.42l-14.07 6.87 3.57-6.97-3.44-7.03z" stroke="#000" stroke-width="8" stroke-miterlimit="10" pointer-events="none"/></svg>