<svg xmlns="http://www.w3.org/2000/svg" xml:space="preserve" stroke-linecap="round" stroke-linejoin="round" stroke-miterlimit="10" clip-rule="evenodd" viewBox="0 0 1125.49 595.35">
  <clipPath id="a">
    <path d="M0 0h1125.49v595.35H0z"/>
  </clipPath>
  <g clip-path="url(#a)">
    <path fill="#fff" d="M22.788 14.175H1097.04c12.58 0 22.79 7.1 22.79 15.857v492.761c0 8.758-10.21 15.857-22.79 15.857H22.789C10.203 538.65 0 531.551 0 522.793V30.033c0-8.759 10.203-15.858 22.788-15.858Z"/>
  </g>
  <path fill="#dbdbdb" d="M623.7 108.06v325.607c0 6.494-5.166 11.758-11.539 11.758H39.889c-6.373 0-11.539-5.264-11.539-11.758V108.06"/>
  <path fill="#ddd" d="M39.89 76.875h572.27c6.373 0 11.539 6.75 11.539 15.075V509.4c0 8.326-5.166 15.075-11.539 15.075H39.889c-6.373 0-11.539-6.749-11.539-15.075V91.95c0-8.326 5.166-15.075 11.54-15.075Z"/>
  <path fill="#f5f5f5" d="M609.525 510.3H42.518V105.225h567.007"/>
  <path fill="#fee1e1" d="M650.197 99.225h443.133c6.8 0 12.32 5.517 12.32 12.322v102.931c0 6.805-5.52 12.322-12.32 12.322H650.197c-6.805 0-12.322-5.517-12.322-12.322V111.547c0-6.805 5.517-12.322 12.322-12.322Z"/>
  <path fill="#e94420" d="M42.525 92.468a7.088 7.088 0 1 1 14.175 0 7.088 7.088 0 0 1-14.175 0Z"/>
  <path fill="#ef9f46" d="M68.04 92.468a7.088 7.088 0 1 1 14.175 0 7.088 7.088 0 0 1-14.175 0Z"/>
  <path fill="#68c40c" d="M93.555 92.468a7.087 7.087 0 1 1 14.175 0 7.087 7.087 0 0 1-14.175 0Z"/>
  <path fill="#dafcef" stroke="#000" stroke-linecap="butt" d="M170.1 269.325H567V390.9H170.1V269.325Z"/>
  <path fill="none" stroke="#000" stroke-dasharray="2" stroke-linecap="butt" stroke-width="2" d="M28.35 34.35V62.7"/>
  <path fill="none" stroke="#000" stroke-dasharray="4" stroke-linecap="butt" stroke-width="2" d="M28.35 48.525H623.7m0-14.175V62.7"/>
  <path d="M655.983 36.68h4.592l6.8 20.012 6.752-20.012h4.544v23.67h-3.046V46.38c0-.484.011-1.284.032-2.401.022-1.117.033-2.315.033-3.593l-6.752 19.964h-3.174l-6.8-19.964v.725c0 .58.013 1.463.04 2.65.027 1.187.041 2.06.041 2.619v13.97h-3.062V36.68Zm34.37 6.026c1.224 0 2.411.287 3.561.862 1.149.575 2.025 1.319 2.626 2.232.58.87.967 1.885 1.16 3.045.172.795.258 2.063.258 3.803h-12.649c.054 1.75.468 3.155 1.241 4.213.773 1.059 1.971 1.588 3.593 1.588 1.515 0 2.723-.5 3.626-1.499a5.048 5.048 0 0 0 1.095-2.014h2.853c-.076.634-.325 1.34-.75 2.119-.424.779-.899 1.415-1.426 1.91-.881.859-1.971 1.439-3.271 1.74-.698.171-1.488.257-2.368.257-2.149 0-3.97-.781-5.463-2.344-1.493-1.563-2.24-3.752-2.24-6.566 0-2.772.752-5.022 2.256-6.752 1.504-1.73 3.47-2.594 5.898-2.594Zm4.624 7.638c-.118-1.257-.392-2.262-.822-3.014-.794-1.396-2.121-2.094-3.98-2.094-1.332 0-2.449.48-3.351 1.442-.902.961-1.38 2.183-1.434 3.666h9.587Zm8.379 1.579c0 1.847.392 3.394 1.176 4.64.785 1.246 2.041 1.87 3.771 1.87 1.343 0 2.446-.578 3.311-1.733.865-1.154 1.297-2.811 1.297-4.97 0-2.181-.445-3.795-1.337-4.843-.892-1.047-1.993-1.57-3.303-1.57-1.461 0-2.646.558-3.553 1.675-.908 1.117-1.362 2.76-1.362 4.93Zm4.367-9.137c1.321 0 2.428.28 3.319.838.516.323 1.101.887 1.757 1.692V36.6h2.787v23.75h-2.61v-2.4c-.677 1.063-1.477 1.83-2.401 2.303-.924.473-1.982.71-3.174.71-1.923 0-3.588-.809-4.996-2.426-1.407-1.616-2.11-3.768-2.11-6.453 0-2.514.641-4.692 1.925-6.534 1.284-1.842 3.118-2.764 5.503-2.764Zm12.149.387h2.949V60.35h-2.949V43.173Zm0-6.493h2.949v3.287h-2.949V36.68Zm9.555 19.078c0 .838.307 1.498.919 1.982.612.483 1.337.725 2.175.725a6.613 6.613 0 0 0 2.965-.71c1.611-.783 2.417-2.067 2.417-3.85v-2.337c-.354.226-.811.414-1.37.564a11.79 11.79 0 0 1-1.643.323l-1.757.225c-1.052.14-1.842.36-2.368.66-.892.506-1.338 1.311-1.338 2.418Zm7.026-5.866c.666-.086 1.112-.365 1.337-.837.129-.258.194-.629.194-1.112 0-.988-.352-1.706-1.056-2.151-.703-.446-1.711-.67-3.021-.67-1.515 0-2.589.41-3.223 1.226-.354.45-.585 1.122-.693 2.014h-2.707c.054-2.127.744-3.607 2.071-4.44 1.327-.832 2.865-1.248 4.616-1.248 2.031 0 3.68.386 4.947 1.16 1.257.773 1.885 1.976 1.885 3.61v9.941c0 .3.062.543.186.725.123.183.384.274.781.274.129 0 .274-.008.435-.024a7.02 7.02 0 0 0 .516-.072v2.143a7.998 7.998 0 0 1-1.031.241 7.555 7.555 0 0 1-.967.049c-.999 0-1.724-.355-2.175-1.064-.237-.376-.403-.908-.5-1.595-.591.773-1.439 1.445-2.546 2.014-1.106.57-2.326.854-3.658.854-1.6 0-2.908-.486-3.923-1.458-1.015-.972-1.523-2.189-1.523-3.65 0-1.6.5-2.841 1.499-3.722.999-.88 2.309-1.423 3.931-1.627l4.625-.58Zm20.141 2.063c0 1.493.21 2.745.629 3.754.741 1.794 2.068 2.691 3.98 2.691 2.019 0 3.41-.945 4.173-2.836.419-1.042.629-2.374.629-3.996 0-1.493-.231-2.739-.693-3.738-.784-1.708-2.165-2.562-4.141-2.562-1.257 0-2.334.545-3.231 1.636-.897 1.09-1.346 2.774-1.346 5.051Zm4.287-9.249c1.428 0 2.631.36 3.609 1.08.537.386 1.053.956 1.547 1.708v-2.401h2.755V67.23h-2.916v-8.862c-.484.773-1.152 1.389-2.006 1.845-.854.457-1.921.685-3.199.685-1.837 0-3.48-.72-4.931-2.16-1.45-1.439-2.175-3.63-2.175-6.574 0-2.76.68-5.027 2.038-6.8 1.359-1.772 3.118-2.658 5.278-2.658Zm15.098.387v11.456c0 .881.139 1.6.419 2.16.515 1.03 1.477 1.546 2.884 1.546 2.019 0 3.394-.902 4.125-2.707.397-.967.596-2.293.596-3.98v-8.475h2.901V60.35h-2.74l.032-2.546a5.842 5.842 0 0 1-1.401 1.66c-1.107.902-2.45 1.353-4.029 1.353-2.46 0-4.135-.822-5.027-2.465-.483-.88-.725-2.057-.725-3.529v-11.73h2.965Zm22.639-.387c1.224 0 2.411.287 3.561.862 1.149.575 2.025 1.319 2.626 2.232.58.87.967 1.885 1.161 3.045.171.795.257 2.063.257 3.803h-12.649c.054 1.75.468 3.155 1.241 4.213.774 1.059 1.971 1.588 3.593 1.588 1.515 0 2.724-.5 3.626-1.499a5.05 5.05 0 0 0 1.096-2.014h2.852c-.076.634-.325 1.34-.75 2.119-.424.779-.899 1.415-1.426 1.91-.881.859-1.971 1.439-3.271 1.74-.698.171-1.487.257-2.368.257-2.149 0-3.97-.781-5.463-2.344-1.493-1.563-2.239-3.752-2.239-6.566 0-2.772.752-5.022 2.255-6.752 1.504-1.73 3.47-2.594 5.898-2.594Zm4.624 7.638c-.118-1.257-.392-2.262-.821-3.014-.795-1.396-2.122-2.094-3.98-2.094-1.332 0-2.45.48-3.352 1.442-.902.961-1.38 2.183-1.434 3.666h9.587Zm6.623-7.251h2.755v2.98c.226-.58.779-1.286 1.66-2.118.881-.833 1.896-1.249 3.045-1.249.054 0 .145.005.274.016.129.01.349.032.661.064v3.062a4.327 4.327 0 0 0-.475-.064 6.505 6.505 0 0 0-.476-.017c-1.461 0-2.583.47-3.367 1.41a4.918 4.918 0 0 0-1.177 3.247v9.926h-2.9V43.093Zm21.688 0h3.207a1002.27 1002.27 0 0 0-2.723 7.573 376.57 376.57 0 0 1-2.643 7.25c-1.676 4.405-2.857 7.09-3.545 8.058-.687.966-1.869 1.45-3.545 1.45a6.95 6.95 0 0 1-.942-.049 7.428 7.428 0 0 1-.814-.177v-2.642c.505.14.87.225 1.096.257.225.033.424.049.596.049.537 0 .932-.089 1.184-.266.253-.177.465-.395.637-.653.053-.086.247-.526.58-1.321.333-.795.575-1.386.725-1.773l-6.381-17.756h3.287l4.625 14.05 4.656-14.05Zm22.527-6.8c-1.687 3.276-2.782 5.688-3.287 7.235-.763 2.352-1.144 5.07-1.144 8.153 0 3.115.435 5.962 1.305 8.54.537 1.59 1.595 3.878 3.174 6.864h-1.95c-1.568-2.449-2.54-4.012-2.916-4.689-.376-.676-.784-1.595-1.225-2.755a22.714 22.714 0 0 1-1.257-5.092 21.38 21.38 0 0 1-.177-2.675c0-3.18.5-6.01 1.499-8.491.634-1.58 1.955-3.943 3.964-7.09h2.014Zm4.769 6.8 4.609 14.05 4.818-14.05h3.174l-6.51 17.257h-3.094l-6.364-17.257h3.367Zm15.082.08h2.949V60.35h-2.949V43.173Zm0-6.493h2.949v3.287h-2.949V36.68Zm14.518 6.026c1.225 0 2.412.287 3.561.862 1.15.575 2.025 1.319 2.627 2.232.58.87.967 1.885 1.16 3.045.172.795.258 2.063.258 3.803h-12.649c.054 1.75.467 3.155 1.241 4.213.773 1.059 1.971 1.588 3.593 1.588 1.515 0 2.723-.5 3.625-1.499a5.05 5.05 0 0 0 1.096-2.014h2.852c-.075.634-.325 1.34-.749 2.119-.424.779-.9 1.415-1.426 1.91-.881.859-1.971 1.439-3.271 1.74-.698.171-1.488.257-2.369.257-2.148 0-3.969-.781-5.462-2.344-1.493-1.563-2.24-3.752-2.24-6.566 0-2.772.752-5.022 2.256-6.752 1.504-1.73 3.47-2.594 5.897-2.594Zm4.625 7.638c-.118-1.257-.392-2.262-.822-3.014-.795-1.396-2.121-2.094-3.98-2.094-1.332 0-2.449.48-3.351 1.442-.903.961-1.381 2.183-1.434 3.666h9.587Zm7.879-7.251 3.32 13.6 3.367-13.6h3.255l3.384 13.519 3.529-13.52h2.9l-5.011 17.258h-3.013l-3.513-13.358-3.4 13.358h-3.013l-4.979-17.257h3.174ZM930.731 58.4c1.353 0 2.478-.566 3.375-1.7.897-1.133 1.346-2.828 1.346-5.083 0-1.375-.199-2.557-.596-3.545-.752-1.902-2.127-2.852-4.125-2.852-2.009 0-3.384 1.004-4.125 3.013-.398 1.074-.597 2.438-.597 4.093 0 1.332.199 2.465.597 3.4.752 1.783 2.127 2.674 4.125 2.674Zm-7.509-15.227h2.82v2.288c.58-.784 1.214-1.39 1.901-1.82.978-.645 2.127-.967 3.448-.967 1.955 0 3.615.749 4.979 2.248 1.365 1.498 2.047 3.638 2.047 6.42 0 3.76-.983 6.446-2.949 8.057-1.246 1.02-2.696 1.531-4.351 1.531-1.299 0-2.39-.285-3.271-.854-.515-.322-1.09-.875-1.724-1.66v8.814h-2.9V43.173Zm25.427 15.307c1.922 0 3.241-.727 3.955-2.182.715-1.456 1.072-3.075 1.072-4.859 0-1.611-.258-2.922-.773-3.931-.817-1.59-2.224-2.385-4.222-2.385-1.773 0-3.062.677-3.867 2.03-.806 1.354-1.209 2.987-1.209 4.899 0 1.837.403 3.367 1.209 4.592.805 1.225 2.084 1.837 3.835 1.837Zm.112-15.887c2.224 0 4.104.741 5.64 2.224 1.536 1.482 2.304 3.663 2.304 6.542 0 2.782-.676 5.08-2.03 6.896-1.354 1.816-3.454 2.723-6.3 2.723-2.374 0-4.26-.803-5.656-2.409-1.397-1.605-2.095-3.762-2.095-6.469 0-2.9.736-5.21 2.208-6.929 1.471-1.718 3.448-2.578 5.929-2.578Zm11.473.5h2.755v2.98c.226-.58.779-1.286 1.66-2.118.881-.833 1.896-1.249 3.046-1.249.053 0 .145.005.273.016.129.01.35.032.661.064v3.062a4.327 4.327 0 0 0-.475-.064 6.505 6.505 0 0 0-.476-.017c-1.461 0-2.583.47-3.367 1.41a4.923 4.923 0 0 0-1.177 3.247v9.926h-2.9V43.093Zm11.489-4.818h2.932v4.818h2.756v2.368h-2.756v11.264c0 .601.205 1.004.613 1.208.225.118.601.177 1.128.177a8.684 8.684 0 0 0 1.015-.048v2.288a6.57 6.57 0 0 1-1.039.21c-.36.042-.75.064-1.169.064-1.353 0-2.272-.346-2.755-1.04-.483-.692-.725-1.592-.725-2.698V45.46h-2.337v-2.368h2.337v-4.818Zm19.481 16.661c.086.967.327 1.708.725 2.224.73.934 1.998 1.401 3.803 1.401 1.074 0 2.019-.233 2.836-.7.816-.468 1.224-1.19 1.224-2.168 0-.74-.327-1.305-.983-1.692-.419-.236-1.246-.51-2.481-.821l-2.304-.58c-1.472-.366-2.557-.774-3.255-1.225-1.246-.784-1.869-1.87-1.869-3.255 0-1.633.588-2.954 1.764-3.964 1.176-1.01 2.758-1.514 4.745-1.514 2.6 0 4.474.762 5.621 2.288.72.966 1.07 2.008 1.05 3.126h-2.739a3.36 3.36 0 0 0-.693-1.789c-.666-.763-1.821-1.144-3.464-1.144-1.096 0-1.926.21-2.49.628-.564.42-.846.973-.846 1.66 0 .752.371 1.354 1.112 1.805.43.268 1.064.505 1.902.709l1.917.467c2.084.505 3.481.994 4.191 1.466 1.13.742 1.69 1.907 1.69 3.497 0 1.536-.58 2.863-1.75 3.98-1.163 1.117-2.939 1.676-5.323 1.676-2.568 0-4.386-.583-5.455-1.749-1.069-1.165-1.641-2.607-1.716-4.326h2.788Zm14.776-11.763h2.95V60.35h-2.95V43.173Zm0-6.493h2.95v3.287h-2.95V36.68Zm6.04 21.382 10.23-12.375h-9.47v-2.594h13.37v2.368l-10.16 12.295h10.47v2.594h-14.44v-2.288ZM1037 42.706c1.22 0 2.41.287 3.56.862s2.02 1.319 2.63 2.232c.58.87.96 1.885 1.16 3.045.17.795.25 2.063.25 3.803h-12.65c.06 1.75.47 3.155 1.25 4.213.77 1.059 1.97 1.588 3.59 1.588 1.51 0 2.72-.5 3.62-1.499a5.07 5.07 0 0 0 1.1-2.014h2.85c-.07.634-.32 1.34-.75 2.119-.42.779-.9 1.415-1.42 1.91-.88.859-1.97 1.439-3.27 1.74-.7.171-1.49.257-2.37.257-2.15 0-3.97-.781-5.47-2.344-1.49-1.563-2.24-3.752-2.24-6.566 0-2.772.76-5.022 2.26-6.752 1.5-1.73 3.47-2.594 5.9-2.594Zm4.62 7.638c-.12-1.257-.39-2.262-.82-3.014-.79-1.396-2.12-2.094-3.98-2.094-1.33 0-2.45.48-3.35 1.442-.9.961-1.38 2.183-1.44 3.666h9.59Zm5.56 16.741c1.71-3.33 2.81-5.757 3.3-7.283.76-2.31 1.13-5.017 1.13-8.12 0-3.105-.43-5.947-1.3-8.525-.54-1.59-1.6-3.878-3.18-6.864h1.95c1.66 2.642 2.66 4.273 3.01 4.89.35.618.73 1.47 1.13 2.554.52 1.343.89 2.67 1.11 3.98.22 1.31.33 2.573.33 3.787 0 3.18-.51 6.015-1.52 8.508-.63 1.6-1.95 3.958-3.94 7.073h-2.02Zm-395.317 252.45c2.997 0 5.323.79 6.977 2.369 1.654 1.579 2.573 3.373 2.755 5.382h-3.126c-.354-1.526-1.061-2.734-2.119-3.626-1.058-.892-2.543-1.337-4.455-1.337-2.331 0-4.214.819-5.648 2.457-1.434 1.638-2.151 4.149-2.151 7.533 0 2.771.647 5.019 1.942 6.743 1.294 1.724 3.225 2.586 5.793 2.586 2.363 0 4.162-.907 5.398-2.723.655-.956 1.144-2.213 1.466-3.77h3.126c-.279 2.492-1.203 4.581-2.772 6.268-1.88 2.03-4.415 3.045-7.605 3.045-2.75 0-5.06-.832-6.929-2.497-2.46-2.202-3.69-5.602-3.69-10.2 0-3.491.924-6.354 2.772-8.588 1.998-2.428 4.753-3.642 8.266-3.642Zm20.319 22.446c1.922 0 3.241-.728 3.955-2.183.715-1.456 1.072-3.075 1.072-4.859 0-1.611-.258-2.922-.773-3.931-.817-1.59-2.224-2.385-4.222-2.385-1.773 0-3.062.677-3.867 2.03-.806 1.354-1.209 2.987-1.209 4.899 0 1.837.403 3.367 1.209 4.592.805 1.225 2.084 1.837 3.835 1.837Zm.112-15.888c2.224 0 4.104.741 5.64 2.224 1.536 1.482 2.304 3.663 2.304 6.542 0 2.782-.676 5.081-2.03 6.896-1.354 1.816-3.454 2.723-6.3 2.723-2.374 0-4.26-.803-5.656-2.409-1.397-1.605-2.095-3.762-2.095-6.469 0-2.9.736-5.21 2.208-6.929 1.471-1.718 3.448-2.578 5.929-2.578Zm11.393.5h2.755v2.449c.816-1.01 1.681-1.735 2.594-2.175.913-.441 1.928-.661 3.046-.661 2.449 0 4.103.854 4.962 2.562.473.935.709 2.272.709 4.012v11.07h-2.948v-10.876c0-1.053-.156-1.902-.468-2.546-.515-1.075-1.45-1.612-2.803-1.612-.688 0-1.252.07-1.692.21-.795.236-1.493.709-2.095 1.418-.483.569-.798 1.157-.943 1.764-.145.607-.217 1.475-.217 2.602v9.04h-2.9v-17.257Zm18.933-4.818h2.932v4.818h2.756v2.368h-2.756v11.264c0 .601.204 1.004.613 1.208.225.118.601.177 1.127.177a8.734 8.734 0 0 0 1.016-.048v2.288c-.333.097-.68.167-1.04.209-.36.043-.749.065-1.168.065-1.353 0-2.272-.347-2.755-1.039-.484-.693-.725-1.593-.725-2.699v-11.425h-2.337v-2.368h2.337v-4.818Zm10.812 17.483c0 .838.306 1.498.918 1.982.612.483 1.337.725 2.175.725a6.621 6.621 0 0 0 2.965-.709c1.612-.784 2.417-2.068 2.417-3.851v-2.337c-.354.226-.811.414-1.369.564a11.54 11.54 0 0 1-1.644.322l-1.756.226c-1.053.14-1.843.36-2.369.661-.892.505-1.337 1.31-1.337 2.417Zm7.025-5.866c.666-.085 1.112-.365 1.337-.837.129-.258.194-.629.194-1.112 0-.989-.352-1.706-1.056-2.151-.703-.446-1.71-.669-3.021-.669-1.515 0-2.589.408-3.223 1.225-.354.451-.585 1.122-.692 2.014h-2.707c.053-2.127.743-3.607 2.07-4.439 1.327-.833 2.866-1.249 4.617-1.249 2.03 0 3.679.386 4.946 1.16 1.257.773 1.886 1.976 1.886 3.609v9.942c0 .301.061.543.185.725.123.183.384.274.781.274.129 0 .274-.008.435-.024.162-.016.333-.04.516-.072v2.143a8.173 8.173 0 0 1-1.031.241 7.56 7.56 0 0 1-.967.049c-.999 0-1.724-.355-2.175-1.064-.237-.376-.403-.908-.5-1.595-.591.773-1.439 1.445-2.546 2.014-1.106.569-2.325.854-3.657.854-1.601 0-2.909-.486-3.924-1.458-1.015-.972-1.523-2.189-1.523-3.65 0-1.6.5-2.841 1.499-3.722.999-.881 2.309-1.423 3.932-1.627l4.624-.581Zm9.104-6.719h2.949v17.177h-2.949v-17.177Zm0-6.493h2.949v3.287h-2.949v-3.287Zm7.332 6.413h2.755v2.449c.816-1.01 1.681-1.735 2.594-2.175.913-.441 1.928-.661 3.046-.661 2.449 0 4.103.854 4.962 2.562.473.935.709 2.272.709 4.012v11.07h-2.948v-10.876c0-1.053-.156-1.902-.468-2.546-.515-1.075-1.45-1.612-2.803-1.612-.688 0-1.252.07-1.692.21-.795.236-1.493.709-2.095 1.418-.483.569-.797 1.157-.943 1.764-.145.607-.217 1.475-.217 2.602v9.04h-2.9v-17.257Zm25.539-.387c1.225 0 2.412.287 3.561.862 1.15.575 2.025 1.319 2.627 2.232.58.87.966 1.885 1.16 3.045.172.795.258 2.063.258 3.803h-12.649c.053 1.751.467 3.155 1.24 4.213.774 1.059 1.972 1.588 3.594 1.588 1.514 0 2.723-.5 3.625-1.499a5.046 5.046 0 0 0 1.096-2.014h2.852c-.075.634-.325 1.34-.749 2.119-.425.779-.9 1.415-1.426 1.909-.881.86-1.972 1.44-3.271 1.74-.699.172-1.488.258-2.369.258-2.148 0-3.969-.781-5.462-2.344-1.494-1.563-2.24-3.752-2.24-6.566 0-2.772.752-5.022 2.256-6.752 1.504-1.729 3.469-2.594 5.897-2.594Zm4.625 7.638c-.119-1.257-.392-2.262-.822-3.014-.795-1.396-2.122-2.094-3.98-2.094-1.332 0-2.449.48-3.352 1.442-.902.961-1.38 2.183-1.434 3.666h9.588Zm6.622-7.251h2.756v2.981c.225-.58.778-1.287 1.659-2.119.881-.833 1.896-1.249 3.046-1.249.053 0 .145.005.274.016.128.011.349.032.66.065v3.061a4.202 4.202 0 0 0-.475-.064 6.308 6.308 0 0 0-.475-.017c-1.461 0-2.584.47-3.368 1.41a4.924 4.924 0 0 0-1.176 3.247v9.926h-2.901v-17.257Zm21.946 8.862c0 1.493.21 2.745.629 3.754.741 1.794 2.068 2.691 3.98 2.691 2.019 0 3.411-.945 4.173-2.836.419-1.042.629-2.374.629-3.996 0-1.493-.231-2.739-.693-3.738-.784-1.708-2.165-2.562-4.141-2.562-1.257 0-2.334.545-3.231 1.635-.897 1.091-1.346 2.775-1.346 5.052Zm4.287-9.249c1.428 0 2.631.36 3.609 1.08.537.386 1.053.956 1.547 1.708v-2.401h2.755v24.137h-2.916v-8.862c-.484.774-1.152 1.388-2.006 1.845-.854.457-1.921.685-3.199.685-1.837 0-3.48-.72-4.931-2.159-1.45-1.44-2.175-3.631-2.175-6.575 0-2.76.68-5.027 2.039-6.799 1.358-1.773 3.117-2.659 5.277-2.659Zm15.098.387v11.456c0 .881.139 1.601.419 2.159.515 1.032 1.477 1.547 2.884 1.547 2.02 0 3.395-.902 4.125-2.707.397-.967.596-2.293.596-3.98v-8.475h2.901v17.257h-2.74l.033-2.546a5.864 5.864 0 0 1-1.402 1.66c-1.107.902-2.45 1.353-4.029 1.353-2.46 0-4.135-.821-5.027-2.465-.483-.881-.725-2.057-.725-3.529v-11.73h2.965Zm22.639-.387c1.225 0 2.412.287 3.561.862s2.025 1.319 2.626 2.232c.581.87.967 1.885 1.161 3.045.171.795.257 2.063.257 3.803h-12.649c.054 1.751.468 3.155 1.241 4.213.774 1.059 1.971 1.588 3.593 1.588 1.515 0 2.724-.5 3.626-1.499a5.046 5.046 0 0 0 1.096-2.014h2.852c-.076.634-.325 1.34-.75 2.119-.424.779-.899 1.415-1.426 1.909-.88.86-1.971 1.44-3.271 1.74-.698.172-1.487.258-2.368.258-2.149 0-3.969-.781-5.463-2.344-1.493-1.563-2.239-3.752-2.239-6.566 0-2.772.752-5.022 2.255-6.752 1.504-1.729 3.47-2.594 5.898-2.594Zm4.624 7.638c-.118-1.257-.392-2.262-.821-3.014-.795-1.396-2.122-2.094-3.98-2.094-1.332 0-2.45.48-3.352 1.442-.902.961-1.38 2.183-1.434 3.666h9.587Zm6.623-7.251h2.755v2.981c.226-.58.779-1.287 1.66-2.119.881-.833 1.896-1.249 3.045-1.249.054 0 .145.005.274.016.129.011.349.032.661.065v3.061a4.202 4.202 0 0 0-.475-.064 6.316 6.316 0 0 0-.476-.017c-1.461 0-2.583.47-3.367 1.41a4.92 4.92 0 0 0-1.177 3.247v9.926h-2.9v-17.257Zm21.688 0h3.207c-.408 1.106-1.316 3.631-2.723 7.573a376.074 376.074 0 0 1-2.643 7.251c-1.675 4.404-2.857 7.09-3.545 8.057-.687.966-1.869 1.45-3.545 1.45-.408 0-.722-.016-.942-.049a7.37 7.37 0 0 1-.814-.177v-2.642c.505.139.87.225 1.096.257.225.033.424.049.596.049.537 0 .932-.089 1.184-.266.253-.177.465-.395.637-.653.054-.086.247-.526.58-1.321.333-.795.575-1.386.725-1.772l-6.381-17.757h3.287l4.625 14.05 4.656-14.05Zm22.527-6.8c-1.687 3.276-2.782 5.688-3.287 7.235-.763 2.352-1.144 5.07-1.144 8.153 0 3.115.435 5.962 1.305 8.54.537 1.59 1.595 3.878 3.174 6.864h-1.95c-1.568-2.449-2.54-4.012-2.916-4.689-.376-.676-.784-1.595-1.225-2.755a22.66 22.66 0 0 1-1.434-7.767c0-3.179.5-6.01 1.499-8.491.634-1.579 1.955-3.943 3.964-7.09h2.014Zm10.006 6.3c1.945 0 3.526.473 4.746 1.418 1.219.945 1.952 2.573 2.199 4.882h-2.82c-.172-1.063-.564-1.947-1.176-2.65-.612-.704-1.595-1.056-2.949-1.056-1.847 0-3.169.903-3.964 2.707-.515 1.171-.773 2.616-.773 4.335 0 1.729.365 3.185 1.096 4.367.73 1.181 1.879 1.772 3.448 1.772 1.203 0 2.156-.368 2.86-1.104.704-.736 1.19-1.743 1.458-3.021h2.82c-.322 2.288-1.128 3.961-2.417 5.019-1.289 1.058-2.938 1.588-4.947 1.588-2.256 0-4.055-.825-5.398-2.474-1.342-1.649-2.014-3.709-2.014-6.179 0-3.03.736-5.388 2.208-7.074 1.471-1.687 3.346-2.53 5.623-2.53Zm16.694 15.888c1.922 0 3.241-.728 3.955-2.183.715-1.456 1.072-3.075 1.072-4.859 0-1.611-.258-2.922-.774-3.931-.816-1.59-2.223-2.385-4.221-2.385-1.773 0-3.062.677-3.867 2.03-.806 1.354-1.209 2.987-1.209 4.899 0 1.837.403 3.367 1.209 4.592.805 1.225 2.084 1.837 3.835 1.837Zm.112-15.888c2.224 0 4.104.741 5.64 2.224 1.536 1.482 2.304 3.663 2.304 6.542 0 2.782-.677 5.081-2.03 6.896-1.354 1.816-3.454 2.723-6.3 2.723-2.374 0-4.26-.803-5.656-2.409-1.397-1.605-2.095-3.762-2.095-6.469 0-2.9.736-5.21 2.208-6.929 1.471-1.718 3.448-2.578 5.929-2.578Zm11.392.5h2.756v2.449c.816-1.01 1.681-1.735 2.594-2.175.913-.441 1.928-.661 3.045-.661 2.45 0 4.104.854 4.963 2.562.473.935.709 2.272.709 4.012v11.07h-2.948v-10.876c0-1.053-.156-1.902-.468-2.546-.515-1.075-1.45-1.612-2.803-1.612-.688 0-1.252.07-1.692.21-.795.236-1.493.709-2.095 1.418-.483.569-.798 1.157-.943 1.764-.145.607-.217 1.475-.217 2.602v9.04h-2.901v-17.257Zm18.934-4.818h2.932v4.818h2.756v2.368h-2.756v11.264c0 .601.204 1.004.612 1.208.226.118.602.177 1.128.177a8.734 8.734 0 0 0 1.016-.048v2.288c-.333.097-.68.167-1.04.209-.36.043-.749.065-1.168.065-1.354 0-2.272-.347-2.755-1.039-.484-.693-.725-1.593-.725-2.699v-11.425h-2.337v-2.368h2.337v-4.818Zm10.812 17.483c0 .838.306 1.498.918 1.982.612.483 1.337.725 2.175.725a6.621 6.621 0 0 0 2.965-.709c1.611-.784 2.417-2.068 2.417-3.851v-2.337c-.354.226-.811.414-1.369.564a11.54 11.54 0 0 1-1.644.322l-1.756.226c-1.053.14-1.843.36-2.369.661-.892.505-1.337 1.31-1.337 2.417Zm7.025-5.866c.666-.085 1.112-.365 1.337-.837.129-.258.194-.629.194-1.112 0-.989-.352-1.706-1.056-2.151-.703-.446-1.71-.669-3.021-.669-1.515 0-2.589.408-3.223 1.225-.354.451-.585 1.122-.692 2.014h-2.708c.054-2.127.744-3.607 2.071-4.439 1.327-.833 2.866-1.249 4.616-1.249 2.031 0 3.68.386 4.947 1.16 1.257.773 1.886 1.976 1.886 3.609v9.942c0 .301.061.543.185.725.123.183.384.274.781.274.129 0 .274-.008.435-.024.162-.016.333-.04.516-.072v2.143a8.173 8.173 0 0 1-1.031.241 7.57 7.57 0 0 1-.967.049c-.999 0-1.724-.355-2.175-1.064-.237-.376-.403-.908-.5-1.595-.591.773-1.439 1.445-2.546 2.014-1.106.569-2.325.854-3.657.854-1.601 0-2.909-.486-3.924-1.458-1.015-.972-1.523-2.189-1.523-3.65 0-1.6.5-2.841 1.499-3.722.999-.881 2.309-1.423 3.931-1.627l4.625-.581Zm9.104-6.719h2.949v17.177h-2.949v-17.177Zm0-6.493h2.949v3.287h-2.949v-3.287Zm7.331 6.413h2.756v2.449c.816-1.01 1.681-1.735 2.594-2.175.913-.441 1.928-.661 3.046-.661 2.449 0 4.103.854 4.962 2.562.473.935.709 2.272.709 4.012v11.07h-2.948v-10.876c0-1.053-.156-1.902-.468-2.546-.515-1.075-1.45-1.612-2.803-1.612-.688 0-1.252.07-1.692.21-.795.236-1.493.709-2.095 1.418-.483.569-.798 1.157-.943 1.764-.145.607-.217 1.475-.217 2.602v9.04h-2.901v-17.257Zm25.539-.387c1.23 0 2.41.287 3.56.862s2.03 1.319 2.63 2.232c.58.87.97 1.885 1.16 3.045.17.795.26 2.063.26 3.803h-12.65c.05 1.751.46 3.155 1.24 4.213.77 1.059 1.97 1.588 3.59 1.588 1.52 0 2.72-.5 3.63-1.499.51-.58.88-1.251 1.09-2.014h2.85c-.07.634-.32 1.34-.74 2.119-.43.779-.9 1.415-1.43 1.909-.88.86-1.97 1.44-3.27 1.74-.7.172-1.49.258-2.37.258-2.15 0-3.97-.781-5.46-2.344-1.5-1.563-2.24-3.752-2.24-6.566 0-2.772.75-5.022 2.25-6.752 1.51-1.729 3.47-2.594 5.9-2.594Zm4.63 7.638c-.12-1.257-.4-2.262-.83-3.014-.79-1.396-2.12-2.094-3.98-2.094-1.33 0-2.45.48-3.35 1.442-.9.961-1.38 2.183-1.43 3.666h9.59Zm6.62-7.251h2.75v2.981c.23-.58.78-1.287 1.66-2.119.88-.833 1.9-1.249 3.05-1.249.05 0 .14.005.27.016s.35.032.66.065v3.061a4.217 4.217 0 0 0-.47-.064 6.568 6.568 0 0 0-.48-.017c-1.46 0-2.58.47-3.37 1.41a4.939 4.939 0 0 0-1.17 3.247v9.926h-2.9v-17.257Zm21.8 11.843c.09.967.33 1.708.72 2.224.73.934 2 1.401 3.81 1.401 1.07 0 2.02-.233 2.83-.701.82-.467 1.23-1.189 1.23-2.167 0-.741-.33-1.305-.99-1.692-.41-.236-1.24-.51-2.48-.821l-2.3-.58c-1.47-.366-2.56-.774-3.26-1.225-1.24-.784-1.86-1.869-1.86-3.255 0-1.633.58-2.954 1.76-3.964 1.18-1.01 2.76-1.514 4.74-1.514 2.6 0 4.48.762 5.63 2.288.72.966 1.07 2.008 1.05 3.126h-2.74a3.4 3.4 0 0 0-.7-1.789c-.66-.763-1.82-1.144-3.46-1.144-1.1 0-1.93.209-2.49.628-.56.419-.85.973-.85 1.66 0 .752.37 1.354 1.12 1.805.43.268 1.06.505 1.9.709l1.91.467c2.09.505 3.49.994 4.19 1.466 1.13.742 1.7 1.907 1.7 3.497 0 1.536-.59 2.863-1.75 3.98-1.17 1.117-2.94 1.676-5.33 1.676-2.57 0-4.38-.583-5.45-1.749-1.07-1.165-1.64-2.607-1.72-4.326h2.79Zm14.78-11.763h2.94v17.177h-2.94v-17.177Zm0-6.493h2.94v3.287h-2.94v-3.287Zm6.04 21.382 10.23-12.375h-9.47v-2.594h13.37v2.368l-10.17 12.295h10.48v2.594h-14.44v-2.288Zm24.97-15.356c1.23 0 2.41.287 3.56.862s2.03 1.319 2.63 2.232c.58.87.97 1.885 1.16 3.045.17.795.26 2.063.26 3.803h-12.65c.05 1.751.47 3.155 1.24 4.213.77 1.059 1.97 1.588 3.59 1.588 1.52 0 2.73-.5 3.63-1.499.51-.58.88-1.251 1.1-2.014h2.85c-.08.634-.33 1.34-.75 2.119-.43.779-.9 1.415-1.43 1.909-.88.86-1.97 1.44-3.27 1.74-.7.172-1.49.258-2.37.258-2.15 0-3.97-.781-5.46-2.344-1.49-1.563-2.24-3.752-2.24-6.566 0-2.772.75-5.022 2.26-6.752 1.5-1.729 3.47-2.594 5.89-2.594Zm4.63 7.638c-.12-1.257-.39-2.262-.82-3.014-.8-1.396-2.13-2.094-3.98-2.094-1.34 0-2.45.48-3.36 1.442-.9.961-1.38 2.183-1.43 3.666h9.59Zm5.56 16.741c1.7-3.33 2.81-5.757 3.3-7.283.75-2.309 1.13-5.016 1.13-8.121 0-3.104-.44-5.946-1.31-8.524-.53-1.59-1.59-3.878-3.17-6.864h1.95c1.65 2.642 2.65 4.273 3 4.89.35.618.73 1.469 1.14 2.554.52 1.343.88 2.67 1.1 3.98.22 1.311.33 2.573.33 3.787 0 3.179-.5 6.015-1.51 8.508-.63 1.6-1.95 3.958-3.95 7.073h-2.01Z"/>
  <path fill="none" stroke="#000" stroke-dasharray="4" stroke-linecap="butt" stroke-width="2" d="M170.1 396.9v28.35m0-14.175H567m0-14.175v28.35"/>
  <path d="M665.903 133.481c0-.956-.216-1.705-.648-2.247-.432-.542-1.024-.813-1.777-.813-.754 0-1.344.271-1.771.813-.428.542-.641 1.291-.641 2.247 0 .965.213 1.718.641 2.26.427.541 1.017.812 1.771.812.753 0 1.345-.271 1.777-.812.432-.542.648-1.295.648-2.26Zm2.361 5.205h-2.488v-1.041c-.322.449-.701.777-1.137.984-.436.207-.958.311-1.568.311-1.388 0-2.507-.499-3.357-1.498-.851-.999-1.276-2.319-1.276-3.961 0-1.633.423-2.947 1.269-3.942.847-.994 1.968-1.492 3.364-1.492.601 0 1.13.104 1.587.311.457.208.83.51 1.118.908v-.52c0-1.151-.316-2.04-.946-2.666-.631-.627-1.53-.94-2.698-.94-1.76 0-3.197.775-4.31 2.323-1.113 1.549-1.669 3.564-1.669 6.043 0 2.599.643 4.666 1.929 6.202 1.287 1.536 3.001 2.304 5.142 2.304.677 0 1.333-.099 1.968-.298a6.916 6.916 0 0 0 1.828-.895l1.168 2.234a7.814 7.814 0 0 1-2.241 1.048 9.371 9.371 0 0 1-2.596.349c-2.962 0-5.324-.986-7.084-2.958-1.761-1.972-2.641-4.634-2.641-7.986 0-3.275.792-5.897 2.374-7.864 1.583-1.968 3.678-2.952 6.284-2.952 1.845 0 3.303.557 4.374 1.669 1.071 1.113 1.606 2.631 1.606 4.552v9.775Zm9.699-11.083c.279-.601.635-1.045 1.066-1.333.432-.288.961-.432 1.587-.432 1.228 0 2.076.424 2.546 1.27.47.846.704 2.607.704 5.281v8.011h-3.046v-9.128c0-1.058-.081-1.765-.242-2.12-.16-.356-.452-.533-.876-.533-.423 0-.719.182-.888.546-.17.364-.254 1.066-.254 2.107v9.128h-3.009v-9.128c0-1.041-.085-1.743-.254-2.107-.169-.364-.465-.546-.889-.546-.423 0-.715.177-.876.533-.16.355-.241 1.062-.241 2.12v9.128h-3.047v-14.219h2.704v1.473a2.782 2.782 0 0 1 1.016-1.327 2.66 2.66 0 0 1 1.562-.489c.575 0 1.1.172 1.574.515.474.342.762.759.863 1.25Zm20.884 12.099c-.863.355-1.744.622-2.641.8-.897.177-1.845.266-2.843.266-2.379 0-4.196-.637-5.453-1.91-1.257-1.274-1.885-3.109-1.885-5.504 0-2.319.605-4.151 1.815-5.497s2.861-2.019 4.951-2.019c2.108 0 3.743.625 4.907 1.873 1.164 1.248 1.746 3.007 1.746 5.275v1.511h-9.636c.008 1.117.338 1.951.99 2.501.652.55 1.625.825 2.92.825.855 0 1.697-.123 2.526-.368.83-.246 1.697-.635 2.603-1.168v3.415Zm-3.149-7.998c-.016-.982-.268-1.725-.755-2.228-.487-.504-1.204-.756-2.152-.756-.855 0-1.536.261-2.044.781-.508.521-.808 1.259-.901 2.215l5.852-.012Zm14.854-3.504v-7.554h3.707V140.4h-3.707v-2.107c-.398.821-.912 1.438-1.543 1.853-.63.415-1.373.622-2.228.622-1.625 0-2.886-.652-3.783-1.955-.897-1.303-1.345-3.14-1.345-5.51 0-2.403.454-4.248 1.364-5.535.91-1.286 2.207-1.93 3.891-1.93.762 0 1.446.197 2.051.591.605.393 1.136.984 1.593 1.771Zm-5.18 5.129c0 1.371.229 2.446.686 3.224.457.779 1.087 1.168 1.891 1.168s1.439-.389 1.905-1.168c.465-.778.698-1.853.698-3.224 0-1.371-.233-2.446-.698-3.225-.466-.779-1.101-1.168-1.905-1.168s-1.434.389-1.891 1.168c-.457.779-.686 1.854-.686 3.225Zm13.597-7.148h7.363v11.363h4.621v2.856h-12.974v-2.856h4.634v-8.506h-3.644v-2.857Zm3.644-6.919h3.719v4.342h-3.719v-4.342Zm18.09 14.46c-1.388 0-2.357.178-2.907.533-.55.356-.825.965-.825 1.829 0 .643.19 1.155.571 1.536.381.381.897.571 1.549.571.982 0 1.744-.37 2.285-1.111.542-.74.813-1.775.813-3.104v-.254h-1.486Zm5.18-1.434v8.112h-3.694v-1.587a4.48 4.48 0 0 1-1.727 1.447c-.702.339-1.477.508-2.323.508-1.617 0-2.876-.427-3.777-1.282-.901-.855-1.352-2.048-1.352-3.58 0-1.659.537-2.884 1.612-3.675 1.075-.792 2.738-1.187 4.99-1.187h2.577v-.623c0-.6-.218-1.055-.654-1.364-.436-.309-1.077-.464-1.923-.464-.889 0-1.75.113-2.584.337-.834.224-1.703.582-2.609 1.073v-3.174a12.75 12.75 0 0 1 2.501-.749 14.391 14.391 0 0 1 2.692-.242c2.31 0 3.933.47 4.868 1.41.935.939 1.403 2.619 1.403 5.04Zm28.971-11.642c-1.117 2.023-1.947 3.984-2.489 5.884a20.709 20.709 0 0 0-.812 5.694c0 1.888.271 3.788.812 5.7.542 1.913 1.372 3.885 2.489 5.916h-2.895c-1.346-1.955-2.344-3.884-2.996-5.789a17.867 17.867 0 0 1-.977-5.827c0-1.963.328-3.901.983-5.814.656-1.913 1.653-3.834 2.99-5.764h2.895Zm12.682 6.957c.28-.601.635-1.045 1.067-1.333.431-.288.96-.432 1.587-.432 1.227 0 2.075.424 2.545 1.27.47.846.705 2.607.705 5.281v8.011h-3.047v-9.128c0-1.058-.081-1.765-.241-2.12-.161-.356-.453-.533-.876-.533-.424 0-.72.182-.889.546-.169.364-.254 1.066-.254 2.107v9.128h-3.009v-9.128c0-1.041-.084-1.743-.254-2.107-.169-.364-.465-.546-.888-.546-.424 0-.716.177-.876.533-.161.355-.242 1.062-.242 2.12v9.128h-3.046v-14.219h2.704v1.473a2.774 2.774 0 0 1 1.015-1.327 2.66 2.66 0 0 1 1.562-.489c.575 0 1.1.172 1.574.515.474.342.762.759.863 1.25Zm15.781 6.119c-1.388 0-2.357.178-2.908.533-.55.356-.825.965-.825 1.829 0 .643.191 1.155.571 1.536.381.381.898.571 1.549.571.982 0 1.744-.37 2.285-1.111.542-.74.813-1.775.813-3.104v-.254h-1.485Zm5.179-1.434v8.112h-3.694v-1.587a4.48 4.48 0 0 1-1.727 1.447c-.702.339-1.476.508-2.323.508-1.616 0-2.875-.427-3.777-1.282-.901-.855-1.352-2.048-1.352-3.58 0-1.659.538-2.884 1.613-3.675 1.074-.792 2.738-1.187 4.989-1.187h2.577v-.623c0-.6-.218-1.055-.654-1.364-.436-.309-1.077-.464-1.923-.464-.889 0-1.75.113-2.584.337-.833.224-1.703.582-2.609 1.073v-3.174a12.75 12.75 0 0 1 2.501-.749 14.399 14.399 0 0 1 2.692-.242c2.31 0 3.933.47 4.868 1.41.936.939 1.403 2.619 1.403 5.04Zm16.123-6.107-4.786 6.805 5.205 7.414h-4.342l-2.792-4.786-2.781 4.786h-4.342l5.256-7.414-4.837-6.805h4.342l2.362 4.24 2.374-4.24h4.341Zm2.412 5.028h13.457v3.415h-13.457v-3.415Zm14.359-5.028h3.098l1.688 10.893 1.536-7.173h3.009l1.511 7.173 1.714-10.893h3.097l-2.577 14.219h-3.529l-1.727-7.389-1.714 7.389h-3.529l-2.577-14.219Zm18.459 0h7.363v11.363h4.621v2.856h-12.974v-2.856h4.633v-8.506h-3.643v-2.857Zm3.643-6.919h3.72v4.342h-3.72v-4.342Zm19.246 8.938v-7.554h3.708V140.4h-3.708v-2.107c-.397.821-.911 1.438-1.542 1.853-.631.415-1.373.622-2.228.622-1.625 0-2.886-.652-3.783-1.955-.897-1.303-1.346-3.14-1.346-5.51 0-2.403.455-4.248 1.365-5.535.91-1.286 2.207-1.93 3.891-1.93.762 0 1.445.197 2.05.591.605.393 1.136.984 1.593 1.771Zm-5.179 5.129c0 1.371.228 2.446.685 3.224.457.779 1.088 1.168 1.892 1.168.804 0 1.439-.389 1.904-1.168.466-.778.698-1.853.698-3.224 0-1.371-.232-2.446-.698-3.225-.465-.779-1.1-1.168-1.904-1.168-.804 0-1.435.389-1.892 1.168-.457.779-.685 1.854-.685 3.225Zm19.551-11.185v4.037h4.862v2.857h-4.862v6.728c0 .635.154 1.09.463 1.365.309.275.823.413 1.542.413h2.857v2.856h-3.123c-2.133 0-3.576-.341-4.329-1.022-.754-.681-1.13-1.944-1.13-3.79v-6.55h-3.631v-2.857h3.631v-4.037h3.72Zm20.49 9.027v9.229h-3.695v-8.658c0-1.024-.146-1.756-.438-2.196-.292-.441-.768-.661-1.428-.661-.677 0-1.206.299-1.587.895-.381.597-.571 1.424-.571 2.482v8.138h-3.694v-19.754h3.694v7.668c.262-.787.711-1.396 1.346-1.828.635-.432 1.4-.648 2.298-.648 1.345 0 2.361.447 3.046 1.34.686.893 1.029 2.224 1.029 3.993Zm7.757-4.266h4.24v4.634h-4.24v-4.634Zm0 8.836h4.24v4.659h-4.24v-4.659Zm32.576-3.821h-2.006v-3.301h2.006c.931 0 1.652-.184 2.164-.552.512-.369.768-.887.768-1.556 0-.702-.256-1.25-.768-1.644-.512-.393-1.233-.59-2.164-.59-.711 0-1.473.089-2.285.267a16.93 16.93 0 0 0-2.527.774v-3.402a20.353 20.353 0 0 1 2.577-.603 14.95 14.95 0 0 1 2.438-.21c1.997 0 3.555.436 4.672 1.308 1.117.871 1.676 2.073 1.676 3.605 0 1.126-.322 2.046-.965 2.761-.643.716-1.562 1.183-2.755 1.403 1.354.237 2.387.777 3.098 1.619.71.842 1.066 1.949 1.066 3.32 0 1.836-.588 3.237-1.765 4.202-1.176.965-2.886 1.447-5.129 1.447-.956 0-1.898-.08-2.824-.241a15.895 15.895 0 0 1-2.66-.698v-3.479c.796.398 1.655.701 2.577.908a13.25 13.25 0 0 0 2.907.311c1.016 0 1.82-.235 2.412-.705.593-.469.889-1.102.889-1.898 0-.973-.296-1.724-.889-2.253-.592-.529-1.43-.793-2.513-.793Zm10.245-.978c0-3.284.52-5.745 1.561-7.382 1.041-1.638 2.607-2.457 4.698-2.457 2.099 0 3.669.817 4.71 2.45 1.041 1.634 1.561 4.097 1.561 7.389 0 3.284-.52 5.743-1.561 7.376s-2.611 2.45-4.71 2.45c-2.091 0-3.657-.819-4.698-2.456-1.041-1.638-1.561-4.095-1.561-7.37Zm4.367 5.065c.398 1.058 1.028 1.587 1.892 1.587.871 0 1.506-.529 1.904-1.587.398-1.058.597-2.746.597-5.065 0-.88-.03-1.667-.089-2.361l-4.431 7.058c.042.136.085.258.127.368Zm1.892-11.73c-.864 0-1.494.529-1.892 1.587-.398 1.058-.597 2.751-.597 5.078 0 .719.017 1.375.051 1.968l4.367-6.97-.025-.076c-.398-1.058-1.033-1.587-1.904-1.587Zm21.823 15.425c-.863.355-1.744.622-2.641.8-.897.177-1.845.266-2.843.266-2.379 0-4.196-.637-5.453-1.91-1.257-1.274-1.885-3.109-1.885-5.504 0-2.319.605-4.151 1.815-5.497s2.861-2.019 4.951-2.019c2.108 0 3.743.625 4.907 1.873 1.164 1.248 1.746 3.007 1.746 5.275v1.511h-9.636c.008 1.117.338 1.951.99 2.501.652.55 1.625.825 2.92.825.855 0 1.697-.123 2.526-.368.83-.246 1.697-.635 2.603-1.168v3.415Zm-3.148-7.998c-.017-.982-.269-1.725-.756-2.228-.487-.504-1.204-.756-2.152-.756-.855 0-1.536.261-2.044.781-.507.521-.808 1.259-.901 2.215l5.853-.012Zm13.568-4.101c.28-.601.64-1.045 1.07-1.333.43-.288.96-.432 1.59-.432 1.22 0 2.07.424 2.54 1.27.47.846.71 2.607.71 5.281v8.011h-3.05v-9.128c0-1.058-.08-1.765-.24-2.12-.16-.356-.45-.533-.88-.533-.42 0-.72.182-.89.546-.17.364-.25 1.066-.25 2.107v9.128h-3.01v-9.128c0-1.041-.08-1.743-.25-2.107-.17-.364-.47-.546-.89-.546-.43 0-.72.177-.88.533-.16.355-.24 1.062-.24 2.12v9.128h-3.046v-14.219h2.706v1.473a2.79 2.79 0 0 1 1.01-1.327c.47-.326.99-.489 1.57-.489.57 0 1.1.172 1.57.515.47.342.76.759.86 1.25Zm10.82-6.957h2.89c1.34 1.93 2.34 3.851 2.99 5.764.66 1.913.99 3.851.99 5.814 0 1.981-.33 3.923-.98 5.827-.65 1.905-1.65 3.834-3 5.789h-2.89c1.12-2.031 1.95-4.003 2.49-5.916.54-1.912.81-3.812.81-5.7 0-1.896-.27-3.794-.81-5.694s-1.37-3.861-2.49-5.884Zm25.1 21.569v2.425h-1.91c-2.1 0-3.52-.313-4.23-.939-.72-.627-1.07-1.875-1.07-3.745v-2.73c0-1.278-.23-2.16-.68-2.647-.46-.486-1.27-.73-2.46-.73h-.79v-2.425h.79c1.19 0 2-.241 2.46-.723.45-.483.68-1.367.68-2.654v-2.729c0-1.87.35-3.117 1.07-3.739.71-.622 2.13-.933 4.23-.933h1.91v2.412h-1.56c-.88 0-1.47.178-1.77.533-.29.356-.44 1.139-.44 2.349v2.653c0 1.397-.21 2.379-.62 2.946-.42.567-1.16.931-2.23 1.091 1.07.178 1.81.555 2.23 1.13.41.576.62 1.558.62 2.946v2.602c0 1.219.15 2.008.44 2.368.3.36.89.539 1.77.539h1.56Zm-346.33 15.231h2.805l-9.978 21.366h-2.806l9.979-21.366Zm19.157 4.519-5.243 2.831 5.256 2.857-1.118 1.93-4.963-2.996v5.547h-2.247v-5.535c-.805.483-1.634.982-2.489 1.498-.855.517-1.68 1.012-2.475 1.486l-1.105-1.93 5.269-2.857-5.256-2.831 1.092-1.942 4.964 2.983v-5.535h2.247v5.535c.812-.482 1.644-.981 2.494-1.498.851-.516 1.674-1.011 2.469-1.485l1.105 1.942Zm28.971.661v3.25a8.487 8.487 0 0 0-2.14-.997 7.656 7.656 0 0 0-2.228-.336c-.829 0-1.455.12-1.878.361-.424.242-.635.599-.635 1.073 0 .677.905 1.227 2.717 1.651l.139.038 1.067.254c1.354.321 2.346.84 2.977 1.555.63.715.946 1.682.946 2.901 0 1.464-.481 2.562-1.441 3.294-.961.732-2.406 1.098-4.336 1.098-.855 0-1.731-.074-2.628-.222a18.974 18.974 0 0 1-2.729-.667v-3.25a11.59 11.59 0 0 0 2.507 1.067 8.911 8.911 0 0 0 2.469.368c.872 0 1.532-.127 1.981-.381.448-.254.673-.622.673-1.104 0-.474-.159-.838-.476-1.092-.318-.254-1.073-.525-2.267-.813l-1.028-.228c-1.422-.322-2.459-.825-3.11-1.511-.652-.685-.978-1.604-.978-2.755 0-1.371.495-2.437 1.486-3.199.99-.762 2.382-1.143 4.176-1.143.804 0 1.606.066 2.406.197s1.576.328 2.33.591Zm11.832-4.482v4.037h4.862v2.857h-4.862v6.728c0 .635.154 1.09.463 1.365.309.275.823.413 1.543.413h2.856v2.856h-3.123c-2.133 0-3.576-.341-4.329-1.022-.753-.681-1.13-1.944-1.13-3.79v-6.55h-3.631v-2.857h3.631v-4.037h3.72Zm15.92 19.792c-.5 1.337-1.099 2.313-1.797 2.926-.698.614-1.546.921-2.545.921h-3.072v-2.831h1.51c.762 0 1.321-.129 1.676-.387.356-.259.715-.857 1.079-1.797l.279-.762-5.408-13.825h3.91l3.25 9.23 3.111-9.23h3.91l-5.903 15.755Zm11.54-7.465v-10.968h-3.771v-2.857h7.49v13.825c0 1.117.174 1.909.521 2.374.347.466.935.699 1.765.699h2.97v2.856h-4.011c-1.769 0-3.039-.457-3.809-1.371-.77-.914-1.155-2.433-1.155-4.558Zm24.73 5.231a14.17 14.17 0 0 1-2.641.8c-.897.177-1.845.266-2.843.266-2.379 0-4.196-.637-5.453-1.91-1.257-1.274-1.885-3.109-1.885-5.504 0-2.319.605-4.151 1.815-5.497 1.211-1.346 2.861-2.019 4.951-2.019 2.108 0 3.743.625 4.907 1.873 1.164 1.248 1.746 3.007 1.746 5.275v1.511h-9.636c.009 1.117.339 1.951.99 2.501.652.55 1.625.825 2.92.825a8.88 8.88 0 0 0 2.527-.368c.829-.246 1.697-.635 2.602-1.168v3.415Zm-3.148-7.998c-.017-.982-.269-1.725-.756-2.228-.486-.504-1.204-.756-2.152-.756-.854 0-1.536.261-2.043.781-.508.521-.809 1.259-.902 2.215l5.853-.012Zm17.392-5.078v3.25a8.465 8.465 0 0 0-2.139-.997 7.656 7.656 0 0 0-2.228-.336c-.829 0-1.456.12-1.879.361-.423.242-.635.599-.635 1.073 0 .677.906 1.227 2.717 1.651l.14.038 1.066.254c1.354.321 2.347.84 2.977 1.555.631.715.946 1.682.946 2.901 0 1.464-.48 2.562-1.441 3.294-.96.732-2.406 1.098-4.335 1.098-.855 0-1.731-.074-2.628-.222a19.02 19.02 0 0 1-2.73-.667v-3.25c.821.466 1.657.821 2.508 1.067a8.9 8.9 0 0 0 2.469.368c.872 0 1.532-.127 1.98-.381.449-.254.673-.622.673-1.104 0-.474-.158-.838-.476-1.092-.317-.254-1.073-.525-2.266-.813l-1.028-.228c-1.422-.322-2.459-.825-3.111-1.511-.651-.685-.977-1.604-.977-2.755 0-1.371.495-2.437 1.485-3.199.99-.762 2.383-1.143 4.177-1.143.804 0 1.606.066 2.406.197.799.131 1.576.328 2.329.591Zm16.669 4.545v9.229h-3.694v-8.658c0-1.024-.146-1.756-.438-2.196-.292-.441-.768-.661-1.428-.661-.677 0-1.206.299-1.587.895-.381.597-.572 1.424-.572 2.482v8.138h-3.694v-19.754h3.694v7.668c.263-.787.711-1.396 1.346-1.828.635-.432 1.401-.648 2.298-.648 1.346 0 2.361.447 3.047 1.34.685.893 1.028 2.224 1.028 3.993Zm16.047 8.531a14.17 14.17 0 0 1-2.641.8c-.897.177-1.845.266-2.843.266-2.379 0-4.196-.637-5.453-1.91-1.257-1.274-1.885-3.109-1.885-5.504 0-2.319.605-4.151 1.815-5.497 1.211-1.346 2.861-2.019 4.951-2.019 2.108 0 3.743.625 4.907 1.873 1.164 1.248 1.746 3.007 1.746 5.275v1.511h-9.636c.008 1.117.339 1.951.99 2.501.652.55 1.625.825 2.92.825a8.88 8.88 0 0 0 2.527-.368c.829-.246 1.696-.635 2.602-1.168v3.415Zm-3.148-7.998c-.017-.982-.269-1.725-.756-2.228-.486-.504-1.204-.756-2.152-.756-.854 0-1.536.261-2.044.781-.507.521-.808 1.259-.901 2.215l5.853-.012Zm18.801 7.998c-.863.355-1.743.622-2.64.8a14.67 14.67 0 0 1-2.844.266c-2.378 0-4.196-.637-5.453-1.91-1.256-1.274-1.885-3.109-1.885-5.504 0-2.319.605-4.151 1.816-5.497 1.21-1.346 2.86-2.019 4.951-2.019 2.107 0 3.743.625 4.906 1.873 1.164 1.248 1.746 3.007 1.746 5.275v1.511h-9.636c.009 1.117.339 1.951.991 2.501.651.55 1.625.825 2.919.825a8.88 8.88 0 0 0 2.527-.368c.829-.246 1.697-.635 2.602-1.168v3.415Zm-3.148-7.998c-.017-.982-.269-1.725-.755-2.228-.487-.504-1.204-.756-2.152-.756-.855 0-1.536.261-2.044.781-.508.521-.808 1.259-.902 2.215l5.853-.012Zm13.571-9.56v4.037h4.863v2.857h-4.863v6.728c0 .635.155 1.09.464 1.365.309.275.823.413 1.542.413h2.857v2.856h-3.123c-2.133 0-3.576-.341-4.33-1.022-.753-.681-1.129-1.944-1.129-3.79v-6.55h-3.631v-2.857h3.631v-4.037h3.719Zm37.464 3.821-5.243 2.831 5.256 2.857-1.117 1.93-4.964-2.996v5.547h-2.247v-5.535c-.804.483-1.634.982-2.489 1.498a427.53 427.53 0 0 1-2.475 1.486l-1.105-1.93 5.269-2.857-5.256-2.831 1.092-1.942 4.964 2.983v-5.535h2.247v5.535c.812-.482 1.644-.981 2.494-1.498.851-.516 1.674-1.011 2.47-1.485l1.104 1.942Zm12.15-4.519h2.805l-9.978 21.366h-2.806l9.979-21.366Zm-275.235 56.769h1.536c.88 0 1.473-.182 1.778-.545.304-.364.457-1.152.457-2.362v-2.602c0-1.388.207-2.37.622-2.946.414-.575 1.151-.952 2.209-1.13-1.067-.16-1.805-.524-2.216-1.091-.41-.567-.615-1.549-.615-2.946v-2.653c0-1.193-.151-1.972-.451-2.336-.3-.364-.895-.546-1.784-.546h-1.536v-2.412h1.904c2.099 0 3.502.311 4.209.933.707.622 1.06 1.869 1.06 3.739v2.729c0 1.278.231 2.161.692 2.647.461.487 1.288.73 2.482.73h.787v2.425h-.787c-1.194 0-2.021.246-2.482.737-.461.49-.692 1.371-.692 2.64v2.73c0 1.87-.353 3.118-1.06 3.745-.707.626-2.11.939-4.209.939h-1.904v-2.425Z"/>
  <path fill="#dafcef" d="M649.694 354.375h444.136c6.53 0 11.82 5.292 11.82 11.819v103.937c0 6.527-5.29 11.819-11.82 11.819H649.694c-6.527 0-11.819-5.292-11.819-11.819V366.194c0-6.527 5.292-11.819 11.819-11.819Z"/>
  <path d="M670.833 392.989c0-.956-.216-1.705-.647-2.247-.432-.541-1.025-.812-1.778-.812-.753 0-1.343.271-1.771.812-.427.542-.641 1.291-.641 2.247 0 .965.214 1.718.641 2.26.428.542 1.018.813 1.771.813.753 0 1.346-.271 1.778-.813.431-.542.647-1.295.647-2.26Zm2.361 5.205h-2.488v-1.041c-.322.449-.7.777-1.136.984-.436.208-.959.311-1.568.311-1.388 0-2.507-.499-3.358-1.498s-1.276-2.319-1.276-3.961c0-1.633.423-2.947 1.27-3.942.846-.994 1.967-1.491 3.364-1.491.601 0 1.13.103 1.587.311.457.207.829.51 1.117.907v-.52c0-1.151-.315-2.04-.946-2.666-.63-.626-1.53-.94-2.698-.94-1.76 0-3.197.775-4.31 2.324-1.113 1.548-1.669 3.563-1.669 6.043 0 2.598.643 4.665 1.93 6.201 1.286 1.536 3 2.304 5.141 2.304.677 0 1.333-.099 1.968-.298a6.9 6.9 0 0 0 1.828-.895l1.168 2.235a7.813 7.813 0 0 1-2.241 1.047 9.329 9.329 0 0 1-2.596.349c-2.962 0-5.323-.986-7.084-2.958-1.76-1.972-2.64-4.634-2.64-7.985 0-3.276.791-5.897 2.374-7.865 1.582-1.968 3.677-2.952 6.284-2.952 1.845 0 3.303.557 4.373 1.67 1.071 1.113 1.606 2.63 1.606 4.551v9.775Zm14.409.991a7.836 7.836 0 0 1-2.018.818 9.449 9.449 0 0 1-2.323.273c-2.192 0-3.906-.66-5.142-1.98-1.236-1.32-1.853-3.149-1.853-5.484 0-2.345.622-4.179 1.866-5.504 1.244-1.324 2.962-1.987 5.154-1.987.762 0 1.496.089 2.203.267a9.445 9.445 0 0 1 2.113.825v3.402a6.063 6.063 0 0 0-1.783-1.072 5.54 5.54 0 0 0-2.012-.375c-1.211 0-2.142.385-2.793 1.155-.652.771-.978 1.867-.978 3.289 0 1.421.326 2.513.978 3.275.651.762 1.582 1.142 2.793 1.142a5.57 5.57 0 0 0 2.018-.361 5.937 5.937 0 0 0 1.777-1.098v3.415Zm10.004-10.817c-.888 0-1.587.392-2.094 1.174-.508.783-.762 1.873-.762 3.27 0 1.396.254 2.486.762 3.269.507.782 1.206 1.174 2.094 1.174.898 0 1.6-.392 2.108-1.174.508-.783.762-1.873.762-3.269 0-1.397-.254-2.487-.762-3.27-.508-.782-1.21-1.174-2.108-1.174Zm-6.576 4.444c0-2.294.595-4.112 1.784-5.453 1.189-1.342 2.787-2.012 4.792-2.012 2.015 0 3.616.67 4.806 2.012 1.189 1.341 1.783 3.159 1.783 5.453 0 2.293-.594 4.111-1.783 5.452-1.19 1.342-2.791 2.012-4.806 2.012-2.005 0-3.603-.67-4.792-2.012-1.189-1.341-1.784-3.159-1.784-5.452Zm28.006-2.133v9.229h-3.694v-8.658c0-1.033-.146-1.771-.438-2.215-.292-.445-.768-.667-1.428-.667-.669 0-1.196.301-1.581.902-.385.6-.578 1.434-.578 2.5v8.138h-3.694v-14.219h3.694v2.133c.263-.787.711-1.396 1.346-1.828.635-.432 1.401-.647 2.298-.647 1.346 0 2.361.446 3.047 1.339.685.893 1.028 2.224 1.028 3.993Zm10.816-9.027v4.037h4.863v2.857h-4.863v6.728c0 .635.155 1.09.464 1.365.309.275.823.413 1.542.413h2.857v2.856h-3.123c-2.133 0-3.576-.34-4.329-1.022-.754-.681-1.13-1.944-1.13-3.789v-6.551h-3.631v-2.857h3.631v-4.037h3.719Zm15.781 11.578c-1.388 0-2.357.178-2.907.534-.551.355-.826.964-.826 1.828 0 .643.191 1.155.572 1.536.38.381.897.571 1.548.571.982 0 1.744-.37 2.286-1.111.541-.74.812-1.775.812-3.104v-.254h-1.485Zm5.179-1.434v8.112h-3.694v-1.587a4.48 4.48 0 0 1-1.726 1.448 5.29 5.29 0 0 1-2.324.507c-1.616 0-2.875-.427-3.777-1.282-.901-.855-1.352-2.048-1.352-3.58 0-1.659.538-2.884 1.613-3.675 1.075-.792 2.738-1.187 4.989-1.187h2.577v-.622c0-.601-.218-1.056-.654-1.365-.436-.309-1.077-.463-1.923-.463-.889 0-1.75.112-2.584.336-.833.224-1.703.582-2.608 1.073v-3.174a12.798 12.798 0 0 1 2.501-.749 14.382 14.382 0 0 1 2.691-.241c2.311 0 3.933.469 4.869 1.409.935.939 1.402 2.619 1.402 5.04Zm4.393-6.107h7.363v11.363h4.621v2.856h-12.974v-2.856h4.634v-8.506h-3.644v-2.857Zm3.644-6.919h3.719v4.342h-3.719v-4.342Zm22.8 11.909v9.229h-3.694v-8.658c0-1.033-.146-1.771-.438-2.215-.292-.445-.768-.667-1.428-.667-.669 0-1.196.301-1.581.902-.385.6-.577 1.434-.577 2.5v8.138h-3.695v-14.219h3.695v2.133c.262-.787.711-1.396 1.345-1.828.635-.432 1.401-.647 2.298-.647 1.346 0 2.361.446 3.047 1.339.686.893 1.028 2.224 1.028 3.993Zm16.047 8.531c-.863.355-1.743.622-2.64.8-.898.177-1.845.266-2.844.266-2.378 0-4.196-.637-5.453-1.91-1.257-1.274-1.885-3.109-1.885-5.504 0-2.319.605-4.151 1.815-5.497 1.211-1.345 2.861-2.018 4.952-2.018 2.107 0 3.743.624 4.906 1.872 1.164 1.249 1.746 3.007 1.746 5.275v1.511h-9.636c.009 1.117.339 1.951.99 2.501.652.55 1.625.825 2.92.825a8.88 8.88 0 0 0 2.527-.368c.829-.246 1.697-.635 2.602-1.168v3.415Zm-3.148-7.998c-.017-.982-.269-1.725-.756-2.228-.486-.504-1.204-.756-2.151-.756-.855 0-1.537.261-2.044.781-.508.521-.809 1.259-.902 2.216l5.853-.013Zm19.424-1.6a4.022 4.022 0 0 0-1.429-.838 5.532 5.532 0 0 0-1.796-.279c-.787 0-1.475.138-2.063.413a3.102 3.102 0 0 0-1.365 1.199 3.206 3.206 0 0 0-.425 1.168c-.08.457-.121 1.151-.121 2.082v6.551h-3.719v-14.219h3.719v2.209a4.067 4.067 0 0 1 1.676-1.885c.753-.444 1.634-.666 2.641-.666a6.053 6.053 0 0 1 2.882.723v3.542Zm28.424-9.458c-1.117 2.023-1.946 3.984-2.488 5.885a20.67 20.67 0 0 0-.812 5.693c0 1.888.27 3.788.812 5.701.542 1.912 1.371 3.884 2.488 5.916h-2.894c-1.346-1.955-2.345-3.885-2.996-5.789a17.879 17.879 0 0 1-.978-5.828c0-1.963.328-3.901.984-5.814.656-1.913 1.653-3.834 2.99-5.764h2.894Zm3.923 5.535h3.098l1.688 10.893 1.537-7.173h3.008l1.511 7.173 1.714-10.893h3.098l-2.578 14.219h-3.529l-1.726-7.388-1.714 7.388h-3.53l-2.577-14.219Zm18.459 0h7.364v11.363h4.621v2.856h-12.975v-2.856h4.634v-8.506h-3.644v-2.857Zm3.644-6.919h3.72v4.342h-3.72v-4.342Zm19.246 8.938v-7.554h3.707v19.754h-3.707v-2.107c-.398.821-.912 1.439-1.543 1.853-.63.415-1.373.622-2.228.622-1.625 0-2.886-.651-3.783-1.955-.897-1.303-1.346-3.14-1.346-5.509 0-2.404.455-4.249 1.365-5.536.91-1.286 2.207-1.929 3.891-1.929.762 0 1.446.196 2.051.59.605.394 1.136.984 1.593 1.771Zm-5.18 5.129c0 1.371.229 2.446.686 3.225.457.778 1.087 1.167 1.891 1.167s1.439-.389 1.905-1.167c.465-.779.698-1.854.698-3.225s-.233-2.446-.698-3.225c-.466-.778-1.101-1.168-1.905-1.168s-1.434.39-1.891 1.168c-.457.779-.686 1.854-.686 3.225Zm19.551-11.185v4.037h4.862v2.857h-4.862v6.728c0 .635.154 1.09.463 1.365.309.275.823.413 1.543.413h2.856v2.856h-3.123c-2.133 0-3.576-.34-4.329-1.022-.753-.681-1.13-1.944-1.13-3.789v-6.551h-3.631v-2.857h3.631v-4.037h3.72Zm20.49 9.027v9.229h-3.694v-8.658c0-1.024-.146-1.756-.438-2.196-.292-.44-.768-.66-1.428-.66-.677 0-1.206.298-1.587.895-.381.596-.572 1.424-.572 2.481v8.138h-3.694v-19.754h3.694v7.668c.263-.787.711-1.396 1.346-1.828.635-.432 1.401-.647 2.298-.647 1.346 0 2.361.446 3.047 1.339.685.893 1.028 2.224 1.028 3.993Zm18.827-2.527v-3.174l13.419 5.282v2.996l-13.419 5.268v-3.161l10.093-3.593-10.093-3.618Zm32.577 8.455h4.189v-12.301l-3.897.964v-3.376l3.922-.94h3.619v15.653h4.189v3.301h-12.022v-3.301Zm15.716-15.653h10.296v3.301h-7.261v3.516c.304-.118.63-.205.977-.26a7.058 7.058 0 0 1 1.105-.082c1.878 0 3.402.592 4.57 1.777 1.163 1.185 1.753 2.725 1.753 4.621 0 1.989-.63 3.561-1.899 4.716-1.265 1.156-2.99 1.733-5.173 1.733-.813 0-1.634-.067-2.463-.203a18.262 18.262 0 0 1-2.539-.609v-3.377c.702.347 1.424.607 2.164.781.741.173 1.483.26 2.228.26 1.32 0 2.323-.282 3.009-.844.686-.563 1.028-1.382 1.028-2.457 0-.99-.34-1.784-1.022-2.38-.681-.597-1.589-.895-2.723-.895-.668 0-1.339.082-2.012.247a10.44 10.44 0 0 0-2.038.743v-10.588Zm27.19 18.256c-.86.355-1.74.622-2.64.8-.89.177-1.84.266-2.84.266-2.38 0-4.2-.637-5.45-1.91-1.26-1.274-1.89-3.109-1.89-5.504 0-2.319.61-4.151 1.82-5.497 1.21-1.345 2.86-2.018 4.95-2.018 2.11 0 3.74.624 4.9 1.872 1.17 1.249 1.75 3.007 1.75 5.275v1.511h-9.64c.01 1.117.34 1.951.99 2.501.66.55 1.63.825 2.92.825.86 0 1.7-.123 2.53-.368.83-.246 1.7-.635 2.6-1.168v3.415Zm-3.14-7.998c-.02-.982-.27-1.725-.76-2.228-.49-.504-1.2-.756-2.15-.756-.86 0-1.54.261-2.05.781-.5.521-.8 1.259-.9 2.216l5.86-.013Zm13.57-4.101c.28-.601.63-1.045 1.06-1.333.43-.287.96-.431 1.59-.431 1.23 0 2.08.423 2.55 1.269.47.847.7 2.607.7 5.281v8.011h-3.05v-9.128c0-1.058-.08-1.764-.24-2.12-.16-.355-.45-.533-.87-.533-.43 0-.72.182-.89.546-.17.364-.26 1.066-.26 2.107v9.128h-3.01v-9.128c0-1.041-.08-1.743-.25-2.107-.17-.364-.46-.546-.89-.546-.42 0-.71.178-.87.533-.16.356-.25 1.062-.25 2.12v9.128h-3.04v-14.219h2.7v1.473c.21-.559.55-1.001 1.02-1.327.46-.325.98-.488 1.56-.488.57 0 1.1.171 1.57.514.48.343.77.759.87 1.25Zm10.81-6.957h2.9c1.33 1.93 2.33 3.851 2.99 5.764.65 1.913.98 3.851.98 5.814 0 1.981-.32 3.923-.98 5.828-.65 1.904-1.65 3.834-2.99 5.789h-2.9c1.12-2.032 1.95-4.004 2.49-5.916.54-1.913.81-3.813.81-5.701 0-1.895-.27-3.793-.81-5.693-.54-1.901-1.37-3.862-2.49-5.885Zm25.1 21.57v2.424h-1.9c-2.11 0-3.52-.313-4.24-.939-.71-.626-1.07-1.875-1.07-3.745v-2.73c0-1.278-.23-2.16-.68-2.647-.45-.486-1.27-.73-2.46-.73h-.78v-2.424h.78c1.19 0 2.01-.242 2.46-.724.45-.482.68-1.367.68-2.653v-2.73c0-1.87.36-3.117 1.07-3.739.72-.622 2.13-.933 4.24-.933h1.9v2.412h-1.56c-.88 0-1.47.178-1.76.534-.3.355-.45 1.138-.45 2.348v2.654c0 1.396-.21 2.378-.62 2.945-.42.567-1.16.931-2.22 1.092 1.06.177 1.8.554 2.22 1.13.41.575.62 1.557.62 2.945v2.602c0 1.219.15 2.008.45 2.368.29.36.88.54 1.76.54h1.56Zm-361.98 15.23h2.806l-9.979 21.366h-2.805l9.978-21.366Zm19.157 4.52-5.243 2.831 5.256 2.856-1.117 1.93-4.964-2.996v5.548h-2.247v-5.536c-.804.483-1.634.982-2.488 1.498-.855.517-1.68 1.012-2.476 1.486l-1.104-1.93 5.268-2.856-5.256-2.831 1.092-1.943 4.964 2.984v-5.536h2.247v5.536a323.25 323.25 0 0 0 2.495-1.498 307.61 307.61 0 0 1 2.469-1.486l1.104 1.943Zm28.971.66v3.25a8.516 8.516 0 0 0-2.139-.997 7.66 7.66 0 0 0-2.228-.336c-.83 0-1.456.12-1.879.362-.423.241-.635.598-.635 1.072 0 .677.906 1.228 2.717 1.651l.14.038 1.066.254c1.354.321 2.347.84 2.977 1.555.631.715.946 1.682.946 2.901 0 1.464-.48 2.562-1.441 3.294-.961.732-2.406 1.098-4.335 1.098-.855 0-1.731-.074-2.628-.222a19.147 19.147 0 0 1-2.73-.666v-3.25c.821.465 1.657.821 2.507 1.066a8.876 8.876 0 0 0 2.47.368c.871 0 1.532-.127 1.98-.381.449-.254.673-.622.673-1.104 0-.474-.159-.838-.476-1.092-.317-.254-1.073-.525-2.266-.812l-1.028-.229c-1.422-.322-2.459-.825-3.111-1.511-.652-.685-.977-1.603-.977-2.755 0-1.371.495-2.437 1.485-3.199.99-.761 2.382-1.142 4.177-1.142.804 0 1.606.065 2.406.196.799.132 1.576.328 2.329.591Zm11.832-4.482v4.037h4.862v2.857h-4.862v6.728c0 .635.155 1.09.464 1.365.308.275.823.413 1.542.413h2.856v2.856h-3.123c-2.132 0-3.575-.34-4.329-1.022-.753-.681-1.13-1.944-1.13-3.789v-6.551h-3.63v-2.857h3.63v-4.037h3.72Zm15.92 19.792c-.499 1.338-1.098 2.313-1.796 2.927-.699.613-1.547.92-2.546.92h-3.072v-2.831h1.511c.761 0 1.32-.129 1.676-.387.355-.258.715-.857 1.079-1.797l.279-.761-5.408-13.826h3.91l3.25 9.23 3.11-9.23h3.91l-5.903 15.755Zm11.54-7.465v-10.968h-3.77v-2.857h7.49v13.825c0 1.118.173 1.909.52 2.374.347.466.936.699 1.765.699h2.971v2.856h-4.012c-1.769 0-3.038-.457-3.809-1.371-.77-.914-1.155-2.433-1.155-4.558Zm24.731 5.231c-.864.355-1.744.622-2.641.8a14.67 14.67 0 0 1-2.844.266c-2.378 0-4.196-.637-5.452-1.91-1.257-1.274-1.886-3.109-1.886-5.504 0-2.319.605-4.151 1.816-5.497 1.21-1.345 2.86-2.018 4.951-2.018 2.107 0 3.743.624 4.907 1.872 1.163 1.249 1.745 3.007 1.745 5.275v1.511h-9.636c.009 1.117.339 1.951.991 2.501.651.55 1.625.825 2.92.825.854 0 1.697-.123 2.526-.368.829-.246 1.697-.635 2.603-1.168v3.415Zm-3.149-7.998c-.017-.982-.269-1.725-.755-2.228-.487-.504-1.204-.756-2.152-.756-.855 0-1.536.261-2.044.781-.508.521-.808 1.259-.901 2.216l5.852-.013Zm17.393-5.078v3.25a8.532 8.532 0 0 0-2.139-.997 7.666 7.666 0 0 0-2.228-.336c-.83 0-1.456.12-1.879.362-.424.241-.635.598-.635 1.072 0 .677.905 1.228 2.717 1.651l.139.038 1.067.254c1.354.321 2.346.84 2.977 1.555.63.715.946 1.682.946 2.901 0 1.464-.481 2.562-1.441 3.294-.961.732-2.406 1.098-4.336 1.098-.855 0-1.731-.074-2.628-.222a19.102 19.102 0 0 1-2.729-.666v-3.25c.821.465 1.656.821 2.507 1.066a8.874 8.874 0 0 0 2.469.368c.872 0 1.532-.127 1.981-.381.448-.254.673-.622.673-1.104 0-.474-.159-.838-.476-1.092-.318-.254-1.073-.525-2.267-.812l-1.028-.229c-1.422-.322-2.459-.825-3.11-1.511-.652-.685-.978-1.603-.978-2.755 0-1.371.495-2.437 1.486-3.199.99-.761 2.382-1.142 4.176-1.142.804 0 1.606.065 2.406.196.8.132 1.576.328 2.33.591Zm16.669 4.545v9.229h-3.695v-8.658c0-1.024-.146-1.756-.438-2.196-.292-.44-.768-.66-1.428-.66-.677 0-1.206.298-1.587.895-.381.596-.571 1.424-.571 2.481v8.138h-3.694v-19.754h3.694v7.668c.262-.787.711-1.396 1.346-1.828.634-.432 1.4-.647 2.297-.647 1.346 0 2.362.446 3.047 1.339.686.893 1.029 2.224 1.029 3.993Zm16.047 8.531c-.864.355-1.744.622-2.641.8a14.67 14.67 0 0 1-2.844.266c-2.378 0-4.196-.637-5.452-1.91-1.257-1.274-1.886-3.109-1.886-5.504 0-2.319.605-4.151 1.816-5.497 1.21-1.345 2.86-2.018 4.951-2.018 2.107 0 3.743.624 4.907 1.872 1.163 1.249 1.745 3.007 1.745 5.275v1.511h-9.636c.009 1.117.339 1.951.991 2.501.651.55 1.625.825 2.92.825.854 0 1.697-.123 2.526-.368.829-.246 1.697-.635 2.603-1.168v3.415Zm-3.149-7.998c-.017-.982-.269-1.725-.755-2.228-.487-.504-1.204-.756-2.152-.756-.855 0-1.536.261-2.044.781-.508.521-.808 1.259-.901 2.216l5.852-.013Zm18.802 7.998c-.863.355-1.744.622-2.641.8a14.67 14.67 0 0 1-2.844.266c-2.378 0-4.195-.637-5.452-1.91-1.257-1.274-1.885-3.109-1.885-5.504 0-2.319.605-4.151 1.815-5.497 1.21-1.345 2.861-2.018 4.951-2.018 2.108 0 3.743.624 4.907 1.872 1.164 1.249 1.746 3.007 1.746 5.275v1.511h-9.636c.008 1.117.338 1.951.99 2.501.652.55 1.625.825 2.92.825.855 0 1.697-.123 2.526-.368.83-.246 1.697-.635 2.603-1.168v3.415Zm-3.149-7.998c-.017-.982-.268-1.725-.755-2.228-.487-.504-1.204-.756-2.152-.756-.855 0-1.536.261-2.044.781-.508.521-.808 1.259-.901 2.216l5.852-.013Zm13.572-9.56v4.037h4.862v2.857h-4.862v6.728c0 .635.154 1.09.463 1.365.309.275.823.413 1.543.413h2.856v2.856h-3.123c-2.133 0-3.576-.34-4.329-1.022-.753-.681-1.13-1.944-1.13-3.789v-6.551h-3.631v-2.857h3.631v-4.037h3.72Zm37.464 3.822-5.244 2.831 5.256 2.856-1.117 1.93-4.964-2.996v5.548h-2.247v-5.536c-.804.483-1.633.982-2.488 1.498-.855.517-1.68 1.012-2.476 1.486l-1.104-1.93 5.268-2.856-5.256-2.831 1.092-1.943 4.964 2.984v-5.536h2.247v5.536a323.25 323.25 0 0 0 2.495-1.498 307.61 307.61 0 0 1 2.469-1.486l1.105 1.943Zm12.149-4.52h2.806l-9.979 21.366h-2.806L936 416.954Zm-275.234 56.77h1.536c.88 0 1.472-.182 1.777-.546.305-.364.457-1.151.457-2.362v-2.602c0-1.388.207-2.37.622-2.945.415-.576 1.151-.953 2.209-1.13-1.066-.161-1.805-.525-2.215-1.092-.411-.567-.616-1.549-.616-2.945v-2.654c0-1.193-.15-1.972-.451-2.336-.3-.364-.895-.546-1.783-.546h-1.536v-2.412h1.904c2.099 0 3.502.311 4.208.933.707.622 1.06 1.869 1.06 3.739v2.73c0 1.278.231 2.16.692 2.647.462.486 1.289.73 2.482.73h.787v2.424h-.787c-1.193 0-2.02.246-2.482.737-.461.491-.692 1.371-.692 2.64v2.73c0 1.87-.353 3.119-1.06 3.745-.706.626-2.109.939-4.208.939h-1.904v-2.424Z"/>
</svg>
