<svg xmlns="http://www.w3.org/2000/svg" xmlns:xlink="http://www.w3.org/1999/xlink" width="240" height="240"><defs><linearGradient id="a"><stop style="stop-color:#ffc900;stop-opacity:1" offset="0"/><stop style="stop-color:#ffea00;stop-opacity:1" offset="1"/></linearGradient><linearGradient xlink:href="#a" id="b" gradientUnits="userSpaceOnUse" gradientTransform="matrix(-1 0 0 1 752.8 23.54)" x1="673.8" y1="218.507" x2="737.221" y2="192.409"/><linearGradient xlink:href="#a" id="c" gradientUnits="userSpaceOnUse" gradientTransform="rotate(90 532.86 -121.038)" x1="747.26" y1="163.29" x2="673.799" y2="239.37"/><linearGradient xlink:href="#a" id="d" gradientUnits="userSpaceOnUse" gradientTransform="translate(208.374 34.212) scale(.60613)" x1="339.818" y1="62.27" x2="281.082" y2="6.547"/><linearGradient xlink:href="#a" id="e" gradientUnits="userSpaceOnUse" gradientTransform="translate(-147.473 373.058) scale(.60613)" x1="353.839" y1="62.27" x2="281.082" y2="6.547"/><linearGradient xlink:href="#a" id="f" gradientUnits="userSpaceOnUse" gradientTransform="translate(43.74 24)" x1="737.456" y1="227.495" x2="674.3" y2="220.109"/><linearGradient xlink:href="#a" id="g" gradientUnits="userSpaceOnUse" gradientTransform="matrix(0 1 1 0 384.717 -653.437)" x1="737.456" y1="227.495" x2="674.3" y2="220.109"/><linearGradient xlink:href="#a" id="h" gradientUnits="userSpaceOnUse" gradientTransform="matrix(-.60613 0 0 .60613 944.012 373.52)" x1="271.601" y1="77.789" x2="353.839" y2="8.665"/><linearGradient xlink:href="#a" id="i" gradientUnits="userSpaceOnUse" gradientTransform="rotate(180 375.976 383.362)" x1="673.8" y1="170.995" x2="739.789" y2="201.398"/><linearGradient xlink:href="#a" id="j" gradientUnits="userSpaceOnUse" gradientTransform="matrix(0 -1 -1 0 410.976 1444.161)" x1="673.799" y1="178.699" x2="747.26" y2="209.836"/><linearGradient xlink:href="#a" id="k" gradientUnits="userSpaceOnUse" gradientTransform="matrix(.60613 0 0 -.60613 207.527 756.051)" x1="335.581" y1="-4.448" x2="271.601" y2="36.67"/><linearGradient xlink:href="#a" id="l" gradientUnits="userSpaceOnUse" gradientTransform="matrix(1 0 0 -1 42.74 766.723)" x1="747.261" y1="177.415" x2="682.788" y2="214.972"/><linearGradient xlink:href="#a" id="m" gradientUnits="userSpaceOnUse" gradientTransform="rotate(-90 913.939 530.222)" x1="673.799" y1="259.598" x2="747.26" y2="232.95"/></defs><path style="fill:#000;fill-opacity:.09411765;fill-rule:evenodd;stroke:none;stroke-width:2;stroke-linecap:butt;stroke-linejoin:miter;stroke-miterlimit:4;stroke-opacity:1" d="M103.25 8.554a7.496 7.496 0 0 0-1.846.038c-3.179.315-6.025 2.925-6.357 6.14-.287 2.57 1.554 5.494 4.313 5.57 1.835.25 3.652-1.477 3.31-3.329-.263-1.156-2.243-2.355-2.223-.487-1.07 2.276-3.174-.017-2.634-1.716.48-2.85 4.066-4.323 6.581-3.15 3.59 1.267 5.002 5.713 3.938 9.14-1.059 3.568-4.704 5.92-8.325 6.104-2.335.219-4.61-.475-6.788-1.219C80.334 22.026 67.574 18 54.857 13.833c-5.663-1.755-11.315-3.578-17.09-4.922-6.232-.87-13.027 3.854-13.52 10.303-.557 4.681 2.671 9.628 7.36 10.594 2.982.577 6.37-.582 7.978-3.254 1.523-2.195 1.331-5.455-.685-7.284-1.505-1.41-4.422-1.638-5.55.356-1.15 1.084.09 3.757 1.238 3.357.297-1.6 2.623-3.004 3.094-.713.853 2.429-1.51 4.674-3.788 4.95-3.158.435-6.113-2.14-6.712-5.166-.765-3.067.368-6.554 2.981-8.4 3.235-2.657 7.881-2.45 11.606-1.04 8.513 2.602 17.006 5.306 25.481 8.034 8.333 2.684 16.71 5.225 25.144 7.566 3.632 1.163 7.74 2.224 11.4.581 4.72-1.633 8.13-6.576 7.585-11.606-.314-4.239-3.897-8.192-8.129-8.635zm36.432.141c-4.232.443-7.815 4.396-8.128 8.634-.546 5.03 2.865 9.973 7.584 11.607 3.66 1.642 7.768.582 11.4-.582 8.434-2.34 16.812-4.882 25.144-7.565 8.475-2.728 16.968-5.433 25.481-8.035 3.725-1.409 8.37-1.616 11.606 1.041 2.613 1.845 3.746 5.323 2.981 8.39-.6 3.027-3.554 5.61-6.712 5.176-2.277-.276-4.641-2.522-3.788-4.95.471-2.292 2.797-.887 3.094.712 1.149.4 2.388-2.272 1.238-3.356-1.128-1.994-4.045-1.767-5.55-.356-2.016 1.829-2.198 5.088-.675 7.284 1.608 2.671 4.987 3.83 7.968 3.253 4.69-.965 7.917-5.912 7.36-10.594-.493-6.448-7.288-11.183-13.519-10.312-5.776 1.344-11.428 3.177-17.09 4.931-12.718 4.166-25.478 8.194-38.363 11.813-2.178.744-4.453 1.438-6.788 1.218-3.62-.183-7.266-2.536-8.325-6.103-1.064-3.428.349-7.873 3.938-9.14 2.515-1.173 6.101.3 6.581 3.15.54 1.7-1.563 3.991-2.634 1.715.02-1.868-1.96-.669-2.222.488-.343 1.852 1.474 3.578 3.31 3.328 2.758-.075 4.6-3.008 4.312-5.578-.332-3.216-3.178-5.816-6.356-6.131a7.496 7.496 0 0 0-1.847-.038zm-18.319 3.3c-3.952 0-7.181 3.23-7.181 7.181 0 3.952 3.229 7.182 7.181 7.182s7.172-3.23 7.172-7.182c0-3.952-3.22-7.18-7.172-7.18zm0 1.819a5.354 5.354 0 0 1 5.362 5.362 5.354 5.354 0 0 1-5.362 5.363A5.354 5.354 0 0 1 116 19.176a5.354 5.354 0 0 1 5.363-5.362zM14.835 23.442c-4.338.351-8.302 3.474-9.731 7.603-1.643 3.661-.583 7.768.58 11.4 2.342 8.434 4.883 16.812 7.566 25.144 2.728 8.475 5.433 16.968 8.035 25.481 1.41 3.725 1.617 8.37-1.04 11.606-1.846 2.614-5.324 3.746-8.391 2.982-3.026-.6-5.61-3.554-5.175-6.713.276-2.277 2.52-4.641 4.95-3.787 2.29.47.886 2.787-.713 3.084-.4 1.149 2.273 2.397 3.356 1.247 1.994-1.128 1.767-4.044.357-5.55-1.83-2.016-5.09-2.208-7.285-.685-2.67 1.61-3.83 4.997-3.253 7.979.965 4.688 5.913 7.916 10.594 7.359 6.449-.493 11.183-7.288 10.312-13.519-1.344-5.776-3.176-11.428-4.93-17.09C15.9 67.265 11.871 54.505 8.253 41.62c-.744-2.178-1.438-4.453-1.22-6.787.184-3.621 2.537-7.267 6.104-8.325 3.428-1.065 7.874.348 9.14 3.937 1.174 2.515-.3 6.101-3.15 6.581-1.699.54-3.991-1.563-1.715-2.634 1.868.02.669-1.96-.488-2.222-1.852-.343-3.577 1.474-3.328 3.31.075 2.758 3.009 4.6 5.578 4.312 3.216-.332 5.817-3.178 6.132-6.356.716-4.987-3.753-9.617-8.597-9.975a9.924 9.924 0 0 0-1.875-.019zm213.262.131a9.93 9.93 0 0 0-1.875.028c-4.844.358-9.313 4.989-8.597 9.975.316 3.179 2.916 6.015 6.132 6.347 2.57.288 5.503-1.554 5.578-4.312.25-1.836-1.476-3.652-3.328-3.31-1.157.263-2.356 2.243-.488 2.222 2.276 1.071-.016 3.184-1.715 2.644-2.85-.48-4.324-4.066-3.15-6.581 1.267-3.59 5.712-5.011 9.14-3.947 3.567 1.058 5.92 4.713 6.103 8.334.22 2.335-.475 4.6-1.218 6.778-3.62 12.886-7.647 25.655-11.813 38.372-1.754 5.663-3.587 11.315-4.931 17.09-.87 6.231 3.864 13.027 10.312 13.52 4.682.557 9.629-2.68 10.594-7.37.577-2.981-.582-6.36-3.253-7.968-2.196-1.523-5.455-1.331-7.284.684-1.41 1.506-1.638 4.423.356 5.55 1.084 1.151 3.756-.098 3.356-1.246-1.6-.298-3.004-2.623-.712-3.094 2.428-.854 4.674 1.51 4.95 3.787.434 3.159-2.15 6.122-5.175 6.722-3.068.765-6.546-.368-8.391-2.981-2.658-3.236-2.45-7.89-1.04-11.616 2.601-8.513 5.306-16.996 8.034-25.472 2.683-8.332 5.225-16.709 7.565-25.143 1.164-3.632 2.224-7.74.582-11.4-1.43-4.13-5.394-7.261-9.732-7.613zM14.61 113.658c-3.952 0-7.181 3.22-7.181 7.171 0 3.953 3.229 7.182 7.18 7.182 3.953 0 7.173-3.23 7.173-7.182 0-3.952-3.22-7.171-7.172-7.171zm213.712.13c-3.952 0-7.172 3.23-7.172 7.182 0 3.952 3.22 7.172 7.172 7.172 3.952 0 7.182-3.22 7.182-7.172 0-3.952-3.23-7.181-7.182-7.181zM14.61 115.477a5.338 5.338 0 0 1 5.353 5.353 5.346 5.346 0 0 1-5.353 5.363 5.354 5.354 0 0 1-5.363-5.363 5.346 5.346 0 0 1 5.363-5.353zm213.712.132a5.354 5.354 0 0 1 5.363 5.362 5.346 5.346 0 0 1-5.363 5.353 5.338 5.338 0 0 1-5.353-5.353 5.346 5.346 0 0 1 5.353-5.362zM12.67 130.945c-4.096.31-7.986 3.294-8.831 7.397-.577 2.982.582 6.36 3.253 7.969 2.196 1.523 5.455 1.331 7.284-.685 1.41-1.505 1.638-4.422-.356-5.55-1.084-1.15-3.756.099-3.356 1.247 1.6.298 3.004 2.623.712 3.094-2.428.854-4.673-1.51-4.95-3.788-.434-3.158 2.15-6.122 5.175-6.721 3.068-.765 6.546.377 8.391 2.99 2.658 3.236 2.45 7.882 1.04 11.606-2.601 8.513-5.306 16.997-8.034 25.472-2.683 8.333-5.224 16.71-7.565 25.144-1.164 3.632-2.224 7.74-.582 11.4 1.634 4.72 6.576 8.13 11.607 7.584 4.844-.358 9.313-4.988 8.597-9.975-.316-3.178-2.916-6.014-6.132-6.346-2.57-.288-5.503 1.554-5.578 4.312-.25 1.836 1.476 3.652 3.328 3.31 1.157-.263 2.356-2.243.488-2.222-2.276-1.071.016-3.184 1.715-2.644 2.85.48 4.324 4.075 3.15 6.59-1.267 3.59-5.712 5.002-9.14 3.938-3.567-1.058-5.92-4.714-6.103-8.334-.22-2.335.475-4.6 1.218-6.779 3.62-12.885 7.647-25.654 11.813-38.371 1.754-5.663 3.587-11.315 4.931-17.091.87-6.23-3.864-13.026-10.312-13.519a9.125 9.125 0 0 0-1.763-.028zm217.04 0a9.125 9.125 0 0 0-1.762.028c-6.448.493-11.183 7.288-10.312 13.519 1.344 5.776 3.177 11.428 4.931 17.09 4.166 12.718 8.194 25.487 11.813 38.372.743 2.178 1.438 4.444 1.218 6.779-.183 3.62-2.536 7.276-6.103 8.334-3.428 1.064-7.873-.349-9.14-3.938-1.174-2.515.3-6.11 3.15-6.59 1.699-.54 3.991 1.573 1.715 2.644-1.868-.02-.669 1.96.488 2.221 1.852.343 3.578-1.473 3.328-3.309-.075-2.758-3.009-4.6-5.578-4.312-3.216.332-5.816 3.168-6.132 6.346-.716 4.987 3.753 9.617 8.597 9.975 5.03.547 9.973-2.865 11.607-7.584 1.642-3.66.582-7.768-.582-11.4-2.34-8.434-4.882-16.811-7.565-25.144-2.728-8.475-5.433-16.959-8.035-25.472-1.409-3.724-1.617-8.37 1.041-11.606 1.845-2.613 5.323-3.755 8.39-2.99 3.026.6 5.61 3.563 5.176 6.721-.276 2.278-2.522 4.642-4.95 3.788-2.292-.47-.887-2.796.712-3.094.4-1.148-2.272-2.397-3.356-1.247-1.994 1.128-1.767 4.045-.356 5.55 1.829 2.016 5.088 2.208 7.284.685 2.671-1.609 3.83-4.987 3.253-7.969-.845-4.103-4.735-7.088-8.831-7.397zM32.489 211.626c-.381.019-.762.06-1.134.132-4.69.965-7.917 5.912-7.36 10.593.493 6.45 7.288 11.183 13.519 10.313 5.776-1.344 11.428-3.168 17.09-4.922 12.718-4.166 25.478-8.203 38.363-11.822 2.178-.744 4.453-1.428 6.788-1.21 3.62.184 7.266 2.527 8.325 6.094 1.064 3.429-.349 7.874-3.938 9.141-2.515 1.173-6.101-.291-6.581-3.14-.54-1.7 1.563-4.002 2.634-1.726-.02 1.868 1.96.67 2.222-.487.343-1.852-1.474-3.568-3.31-3.319-2.758.075-4.6 3-4.312 5.569.332 3.215 3.178 5.816 6.356 6.131 4.987.716 9.617-3.753 9.975-8.597.547-5.03-2.865-9.972-7.584-11.606-3.66-1.643-7.768-.582-11.4.581-8.434 2.341-16.82 4.882-25.153 7.566-8.475 2.728-16.959 5.433-25.472 8.034-3.725 1.41-8.37 1.617-11.606-1.04-2.613-1.845-3.746-5.323-2.981-8.39.6-3.027 3.554-5.601 6.712-5.167 2.277.277 4.641 2.512 3.788 4.941-.471 2.291-2.797.887-3.094-.712-1.149-.4-2.388 2.272-1.238 3.356 1.128 1.994 4.045 1.767 5.55.356 2.016-1.829 2.198-5.089.675-7.284-1.407-2.338-4.167-3.513-6.834-3.385zm177.403 0c-2.667-.128-5.427 1.047-6.834 3.385-1.523 2.195-1.341 5.455.675 7.284 1.505 1.41 4.422 1.638 5.55-.356 1.15-1.084-.09-3.757-1.238-3.356-.297 1.599-2.623 3.003-3.094.712-.853-2.429 1.51-4.664 3.788-4.94 3.158-.435 6.113 2.14 6.712 5.165.765 3.068-.367 6.546-2.98 8.39-3.236 2.658-7.882 2.45-11.607 1.041-8.513-2.601-17.006-5.306-25.481-8.034-8.332-2.684-16.71-5.225-25.144-7.566-3.632-1.163-7.74-2.224-11.4-.58-4.72 1.633-8.13 6.575-7.584 11.605.358 4.844 4.988 9.313 9.975 8.597 3.178-.315 6.024-2.916 6.356-6.131.287-2.57-1.554-5.494-4.313-5.569-1.835-.25-3.652 1.467-3.309 3.319.262 1.157 2.242 2.355 2.222.487 1.07-2.276 3.174.026 2.634 1.725-.48 2.85-4.066 4.314-6.581 3.141-3.589-1.267-5.002-5.712-3.938-9.14 1.059-3.568 4.705-5.911 8.325-6.094 2.335-.22 4.61.465 6.788 1.21 12.885 3.618 25.645 7.655 38.362 11.821 5.663 1.754 11.315 3.578 17.091 4.922 6.23.87 13.026-3.864 13.519-10.313.557-4.68-2.67-9.628-7.36-10.593a7.997 7.997 0 0 0-1.134-.132zm-88.781 3.591c-3.952 0-7.181 3.22-7.181 7.172 0 3.952 3.229 7.181 7.18 7.181 3.953 0 7.173-3.229 7.173-7.181s-3.22-7.172-7.172-7.172zm0 1.819a5.338 5.338 0 0 1 5.353 5.353 5.346 5.346 0 0 1-5.353 5.362 5.354 5.354 0 0 1-5.363-5.362 5.346 5.346 0 0 1 5.363-5.353z"/><path style="fill:#000;fill-opacity:.09411765;fill-rule:evenodd;stroke:none;stroke-width:2;stroke-linecap:butt;stroke-linejoin:miter;stroke-miterlimit:4;stroke-opacity:1" d="M102.826 7.706a7.496 7.496 0 0 0-1.847.037c-3.178.316-6.024 2.926-6.356 6.141-.287 2.57 1.554 5.494 4.313 5.569 1.835.25 3.652-1.476 3.309-3.328-.262-1.157-2.242-2.356-2.222-.488-1.07 2.276-3.175-.016-2.634-1.715.48-2.85 4.066-4.324 6.581-3.15 3.589 1.267 5.002 5.712 3.937 9.14-1.058 3.567-4.704 5.92-8.325 6.103-2.334.22-4.61-.475-6.787-1.218-12.885-3.62-25.645-7.647-38.363-11.813-5.662-1.754-11.314-3.578-17.09-4.922-6.23-.87-13.026 3.855-13.519 10.303-.557 4.682 2.67 9.629 7.36 10.594 2.981.577 6.369-.582 7.978-3.253 1.523-2.196 1.33-5.455-.685-7.284-1.506-1.41-4.422-1.638-5.55.356-1.15 1.084.089 3.756 1.238 3.356.297-1.6 2.623-3.004 3.093-.712.854 2.428-1.51 4.674-3.787 4.95-3.158.434-6.113-2.14-6.713-5.166-.764-3.068.368-6.555 2.982-8.4 3.235-2.658 7.881-2.45 11.606-1.04 8.513 2.601 17.006 5.306 25.481 8.034 8.332 2.683 16.71 5.225 25.144 7.565 3.632 1.164 7.74 2.224 11.4.582 4.719-1.634 8.13-6.576 7.584-11.607-.313-4.238-3.896-8.192-8.128-8.634zm36.431.14c-4.23.443-7.814 4.396-8.128 8.635-.546 5.03 2.866 9.973 7.585 11.606 3.66 1.643 7.768.582 11.4-.581 8.434-2.34 16.811-4.882 25.143-7.566 8.475-2.728 16.969-5.432 25.482-8.034 3.725-1.41 8.37-1.617 11.606 1.04 2.613 1.846 3.746 5.323 2.981 8.391-.6 3.026-3.554 5.61-6.712 5.175-2.278-.276-4.641-2.521-3.788-4.95.471-2.291 2.796-.887 3.094.713 1.149.4 2.388-2.273 1.237-3.357-1.127-1.993-4.044-1.766-5.55-.356-2.015 1.83-2.198 5.089-.675 7.285 1.61 2.67 4.987 3.83 7.97 3.253 4.688-.966 7.916-5.913 7.359-10.594-.494-6.449-7.289-11.183-13.52-10.313-5.775 1.344-11.427 3.177-17.09 4.932-12.717 4.166-25.477 8.193-38.362 11.812-2.178.744-4.453 1.438-6.788 1.219-3.62-.183-7.266-2.536-8.325-6.103-1.064-3.428.349-7.874 3.938-9.14 2.515-1.174 6.1.3 6.581 3.15.54 1.699-1.563 3.99-2.634 1.715.02-1.868-1.96-.67-2.222.487-.343 1.852 1.474 3.578 3.31 3.328 2.758-.075 4.599-3.008 4.312-5.578-.332-3.215-3.179-5.816-6.357-6.13a7.496 7.496 0 0 0-1.847-.038zm-18.318 3.3c-3.952 0-7.182 3.23-7.182 7.182 0 3.952 3.23 7.181 7.182 7.181 3.952 0 7.172-3.23 7.172-7.181 0-3.952-3.22-7.181-7.172-7.181zm0 1.82a5.354 5.354 0 0 1 5.362 5.362 5.354 5.354 0 0 1-5.362 5.362 5.354 5.354 0 0 1-5.363-5.362 5.354 5.354 0 0 1 5.363-5.363zM14.41 22.592c-4.338.352-8.302 3.474-9.732 7.604-1.642 3.66-.582 7.767.582 11.4 2.34 8.434 4.882 16.811 7.565 25.143 2.728 8.475 5.433 16.969 8.035 25.482 1.409 3.725 1.616 8.37-1.041 11.606-1.845 2.613-5.323 3.745-8.39 2.981-3.027-.6-5.61-3.554-5.176-6.712.276-2.278 2.522-4.642 4.95-3.788 2.292.47.887 2.787-.712 3.084-.4 1.15 2.272 2.398 3.356 1.247 1.994-1.127 1.767-4.044.356-5.55-1.829-2.015-5.088-2.207-7.284-.684-2.671 1.609-3.83 4.996-3.253 7.978.965 4.689 5.912 7.916 10.594 7.36 6.448-.494 11.183-7.289 10.312-13.52-1.344-5.775-3.177-11.427-4.931-17.09-4.166-12.717-8.194-25.477-11.813-38.362-.744-2.178-1.438-4.453-1.218-6.788.183-3.62 2.536-7.267 6.103-8.325 3.428-1.064 7.873.349 9.14 3.938 1.173 2.515-.3 6.1-3.15 6.58-1.699.541-3.991-1.563-1.715-2.634 1.868.02.669-1.96-.488-2.221-1.852-.343-3.578 1.473-3.328 3.309.075 2.758 3.009 4.6 5.578 4.312 3.216-.331 5.816-3.178 6.131-6.356.717-4.986-3.752-9.617-8.596-9.975a9.924 9.924 0 0 0-1.875-.019zm213.262.132a9.93 9.93 0 0 0-1.875.028c-4.844.358-9.313 4.988-8.597 9.975.315 3.178 2.916 6.015 6.131 6.347 2.57.287 5.503-1.554 5.579-4.313.25-1.835-1.477-3.652-3.329-3.31-1.156.263-2.355 2.243-.487 2.223 2.276 1.07-.016 3.184-1.716 2.643-2.85-.48-4.323-4.066-3.15-6.58 1.267-3.59 5.713-5.012 9.14-3.948 3.568 1.059 5.92 4.714 6.104 8.335.22 2.334-.475 4.6-1.219 6.778-3.618 12.885-7.646 25.655-11.812 38.372-1.755 5.662-3.587 11.314-4.931 17.09-.871 6.231 3.863 13.026 10.312 13.52 4.681.556 9.629-2.68 10.594-7.37.577-2.982-.582-6.36-3.253-7.968-2.196-1.523-5.456-1.332-7.285.684-1.41 1.506-1.637 4.422.357 5.55 1.083 1.15 3.756-.098 3.356-1.247-1.6-.297-3.004-2.623-.713-3.094 2.429-.853 4.674 1.51 4.95 3.788.435 3.158-2.149 6.122-5.175 6.722-3.067.764-6.545-.368-8.39-2.982-2.658-3.235-2.45-7.89-1.04-11.615 2.6-8.513 5.306-16.997 8.033-25.472 2.684-8.332 5.225-16.71 7.566-25.144 1.164-3.632 2.224-7.739.581-11.4-1.429-4.129-5.393-7.26-9.73-7.612zM14.186 112.809c-3.953 0-7.182 3.22-7.182 7.172 0 3.952 3.23 7.181 7.182 7.181 3.952 0 7.171-3.229 7.171-7.181s-3.22-7.172-7.171-7.172zm213.712.131c-3.952 0-7.172 3.23-7.172 7.182 0 3.952 3.22 7.171 7.172 7.171 3.952 0 7.181-3.22 7.181-7.171 0-3.953-3.229-7.182-7.18-7.182zm-213.712 1.688a5.338 5.338 0 0 1 5.353 5.353 5.346 5.346 0 0 1-5.353 5.362 5.354 5.354 0 0 1-5.363-5.362 5.346 5.346 0 0 1 5.363-5.353zm213.712.131a5.354 5.354 0 0 1 5.363 5.363 5.346 5.346 0 0 1-5.363 5.353 5.338 5.338 0 0 1-5.353-5.353 5.346 5.346 0 0 1 5.353-5.363zM12.245 130.097c-4.096.309-7.987 3.294-8.831 7.396-.577 2.982.582 6.36 3.253 7.97 2.195 1.522 5.455 1.33 7.284-.685 1.41-1.506 1.638-4.422-.356-5.55-1.084-1.15-3.757.098-3.356 1.247 1.599.297 3.003 2.623.712 3.093-2.428.854-4.674-1.51-4.95-3.787-.434-3.158 2.15-6.122 5.175-6.722 3.068-.764 6.546.377 8.39 2.99 2.658 3.236 2.45 7.882 1.041 11.607-2.601 8.513-5.306 16.997-8.034 25.472-2.683 8.332-5.225 16.71-7.566 25.144-1.163 3.632-2.223 7.739-.58 11.4 1.633 4.719 6.575 8.13 11.605 7.584 4.844-.358 9.313-4.989 8.597-9.975-.315-3.178-2.915-6.015-6.13-6.347-2.57-.287-5.504 1.554-5.58 4.313-.249 1.835 1.477 3.652 3.33 3.309 1.156-.262 2.355-2.242.487-2.222-2.276-1.07.016-3.184 1.715-2.644 2.85.48 4.323 4.076 3.15 6.591-1.267 3.589-5.712 5.002-9.14 3.937-3.567-1.058-5.92-4.713-6.104-8.334-.219-2.334.475-4.6 1.22-6.778 3.618-12.885 7.646-25.655 11.812-38.372 1.754-5.662 3.587-11.315 4.93-17.09.872-6.231-3.863-13.026-10.312-13.52a9.125 9.125 0 0 0-1.762-.027zm217.04 0a9.125 9.125 0 0 0-1.762.028c-6.449.493-11.183 7.288-10.312 13.518 1.344 5.776 3.176 11.429 4.93 17.091 4.167 12.717 8.195 25.487 11.813 38.372.744 2.178 1.438 4.444 1.22 6.778-.184 3.621-2.537 7.276-6.104 8.334-3.428 1.065-7.874-.348-9.14-3.937-1.174-2.515.3-6.11 3.15-6.59 1.699-.541 3.991 1.572 1.715 2.643-1.868-.02-.67 1.96.487 2.222 1.852.343 3.578-1.474 3.329-3.31-.076-2.758-3.009-4.6-5.579-4.312-3.215.332-5.816 3.169-6.13 6.347-.717 4.986 3.752 9.617 8.596 9.975 5.03.546 9.973-2.865 11.606-7.584 1.643-3.661.583-7.768-.58-11.4-2.342-8.435-4.883-16.812-7.567-25.144-2.727-8.475-5.432-16.96-8.034-25.472-1.41-3.725-1.617-8.37 1.04-11.606 1.846-2.614 5.324-3.755 8.391-2.99 3.026.599 5.61 3.563 5.175 6.721-.276 2.277-2.521 4.641-4.95 3.787-2.291-.47-.886-2.796.713-3.093.4-1.149-2.273-2.398-3.356-1.247-1.994 1.128-1.767 4.044-.357 5.55 1.83 2.016 5.089 2.207 7.285.684 2.67-1.609 3.83-4.987 3.253-7.969-.845-4.102-4.735-7.087-8.831-7.396zm-197.221 80.68c-.381.02-.762.06-1.135.132-4.688.965-7.916 5.913-7.36 10.594.494 6.449 7.29 11.183 13.52 10.312 5.776-1.344 11.428-3.167 17.09-4.922 12.717-4.166 25.477-8.203 38.363-11.821 2.178-.744 4.453-1.429 6.787-1.21 3.621.183 7.267 2.527 8.325 6.094 1.064 3.428-.348 7.874-3.937 9.14-2.515 1.174-6.101-.29-6.581-3.14-.54-1.7 1.563-4.001 2.634-1.725-.02 1.868 1.96.669 2.222-.488.343-1.852-1.474-3.568-3.31-3.318-2.758.075-4.6 2.999-4.312 5.568.332 3.216 3.178 5.817 6.356 6.132 4.987.716 9.617-3.753 9.975-8.597.546-5.03-2.865-9.973-7.584-11.606-3.661-1.643-7.768-.583-11.4.58a646.188 646.188 0 0 0-25.153 7.566c-8.475 2.728-16.96 5.433-25.472 8.035-3.725 1.41-8.37 1.617-11.606-1.04-2.614-1.846-3.746-5.324-2.982-8.391.6-3.026 3.554-5.6 6.713-5.166 2.277.276 4.64 2.512 3.787 4.94-.47 2.292-2.796.887-3.093-.712-1.15-.4-2.389 2.273-1.238 3.356 1.128 1.994 4.044 1.767 5.55.357 2.016-1.83 2.198-5.09.675-7.285-1.408-2.337-4.168-3.512-6.834-3.384zm177.403 0c-2.667-.127-5.427 1.048-6.835 3.385-1.523 2.196-1.34 5.456.675 7.285 1.506 1.41 4.423 1.637 5.55-.357 1.151-1.083-.088-3.756-1.237-3.356-.298 1.6-2.623 3.004-3.094.713-.853-2.43 1.51-4.665 3.788-4.941 3.158-.435 6.112 2.14 6.712 5.166.765 3.067-.368 6.545-2.981 8.39-3.236 2.658-7.881 2.45-11.606 1.04-8.513-2.601-17.006-5.306-25.482-8.034-8.332-2.683-16.71-5.224-25.143-7.565-3.632-1.164-7.74-2.224-11.4-.581-4.72 1.633-8.13 6.576-7.585 11.606.358 4.844 4.989 9.313 9.975 8.597 3.178-.315 6.025-2.916 6.357-6.132.287-2.57-1.554-5.493-4.313-5.568-1.835-.25-3.652 1.466-3.31 3.318.263 1.157 2.243 2.356 2.223.488 1.07-2.276 3.174.026 2.634 1.725-.48 2.85-4.066 4.314-6.581 3.14-3.59-1.266-5.002-5.712-3.938-9.14 1.059-3.567 4.704-5.91 8.325-6.094 2.335-.219 4.61.466 6.788 1.21 12.885 3.618 25.645 7.655 38.362 11.821 5.663 1.755 11.315 3.578 17.09 4.922 6.231.87 13.026-3.863 13.52-10.312.557-4.681-2.671-9.629-7.36-10.594a7.995 7.995 0 0 0-1.134-.131zm-88.781 3.591c-3.953 0-7.182 3.22-7.182 7.172 0 3.952 3.23 7.182 7.182 7.182 3.952 0 7.171-3.23 7.171-7.182 0-3.952-3.22-7.172-7.171-7.172zm0 1.82a5.338 5.338 0 0 1 5.353 5.352 5.346 5.346 0 0 1-5.353 5.363 5.354 5.354 0 0 1-5.363-5.363 5.346 5.346 0 0 1 5.363-5.353z"/><path style="fill:#000;fill-opacity:.09411765;fill-rule:evenodd;stroke:none;stroke-width:2;stroke-linecap:butt;stroke-linejoin:miter;stroke-miterlimit:4;stroke-opacity:1" d="M101.978 7.703a7.496 7.496 0 0 0-1.847.038c-3.178.315-6.024 2.925-6.356 6.14-.288 2.57 1.554 5.494 4.312 5.57 1.836.249 3.652-1.477 3.31-3.329-.263-1.157-2.243-2.355-2.222-.487-1.071 2.276-3.175-.017-2.635-1.716.48-2.85 4.067-4.323 6.582-3.15 3.589 1.267 5.001 5.712 3.937 9.14-1.058 3.568-4.704 5.92-8.325 6.104-2.334.219-4.61-.475-6.787-1.22C79.06 21.176 66.3 17.148 53.584 12.982c-5.662-1.754-11.315-3.578-17.09-4.921-6.231-.871-13.026 3.854-13.52 10.303-.556 4.68 2.671 9.628 7.36 10.593 2.982.577 6.37-.582 7.978-3.253 1.523-2.195 1.332-5.455-.684-7.284-1.506-1.41-4.422-1.638-5.55.356-1.15 1.084.089 3.757 1.237 3.356.298-1.599 2.623-3.003 3.094-.712.854 2.429-1.51 4.674-3.787 4.95-3.159.435-6.113-2.14-6.713-5.166-.764-3.067.368-6.555 2.981-8.4 3.236-2.657 7.882-2.45 11.607-1.04 8.513 2.602 17.006 5.306 25.481 8.034 8.332 2.684 16.71 5.225 25.144 7.566 3.632 1.163 7.739 2.224 11.4.58 4.719-1.633 8.13-6.575 7.584-11.605-.313-4.239-3.897-8.192-8.128-8.635zm36.431.14c-4.231.443-7.815 4.397-8.128 8.635-.546 5.03 2.865 9.973 7.584 11.607 3.661 1.642 7.768.582 11.4-.582 8.435-2.34 16.812-4.882 25.144-7.565 8.475-2.728 16.969-5.433 25.481-8.035 3.725-1.409 8.371-1.617 11.607 1.04 2.613 1.846 3.745 5.324 2.981 8.392-.6 3.025-3.554 5.61-6.713 5.175-2.277-.277-4.64-2.522-3.787-4.95.47-2.292 2.796-.887 3.094.712 1.148.4 2.388-2.272 1.237-3.356-1.128-1.994-4.044-1.767-5.55-.356-2.015 1.829-2.198 5.088-.675 7.284 1.609 2.671 4.987 3.83 7.969 3.253 4.689-.965 7.916-5.913 7.36-10.594-.494-6.448-7.289-11.183-13.52-10.312-5.775 1.344-11.427 3.177-17.09 4.931-12.717 4.166-25.477 8.194-38.363 11.813-2.177.743-4.453 1.437-6.787 1.218-3.62-.183-7.267-2.536-8.325-6.103-1.064-3.428.349-7.873 3.937-9.14 2.516-1.174 6.102.3 6.582 3.15.54 1.699-1.564 3.991-2.635 1.715.02-1.868-1.96-.669-2.222.488-.342 1.852 1.474 3.577 3.31 3.328 2.758-.075 4.6-3.009 4.312-5.578-.332-3.216-3.178-5.816-6.356-6.132a7.496 7.496 0 0 0-1.847-.037zm-18.319 3.3c-3.952 0-7.18 3.23-7.18 7.182 0 3.952 3.228 7.181 7.18 7.181 3.953 0 7.172-3.229 7.172-7.18 0-3.953-3.22-7.182-7.172-7.182zm0 1.82a5.354 5.354 0 0 1 5.363 5.362 5.354 5.354 0 0 1-5.363 5.363 5.354 5.354 0 0 1-5.362-5.363 5.354 5.354 0 0 1 5.362-5.362zM13.562 22.59c-4.338.351-8.302 3.474-9.73 7.603-1.644 3.66-.583 7.768.58 11.4 2.341 8.434 4.882 16.812 7.566 25.144 2.728 8.475 5.432 16.968 8.034 25.48 1.41 3.726 1.617 8.372-1.04 11.607-1.845 2.613-5.323 3.746-8.39 2.981-3.027-.6-5.61-3.554-5.176-6.712.276-2.277 2.521-4.641 4.95-3.788 2.291.471.887 2.787-.712 3.085-.4 1.148 2.272 2.397 3.356 1.247 1.994-1.128 1.767-4.045.356-5.55-1.829-2.016-5.089-2.208-7.284-.685-2.671 1.609-3.83 4.996-3.253 7.978.965 4.69 5.912 7.917 10.593 7.36 6.45-.493 11.183-7.288 10.313-13.519-1.344-5.776-3.177-11.428-4.931-17.09C14.628 66.413 10.6 53.653 6.98 40.768c-.744-2.178-1.438-4.453-1.219-6.788.184-3.62 2.536-7.266 6.103-8.325 3.429-1.064 7.874.349 9.141 3.938 1.173 2.515-.3 6.101-3.15 6.581-1.7.54-3.992-1.563-1.716-2.634 1.868.02.67-1.96-.487-2.222-1.852-.343-3.578 1.474-3.328 3.31.075 2.758 3.008 4.6 5.578 4.312 3.215-.332 5.816-3.178 6.131-6.356.716-4.987-3.753-9.617-8.597-9.975a9.924 9.924 0 0 0-1.875-.02zm213.263.131a9.93 9.93 0 0 0-1.875.028c-4.844.358-9.313 4.989-8.597 9.975.315 3.178 2.916 6.015 6.131 6.347 2.57.287 5.503-1.554 5.578-4.312.25-1.836-1.476-3.653-3.328-3.31-1.156.263-2.355 2.242-.487 2.222 2.276 1.071-.017 3.184-1.716 2.644-2.85-.48-4.323-4.066-3.15-6.581 1.267-3.59 5.713-5.011 9.14-3.947 3.568 1.058 5.92 4.713 6.104 8.334.219 2.335-.475 4.6-1.219 6.778-3.619 12.885-7.646 25.655-11.812 38.372-1.755 5.663-3.588 11.315-4.932 17.09-.87 6.231 3.864 13.026 10.313 13.52 4.681.556 9.628-2.68 10.594-7.37.577-2.981-.582-6.36-3.254-7.968-2.195-1.523-5.455-1.331-7.284.684-1.41 1.506-1.638 4.423.356 5.55 1.084 1.15 3.757-.098 3.357-1.247-1.6-.297-3.004-2.623-.713-3.093 2.429-.854 4.674 1.51 4.95 3.787.435 3.159-2.15 6.122-5.175 6.722-3.068.764-6.546-.368-8.39-2.981-2.658-3.236-2.45-7.89-1.041-11.616 2.602-8.513 5.306-16.997 8.034-25.472 2.684-8.332 5.225-16.71 7.566-25.143 1.163-3.633 2.224-7.74.581-11.4-1.43-4.13-5.393-7.262-9.731-7.613zM13.337 112.806c-3.952 0-7.18 3.22-7.18 7.172 0 3.952 3.228 7.182 7.18 7.182 3.952 0 7.172-3.23 7.172-7.182 0-3.952-3.22-7.172-7.172-7.172zm213.713.132c-3.952 0-7.172 3.229-7.172 7.18 0 3.953 3.22 7.173 7.172 7.173 3.952 0 7.181-3.22 7.181-7.172 0-3.952-3.23-7.181-7.181-7.181zm-213.713 1.687a5.338 5.338 0 0 1 5.353 5.353 5.346 5.346 0 0 1-5.353 5.363 5.354 5.354 0 0 1-5.362-5.363 5.346 5.346 0 0 1 5.362-5.353zm213.713.131a5.354 5.354 0 0 1 5.362 5.363 5.346 5.346 0 0 1-5.362 5.353 5.338 5.338 0 0 1-5.353-5.353 5.346 5.346 0 0 1 5.353-5.363zM11.397 130.094c-4.096.309-7.987 3.294-8.832 7.397-.577 2.982.582 6.36 3.254 7.969 2.195 1.523 5.455 1.33 7.284-.685 1.41-1.506 1.638-4.422-.356-5.55-1.084-1.15-3.757.098-3.357 1.247 1.6.298 3.004 2.623.713 3.094-2.429.853-4.674-1.51-4.95-3.788-.435-3.158 2.15-6.122 5.175-6.722 3.068-.764 6.546.378 8.39 2.991 2.658 3.236 2.45 7.881 1.041 11.606-2.602 8.513-5.306 16.997-8.034 25.472-2.684 8.332-5.225 16.71-7.566 25.144-1.163 3.632-2.224 7.739-.581 11.4 1.633 4.719 6.576 8.13 11.606 7.584 4.844-.358 9.313-4.988 8.597-9.975-.315-3.178-2.916-6.015-6.131-6.347-2.57-.287-5.503 1.554-5.578 4.313-.25 1.835 1.476 3.652 3.328 3.31 1.156-.263 2.355-2.243.487-2.223-2.276-1.07.017-3.184 1.716-2.643 2.85.48 4.323 4.075 3.15 6.59-1.267 3.59-5.713 5.002-9.14 3.938-3.568-1.059-5.92-4.714-6.104-8.335-.219-2.334.475-4.6 1.219-6.778 3.619-12.885 7.646-25.654 11.812-38.372 1.755-5.662 3.588-11.314 4.932-17.09.87-6.23-3.864-13.026-10.313-13.519a9.125 9.125 0 0 0-1.762-.028zm217.04 0a9.125 9.125 0 0 0-1.762.028c-6.449.493-11.183 7.288-10.313 13.519 1.344 5.776 3.177 11.428 4.932 17.09 4.166 12.718 8.193 25.487 11.812 38.372.744 2.178 1.438 4.444 1.219 6.778-.183 3.621-2.536 7.276-6.103 8.335-3.428 1.064-7.874-.349-9.14-3.938-1.174-2.515.3-6.11 3.15-6.59 1.698-.54 3.99 1.572 1.715 2.643-1.868-.02-.67 1.96.487 2.222 1.852.343 3.578-1.474 3.328-3.31-.075-2.758-3.008-4.599-5.578-4.312-3.215.332-5.816 3.17-6.131 6.347-.716 4.987 3.753 9.617 8.597 9.975 5.03.546 9.973-2.865 11.606-7.584 1.643-3.661.582-7.768-.581-11.4-2.341-8.434-4.882-16.812-7.566-25.144-2.728-8.475-5.432-16.959-8.034-25.472-1.41-3.725-1.617-8.37 1.04-11.606 1.845-2.613 5.323-3.755 8.391-2.99 3.026.6 5.61 3.563 5.175 6.721-.276 2.278-2.521 4.641-4.95 3.788-2.291-.471-.887-2.796.713-3.094.4-1.149-2.273-2.397-3.357-1.247-1.994 1.128-1.766 4.044-.356 5.55 1.83 2.016 5.089 2.208 7.284.685 2.672-1.61 3.83-4.987 3.254-7.97-.845-4.102-4.736-7.087-8.832-7.396zM31.215 210.775c-.38.018-.761.06-1.134.131-4.689.966-7.916 5.913-7.36 10.594.494 6.449 7.289 11.183 13.52 10.313 5.775-1.344 11.428-3.168 17.09-4.922 12.717-4.166 25.477-8.203 38.363-11.822 2.177-.744 4.453-1.429 6.787-1.21 3.621.184 7.267 2.527 8.325 6.094 1.064 3.428-.348 7.874-3.937 9.14-2.516 1.174-6.102-.29-6.582-3.14-.54-1.7 1.564-4 2.635-1.725-.02 1.868 1.96.67 2.222-.487.342-1.852-1.474-3.569-3.31-3.319-2.758.075-4.6 3-4.312 5.569.332 3.215 3.178 5.816 6.356 6.131 4.986.716 9.617-3.753 9.975-8.597.546-5.03-2.865-9.973-7.584-11.606-3.661-1.643-7.768-.582-11.4.581-8.435 2.341-16.821 4.882-25.154 7.566-8.475 2.728-16.959 5.432-25.471 8.034-3.725 1.41-8.371 1.617-11.607-1.04-2.613-1.846-3.745-5.323-2.98-8.391.599-3.026 3.553-5.6 6.712-5.166 2.277.276 4.64 2.512 3.787 4.94-.47 2.292-2.796.888-3.094-.712-1.148-.4-2.388 2.273-1.237 3.357 1.128 1.994 4.044 1.766 5.55.356 2.016-1.83 2.198-5.089.675-7.284-1.408-2.338-4.168-3.513-6.835-3.385zm177.404 0c-2.667-.128-5.427 1.047-6.835 3.385-1.523 2.195-1.34 5.455.675 7.284 1.506 1.41 4.422 1.638 5.55-.356 1.15-1.084-.089-3.757-1.237-3.357-.298 1.6-2.623 3.004-3.094.713-.854-2.429 1.51-4.665 3.787-4.94 3.159-.435 6.113 2.14 6.713 5.165.764 3.068-.368 6.545-2.981 8.39-3.236 2.658-7.882 2.45-11.607 1.041-8.512-2.602-17.006-5.306-25.48-8.034-8.333-2.684-16.71-5.225-25.145-7.566-3.632-1.163-7.739-2.224-11.4-.581-4.719 1.633-8.13 6.576-7.584 11.606.358 4.844 4.989 9.313 9.975 8.597 3.178-.315 6.024-2.916 6.356-6.131.288-2.57-1.554-5.494-4.312-5.569-1.836-.25-3.652 1.467-3.31 3.319.263 1.156 2.243 2.355 2.222.487 1.071-2.276 3.175.026 2.635 1.725-.48 2.85-4.066 4.314-6.582 3.14-3.589-1.266-5.001-5.712-3.937-9.14 1.058-3.567 4.704-5.91 8.325-6.093 2.334-.22 4.61.465 6.787 1.209 12.886 3.619 25.646 7.656 38.363 11.822 5.663 1.754 11.315 3.578 17.09 4.922 6.231.87 13.026-3.864 13.52-10.313.556-4.681-2.671-9.628-7.36-10.594a7.997 7.997 0 0 0-1.134-.13zm-88.782 3.59c-3.952 0-7.18 3.22-7.18 7.173 0 3.952 3.228 7.18 7.18 7.18 3.952 0 7.172-3.228 7.172-7.18 0-3.952-3.22-7.172-7.172-7.172zm0 1.82a5.338 5.338 0 0 1 5.353 5.353 5.346 5.346 0 0 1-5.353 5.362 5.354 5.354 0 0 1-5.362-5.362 5.346 5.346 0 0 1 5.362-5.353z"/><path d="M49.08 70.727c16.147 1.194 31.054 16.622 28.667 33.244-1.05 10.593-9.74 20.064-20.459 21.17-8.565.958-18.319-5.176-18.57-14.37-.832-6.12 4.915-12.173 11.089-11.031 3.855.874 7.853 7.472 1.627 7.404-7.587 3.57.058 10.598 5.722 8.797 9.498-1.6 14.4-13.563 10.49-21.947C63.423 82.031 48.61 77.32 37.183 80.868c-11.89 3.528-19.729 15.694-20.34 27.764-.73 7.781 1.574 15.345 4.054 22.604 12.062 42.951 25.5 85.5 39.386 127.89C66.132 278 72.215 296.85 76.695 316.103c2.902 20.768-12.869 43.407-34.365 45.051-15.604 1.857-32.09-8.908-35.308-24.537-1.924-9.94 1.943-21.208 10.847-26.57 7.32-5.077 18.174-4.45 24.27 2.269 4.702 5.019 5.46 14.735-1.187 18.494-3.612 3.836-12.518-.31-11.183-4.138 5.33-.992 10.013-8.737 2.376-10.306-8.096-2.845-15.568 5.035-16.488 12.626-1.45 10.528 7.14 20.395 17.225 22.394 10.226 2.548 21.827-1.24 27.977-9.952 8.858-10.785 8.171-26.282 3.473-38.698-8.672-28.376-17.69-56.66-26.783-84.91-8.945-27.775-17.41-55.706-25.213-83.82-3.879-12.108-7.411-25.799-1.935-38.002 5.445-15.73 21.912-27.097 38.68-25.277z" style="fill:url(#b);fill-opacity:1;fill-rule:evenodd;stroke:url(#linearGradient9128);stroke-width:6.66666698;stroke-linecap:butt;stroke-linejoin:miter;stroke-miterlimit:4;stroke-opacity:1" transform="scale(.3)"/><path d="M364.635 49.82c-1.194-16.146-16.622-31.053-33.243-28.666-10.594 1.05-20.065 9.74-21.171 20.459-.958 8.565 5.176 18.32 14.371 18.57 6.118.832 12.173-4.915 11.03-11.088-.874-3.856-7.472-7.854-7.404-1.628-3.57 7.587-10.597-.057-8.797-5.722 1.6-9.498 13.563-14.4 21.947-10.49 11.963 4.223 16.674 19.036 13.127 30.463-3.528 11.89-15.695 19.729-27.764 20.34-7.782.73-15.346-1.574-22.605-4.053-42.951-12.063-85.5-25.5-127.89-39.387-18.875-5.848-37.724-11.932-56.976-16.412-20.77-2.902-43.408 12.869-45.052 34.365-1.857 15.604 8.908 32.09 24.537 35.308 9.94 1.924 21.209-1.943 26.571-10.847 5.077-7.32 4.45-18.174-2.27-24.27-5.018-4.702-14.735-5.46-18.494 1.187-3.835 3.612.31 12.518 4.138 11.183.992-5.33 8.737-10.013 10.306-2.375 2.846 8.095-5.034 15.567-12.626 16.487-10.528 1.45-20.395-7.14-22.394-17.225-2.548-10.226 1.24-21.826 9.952-27.977 10.785-8.858 26.282-8.171 38.698-3.473 28.376 8.673 56.66 17.69 84.91 26.783 27.775 8.945 55.706 17.41 83.82 25.213 12.108 3.879 25.799 7.411 38.002 1.936 15.73-5.445 27.097-21.913 25.277-38.68z" style="fill:url(#c);fill-opacity:1;fill-rule:evenodd;stroke:url(#linearGradient9132);stroke-width:6.66666698;stroke-linecap:butt;stroke-linejoin:miter;stroke-miterlimit:4;stroke-opacity:1" transform="scale(.3)"/><path d="M397.923 32.516C384.75 32.516 374 43.266 374 56.439c0 13.173 10.75 23.923 23.923 23.923 13.174 0 23.924-10.75 23.924-23.923 0-13.174-10.75-23.923-23.924-23.923zm0 6.06a17.825 17.825 0 0 1 17.862 17.863A17.825 17.825 0 0 1 397.923 74.3a17.825 17.825 0 0 1-17.862-17.862 17.825 17.825 0 0 1 17.862-17.862z" style="fill:url(#d);fill-opacity:1;fill-rule:evenodd;stroke:url(#linearGradient9136);stroke-width:6.66666317;stroke-miterlimit:4;stroke-opacity:1" transform="scale(.3)"/><path d="M42.077 371.362c-13.174 0-23.924 10.75-23.924 23.924 0 13.173 10.75 23.923 23.924 23.923 13.173 0 23.923-10.75 23.923-23.923 0-13.174-10.75-23.924-23.923-23.924zm0 6.062a17.825 17.825 0 0 1 17.862 17.862 17.825 17.825 0 0 1-17.862 17.862 17.825 17.825 0 0 1-17.862-17.862 17.825 17.825 0 0 1 17.862-17.862z" style="fill:url(#e);fill-opacity:1;fill-rule:evenodd;stroke:url(#linearGradient9140);stroke-width:6.66666317;stroke-miterlimit:4;stroke-opacity:1" transform="scale(.3)"/><path d="M747.458 71.188c-16.146 1.194-31.053 16.622-28.666 33.244 1.05 10.593 9.74 20.064 20.459 21.17 8.565.958 18.319-5.176 18.57-14.37.832-6.12-4.915-12.173-11.089-11.03-3.855.874-7.853 7.471-1.627 7.403 7.587 3.57-.058 10.598-5.722 8.797-9.498-1.6-14.4-13.563-10.49-21.947 4.223-11.963 19.036-16.674 30.463-13.126 11.89 3.528 19.729 15.694 20.34 27.764.73 7.781-1.574 15.345-4.054 22.604-12.062 42.951-25.5 85.5-39.386 127.89-5.849 18.875-11.932 37.724-16.412 56.977-2.902 20.768 12.869 43.408 34.365 45.051 15.604 1.857 32.09-8.908 35.308-24.537 1.924-9.94-1.943-21.208-10.847-26.57-7.32-5.077-18.174-4.45-24.27 2.269-4.702 5.019-5.46 14.735 1.187 18.494 3.612 3.836 12.518-.31 11.183-4.138-5.33-.992-10.013-8.737-2.376-10.306 8.096-2.845 15.568 5.035 16.488 12.626 1.45 10.528-7.14 20.395-17.225 22.394-10.226 2.548-21.827-1.24-27.977-9.952-8.858-10.785-8.171-26.282-3.473-38.698 8.672-28.376 17.69-56.66 26.783-84.91 8.945-27.775 17.41-55.706 25.213-83.82 3.879-12.108 7.411-25.799 1.935-38.002-5.445-15.73-21.912-27.097-38.68-25.277z" style="fill:url(#f);fill-opacity:1;fill-rule:evenodd;stroke:url(#linearGradient9144);stroke-width:6.66666698;stroke-linecap:butt;stroke-linejoin:miter;stroke-miterlimit:4;stroke-opacity:1" transform="scale(.3)"/><path d="M431.904 50.281c1.194-16.146 16.622-31.053 33.243-28.666 10.594 1.05 20.065 9.74 21.171 20.459.958 8.566-5.176 18.32-14.371 18.57-6.118.832-12.173-4.915-11.03-11.088.874-3.856 7.472-7.854 7.404-1.628 3.57 7.587 10.597-.057 8.797-5.722-1.6-9.498-13.563-14.4-21.947-10.49-11.963 4.223-16.674 19.036-13.127 30.463 3.528 11.89 15.695 19.729 27.764 20.34 7.782.73 15.346-1.574 22.605-4.053 42.951-12.063 85.5-25.5 127.89-39.387 18.875-5.848 37.724-11.932 56.976-16.412 20.77-2.902 43.408 12.869 45.052 34.365 1.857 15.604-8.908 32.09-24.537 35.309-9.94 1.923-21.209-1.944-26.571-10.848-5.077-7.319-4.45-18.174 2.27-24.27 5.018-4.702 14.735-5.46 18.494 1.187 3.835 3.612-.31 12.518-4.138 11.183-.992-5.33-8.737-10.013-10.306-2.375-2.846 8.095 5.034 15.567 12.626 16.488 10.528 1.448 20.395-7.14 22.394-17.226 2.548-10.226-1.24-21.826-9.952-27.976-10.785-8.859-26.282-8.172-38.698-3.474-28.376 8.673-56.66 17.69-84.91 26.783-27.775 8.945-55.706 17.41-83.82 25.213-12.108 3.879-25.799 7.411-38.002 1.936-15.73-5.445-27.097-21.913-25.277-38.68z" style="fill:url(#g);fill-opacity:1;fill-rule:evenodd;stroke:url(#linearGradient9148);stroke-width:6.66666698;stroke-linecap:butt;stroke-linejoin:miter;stroke-miterlimit:4;stroke-opacity:1" transform="scale(.3)"/><path d="M754.462 371.823c13.174 0 23.924 10.75 23.924 23.924 0 13.173-10.75 23.923-23.924 23.923-13.173 0-23.923-10.75-23.923-23.923 0-13.174 10.75-23.924 23.923-23.924zm0 6.062a17.825 17.825 0 0 0-17.862 17.862 17.825 17.825 0 0 0 17.862 17.862 17.825 17.825 0 0 0 17.862-17.862 17.825 17.825 0 0 0-17.862-17.862z" style="fill:url(#h);fill-opacity:1;fill-rule:evenodd;stroke:url(#linearGradient9152);stroke-width:6.66666317;stroke-miterlimit:4;stroke-opacity:1" transform="scale(.3)"/><path d="M48.234 719.536c16.147-1.194 31.054-16.622 28.667-33.243-1.05-10.594-9.741-20.065-20.46-21.171-8.565-.958-18.319 5.176-18.569 14.371-.832 6.119 4.915 12.173 11.088 11.03 3.855-.874 7.854-7.472 1.627-7.404-7.587-3.57.058-10.597 5.722-8.796 9.499 1.6 14.401 13.562 10.49 21.946-4.223 11.964-19.036 16.674-30.463 13.127-11.89-3.528-19.728-15.695-20.339-27.764-.73-7.782 1.573-15.346 4.053-22.605 12.063-42.951 25.5-85.5 39.387-127.89 5.848-18.875 11.932-37.724 16.411-56.976 2.902-20.769-12.868-43.408-34.364-45.052-15.604-1.856-32.091 8.908-35.309 24.537-1.923 9.94 1.944 21.209 10.848 26.571 7.319 5.077 18.173 4.45 24.27-2.27 4.702-5.018 5.459-14.735-1.187-18.494-3.613-3.835-12.519.31-11.184 4.138 5.331.992 10.014 8.737 2.376 10.306-8.096 2.846-15.568-5.034-16.488-12.625-1.449-10.528 7.14-20.396 17.226-22.395 10.225-2.548 21.826 1.24 27.976 9.952 8.858 10.785 8.171 26.282 3.474 38.698-8.673 28.377-17.69 56.66-26.784 84.911-8.945 27.774-17.41 55.705-25.213 83.82-3.878 12.107-7.41 25.798-1.935 38.001 5.445 15.73 21.912 27.097 38.68 25.277z" style="fill:url(#i);fill-opacity:1;fill-rule:evenodd;stroke:url(#linearGradient9156);stroke-width:6.66666698;stroke-linecap:butt;stroke-linejoin:miter;stroke-miterlimit:4;stroke-opacity:1" transform="scale(.3)"/><path d="M363.788 740.443c-1.193 16.147-16.622 31.054-33.243 28.666-10.594-1.05-20.064-9.74-21.17-20.459-.959-8.565 5.175-18.319 14.37-18.57 6.119-.832 12.173 4.915 11.03 11.089-.874 3.855-7.472 7.854-7.404 1.627-3.57-7.587-10.597.058-8.796 5.722 1.6 9.498 13.563 14.401 21.947 10.49 11.963-4.223 16.673-19.036 13.126-30.463-3.528-11.89-15.694-19.728-27.764-20.34-7.782-.73-15.345 1.574-22.605 4.054-42.95 12.062-85.499 25.5-127.89 39.386-18.875 5.849-37.723 11.932-56.976 16.412-20.769 2.902-43.408-12.869-45.052-34.365-1.856-15.604 8.908-32.09 24.538-35.308 9.94-1.924 21.208 1.944 26.57 10.847 5.077 7.32 4.45 18.174-2.269 24.271-5.02 4.701-14.736 5.459-18.495-1.188-3.835-3.612.31-12.518 4.139-11.183.991 5.33 8.736 10.013 10.306 2.376 2.845-8.096-5.035-15.568-12.626-16.488-10.528-1.449-20.395 7.14-22.394 17.226-2.548 10.225 1.24 21.826 9.951 27.976 10.785 8.858 26.282 8.171 38.699 3.474 28.376-8.673 56.66-17.69 84.91-26.784 27.774-8.945 55.706-17.41 83.82-25.213 12.107-3.878 25.798-7.41 38.001-1.935 15.73 5.445 27.097 21.912 25.277 38.68z" style="fill:url(#j);fill-opacity:1;fill-rule:evenodd;stroke:url(#linearGradient9160);stroke-width:6.66666698;stroke-linecap:butt;stroke-linejoin:miter;stroke-miterlimit:4;stroke-opacity:1" transform="scale(.3)"/><path d="M397.077 757.748c-13.174 0-23.924-10.75-23.924-23.924 0-13.173 10.75-23.923 23.924-23.923 13.173 0 23.923 10.75 23.923 23.923 0 13.174-10.75 23.924-23.923 23.924zm0-6.062a17.825 17.825 0 0 0 17.862-17.862 17.825 17.825 0 0 0-17.862-17.862 17.825 17.825 0 0 0-17.862 17.862 17.825 17.825 0 0 0 17.862 17.862z" style="fill:url(#k);fill-opacity:1;fill-rule:evenodd;stroke:url(#linearGradient9164);stroke-width:6.66666317;stroke-miterlimit:4;stroke-opacity:1" transform="scale(.3)"/><path d="M746.458 719.536c-16.146-1.194-31.053-16.622-28.666-33.243 1.05-10.594 9.74-20.065 20.459-21.171 8.565-.958 18.319 5.176 18.57 14.371.832 6.119-4.915 12.173-11.089 11.03-3.855-.874-7.853-7.472-1.627-7.404 7.587-3.57-.058-10.597-5.722-8.796-9.498 1.6-14.4 13.562-10.49 21.946 4.223 11.964 19.036 16.674 30.463 13.127 11.89-3.528 19.729-15.695 20.34-27.764.73-7.782-1.574-15.346-4.054-22.605-12.062-42.951-25.5-85.5-39.386-127.89-5.849-18.875-11.932-37.724-16.412-56.976-2.902-20.769 12.869-43.408 34.365-45.052 15.604-1.856 32.09 8.908 35.308 24.537 1.924 9.94-1.943 21.209-10.847 26.571-7.32 5.077-18.174 4.45-24.27-2.27-4.702-5.018-5.46-14.735 1.187-18.494 3.612-3.835 12.518.31 11.183 4.138-5.33.992-10.013 8.737-2.376 10.306 8.096 2.846 15.568-5.034 16.488-12.625 1.45-10.528-7.14-20.396-17.225-22.395-10.226-2.548-21.827 1.24-27.977 9.952-8.858 10.785-8.171 26.282-3.473 38.698 8.672 28.377 17.69 56.66 26.783 84.911 8.945 27.774 17.41 55.705 25.213 83.82 3.879 12.107 7.411 25.798 1.935 38.001-5.445 15.73-21.912 27.097-38.68 25.277z" style="fill:url(#l);fill-opacity:1;fill-rule:evenodd;stroke:url(#linearGradient9168);stroke-width:6.66666698;stroke-linecap:butt;stroke-linejoin:miter;stroke-miterlimit:4;stroke-opacity:1" transform="scale(.3)"/><path d="M430.904 740.443c1.194 16.147 16.622 31.054 33.243 28.666 10.594-1.05 20.065-9.74 21.171-20.459.958-8.565-5.176-18.319-14.371-18.57-6.118-.832-12.173 4.915-11.03 11.089.874 3.855 7.472 7.854 7.404 1.627 3.57-7.587 10.597.058 8.797 5.722-1.6 9.498-13.563 14.401-21.947 10.49-11.963-4.223-16.674-19.036-13.127-30.463 3.528-11.89 15.695-19.728 27.764-20.34 7.782-.73 15.346 1.574 22.605 4.054 42.951 12.062 85.5 25.5 127.89 39.386 18.875 5.849 37.724 11.932 56.976 16.412 20.77 2.902 43.408-12.869 45.052-34.365 1.857-15.604-8.908-32.09-24.537-35.308-9.94-1.924-21.209 1.944-26.571 10.847-5.077 7.32-4.45 18.174 2.27 24.271 5.018 4.701 14.735 5.459 18.494-1.188 3.835-3.612-.31-12.518-4.138-11.183-.992 5.33-8.737 10.013-10.306 2.376-2.846-8.096 5.034-15.568 12.626-16.488 10.528-1.449 20.395 7.14 22.394 17.226 2.548 10.225-1.24 21.826-9.952 27.976-10.785 8.858-26.282 8.171-38.698 3.474-28.376-8.673-56.66-17.69-84.91-26.784-27.775-8.945-55.706-17.41-83.82-25.213-12.108-3.878-25.799-7.41-38.002-1.935-15.73 5.445-27.097 21.912-25.277 38.68z" style="fill:url(#m);fill-opacity:1;fill-rule:evenodd;stroke:url(#linearGradient9172);stroke-width:6.66666698;stroke-linecap:butt;stroke-linejoin:miter;stroke-miterlimit:4;stroke-opacity:1" transform="scale(.3)"/></svg>