<svg xmlns="http://www.w3.org/2000/svg" viewBox="69.5 -163.3 640 400" width="640pt" height="400pt"><defs><marker orient="auto" overflow="visible" markerUnits="strokeWidth" id="a" viewBox="-1 -4 10 8" markerWidth="10" markerHeight="8" color="#000"><path d="M8 0 0-3v6z" fill="currentColor" stroke="currentColor"/></marker><marker orient="auto" overflow="visible" markerUnits="strokeWidth" id="b" viewBox="-9 -4 10 8" markerWidth="10" markerHeight="8" color="#000"><path d="m-8 0 8 3v-6z" fill="currentColor" stroke="currentColor"/></marker></defs><g fill="none"><path fill="#fff" d="M0 0h640v400H0z"/><path fill="#dfdfff" d="M69.5-163.3h640v400h-640z"/><path stroke="#000" stroke-linecap="round" stroke-linejoin="round" d="M69.5-163.3h640v400h-640z"/><path fill="#fff" d="M69.5-163.3h640v19.875h-640z"/><path stroke="#000" stroke-linecap="round" stroke-linejoin="round" d="M69.5-163.3h640v19.875h-640z"/><text font-family="Helvetica Neue" font-size="11" transform="translate(74.5 -161.559)" fill="#000">
        <tspan font-weight="500" x="0" y="13">  Firefox</tspan> <tspan font-weight="300" x="55" y="13">File  Edit  View  History  Bookmarks  Tools  Window  Help</tspan>
      </text><path fill="#d6d5d7" fill-opacity=".75" d="M289.5 176.7h190v60h-190z"/><path stroke="#000" stroke-linecap="round" stroke-linejoin="round" d="M289.5 176.7h190v60h-190z"/><path marker-end="url(#a)" marker-start="url(#b)" stroke="#000" stroke-linecap="round" stroke-linejoin="round" d="M519.5-153.4v390.2m-140-380.2v310.2"/><text transform="translate(534.5 21.7)" fill="#000">
        <tspan font-family="Courier" font-size="16" font-weight="500" x="0" y="15" textLength="57.609">height</tspan>
      </text><text transform="translate(264.5 21.7)" fill="#000">
        <tspan font-family="Courier" font-size="16" font-weight="500" x=".383" y="15" textLength="105.617">availHeight</tspan>
      </text><circle cx="329.5" cy="206.7" r="20" fill="#00f"/><circle cx="329.5" cy="206.7" r="20" stroke="#000" stroke-linejoin="round"/><circle cx="384.5" cy="206.7" r="20" fill="#ff8080"/><circle cx="384.5" cy="206.7" r="20" stroke="#000" stroke-linejoin="round"/><circle cx="439.5" cy="206.7" r="20" fill="#666"/><circle cx="439.5" cy="206.7" r="20" stroke="#000" stroke-linejoin="round"/></g></svg>
