<svg xmlns="http://www.w3.org/2000/svg" width="640pt" height="400pt" viewBox="69.5 -163.3 640 400"><defs><marker id="a" color="#000" markerHeight="8" markerUnits="strokeWidth" markerWidth="10" orient="auto" overflow="visible" viewBox="-1 -4 10 8"><path fill="currentColor" stroke="currentColor" d="M8 0 0-3v6z"/></marker><marker id="b" color="#000" markerHeight="8" markerUnits="strokeWidth" markerWidth="10" orient="auto" overflow="visible" viewBox="-9 -4 10 8"><path fill="currentColor" stroke="currentColor" d="m-8 0 8 3v-6z"/></marker></defs><g fill="none"><path fill="#fff" d="M0 0h640v400H0z"/><path fill="#dfdfff" d="M69.5-163.3h640v400h-640z"/><path stroke="#000" stroke-linecap="round" stroke-linejoin="round" d="M69.5-163.3h640v400h-640z"/><path fill="#fff" d="M69.5-163.3h640v19.875h-640z"/><path stroke="#000" stroke-linecap="round" stroke-linejoin="round" d="M69.5-163.3h640v19.875h-640z"/><text fill="#000" font-family="Helvetica Neue" font-size="11" transform="translate(74.5 -161.559)"><tspan x="0" y="13" font-weight="500"> Firefox</tspan> <tspan x="55" y="13" font-weight="300">File Edit View History Bookmarks Tools Window Help</tspan></text><path fill="#d6d5d7" fill-opacity=".75" d="M289.5 176.7h190v60h-190z"/><path stroke="#000" stroke-linecap="round" stroke-linejoin="round" d="M289.5 176.7h190v60h-190z"/><path stroke="#000" stroke-linecap="round" stroke-linejoin="round" marker-end="url(#a)" marker-start="url(#b)" d="M519.5-153.4v390.2m-140-380.2v310.2"/><text fill="#000" transform="translate(534.5 21.7)"><tspan x="0" y="15" font-family="Courier" font-size="16" font-weight="500" textLength="57.609">height</tspan></text><text fill="#000" transform="translate(264.5 21.7)"><tspan x=".383" y="15" font-family="Courier" font-size="16" font-weight="500" textLength="105.617">availHeight</tspan></text><circle cx="329.5" cy="206.7" r="20" fill="#00f"/><circle cx="329.5" cy="206.7" r="20" stroke="#000" stroke-linejoin="round"/><circle cx="384.5" cy="206.7" r="20" fill="#ff8080"/><circle cx="384.5" cy="206.7" r="20" stroke="#000" stroke-linejoin="round"/><circle cx="439.5" cy="206.7" r="20" fill="#666"/><circle cx="439.5" cy="206.7" r="20" stroke="#000" stroke-linejoin="round"/></g></svg>