<svg xmlns="http://www.w3.org/2000/svg" viewBox="416.662 255.5 159.838 65" width="159.838" height="65"><g fill="none"><path fill="#929292" d="M448 256h32v32h-32z"/><path stroke="#000" stroke-linecap="round" stroke-linejoin="round" d="M448 256h32v32h-32z"/><path fill="#ebebeb" d="M480 256h32v32h-32z"/><path stroke="#000" stroke-linecap="round" stroke-linejoin="round" d="M480 256h32v32h-32z"/><path fill="#5e5e5e" d="M512 256h32v32h-32z"/><path stroke="#000" stroke-linecap="round" stroke-linejoin="round" d="M512 256h32v32h-32z"/><path fill="#fff" d="M544 256h32v32h-32z"/><path stroke="#000" stroke-linecap="round" stroke-linejoin="round" d="M544 256h32v32h-32z"/><path fill="#c1c1c1" d="M448 288h32v32h-32z"/><path stroke="#000" stroke-linecap="round" stroke-linejoin="round" d="M448 288h32v32h-32z"/><path fill="#000" d="M480 288h32v32h-32z"/><path stroke="#000" stroke-linecap="round" stroke-linejoin="round" d="M480 288h32v32h-32z"/><path fill="#ebebeb" d="M512 288h32v32h-32z"/><path stroke="#000" stroke-linecap="round" stroke-linejoin="round" d="M512 288h32v32h-32z"/><path fill="#929292" d="M544 288h32v32h-32z"/><path stroke="#000" stroke-linecap="round" stroke-linejoin="round" d="M544 288h32v32h-32z"/><text transform="translate(421.662 277)" fill="#000">
          <tspan font-family="Arial" font-size="24" font-weight="700" x="0" y="22">Y</tspan>
        </text></g></svg>