<svg xmlns="http://www.w3.org/2000/svg" xmlns:xl="http://www.w3.org/1999/xlink" viewBox="60 88 287 200" width="287pt" height="200pt"><defs><linearGradient x1="0" x2="1" id="a" gradientUnits="userSpaceOnUse"><stop offset="0" stop-color="#e5f2f2"/><stop offset="1" stop-color="#cff2f2"/></linearGradient><linearGradient id="c" xl:href="#a" gradientTransform="matrix(0 38 -38 0 183 90.5)"/><linearGradient id="d" xl:href="#a" gradientTransform="matrix(0 38 -38 0 135 141.5)"/><linearGradient id="e" xl:href="#a" gradientTransform="rotate(90 44.5 186) scale(38)"/><linearGradient x1="0" x2="1" id="b" gradientUnits="userSpaceOnUse"><stop offset="0" stop-color="#f29a8b"/><stop offset="1" stop-color="#f23d1c"/></linearGradient><linearGradient id="f" xl:href="#b" gradientTransform="rotate(90 41 237.5) scale(38)"/><linearGradient id="g" xl:href="#b" gradientTransform="rotate(90 -8.5 239) scale(38)"/><linearGradient id="h" xl:href="#b" gradientTransform="matrix(0 38 -38 0 326 247.5)"/><linearGradient id="j" xl:href="#a" gradientTransform="matrix(0 38 -38 0 81.5 196.5)"/><marker orient="auto" overflow="visible" markerUnits="strokeWidth" id="i" viewBox="-1 -4 10 8" markerWidth="10" markerHeight="8" color="#000"><path d="M8 0L0-3v6z" fill="currentColor" stroke="currentColor"/></marker></defs><g fill="none"><circle cx="183" cy="109.5" r="19" fill="url(#c)"/><circle cx="183" cy="109.5" r="19" stroke="#000" stroke-linecap="round" stroke-linejoin="round"/><text transform="translate(172.8 100.5)" fill="#000"><tspan font-family="Helvetica Neue" font-size="16" font-weight="500" x="4.72" y="15" textLength="10.96">R</tspan></text><circle cx="135" cy="160.5" r="19" fill="url(#d)"/><circle cx="135" cy="160.5" r="19" stroke="#000" stroke-linecap="round" stroke-linejoin="round"/><circle cx="230.5" cy="160.5" r="19" fill="url(#e)"/><circle cx="230.5" cy="160.5" r="19" stroke="#000" stroke-linecap="round" stroke-linejoin="round"/><circle cx="278.5" cy="215.5" r="19" fill="url(#f)"/><circle cx="278.5" cy="215.5" r="19" stroke="#000" stroke-linecap="round" stroke-linejoin="round"/><circle cx="230.5" cy="266.5" r="19" fill="url(#g)"/><circle cx="230.5" cy="266.5" r="19" stroke="#000" stroke-linecap="round" stroke-linejoin="round"/><circle cx="326" cy="266.5" r="19" fill="url(#h)"/><circle cx="326" cy="266.5" r="19" stroke="#000" stroke-linecap="round" stroke-linejoin="round"/><path marker-end="url(#i)" stroke="#000" stroke-linecap="round" stroke-linejoin="round" d="M169.978 123.336l-15.171 16.119m41.143-16.051l14.853 15.948m54.675 89.984l-15.171 16.119m41.143-16.051l14.853 15.948"/><circle cx="81.5" cy="215.5" r="19" fill="url(#j)"/><circle cx="81.5" cy="215.5" r="19" stroke="#000" stroke-linecap="round" stroke-linejoin="round"/><path marker-end="url(#i)" stroke="#000" stroke-linecap="round" stroke-linejoin="round" d="M121.752 174.119l-20.101 20.665"/></g></svg>