<svg xmlns="http://www.w3.org/2000/svg" xmlns:xl="http://www.w3.org/1999/xlink" viewBox="114 20 158 212" width="158pt" height="212pt"><defs><linearGradient x1="0" x2="1" id="a" gradientUnits="userSpaceOnUse"><stop offset="0" stop-color="#e5f2f2"/><stop offset="1" stop-color="#cff2f2"/></linearGradient><linearGradient id="b" xl:href="#a" gradientTransform="matrix(0 38 -38 0 183 90.5)"/><linearGradient id="c" xl:href="#a" gradientTransform="matrix(0 38 -38 0 135 141.5)"/><linearGradient id="d" xl:href="#a" gradientTransform="rotate(90 44.5 186) scale(38)"/><linearGradient id="f" xl:href="#a" gradientTransform="matrix(0 38 -38 0 183 191.5)"/><marker orient="auto" overflow="visible" markerUnits="strokeWidth" id="e" viewBox="-1 -4 10 8" markerWidth="10" markerHeight="8" color="#000"><path d="M8 0L0-3v6z" fill="currentColor" stroke="currentColor"/></marker><marker orient="auto" overflow="visible" markerUnits="strokeWidth" id="g" viewBox="-1 -4 10 8" markerWidth="10" markerHeight="8" color="#000"><path d="M8 0H0m0-3l8 3-8 3" fill="none" stroke="currentColor"/></marker></defs><g fill="none"><circle cx="183" cy="109.5" r="19" fill="url(#b)"/><circle cx="183" cy="109.5" r="19" stroke="#000" stroke-linecap="round" stroke-linejoin="round"/><circle cx="135" cy="160.5" r="19" fill="url(#c)"/><circle cx="135" cy="160.5" r="19" stroke="#000" stroke-linecap="round" stroke-linejoin="round"/><circle cx="230.5" cy="160.5" r="19" fill="url(#d)"/><circle cx="230.5" cy="160.5" r="19" stroke="#000" stroke-linecap="round" stroke-linejoin="round"/><path marker-end="url(#e)" stroke="#000" stroke-linecap="round" stroke-linejoin="round" d="M169.978 123.336l-15.171 16.119m41.143-16.051l14.853 15.948"/><circle cx="183" cy="210.5" r="19" fill="url(#f)"/><circle cx="183" cy="210.5" r="19" stroke="#000" stroke-linecap="round" stroke-linejoin="round"/><text transform="translate(172.8 201.5)" fill="#000"><tspan font-family="Helvetica Neue" font-size="16" font-weight="500" x="5.016" y="15" textLength="10.368">A</tspan></text><path marker-end="url(#e)" stroke="#000" stroke-linecap="round" stroke-linejoin="round" d="M148.158 174.206l14.828 15.446"/><text transform="translate(169 26.5)" fill="#000"><tspan font-family="Helvetica Neue" font-size="16" font-weight="500" x=".096" y="15" textLength="10.368">A</tspan><tspan font-family="Helvetica Neue" font-size="16" font-weight="500" x="9.28" y="15" textLength="4.448">’</tspan><tspan font-family="Helvetica Neue" font-size="16" font-weight="500" x="12.544" y="15" textLength="85.36">s dominator</tspan></text><path marker-end="url(#g)" stroke="#000" stroke-linecap="round" stroke-linejoin="round" stroke-dasharray="4,4" d="M210.905 50.5l-15.546 32.87"/><path marker-end="url(#e)" stroke="#000" stroke-linecap="round" stroke-linejoin="round" d="M217.414 174.275l-14.509 15.272"/></g></svg>