<svg xmlns="http://www.w3.org/2000/svg" viewBox="50 41 880.945 198" width="880.945" height="198"><g fill="none"><text transform="translate(55 215)" fill="#000">
          <tspan font-family="Verdana" font-size="16" font-weight="400" x="0" y="16">0.0 ms</tspan>
        </text><text transform="translate(239.742 215)" fill="#000">
          <tspan font-family="Verdana" font-size="16" font-weight="400" x="0" y="16">16.667 ms</tspan>
        </text><text transform="translate(439.742 215)" fill="#000">
          <tspan font-family="Verdana" font-size="16" font-weight="400" x="0" y="16">33.334 ms</tspan>
        </text><text transform="translate(649.914 215)" fill="#000">
          <tspan font-family="Verdana" font-size="16" font-weight="400" x="0" y="16">50.0 ms</tspan>
        </text><text transform="translate(839.742 215)" fill="#000">
          <tspan font-family="Verdana" font-size="16" font-weight="400" x="0" y="16">66.667 ms</tspan>
        </text><path d="M80 110h0a9 9 0 0 1 9-9h76.534c3.91 0 7.643-1.63 10.3-4.5h0a5.679 5.679 0 0 1 8.333 0h0c2.656 2.87 6.39 4.5 10.3 4.5H271a9 9 0 0 1 9 9h0" stroke="#000" stroke-linecap="round" stroke-linejoin="round"/><text transform="translate(145 65)" fill="#000">
          <tspan font-family="Verdana" font-size="16" font-weight="400" x="0" y="16">Frame 1</tspan>
        </text><path d="M280 110h0a9 9 0 0 1 9-9h76.534c3.91 0 7.643-1.63 10.3-4.5h0a5.679 5.679 0 0 1 8.333 0h0c2.656 2.87 6.39 4.5 10.3 4.5H471a9 9 0 0 1 9 9h0" stroke="#000" stroke-linecap="round" stroke-linejoin="round"/><text transform="translate(345 65)" fill="#000">
          <tspan font-family="Verdana" font-size="16" font-weight="400" x="0" y="16">Frame 2</tspan>
        </text><path d="M480 110h0a9 9 0 0 1 9-9h76.534c3.91 0 7.643-1.63 10.3-4.5h0a5.679 5.679 0 0 1 8.333 0h0c2.656 2.87 6.39 4.5 10.3 4.5H671a9 9 0 0 1 9 9h0" stroke="#000" stroke-linecap="round" stroke-linejoin="round"/><text transform="translate(538.582 46)" fill="#ff2600">
          <tspan font-family="Verdana" font-size="16" font-weight="400" x="0" y="16">(Dropped)</tspan>
          <tspan font-family="Verdana" font-size="16" font-weight="400" fill="#000" x="8.297" y="35">Frame 3</tspan>
        </text><path d="M680 110h0a9 9 0 0 1 9-9h76.534c3.91 0 7.643-1.63 10.3-4.5h0a5.679 5.679 0 0 1 8.333 0h0c2.656 2.87 6.39 4.5 10.3 4.5H871a9 9 0 0 1 9 9h0" stroke="#000" stroke-linecap="round" stroke-linejoin="round"/><text transform="translate(745 65)" fill="#000">
          <tspan font-family="Verdana" font-size="16" font-weight="400" x="0" y="16">Frame 4</tspan>
        </text><path fill="#0060e3" d="M80 140h150v40H80z"/><path stroke="gray" stroke-linecap="round" stroke-linejoin="round" d="M80 140h150v40H80z"/><path fill="#0060e3" d="M280 140h230v40H280z"/><path stroke="gray" stroke-linecap="round" stroke-linejoin="round" d="M280 140h230v40H280z"/><path fill="#0060e3" d="M680 140h160v40H680z"/><path stroke="gray" stroke-linecap="round" stroke-linejoin="round" d="M680 140h160v40H680z"/><path stroke="gray" stroke-linecap="round" stroke-linejoin="round" stroke-width="2" d="M80 120h200v80H80zm200 0h200v80H280zm200 0h200v80H480zm200 0h200v80H680z"/><path fill="#fff" d="M80 185h800"/><path stroke="gray" stroke-linecap="round" stroke-linejoin="round" stroke-width="2" d="M80 185h800"/></g></svg>