<svg xmlns="http://www.w3.org/2000/svg" width="390.024" height="538.377" viewBox="0 0 103.194 142.445"><path style="fill:#dde3e3;fill-opacity:1;stroke:#000;stroke-width:.56179392;stroke-linecap:butt;stroke-linejoin:miter;stroke-miterlimit:4;stroke-dasharray:none;stroke-opacity:1" d="M69.83 156.288c-2.208-8.56-4.393-17.113-8.163-26.12-7.634-3.082-14.808-11.671-21.996-20.105-2.546-5.212-5.019-10.425-9.794-15.637-2.9-5.367-6.559-10.418-10.397-15.165-1.1-4.987 4.005-6.858 8.592-5.886 4.588.972 9.602 5.937 12.459 9.881 3.277 2.88 6.105 6.21 8.935 9.537.852-5.43 4.202-9.273 4.21-19.847-1.713-6.043-3.098-12.086-4.124-18.13-1.04-4.639-1.816-9.279-1.718-13.918-.654-4.91-.528-12.055.558-15.08 1.087-3.023 5.039-3.969 7.303-1.546 2.265 2.423 3.27 9.665 3.91 14.22a904.244 904.244 0 0 0 3.093 12.029c1.408 3.994 2.758 7.414 4.382 13.575 1.772 1.752 3.577 1.807 4.382-1.03-.298-5.365-.721-10.753.086-15.896-.384-6.312.997-10.86 1.632-16.153.62-4.611 1.749-11.176 3.265-13.833s8.447-3.454 9.108.687c.66 4.142-.238 8.835-.344 13.747-.106 4.913.127 10.712-.172 16.067.023 5.07-.28 10.139-.945 15.208.455 1.144.201 3.941 2.578.602l3.007-10.912c.796-4.731 2.019-9.036 3.265-13.318.815-4.582 1.664-11.266 3.35-13.79 2.356-3.524 8.646-2.318 9.151 1.633.61 4.767-.685 9.784-1.332 14.133l-1.89 16.583c-1.505 4.296-2.59 8.592-3.179 12.888.29 2.698.599 5.355 3.35 2.234 1.013-2.882 2.192-4.993 3.438-7.217 1.615-3.398 2.98-5.094 4.382-8.335 1.401-3.24 2.51-8.044 4.64-10.74 2.129-2.695 6.752-1.87 7.045 2.32.292 4.191-.362 8.685-1.89 12.802-1.052 3.362-2.637 6.99-4.125 10.568-1.07 3.141-2.311 6.109-3.608 9.022-.36 4.958-1.577 9.701-2.836 14.435-1 7.014-2.304 14.003-6.014 20.792a52.71 52.71 0 0 1 0 8.506c1.522 7.876 3.665 15.752 6.1 23.628-9.943 6.576-22.88 9.46-39.695 7.561z" transform="translate(-19.052 -14.697)"/><path d="m25.665 110.204 15.478 16.537 16.933 24.077s28.707 24.077 59.531 48.154l-19.579-38.365-12.568-53.049-8.995-37.835-4.366-21.96-1.984-15.875" style="fill:none;stroke:#000;stroke-width:2.56500006;stroke-linecap:butt;stroke-linejoin:miter;stroke-miterlimit:4;stroke-dasharray:5.13000018,2.56500009;stroke-dashoffset:0;stroke-opacity:.4679803" transform="translate(-12.374 -9.545) scale(.64947)"/><path d="m144.547 33.247-3.38 18.27-4.556 22.82-6.636 39.006-4.387 43.303-7.98 42.326-5.994-41.967-1.973-51.365.65-42.659 2.422-26.331 1.72-15.743" style="fill:none;stroke:#000;stroke-width:2.56500006;stroke-linecap:butt;stroke-linejoin:miter;stroke-miterlimit:4;stroke-dasharray:5.13000024,2.56500012;stroke-dashoffset:0;stroke-opacity:.4679803" transform="translate(-12.374 -9.545) scale(.64947)"/><path d="m172.245 66.403-4.437 14.17-7.467 16.47-11.928 29.348-12.457 34.704-18.349 37.877" style="fill:none;stroke:#000;stroke-width:2.56500006;stroke-linecap:butt;stroke-linejoin:miter;stroke-miterlimit:4;stroke-dasharray:5.1300003,2.56500015;stroke-dashoffset:0;stroke-opacity:.4679803" transform="translate(-12.374 -9.545) scale(.64947)"/><g transform="translate(-12.374 -9.545) scale(.64947)"><circle cx="117.872" cy="199.369" r="8.864" style="opacity:1;fill:#adacac;fill-opacity:1;stroke-width:.26458332"/><text x="115.358" y="201.75" style="font-style:normal;font-weight:400;font-size:10.58333302px;line-height:1.25;font-family:sans-serif;letter-spacing:0;word-spacing:0;fill:#000;fill-opacity:1;stroke:none;stroke-width:.26458332" xml:space="preserve"><tspan style="stroke-width:.26458332" x="115.358" y="201.75"><tspan style="font-size:7.05555534px">0</tspan></tspan></text></g><g transform="translate(-32.412 -25.698) scale(.64947)"><circle cx="117.872" cy="199.369" r="5.424" style="opacity:1;fill:#00ac00;fill-opacity:1;stroke-width:.16190919"/><text x="115.623" y="201.75" style="font-style:normal;font-weight:400;font-size:10.58333302px;line-height:1.25;font-family:sans-serif;letter-spacing:0;word-spacing:0;fill:#000;fill-opacity:1;stroke:none;stroke-width:.26458332" xml:space="preserve"><tspan style="stroke-width:.26458332" x="115.623" y="201.75"><tspan style="font-size:7.05555534px">1</tspan></tspan></text></g><g transform="translate(-51.133 -41.078) scale(.64947)"><circle cx="117.872" cy="199.369" r="5.424" style="opacity:1;fill:#00ac00;fill-opacity:1;stroke-width:.16190919"/><text x="115.623" y="201.75" style="font-style:normal;font-weight:400;font-size:10.58333302px;line-height:1.25;font-family:sans-serif;letter-spacing:0;word-spacing:0;fill:#000;fill-opacity:1;stroke:none;stroke-width:.26458332" xml:space="preserve"><tspan style="stroke-width:.26458332" x="115.623" y="201.75"><tspan style="font-size:7.05555534px">2</tspan></tspan></text></g><g transform="translate(-62.424 -56.63) scale(.64947)"><circle cx="117.872" cy="199.369" r="5.424" style="opacity:1;fill:#00ac00;fill-opacity:1;stroke-width:.16190919"/><text x="115.623" y="201.75" style="font-style:normal;font-weight:400;font-size:10.58333302px;line-height:1.25;font-family:sans-serif;letter-spacing:0;word-spacing:0;fill:#000;fill-opacity:1;stroke:none;stroke-width:.26458332" xml:space="preserve"><tspan style="stroke-width:.26458332" x="115.623" y="201.75"><tspan style="font-size:7.05555534px">3</tspan></tspan></text><circle cx="102.831" cy="182.965" r="5.424" style="opacity:1;fill:#00ac00;fill-opacity:1;stroke-width:.16190919"/><text x="100.582" y="185.346" style="font-style:normal;font-weight:400;font-size:10.58333302px;line-height:1.25;font-family:sans-serif;letter-spacing:0;word-spacing:0;fill:#000;fill-opacity:1;stroke:none;stroke-width:.26458332" xml:space="preserve"><tspan style="stroke-width:.26458332" x="100.582" y="185.346"><tspan style="font-size:7.05555534px;stroke-width:.26458332">4</tspan></tspan></text></g><g transform="translate(-25.186 -34.548) scale(.64947)"><circle cx="117.872" cy="199.369" r="5.424" style="opacity:1;fill:#484aff;fill-opacity:1;stroke-width:.16190919"/><text x="115.623" y="201.75" style="font-style:normal;font-weight:400;font-size:10.58333302px;line-height:1.25;font-family:sans-serif;letter-spacing:0;word-spacing:0;fill:#000;fill-opacity:1;stroke:none;stroke-width:.26458332" xml:space="preserve"><tspan style="stroke-width:.26458332" x="115.623" y="201.75"><tspan style="font-size:7.05555534px">5</tspan></tspan></text></g><g transform="translate(-33.338 -68.916) scale(.64947)"><circle cx="117.872" cy="199.369" r="5.424" style="opacity:1;fill:#484aff;fill-opacity:1;stroke-width:.16190919"/><text x="115.623" y="201.75" style="font-style:normal;font-weight:400;font-size:10.58333302px;line-height:1.25;font-family:sans-serif;letter-spacing:0;word-spacing:0;fill:#000;fill-opacity:1;stroke:none;stroke-width:.26458332" xml:space="preserve"><tspan style="stroke-width:.26458332" x="115.623" y="201.75"><tspan style="font-size:7.05555534px">6</tspan></tspan></text><g transform="translate(-9.128 -37.703)"><circle cx="117.872" cy="199.369" r="5.424" style="opacity:1;fill:#484aff;fill-opacity:1;stroke-width:.16190919"/><text x="115.623" y="201.75" style="font-style:normal;font-weight:400;font-size:10.58333302px;line-height:1.25;font-family:sans-serif;letter-spacing:0;word-spacing:0;fill:#000;fill-opacity:1;stroke:none;stroke-width:.26458332" xml:space="preserve"><tspan style="stroke-width:.26458332" x="115.623" y="201.75"><tspan style="font-size:7.05555534px">7</tspan></tspan></text><g transform="translate(-4.233 -22.622)"><circle cx="117.872" cy="199.369" r="5.424" style="opacity:1;fill:#484aff;fill-opacity:1;stroke-width:.16190919"/><text x="115.623" y="201.75" style="font-style:normal;font-weight:400;font-size:10.58333302px;line-height:1.25;font-family:sans-serif;letter-spacing:0;word-spacing:0;fill:#000;fill-opacity:1;stroke:none;stroke-width:.26458332" xml:space="preserve"><tspan style="stroke-width:.26458332" x="115.623" y="201.75"><tspan style="font-size:7.05555534px">8</tspan></tspan></text></g></g></g><g transform="translate(-43.305 -118.062) scale(.64947)"><circle cx="117.872" cy="199.369" r="5.424" style="opacity:1;fill:#484aff;fill-opacity:1;stroke-width:.16190919"/><text x="115.623" y="201.75" style="font-style:normal;font-weight:400;font-size:10.58333302px;line-height:1.25;font-family:sans-serif;letter-spacing:0;word-spacing:0;fill:#000;fill-opacity:1;stroke:none;stroke-width:.26458332" xml:space="preserve"><tspan style="stroke-width:.26458332" x="115.623" y="201.75"><tspan style="font-size:7.05555534px">9</tspan></tspan></text></g><g transform="translate(-15.896 -37.297) scale(.64947)"><circle cx="117.343" cy="199.369" r="5.424" style="opacity:1;fill:#e70000;fill-opacity:1;stroke-width:.16190919"/><text x="112.713" y="201.75" style="font-style:normal;font-weight:400;font-size:10.58333302px;line-height:1.25;font-family:sans-serif;letter-spacing:0;word-spacing:0;fill:#000;fill-opacity:1;stroke:none;stroke-width:.26458332" xml:space="preserve"><tspan style="stroke-width:.26458332" x="112.713" y="201.75"><tspan style="font-size:7.05555534px">10</tspan></tspan></text></g><g transform="translate(-17.529 -70.548) scale(.64947)"><circle cx="117.872" cy="199.369" r="5.424" style="opacity:1;fill:#e70000;fill-opacity:1;stroke-width:.16190919"/><text x="113.242" y="201.75" style="font-style:normal;font-weight:400;font-size:10.58333302px;line-height:1.25;font-family:sans-serif;letter-spacing:0;word-spacing:0;fill:#000;fill-opacity:1;stroke:none;stroke-width:.26458332" xml:space="preserve"><tspan style="stroke-width:.26458332" x="113.242" y="201.75"><tspan style="font-size:7.05555534px">11</tspan></tspan></text></g><g transform="translate(-17.1 -98.129) scale(.64947)"><circle style="opacity:1;fill:#e70000;fill-opacity:1;stroke-width:.16190919" cx="117.872" cy="199.369" r="5.424"/><text xml:space="preserve" style="font-style:normal;font-weight:400;font-size:10.58333302px;line-height:1.25;font-family:sans-serif;letter-spacing:0;word-spacing:0;fill:#000;fill-opacity:1;stroke:none;stroke-width:.26458332" x="113.242" y="201.75"><tspan x="113.242" y="201.75" style="stroke-width:.26458332"><tspan style="font-size:7.05555534px">12</tspan></tspan></text><g transform="translate(1.984 -25.93)"><circle style="opacity:1;fill:#e70000;fill-opacity:1;stroke-width:.16190919" cx="117.872" cy="199.369" r="5.424"/><text xml:space="preserve" style="font-style:normal;font-weight:400;font-size:10.58333302px;line-height:1.25;font-family:sans-serif;letter-spacing:0;word-spacing:0;fill:#000;fill-opacity:1;stroke:none;stroke-width:.26458332" x="113.242" y="201.75"><tspan x="113.242" y="201.75" style="stroke-width:.26458332"><tspan style="font-size:7.05555534px">13</tspan></tspan></text><g transform="translate(2.117 -16.272)"><circle style="opacity:1;fill:#e70000;fill-opacity:1;stroke-width:.16190919" cx="117.872" cy="199.369" r="5.424"/><text xml:space="preserve" style="font-style:normal;font-weight:400;font-size:10.58333302px;line-height:1.25;font-family:sans-serif;letter-spacing:0;word-spacing:0;fill:#000;fill-opacity:1;stroke:none;stroke-width:.26458332" x="113.242" y="201.75"><tspan x="113.242" y="201.75" style="stroke-width:.26458332"><tspan style="font-size:7.05555534px">14</tspan></tspan></text></g></g></g><g transform="translate(-8.164 -36.696) scale(.64947)"><circle style="opacity:1;fill:#e728e5;fill-opacity:1;stroke-width:.16190919" cx="117.872" cy="199.369" r="5.424"/><text xml:space="preserve" style="font-style:normal;font-weight:400;font-size:10.58333302px;line-height:1.25;font-family:sans-serif;letter-spacing:0;word-spacing:0;fill:#000;fill-opacity:1;stroke:none;stroke-width:.26458332" x="113.242" y="201.75"><tspan x="113.242" y="201.75" style="stroke-width:.26458332"><tspan style="font-size:7.05555534px">15</tspan></tspan></text></g><g transform="translate(-4.555 -65.221) scale(.64947)"><circle style="opacity:1;fill:#e728e5;fill-opacity:1;stroke-width:.16190919" cx="117.872" cy="199.369" r="5.424"/><text xml:space="preserve" style="font-style:normal;font-weight:400;font-size:10.58333302px;line-height:1.25;font-family:sans-serif;letter-spacing:0;word-spacing:0;fill:#000;fill-opacity:1;stroke:none;stroke-width:.26458332" x="113.242" y="201.75"><tspan x="113.242" y="201.75" style="stroke-width:.26458332"><tspan style="font-size:7.05555534px">16</tspan></tspan></text></g><g transform="translate(-.001 -90.482) scale(.64947)"><circle style="opacity:1;fill:#e728e5;fill-opacity:1;stroke-width:.16190919" cx="117.872" cy="199.369" r="5.424"/><text xml:space="preserve" style="font-style:normal;font-weight:400;font-size:10.58333302px;line-height:1.25;font-family:sans-serif;letter-spacing:0;word-spacing:0;fill:#000;fill-opacity:1;stroke:none;stroke-width:.26458332" x="113.242" y="201.75"><tspan x="113.242" y="201.75" style="stroke-width:.26458332"><tspan style="font-size:7.05555534px">17</tspan></tspan></text></g><g transform="translate(3.264 -105.69) scale(.64947)"><circle style="opacity:1;fill:#e728e5;fill-opacity:1;stroke-width:.16190919" cx="117.872" cy="199.369" r="5.424"/><text xml:space="preserve" style="font-style:normal;font-weight:400;font-size:10.58333302px;line-height:1.25;font-family:sans-serif;letter-spacing:0;word-spacing:0;fill:#000;fill-opacity:1;stroke:none;stroke-width:.26458332" x="113.242" y="201.75"><tspan x="113.242" y="201.75" style="stroke-width:.26458332"><tspan style="font-size:7.05555534px">18</tspan></tspan></text></g><g transform="translate(5.24 -117.203) scale(.64947)"><circle style="opacity:1;fill:#e728e5;fill-opacity:1;stroke-width:.16190919" cx="117.872" cy="199.369" r="5.424"/><text xml:space="preserve" style="font-style:normal;font-weight:400;font-size:10.58333302px;line-height:1.25;font-family:sans-serif;letter-spacing:0;word-spacing:0;fill:#000;fill-opacity:1;stroke:none;stroke-width:.26458332" x="113.242" y="201.75"><tspan x="113.242" y="201.75" style="stroke-width:.26458332"><tspan style="font-size:7.05555534px">19</tspan></tspan></text></g><g transform="translate(-.43 -34.204) scale(.64947)"><circle style="opacity:1;fill:#e0ed00;fill-opacity:1;stroke-width:.16190919" cx="117.872" cy="199.369" r="5.424"/><text xml:space="preserve" style="font-style:normal;font-weight:400;font-size:10.58333302px;line-height:1.25;font-family:sans-serif;letter-spacing:0;word-spacing:0;fill:#000;fill-opacity:1;stroke:none;stroke-width:.26458332" x="113.242" y="201.75"><tspan x="113.242" y="201.75" style="stroke-width:.26458332"><tspan style="font-size:7.05555534px">20</tspan></tspan></text></g><g transform="translate(7.302 -57.23) scale(.64947)"><circle style="opacity:1;fill:#e0ed00;fill-opacity:1;stroke-width:.16190919" cx="117.872" cy="199.369" r="5.424"/><text xml:space="preserve" style="font-style:normal;font-weight:400;font-size:10.58333302px;line-height:1.25;font-family:sans-serif;letter-spacing:0;word-spacing:0;fill:#000;fill-opacity:1;stroke:none;stroke-width:.26458332" x="113.242" y="201.75"><tspan x="113.242" y="201.75" style="stroke-width:.26458332"><tspan style="font-size:7.05555534px">21</tspan></tspan></text></g><g transform="translate(15.12 -76.047) scale(.64947)"><circle style="opacity:1;fill:#e0ed00;fill-opacity:1;stroke-width:.16190919" cx="117.872" cy="199.369" r="5.424"/><text xml:space="preserve" style="font-style:normal;font-weight:400;font-size:10.58333302px;line-height:1.25;font-family:sans-serif;letter-spacing:0;word-spacing:0;fill:#000;fill-opacity:1;stroke:none;stroke-width:.26458332" x="113.242" y="201.75"><tspan x="113.242" y="201.75" style="stroke-width:.26458332"><tspan style="font-size:7.05555534px">22</tspan></tspan></text></g><g transform="translate(20.018 -86.53) scale(.64947)"><circle style="opacity:1;fill:#e0ed00;fill-opacity:1;stroke-width:.16190919" cx="117.872" cy="199.369" r="5.424"/><text xml:space="preserve" style="font-style:normal;font-weight:400;font-size:10.58333302px;line-height:1.25;font-family:sans-serif;letter-spacing:0;word-spacing:0;fill:#000;fill-opacity:1;stroke:none;stroke-width:.26458332" x="113.242" y="201.75"><tspan x="113.242" y="201.75" style="stroke-width:.26458332"><tspan style="font-size:7.05555534px">23</tspan></tspan></text></g><g transform="translate(22.682 -95.723) scale(.64947)"><circle style="opacity:1;fill:#e0ed00;fill-opacity:1;stroke-width:.16190919" cx="117.872" cy="199.369" r="5.424"/><text xml:space="preserve" style="font-style:normal;font-weight:400;font-size:10.58333302px;line-height:1.25;font-family:sans-serif;letter-spacing:0;word-spacing:0;fill:#000;fill-opacity:1;stroke:none;stroke-width:.26458332" x="113.242" y="201.75"><tspan x="113.242" y="201.75" style="stroke-width:.26458332"><tspan style="font-size:7.05555534px">24</tspan></tspan></text></g></svg>