<svg xmlns="http://www.w3.org/2000/svg" width="290" height="250" viewBox="-65 -195 290 250"><style>text{font:12px sans-serif}.sub{font-size:8px}</style><path fill="#fff" d="M-65-195h290V55H-65z"/><marker id="dot" markerHeight="5" markerWidth="5" viewBox="-2.5 -2.5 5 5"><circle r="2" fill="#00f"/></marker><marker id="dot-hollow" markerHeight="5" markerWidth="5" viewBox="-2.5 -2.5 5 5"><circle r="1.5" fill="#fff" stroke="red"/></marker><marker id="tick" stroke-linecap="square" markerHeight="10" markerWidth="1" orient="auto" viewBox="-0.5 -0.5 1 10"><path stroke="#000" d="M0 0v9"/></marker><path stroke="#000" stroke-dasharray="5" d="M160-160H0M160-160V0"/><path stroke="#000" marker-mid="url(#tick)" marker-start="url(#tick)" d="M0-160v80V0"/><path stroke="#000" marker-end="url(#tick)" marker-mid="url(#tick)" d="M0 0h80 80"/><text x="-15" y="-160" dominant-baseline="mathematical" text-anchor="end">1</text><text x="-15" y="-80" dominant-baseline="mathematical" text-anchor="end">0.5</text><text x="80" y="25" text-anchor="middle">0.5</text><text x="160" y="25" text-anchor="middle">1</text><text x="-45" y="-80" text-anchor="middle" writing-mode="vertical-rl">Output progress</text><text x="80" y="40" text-anchor="middle">Input progress</text><path stroke="red" stroke-dasharray="5" stroke-width="2" marker-end="url(#dot-hollow)" d="m0 0 16-96"/><path stroke="red" stroke-dasharray="5" stroke-width="2" marker-end="url(#dot-hollow)" d="M160-160 112-32"/><path fill="none" stroke="#00f" stroke-width="3" marker-end="url(#dot)" marker-start="url(#dot)" d="M0 0c16-96 112-32 160-160"/><text y="20" text-anchor="middle">P<tspan class="sub">0</tspan>(0, 0)</text><text x="5" y="-105">P<tspan class="sub">1</tspan>(0.1, 0.6)</text><text x="112" y="-15" text-anchor="middle">P<tspan class="sub">2</tspan>(0.7, 0.2)</text><text x="170" y="-160" dominant-baseline="mathematical">P<tspan class="sub">3</tspan>(1, 1)</text><text x="80" y="-175" style="font-size:16px" text-anchor="middle">cubic-bezier(0.1, 0.6, 0.7, 0.2)</text></svg>
