<?xml version="1.0" encoding="UTF-8"?>
<!DOCTYPE svg PUBLIC "-//W3C//DTD SVG 1.1//EN" "http://www.w3.org/Graphics/SVG/1.1/DTD/svg11.dtd">
<svg version="1.1" xmlns="http://www.w3.org/2000/svg" xmlns:xlink="http://www.w3.org/1999/xlink" x="0" y="0" width="710" height="2634" viewBox="0, 0, 710, 2634">
  <g id="Layer_1">
    <path d="M416.1,1317 C416.082,1346.973 416.063,1376.969 416.045,1406.987 C347.013,1297.887 178.665,1396.659 212.695,1434.592 C226.39,1437.824 310.898,1386.964 377.645,1514.569 C424.982,1606.086 363.629,1693.709 287.784,1763.319 C111.434,1916.379 217.916,2172.119 218.637,2179.109 C215.001,2182.516 210.609,2185.017 206.292,2187.781 C194.615,2155.273 160.745,2107.731 163.009,1990.641 C159.278,1851.111 271.859,1749.911 297.549,1720.111 C470.699,1513.681 288.044,1433.271 206.023,1457.991 C156.358,1471.62 82.493,1541.854 120.176,1571.371 C137.557,1582.012 160.846,1571.598 170.881,1555.391 C182.014,1539.865 175.69,1519.454 182.052,1502.566 C224.634,1452.895 340.912,1484.08 297.962,1588.07 C217.454,1564.441 187.082,1623.62 230.103,1690.31 C162.567,1691.493 126.163,1733.018 169.818,1818.68 C118.504,1821.002 89.853,1862.442 136.229,1932.09 C126.08,1933.717 114.379,1933.945 106.768,1942.01 C93.893,1954.582 90.182,1974.198 93.438,1991.466 C96.089,2006.309 107.449,2017.254 117.219,2028.009 C96.619,2037.021 92.34,2061.9 98.172,2081.63 C119.583,2157.418 167.509,2200.39 173.15,2207.39 C174.097,2212.502 167.28,2215.38 164.44,2219.317 C-45.98,2391.407 85.906,2581.947 200.869,2596.177 C269.142,2604 343.589,2554.372 345.259,2490.717 C350.757,2410.866 273.888,2347.747 216.209,2384.417 C183.453,2403.047 169.064,2447.921 186.824,2481.699 C199.031,2515.449 274.726,2540.739 286.265,2447.543 C323.268,2471.872 301.154,2546.438 229.426,2553.123 C130.224,2560.69 18.306,2360.293 290.507,2269.873 C323.162,2260.058 311.089,2287.825 363.857,2319.745 C568.017,2449.605 777.637,2174.955 573.307,2148.585 C574.897,1529.925 568.322,1752.765 587.811,1673.805 C572.475,1663.05 556.154,1653.129 537.106,1651.046 C547.093,1638.314 627.308,1599.43 610.077,1529.376 C597.126,1524.794 582.244,1522.295 572.133,1512.563 C571.971,1511.863 571.824,1443.048 571.693,1317.003 C571.825,1190.953 571.971,1122.143 572.133,1121.443 C582.244,1111.711 597.126,1109.212 610.077,1104.63 C627.307,1034.576 547.093,995.69 537.106,982.96 C556.153,980.878 572.475,970.957 587.811,960.201 C568.322,881.238 574.898,1104.071 573.307,485.421 C777.647,459.045 568.018,184.391 363.857,314.261 C311.09,346.181 323.162,373.948 290.507,364.133 C18.307,273.715 130.227,73.313 229.427,80.883 C301.155,87.564 323.269,162.13 286.266,186.463 C274.727,93.266 199.032,118.557 186.825,152.306 C169.065,186.084 183.455,230.958 216.21,249.588 C273.893,286.266 350.76,223.143 345.26,143.288 C343.587,79.633 269.143,30.008 200.87,37.828 C85.91,52.061 -45.98,242.598 164.441,414.688 C167.281,418.625 174.097,421.503 173.151,426.615 C167.509,433.61 119.584,476.585 98.173,552.375 C92.341,572.105 96.621,596.984 117.22,605.996 C107.45,616.751 96.09,627.696 93.439,642.539 C90.182,659.807 93.893,679.423 106.769,691.995 C114.38,700.06 126.082,700.288 136.23,701.915 C89.853,771.567 118.504,813.005 169.819,815.325 C126.165,900.989 162.568,942.515 230.104,943.695 C187.083,1010.389 217.456,1069.565 297.963,1045.935 C340.909,1149.925 224.632,1181.115 182.053,1131.439 C175.691,1114.551 182.015,1094.14 170.882,1078.614 C160.847,1062.407 137.558,1051.993 120.177,1062.634 C82.496,1092.147 156.359,1162.381 206.024,1176.014 C288.045,1200.731 470.694,1120.326 297.55,913.894 C271.86,884.094 159.27,782.894 163.01,643.364 C160.746,526.274 194.616,478.734 206.293,446.224 C210.61,448.988 215.002,451.489 218.638,454.896 C217.916,461.891 111.438,717.626 287.785,870.686 C363.629,940.301 424.985,1027.926 377.646,1119.436 C310.896,1247.036 226.386,1196.181 212.696,1199.413 C178.662,1237.346 347.016,1336.113 416.046,1227.018 C416.063,1257.036 416.081,1287.032 416.1,1317.005 z M365.112,1918.28 C359.127,1960.399 232.122,1957.517 256.392,2159.61 C249.083,2163.284 241.472,2166.501 233.33,2168.017 C201.816,1978.177 339.23,1916.307 365.11,1918.277 z M233.332,465.98 C241.474,467.496 249.085,470.714 256.394,474.387 C232.122,676.477 359.124,673.597 365.114,715.717 C339.236,717.69 201.824,655.82 233.334,465.977 z M95.042,2380.68 C117.661,2264.44 255.122,2205.44 285.402,2218.3 C246.202,2240.853 180.342,2222.306 95.042,2380.68 z M285.402,415.68 C255.126,428.54 117.662,369.542 95.042,253.3 C180.339,411.67 246.202,393.12 285.402,415.68 z M523.932,2179.98 C524.447,2209.416 514.665,2251.988 579.673,2265.674 C502.57,2337.851 349.093,2300.572 323.343,2179.299 C308.861,2099.647 358.001,2108.67 383.061,2070.769 C396.504,2054.412 397.678,2031.615 411.197,2015.483 C420.02,2001.282 447.02,2003.667 444.862,1983.144 C429.299,1974.358 411.311,1974.244 394.006,1974.396 C394.536,1972.427 395.634,1968.488 396.165,1966.519 C449.048,1953.83 501.855,1879.209 503.405,1838.569 C488.334,1839.554 480.23,1854.966 465.916,1858.109 C430.926,1867.196 393.93,1857.692 359.276,1869.394 C356.853,1850.763 361.321,1832.17 358.973,1813.728 C304.213,1800.082 248.623,1896.572 231.053,1900.711 C245.245,1859.389 304.611,1800.789 381.233,1785.671 C428.189,1776.848 476.66,1777.151 522.783,1763.822 C524.601,1792.309 523.953,2156.352 523.916,2179.982 z M522.796,870.18 C476.673,856.851 428.202,857.154 381.246,848.331 C304.62,833.211 245.256,774.611 231.066,733.291 C248.63,737.43 304.224,833.921 358.986,820.274 C361.334,801.832 356.866,783.239 359.289,764.608 C393.938,776.309 430.935,766.805 465.929,775.892 C480.243,779.035 488.347,794.447 503.418,795.432 C501.87,754.788 449.059,680.162 396.178,667.482 C395.648,665.512 394.55,661.574 394.019,659.605 C411.324,659.757 429.312,659.643 444.875,650.857 C447.034,630.334 420.034,632.719 411.21,618.518 C397.691,602.387 396.517,579.59 383.074,563.233 C358.015,525.331 308.875,534.354 323.356,454.703 C349.102,333.433 502.576,296.153 579.686,368.327 C514.678,382.013 524.46,424.586 523.945,454.021 C523.985,477.659 524.633,841.701 522.812,870.191 z M483.451,1637.06 C467.243,1693.56 420.401,1744 360.301,1751.95 C381.999,1734.833 404.796,1718.286 421.041,1695.527 C450.306,1660.071 459.19,1580.187 541.231,1551.477 C518.624,1577.38 492.609,1602.675 483.445,1637.058 z M541.237,1082.5 C459.194,1053.787 450.31,973.91 421.047,938.45 C404.801,915.691 382.005,899.145 360.307,882.027 C420.403,889.979 467.247,940.419 483.457,996.917 C492.621,1031.301 518.636,1056.596 541.243,1082.498 z M518.974,1316.99 C518.638,1437.74 518.26,1504.5 517.835,1507.71 C506.702,1511.535 495.758,1516.041 485.08,1521.229 C472.758,1498.136 468.015,1430.192 466.368,1316.999 C468.015,1203.799 472.758,1135.859 485.08,1112.769 C495.758,1117.957 506.702,1122.463 517.835,1126.288 C518.26,1129.492 518.638,1196.25 518.974,1317.008 z" fill="#474747"/>
  </g>
</svg>
