<svg xmlns="http://www.w3.org/2000/svg" id="graph-div" aria-roledescription="sequence" style="max-width:100%" viewBox="-50 -10 950 463">
  <style>
    @import url(https://cdnjs.cloudflare.com/ajax/libs/font-awesome/6.2.0/css/all.min.css);
  </style>
  <rect width="175" height="65" x="675" y="377" fill="#eaeaea" stroke="#666" class="actor" rx="3" ry="3"/>
  <text x="762.5" y="409.5" alignment-baseline="central" class="actor" dominant-baseline="central" font-size="16" font-weight="400" text-anchor="middle">
    <tspan x="762.5" dy="0">Server</tspan>
  </text>
  <rect width="175" height="65" x="450" y="377" fill="#eaeaea" stroke="#666" class="actor" rx="3" ry="3"/>
  <text x="537.5" y="409.5" alignment-baseline="central" class="actor" dominant-baseline="central" font-size="16" font-weight="400" text-anchor="middle">
    <tspan x="537.5" dy="0">Proxy</tspan>
  </text>
  <rect width="175" height="65" x="225" y="377" fill="#eaeaea" stroke="#666" class="actor" rx="3" ry="3"/>
  <text x="312.5" y="409.5" alignment-baseline="central" class="actor" dominant-baseline="central" font-size="16" font-weight="400" text-anchor="middle">
    <tspan x="312.5" dy="0">Proxy</tspan>
  </text>
  <rect width="175" height="65" y="377" fill="#eaeaea" stroke="#666" class="actor" rx="3" ry="3"/>
  <text x="87.5" y="409.5" alignment-baseline="central" class="actor" dominant-baseline="central" font-size="16" font-weight="400" text-anchor="middle">
    <tspan x="87.5" dy="0">Client</tspan>
  </text>
  <path id="actor1938" stroke="#999" stroke-width=".5" d="M762.5 5v372" class="200"/>
  <g id="root-1938">
    <rect width="175" height="65" x="675" fill="#eaeaea" stroke="#666" class="actor" rx="3" ry="3"/>
    <text x="762.5" y="32.5" alignment-baseline="central" class="actor" dominant-baseline="central" font-size="16" font-weight="400" text-anchor="middle">
      <tspan x="762.5" dy="0">Server</tspan>
    </text>
  </g>
  <path id="actor1937" stroke="#999" stroke-width=".5" d="M537.5 5v372" class="200"/>
  <g id="root-1937">
    <rect width="175" height="65" x="450" fill="#eaeaea" stroke="#666" class="actor" rx="3" ry="3"/>
    <text x="537.5" y="32.5" alignment-baseline="central" class="actor" dominant-baseline="central" font-size="16" font-weight="400" text-anchor="middle">
      <tspan x="537.5" dy="0">Proxy</tspan>
    </text>
  </g>
  <path id="actor1936" stroke="#999" stroke-width=".5" d="M312.5 5v372" class="200"/>
  <g id="root-1936">
    <rect width="175" height="65" x="225" fill="#eaeaea" stroke="#666" class="actor" rx="3" ry="3"/>
    <text x="312.5" y="32.5" alignment-baseline="central" class="actor" dominant-baseline="central" font-size="16" font-weight="400" text-anchor="middle">
      <tspan x="312.5" dy="0">Proxy</tspan>
    </text>
  </g>
  <path id="actor1935" stroke="#999" stroke-width=".5" d="M87.5 5v372" class="200"/>
  <g id="root-1935">
    <rect width="175" height="65" fill="#eaeaea" stroke="#666" class="actor" rx="3" ry="3"/>
    <text x="87.5" y="32.5" alignment-baseline="central" class="actor" dominant-baseline="central" font-size="16" font-weight="400" text-anchor="middle">
      <tspan x="87.5" dy="0">Client</tspan>
    </text>
  </g>
  <style>
    <![CDATA[#graph-div,#graph-div #sequencenumber{fill:#333}#graph-div,#graph-div svg{font-family:"trebuchet ms",verdana,arial,sans-serif;font-size:12px}#graph-div .actor{stroke:#bcbcfb;fill:#ececfe}#graph-div .messageLine0{stroke-width:1.5;stroke-dasharray:none;stroke:#333}#graph-div #arrowhead path{fill:#333;stroke:#333}#graph-div .messageText,#graph-div text.actor>tspan{fill:#333;stroke:none}#graph-div .note{stroke:#e4db95;fill:#fff5ad}#graph-div .noteText,#graph-div .noteText>tspan{fill:#333;stroke:none}#graph-div :root{--mermaid-font-family:"trebuchet ms",verdana,arial,sans-serif}]]>
  </style>
  <defs>
    <symbol id="computer">
      <path d="M1 1v6.5h10V1H1zm9 5.5H2V2h8v4.5zm-5.1 3L5 9h2l.2.5H5zM12 11H0l1-3h1l-.6 2h9.2L10 8h1l1 3zM9.5 6h-7V2.5h7V6z"/>
    </symbol>
  </defs>
  <defs>
    <symbol id="database" fill-rule="evenodd" clip-rule="evenodd">
      <path d="M6.1 0h1.5l.1.1h.6v.1h.4v.1h.4v.1h.4l.1.1h.2v.1h.2l.1.1h.1l.1.1h.1V1h.3v.1h.1v.1h.1v.1l.1.1v.2h.1v9l-.1.1v.1h-.1v.1h-.1v.1h-.1v.1h-.2v.1h-.1l-.1.1H10v.1h-.2l-.1.1h-.2v.1h-.2l-.1.1h-.3l-.1.1h-.4l-.1.1h-.6l-.1.1h-1l-.2.1h-2l-.1-.1h-.6v-.1h-.4v-.1h-.4v-.1h-.4l-.1-.1h-.2v-.1H2l-.1-.1h-.1l-.1-.1h-.1V11h-.3v-.1h-.1v-.1h-.1v-.1l-.1-.1V1.4l.1-.1v-.1h.1v-.1h.1V1h.3V.8h.1l.1-.1H2V.6h.3l.1-.1h.2V.4h.2l.1-.1h.2l.1-.1h.4l.1-.1h.6l.1-.1h1.2l.1-.1h.4zM1.5 10.3v.1h.1v.1h.1v.1H2v.1l.1.1h.2v.1h.2l.1.1H3v.1h.2l.2.1h.3l.1.1h.5l.1.1h1.2l.1.1h1.8l.2-.1h.4l.2-.1h.4v-.1h.4V11h.2l.1-.1h.2l.1-.1h.1l.1-.1h.1l.1-.1h.1v-.1h.1v-.1h.1v-.2h.1v-2h-.1l-.1.1h-.1v.1H10l-.1.1h-.1l-.1.1h-.2v.1h-.4l-.2.1h-.2l-.1.1h-.5V9h-.6l-.2.1H4L3.7 9h-.4v-.1H3l-.1-.1h-.2l-.1-.1h-.2l-.1-.1H2v-.1h-.2v-.1h-.1l-.1-.1h-.1l-.1-.1v2zm0-2.9v.2h.1v.1h.1l.1.1H2V8h.2l.1.1h.1l.1.1h.2l.1.1H3l.1.1h.2v.1h.5l.1.1h.5l.2.1h3.6v-.1h.4l.2-.1H9l.2-.1h.2v-.1h.2l.1-.1h.2V8h.2v-.1h.1v-.1h.1l.1-.1h.1v-.2h.1V5.3h-.2v.1h-.1l-.1.1H10v.1h-.2v.1h-.5V6h-.6l-.2.1H8v.1h-.8l-.1.1H4v-.2h-.5V6h-.8l-.1-.1h-.2l-.1-.1h-.2L2 5.6l-.1-.1h-.1v-.1h-.2v-.1h-.1v2zm0-2.8v.1l.1.1.1.1h.1V5H2l.1.1h.2v.1h.2l.1.1h.2v.1H3l.1.1h.4l.1.1H4l.1.1h.7v.1H8v-.1h.4l.2-.1h.3l.1-.1h.2l.1-.1h.2v-.1h.2v-.1h.2V5h.3v-.1h.1l.1-.1v-.1h.1V2.5h-.2l-.1.1H10v.1h-.3V3h-.2l-.1.1h-.3v.1h-.3l-.1.1h-.4v.1h-.6l-.1.1H6.5l-.1.1H4.5l-.2-.1h-.5l-.1-.1h-.5v-.1h-.3V3h-.6v-.1H2v-.2h-.1l-.1-.1h-.1v-.1h-.2v2zM5.9.5H4.5l-.2.1h-.4l-.2.1h-.4v.1h-.4V1h-.2l-.1.1h-.2l-.1.1h-.1l-.1.1H2l-.1.1h-.1v.1h-.1v.1h-.1v.2h-.1V2h.2v.1h.1l.1.1H2l.1.1h.2v.1h.4v.1H3v.1h.2v.1h.4l.1.1h.5l.1.1h1.3l.1.1h1.8l.2-.1h.4l.2-.1h.4v-.1h.4v-.1h.2l.1-.1h.2l.1-.1h.1l.1-.1h.1l.1-.1h.1V2h.2v-.2h.1v-.2h-.1v-.1h-.1v-.1h-.1l-.1-.1H10l-.1-.1h-.2V1H9V.8h-.2V.7h-.4L8.3.6h-.5L7.7.5H6.6L6.3.4h-.5z"/>
    </symbol>
  </defs>
  <defs>
    <symbol id="clock">
      <path d="M6 1a5 5 0 1 1 0 10A5 5 0 0 1 6 1zm0-1a6 6 0 1 0 0 12A6 6 0 0 0 6 0zm3 6.2v.2L5.6 7a.7.7 0 0 1-.7-.7 71.6 71.6 0 0 1 .7-3.7l.5 3.1 2.7.5z"/>
    </symbol>
  </defs>
  <defs>
    <marker id="arrowhead" markerHeight="12" markerUnits="userSpaceOnUse" markerWidth="12" orient="auto" refX="7.9" refY="5">
      <path d="m0 0 10 5-10 5z"/>
    </marker>
  </defs>
  <defs>
    <marker id="filled-head" markerHeight="28" markerWidth="20" orient="auto" refX="15.5" refY="7">
      <path d="m18 7-9 6 5-6-5-6Z"/>
    </marker>
  </defs>
  <defs>
    <marker id="sequencenumber" markerHeight="40" markerWidth="60" orient="auto" refX="15" refY="15">
      <circle cx="15" cy="15" r="6"/>
    </marker>
  </defs>
  <rect width="175" height="39" y="75" fill="#EDF2AE" stroke="#666" class="note" rx="0" ry="0"/>
  <text x="88" y="80" alignment-baseline="middle" class="noteText" dominant-baseline="middle" dy="1em" font-size="16" font-weight="400" text-anchor="middle">
    <tspan x="88">Resource requested.</tspan>
  </text>
  <rect width="175" height="77" x="675" y="134" fill="#EDF2AE" stroke="#666" class="note" rx="0" ry="0"/>
  <text x="763" y="139" alignment-baseline="middle" class="noteText" dominant-baseline="middle" dy="1em" font-size="16" font-weight="400" text-anchor="middle">
    <tspan x="763">Resource is</tspan>
  </text>
  <text x="763" y="158" alignment-baseline="middle" class="noteText" dominant-baseline="middle" dy="1em" font-size="16" font-weight="400" text-anchor="middle">
    <tspan x="763">compressed and</tspan>
  </text>
  <text x="763" y="177" alignment-baseline="middle" class="noteText" dominant-baseline="middle" dy="1em" font-size="16" font-weight="400" text-anchor="middle">
    <tspan x="763">returned.</tspan>
  </text>
  <rect width="275" height="58" x="287.5" y="231" fill="#EDF2AE" stroke="#666" class="note" rx="0" ry="0"/>
  <text x="425" y="236" alignment-baseline="middle" class="noteText" dominant-baseline="middle" dy="1em" font-size="16" font-weight="400" text-anchor="middle">
    <tspan x="425">Intermediate nodes do not</tspan>
  </text>
  <text x="425" y="255" alignment-baseline="middle" class="noteText" dominant-baseline="middle" dy="1em" font-size="16" font-weight="400" text-anchor="middle">
    <tspan x="425">uncompress the body.</tspan>
  </text>
  <rect width="175" height="58" y="299" fill="#EDF2AE" stroke="#666" class="note" rx="0" ry="0"/>
  <text x="88" y="304" alignment-baseline="middle" class="noteText" dominant-baseline="middle" dy="1em" font-size="16" font-weight="400" text-anchor="middle">
    <tspan x="88">Client decompresses</tspan>
  </text>
  <text x="88" y="323" alignment-baseline="middle" class="noteText" dominant-baseline="middle" dy="1em" font-size="16" font-weight="400" text-anchor="middle">
    <tspan x="88">the body.</tspan>
  </text>
  <text x="99" y="129" alignment-baseline="middle" class="messageText" dominant-baseline="middle" dy="1em" font-size="16" font-weight="400">​</text>
  <path fill="none" stroke-width="2" marker-end="url(#arrowhead)" d="M88.5 124h670" class="messageLine0"/>
  <text x="772" y="226" alignment-baseline="middle" class="messageText" dominant-baseline="middle" dy="1em" font-size="16" font-weight="400">​</text>
  <path fill="none" stroke-width="2" marker-end="url(#arrowhead)" d="M761.5 221h-670" class="messageLine0"/>
</svg>
