<svg viewBox="5.411 -91.007 39 50" xmlns="http://www.w3.org/2000/svg"><path d="M12.646-41.425h24.508c2.362 0 4.162-.616 5.4-1.846 1.238-1.23 1.857-3.013 1.857-5.347v-20.604c0-2.334-.62-4.116-1.857-5.347-1.238-1.23-3.038-1.846-5.4-1.846h-5.58v4.86h5.134c.92 0 1.624.233 2.112.7.488.466.732 1.188.732 2.164v19.542c0 .962-.244 1.68-.732 2.154s-1.192.71-2.112.71H13.092c-.92 0-1.62-.236-2.1-.71-.482-.474-.722-1.192-.722-2.154V-68.69c0-.976.24-1.698.721-2.164.481-.467 1.182-.7 2.101-.7h5.241v-4.86h-5.687c-2.362 0-4.158.612-5.39 1.836-1.23 1.223-1.845 3.01-1.845 5.357v20.604c0 2.348.615 4.134 1.846 5.357 1.23 1.224 3.027 1.836 5.39 1.836zm12.307-17.187c.608 0 1.128-.22 1.56-.658.431-.439.647-.948.647-1.528v-21.028l-.17-3.119 1.188 1.613 2.78 2.95c.396.424.884.636 1.464.636.524 0 .98-.177 1.369-.53.389-.354.583-.807.583-1.359a1.71 1.71 0 00-.159-.753 2.317 2.317 0 00-.456-.626l-7.087-6.811c-.297-.283-.587-.48-.87-.594a2.27 2.27 0 00-1.73 0c-.275.113-.555.311-.838.594l-7.108 6.811c-.198.198-.35.407-.456.626-.106.22-.16.47-.16.753 0 .552.195 1.005.584 1.358.39.354.846.53 1.369.53.594 0 1.082-.211 1.464-.636l2.78-2.949 1.188-1.613-.17 3.12v21.027c0 .58.216 1.09.647 1.528.432.438.959.658 1.581.658z"/></svg>