<svg xmlns="http://www.w3.org/2000/svg" xmlns:xlink="http://www.w3.org/1999/xlink" viewBox="0 0 1014.35 1066.31"><defs><linearGradient id="rod_2" data-name="rod 2" x1="462.94" y1="391.27" x2="592.94" y2="391.27" gradientUnits="userSpaceOnUse"><stop offset=".56" stop-color="#ff8a15"/><stop offset=".85" stop-color="#ebcaa9"/><stop offset=".99" stop-color="#ff8a15"/></linearGradient><linearGradient id="rod_2-2" x1="462.94" y1="726.19" x2="592.94" y2="726.19" xlink:href="#rod_2"/><linearGradient id="linear-gradient" x1="332.94" y1="664.62" x2="611.46" y2="664.62" gradientUnits="userSpaceOnUse"><stop offset="0" stop-color="#ab8679" stop-opacity="0"/><stop offset=".63" stop-color="#ab8679"/></linearGradient><linearGradient id="linear-gradient-2" x1="578.05" y1="348.72" x2="531.01" y2="267.23" gradientUnits="userSpaceOnUse"><stop offset=".52" stop-color="#ab8679"/><stop offset="1" stop-color="#ab8679" stop-opacity="0"/></linearGradient><linearGradient id="linear-gradient-3" x1="414.17" y1="340.47" x2="562.42" y2="488.72" gradientUnits="userSpaceOnUse"><stop offset="0" stop-color="#ffd9cc" stop-opacity="0"/><stop offset=".28" stop-color="#ffd9cc"/></linearGradient><linearGradient id="linear-gradient-4" x1="613.32" y1="611.9" x2="890.91" y2="772.17" gradientUnits="userSpaceOnUse"><stop offset=".28" stop-color="#ab8679"/><stop offset="1" stop-color="#ab8679" stop-opacity="0"/></linearGradient><linearGradient id="linear-gradient-5" x1="645.45" y1="471.38" x2="547.24" y2="641.49" gradientUnits="userSpaceOnUse"><stop offset="0" stop-color="#c99e8f" stop-opacity="0"/><stop offset=".61" stop-color="#c99e8f"/></linearGradient><radialGradient id="radial-gradient" cx="528.32" cy="539.15" r="204.97" gradientUnits="userSpaceOnUse"><stop offset=".13" stop-color="#264980"/><stop offset=".6" stop-color="#264980" stop-opacity="0"/></radialGradient><style>.cls-12{opacity:.64}.cls-13{isolation:isolate}.cls-15{fill:#0053a7}.cls-16{fill:#002850}.cls-20{fill:#00458b}.cls-21{fill:#005cb8}.cls-22{fill:#0065cc}.cls-29{fill:#c1272d}</style></defs><g id="Layer_1" data-name="Layer 1"><g id="rod"><path d="M567 692.07A360.46 360.46 0 0 0 605.66 709c7.63 2.81 17.39 6.12 28.87 9.28 6.09 1.68 15.19 4.16 27.28 6.37a277.91 277.91 0 0 0 35.06 4.14c16.25.85 27.59 1.44 42.36-1.38.42-.08 8.62-2.1 25-6.14 13.28-3.27 16-4 22.13-5.43 13.16-3.16 19.74-4.74 25.41-5.89a312 312 0 0 1 32.76-4.85c18.5-1.74 39.87-3.57 65.67 2.13 6.76 1.5 12.19 3.15 15.71 4.3a21.93 21.93 0 0 0 9.81-.83 23.39 23.39 0 0 0 6.21-3.26c2.58-1.76 6.17-4.63 11.25-10.87a108.14 108.14 0 0 0 9.07-13.13 147 147 0 0 0 7.75-15.32c.25-.55 4.9-11.07 8.44-22.21A278.24 278.24 0 0 0 990 585.07c1.79-31.85-3.48-54.74-8.75-77.61 0 0-3.78-16.44-15.51-36.19-2.38-4-6.08-9.62-12.95-13.34a29.69 29.69 0 0 0-8.79-3.09 127 127 0 0 1-28.88-6.14 131.22 131.22 0 0 1-53.11-34.46q-5.82-11-12.1-22.12c-18-32-36.37-61.56-54.54-88.62a366.59 366.59 0 0 0-242-105.67 510.57 510.57 0 0 1-64.76 44.31c-28.23 16.29-53 15.55-54.53 27.27-2 15.21 34.21 33.91 34.08 34.09s-2.79-1.93-6.11-4.36a106.22 106.22 0 0 1-8.77-6.29l-97.6 44.73c-15.65 22.78-39.92 64.95-47.72 122.71 0 0-9.79 72.51 18.73 146.42 7.19 18.65 17.09 37.61 17.09 37.61 4.1 7.87 7.85 14.36 10.69 19.12a226.53 226.53 0 0 0 44.3 24.23s25.59 10.47 53.36 14.55c9.75 1.44 20.2 2.13 20.2 2.13.7 0 6.66.51 12.95.55a296.3 296.3 0 0 0 40.83-2.61 235.64 235.64 0 0 0 24.57-5.29 182.39 182.39 0 0 0 20-6.12c9.34-3.54 15.67-7.08 25.77-12.42a114.2 114.2 0 0 0 14.64-8.92 92.75 92.75 0 0 0 10.55-8.9 52.56 52.56 0 0 0 7.92-9.2 37.15 37.15 0 0 0 4.38-8.7 38.45 38.45 0 0 0 1.87-12 49.7 49.7 0 0 0-1.46-11.1 83.66 83.66 0 0 0-2.53-9.39 61.52 61.52 0 0 0 5.78-15.55 54.07 54.07 0 0 0 1.4-14.41 57.47 57.47 0 0 0-2.29-13.56 59.92 59.92 0 0 0-4.78-11.73 81.16 81.16 0 0 0-10.22-58.65 81.06 81.06 0 0 0-7.09-9.93 48.15 48.15 0 0 0-.06-10.25 46.16 46.16 0 0 0-2.59-10.9 47 47 0 0 0-6.58-11.69 50.87 50.87 0 0 0-8.14-9 51.47 51.47 0 0 0-10.49-7c-2.66-1.33-5.72-2.56-8-3.47-1.16-.47-2.51-1-5.21-2-3.16-1.22-4.75-1.83-5.54-2.11a69.35 69.35 0 0 0-8.45-2.33 108.44 108.44 0 0 0-10.75-1.83c-4.59-.57-6.21-.55-10.88-.95 0 0-7.43-.65-14-1.72-5.77-.94-14.91-2.42-24.67-7.81a72.52 72.52 0 0 1-18.44-15.07c-2.39-2.59-4.54-5.25-6.95-8.23-1.16-1.44-5.91-7.36-9.8-13a167 167 0 0 1-14.61-26.14" style="fill:#fbc5b2"/><path d="M592.94 341.32v99.91a140.57 140.57 0 0 0-18.08-8.66 99.69 99.69 0 0 0-14.77-4.83 119.89 119.89 0 0 0-14.7-2.31c-7.63-.9-8.07-.55-15.16-1.41a104.35 104.35 0 0 1-15.23-2.63 66.51 66.51 0 0 1-13.18-4.74 69 69 0 0 1-12.47-8.14c-5.22-4.24-8.37-7.94-13.31-13.84-3.56-4.23-8.12-10-13.07-17.24v-36.11z" style="fill:url(#rod_2)"/><path d="M552.38 696.58a258.42 258.42 0 0 0 14.66-4.51c3.88 2.1 7.44 3.9 10.57 5.43 3.66 1.79 6.85 3.25 9.36 4.37 2.32 1 4.34 1.9 6 2.58v32.87h0c-.74 12.75-29.54 23-65 23s-64.23-10.25-65-23h0q0-16.87.07-33.74c5.66.6 12.65 1.14 20.69 1.3a257 257 0 0 0 26.24-.88 216.89 216.89 0 0 0 26.53-3.58c7.19-1.42 12.96-3.04 15.88-3.84z" style="fill:url(#rod_2-2)"/><ellipse cx="527.94" cy="340.81" rx="65" ry="23.5" style="fill:#ebb278"/><path d="M553.9 338.78c.89-7.32-12.43-20.9-26-20.89s-26.83 13.51-26 20.89c1.11 9.39 25.28 9 27.25 9 4.06-.14 23.74-.61 24.75-9z"/></g></g><g id="color"><path d="M438.35 269.28c.34 2.92 3.53 4.63 7.92 7 22.65 12.14 48.87 2.66 56 0l.85-.33c16-6.33 27.06-21 23.94-28.58-1-2.39-3.67-3.77-9.07-6.52a48.58 48.58 0 0 0-14.73-4.85c-7.94-1.07-14.2 1.68-33.45 11.79-27.56 14.43-31.9 17.81-31.46 21.49z" style="fill:#fff3f2"/><path d="M332.94 624.32a286 286 0 0 0 278.41 14.89 66.64 66.64 0 0 1-3.76 26.32 63.43 63.43 0 0 1-3.83 8.59 192.49 192.49 0 0 1-36.72 18 233.59 233.59 0 0 1-27.04 7.47c-2.71.59-5.08 1-7.07 1.42-6.66 1.24-14 2.29-22.08 3-49 4.25-86.3-7.25-95.44-10.23A232.59 232.59 0 0 1 354 663.1q-10.52-19.4-21.06-38.78z" style="fill:url(#linear-gradient)"/><path d="M468.19 303.5a179.09 179.09 0 0 0 51.13-6.82c40.63-11.65 51.79-31 75-27.27 29.46 4.72 47 41.59 44.31 44.31-2.31 2.38-20.23-21-47.72-20.45-5.08.1-12.48 2.34-27.27 6.82-8.77 2.66-15 4.78-19.73 6.51-18.47 6.75-20 6.76-21.17 7.12-9.74 3.05-26.03 3.35-54.55-10.22z" style="fill:url(#linear-gradient-2)"/><path d="M449.44 352.92A160.93 160.93 0 0 0 469.9 387c9.76 12.45 18.66 23.79 34.08 30.67 10.58 4.73 22.79 5.9 30.68 6.82 9.25 1.08 14.58.82 24.16 3a103.43 103.43 0 0 1 19.95 6.63c.6 1.05 1.27 2.28 2 3.66.46.89 1 2 1.58 3.22 1.2 2.54 2.15 4.86 2.92 6.87.9 2.36 1.56 4.38 2 5.9a98.123 98.123 0 0 1 2.12 8 289.26 289.26 0 0 1-51.33.25c-31.52-2.65-69.1-5.59-102.26-30.67-11-8.29-33.3-27.83-47.72-64.77z" style="fill:url(#linear-gradient-3)"/><path d="M567 692.07c4.81-1.66 8.8-3.3 11.81-4.63 4.64-2.05 8.07-3.84 11.8-5.79 5-2.64 8.64-4.73 9.55-5.26 3.3-1.93 6.14-3.7 8.45-5.19 44 16.77 78.74 18 102.29 16.12 37.87-3.08 57.83-15.18 110-21a411.82 411.82 0 0 1 68.45-1.92A137.16 137.16 0 0 0 898 684a89.09 89.09 0 0 0 9.55 14.63c4.26 5.23 7.05 7.3 8.35 8.2a34.14 34.14 0 0 0 10 4.73l-10.86-3.15a235 235 0 0 0-56.6-4.37c-22.65 1-42.44 5.42-64.76 10.22-30.81 6.64-37.47 9.71-47.88 11.93-2.05.44-5.7 1.11-10.07 1.71-15 2.07-27.19 1.52-38 1-4.26-.22-11-.66-19.28-1.66a281.112 281.112 0 0 1-42.9-8.6A290.91 290.91 0 0 1 567 692.07z" style="fill:url(#linear-gradient-4)"/><path d="M578.77 434.09a98.4 98.4 0 0 1 12.13 36.42 97.4 97.4 0 0 1 0 23.86 65.11 65.11 0 0 1 13.63 68.18A51.91 51.91 0 0 1 614.76 583c4.91 20.21-4.38 36.82-6.82 40.9a62.48 62.48 0 0 1 3.41 20.45 63.48 63.48 0 0 1-7.59 29.77 77.44 77.44 0 0 0 17-12.61c2.69-2.64 7.84-7.68 11-13.75 7.81-14.8 2.1-32 0-37.5a59 59 0 0 0 6.82-34.08 57.55 57.55 0 0 0-6.69-21.2 81.36 81.36 0 0 0-17.31-68.58 49.43 49.43 0 0 0-3.27-22.7c-8.4-20.96-28.91-28.37-32.54-29.61z" style="fill:url(#linear-gradient-5)"/><path d="M649.08 360.43c-2.31.29-8.42 45.85 13.64 88.62 29 56.16 77.1 73.54 78.39 71.58s-37.59-19.33-68.17-75c-24.04-43.76-21.63-85.48-23.86-85.2zM944 454.84c28.46 2.48 49.29 73.67 46 131.05-3.37 58-32.89 126.91-61.27 126-29.26-1-57.82-76.25-51.06-141.27 5.75-55.43 38.68-118.21 66.33-115.78z" style="fill:#c99e8f"/></g><g id="axes"><g class="cls-12"><g class="cls-13"><path d="M539.35 551.42h9v396h-9zm0-414h9v414h-9z" style="fill:#0067cf"/><path class="cls-15" d="M539.35 947.41h9l15.58 9h-9l-15.58-9z"/><path class="cls-15" d="M554.93 956.41h9l-31.17 99h-9l31.17-99z"/><path class="cls-16" d="M554.93 128.41h9l-15.58 9h-9l15.58-9z"/><path style="fill:#0071e2" d="M523.76 29.41h9l31.17 99h-9l-31.17-99z"/><path style="fill:#004c99" d="m523.76 29.41 31.17 99-15.58 9v810l15.58 9-31.17 99-31.18-99 15.59-9v-810l-15.59-9 31.18-99z"/></g></g><g class="cls-12"><g class="cls-13"><path style="fill:#00264d" d="m807.85 395.23 1.35 16.37-5.87-7.49-1.35-16.37 5.87 7.49z"/><path class="cls-20" d="m851.47 405.75 1.34 16.37-18.87-1.51-1.35-16.37 18.88 1.51z"/><path class="cls-21" d="m898.26 363.87 1.35 16.37-46.8 41.88-1.34-16.37 46.79-41.88z"/><path class="cls-22" d="m832.59 404.24 1.35 16.37L534.8 558.09l-1.35-16.37 299.14-137.48z"/><path class="cls-22" d="m533.45 541.72 1.35 16.37L248.67 689.6l-1.35-16.37 286.13-131.51z"/><path style="fill:#0062c4" d="m253.19 680.72 1.34 16.37-96.27 23.87-1.35-16.37 96.28-23.87z"/><path style="fill:#0054aa" d="m898.26 363.87-46.79 41.88-18.88-1.51-299.14 137.48-286.13 131.51 5.87 7.49-96.28 23.87 46.79-41.88 18.88 1.51 286.13-131.5 299.14-137.49-5.87-7.49 96.28-23.87z"/></g></g><g class="cls-12"><g class="cls-13"><path class="cls-20" d="m254.53 387.74-1.34 16.37-5.87 7.49 1.35-16.37 5.86-7.49z"/><path style="fill:#005dbb" d="m223.93 404.24-1.35 16.37-18.88 1.51 1.35-16.37 18.88-1.51z"/><path class="cls-16" d="m205.05 405.75-1.35 16.37-46.79-41.88 1.35-16.37 46.79 41.88z"/><path d="m523.06 541.72-1.34 16.37-299.14-137.48 1.35-16.37 299.13 137.48zM809.2 673.23l-1.35 16.37-286.13-131.51 1.34-16.37L809.2 673.23z" style="fill:#00356a"/><path style="fill:#00458a" d="m899.61 704.59-1.35 16.37-96.28-23.87 1.35-16.37 96.28 23.87z"/><path class="cls-21" d="m158.26 363.87 96.27 23.87-5.86 7.49L547.8 532.72l286.14 131.5 18.87-1.51 46.8 41.88-96.28-23.87 5.87-7.49-286.14-131.51-299.13-137.48-18.88 1.51-46.79-41.88z"/></g></g><path d="M571.91 542.42c8 3.74 76.44 36.67 84.39 40.42-4.3 10.31-8.71 21.07-13 31.38-10.51-4.48-83.44-37.41-93.94-41.89 0 13.13-1 81.07-1 94.2-4.95 1.84-11 2.85-20.81 2.67-6.9-.12-15.2-.27-19.41-1.56-.24-13.79-.76-81.51-1-95.31-11.47 5.35-79.84 34.91-91.31 40.27-5-10.27-10.05-20.19-15-30.46 9.6-4.39 74.18-35.34 83.78-39.72-8.94-4-81.53-38.81-90.47-42.83 5.75-9.77 12-19.45 17.72-29.22 10.05 4.48 85.26 37.65 95.31 42.13 0-10.88 1-91.76 1-102.64 4.5-1.23 10.27-.63 17.36-.7 9.56-.08 17.59.09 22.82 1.84 0 5.25 1 96.25 1 101.5 8.8-4.23 87.82-38.94 96.62-43.17 5.64 10.17 10.9 19.6 16.54 29.77-7.59 3.37-83.01 39.9-90.6 43.32z" style="opacity:.9;fill:url(#radial-gradient)"/></g><g id="letters"><path class="cls-29" d="M887.18 296.19H874v13.21h-3.72v-13.21H857v-3.66h13.21v-13.22H874v13.22h13.22zm46.9 14.56h-19.45v-2.08a17.45 17.45 0 0 0 3.88-.45c1-.27 1.48-.67 1.48-1.22a5.78 5.78 0 0 0-.68-1.82c-.45-.91-1-1.94-1.72-3.07s-1.71-2.73-2.79-4.42-2.13-3.31-3.19-4.85q-2.58 3.41-5.86 8.19t-3.28 5.65a1.5 1.5 0 0 0 .89 1.42 11.75 11.75 0 0 0 3.94.57v2.08h-15.52v-2.08c.5 0 1.15-.11 2-.22a6.35 6.35 0 0 0 1.94-.54 10.19 10.19 0 0 0 2.45-1.77 21.43 21.43 0 0 0 1.86-2.25c1.25-1.71 2.85-3.86 4.8-6.43s3.68-4.91 5.18-7q-1.69-2.49-4.34-6.31L900 276a22.37 22.37 0 0 0-2-2.61 6.2 6.2 0 0 0-1.91-1.32 7.52 7.52 0 0 0-2-.51c-.83-.13-1.49-.21-2-.25v-2.08h19.25v2.08a22.43 22.43 0 0 0-3.53.42c-1.22.25-1.83.62-1.83 1.13a5.29 5.29 0 0 0 .74 1.95c.48.93 1.06 1.92 1.72 3l2.29 3.64q1.26 2 3.08 4.6 3.3-4.49 5.71-8.09c1.6-2.4 2.4-4 2.4-4.69a1.48 1.48 0 0 0-1.1-1.38 12.82 12.82 0 0 0-3.71-.55v-2.08h15.59v2.08a16.45 16.45 0 0 0-1.91.22 7.9 7.9 0 0 0-2 .54 7.18 7.18 0 0 0-2.27 1.58c-.5.57-1.17 1.39-2 2.47q-2.34 3-4.32 5.67c-1.32 1.77-2.9 3.93-4.76 6.47q2.35 3.35 5.23 7.58l5.52 8.11a19.42 19.42 0 0 0 2.08 2.5 11.13 11.13 0 0 0 1.91 1.63 4.53 4.53 0 0 0 1.88.51c.8.07 1.46.11 2 .13zm-521.75 644h-13.22V968h-3.72v-13.25h-13.21v-3.66h13.21v-13.22h3.72v13.22h13.22zm39.78 1.58-1.38 13h-33.39v-1l26.16-38.23h-9.58c-1.11 0-2.05 0-2.8.06a17 17 0 0 0-2.06.23c-1.29.26-2.74 1.32-4.36 3.2a20.65 20.65 0 0 0-3.64 5.94H419l1.26-11.74h31.14v1L425.25 967h9.87a41.68 41.68 0 0 0 5.3-.35q2.82-.35 3.66-1.2a22.38 22.38 0 0 0 3.55-4.45 29.81 29.81 0 0 0 2.43-4.66z"/><path d="M83.17 141.82a9 9 0 0 1-2-6.27v-25.63h5.28v26a3.67 3.67 0 0 0 .7 2.49 3 3 0 0 0 4 0 3.61 3.61 0 0 0 .7-2.49v-26h5.05v25.63a8.9 8.9 0 0 1-2 6.27A7.58 7.58 0 0 1 89 144a7.6 7.6 0 0 1-5.83-2.18zm18.53 0a9.08 9.08 0 0 1-2-6.27v-1.92h5v2.31q0 3.26 2.74 3.26a2.58 2.58 0 0 0 2-.79 3.89 3.89 0 0 0 .69-2.57 7.11 7.11 0 0 0-1-3.72 17.63 17.63 0 0 0-3.55-3.86 21.57 21.57 0 0 1-4.56-5.21 10.68 10.68 0 0 1-1.29-5.26 8.8 8.8 0 0 1 2-6.17 7.61 7.61 0 0 1 5.86-2.18 7.29 7.29 0 0 1 5.73 2.18 9.13 9.13 0 0 1 1.95 6.27v1.39h-5v-1.73a3.85 3.85 0 0 0-.68-2.52 2.41 2.41 0 0 0-2-.79c-1.76 0-2.64 1.07-2.64 3.22a6.28 6.28 0 0 0 1 3.4 18.7 18.7 0 0 0 3.58 3.84 20 20 0 0 1 4.56 5.24 11.59 11.59 0 0 1 1.24 5.52 9 9 0 0 1-2 6.33 7.66 7.66 0 0 1-5.92 2.21 7.44 7.44 0 0 1-5.71-2.18zm16.8-31.9h14.4v4.8h-9.12v8.88H131v4.8h-7.25v10.32h9.12v4.8H118.5zm17.42 0h7.83c2.71 0 4.7.63 5.95 1.9s1.87 3.2 1.87 5.83v2.06q0 5.24-3.46 6.63v.09a4.16 4.16 0 0 1 2.72 2.35 12 12 0 0 1 .79 4.76v5.9c0 1 0 1.74.09 2.33a6.26 6.26 0 0 0 .48 1.75h-5.37a7.57 7.57 0 0 1-.39-1.54 24.56 24.56 0 0 1-.09-2.59v-6.14a5.19 5.19 0 0 0-.75-3.22 3.13 3.13 0 0 0-2.57-.91h-1.82v14.4h-5.28zm7.2 14.4a3.15 3.15 0 0 0 2.38-.82 3.87 3.87 0 0 0 .79-2.73v-2.59a4.26 4.26 0 0 0-.65-2.64 2.43 2.43 0 0 0-2-.82h-2.4v9.6zM157 115h-1.73v-5.09h5.09v4.56l-2.93 6.29H155zm8.34 26.82a9.08 9.08 0 0 1-2-6.27v-1.92h5v2.31c0 2.17.91 3.26 2.73 3.26a2.55 2.55 0 0 0 2-.79 3.83 3.83 0 0 0 .7-2.57 7.11 7.11 0 0 0-1-3.72 17.63 17.63 0 0 0-3.55-3.86 21.13 21.13 0 0 1-4.56-5.21 10.57 10.57 0 0 1-1.3-5.26 8.76 8.76 0 0 1 2-6.17 7.58 7.58 0 0 1 5.85-2.18 7.31 7.31 0 0 1 5.74 2.18 9.12 9.12 0 0 1 1.94 6.27v1.39h-5v-1.73a3.86 3.86 0 0 0-.67-2.52 2.43 2.43 0 0 0-2-.79c-1.76 0-2.64 1.07-2.64 3.22a6.29 6.29 0 0 0 1 3.4 18.32 18.32 0 0 0 3.57 3.84 19.67 19.67 0 0 1 4.56 5.24 11.59 11.59 0 0 1 1.25 5.52 9 9 0 0 1-2 6.33 7.69 7.69 0 0 1-5.93 2.21 7.45 7.45 0 0 1-5.69-2.18zm24.48-31.9h7.83q4.08 0 5.95 1.9t1.87 5.83v2.06q0 5.24-3.45 6.63v.09a4.17 4.17 0 0 1 2.71 2.35 11.85 11.85 0 0 1 .79 4.76v5.9a20.85 20.85 0 0 0 .1 2.33 5.65 5.65 0 0 0 .48 1.75h-5.38a7.51 7.51 0 0 1-.38-1.54 21.39 21.39 0 0 1-.1-2.59v-6.14a5.27 5.27 0 0 0-.74-3.22 3.16 3.16 0 0 0-2.57-.91h-1.83v14.4h-5.28zm7.2 14.4a3.15 3.15 0 0 0 2.38-.82 3.82 3.82 0 0 0 .79-2.73v-2.59a4.2 4.2 0 0 0-.65-2.64 2.43 2.43 0 0 0-2-.82h-2.4v9.6zm12.15-14.4h5.28v33.6h-5.28zm10.83 31.9a9 9 0 0 1-2-6.27v-17.66a9 9 0 0 1 2-6.27 9 9 0 0 1 11.72 0 9 9 0 0 1 2 6.27v2.88h-5v-3.22q0-3.31-2.74-3.31t-2.73 3.31v18.39c0 2.17.91 3.26 2.73 3.26s2.74-1.09 2.74-3.26v-6.58h-2.64v-4.8h7.63v11a9 9 0 0 1-2 6.27 9 9 0 0 1-11.72 0zm17.15-31.9h5.28v13.68h5.66v-13.68h5.28v33.6h-5.28V128.4h-5.66v15.12h-5.28zm24.29 4.8h-5.52v-4.8h16.32v4.8h-5.52v28.8h-5.28zm21.02-4.8h5.28v13.68h5.67v-13.68h5.27v33.6h-5.27V128.4h-5.67v15.12h-5.28zm24.24 0h7.15l5.48 33.6h-5.28l-1-6.67v.09h-6l-1 6.58h-4.9zm5.76 22.46-2.35-16.6H310l-2.3 16.6zm9.41-22.46h6.62l5.14 20.08h.09v-20.08h4.71v33.6H333L326.67 119h-.1v24.53h-4.7zm20.49 0h8.07q3.93 0 5.9 2.11t2 6.19v17q0 4.08-2 6.19t-5.9 2.11h-8.07zm8 28.8a2.54 2.54 0 0 0 2-.77 3.61 3.61 0 0 0 .7-2.49V118a3.61 3.61 0 0 0-.7-2.49 2.54 2.54 0 0 0-2-.77h-2.69v24zm-264.93 32.5h7.15l5.47 33.6h-5.28l-1-6.67v.09h-6l-1 6.58H80zm5.76 22.46-2.36-16.61h-.09l-2.31 16.61zm9.88-12.24h5.09v5.09h-5.09zm0 18.29h5.09v5.09h-5.09zm16.71-28.51h6.62l5.14 20.11h.09v-20.11h4.71v33.6h-5.43l-6.33-24.53h-.1v24.53h-4.7zm24.57 0h7.15l5.47 33.6h-5.27l-1-6.67v.09h-6l-1 6.58h-4.9zm5.76 22.46-2.35-16.61h-.1l-2.3 16.61zM159.44 176h-5.52v-4.8h16.32v4.8h-5.52v28.8h-5.28zm13.34-4.78h5.28v33.6h-5.28zm7.83 0h5.32l3.46 26.06h.1l3.45-26.06h4.85l-5.09 33.6h-7zm19.72 0h14.4V176h-9.12v8.88h7.25v4.8h-7.25V200h9.12v4.8h-14.4zm26.79 31.87a8.77 8.77 0 0 1-2.07-6.24v-17.66a8.77 8.77 0 0 1 2.07-6.24 9.11 9.11 0 0 1 11.9 0 8.77 8.77 0 0 1 2.06 6.24v17.66a8.77 8.77 0 0 1-2.06 6.24 9.11 9.11 0 0 1-11.9 0zm8.68-5.9v-18.34q0-3.32-2.73-3.31t-2.74 3.31v18.34c0 2.2.91 3.31 2.74 3.31s2.73-1.11 2.73-3.31zm8.84-25.97h7.82q4.08 0 6 1.89c1.25 1.27 1.87 3.21 1.87 5.84V181q0 5.24-3.45 6.63v.09a4.12 4.12 0 0 1 2.71 2.35 11.83 11.83 0 0 1 .79 4.75v5.91a21 21 0 0 0 .1 2.33 5.65 5.65 0 0 0 .48 1.75h-5.38a7.67 7.67 0 0 1-.38-1.54 21.39 21.39 0 0 1-.1-2.59v-6.14a5.27 5.27 0 0 0-.74-3.22 3.14 3.14 0 0 0-2.57-.91h-1.82v14.4h-5.28zm7.2 14.4a3.14 3.14 0 0 0 2.37-.82 3.82 3.82 0 0 0 .79-2.73v-2.6a4.31 4.31 0 0 0-.64-2.64 2.48 2.48 0 0 0-2-.81h-2.4v9.6zm12.16-14.4h5.28v33.6H264zm10.83 31.89a8.86 8.86 0 0 1-2-6.26v-17.66a8.9 8.9 0 0 1 2-6.27 9 9 0 0 1 11.71 0 9 9 0 0 1 2 6.27v2.88h-5v-3.22q0-3.32-2.73-3.31t-2.74 3.31v18.38q0 3.27 2.74 3.27t2.73-3.27v-6.57h-2.64v-4.8h7.64v11a8.91 8.91 0 0 1-2 6.26 8.92 8.92 0 0 1-11.71 0zM292 171.22h5.28v33.6H292zm9.18 0h6.62l5.14 20.11h.1v-20.11h4.7v33.6h-5.43L306 180.29h-.1v24.53h-4.7z" style="fill:#4d4d4d"/><circle cx="43.95" cy="126" r="18" style="stroke:#666;stroke-miterlimit:10;fill:#fbc5b2"/><circle cx="43.95" cy="187.3" r="18" style="fill:#ff0;stroke:#666;stroke-miterlimit:10"/><path class="cls-29" d="M836.35 792.38h-13.21v13.21h-3.72v-13.21H806.2v-3.67h13.22V775.5h3.72v13.21h13.21zm42.71-24.94a7.26 7.26 0 0 0-1.58.4 5.82 5.82 0 0 0-1.55.72 11.44 11.44 0 0 0-1.55 1.08 18.62 18.62 0 0 0-1.59 2c-1.52 2.15-2.93 4.33-4.21 6.54s-2.91 5-4.84 8.41a15.63 15.63 0 0 0-1.43 3 11.65 11.65 0 0 0-.36 3.31v7.94a3.75 3.75 0 0 0 .43 1.83 3 3 0 0 0 1.45 1.25 15.69 15.69 0 0 0 2.2.57 14.52 14.52 0 0 0 2.55.37v2.08h-19.46v-2.08l2.46-.22a9 9 0 0 0 2.29-.43 2.73 2.73 0 0 0 1.45-1.2 4.07 4.07 0 0 0 .39-1.87V791a5.31 5.31 0 0 0-.57-1.72c-.38-.83-.83-1.75-1.36-2.76q-1.75-3.4-3.9-7.36c-1.42-2.63-2.66-4.89-3.72-6.76a15.33 15.33 0 0 0-1.71-2.52 8.77 8.77 0 0 0-1.71-1.5 5.53 5.53 0 0 0-1.69-.67 10.92 10.92 0 0 0-1.77-.3v-2.08H857v2.08a19.07 19.07 0 0 0-4.22.41c-.82.24-1.23.57-1.23 1a2 2 0 0 0 .18.61c.11.29.28.66.49 1.11s.56 1.09.91 1.74l1 1.89c.92 1.74 1.85 3.47 2.81 5.2s2.2 4 3.74 6.75q4.59-7.41 7-11.55c1.61-2.76 2.42-4.42 2.42-5a1.33 1.33 0 0 0-.5-1.08 3.54 3.54 0 0 0-1.32-.65 9.43 9.43 0 0 0-1.84-.3c-.67-.05-1.28-.11-1.85-.17v-2.08h14.45z"/><g style="opacity:.88"><path d="M556.22 560.14h-23v-2.78a23.88 23.88 0 0 0 5.05-.78c1.35-.39 2-.87 2-1.44a6 6 0 0 0-.08-.86 3.69 3.69 0 0 0-.24-.9L535.34 541h-19.45c-.73 1.82-1.33 3.41-1.78 4.76s-.87 2.61-1.24 3.75a25.79 25.79 0 0 0-.7 2.74 9.86 9.86 0 0 0-.2 1.72c0 1 .82 1.84 2.47 2.42a19.72 19.72 0 0 0 5.54 1v2.78h-20.87v-2.78a16 16 0 0 0 2.54-.45 8.3 8.3 0 0 0 2.5-1 9.93 9.93 0 0 0 2.42-2.21 14.83 14.83 0 0 0 1.68-3.18q4.17-10.44 9.22-23.44t9-23.16h3.13l18.47 47.81a9.7 9.7 0 0 0 1.33 2.46 9.54 9.54 0 0 0 2.07 1.83 8.64 8.64 0 0 0 2.34.92 11.56 11.56 0 0 0 2.43.41zm-22.3-22.66-8.4-21.48-8.28 21.51z" style="fill:#ff0"/></g></g></svg>