<svg xmlns="http://www.w3.org/2000/svg" viewBox="367.5 127.5 561 321" width="561" height="321"><defs><marker orient="auto" overflow="visible" markerUnits="strokeWidth" id="a" stroke-linejoin="miter" stroke-miterlimit="10" viewBox="-1 -4 10 8" markerWidth="10" markerHeight="8" color="#000"><path d="M8 0 0-3v6z" fill="currentColor" stroke="currentColor"/></marker></defs><g fill="none"><text transform="rotate(-45 701.527 -758.933)" fill="#000">
          <tspan font-family="Arial" font-size="14" font-weight="400" x="0" y="13">failure</tspan>
        </text><path fill="#ededff" d="M368 128h128v48H368z"/><path stroke="#000" stroke-linecap="round" stroke-linejoin="round" d="M368 128h128v48H368z"/><text transform="translate(373 142.5)" fill="#000">
            <tspan font-family="Courier New" font-size="16" font-weight="400" x="30.195" y="13">frozen</tspan>
          </text><path fill="#ededff" d="M368 264h128v48H368z"/><path stroke="#000" stroke-linecap="round" stroke-linejoin="round" d="M368 264h128v48H368z"/><text transform="translate(373 278.5)" fill="#000">
            <tspan font-family="Courier New" font-size="16" font-weight="400" x="25.395" y="13">waiting</tspan>
          </text><path fill="#ededff" d="M584 264h128v48H584z"/><path stroke="#000" stroke-linecap="round" stroke-linejoin="round" d="M584 264h128v48H584z"/><text transform="translate(589 278.5)" fill="#000">
            <tspan font-family="Courier New" font-size="16" font-weight="400" x="6.191" y="13">in-progress</tspan>
          </text><path fill="#ededff" d="M800 264h128v48H800z"/><path stroke="#000" stroke-linecap="round" stroke-linejoin="round" d="M800 264h128v48H800z"/><text transform="translate(805 278.5)" fill="#000">
            <tspan font-family="Courier New" font-size="16" font-weight="400" x="30.195" y="13">failed</tspan>
          </text><path fill="#ededff" d="M584 400h128v48H584z"/><path stroke="#000" stroke-linecap="round" stroke-linejoin="round" d="M584 400h128v48H584z"/><text transform="translate(589 414.5)" fill="#000">
            <tspan font-family="Courier New" font-size="16" font-weight="400" x="15.793" y="13">succeeded</tspan>
          </text><path marker-end="url(#a)" stroke="#000" stroke-linecap="round" stroke-linejoin="round" d="M432 176v78.1m64 33.9h78.1m137.9 0h78.1M648 312v78.1"/><text transform="translate(440.606 208.923)" fill="#000">
          <tspan font-family="Arial" font-size="14" font-weight="400" x="0" y="13">unfreeze</tspan>
        </text><text transform="rotate(-45 594.07 -497.953)" fill="#000">
          <tspan font-family="Arial" font-size="14" font-weight="400" x="0" y="13">check pair</tspan>
        </text><text transform="translate(655.515 345.869)" fill="#000">
          <tspan font-family="Arial" font-size="14" font-weight="400" x="0" y="13">success</tspan>
        </text></g></svg>