<svg xmlns="http://www.w3.org/2000/svg" width="561" height="321" viewBox="367.5 127.5 561 321"><defs><marker id="a" stroke-linejoin="miter" stroke-miterlimit="10" color="#000" markerHeight="8" markerUnits="strokeWidth" markerWidth="10" orient="auto" overflow="visible" viewBox="-1 -4 10 8"><path fill="currentColor" stroke="currentColor" d="M8 0 0-3v6z"/></marker></defs><g fill="none"><text fill="#000" transform="rotate(-45 701.527 -758.933)"><tspan x="0" y="13" font-family="Arial" font-size="14" font-weight="400">failure</tspan></text><path fill="#ededff" d="M368 128h128v48H368z"/><path stroke="#000" stroke-linecap="round" stroke-linejoin="round" d="M368 128h128v48H368z"/><text fill="#000" transform="translate(373 142.5)"><tspan x="30.195" y="13" font-family="Courier New" font-size="16" font-weight="400">frozen</tspan></text><path fill="#ededff" d="M368 264h128v48H368z"/><path stroke="#000" stroke-linecap="round" stroke-linejoin="round" d="M368 264h128v48H368z"/><text fill="#000" transform="translate(373 278.5)"><tspan x="25.395" y="13" font-family="Courier New" font-size="16" font-weight="400">waiting</tspan></text><path fill="#ededff" d="M584 264h128v48H584z"/><path stroke="#000" stroke-linecap="round" stroke-linejoin="round" d="M584 264h128v48H584z"/><text fill="#000" transform="translate(589 278.5)"><tspan x="6.191" y="13" font-family="Courier New" font-size="16" font-weight="400">in-progress</tspan></text><path fill="#ededff" d="M800 264h128v48H800z"/><path stroke="#000" stroke-linecap="round" stroke-linejoin="round" d="M800 264h128v48H800z"/><text fill="#000" transform="translate(805 278.5)"><tspan x="30.195" y="13" font-family="Courier New" font-size="16" font-weight="400">failed</tspan></text><path fill="#ededff" d="M584 400h128v48H584z"/><path stroke="#000" stroke-linecap="round" stroke-linejoin="round" d="M584 400h128v48H584z"/><text fill="#000" transform="translate(589 414.5)"><tspan x="15.793" y="13" font-family="Courier New" font-size="16" font-weight="400">succeeded</tspan></text><path stroke="#000" stroke-linecap="round" stroke-linejoin="round" marker-end="url(#a)" d="M432 176v78.1m64 33.9h78.1m137.9 0h78.1M648 312v78.1"/><text fill="#000" transform="translate(440.606 208.923)"><tspan x="0" y="13" font-family="Arial" font-size="14" font-weight="400">unfreeze</tspan></text><text fill="#000" transform="rotate(-45 594.07 -497.953)"><tspan x="0" y="13" font-family="Arial" font-size="14" font-weight="400">check pair</tspan></text><text fill="#000" transform="translate(655.515 345.869)"><tspan x="0" y="13" font-family="Arial" font-size="14" font-weight="400">success</tspan></text></g></svg>