<svg xmlns="http://www.w3.org/2000/svg" viewBox="0 0 535 510" style="font-size:23px;font-family:sans-serif"><defs><style>.axis,.tickMark{stroke:#000;stroke-width:1.5;fill:none;stroke-linecap:square}.controlPoint{fill:#fff;stroke:#000;stroke-width:3}.handleLine{fill:none;stroke:#000;stroke-width:2}.axisLabel{text-anchor:middle}.axisValue{fill:gray}.axisValue.vert{text-anchor:end}.axisValue.horz{text-anchor:middle}.pointLabel{fill:#000;font-size:25px}</style></defs><g transform="translate(110 420)"><path style="stroke:none;fill:#fff" d="M0-400h400V0H0z"/><path d="M400 0v-400M0-400h400" style="stroke:gray;stroke-width:1.5;stroke-dasharray:3 4;fill:none"/><path class="axis" d="M0 0v-400"/><path class="tickMark" d="M0-200h-20M0-400h-20"/><text x="-30" y="-200" dy=".3em" class="axisValue vert">0.5</text><text x="-30" y="-400" dy=".3em" class="axisValue vert">1</text><text x="200" y="-80" class="axisLabel" transform="rotate(-90)">Output progress</text><path class="axis" d="M0 0h400"/><path class="tickMark" d="M200 0v20M400 0v20"/><text x="200" y="20" dy="1.1em" class="axisValue horz">0.5</text><text x="400" y="20" dy="1.1em" class="axisValue horz">1</text><text x="200" y="80" class="axisLabel">Input progress</text><text x="-25" y="25" class="axisValue">0</text><path class="handleLine" d="m0 0 240-40"/><circle cx="240" cy="-40" r="10" class="controlPoint"/><text x="260" y="-40" dy=".4em" class="pointLabel">P1</text><path class="handleLine" d="M400-400 80-280"/><circle cx="80" cy="-280" r="10" class="controlPoint"/><text x="60" y="-280" dy=".4em" class="pointLabel" text-anchor="end">P2</text><path d="M0 0c240-40 80-280 400-400" style="fill:none;stroke:#00f;stroke-width:7;stroke-linecap:round"/><circle r="10" class="controlPoint"/><text x="-10" y="-20" dy=".4em" class="pointLabel" text-anchor="end">P0</text><circle cx="400" cy="-400" r="10" class="controlPoint"/><text x="395" y="-375" dy=".4em" class="pointLabel" text-anchor="end">P3</text></g></svg>