<svg xmlns="http://www.w3.org/2000/svg" xmlns:xlink="http://www.w3.org/1999/xlink" viewBox="0 0 310 380" style="font-size:15px;font-family:sans-serif"><defs><style>.axis,.tickMark{stroke:#000;stroke-width:1.2;fill:none;stroke-linecap:square}.curve,.dotted{fill:none;stroke:#00f;stroke-width:3;stroke-linecap:round}.dotted{stroke-width:1.5;stroke-dasharray:2 6}.filledEndPoint{fill:#00f;stroke:none}.openEndPoint{fill:none;stroke:#00f;stroke-width:1.5}.lineKnockout{fill:none;stroke:#555;stroke-width:2}.circleKnockout{fill:#555;stroke:none}.axisValue{fill:gray}.axisValue.vert{text-anchor:end}.axisValue.horz,.paramLabel{text-anchor:middle}.paramLabel{font-size:15px}</style><g id="graph" style="font-size:10px"><path style="stroke:none;fill:#fff" d="M0-100h100V0H0z"/><path class="axis" d="M0 0v-100"/><path class="tickMark" d="M0-50h-5m5-50h-5"/><text x="-9" y="-50" dy=".3em" class="axisValue vert">0.5</text><text x="-9" y="-100" dy=".3em" class="axisValue vert">1</text><path class="axis" d="M0 0h100"/><path class="tickMark" d="M50 0v5m50-5v5"/><text x="50" y="7.5" dy="1.1em" class="axisValue horz">0.5</text><text x="100" y="7.5" dy="1.1em" class="axisValue horz">1</text><text x="-.5em" y="1em" class="axisValue" text-anchor="end">0</text></g></defs><g transform="translate(30 110)"><defs><mask id="step1StartGridMask" maskUnits="userSpaceOnUse" x="-30" y="-110" width="135" height="135"><rect x="-30" y="-110" width="100%" height="100%" fill="#fff"/><path d="M0 0v-100" class="lineKnockout"/><circle r="3" class="circleKnockout"/></mask><mask id="step1StartLineMask"><path fill="#fff" d="M-5-105h110V5H-5z"/><circle r="3"/></mask></defs><use xlink:href="#graph" mask="url(#step1StartGridMask)"/><g mask="url(#step1StartLineMask)"><path d="M0-100h100" class="curve"/><path d="M0 0v-100" class="dotted"/></g><circle r="3" class="openEndPoint"/><circle cy="-100" r="3.5" class="filledEndPoint"/><circle cx="100" cy="-100" r="3.5" class="filledEndPoint"/><text x="50" y="40" class="paramLabel">steps: 1<tspan x="50" dy="1em">position: start</tspan></text></g><g transform="translate(200 110)"><defs><mask id="step1EndGridMask" maskUnits="userSpaceOnUse" x="-30" y="-110" width="135" height="135"><rect x="-30" y="-110" width="100%" height="100%" fill="#fff"/><circle cx="100" r="3" class="circleKnockout"/></mask><mask id="step1EndLineMask"><path fill="#fff" d="M-5-105h110V5H-5z"/><circle cx="100" r="3"/></mask></defs><use xlink:href="#graph" mask="url(#step1EndGridMask)"/><g mask="url(#step1EndLineMask)"><path d="M0 0h100" class="curve"/><path d="M100 0v-100" class="dotted"/></g><circle r="3.5" class="filledEndPoint"/><circle cx="100" r="3" class="openEndPoint"/><circle cx="100" cy="-100" r="3.5" class="filledEndPoint"/><text x="50" y="40" class="paramLabel">steps: 1<tspan x="50" dy="1em">position: end</tspan></text></g><g transform="translate(30 320)"><defs><mask id="step3StartGridMask" maskUnits="userSpaceOnUse" x="-30" y="-110" width="135" height="135"><rect x="-30" y="-110" width="100%" height="100%" fill="#fff"/><path d="M0 0v-33.3" class="lineKnockout"/><circle r="3" class="circleKnockout"/></mask><mask id="step3StartLineMask"><path fill="#fff" d="M-5-105h110V5H-5z"/><circle r="3"/><circle cx="33.3" cy="-33.3" r="3"/><circle cx="66.6" cy="-66.6" r="3"/></mask></defs><use xlink:href="#graph" mask="url(#step3StartGridMask)"/><g mask="url(#step3StartLineMask)"><path d="M0-33.3h33.3m0-33.3h33.3m0-33.4H100" class="curve"/><path d="M0 0v-33.3m33.3 0v-33.3m33.3 0V-100" class="dotted"/></g><circle r="3" class="openEndPoint"/><circle cy="-33.3" r="3.5" class="filledEndPoint"/><circle cx="33.3" cy="-33.3" r="3" class="openEndPoint"/><circle cx="33.3" cy="-66.6" r="3.5" class="filledEndPoint"/><circle cx="66.6" cy="-66.6" r="3" class="openEndPoint"/><circle cx="66.6" cy="-100" r="3.5" class="filledEndPoint"/><circle cx="100" cy="-100" r="3.5" class="filledEndPoint"/><text x="50" y="40" class="paramLabel">steps: 3<tspan x="50" dy="1em">position: start</tspan></text></g><g transform="translate(200 320)"><defs><mask id="step3EndGridMask" maskUnits="userSpaceOnUse" x="-30" y="-110" width="135" height="135"><rect x="-30" y="-110" width="100%" height="100%" fill="#fff"/><circle cx="33.3" r="3" class="circleKnockout"/></mask><mask id="step3EndLineMask"><path fill="#fff" d="M-5-105h110V5H-5z"/><circle cx="33.3" r="3"/><circle cx="66.6" cy="-33.3" r="3"/><circle cx="100" cy="-66.6" r="3"/></mask></defs><use xlink:href="#graph" mask="url(#step3EndGridMask)"/><g mask="url(#step3EndLineMask)"><path d="M0 0h33.3m0-33.3h33.3m0-33.3H100" class="curve"/><path d="M33.3 0v-33.3h33.3v-33.3m33.4 0V-100" class="dotted"/></g><circle r="3.5" class="filledEndPoint"/><circle cx="33.3" r="3" class="openEndPoint"/><circle cx="33.3" cy="-33.3" r="3.5" class="filledEndPoint"/><circle cx="66.6" cy="-33.3" r="3" class="openEndPoint"/><circle cx="66.6" cy="-66.6" r="3.5" class="filledEndPoint"/><circle cx="100" cy="-66.6" r="3" class="openEndPoint"/><circle cx="100" cy="-100" r="3.5" class="filledEndPoint"/><text x="50" y="40" class="paramLabel">steps: 3<tspan x="50" dy="1em">position: end</tspan></text></g></svg>