<svg xmlns="http://www.w3.org/2000/svg" width="250" height="250" fill="none" font-family="sans-serif" font-size="14"><g stroke="#000"><path stroke="hsl(0deg, 80%, 40%)" d="M42.444 41.444a169 164 0 0 1 169 164"/><path stroke="hsl(240deg, 80%, 50%)" d="m42.444 41.444 169 164"/><path stroke="hsl(120deg, 80%, 30%)" d="M42.444 41.444a169 164 0 0 0 169 164"/><path d="M42.444 41.444h169v164"/><path d="M42.444 41.444v164h169"/></g><g fill="#000" font-size="12"><text fill="hsl(0deg,80%,40%)" transform="translate(112.444 79.444)">K=1</text><text fill="hsl(240deg,80%,50%)" transform="translate(112.444 105.444)">K=0</text><text fill="hsl(120deg, 80%, 30%)" transform="translate(112.444 169.444)">K=-1</text><text text-anchor="end" transform="translate(211.444 36.444)">K=infinity</text><text transform="translate(44.444 217.444)">K=-infinity</text></g><path fill="#ccc" stroke="#000" d="m157.444 75.444 21.214-21.213-3.536-3.535h14.142v14.142l-3.535-3.536-21.213 21.214Z"/><text x="20" y="27" fill="#000" font-size="12" text-anchor="middle" transform="rotate(-45 169.792 -152.33)">K &gt; 1</text><path fill="#ccc" stroke="#000" d="m80.729 152.16-21.213 21.213-3.536-3.535v14.142h14.142l-3.535-3.536L87.8 159.231z"/><text x="20" y="27" fill="#000" font-size="12" text-anchor="middle" transform="rotate(-45 244.038 26.916)">K &lt; -1</text></svg>