<svg xmlns="http://www.w3.org/2000/svg" id="graph-div" aria-roledescription="sequence" style="max-width:100%" viewBox="-50 -10 950 488">
    <style>
    @import url(https://cdnjs.cloudflare.com/ajax/libs/font-awesome/6.2.0/css/all.min.css);
    </style>
    <rect width="250" height="65" x="600" y="402" fill="#eaeaea" stroke="#666" class="actor actor-bottom" rx="3" ry="3"/>
    <text x="725" y="434.5" alignment-baseline="central" class="actor" dominant-baseline="central" font-size="16" font-weight="400" text-anchor="middle">
        <tspan x="725" dy="0">Client 2</tspan>
    </text>
    <rect width="250" height="65" x="300" y="402" fill="#eaeaea" stroke="#666" class="actor actor-bottom" rx="3" ry="3"/>
    <text x="425" y="434.5" alignment-baseline="central" class="actor" dominant-baseline="central" font-size="16" font-weight="400" text-anchor="middle">
        <tspan x="425" dy="0">Server</tspan>
    </text>
    <rect width="250" height="65" y="402" fill="#eaeaea" stroke="#666" class="actor actor-bottom" rx="3" ry="3"/>
    <text x="125" y="434.5" alignment-baseline="central" class="actor" dominant-baseline="central" font-size="16" font-weight="400" text-anchor="middle">
        <tspan x="125" dy="0">Client 1</tspan>
    </text>
    <path id="actor5991" stroke="#999" stroke-width=".5" d="M725 65v337" class="200" data-et="life-line" data-id="Client 2"/>
    <g id="root-5991" data-et="participant" data-id="Client 2">
        <rect width="250" height="65" x="600" fill="#eaeaea" stroke="#666" class="actor actor-top" rx="3" ry="3"/>
        <text x="725" y="32.5" alignment-baseline="central" class="actor" dominant-baseline="central" font-size="16" font-weight="400" text-anchor="middle">
            <tspan x="725" dy="0">Client 2</tspan>
        </text>
    </g>
    <path id="actor5990" stroke="#999" stroke-width=".5" d="M425 65v337" class="200" data-et="life-line" data-id="Server"/>
    <g id="root-5990" data-et="participant" data-id="Server">
        <rect width="250" height="65" x="300" fill="#eaeaea" stroke="#666" class="actor actor-top" rx="3" ry="3"/>
        <text x="425" y="32.5" alignment-baseline="central" class="actor" dominant-baseline="central" font-size="16" font-weight="400" text-anchor="middle">
            <tspan x="425" dy="0">Server</tspan>
        </text>
    </g>
    <path id="actor5989" stroke="#999" stroke-width=".5" d="M125 65v337" class="200" data-et="life-line" data-id="Client 1"/>
    <g id="root-5989" data-et="participant" data-id="Client 1">
        <rect width="250" height="65" fill="#eaeaea" stroke="#666" class="actor actor-top" rx="3" ry="3"/>
        <text x="125" y="32.5" alignment-baseline="central" class="actor" dominant-baseline="central" font-size="16" font-weight="400" text-anchor="middle">
            <tspan x="125" dy="0">Client 1</tspan>
        </text>
    </g>
    <style>
        <![CDATA[#graph-div,#graph-div #sequencenumber{fill:#333}#graph-div,#graph-div svg{font-family:"trebuchet ms",verdana,arial,sans-serif;font-size:12px}#graph-div .actor{stroke:#bcbcfb;fill:#ececfe}#graph-div .messageLine0{stroke-width:1.5;stroke-dasharray:none;stroke:#333}#graph-div #arrowhead path{fill:#333;stroke:#333}#graph-div .messageText,#graph-div text.actor>tspan{fill:#333;stroke:none}#graph-div .note{stroke:#e4db95;fill:#fff5ad}#graph-div .noteText,#graph-div .noteText>tspan{fill:#333;stroke:none}#graph-div :root{--mermaid-font-family:"trebuchet ms",verdana,arial,sans-serif}]]>
    </style>
    <defs>
        <symbol id="computer">
            <path d="M1 1v6.5h10V1H1zm9 5.5H2V2h8v4.5zm-5.1 3L5 9h2l.2.5H5zM12 11H0l1-3h1l-.6 2h9.2L10 8h1l1 3zM9.5 6h-7V2.5h7V6z"/>
        </symbol>
    </defs>
    <defs>
        <symbol id="database" fill-rule="evenodd" clip-rule="evenodd">
            <path d="M6.1 0h1.5l.1.1h.6v.1h.4v.1h.4v.1h.4l.1.1h.2v.1h.2l.1.1h.1l.1.1h.1V1h.3v.1h.1v.1h.1v.1l.1.1v.2h.1v9l-.1.1v.1h-.1v.1h-.1v.1h-.1v.1h-.2v.1h-.1l-.1.1H10v.1h-.2l-.1.1h-.2v.1h-.2l-.1.1h-.3l-.1.1h-.4l-.1.1h-.6l-.1.1h-1l-.2.1h-2l-.1-.1h-.6v-.1h-.4v-.1h-.4v-.1h-.4l-.1-.1h-.2v-.1H2l-.1-.1h-.1l-.1-.1h-.1V11h-.3v-.1h-.1v-.1h-.1v-.1l-.1-.1V1.4l.1-.1v-.1h.1v-.1h.1V1h.3V.8h.1l.1-.1H2V.6h.3l.1-.1h.2V.4h.2l.1-.1h.2l.1-.1h.4l.1-.1h.6l.1-.1h1.2l.1-.1h.4zM1.5 10.3v.1h.1v.1h.1v.1H2v.1l.1.1h.2v.1h.2l.1.1H3v.1h.2l.2.1h.3l.1.1h.5l.1.1h1.2l.1.1h1.8l.2-.1h.4l.2-.1h.4v-.1h.4V11h.2l.1-.1h.2l.1-.1h.1l.1-.1h.1l.1-.1h.1v-.1h.1v-.1h.1v-.2h.1v-2h-.1l-.1.1h-.1v.1H10l-.1.1h-.1l-.1.1h-.2v.1h-.4l-.2.1h-.2l-.1.1h-.5V9h-.6l-.2.1H4L3.7 9h-.4v-.1H3l-.1-.1h-.2l-.1-.1h-.2l-.1-.1H2v-.1h-.2v-.1h-.1l-.1-.1h-.1l-.1-.1v2zm0-2.9v.2h.1v.1h.1l.1.1H2V8h.2l.1.1h.1l.1.1h.2l.1.1H3l.1.1h.2v.1h.5l.1.1h.5l.2.1h3.6v-.1h.4l.2-.1H9l.2-.1h.2v-.1h.2l.1-.1h.2V8h.2v-.1h.1v-.1h.1l.1-.1h.1v-.2h.1V5.3h-.2v.1h-.1l-.1.1H10v.1h-.2v.1h-.5V6h-.6l-.2.1H8v.1h-.8l-.1.1H4v-.2h-.5V6h-.8l-.1-.1h-.2l-.1-.1h-.2L2 5.6l-.1-.1h-.1v-.1h-.2v-.1h-.1v2zm0-2.8v.1l.1.1.1.1h.1V5H2l.1.1h.2v.1h.2l.1.1h.2v.1H3l.1.1h.4l.1.1H4l.1.1h.7v.1H8v-.1h.4l.2-.1h.3l.1-.1h.2l.1-.1h.2v-.1h.2v-.1h.2V5h.3v-.1h.1l.1-.1v-.1h.1V2.5h-.2l-.1.1H10v.1h-.3V3h-.2l-.1.1h-.3v.1h-.3l-.1.1h-.4v.1h-.6l-.1.1H6.5l-.1.1H4.5l-.2-.1h-.5l-.1-.1h-.5v-.1h-.3V3h-.6v-.1H2v-.2h-.1l-.1-.1h-.1v-.1h-.2v2zM5.9.5H4.5l-.2.1h-.4l-.2.1h-.4v.1h-.4V1h-.2l-.1.1h-.2l-.1.1h-.1l-.1.1H2l-.1.1h-.1v.1h-.1v.1h-.1v.2h-.1V2h.2v.1h.1l.1.1H2l.1.1h.2v.1h.4v.1H3v.1h.2v.1h.4l.1.1h.5l.1.1h1.3l.1.1h1.8l.2-.1h.4l.2-.1h.4v-.1h.4v-.1h.2l.1-.1h.2l.1-.1h.1l.1-.1h.1l.1-.1h.1V2h.2v-.2h.1v-.2h-.1v-.1h-.1v-.1h-.1l-.1-.1H10l-.1-.1h-.2V1H9V.8h-.2V.7h-.4L8.3.6h-.5L7.7.5H6.6L6.3.4h-.5z"/>
        </symbol>
    </defs>
    <defs>
        <symbol id="clock">
            <path d="M6 1a5 5 0 1 1 0 10A5 5 0 0 1 6 1zm0-1a6 6 0 1 0 0 12A6 6 0 0 0 6 0zm3 6.2v.2L5.6 7a.7.7 0 0 1-.7-.7 71.6 71.6 0 0 1 .7-3.7l.5 3.1 2.7.5z"/>
        </symbol>
    </defs>
    <defs>
        <marker id="arrowhead" markerHeight="12" markerUnits="userSpaceOnUse" markerWidth="12" orient="auto" refX="7.9" refY="5">
            <path d="m0 0 10 5-10 5z"/>
        </marker>
    </defs>
    <defs>
        <marker id="filled-head" markerHeight="28" markerWidth="20" orient="auto" refX="15.5" refY="7">
            <path d="m18 7-9 6 5-6-5-6Z"/>
        </marker>
    </defs>
    <defs>
        <marker id="sequencenumber" markerHeight="40" markerWidth="60" orient="auto" refX="15" refY="15">
            <circle cx="15" cy="15" r="6"/>
        </marker>
    </defs>
    <g data-et="note" data-id="iba58feccc0">
        <rect width="650" height="39" x="100" y="75" fill="#EDF2AE" stroke="#666" class="note" rx="0" ry="0"/>
        <text x="425" y="80" alignment-baseline="middle" class="noteText" dominant-baseline="middle" dy="1em" font-size="16" font-weight="400" text-anchor="middle">
            <tspan x="425">In this case, an upload should succeed only if no resource exists yet.</tspan>
        </text>
    </g>
    <text x="274" y="129" alignment-baseline="middle" class="messageText" dominant-baseline="middle" dy="1em" font-size="16" font-weight="400" text-anchor="middle">PUT /doc HTTP/1.1</text>
    <text x="274" y="148" alignment-baseline="middle" class="messageText" dominant-baseline="middle" dy="1em" font-size="16" font-weight="400" text-anchor="middle">If-None-Match: *</text>
    <path fill="none" stroke-width="2" marker-end="url(#arrowhead)" d="M126 181h295" class="messageLine0" data-et="message" data-from="Client 1" data-id="ideb7504c80" data-to="Server"/>
    <text x="277" y="196" alignment-baseline="middle" class="messageText" dominant-baseline="middle" dy="1em" font-size="16" font-weight="400" text-anchor="middle">HTTP/1.1 201 Created</text>
    <text x="277" y="215" alignment-baseline="middle" class="messageText" dominant-baseline="middle" dy="1em" font-size="16" font-weight="400" text-anchor="middle">Last-Modified: date</text>
    <text x="277" y="234" alignment-baseline="middle" class="messageText" dominant-baseline="middle" dy="1em" font-size="16" font-weight="400" text-anchor="middle">Etag: &quot;abc&quot;</text>
    <path fill="none" stroke-width="2" marker-end="url(#arrowhead)" d="M424 267H129" class="messageLine0" data-et="message" data-from="Server" data-id="i6207b95675" data-to="Client 1"/>
    <text x="577" y="282" alignment-baseline="middle" class="messageText" dominant-baseline="middle" dy="1em" font-size="16" font-weight="400" text-anchor="middle">PUT /doc HTTP/1.1</text>
    <text x="577" y="301" alignment-baseline="middle" class="messageText" dominant-baseline="middle" dy="1em" font-size="16" font-weight="400" text-anchor="middle">If-None-Match: *</text>
    <path fill="none" stroke-width="2" marker-end="url(#arrowhead)" d="M724 334H429" class="messageLine0" data-et="message" data-from="Client 2" data-id="i365668ec18" data-to="Server"/>
    <text x="574" y="349" alignment-baseline="middle" class="messageText" dominant-baseline="middle" dy="1em" font-size="16" font-weight="400" text-anchor="middle">HTTP/1.1 412 Precondition Failed</text>
    <path fill="none" stroke-width="2" marker-end="url(#arrowhead)" d="M426 382h295" class="messageLine0" data-et="message" data-from="Server" data-id="i110c5309e6" data-to="Client 2"/>
</svg>
