<svg xmlns="http://www.w3.org/2000/svg" id="graph-div" aria-roledescription="sequence" style="max-width:100%" viewBox="-201 -10 951 730">
    <style>
    @import url(https://cdnjs.cloudflare.com/ajax/libs/font-awesome/6.2.0/css/all.min.css);
    </style>
    <rect width="250" height="65" x="300" y="644" fill="#eaeaea" stroke="#666" class="actor actor-bottom" rx="3" ry="3"/>
    <text x="425" y="676.5" alignment-baseline="central" class="actor" dominant-baseline="central" font-size="16" font-weight="400" text-anchor="middle">
        <tspan x="425" dy="0">Server</tspan>
    </text>
    <rect width="250" height="65" y="644" fill="#eaeaea" stroke="#666" class="actor actor-bottom" rx="3" ry="3"/>
    <text x="125" y="676.5" alignment-baseline="central" class="actor" dominant-baseline="central" font-size="16" font-weight="400" text-anchor="middle">
        <tspan x="125" dy="0">Client</tspan>
    </text>
    <path id="actor2765" stroke="#999" stroke-width=".5" d="M425 65v579" class="200" data-et="life-line" data-id="Server"/>
    <g id="root-2765" data-et="participant" data-id="Server">
        <rect width="250" height="65" x="300" fill="#eaeaea" stroke="#666" class="actor actor-top" rx="3" ry="3"/>
        <text x="425" y="32.5" alignment-baseline="central" class="actor" dominant-baseline="central" font-size="16" font-weight="400" text-anchor="middle">
            <tspan x="425" dy="0">Server</tspan>
        </text>
    </g>
    <path id="actor2764" stroke="#999" stroke-width=".5" d="M125 65v579" class="200" data-et="life-line" data-id="Client"/>
    <g id="root-2764" data-et="participant" data-id="Client">
        <rect width="250" height="65" fill="#eaeaea" stroke="#666" class="actor actor-top" rx="3" ry="3"/>
        <text x="125" y="32.5" alignment-baseline="central" class="actor" dominant-baseline="central" font-size="16" font-weight="400" text-anchor="middle">
            <tspan x="125" dy="0">Client</tspan>
        </text>
    </g>
    <style>
        <![CDATA[#graph-div,#graph-div #sequencenumber{fill:#333}#graph-div,#graph-div svg{font-family:"trebuchet ms",verdana,arial,sans-serif;font-size:16px}#graph-div .actor{stroke:#dacef3;fill:#ececff}#graph-div text.actor>tspan{fill:#000;stroke:none}#graph-div .messageLine0{stroke-width:1.5;stroke-dasharray:none;stroke:#333}#graph-div #arrowhead path{fill:#333;stroke:#333}#graph-div .messageText{fill:#333;stroke:none}#graph-div .note{stroke:#aa3;fill:#fff5ad}#graph-div .noteText,#graph-div .noteText>tspan{fill:#000;stroke:none}#graph-div .activation0{fill:#f4f4f4;stroke:#666}#graph-div :root{--mermaid-font-family:"trebuchet ms",verdana,arial,sans-serif}]]>
    </style>
    <defs>
        <symbol id="computer">
            <path d="M1 1v6.5h10V1H1zm9 5.5H2V2h8v4.5zm-5.1 3L5 9h2l.2.5H5zM12 11H0l1-3h1l-.6 2h9.2L10 8h1l1 3zM9.5 6h-7V2.5h7V6z"/>
        </symbol>
    </defs>
    <defs>
        <symbol id="database" fill-rule="evenodd" clip-rule="evenodd">
            <path d="M6.1 0h1.5l.1.1h.6v.1h.4v.1h.4v.1h.4l.1.1h.2v.1h.2l.1.1h.1l.1.1h.1V1h.3v.1h.1v.1h.1v.1l.1.1v.2h.1v9l-.1.1v.1h-.1v.1h-.1v.1h-.1v.1h-.2v.1h-.1l-.1.1H10v.1h-.2l-.1.1h-.2v.1h-.2l-.1.1h-.3l-.1.1h-.4l-.1.1h-.6l-.1.1h-1l-.2.1h-2l-.1-.1h-.6v-.1h-.4v-.1h-.4v-.1h-.4l-.1-.1h-.2v-.1H2l-.1-.1h-.1l-.1-.1h-.1V11h-.3v-.1h-.1v-.1h-.1v-.1l-.1-.1V1.4l.1-.1v-.1h.1v-.1h.1V1h.3V.8h.1l.1-.1H2V.6h.3l.1-.1h.2V.4h.2l.1-.1h.2l.1-.1h.4l.1-.1h.6l.1-.1h1.2l.1-.1h.4zM1.5 10.3v.1h.1v.1h.1v.1H2v.1l.1.1h.2v.1h.2l.1.1H3v.1h.2l.2.1h.3l.1.1h.5l.1.1h1.2l.1.1h1.8l.2-.1h.4l.2-.1h.4v-.1h.4V11h.2l.1-.1h.2l.1-.1h.1l.1-.1h.1l.1-.1h.1v-.1h.1v-.1h.1v-.2h.1v-2h-.1l-.1.1h-.1v.1H10l-.1.1h-.1l-.1.1h-.2v.1h-.4l-.2.1h-.2l-.1.1h-.5V9h-.6l-.2.1H4L3.7 9h-.4v-.1H3l-.1-.1h-.2l-.1-.1h-.2l-.1-.1H2v-.1h-.2v-.1h-.1l-.1-.1h-.1l-.1-.1v2zm0-2.9v.2h.1v.1h.1l.1.1H2V8h.2l.1.1h.1l.1.1h.2l.1.1H3l.1.1h.2v.1h.5l.1.1h.5l.2.1h3.6v-.1h.4l.2-.1H9l.2-.1h.2v-.1h.2l.1-.1h.2V8h.2v-.1h.1v-.1h.1l.1-.1h.1v-.2h.1V5.3h-.2v.1h-.1l-.1.1H10v.1h-.2v.1h-.5V6h-.6l-.2.1H8v.1h-.8l-.1.1H4v-.2h-.5V6h-.8l-.1-.1h-.2l-.1-.1h-.2L2 5.6l-.1-.1h-.1v-.1h-.2v-.1h-.1v2zm0-2.8v.1l.1.1.1.1h.1V5H2l.1.1h.2v.1h.2l.1.1h.2v.1H3l.1.1h.4l.1.1H4l.1.1h.7v.1H8v-.1h.4l.2-.1h.3l.1-.1h.2l.1-.1h.2v-.1h.2v-.1h.2V5h.3v-.1h.1l.1-.1v-.1h.1V2.5h-.2l-.1.1H10v.1h-.3V3h-.2l-.1.1h-.3v.1h-.3l-.1.1h-.4v.1h-.6l-.1.1H6.5l-.1.1H4.5l-.2-.1h-.5l-.1-.1h-.5v-.1h-.3V3h-.6v-.1H2v-.2h-.1l-.1-.1h-.1v-.1h-.2v2zM5.9.5H4.5l-.2.1h-.4l-.2.1h-.4v.1h-.4V1h-.2l-.1.1h-.2l-.1.1h-.1l-.1.1H2l-.1.1h-.1v.1h-.1v.1h-.1v.2h-.1V2h.2v.1h.1l.1.1H2l.1.1h.2v.1h.4v.1H3v.1h.2v.1h.4l.1.1h.5l.1.1h1.3l.1.1h1.8l.2-.1h.4l.2-.1h.4v-.1h.4v-.1h.2l.1-.1h.2l.1-.1h.1l.1-.1h.1l.1-.1h.1V2h.2v-.2h.1v-.2h-.1v-.1h-.1v-.1h-.1l-.1-.1H10l-.1-.1h-.2V1H9V.8h-.2V.7h-.4L8.3.6h-.5L7.7.5H6.6L6.3.4h-.5z"/>
        </symbol>
    </defs>
    <defs>
        <symbol id="clock">
            <path d="M6 1a5 5 0 1 1 0 10A5 5 0 0 1 6 1zm0-1a6 6 0 1 0 0 12A6 6 0 0 0 6 0zm3 6.2v.2L5.6 7a.7.7 0 0 1-.7-.7 71.6 71.6 0 0 1 .7-3.7l.5 3.1 2.7.5z"/>
        </symbol>
    </defs>
    <defs>
        <marker id="arrowhead" markerHeight="12" markerUnits="userSpaceOnUse" markerWidth="12" orient="auto" refX="7.9" refY="5">
            <path d="m0 0 10 5-10 5z"/>
        </marker>
    </defs>
    <defs>
        <marker id="filled-head" markerHeight="28" markerWidth="20" orient="auto" refX="15.5" refY="7">
            <path d="m18 7-9 6 5-6-5-6Z"/>
        </marker>
    </defs>
    <defs>
        <marker id="sequencenumber" markerHeight="40" markerWidth="60" orient="auto" refX="15" refY="15">
            <circle cx="15" cy="15" r="6"/>
        </marker>
    </defs>
    <g data-et="note" data-id="i2cf28d1b7a">
        <rect width="251" height="58" x="-151" y="75" fill="#EDF2AE" stroke="#666" class="note" rx="0" ry="0"/>
        <text x="-25" y="80" alignment-baseline="middle" class="noteText" dominant-baseline="middle" dy="1em" font-size="16" font-weight="400" text-anchor="middle">
            <tspan x="-25">The resource the client wants</tspan>
        </text>
        <text x="-25" y="99" alignment-baseline="middle" class="noteText" dominant-baseline="middle" dy="1em" font-size="16" font-weight="400" text-anchor="middle">
            <tspan x="-25">to modify is requested.</tspan>
        </text>
    </g>
    <g data-et="note" data-id="ib5f8488d6f">
        <rect width="250" height="58" x="450" y="191" fill="#EDF2AE" stroke="#666" class="note" rx="0" ry="0"/>
        <text x="575" y="196" alignment-baseline="middle" class="noteText" dominant-baseline="middle" dy="1em" font-size="16" font-weight="400" text-anchor="middle">
            <tspan x="575">The resource is returned with</tspan>
        </text>
        <text x="575" y="215" alignment-baseline="middle" class="noteText" dominant-baseline="middle" dy="1em" font-size="16" font-weight="400" text-anchor="middle">
            <tspan x="575">validators.</tspan>
        </text>
    </g>
    <rect width="10" height="66" x="120" y="337" fill="#EDF2AE" stroke="#666" class="activation0" rx="0" ry="0"/>
    <g data-et="note" data-id="i3373f2cd58">
        <rect width="250" height="58" x="-150" y="345" fill="#EDF2AE" stroke="#666" class="note" rx="0" ry="0"/>
        <text x="-25" y="350" alignment-baseline="middle" class="noteText" dominant-baseline="middle" dy="1em" font-size="16" font-weight="400" text-anchor="middle">
            <tspan x="-25">The resource is modified</tspan>
        </text>
        <text x="-25" y="369" alignment-baseline="middle" class="noteText" dominant-baseline="middle" dy="1em" font-size="16" font-weight="400" text-anchor="middle">
            <tspan x="-25">client-side and uploaded.</tspan>
        </text>
    </g>
    <g data-et="note" data-id="ifa69eeff47">
        <rect width="250" height="77" x="450" y="461" fill="#EDF2AE" stroke="#666" class="note" rx="0" ry="0"/>
        <text x="575" y="466" alignment-baseline="middle" class="noteText" dominant-baseline="middle" dy="1em" font-size="16" font-weight="400" text-anchor="middle">
            <tspan x="575">The resource is updated</tspan>
        </text>
        <text x="575" y="485" alignment-baseline="middle" class="noteText" dominant-baseline="middle" dy="1em" font-size="16" font-weight="400" text-anchor="middle">
            <tspan x="575">successfully, the server sends</tspan>
        </text>
        <text x="575" y="504" alignment-baseline="middle" class="noteText" dominant-baseline="middle" dy="1em" font-size="16" font-weight="400" text-anchor="middle">
            <tspan x="575">new validators back.</tspan>
        </text>
    </g>
    <text x="274" y="148" alignment-baseline="middle" class="messageText" dominant-baseline="middle" dy="1em" font-size="16" font-weight="400" text-anchor="middle">GET /doc HTTP/1.1</text>
    <path fill="none" stroke-width="2" marker-end="url(#arrowhead)" d="M126 181h295" class="messageLine0" data-et="message" data-from="Client" data-id="i4432b2367a" data-to="Server"/>
    <text x="277" y="264" alignment-baseline="middle" class="messageText" dominant-baseline="middle" dy="1em" font-size="16" font-weight="400" text-anchor="middle">HTTP/1.1 200 OK</text>
    <text x="277" y="283" alignment-baseline="middle" class="messageText" dominant-baseline="middle" dy="1em" font-size="16" font-weight="400" text-anchor="middle">Last-Modified: date</text>
    <text x="277" y="302" alignment-baseline="middle" class="messageText" dominant-baseline="middle" dy="1em" font-size="16" font-weight="400" text-anchor="middle">Etag: &quot;abc&quot;</text>
    <path fill="none" stroke-width="2" marker-end="url(#arrowhead)" d="M424 335H129" class="messageLine0" data-et="message" data-from="Server" data-id="i4412f6faaf" data-to="Client"/>
    <text x="274" y="418" alignment-baseline="middle" class="messageText" dominant-baseline="middle" dy="1em" font-size="16" font-weight="400" text-anchor="middle">PUT /doc HTTP/1.1</text>
    <path fill="none" stroke-width="2" marker-end="url(#arrowhead)" d="M126 451h295" class="messageLine0" data-et="message" data-from="Client" data-id="i1be3c24b26" data-to="Server"/>
    <text x="277" y="553" alignment-baseline="middle" class="messageText" dominant-baseline="middle" dy="1em" font-size="16" font-weight="400" text-anchor="middle">HTTP/1.1 204 No Content</text>
    <text x="277" y="572" alignment-baseline="middle" class="messageText" dominant-baseline="middle" dy="1em" font-size="16" font-weight="400" text-anchor="middle">Last-Modified: date-2</text>
    <text x="277" y="591" alignment-baseline="middle" class="messageText" dominant-baseline="middle" dy="1em" font-size="16" font-weight="400" text-anchor="middle">Etag: &quot;xyz&quot;</text>
    <path fill="none" stroke-width="2" marker-end="url(#arrowhead)" d="M424 624H129" class="messageLine0" data-et="message" data-from="Server" data-id="i69d343f6c6" data-to="Client"/>
</svg>
