<svg xmlns="http://www.w3.org/2000/svg" width="1006" height="459" style="background-color:#fff" viewBox="-0.5 -0.5 1006 459">
  <defs>
    <clipPath id="mx-clip-253-191-282-124-0">
      <path d="M253 191h282v124H253z"/>
    </clipPath>
    <clipPath id="mx-clip-743-206-134-134-0">
      <path d="M743 206h134v134H743z"/>
    </clipPath>
    <clipPath id="mx-clip-253-141-282-34-0">
      <path d="M253 141h282v34H253z"/>
    </clipPath>
    <clipPath id="mx-clip-743-181-134-24-0">
      <path d="M743 181h134v24H743z"/>
    </clipPath>
  </defs>
  <path fill="none" d="M20 68h634.29v370H20z" pointer-events="all"/>
  <path fill="#fff" d="M588.46 398.51H85.83V87.81c0-10.89 8.92-19.81 19.93-19.81h462.77c11.01 0 19.93 8.92 19.93 19.81Z" pointer-events="all"/>
  <path fill="#005f4b" d="M654.29 410.58H380.35v3.67c0 4.2-3.41 7.61-7.6 7.61h-71.21c-4.19 0-7.6-3.41-7.6-7.61v-3.67H20v9.71c0 9.84 7.87 17.71 17.57 17.71h599.15c9.7 0 17.57-7.87 17.57-17.71Zm-87.6-320.8v286.95H107.6V89.78ZM568.53 68H105.76c-11.01 0-19.93 8.92-19.93 19.81v310.7h502.63V87.81c0-10.89-8.92-19.81-19.93-19.81Z" pointer-events="all"/>
  <path fill="#49ab95" stroke="#427368" stroke-miterlimit="10" d="M730 95.69C730 80.4 742.89 68 758.8 68h102.4c15.91 0 28.8 12.4 28.8 27.69v244.62c0 15.29-12.89 27.69-28.8 27.69H758.8c-15.91 0-28.8-12.4-28.8-27.69Zm6.4-.77v246.16h148V94.92Z" pointer-events="all"/>
  <ellipse cx="783.6" cy="74.15" fill="#fff" stroke="#427368" pointer-events="all" rx="2.4" ry="2.30769231"/>
  <rect width="38.4" height="10.77" x="790.8" y="349.54" fill="#fff" stroke="#427368" pointer-events="all" rx="4.62" ry="4.62"/>
  <rect width="36" height="3.85" x="791.6" y="73.38" fill="#fff" stroke="#427368" pointer-events="all" rx="1.54" ry="1.54"/>
  <ellipse cx="834" cy="74.15" fill="#fff" stroke="#427368" pointer-events="all" rx="2.4" ry="2.30769231"/>
  <ellipse cx="842" cy="74.15" fill="#fff" stroke="#427368" pointer-events="all" rx="2.4" ry="2.30769231"/>
  <ellipse cx="862" cy="77.23" fill="#fff" stroke="#427368" pointer-events="all" rx="3.2" ry="3.07692308"/>
  <path fill="#FFF" stroke="#91cbff" stroke-width="2" d="M100 88h470v290H100z" pointer-events="all"/>
  <path fill="none" stroke="#91cbff" stroke-miterlimit="10" stroke-width="2" d="M100 122.8h470m-451.2-17.4h9.4m14.1 0h9.4m14.1 0h385.4" pointer-events="all"/>
  <path fill="none" d="M250 188h287.85v130H250z" pointer-events="all"/>
  <g clip-path="url(#mx-clip-253-191-282-124-0)" font-family="Helvetica" font-size="12">
    <text x="254.5" y="203.5">Lorem ipsum dolor sit amet, consectetur adipisicing</text>
    <text x="254.5" y="217.5">elit, sed do eiusmod tempor incididunt ut labore et</text>
    <text x="254.5" y="231.5">dolore magna aliqua.</text>
    <text x="254.5" y="273.5">Praesent aliquam, enim at fermentum mollis, ligula</text>
    <text x="254.5" y="287.5">massa adipiscing nisl, ac euismod nibh nisl eu lectus.</text>
    <text x="254.5" y="301.5">Fusce vulputate sem at sapien. Vivamus leo</text>
  </g>
  <path fill="none" d="M740 198h140v140H740z" pointer-events="all"/>
  <g clip-path="url(#mx-clip-743-206-134-134-0)" font-family="Helvetica" font-size="9">
    <text x="744.5" y="215.5">Lorem ipsum dolor sit amet,</text>
    <text x="744.5" y="226.5">consectetur adipisicing elit, sed </text>
    <text x="744.5" y="237.5">do eiusmod tempor incididunt ut </text>
    <text x="744.5" y="248.5">labore et dolore magna aliqua.</text>
    <text x="744.5" y="270.5">Praesent aliquam, enim at</text>
    <text x="744.5" y="281.5">fermentum mollis, ligula massa</text>
    <text x="744.5" y="292.5">adipiscing nisl, ac euismod nibh</text>
    <text x="744.5" y="303.5">nisl eu lectus. Fusce vulputate</text>
    <text x="744.5" y="314.5">sem at sapien. Vivamus leo</text>
  </g>
  <path fill="none" stroke="#000" stroke-miterlimit="10" d="m106.37 48 457.26.13" pointer-events="stroke"/>
  <path stroke="#000" stroke-miterlimit="10" d="m101.12 48 7-3.5-1.75 3.5 1.75 3.5ZM568.88 48.13l-7 3.5 1.75-3.5-1.75-3.5Z" pointer-events="all"/>
  <g font-family="Helvetica" font-size="18" text-anchor="middle">
    <path fill="#FFF" stroke-width="0" d="M271 18h119v23H271z"/>
    <text x="329.51" y="35.56">Viewport width</text>
  </g>
  <path fill="none" stroke="#000" stroke-miterlimit="10" d="m741.41 48.03 137.18.54" pointer-events="stroke"/>
  <path stroke="#000" stroke-miterlimit="10" d="m736.16 48 7.01-3.47-1.76 3.5 1.73 3.5ZM883.84 48.6l-7.01 3.47 1.76-3.5-1.73-3.5Z" pointer-events="all"/>
  <g font-family="Helvetica" font-size="18" text-anchor="middle">
    <path fill="#FFF" stroke-width="0" d="M751 18h119v23H751z"/>
    <text x="809.23" y="35.8">Viewport width</text>
  </g>
  <path fill="none" stroke="#000" stroke-miterlimit="10" d="M600 371.48V134.37" pointer-events="stroke"/>
  <path stroke="#000" stroke-miterlimit="10" d="m600 376.73-3.5-7 3.5 1.75 3.5-1.75ZM600 129.12l3.5 7-3.5-1.75-3.5 1.75Z" pointer-events="all"/>
  <g font-family="Helvetica" font-size="18" text-anchor="middle">
    <path fill="#FFF" stroke-width="0" d="M605 217h72v44h-72z"/>
    <text x="639.5" y="234.35">Viewport</text>
    <text x="639.5" y="256.35">height</text>
  </g>
  <path fill="none" stroke="#000" stroke-miterlimit="10" d="M910 331.63V104.52" pointer-events="stroke"/>
  <path stroke="#000" stroke-miterlimit="10" d="m910 336.88-3.5-7 3.5 1.75 3.5-1.75ZM910 99.27l3.5 7-3.5-1.75-3.5 1.75Z" pointer-events="all"/>
  <g font-family="Helvetica" font-size="18" text-anchor="middle">
    <path fill="#FFF" stroke-width="0" d="M915 182h72v44h-72z"/>
    <text x="949.5" y="199.88">Viewport</text>
    <text x="949.5" y="221.88">height</text>
  </g>
  <path fill="none" d="M130 158h100v100H130z" pointer-events="all"/>
  <path fill="#d45b07" d="M170.91 187.55c3.76 0 6.82 3.05 6.82 6.81s-3.06 6.82-6.82 6.82c-3.76 0-6.82-3.06-6.82-6.82 0-3.76 3.06-6.81 6.82-6.81Zm0 18.18c6.26 0 11.36-5.1 11.36-11.37 0-6.26-5.1-11.36-11.36-11.36-6.27 0-11.36 5.1-11.36 11.36 0 6.27 5.09 11.37 11.36 11.37Zm-36.36 47.72v-21.78l18.18-18.18 34.75 34.75 3.22-3.21-17.71-17.71 25.19-25.2 27.27 27.28v24.05Zm90.9-90.9v60.42l-25.66-25.67c-.89-.89-2.33-.89-3.21 0l-26.81 26.8-15.44-15.43c-.88-.89-2.32-.89-3.21 0l-16.57 16.57v-62.69Zm2.28-4.55h-95.46c-1.25 0-2.27 1.02-2.27 2.27v95.46c0 1.25 1.02 2.27 2.27 2.27h95.46c1.25 0 2.27-1.02 2.27-2.27v-95.46c0-1.25-1.02-2.27-2.27-2.27Z" pointer-events="all"/>
  <path fill="none" d="M775 108h70v70h-70z" pointer-events="all"/>
  <path fill="#d45b07" d="M803.64 128.68c2.63 0 4.77 2.14 4.77 4.77 0 2.64-2.14 4.78-4.77 4.78-2.63 0-4.78-2.14-4.78-4.78 0-2.63 2.15-4.77 4.78-4.77Zm0 12.73c4.38 0 7.95-3.57 7.95-7.96 0-4.38-3.57-7.95-7.95-7.95-4.39 0-7.96 3.57-7.96 7.95 0 4.39 3.57 7.96 7.96 7.96Zm-25.46 33.41v-15.25l12.73-12.73 24.33 24.33 2.25-2.25-12.4-12.4 17.64-17.63 19.09 19.09v16.84Zm63.64-63.64v42.3l-17.97-17.97c-.62-.62-1.63-.62-2.25 0l-18.76 18.76-10.81-10.8c-.62-.63-1.62-.63-2.25 0l-11.6 11.6v-43.89Zm1.59-3.18h-66.82c-.88 0-1.59.71-1.59 1.59v66.82c0 .88.71 1.59 1.59 1.59h66.82c.88 0 1.59-.71 1.59-1.59v-66.82c0-.88-.71-1.59-1.59-1.59Z" pointer-events="all"/>
  <path fill="none" d="M250 138h287.85v40H250z" pointer-events="all"/>
  <g clip-path="url(#mx-clip-253-141-282-34-0)" font-family="Helvetica" font-size="25">
    <text x="254.5" y="166.5">Heading</text>
  </g>
  <path fill="none" d="M740 178h140v30H740z" pointer-events="all"/>
  <g clip-path="url(#mx-clip-743-181-134-24-0)" font-family="Helvetica" font-size="17">
    <text x="744.5" y="198.5">Heading</text>
  </g>
</svg>
