<svg xmlns="http://www.w3.org/2000/svg" width="160.5" height="70.5" viewBox="416 383.5 160.5 70.5"><g fill="none"><text fill="#000" transform="translate(421 389)"><tspan x="0" y="22" font-family="Arial" font-size="24" font-weight="700">U</tspan></text><text fill="#000" transform="translate(421 421)"><tspan x="0" y="22" font-family="Arial" font-size="24" font-weight="700">V</tspan></text><path fill="#0097ff" d="M448 384h32v32h-32z"/><path stroke="#000" stroke-linecap="round" stroke-linejoin="round" d="M448 384h32v32h-32z"/><path fill="#fff300" d="M480 384h32v32h-32z"/><path stroke="#000" stroke-linecap="round" stroke-linejoin="round" d="M480 384h32v32h-32z"/><path fill="#009300" d="M512 384h32v32h-32z"/><path stroke="#000" stroke-linecap="round" stroke-linejoin="round" d="M512 384h32v32h-32z"/><path fill="#2352ff" d="M544 384h32v32h-32z"/><path stroke="#000" stroke-linecap="round" stroke-linejoin="round" d="M544 384h32v32h-32z"/><path fill="#ff00c8" d="M448 416h32v32h-32z"/><path stroke="#000" stroke-linecap="round" stroke-linejoin="round" d="M448 416h32v32h-32z"/><path fill="#fff" d="M480 416h32v32h-32z"/><path stroke="#000" stroke-linecap="round" stroke-linejoin="round" d="M480 416h32v32h-32z"/><path fill="#ff0040" d="M512 416h32v32h-32z"/><path stroke="#000" stroke-linecap="round" stroke-linejoin="round" d="M512 416h32v32h-32z"/><path fill="#ababac" d="M544 416h32v32h-32z"/><path stroke="#000" stroke-linecap="round" stroke-linejoin="round" d="M544 416h32v32h-32z"/></g></svg>