<svg xmlns="http://www.w3.org/2000/svg" xmlns:xlink="http://www.w3.org/1999/xlink" width="16" height="16"><style>.icon-default{fill:gray}</style><defs><rect id="shape-lock-clasp-outer" x="2" y="1" width="8" height="10" rx="4" ry="4"/><rect id="shape-lock-clasp-inner" x="4" y="3" width="4" height="6" rx="2" ry="2"/><rect id="shape-lock-base" x="1" y="6" width="10" height="7" rx="1" ry="1"/><mask id="mask-clasp-cutout"><path d="M0 0h16v16H0z"/><use xlink:href="#shape-lock-clasp-outer" fill="#fff"/><use xlink:href="#shape-lock-clasp-inner"/></mask></defs><use xlink:href="#shape-lock-clasp-outer" mask="url(#mask-clasp-cutout)" class="icon-default"/><use xlink:href="#shape-lock-base" class="icon-default"/><path fill="#fff" d="M10.5 5c-.7 0-1.4.4-1.7 1.2L5.3 13c-.4.7-.4 1.4 0 2 .4.6 1 1 1.8 1H14c.8 0 1.4-.4 1.8-1 .3-.6.3-1.4 0-2l-3.5-6.8c-.4-.8-1.1-1.2-1.8-1.2z"/><path fill="#ffbf00" d="M14.8 13.4l-3.5-6.8c-.1-.4-.4-.6-.8-.6-.3 0-.7.2-.9.6l-3.5 6.8c-.2.4-.2.8 0 1.1.2.3.5.5.9.5h7c.4 0 .7-.2.9-.5.2-.3.1-.7-.1-1.1z"/><path fill="#fff" d="M10 8.5c0-.3.2-.5.5-.5s.5.2.5.5l-.2 2.5h-.6L10 8.5z"/><circle fill="#fff" cx="10.5" cy="12.5" r=".75"/></svg>