<svg xmlns="http://www.w3.org/2000/svg" width="16" height="16"><circle fill="#a6a6a6" cx="8" cy="8" r="7"/><path fill="#fff" d="M6.316 2.741a.125.125 0 00-.054.007.042.042 0 00-.013.011l.018-.001c.018-.004.031-.016.05-.017zm.023.859c.023-.029-.032-.053-.062-.051.008-.035.052-.053.04-.097-.01-.046-.066-.037-.096-.012-.026.023-.04.063-.063.09-.013.015-.036.02-.045.038-.008.017.002.046 0 .065a.122.122 0 00.103-.032l.017-.008c-.004.003-.006.01-.008.014.018.022.097.016.114-.007zm.037-1.227c-.002.054.05.06.09.081-.013.031-.055.03-.075.055-.024.031.02.058.042.072.042.026.018.056.01.093-.011.052.1.038.125.037.042-.002.11.005.15-.015.043-.024.066-.077.111-.103.038-.022.091-.034.132-.019.044.015.039.071.074.095.042.029.087.038.123-.005.022-.027.073-.061.075-.09.004-.051.019-.091.075-.102.045-.009.035.035.067.043.07.018.103-.196.18-.133.017.015.022.073.053.068.031-.005.032-.051.066-.052.01.031-.058.069-.067.103.042-.035.063-.03.111-.035.013.033-.082.087-.106.092-.035.009-.056-.011-.082.008-.021.014-.05.013-.074.015-.035.004-.1.05-.099.088 0 .015.012.049 0 .061-.013.013-.041.001-.044-.012-.03.044-.068-.033-.093.029.04.01.076.048.12.059l.13.034c.072.022.18-.065.234-.107a.403.403 0 00.133-.19c.015-.069.09-.148.075-.216-.014-.064-.024-.094.048-.117.03-.01.105-.026.115-.061.016-.052-.147-.038-.171-.05-.082-.037-.118-.078-.212-.041-.05.019-.098.035-.15.049-.026.007-.053.009-.067.032a.06.06 0 01-.024.021c-.043.017.01-.064.015-.069.013-.016.036-.065-.008-.054-.065.015-.113.115-.183.12-.053.004-.036-.043-.022-.07.026-.049-.05-.055-.083-.055-.048 0-.083.027-.129.032-.042.004-.091.012-.134.011-.085-.003-.14.047-.225.019-.089-.029-.184.045-.27.055-.029.004-.07-.002-.082.032-.01.028 0 .071.022.092l.007-.006c-.02.019-.021.046-.049.056-.026.009-.053.044-.067.068-.01.018-.041.093.012.054.038-.029.06-.083.121-.072zM3.184 7.108c-.091-.066-.297-.082-.272-.236.016-.094.113-.167.19-.213a.544.544 0 01.333-.052c.028.003.08-.002.095.02a.075.075 0 00.036.022c.031.009.063.01.094.016.047.009.081.05.128.016.055-.038.064-.046.13-.038.059.007.094-.038.144-.034.015.001.03.004.041.009.005-.017.012-.032.023-.035.024-.007.079.053.104.058.066.014.062-.032.066-.079.033-.006.049.039.078.011 0 .009.005.023.005.032a.015.015 0 00.02-.001.018.018 0 00.001-.016c.016.005.024-.006.026-.025.012.001.03-.006.042-.004.01-.034.029-.079.004-.11l.02-.004c0-.034.023-.049.024-.076-.036-.005-.075-.003-.112-.002.022-.02.074-.064.079-.091.01-.048-.052-.077-.047-.134.006.03.04.099.07.109.072.024.051-.047.056-.084.018-.117.122-.02.124.041.03-.07.107.008.072.068-.017.029-.04.018-.018.056.014.027.036.028.068.021a.122.122 0 00.014-.053c.055-.017.09.048.059.087a.553.553 0 01.125-.054c-.026-.09-.052-.178-.036-.274.004-.021.007-.045.023-.061.02-.021-.005-.013-.007-.027-.006-.042.039-.085.055-.123-.046-.01-.004-.102.027-.118.034-.017.132.011.14-.016.019.011.038.027.061.027.055.001.091.002.129.046.018.023.046.074.08.078-.001.038.042.066-.003.098-.036.025-.085.019-.1.067-.01.03-.039.044.005.065.019.01.042.012.063.012.005.029.02.068.057.063.073-.009.089-.101.147-.132.095-.05.08.166.162.112.02-.013.02-.068.03-.089a.703.703 0 01.07-.128c.037-.05.083-.102.067-.167-.01-.036-.078-.051-.11-.076a.368.368 0 01-.096-.107c-.014-.026-.022-.035 0-.048.012-.007.008-.021.004-.031-.024-.05-.088-.139.001-.17.02-.007.062-.071.065-.096.005-.042-.059-.08-.03-.122.02-.031.073-.051.1-.082a.086.086 0 01.047-.032c.001-.017.005-.036.02-.047.023-.018.06-.009.089-.018.045-.014.065-.061.1-.087.03-.022.063-.014.095-.03.017-.008.024-.026.04-.034.042-.02.09.012.108.047.044.084.1.214.226.18a.158.158 0 00.105-.104c.015-.046-.003-.084 0-.129.004-.08.082-.131.091-.21-.059.001-.028-.036-.048-.07-.022-.038-.071-.01-.104-.016.034-.081.034-.109-.045-.148-.035-.017-.092-.097-.119-.094.022-.03.073.02.09.034a.168.168 0 00.113.052.107.107 0 01-.012-.083c.009-.022-.013-.045-.011-.073.055.071.046.152.078.23.013.033.045.055.06.089.017.043.005.042.043.068.022.016.03.044.034.069.007.044.023.025.047.05.013.015.049.017.042.048-.005.022-.02.04-.023.063-.009.066.12-.024.133-.033.028-.021.073-.025.095-.05.023-.026.018-.064.042-.088.03-.031.058-.01.093-.016.042-.006.077-.039.108-.064.065-.055.106-.115.16-.178-.023.006-.104.065-.109.01-.03 0-.101-.005-.112-.039-.01-.025-.006-.053-.006-.078-.001-.027-.034-.018-.055-.032-.044-.028-.066-.08-.112-.104a.458.458 0 01-.163-.169c-.025-.039-.116-.118-.11-.165.005-.031.03-.064.028-.095 0-.028-.022-.043-.02-.074.004-.036-.083-.099-.007-.106.023-.002.027-.031.054-.047.03-.018.023-.034.055-.025.053.016.089-.042.125-.073.06-.054-.037-.055-.042-.096-.005-.041-.028-.071-.035-.119-.004-.035-.037-.021-.056-.012-.025.012-.051-.006-.076-.011-.022-.005-.041-.043-.069-.031-.02.01-.02.035-.049.032-.022-.002-.036-.023-.057-.027-.034-.004-.004.028-.042.031-.026.002-.112-.034-.114 0-.027-.046-.038.032-.066.04-.032.009-.065.001-.097.013-.069.028-.046.097.02.108.053.008-.016.045.002.081.016.032.02.054.055.067.057.021.118.038.099.112a.348.348 0 01-.18.221c-.086.04-.11-.069-.175-.097-.04-.017-.085-.011-.128-.006-.007.011.06.032.07.051.02.039-.034.034-.038.064-.004.025-.037.043-.019.068-.019-.023-.055.008-.068.022-.019.02-.015.033-.007.058.016.051-.061.104-.107.098-.038-.006-.074-.003-.111-.021-.043-.021-.029-.008-.037-.057-.01-.046-.073-.066-.035-.123.027-.042.014-.038.009-.078-.006-.042.013-.048.046-.054.037-.007.053-.072.074-.103.005-.007.028-.065-.008-.05-.02.009-.005.034-.035.038-.022.004-.044-.011-.066-.011-.026 0-.053.013-.076-.003.012-.014.096-.084.03-.098-.027-.006-.006.038-.041.032-.007.035-.05.032-.07.054.009-.037.087-.065.061-.095.056-.049.068-.058-.008-.085-.12-.042-.11-.165-.028-.239.074-.068.198-.154.27-.041.079.121.128.033.192-.045-.021-.009-.002-.015-.009-.042-.07.029-.134-.063-.085-.118.03-.033.075-.024.114-.034.035-.009.066-.043.08-.075-.029.008-.025-.01-.014-.023-.018-.002-.037-.01-.052-.015-.043-.015-.04-.048-.085-.054-.108-.016.112-.14.005-.14-.035-.001-.065-.053-.09-.043-.019.007-.024.021-.045.012-.015-.006-.033-.019-.05-.009-.04.024-.047-.005-.084.006-.031.01-.048.04-.083.032.035-.048.079-.088.11-.138a.249.249 0 01.081-.086c.019-.011.072-.022.075-.048.005-.043-.022-.039-.051-.022a6.919 6.919 0 00-.232.144c-.046.029-.081.054-.137.046-.044-.007-.061.041-.096.037-.017-.067-.387.176-.432.197-.072.032-.153.087-.23.106-.032.008-.098.082-.094 0-.04-.005-.069.035-.095.055-.038.029-.082.047-.123.072-.087.056-.169.123-.25.186-.076.06-.153.13-.234.184-.028.019-.13.071-.127.11.072.014.318-.294.387-.211.018.021-.104.083-.124.095-.017.009-.037.008-.053.017-.022.013-.036.035-.057.049a.591.591 0 00-.142.13c-.028.037-.049.085-.08.119.004-.036-.003-.062-.002-.097-.04.026-.057.07-.113.058-.051-.012-.092.04-.128.068-.085.065-.142.137-.213.213-.04.043-.082.073-.107.126-.027.057-.064.108-.099.161-.066.097-.142.186-.207.283-.133.199-.22.427-.33.639-.057.11-.11.218-.134.341-.02.106-.02.214-.018.322.06-.047.057.051.041.08a.463.463 0 00-.038.146c-.01.065-.022.13-.022.196 0 .056-.018.108-.019.162-.02-.016.024-.084-.016-.074-.02.005-.02.034-.025.049-.016.052-.086.047-.097.106-.006.036-.01.057-.034.086-.018.022 0 .032.003.054.01.052-.058.124-.04.166.017.041.005.087.024.126.01.02.032.046.023.071-.042.008.012.106.016.136.006.049.05.203.097.225.059.091.14.218.245.264.074.032.1-.064.142-.104a.494.494 0 01.189-.109c.058-.021.302-.092.185-.176zm.102 3.285c.012-.02.003-.071-.019-.088-.052-.044-.073.06-.039.091.013.033.043.022.058-.003zM3.5 7.369c-.015-.013-.025-.005-.026-.032 0-.024.003-.07-.029-.041-.009.003.003.008-.01.013-.009.003-.016-.004-.022-.007-.016-.007-.026-.008-.039.01-.009.012-.009.026-.024.036l-.025.009c-.01.003-.035.021-.036.031-.004.015.019.026.035.03.012.009.03.017.042.026.013.009.034.025.05.029.035.02.09.042.118 0 .008-.016.014-.028.003-.042-.01-.015-.026-.019-.03-.031-.005-.013.006-.021-.007-.031zm4.745.755a.14.14 0 00-.067.026c-.03.026.034.041.058.048.028.016.067.024.094.04.023.017.038.04.064.051.032.015.075.022.11.031.014.005.037.004.057.008.022.013.031.033.05.047.03.028.073.035.114.033.038.004.067.011.101.002.04-.01.067.01.104.01.015 0 .03-.012.043-.011.019 0 .021.008.03.024.016.023.056.058.085.059.017 0 .031-.003.046.002.017.01.024.01.036.02.02.009.038.015.047.031.016.028.015.059.04.081l.052.04c.012.011.002.009.02.009.01.002.028.002.04-.002.05-.003.024-.073.008-.096-.01-.02-.019-.036-.015-.055.003-.023.014-.039-.001-.058a.075.075 0 00-.03-.024c-.006-.008-.008-.016-.015-.028-.015-.019-.044-.025-.063-.043-.031-.032-.048-.078-.088-.108-.022-.013-.042-.003-.068-.014-.011-.007-.017-.014-.033-.019-.015-.005-.028-.002-.041-.003-.029-.002-.054-.027-.081-.025-.03.004-.037.037-.055.055-.015.013-.033.013-.04-.008-.001-.027.009-.043.023-.06.021-.023 0-.036-.029-.038-.036 0-.043.029-.058.06-.024.033-.039.01-.072.005-.023.001-.039.01-.06.001-.015-.005-.018-.017-.029-.024a.036.036 0 00-.041.002c-.017.004-.017.004-.034-.005-.015-.006-.019-.018-.037-.022-.03-.006-.06.019-.085.012-.011-.006-.02-.022-.035-.027-.017-.01-.014-.001-.025.011-.018.018-.044.024-.062.01-.022-.016-.024-.043-.058-.048zm1.127 1.182c.016-.002.024-.018.037-.016.016-.003.008.013.02.023.009.009.019.009.029.009.017.003.052.005.059-.011.008-.025-.034-.03-.045-.05-.01-.029.013-.057.021-.082.012-.034-.03-.049-.026-.076-.001-.029.018-.039.012-.067a.162.162 0 00-.035-.059c-.012-.016-.035-.031-.033-.054.002-.024.046-.023.025-.052-.012-.025-.043-.02-.072-.024-.01 0-.02.001-.03-.009-.009-.014-.005-.021-.005-.031-.006-.027-.026-.037-.05-.048-.008-.004-.02-.009-.025-.021-.004-.012.008-.016.004-.027-.012-.026-.06.01-.08.001-.013-.002-.011-.015-.02-.029l-.024-.011c-.033-.015-.045.012-.04.039.015.061.06.101.055.162a.207.207 0 00.016.06c.008.033.016.049.002.081-.024.018-.002.04.006.063.004.031.012.055.011.088-.006.06-.024.119-.02.18.004.025.002.048.01.072.004.031.03.042.055.059.024.021.139.09.105.006-.01-.019-.025-.046-.03-.068-.008-.023.02-.039.02-.063.004-.027-.016-.036.022-.043.008-.006.02 0 .026-.002zM8.182 2.1c.03-.007.061.002.09-.009.015-.006.063-.023.06-.043-.005-.037-.162-.013-.188-.002-.007.023.016.041.037.047V2.1zm.754 6.688c-.006-.013 0-.025 0-.038-.003-.021-.01-.027-.006-.049.007-.012.007-.031.004-.046a.126.126 0 00-.025-.031.032.032 0 00-.01-.022c-.012-.012-.024.006-.037.012-.01.009-.029.015-.032.025-.01.015-.004.027-.004.04l.003.015c-.022.022 0 .08-.004.102 0 .025-.035.095.012.074.013-.006.023-.015.035-.021.015-.009.035-.009.054-.015.006 0 .04-.003.04-.009.001-.013-.027-.022-.03-.037zm-.891 1.264c.04.019.108-.019.146-.031.047-.015.122-.065.17-.037.02.011.03.034.05.043.026.011.057.001.083-.005.026-.006.057-.01.082-.022.021-.011.035-.029.054-.043.048-.037.09-.002.143-.01.03-.004.06-.019.089-.027.021-.005.06-.005.077-.021.018-.018.01-.057.01-.08-.001-.031 0-.063-.01-.092-.022-.057-.1-.124-.019-.169.016-.1-.1-.083-.134-.155-.022-.047-.029-.083-.091-.088-.052-.005-.084.023-.13.041-.05.019-.09.002-.134-.023-.027-.015-.083-.05-.094-.004-.01.04.028.079-.003.115-.028.032-.076.046-.116.055-.085.018-.153.084-.216.141l.007.006c-.024-.001-.06.065-.062.085l.03.009c-.001.034.037.011.04-.013.008.002.016.007.024.008.007.002.022.001.027.004.017.007.02.023.04.025-.01.052 0 .107-.025.156-.016.03-.095.104-.038.132zm.407-7.692c.03.032.066.041.06.091.037.005.06.019.082-.013a.12.12 0 01.058-.044c.027-.011.14-.01.136.037-.003.023-.017.043-.021.066-.005.032.03.009.044.017a.167.167 0 01-.058.024.033.033 0 01.016.024c-.026.006-.038.078-.084.092-.027.009-.068-.01-.096-.013-.032-.004-.057-.014-.09-.016-.03-.002-.005-.044-.045-.036-.007.028.007.099.012.127.005.035.035.055.07.061.048.008.07.024.112.048.032.018.069.007.104.01a.106.106 0 01.061.026c-.004.011-.012.029-.007.041.007.016.058-.002.07-.003.035-.004.069-.043.102-.038.013.002.072.02.07.035-.032-.013-.053.026-.078.005-.021-.019-.08-.003-.042.024a.687.687 0 01.013.086c-.003.028-.054.058-.05.076.007.001.053.004.062.013.003-.012-.005-.017.022-.025a.094.094 0 01.066.002c.008.035-.017.071.03.062.046-.009.066.021.113-.01a.066.066 0 01.087.011c.035.034-.035.081.005.114.016.013.029.053.045.06.01.005.07-.016.08-.021.02.034.036-.018.05-.021a.078.078 0 01.06-.05c.04-.004.041.003.068.022.078.054.067-.078.108-.112.073-.06.11-.117.16-.194.039-.062.094-.077.164-.088.055-.009.14-.022.163-.082.027-.07-.038-.108-.094-.129-.063-.022-.134-.046-.106-.126.032-.093.004-.147-.095-.177-.208-.065-.396-.174-.608-.234a2.557 2.557 0 00-.57-.082c-.085-.03-.266-.033-.319.04-.033.047.01.088.005.137a.22.22 0 00.065.163zm3.275 9.271l-.001-.001c.003.005.001.014.002.021.038 0 .055.035.097.022.042-.012.067-.053.033-.087-.03-.029-.055-.054-.098-.046-.052.01-.04.051-.033.091zm1.34-1.337l-.005-.026c-.04-.012-.066.03-.104-.001-.072.049.005.146-.113.14.02.025.019.053.009.082-.015.045-.027.041-.057.047-.065.01-.095-.03-.115-.084-.063.002-.15.1-.2.131-.012.007-.035.028-.049.037l-.05.027c-.034.017-.106.04-.11.078-.017-.003-.043.007-.06.005-.006.008-.006.017 0 .026.077.013.118-.013.183-.041.068-.031.141-.024.205-.048.03-.011.032-.045.082-.025.022.01.047.042.052.064.01.05-.042.124-.094.127-.013-.031.006-.063.011-.088-.069-.023-.182.075-.2.133.07.015.1.119.061.176-.012.014-.027.032-.052.04-.04.012-.06-.025-.099.004-.05.039.005.146-.024.206-.023.046-.061.063-.094.095-.022.023-.035.048-.064.068-.039.026-.132.082-.124.136.084.029.26-.119.333-.168.046-.031.075-.079.122-.11.054-.033.124-.05.158-.109.02-.034.004-.064.016-.098.01-.03.032-.04.051-.063.037-.044.07-.058.112-.094.051-.046.04-.118.063-.179.02-.053.061-.094.09-.144.044-.079.16-.267.111-.356-.012.01-.033.007-.044.012zm1.008-2.559c-.025-.048.013-.186.013-.243 0-.105-.033-.184-.047-.282-.01-.092-.022-.336.012-.419.047-.117-.184-.315-.197-.442a.396.396 0 00-.164-.277c-.036-.027-.115-.39-.161-.373-.023.011.024.091.021.116-.013.088-.057 0-.103.02-.086.035-.177.118-.188.203-.04.315-.263-.011-.245-.024.049-.038.067-.026.125-.034.064-.023-.036-.069.065-.079-.024-.065.03-.086.004-.137-.039-.075-.066-.066-.028-.147.017-.044-.084-.183-.091-.236-.008-.052-.01-.12-.016-.178-.004-.037.056-.072.045-.101-.002-.103.02-.214-.016-.314-.025-.068-.055-.158-.098-.216a.727.727 0 01-.066-.152c-.012-.064-.04-.04-.076-.065a.794.794 0 00-.135-.12 1.639 1.639 0 01-.199-.181c-.015-.045-.111-.08-.1-.129.015-.074-.242-.266-.314-.279-.047-.008.142.218.14.213.004.013.122.164.122.164.027.009.092.194.09.218-.007.07-.188-.115-.201-.14-.09-.109-.25-.197-.352-.27-.072-.067-.036-.105-.16-.162-.045-.021-.168-.122-.207-.125-.046-.002.007.096.008.107.007.07.083.075.129.121.036.038.069.085.037.127 0 0-.057.104-.06.095.016.044.147.141.18.177-.006-.009.171.224.186.1.006-.045-.044-.099-.038-.138.005-.024.204.227.215.249.048.133.044-.02.094-.004.042.013.153.152.06.158-.14.009.026.132.066.151.081.04.138.133.223.168.133.054.105.15.172.248.022.031-.383 0-.414.018-.053.042.203.329.204.372.002.09.053.156.067.246.008.083-.002.192.052.259.045.041.086-.068.156-.003.026.012.062.041.07.063.024.062.158.441-.003.413-.07-.013-.03.298-.025.343.021.098.06.09.035.214.003.103-.08.155-.139.229a.333.333 0 00-.058.117c-.033-.032-.048-.083-.094-.1-.05-.019-.158.041-.201.062-.105.053-.028.149-.07.232-.029.061-.118.091-.176.121-.07.036-.164.074-.233.016-.059-.048-.033-.145-.095-.187-.07-.047-.077.058-.093.1-.03.079-.122.106-.099.205.01.041.03.078.039.119.01.051-.016.097-.019.148-.006.087.085.107.109.178.02.064-.001.163-.072.187-.076.027-.16-.042-.235-.05-.075-.008-.171.013-.185.099-.013.076.064.138.027.216-.016.033-.044.059-.063.089-.035.05-.055.108-.087.159.038.001.034-.023.069-.016.036.008.069-.029.1-.041.006.024.003.049.006.073.025.008.05-.002.074-.011.002.021-.007.045.001.066.007.018.028.024.04.038.03.037-.007.098-.029.13-.062.092-.168.143-.237.229-.066.08-.071.177-.12.264-.017.03-.033.071.011.085.01-.016.025-.029.045-.029.031-.001.02.022.035.04.064.082.132-.053.16-.092.027-.042.142-.105.173-.035.025.053-.004.128-.028.176.041.019.03.049.04.085.012.05.057.082.057.137 0 .066-.144.197-.087.247.07.062.153-.11.18-.147.053-.071.172-.081.202-.168.032-.099.021-.158.152-.161.056-.001.096-.036.148-.047.058-.011.083-.017.12-.061.052-.063.1.012.101.062.002.051-.02.115.011.161.039.056.081-.018.12-.054-.003.038.047.06.077.072.045-.031.074-.082.122-.11a.212.212 0 01.074-.022c.007.041.014.085.05.105.053.03-.012.059.058.091.085.033.114.12.155.19.02.032.2-.163.269-.17.229-.026.348-.325.433-.502.122-.253.178-.534.21-.795.077-.161.109-.456.077-.643-.019-.114.046-.272-.012-.38zm-2.072 3.797c.006-.028.065-.132.01-.147-.02-.005-.036.025-.054.03-.024.008-.05-.007-.071.004-.02.011-.039.043-.05.061-.015.022-.01.031.014.043.024.013.055.019.068.045.012.023.006.054.003.078 0-.001.004-.005.005-.009a.038.038 0 01.015-.001l-.005.01c.063.01.058-.073.065-.114zm.74-1.251c.001.03.034.027.055.019.02-.006.033-.023.046-.038.018-.023.028-.046.013-.073a.28.28 0 01-.034-.081c-.013.007-.028.019-.042.023-.014.005-.016.001-.032 0-.036-.001-.028.027-.044.05-.013.02-.042.028-.03.054.007.02.04.037.058.046l.005-.006c0 .002-.002.003-.003.005a.017.017 0 00.007.001zM9.18 12.428c.037-.065.102-.106.16-.151a1.14 1.14 0 00.188-.185c-.033-.008-.035-.039-.056-.059-.031-.031-.08-.011-.086-.058-.007-.042-.042-.051-.075-.068-.077-.039-.109-.115-.171-.168-.068-.06-.16-.04-.244-.056-.073-.014-.147-.131-.225-.081-.049.031-.072.11-.038.159.026.038.072.057.09.102-.027.025-.033.041 0 .064.038.027.112.055.093.114-.01.032-.036.063-.07.069-.025.005-.086-.009-.073.036-.027-.074-.105.042-.148-.019-.034-.049-.056-.093-.11-.126-.07-.043.028-.085.017-.15-.018-.095-.134-.069-.175-.139-.025-.04.009-.072.025-.107.015-.036.058-.007.08.003a.25.25 0 00.245-.029c.029-.024.092-.135.012-.135-.055.001-.098.049-.15.052-.008-.063-.037-.17.03-.212.06-.038.19-.082.135-.18-.02-.034-.054.022-.083-.003-.012-.01-.003-.033 0-.044a.179.179 0 01-.045-.062c-.044-.106.084-.189.03-.301a.274.274 0 00-.103-.104c-.043-.03-.045-.068-.06-.113-.009-.025-.05-.084-.085-.069-.031.012-.04.065-.064.087-.053.052-.165.072-.236.055-.058-.013-.055-.035-.082-.073-.01-.014-.029-.015-.044-.021-.025-.01-.028-.033-.034-.056-.024-.087-.196.021-.222-.101-.006-.028.004-.075-.037-.081-.045-.008-.047-.052-.047-.089 0-.03.002-.072-.03-.089-.04-.022-.05-.012-.063-.058-.015-.059-.055.002-.089-.01-.07-.028-.058.007-.115.037-.098.052-.109-.189-.142-.236-.065-.09-.049.111-.093.136-.04.023-.083-.03-.098-.061-.008-.018-.013-.038-.024-.056-.017-.026-.047-.037-.063-.063-.014-.023-.035-.05-.045-.075-.009-.022-.007-.05-.024-.068-.02-.023.005-.061.02-.09.026-.01.064.01.083.027.046.039.117.21.197.178-.016-.022-.005-.049-.017-.073-.013-.025-.038-.04-.057-.06-.041-.048-.086-.096-.114-.154-.024-.05-.036-.103-.084-.138-.04-.029-.117-.057-.1-.119v-.002c.033.007.056.031.08.052.034.03.078.045.119.065.074.036.16.061.223.116.04.033.019.107.068.148.036.03.09.131.158.091.024-.015.035-.044.06-.061.027-.019.07-.036.102-.05.018-.009.05-.006.065-.021.023-.023-.033-.089-.046-.106-.05-.065-.096-.136-.164-.185-.034-.025-.068-.052-.108-.069-.022-.009-.06-.008-.064-.038.01.007.017.005.019-.006-.001-.02-.03-.021-.044-.025-.033-.009-.056-.009-.069-.037-.017-.034-.076-.033-.107-.041-.048-.012-.085-.048-.13-.066-.054-.02-.094.001-.147.013-.009.002-.026.033-.043.059a.128.128 0 00-.11.02c-.048.037-.076.093-.113.139-.016.019-.039.038-.061.031-.004-.002-.002-.007-.005-.009.028-.205.044-.412.025-.371-.037.08-.065.136-.093.194-.042-.018-.09-.019-.108.025-.019.047.006.108-.024.149-.006.011-.017.01-.027.015-.002-.005-.012-.018-.011-.019l-.018.033a.33.33 0 01-.102-.023l-.001-.003-.002.002c-.044-.015-.09-.029-.129-.015-.079.028-.082.141-.132.21-.075.105-.268.06-.302-.065l.082-.102a.29.29 0 00-.27-.18c-.033.001-.067.007-.097-.007-.03-.015-.047-.047-.074-.067-.083-.062-.193.02-.262.097a.489.489 0 00-.302.183l-.141-.012c.027.076-.064.138-.106.208-.051.085-.025.184.026.275-.006.014-.01.029-.023.035-.06.032-.044.051-.027.116a.554.554 0 01-.003.217c-.01.044-.053.15-.106.125-.028-.014-.057-.025-.083.001a.083.083 0 00-.024.04.3.3 0 00-.052.007c-.034.007-.069.015-.102.001-.032-.014-.076-.041-.112-.029-.03.01-.09.037-.104.069-.006.014.013.051.013.07 0 .034.026.085.015.116-.025-.012-.061-.016-.078-.041-.016-.021-.04-.016-.057-.038-.004.038-.018.091-.063.101-.044.01-.086-.025-.13-.013-.117.03.07.176.094.204.042.047.055.109.086.162.034.058.103.077.143.128.034.043.04.101.089.133.053.037.101.07.123.133.023-.022.07.082.119-.001.025-.045.07-.084.1-.011.024.063 0 .103.053.158.042.043.04.094-.031.089.012.032.03.064 0 .093-.014.014-.053.043-.025.063.033-.015.067-.024.1-.039.035-.015.07-.051.111-.05.002.013-.055.051-.02.054.03.003.073-.028.096-.002.027.028-.007.071.01.102.015.032.068.008.094.013-.01.028-.052.023-.075.034.052.064-.016.158-.092.16-.036 0-.166-.149-.171-.053a.285.285 0 00.016.09c.012.035.097.02.128.033a.22.22 0 01.113.106c.017.046.055.076.07.12.029.082.107.093.188.117.107.032.055.199.049.279-.005.079.105.098.156.143.056.049.065.144-.028.152-.047.004-.126-.018-.144.043-.026.086.105.077.162.096.027.009.134.02.144.045.015.039.003.092.017.133.033.105.13.175.224.227.201.113.44.184.66.247a2.6 2.6 0 00.376.081c.122.016.23.006.334.074.072.047.118.012.192.025.031.006.045.035.069.052.026.021.057-.006.085.005a.076.076 0 00-.005-.055c.056.021.125.081.184.033.03-.024.05-.057.08-.08.036.003.072.005.109.005.152 0 .273-.07.395-.152.131-.088.29-.09.441-.104a1.45 1.45 0 00.479-.107c.128-.062.16-.175.197-.3.04-.136.158-.191.236-.301.092-.128.031-.295.106-.428zm-5.885-1.804a.1.1 0 00-.041-.071l-.002.009c-.034-.017-.038-.081-.083-.076-.038-.06-.132-.033-.162.022-.02.037.004.054.026.081.027.034.022.06.032.099.025.101.109.032.168.071.023.015.031.058.065.051.037-.009.036-.065.026-.09-.014-.036-.024-.057-.029-.096zm.788 1.191c.006-.017-.02-.036-.038-.035-.016.001-.03.023-.037.035a.054.054 0 00.048.082c.01-.019.007-.056.035-.059-.002-.009-.008-.012-.016-.015l.008-.008zm-.838-1.269a.054.054 0 01.009.007c.003-.005.006-.009.007-.015l-.016.008zm9.245 1.403c-.017.016-.012.034-.02.053-.009.023-.043.032-.062.044-.03.019-.04.064-.072.075-.014-.021-.035-.08-.063-.029-.017.033-.006.066-.033.096-.027.028-.025.062-.043.093a.273.273 0 01-.106.107c-.038.023-.046.066-.074.098-.03.035-.075.048-.115.066-.029.012-.076.046-.109.027-.043-.027.016-.075.037-.092.02-.016.113-.073.091-.105-.014-.021-.068-.018-.09-.016-.044.005-.077.05-.115.071a.723.723 0 01-.125.06c-.053.019-.057.069-.1.099a.204.204 0 01-.12.046c-.057 0-.054-.048-.071-.088-.022.003-.04.031-.061.04-.034.014-.056.03-.04.067.013.038-.14.073-.167.092-.006-.019.024-.039.036-.05-.047-.004-.1.037-.15.044-.045.006-.103.038-.11.086-.005.038-.055.037-.086.05-.053.022-.031.053-.04.095-.02.079-.185.019-.102-.086.03-.037.074-.061.101-.099.03-.044.036-.099.06-.146-.053.015-.092.045-.137.074-.05.033-.093.025-.149.014-.065-.014-.11.019-.17.034-.039.009-.125.006-.13.062-.003.036.06.043.08.064.03.032.064.079.09.115.02.028.098.067.093.103-.008.07-.096.058-.143.07-.048.012-.055.055-.09.081-.039.029-.092-.005-.135.013-.045.017-.076.057-.115.083-.065.045-.107-.004-.174-.007-.055-.002-.104.023-.155.034-.047.01-.103.018-.138.051-.078.07.172.051.196.049-.011.04-.022.087-.058.113-.046.033-.11.025-.162.037-.04.01-.097.055-.038.087.054.027.122.013.175-.006.061-.021.118-.054.183-.068.067-.015.137-.008.204-.02.072-.014.135-.053.202-.08a.569.569 0 01.2-.038c-.014.025-.082.023-.107.029-.05.01-.085.054-.137.051-.06-.002-.053.04-.095.05-.028.007-.093.071-.114.031-.015-.031-.046-.025-.056.013-.008.028.008.038-.03.039-.03 0-.044-.012-.07-.019-.054-.014-.077.041-.115.055-.055.021-.114.014-.168.049-.03.02-.064.026-.1.037-.066.021-.129.046-.195.068-.05.018-.102.04-.157.041-.023 0-.114-.016-.129.011-.027.05.057.031.075.021.05-.027.112-.011.168-.011a.39.39 0 00.188-.046c.017-.009.129-.033.135-.02.01.006.083-.021.096-.024l.18-.042c.182-.047.362-.118.54-.179.354-.12.68-.323.987-.529.14-.093.253-.215.404-.291.152-.076.288-.177.427-.272.136-.093.24-.221.353-.338.115-.119.211-.231.262-.389-.029-.007-.059.052-.082.063-.04.019-.109.009-.14.039zm-.85-.161c.034-.047.004-.111-.057-.074-.023.013-.02.039-.038.055-.018.017-.02-.003-.039-.008-.027-.006-.07.03-.079.054-.036-.001-.069.04-.052.072.048-.018.078-.063.13-.049.041.011.108-.015.134-.05z"/></svg>