<svg xmlns="http://www.w3.org/2000/svg" xmlns:xl="http://www.w3.org/1999/xlink" viewBox="62 78 464 484" width="464pt" height="484pt"><defs><linearGradient x1="0" x2="1" id="a" gradientUnits="userSpaceOnUse"><stop offset="0" stop-color="#e5f2f2"/><stop offset="1" stop-color="#cff2f2"/></linearGradient><linearGradient id="b" xl:href="#a" gradientTransform="matrix(0 31.5 -31.5 0 103.25 304)"/><linearGradient id="c" xl:href="#a" gradientTransform="matrix(0 31.5 -31.5 0 231.25 136)"/><linearGradient id="d" xl:href="#a" gradientTransform="matrix(0 31.5 -31.5 0 359.25 136)"/><linearGradient id="e" xl:href="#a" gradientTransform="matrix(0 31.5 -31.5 0 359.25 80)"/><linearGradient id="f" xl:href="#a" gradientTransform="matrix(0 31.5 -31.5 0 359.25 192)"/><linearGradient id="g" xl:href="#a" gradientTransform="matrix(0 31.5 -31.5 0 484.75 81)"/><linearGradient id="h" xl:href="#a" gradientTransform="matrix(0 31.5 -31.5 0 484.75 136)"/><linearGradient id="j" xl:href="#a" gradientTransform="matrix(0 31.5 -31.5 0 231.25 304)"/><linearGradient id="k" xl:href="#a" gradientTransform="matrix(0 31.5 -31.5 0 359.25 304)"/><linearGradient id="l" xl:href="#a" gradientTransform="matrix(0 31.5 -31.5 0 359.25 248)"/><linearGradient id="m" xl:href="#a" gradientTransform="matrix(0 31.5 -31.5 0 359.25 360)"/><linearGradient id="n" xl:href="#a" gradientTransform="matrix(0 31.5 -31.5 0 484.75 249)"/><linearGradient id="o" xl:href="#a" gradientTransform="matrix(0 31.5 -31.5 0 484.75 304)"/><linearGradient id="p" xl:href="#a" gradientTransform="matrix(0 31.5 -31.5 0 231.25 472)"/><linearGradient id="q" xl:href="#a" gradientTransform="matrix(0 31.5 -31.5 0 359.25 472)"/><linearGradient id="r" xl:href="#a" gradientTransform="matrix(0 31.5 -31.5 0 359.25 416)"/><linearGradient id="s" xl:href="#a" gradientTransform="matrix(0 31.5 -31.5 0 359.25 528)"/><linearGradient id="t" xl:href="#a" gradientTransform="matrix(0 31.5 -31.5 0 484.75 417)"/><linearGradient id="u" xl:href="#a" gradientTransform="matrix(0 31.5 -31.5 0 484.75 472)"/><marker orient="auto" overflow="visible" markerUnits="strokeWidth" id="i" viewBox="-1 -4 10 8" markerWidth="10" markerHeight="8" color="#000"><path d="M8 0L0-3v6z" fill="currentColor" stroke="currentColor"/></marker></defs><g fill="none"><path fill="url(#b)" d="M64.5 304H142v31.5H64.5z"/><path stroke="#000" stroke-linecap="round" stroke-linejoin="round" d="M64.5 304H142v31.5H64.5z"/><text transform="translate(69.5 310.75)" fill="#000"><tspan font-family="Helvetica Neue" font-size="16" font-weight="500" x="10.038" y="15" textLength="47.424">Object</tspan></text><path fill="url(#c)" d="M192.5 136H270v31.5h-77.5z"/><path stroke="#000" stroke-linecap="round" stroke-linejoin="round" d="M192.5 136H270v31.5h-77.5z"/><text transform="translate(197.5 142.75)" fill="#000"><tspan font-family="Helvetica Neue" font-size="16" font-weight="500" x="14.942" y="15" textLength="37.616">Array</tspan></text><path fill="url(#d)" d="M320.5 136H398v31.5h-77.5z"/><path stroke="#000" stroke-linecap="round" stroke-linejoin="round" d="M320.5 136H398v31.5h-77.5z"/><text transform="translate(325.5 142.75)" fill="#000"><tspan font-family="Helvetica Neue" font-size="16" font-weight="500" x="4.262" y="15" textLength="58.976">Monster</tspan></text><path fill="url(#e)" d="M320.5 80H398v31.5h-77.5z"/><path stroke="#000" stroke-linecap="round" stroke-linejoin="round" d="M320.5 80H398v31.5h-77.5z"/><text transform="translate(325.5 86.75)" fill="#000"><tspan font-family="Helvetica Neue" font-size="16" font-weight="500" x="4.262" y="15" textLength="58.976">Monster</tspan></text><path fill="url(#f)" d="M320.5 192H398v31.5h-77.5z"/><path stroke="#000" stroke-linecap="round" stroke-linejoin="round" d="M320.5 192H398v31.5h-77.5z"/><text transform="translate(325.5 198.75)" fill="#000"><tspan font-family="Helvetica Neue" font-size="16" font-weight="500" x="25.75" y="15" textLength="16">…</tspan></text><path fill="url(#g)" d="M446 81h77.5v31.5H446z"/><path stroke="#000" stroke-linecap="round" stroke-linejoin="round" d="M446 81h77.5v31.5H446z"/><text transform="translate(451 87.75)" fill="#000"><tspan font-family="Helvetica Neue" font-size="16" font-weight="500" x="12.566" y="15" textLength="42.368">String</tspan></text><path fill="url(#h)" d="M446 136h77.5v31.5H446z"/><path stroke="#000" stroke-linecap="round" stroke-linejoin="round" d="M446 136h77.5v31.5H446z"/><text transform="translate(451 142.75)" fill="#000"><tspan font-family="Helvetica Neue" font-size="16" font-weight="500" x="12.566" y="15" textLength="42.368">String</tspan></text><path d="M103.25 304V151.75h79.35m112.65 0h15.35m-15.35 0v-56h15.35m-40.6 56h25.25v56h15.35m87.4-112l38.101.439M398 151.75h38.1" marker-end="url(#i)" stroke="#000" stroke-linecap="round" stroke-linejoin="round"/><path fill="url(#j)" d="M192.5 304H270v31.5h-77.5z"/><path stroke="#000" stroke-linecap="round" stroke-linejoin="round" d="M192.5 304H270v31.5h-77.5z"/><text transform="translate(197.5 310.75)" fill="#000"><tspan font-family="Helvetica Neue" font-size="16" font-weight="500" x="14.942" y="15" textLength="37.616">Array</tspan></text><path fill="url(#k)" d="M320.5 304H398v31.5h-77.5z"/><path stroke="#000" stroke-linecap="round" stroke-linejoin="round" d="M320.5 304H398v31.5h-77.5z"/><text transform="translate(325.5 310.75)" fill="#000"><tspan font-family="Helvetica Neue" font-size="16" font-weight="500" x="4.262" y="15" textLength="58.976">Monster</tspan></text><path fill="url(#l)" d="M320.5 248H398v31.5h-77.5z"/><path stroke="#000" stroke-linecap="round" stroke-linejoin="round" d="M320.5 248H398v31.5h-77.5z"/><text transform="translate(325.5 254.75)" fill="#000"><tspan font-family="Helvetica Neue" font-size="16" font-weight="500" x="4.262" y="15" textLength="58.976">Monster</tspan></text><path fill="url(#m)" d="M320.5 360H398v31.5h-77.5z"/><path stroke="#000" stroke-linecap="round" stroke-linejoin="round" d="M320.5 360H398v31.5h-77.5z"/><text transform="translate(325.5 366.75)" fill="#000"><tspan font-family="Helvetica Neue" font-size="16" font-weight="500" x="25.75" y="15" textLength="16">…</tspan></text><path fill="url(#n)" d="M446 249h77.5v31.5H446z"/><path stroke="#000" stroke-linecap="round" stroke-linejoin="round" d="M446 249h77.5v31.5H446z"/><text transform="translate(451 255.75)" fill="#000"><tspan font-family="Helvetica Neue" font-size="16" font-weight="500" x="12.566" y="15" textLength="42.368">String</tspan></text><path fill="url(#o)" d="M446 304h77.5v31.5H446z"/><path stroke="#000" stroke-linecap="round" stroke-linejoin="round" d="M446 304h77.5v31.5H446z"/><text transform="translate(451 310.75)" fill="#000"><tspan font-family="Helvetica Neue" font-size="16" font-weight="500" x="12.566" y="15" textLength="42.368">String</tspan></text><path d="M142 319.75h40.6m112.65 0h15.35m-15.35 0v-56h15.35m-40.6 56h25.25v56h15.35m87.4-112l38.101.439M398 319.75h38.1" marker-end="url(#i)" stroke="#000" stroke-linecap="round" stroke-linejoin="round"/><path fill="url(#p)" d="M192.5 472H270v31.5h-77.5z"/><path stroke="#000" stroke-linecap="round" stroke-linejoin="round" d="M192.5 472H270v31.5h-77.5z"/><text transform="translate(197.5 478.75)" fill="#000"><tspan font-family="Helvetica Neue" font-size="16" font-weight="500" x="14.942" y="15" textLength="37.616">Array</tspan></text><path fill="url(#q)" d="M320.5 472H398v31.5h-77.5z"/><path stroke="#000" stroke-linecap="round" stroke-linejoin="round" d="M320.5 472H398v31.5h-77.5z"/><text transform="translate(325.5 478.75)" fill="#000"><tspan font-family="Helvetica Neue" font-size="16" font-weight="500" x="4.262" y="15" textLength="58.976">Monster</tspan></text><path fill="url(#r)" d="M320.5 416H398v31.5h-77.5z"/><path stroke="#000" stroke-linecap="round" stroke-linejoin="round" d="M320.5 416H398v31.5h-77.5z"/><text transform="translate(325.5 422.75)" fill="#000"><tspan font-family="Helvetica Neue" font-size="16" font-weight="500" x="4.262" y="15" textLength="58.976">Monster</tspan></text><path fill="url(#s)" d="M320.5 528H398v31.5h-77.5z"/><path stroke="#000" stroke-linecap="round" stroke-linejoin="round" d="M320.5 528H398v31.5h-77.5z"/><text transform="translate(325.5 534.75)" fill="#000"><tspan font-family="Helvetica Neue" font-size="16" font-weight="500" x="25.75" y="15" textLength="16">…</tspan></text><path fill="url(#t)" d="M446 417h77.5v31.5H446z"/><path stroke="#000" stroke-linecap="round" stroke-linejoin="round" d="M446 417h77.5v31.5H446z"/><text transform="translate(451 423.75)" fill="#000"><tspan font-family="Helvetica Neue" font-size="16" font-weight="500" x="12.566" y="15" textLength="42.368">String</tspan></text><path fill="url(#u)" d="M446 472h77.5v31.5H446z"/><path stroke="#000" stroke-linecap="round" stroke-linejoin="round" d="M446 472h77.5v31.5H446z"/><text transform="translate(451 478.75)" fill="#000"><tspan font-family="Helvetica Neue" font-size="16" font-weight="500" x="12.566" y="15" textLength="42.368">String</tspan></text><path d="M103.25 335.5v152.25h79.35m112.65 0h15.35m-15.35 0v-56h15.35m-40.6 56h25.25v56h15.35m87.4-112l38.101.439M398 487.75h38.1" marker-end="url(#i)" stroke="#000" stroke-linecap="round" stroke-linejoin="round"/></g></svg>