<svg xmlns="http://www.w3.org/2000/svg" width="595.896" height="127.507" viewBox="0 0 1191.792 255.014"><defs><clipPath id="b"><path d="M378.974 290.045h370.893v41.372H378.974zm139.093 10.067h-2.021v2.325h2.021v-2.325zm31.524 4.538h-2.302v2.302h2.302v-2.302zm81.814 4.952h-6.21v2.033h6.21v-2.033zm-243.252-9.49h-2.179v16.464h2.179v-7.76h8.558v7.76h2.178v-16.464h-2.178v6.761h-8.558v-6.761zm39.374 4.268q-2.268 0-3.684 2.089-.348-.988-1.196-1.539-.847-.55-2.173-.55-1.19 0-2.122.534-.932.533-1.494 1.409v-1.673h-1.808v11.926h2.021l.001-6.188q0-1.628.325-2.493.326-.864 1.05-1.314.725-.449 1.578-.449 1.123 0 1.617.674t.494 2.021v7.749h2.022v-6.929q0-1.842.831-2.678.831-.837 2.089-.837.696 0 1.213.326.516.325.713.859.196.533.196 1.746v7.513h2.011v-8.187q0-2.044-.955-3.026-.955-.983-2.729-.983zm25.089 0q-2.482 0-3.796 1.965v-1.695h-1.819v11.926h2.021v-6.513q0-2.291.938-3.111.938-.82 2.229-.82.809 0 1.41.365.6.365.836.977t.236 1.848v7.254h2.022v-7.333q0-1.404-.113-1.965-.179-.865-.629-1.494-.449-.629-1.353-1.016-.904-.388-1.982-.388zm16.071-4.268h-2.179v16.464h2.179v-7.76h8.557v7.76h2.179v-16.464h-2.179v6.761h-8.557v-6.761zm44.068 4.268q-.707 0-1.297.404-.59.405-1.286 1.674v-1.808h-1.819v11.926h2.021v-6.244q0-1.28.337-2.358.225-.708.753-1.106.527-.399 1.19-.399.741 0 1.482.438l.697-1.876q-1.056-.651-2.078-.651zm5.312.27h-2.021v11.926h2.021V304.65zm8.692-.27q-2.481 0-3.795 1.965v-1.695h-1.82v11.926h2.022v-6.513q0-2.291.937-3.111.938-.82 2.23-.82.808 0 1.409.365t.837.977q.236.612.236 1.848v7.254h2.021v-7.333q0-1.404-.112-1.965-.18-.865-.629-1.494t-1.353-1.016q-.904-.388-1.983-.388zm22.832 9.894h-2.302v2.302h2.302v-2.302zm14.824-14.229q-2.347 0-3.74 1.219-1.392 1.218-1.605 3.543l2.077.213q.011-1.55.887-2.426.876-.875 2.336-.875 1.382 0 2.241.825.859.825.859 2.027 0 1.146-.943 2.431-.944 1.286-3.628 3.488-1.729 1.415-2.645 2.493-.915 1.078-1.33 2.19-.259.673-.236 1.403h10.882v-1.942h-8.075q.337-.551.854-1.095.516-.545 2.336-2.072 2.178-1.842 3.116-2.898.938-1.056 1.342-2.01.405-.955.405-1.943 0-1.943-1.382-3.257-1.381-1.314-3.751-1.314zm29.57.067h-2.179v16.464h2.179v-7.76h8.558v7.76h2.178v-16.464h-2.178v6.761h-8.558v-6.761zm23.236 4.538h-9.748v1.639h4.863q.988 0 2.279-.067l-7.591 8.715v1.639h10.556v-1.74h-5.514q-1.19 0-2.549.101l1.246-1.382 6.458-7.569v-1.336zm27.717-4.605q-2.347 0-3.74 1.219-1.393 1.218-1.606 3.543l2.078.213q.011-1.55.887-2.426.876-.875 2.336-.875 1.381 0 2.24.825.859.825.859 2.027 0 1.146-.943 2.431-.943 1.286-3.627 3.488-1.73 1.415-2.645 2.493-.915 1.078-1.331 2.19-.258.673-.236 1.403h10.882v-1.942h-8.074q.337-.551.853-1.095.517-.545 2.336-2.072 2.179-1.842 3.117-2.898.937-1.056 1.342-2.01.404-.955.404-1.943 0-1.943-1.381-3.257-1.382-1.314-3.751-1.314zm74.334.067h-2.179v16.464h2.179v-7.76h8.558v7.76h2.178v-16.464h-2.178v6.761h-8.558v-6.761zm23.236 4.538h-9.748v1.639h4.863q.988 0 2.28-.067l-7.592 8.715v1.639h10.556v-1.74h-5.514q-1.19 0-2.549.101l1.246-1.382 6.458-7.569v-1.336zm-338.273 0h-2.021v7.389q0 1.292.123 1.887.18.887.623 1.499.444.612 1.359 1.017.916.404 1.971.404 2.392 0 3.785-2.022v1.752h1.808V304.65h-2.021v6.39q0 1.527-.332 2.33-.331.803-1.128 1.269-.798.466-1.707.466-.91 0-1.528-.455-.617-.454-.808-1.252-.124-.55-.124-2.134v-6.614zm37.588 5.941v.741q0 1.336-.325 2.021-.427.887-1.337 1.398-.909.511-2.077.511-1.179 0-1.792-.539-.612-.539-.612-1.347 0-.528.281-.96.281-.433.798-.657.516-.225 1.763-.405 2.201-.314 3.301-.763zm-2.571-6.211q-1.539 0-2.707.421t-1.786 1.202q-.617.78-.887 2.049l1.977.27q.326-1.269 1.005-1.769.679-.5 2.106-.5 1.527 0 2.302.686.573.505.573 1.74 0 .113-.012.528-1.156.404-3.605.696-1.201.146-1.796.304-.809.224-1.455.662-.645.438-1.044 1.163-.399.724-.399 1.6 0 1.494 1.056 2.454 1.055.96 3.021.96 1.19 0 2.229-.393 1.039-.393 2.162-1.348.09.843.404 1.471h2.112q-.382-.685-.511-1.431-.13-.747-.13-3.566v-2.695q0-1.348-.101-1.865-.179-.831-.629-1.375-.449-.545-1.403-.904-.955-.36-2.482-.36zm48.459 1.662q1.539 0 2.505 1.168.628.753.763 2.257l-6.659.001q.101-1.562 1.05-2.494.949-.932 2.341-.932zm-.022-1.662q-2.471 0-4.021 1.662-1.55 1.662-1.55 4.672 0 2.909 1.533 4.52 1.533 1.612 4.15 1.612 2.078 0 3.414-1.011 1.336-1.011 1.831-2.841l-2.089-.258q-.461 1.28-1.247 1.864-.786.584-1.898.584-1.493 0-2.493-1.045-.999-1.044-1.112-3.009h8.895q.011-.36.011-.539 0-2.954-1.516-4.582-1.516-1.629-3.908-1.629zm15.509 6.211v.741q0 1.336-.326 2.021-.426.887-1.336 1.398-.91.511-2.078.511-1.179 0-1.791-.539-.612-.539-.612-1.347 0-.528.281-.96.28-.433.797-.657.517-.225 1.763-.405 2.201-.314 3.302-.763zm-2.572-6.211q-1.538 0-2.706.421t-1.786 1.202q-.618.78-.887 2.049l1.976.27q.326-1.269 1.005-1.769.68-.5 2.106-.5 1.528 0 2.302.686.573.505.573 1.74 0 .113-.011.528-1.157.404-3.605.696-1.202.146-1.797.304-.808.224-1.454.662-.646.438-1.045 1.163-.398.724-.398 1.6 0 1.494 1.055 2.454 1.056.96 3.021.96 1.191 0 2.23-.393 1.038-.393 2.161-1.348.09.843.405 1.471h2.111q-.382-.685-.511-1.431-.129-.747-.129-3.566v-2.695q0-1.348-.101-1.865-.18-.831-.629-1.375-.449-.545-1.404-.904-.954-.36-2.482-.36zm76.457-2.661q1.415 0 2.364 1.336.949 1.336.949 5.402 0 4.043-.949 5.39-.949 1.348-2.341 1.348-1.393 0-2.342-1.342-.949-1.342-.949-5.396t1.045-5.559q.831-1.179 2.223-1.179zm.023-1.674q-1.797 0-2.982.966-1.185.966-1.786 2.746t-.601 4.7q0 4.638 1.629 6.693 1.359 1.707 3.74 1.707 1.808 0 2.993-.971 1.184-.972 1.78-2.752.595-1.78.595-4.677 0-2.448-.371-3.892-.37-1.443-1.022-2.448-.651-1.005-1.651-1.538-.999-.534-2.324-.534zm80.5 1.674q1.415 0 2.364 1.336.949 1.336.949 5.402 0 4.043-.949 5.39-.949 1.348-2.342 1.348-1.392 0-2.341-1.342-.949-1.342-.949-5.396t1.044-5.559q.831-1.179 2.224-1.179zm.022-1.674q-1.797 0-2.982.966-1.184.966-1.785 2.746t-.601 4.7q0 4.638 1.628 6.693 1.359 1.707 3.74 1.707 1.808 0 2.993-.971 1.185-.972 1.78-2.752.595-1.78.595-4.677 0-2.448-.37-3.892-.371-1.443-1.022-2.448-.652-1.005-1.651-1.538-1-.534-2.325-.534zm19.159 1.674q1.415 0 2.364 1.336.949 1.336.949 5.402 0 4.043-.949 5.39-.949 1.348-2.341 1.348-1.393 0-2.342-1.342-.949-1.342-.949-5.396t1.045-5.559q.831-1.179 2.223-1.179zm.023-1.674q-1.797 0-2.982.966-1.185.966-1.786 2.746-.6 1.78-.6 4.7 0 4.638 1.628 6.693 1.359 1.707 3.74 1.707 1.808 0 2.993-.971 1.184-.972 1.78-2.752.595-1.78.595-4.677 0-2.448-.371-3.892-.37-1.443-1.022-2.448-.651-1.005-1.651-1.538-.999-.534-2.324-.534zm12.769 1.674q1.415 0 2.364 1.336.949 1.336.949 5.402 0 4.043-.949 5.39-.949 1.348-2.342 1.348-1.392 0-2.341-1.342-.949-1.342-.949-5.396t1.044-5.559q.831-1.179 2.224-1.179zm.022-1.674q-1.797 0-2.981.966-1.185.966-1.786 2.746t-.601 4.7q0 4.638 1.629 6.693 1.358 1.707 3.739 1.707 1.808 0 2.993-.971 1.185-.972 1.78-2.752.595-1.78.595-4.677 0-2.448-.37-3.892-.371-1.443-1.022-2.448-.652-1.005-1.651-1.538-1-.534-2.325-.534zm12.769 1.674q1.415 0 2.364 1.336.949 1.336.949 5.402 0 4.043-.949 5.39-.949 1.348-2.341 1.348-1.393 0-2.342-1.342-.949-1.342-.949-5.396t1.045-5.559q.831-1.179 2.223-1.179zm.023-1.674q-1.797 0-2.982.966-1.185.966-1.786 2.746-.6 1.78-.6 4.7 0 4.638 1.628 6.693 1.359 1.707 3.74 1.707 1.808 0 2.993-.971 1.184-.972 1.78-2.752.595-1.78.595-4.677 0-2.448-.371-3.892-.37-1.443-1.022-2.448-.651-1.005-1.651-1.538-.999-.534-2.324-.534zm-33.95 14.229h-2.302v2.302h1.145q-.033 1.022-.337 1.567-.303.545-.943.826l.562.864q.977-.427 1.426-1.207.449-.781.449-2.05v-2.302zm-129.97-8.221q1.37 0 2.341 1.112.972 1.112.972 3.302 0 2.291-.944 3.364-.943 1.072-2.335 1.072-1.404 0-2.336-1.078-.933-1.078-.933-3.425 0-2.157.944-3.252.943-1.095 2.291-1.095zm-.146-1.673q-1.584 0-2.757.786-1.174.786-1.791 2.23-.618 1.443-.618 3.15 0 2.482 1.347 4.256 1.348 1.774 3.808 1.774 1.976 0 3.301-1.561.012 1.977-.146 2.595-.269 1.01-1.033 1.572-.764.561-2.167.561-1.303 0-2.055-.561-.562-.416-.686-1.325l-1.965-.292q-.045 1.931 1.269 2.892 1.314.96 3.448.96 1.797 0 3.027-.674 1.229-.674 1.796-1.836.568-1.163.567-3.948V304.65h-1.864v1.437q-1.37-1.707-3.481-1.707z"/></clipPath><clipPath id="d"><path d="M266.901 248.217h543.663v43.462H266.901zm326.58 15.237h-2.502v2.503h2.502v-2.503zm88.928 5.383h-6.75v2.21h6.75v-2.21zm-406.14-10.315h-2.368v17.896h2.368v-8.435h9.302v8.435h2.368v-17.896h-2.368v7.349h-9.302v-7.349zm42.798 4.639q-2.466 0-4.004 2.271-.378-1.075-1.3-1.673-.922-.598-2.362-.598-1.294 0-2.307.58t-1.624 1.532v-1.819h-1.965v12.964h2.197v-6.726q0-1.77.354-2.71t1.142-1.428q.787-.489 1.715-.489 1.22 0 1.757.733.538.732.537 2.197v8.423h2.198v-7.532q0-2.002.903-2.911.903-.91 2.271-.91.756 0 1.318.354.561.354.775.934.214.58.214 1.898v8.167h2.185v-8.899q0-2.222-1.038-3.29-1.037-1.068-2.966-1.068zm27.27 0q-2.697 0-4.126 2.136v-1.843h-1.977v12.964h2.197v-7.08q0-2.49 1.019-3.381 1.02-.892 2.424-.892.878 0 1.532.397.653.397.909 1.062t.256 2.008v7.886h2.197l.001-7.971q0-1.526-.123-2.136-.195-.94-.683-1.624-.488-.684-1.471-1.105-.983-.421-2.155-.421zm87.83-4.639h-2.197v17.896h2.197v-7.092q0-1.526.366-2.393.366-.867 1.227-1.373.861-.507 1.837-.507 1.306 0 2.02.751.715.751.715 2.399v8.215h2.197v-8.215q0-1.905-.458-2.906-.458-1.001-1.52-1.568-1.062-.568-2.502-.568-2.344 0-3.882 1.782v-6.421zm39.453 0h-12.073v17.896h2.368v-8.13h8.399v-2.112h-8.399v-5.542h9.705v-2.112zm18.848 0h-2.197v17.896h2.197v-17.896zm5.554 0h-2.197v17.896h2.197v-17.896zm18.701 1.978q1.99 0 2.912.818.921.818.921 2.087 0 .867-.476 1.606-.476.738-1.392 1.074-.915.335-2.539.335h-5.09v-5.92h5.664zm-.098-1.978h-7.934v17.896h2.368v-7.947h2.747q.915 0 1.318.086.549.134 1.08.476.531.342 1.203 1.196.671.855 1.709 2.466l2.368 3.723h2.978l-3.112-4.871q-.928-1.428-1.966-2.38-.488-.439-1.428-.891 2.576-.354 3.809-1.66t1.233-3.211q0-1.477-.745-2.697-.745-1.221-1.99-1.703-1.245-.483-3.638-.483zm29.81 4.639q-2.698 0-4.126 2.136v-1.843h-1.978v12.964h2.198v-7.08q0-2.49 1.019-3.381 1.019-.892 2.423-.892.879 0 1.532.397t.91 1.062q.256.665.256 2.008v7.886h2.197v-7.971q0-1.526-.122-2.136-.195-.94-.683-1.624-.489-.684-1.471-1.105-.983-.421-2.155-.421zm47.046 10.754h-2.502v2.503h2.502v-2.503zm18.445-15.466h-1.416q-.574 1.16-1.953 2.393-1.38 1.233-3.223 2.099v2.124q1.025-.378 2.313-1.135 1.288-.757 2.082-1.513v14.001h2.197v-17.969zm29.809.073h-2.368v17.896h2.368v-8.435h9.302v8.435h2.368v-17.896h-2.368v7.349h-9.302v-7.349zm25.257 4.932h-10.596v1.782h5.286q1.074 0 2.478-.073l-8.252 9.473v1.782h11.474v-1.892h-5.993q-1.294 0-2.771.11l1.355-1.502 7.019-8.227v-1.453zm32.458-5.005h-1.416q-.574 1.16-1.953 2.393-1.379 1.233-3.223 2.099v2.124q1.026-.378 2.314-1.135 1.287-.757 2.081-1.513v14.001h2.197v-17.969zm78.467.073h-2.368v17.896h2.368v-8.435h9.302v8.435h2.368v-17.896h-2.368v7.349h-9.302v-7.349zm25.256 4.932h-10.595v1.782h5.285q1.075 0 2.478-.073l-8.252 9.473v1.782h11.475v-1.892h-5.994q-1.294 0-2.771.11l1.355-1.502 7.019-8.227v-1.453zm-509.423 0h-2.198v8.032q0 1.404.135 2.051.195.964.677 1.63.482.665 1.477 1.105.995.439 2.142.439 2.6 0 4.114-2.197v1.904h1.965v-12.964h-2.197v6.946q0 1.66-.36 2.533t-1.227 1.379q-.866.507-1.855.507t-1.66-.495q-.672-.494-.879-1.361-.134-.598-.134-2.319v-7.19zm40.856 6.458v.805q0 1.453-.354 2.198-.463.964-1.452 1.519-.989.556-2.258.556-1.282 0-1.948-.586-.665-.586-.665-1.465 0-.574.305-1.044.306-.47.867-.714.562-.244 1.917-.439 2.392-.342 3.588-.83zm-2.795-6.751q-1.672 0-2.942.458-1.269.458-1.941 1.306-.671.848-.964 2.228l2.148.293q.354-1.38 1.093-1.923.738-.543 2.289-.543 1.66 0 2.502.745.623.549.623 1.892 0 .122-.013.573-1.257.44-3.918.757-1.306.159-1.953.33-.879.244-1.581.72t-1.135 1.264q-.434.787-.434 1.739 0 1.624 1.148 2.667 1.147 1.044 3.284 1.044 1.294 0 2.423-.427 1.129-.428 2.35-1.465.097.915.439 1.599h2.295q-.415-.745-.555-1.556-.141-.812-.141-3.876v-2.93q0-1.465-.11-2.026-.195-.904-.683-1.496-.489-.592-1.526-.982-1.038-.391-2.698-.391zm65.198 1.807q1.672 0 2.722 1.269.684.818.83 2.454h-7.239q.11-1.697 1.142-2.71 1.031-1.013 2.545-1.013zm-.025-1.807q-2.685 0-4.37 1.807-1.684 1.806-1.684 5.078 0 3.162 1.666 4.913 1.666 1.752 4.51 1.752 2.259 0 3.711-1.099 1.453-1.098 1.99-3.088l-2.27-.281q-.501 1.392-1.355 2.027-.855.634-2.063.634-1.624 0-2.71-1.135-1.087-1.135-1.209-3.272l9.668.001q.012-.391.012-.586 0-3.211-1.648-4.981t-4.248-1.77zm13.929 1.807q1.672 0 2.722 1.269.683.818.83 2.454h-7.239q.11-1.697 1.141-2.71 1.032-1.013 2.546-1.013zm-.025-1.807q-2.685 0-4.37 1.807-1.685 1.806-1.685 5.078 0 3.162 1.667 4.913 1.666 1.752 4.51 1.752 2.259 0 3.711-1.099 1.453-1.098 1.99-3.088l-2.271-.281q-.5 1.392-1.355 2.027-.854.634-2.063.634-1.623 0-2.71-1.135-1.086-1.135-1.208-3.272l9.668.001q.012-.391.012-.586 0-3.211-1.648-4.981t-4.248-1.77zm13.819 0q-1.673 0-3.095.788-1.422.787-2.118 2.362-.696 1.574-.696 3.674 0 3.247 1.618 4.986 1.617 1.74 4.278 1.74 2.124 0 3.583-1.263 1.459-1.264 1.813-3.498l-2.161-.281q-.232 1.648-1.098 2.442-.867.793-2.161.793-1.611 0-2.612-1.184-1.001-1.184-1.001-3.796 0-2.576 1.037-3.766 1.038-1.19 2.698-1.19 1.099 0 1.874.659.775.659 1.08 1.965l2.136-.329q-.378-1.966-1.721-3.034-1.343-1.068-3.454-1.068zm53.857.293h-2.197v8.032q0 1.404.134 2.051.195.964.677 1.63.483.665 1.478 1.105.994.439 2.142.439 2.6 0 4.114-2.197v1.904h1.965v-12.964h-2.197v6.946q0 1.66-.36 2.533-.361.873-1.227 1.379-.867.507-1.856.507-.988 0-1.66-.495-.671-.494-.879-1.361-.134-.598-.134-2.319v-7.19zm56.14 6.458v.805q0 1.453-.354 2.198-.464.964-1.453 1.519-.988.556-2.258.556-1.282 0-1.947-.586t-.665-1.465q0-.574.305-1.044.305-.47.867-.714.561-.244 1.916-.439 2.393-.342 3.589-.83zm-2.795-6.751q-1.673 0-2.942.458-1.27.458-1.941 1.306-.672.848-.964 2.228l2.148.293q.354-1.38 1.092-1.923.739-.543 2.289-.543 1.66 0 2.503.745.622.549.622 1.892 0 .122-.012.573-1.257.44-3.918.757-1.307.159-1.953.33-.879.244-1.581.72t-1.136 1.264q-.433.787-.433 1.739 0 1.624 1.148 2.667 1.147 1.044 3.283 1.044 1.294 0 2.423-.427 1.13-.428 2.35-1.465.098.915.44 1.599h2.295q-.415-.745-.556-1.556-.14-.812-.14-3.876v-2.93q0-1.465-.11-2.026-.195-.904-.684-1.496-.488-.592-1.526-.982-1.037-.391-2.697-.391zm41.577 1.807q1.672 0 2.722 1.269.684.818.83 2.454h-7.239q.11-1.697 1.142-2.71 1.031-1.013 2.545-1.013zm-.025-1.807q-2.685 0-4.37 1.807-1.684 1.806-1.684 5.078 0 3.162 1.666 4.913 1.666 1.752 4.51 1.752 2.259 0 3.711-1.099 1.453-1.098 1.99-3.088l-2.27-.281q-.501 1.392-1.355 2.027-.855.634-2.063.634-1.624 0-2.71-1.135-1.087-1.135-1.209-3.272l9.668.001q.012-.391.012-.586 0-3.211-1.648-4.981-1.647-1.77-4.248-1.77zm-205.92-4.944q-1.807 0-3.284.611-1.477.61-2.246 1.788-.769 1.178-.769 2.533 0 1.233.629 2.228.629.995 1.91 1.666.989.525 3.455 1.117t3.186.873q1.123.427 1.611 1.056.488.628.488 1.471 0 .83-.506 1.532-.507.701-1.544 1.104-1.038.403-2.393.403-1.526 0-2.746-.531-1.221-.531-1.801-1.391-.58-.861-.739-2.204l-2.233.195q.048 1.795.982 3.217.934 1.422 2.576 2.13t4.071.708q1.916 0 3.448-.702t2.35-1.965q.818-1.263.818-2.692 0-1.44-.744-2.545-.745-1.105-2.308-1.825-1.074-.488-3.961-1.141-2.887-.653-3.57-1.276-.696-.622-.696-1.587 0-1.111.983-1.898.982-.787 3.131-.787 2.063 0 3.119.866 1.055.867 1.238 2.564l2.271-.171q-.061-1.575-.879-2.82-.818-1.245-2.337-1.886-1.52-.641-3.51-.641zm255.872 2.039q1.245 0 2.081.824.836.824.836 2.032 0 1.16-.812 1.96-.811.799-2.081.799-1.306 0-2.124-.806-.818-.805-.818-2.075 0-1.123.83-1.928.83-.806 2.087-.806zm-.037 7.41q1.587 0 2.643 1.037 1.056 1.038 1.056 2.625 0 1.562-1.026 2.575-1.025 1.014-2.6 1.014-1.013 0-1.892-.483-.879-.482-1.324-1.361-.446-.879-.446-1.819 0-1.538 1.019-2.563 1.02-1.025 2.57-1.026zm.012-9.217q-2.331 0-3.735 1.331-1.404 1.33-1.404 3.284 0 1.293.659 2.221.659.928 2.027 1.428-1.636.428-2.521 1.606-.885 1.178-.885 2.923 0 2.344 1.623 3.913 1.624 1.568 4.273 1.568 2.649 0 4.272-1.562 1.624-1.563 1.624-3.858 0-1.66-.861-2.856-.86-1.196-2.508-1.734 1.33-.5 1.983-1.422.653-.921.653-2.166 0-1.954-1.428-3.315t-3.772-1.361zm87.549 1.807q1.245 0 2.081.824.836.824.836 2.032 0 1.16-.811 1.96-.812.799-2.082.799-1.306 0-2.124-.806-.817-.805-.817-2.075 0-1.123.83-1.928.83-.806 2.087-.806zm-.037 7.41q1.587 0 2.643 1.037 1.056 1.038 1.056 2.625 0 1.562-1.025 2.575-1.026 1.014-2.6 1.014-1.014 0-1.892-.483-.879-.482-1.325-1.361-.445-.879-.445-1.819 0-1.538 1.019-2.563 1.019-1.025 2.569-1.026zm.013-9.217q-2.332 0-3.736 1.331-1.404 1.33-1.404 3.284 0 1.293.66 2.221.659.928 2.026 1.428-1.636.428-2.521 1.606-.885 1.178-.885 2.923 0 2.344 1.624 3.913 1.623 1.568 4.272 1.568t4.273-1.562q1.623-1.563 1.623-3.858 0-1.66-.86-2.856-.861-1.196-2.509-1.734 1.331-.5 1.984-1.422.653-.921.653-2.166 0-1.954-1.428-3.315-1.429-1.361-3.773-1.361zm20.825 1.819q1.538 0 2.569 1.453 1.032 1.452 1.032 5.871 0 4.395-1.032 5.86-1.031 1.465-2.545 1.465-1.513 0-2.545-1.459-1.031-1.459-1.031-5.866 0-4.406 1.135-6.042.903-1.282 2.417-1.282zm.024-1.819q-1.953 0-3.241 1.05t-1.941 2.985q-.653 1.934-.653 5.108 0 5.042 1.77 7.276 1.477 1.855 4.065 1.855 1.966 0 3.253-1.056 1.288-1.056 1.935-2.99.647-1.935.647-5.085 0-2.661-.403-4.229-.402-1.569-1.111-2.662-.708-1.092-1.794-1.672-1.086-.58-2.527-.58zm13.88 1.819q1.538 0 2.569 1.453 1.032 1.452 1.032 5.871 0 4.395-1.032 5.86-1.031 1.465-2.545 1.465t-2.545-1.459q-1.032-1.459-1.032-5.866 0-4.406 1.136-6.042.903-1.282 2.417-1.282zm.024-1.819q-1.953 0-3.241 1.05t-1.941 2.985q-.653 1.934-.653 5.108 0 5.042 1.77 7.276 1.477 1.855 4.065 1.855 1.965 0 3.253-1.056t1.935-2.99q.647-1.935.647-5.085 0-2.661-.403-4.229-.403-1.569-1.111-2.662-.708-1.092-1.794-1.672-1.087-.58-2.527-.58zm13.879 1.819q1.538 0 2.57 1.453 1.031 1.452 1.031 5.871 0 4.395-1.031 5.86-1.032 1.465-2.545 1.465-1.514 0-2.545-1.459-1.032-1.459-1.032-5.866 0-4.406 1.135-6.042.904-1.282 2.417-1.282zm.025-1.819q-1.953 0-3.241 1.05t-1.941 2.985q-.653 1.934-.653 5.108 0 5.042 1.77 7.276 1.477 1.855 4.065 1.855 1.965 0 3.253-1.056t1.935-2.99q.647-1.935.647-5.085 0-2.661-.403-4.229-.403-1.569-1.111-2.662-.708-1.092-1.794-1.672-1.087-.58-2.527-.58zm-36.902 15.466h-2.502v2.503h1.245q-.037 1.111-.367 1.703-.329.592-1.025.897l.61.94q1.062-.464 1.551-1.312.488-.849.488-2.228v-2.503zm-339.356-9.033q1.417 0 2.436 1.233t1.019 3.711q0 2.6-1.044 3.839-1.043 1.239-2.508 1.239-1.441 0-2.454-1.196-1.013-1.196-1.013-3.699 0-2.502 1.08-3.814 1.081-1.313 2.484-1.313zm.208-1.721q-1.27 0-2.161.495-.891.494-1.599 1.483v-1.685h-2.002v17.932h2.198v-6.311q.561.708 1.434 1.172.873.464 1.971.464 1.502 0 2.863-.848 1.361-.849 2.075-2.442.714-1.593.714-3.583 0-1.855-.647-3.411-.647-1.557-1.916-2.411-1.27-.855-2.93-.855zm75.073-4.944h-1.574q-2.295 3.064-3.394 6.153-.94 2.661-.94 5.566 0 3.296 1.257 6.372 1.258 3.076 3.076 5.371h1.575q-3.65-5.859-3.65-11.731 0-2.307.525-4.59.428-1.831 1.172-3.515.476-1.087 1.953-3.626zm100.574 6.763q1.489 0 2.545 1.209 1.056 1.208 1.056 3.588 0 2.491-1.025 3.656-1.026 1.166-2.539 1.166-1.526 0-2.539-1.172-1.014-1.172-1.014-3.723 0-2.344 1.026-3.534 1.025-1.19 2.49-1.19zm-.159-1.819q-1.721 0-2.997.855-1.275.854-1.947 2.423-.671 1.568-.671 3.424 0 2.698 1.465 4.626 1.465 1.929 4.138 1.929 2.149 0 3.589-1.697.012 2.149-.159 2.82-.293 1.099-1.123 1.709-.83.61-2.356.61-1.416 0-2.234-.61-.61-.452-.744-1.44l-2.136-.318q-.049 2.1 1.379 3.144 1.428 1.043 3.747 1.043 1.954 0 3.29-.732 1.337-.733 1.953-1.996.617-1.263.617-4.291v-11.206h-2.027v1.563q-1.489-1.856-3.784-1.856zm24.475-4.944h-1.574q1.489 2.564 1.965 3.662.745 1.685 1.16 3.516.525 2.258.525 4.553 0 5.872-3.65 11.731h1.574q1.807-2.295 3.07-5.371 1.264-3.076 1.264-6.372 0-2.905-.94-5.566-1.099-3.089-3.394-6.153z"/></clipPath><filter id="c"><feGaussianBlur in="SourceAlpha" stdDeviation="3"/><feOffset dy="3" result="offsetblur"/><feFlood flood-color="#000"/><feComposite in2="offsetblur" operator="in"/></filter><filter id="e"><feGaussianBlur in="SourceAlpha" stdDeviation="3"/><feOffset dy="3" result="offsetblur"/><feFlood flood-color="#000"/><feComposite in2="offsetblur" operator="in"/></filter><linearGradient id="a" x1="22" x2="1124.399" y1="266.227" y2="266.227" gradientUnits="userSpaceOnUse"><stop offset=".655" stop-color="#0700FF"/><stop offset="1" stop-color="#0700FF" stop-opacity=".248"/></linearGradient></defs><path fill="url(#a)" d="m1123.11 180.123 44.591 43.052 44.591 43.052-44.591 43.052-44.591 43.051v-21.707c-.158.278-.04.128-.429.292H22V201.538h1100.681c.389.164.271.015.429.293v-21.708z" transform="translate(-20.5 -142)"/><g stroke="#3C3C3C" stroke-width="3"><path fill="none" d="M99.152 43.398c7.522-15.095 27.674-25.899 51.354-25.899"/><path fill="#3C3C3C" d="m95.068 42.416 1.464 11.872 6.703-9.907z"/></g><path d="M1.5 1.5v208.811"/><path fill="none" stroke="#333" d="M1.5 1.5v208.811"/><path d="M258.5 1.5v208.811"/><path fill="none" stroke="#CCC" d="M258.5 1.5v208.811"/><path d="M515.5 1.5v208.811"/><path fill="none" stroke="#CCC" d="M515.5 1.5v208.811"/><path d="M771.5 1.5v208.811"/><path fill="none" stroke="#CCC" d="M771.5 1.5v208.811"/><path d="M1028.5 1.5v208.811"/><path fill="none" stroke="#CCC" d="M1028.5 1.5v208.811"/><path d="M4.5 163.999v-36 36z"/><path fill="#FF0" d="M29.5 102.664V59.538h127c1.105 0 2 1.073 2 2.396v38.334c0 1.323-.895 2.396-2 2.396z"/><path fill="#3F8422" d="M4 188.916V145.79h1024c1.105 0 2 1.072 2 2.396v38.334c0 1.323-.895 2.396-2 2.396z"/><path fill="rgb(0 0 0 / 85%)" d="M538.327 304.38q2.111 0 3.481 1.707v-1.437h1.864v10.309q.001 2.785-.567 3.948-.567 1.162-1.796 1.836-1.23.674-3.027.674-2.134 0-3.448-.96-1.314-.961-1.269-2.892l1.965.292q.124.909.686 1.325.752.561 2.055.561 1.403 0 2.167-.561.764-.562 1.033-1.572.158-.618.146-2.595-1.325 1.561-3.301 1.561-2.46 0-3.808-1.774-1.347-1.774-1.347-4.256 0-1.707.618-3.15.617-1.444 1.791-2.23 1.173-.786 2.757-.786zm.146 1.673q-1.348 0-2.291 1.095-.944 1.095-.944 3.252 0 2.347.933 3.425.932 1.078 2.336 1.078 1.392 0 2.335-1.072.944-1.073.944-3.364 0-2.19-.972-3.302-.971-1.112-2.341-1.112zm129.97 8.221v2.302q0 1.269-.449 2.05-.449.78-1.426 1.207l-.562-.864q.64-.281.943-.826.304-.545.337-1.567h-1.145v-2.302h2.302zm33.95-14.229q1.325 0 2.324.534 1 .533 1.651 1.538.652 1.005 1.022 2.448.371 1.444.371 3.892 0 2.897-.595 4.677-.596 1.78-1.78 2.752-1.185.971-2.993.971-2.381 0-3.74-1.707-1.628-2.055-1.628-6.693 0-2.92.6-4.7.601-1.78 1.786-2.746t2.982-.966zm-.023 1.674q-1.392 0-2.223 1.179-1.045 1.505-1.045 5.559t.949 5.396q.949 1.342 2.342 1.342 1.392 0 2.341-1.348.949-1.347.949-5.39 0-4.066-.949-5.402-.949-1.336-2.364-1.336zm-12.769-1.674q1.325 0 2.325.534.999.533 1.651 1.538.651 1.005 1.022 2.448.37 1.444.37 3.892 0 2.897-.595 4.677-.595 1.78-1.78 2.752-1.185.971-2.993.971-2.381 0-3.739-1.707-1.629-2.055-1.629-6.693 0-2.92.601-4.7.601-1.78 1.786-2.746 1.184-.966 2.981-.966zm-.022 1.674q-1.393 0-2.224 1.179-1.044 1.505-1.044 5.559t.949 5.396q.949 1.342 2.341 1.342 1.393 0 2.342-1.348.949-1.347.949-5.39 0-4.066-.949-5.402-.949-1.336-2.364-1.336zm-12.769-1.674q1.325 0 2.324.534 1 .533 1.651 1.538.652 1.005 1.022 2.448.371 1.444.371 3.892 0 2.897-.595 4.677-.596 1.78-1.78 2.752-1.185.971-2.993.971-2.381 0-3.74-1.707-1.628-2.055-1.628-6.693 0-2.92.6-4.7.601-1.78 1.786-2.746t2.982-.966zm-.023 1.674q-1.392 0-2.223 1.179-1.045 1.505-1.045 5.559t.949 5.396q.949 1.342 2.342 1.342 1.392 0 2.341-1.348.949-1.347.949-5.39 0-4.066-.949-5.402-.949-1.336-2.364-1.336zm-19.159-1.674q1.325 0 2.325.534.999.533 1.651 1.538.651 1.005 1.022 2.448.37 1.444.37 3.892 0 2.897-.595 4.677-.595 1.78-1.78 2.752-1.185.971-2.993.971-2.381 0-3.74-1.707-1.628-2.055-1.628-6.693 0-2.92.601-4.7.601-1.78 1.785-2.746 1.185-.966 2.982-.966zm-.022 1.674q-1.393 0-2.224 1.179-1.044 1.505-1.044 5.559t.949 5.396q.949 1.342 2.341 1.342 1.393 0 2.342-1.348.949-1.347.949-5.39 0-4.066-.949-5.402-.949-1.336-2.364-1.336zm-80.5-1.674q1.325 0 2.324.534 1 .533 1.651 1.538.652 1.005 1.022 2.448.371 1.444.371 3.892 0 2.897-.595 4.677-.596 1.78-1.78 2.752-1.185.971-2.993.971-2.381 0-3.74-1.707-1.629-2.055-1.629-6.693 0-2.92.601-4.7.601-1.78 1.786-2.746t2.982-.966zm-.023 1.674q-1.392 0-2.223 1.179-1.045 1.505-1.045 5.559t.949 5.396q.949 1.342 2.342 1.342 1.392 0 2.341-1.348.949-1.347.949-5.39 0-4.066-.949-5.402-.949-1.336-2.364-1.336zm-76.457 2.661q1.528 0 2.482.36.955.359 1.404.904.449.544.629 1.375.101.517.101 1.865v2.695q0 2.819.129 3.566.129.746.511 1.431h-2.111q-.315-.628-.405-1.471-1.123.955-2.161 1.348-1.039.393-2.23.393-1.965 0-3.021-.96-1.055-.96-1.055-2.454 0-.876.398-1.6.399-.725 1.045-1.163.646-.438 1.454-.662.595-.158 1.797-.304 2.448-.292 3.605-.696.011-.415.011-.528 0-1.235-.573-1.74-.774-.686-2.302-.686-1.426 0-2.106.5-.679.5-1.005 1.769l-1.976-.27q.269-1.269.887-2.049.618-.781 1.786-1.202 1.168-.421 2.706-.421zm2.572 6.211q-1.101.449-3.302.763-1.246.18-1.763.405-.517.224-.797.657-.281.432-.281.96 0 .808.612 1.347.612.539 1.791.539 1.168 0 2.078-.511.91-.511 1.336-1.398.326-.685.326-2.021v-.741zm-15.509-6.211q2.392 0 3.908 1.629 1.516 1.628 1.516 4.582 0 .179-.011.539h-8.895q.113 1.965 1.112 3.009 1 1.045 2.493 1.045 1.112 0 1.898-.584.786-.584 1.247-1.864l2.089.258q-.495 1.83-1.831 2.841-1.336 1.011-3.414 1.011-2.617 0-4.15-1.612-1.533-1.611-1.533-4.52 0-3.01 1.55-4.672t4.021-1.662zm.022 1.662q-1.392 0-2.341.932-.949.932-1.05 2.494l6.659-.001q-.135-1.504-.763-2.257-.966-1.168-2.505-1.168zm-48.459-1.662q1.527 0 2.482.36.954.359 1.403.904.45.544.629 1.375.101.517.101 1.865v2.695q0 2.819.13 3.566.129.746.511 1.431h-2.112q-.314-.628-.404-1.471-1.123.955-2.162 1.348-1.039.393-2.229.393-1.966 0-3.021-.96-1.056-.96-1.056-2.454 0-.876.399-1.6.399-.725 1.044-1.163.646-.438 1.455-.662.595-.158 1.796-.304 2.449-.292 3.605-.696.012-.415.012-.528 0-1.235-.573-1.74-.775-.686-2.302-.686-1.427 0-2.106.5-.679.5-1.005 1.769l-1.977-.27q.27-1.269.887-2.049.618-.781 1.786-1.202 1.168-.421 2.707-.421zm2.571 6.211q-1.1.449-3.301.763-1.247.18-1.763.405-.517.224-.798.657-.281.432-.281.96 0 .808.612 1.347.613.539 1.792.539 1.168 0 2.077-.511.91-.511 1.337-1.398.325-.685.325-2.021v-.741zm-37.588-5.941v6.614q0 1.584.124 2.134.191.798.808 1.252.618.455 1.528.455.909 0 1.707-.466.797-.466 1.128-1.269.332-.803.332-2.33v-6.39h2.021v11.926h-1.808v-1.752q-1.393 2.022-3.785 2.022-1.055 0-1.971-.404-.915-.405-1.359-1.017-.443-.612-.623-1.499-.123-.595-.123-1.887v-7.389h2.021zm338.273 0v1.336l-6.458 7.569-1.246 1.382q1.359-.101 2.549-.101h5.514v1.74h-10.556v-1.639l7.592-8.715q-1.292.067-2.28.067h-4.863v-1.639h9.748zm-23.236-4.538v6.761h8.558v-6.761h2.178v16.464h-2.178v-7.76h-8.558v7.76h-2.179v-16.464h2.179zm-74.334-.067q2.369 0 3.751 1.314 1.381 1.314 1.381 3.257 0 .988-.404 1.943-.405.954-1.342 2.01-.938 1.056-3.117 2.898-1.819 1.527-2.336 2.072-.516.544-.853 1.095h8.074v1.942H639.21q-.022-.73.236-1.403.416-1.112 1.331-2.19.915-1.078 2.645-2.493 2.684-2.202 3.627-3.488.943-1.285.943-2.431 0-1.202-.859-2.027-.859-.825-2.24-.825-1.46 0-2.336.875-.876.876-.887 2.426l-2.078-.213q.213-2.325 1.606-3.543 1.393-1.219 3.74-1.219zm-27.717 4.605v1.336l-6.458 7.569-1.246 1.382q1.359-.101 2.549-.101h5.514v1.74h-10.556v-1.639l7.591-8.715q-1.291.067-2.279.067h-4.863v-1.639h9.748zm-23.236-4.538v6.761h8.558v-6.761h2.178v16.464h-2.178v-7.76h-8.558v7.76h-2.179v-16.464h2.179zm-29.57-.067q2.37 0 3.751 1.314 1.382 1.314 1.382 3.257 0 .988-.405 1.943-.404.954-1.342 2.01-.938 1.056-3.116 2.898-1.82 1.527-2.336 2.072-.517.544-.854 1.095h8.075v1.942h-10.882q-.023-.73.236-1.403.415-1.112 1.33-2.19.916-1.078 2.645-2.493 2.684-2.202 3.628-3.488.943-1.285.943-2.431 0-1.202-.859-2.027-.859-.825-2.241-.825-1.46 0-2.336.875-.876.876-.887 2.426l-2.077-.213q.213-2.325 1.605-3.543 1.393-1.219 3.74-1.219zm-14.824 14.229v2.302h-2.302v-2.302h2.302zm-22.832-9.894q1.079 0 1.983.388.904.387 1.353 1.016.449.629.629 1.494.112.561.112 1.965v7.333h-2.021v-7.254q0-1.236-.236-1.848-.236-.612-.837-.977t-1.409-.365q-1.292 0-2.23.82-.937.82-.937 3.111v6.513h-2.022V304.65h1.82v1.695q1.314-1.965 3.795-1.965zm-8.692.27v11.926h-2.021V304.65h2.021zm-5.312-.27q1.022 0 2.078.651l-.697 1.876q-.741-.438-1.482-.438-.663 0-1.19.399-.528.398-.753 1.106-.337 1.078-.337 2.358v6.244h-2.021V304.65h1.819v1.808q.696-1.269 1.286-1.674.59-.404 1.297-.404zm-44.068-4.268v6.761h8.557v-6.761h2.179v16.464h-2.179v-7.76h-8.557v7.76h-2.179v-16.464h2.179zm-16.071 4.268q1.078 0 1.982.388.904.387 1.353 1.016.45.629.629 1.494.113.561.113 1.965v7.333h-2.022v-7.254q0-1.236-.236-1.848-.236-.612-.836-.977-.601-.365-1.41-.365-1.291 0-2.229.82-.938.82-.938 3.111v6.513h-2.021V304.65h1.819v1.695q1.314-1.965 3.796-1.965zm-25.089 0q1.774 0 2.729.983.955.982.955 3.026v8.187H429.2v-7.513q0-1.213-.196-1.746-.197-.534-.713-.859-.517-.326-1.213-.326-1.258 0-2.089.837-.831.836-.831 2.678v6.929h-2.022v-7.749q0-1.347-.494-2.021-.494-.674-1.617-.674-.853 0-1.578.449-.724.45-1.05 1.314-.325.865-.325 2.493l-.001 6.188h-2.021V304.65h1.808v1.673q.562-.876 1.494-1.409.932-.534 2.122-.534 1.326 0 2.173.55.848.551 1.196 1.539 1.416-2.089 3.684-2.089zm-39.374-4.268v6.761h8.558v-6.761h2.178v16.464h-2.178v-7.76h-8.558v7.76h-2.179v-16.464h2.179zm243.252 9.49v2.033h-6.21v-2.033h6.21zm-81.814-4.952v2.302h-2.302v-2.302h2.302zm-31.524-4.538v2.325h-2.021v-2.325h2.021z" clip-path="url(#b)" filter="url(#c)" transform="translate(-20.5 -142)"/><text transform="translate(543.247 167.576)"><tspan x="-179.615" y="7" fill="#FFF" font-family="Arial" font-size="23">Human Hearing: 20 Hz - 20,000 Hz</tspan></text><path fill="#C00" d="M19 148.708v-43.126h907c1.105 0 2 1.073 2 2.396v38.334c0 1.323-.895 2.396-2 2.396z"/><path fill="rgb(0 0 0 / 85%)" d="M583.483 258.217q2.295 3.064 3.394 6.153.94 2.661.94 5.566 0 3.296-1.264 6.372-1.263 3.076-3.07 5.371h-1.574q3.65-5.859 3.65-11.731 0-2.295-.525-4.553-.415-1.831-1.16-3.516-.476-1.098-1.965-3.662h1.574zm-24.475 4.944q2.295 0 3.784 1.856v-1.563h2.027v11.206q0 3.028-.617 4.291-.616 1.263-1.953 1.996-1.336.732-3.29.732-2.319 0-3.747-1.043-1.428-1.044-1.379-3.144l2.136.318q.134.988.744 1.44.818.61 2.234.61 1.526 0 2.356-.61.83-.61 1.123-1.709.171-.671.159-2.82-1.44 1.697-3.589 1.697-2.673 0-4.138-1.929-1.465-1.928-1.465-4.626 0-1.856.671-3.424.672-1.569 1.947-2.423 1.276-.855 2.997-.855zm.159 1.819q-1.465 0-2.49 1.19-1.026 1.19-1.026 3.534 0 2.551 1.014 3.723 1.013 1.172 2.539 1.172 1.513 0 2.539-1.166 1.025-1.165 1.025-3.656 0-2.38-1.056-3.588-1.056-1.209-2.545-1.209zm-100.574-6.763q-1.477 2.539-1.953 3.626-.744 1.684-1.172 3.515-.525 2.283-.525 4.59 0 5.872 3.65 11.731h-1.575q-1.818-2.295-3.076-5.371-1.257-3.076-1.257-6.372 0-2.905.94-5.566 1.099-3.089 3.394-6.153h1.574zm-75.073 4.944q1.66 0 2.93.855 1.269.854 1.916 2.411.647 1.556.647 3.411 0 1.99-.714 3.583-.714 1.593-2.075 2.442-1.361.848-2.863.848-1.098 0-1.971-.464t-1.434-1.172v6.311h-2.198v-17.932h2.002v1.685q.708-.989 1.599-1.483.891-.495 2.161-.495zm-.208 1.721q-1.403 0-2.484 1.313-1.08 1.312-1.08 3.814 0 2.503 1.013 3.699 1.013 1.196 2.454 1.196 1.465 0 2.508-1.239 1.044-1.239 1.044-3.839 0-2.478-1.019-3.711-1.019-1.233-2.436-1.233zm339.356 9.033v2.503q0 1.379-.488 2.228-.489.848-1.551 1.312l-.61-.94q.696-.305 1.025-.897.33-.592.367-1.703h-1.245v-2.503h2.502zm36.902-15.466q1.44 0 2.527.58 1.086.58 1.794 1.672.708 1.093 1.111 2.662.403 1.568.403 4.229 0 3.15-.647 5.085-.647 1.934-1.935 2.99-1.288 1.056-3.253 1.056-2.588 0-4.065-1.855-1.77-2.234-1.77-7.276 0-3.174.653-5.108.653-1.935 1.941-2.985 1.288-1.05 3.241-1.05zm-.025 1.819q-1.513 0-2.417 1.282-1.135 1.636-1.135 6.042 0 4.407 1.032 5.866 1.031 1.459 2.545 1.459 1.513 0 2.545-1.465 1.031-1.465 1.031-5.86 0-4.419-1.031-5.871-1.032-1.453-2.57-1.453zm-13.879-1.819q1.44 0 2.527.58 1.086.58 1.794 1.672.708 1.093 1.111 2.662.403 1.568.403 4.229 0 3.15-.647 5.085-.647 1.934-1.935 2.99-1.288 1.056-3.253 1.056-2.588 0-4.065-1.855-1.77-2.234-1.77-7.276 0-3.174.653-5.108.653-1.935 1.941-2.985 1.288-1.05 3.241-1.05zm-.024 1.819q-1.514 0-2.417 1.282-1.136 1.636-1.136 6.042 0 4.407 1.032 5.866 1.031 1.459 2.545 1.459t2.545-1.465q1.032-1.465 1.032-5.86 0-4.419-1.032-5.871-1.031-1.453-2.569-1.453zm-13.88-1.819q1.441 0 2.527.58t1.794 1.672q.709 1.093 1.111 2.662.403 1.568.403 4.229 0 3.15-.647 5.085-.647 1.934-1.935 2.99-1.287 1.056-3.253 1.056-2.588 0-4.065-1.855-1.77-2.234-1.77-7.276 0-3.174.653-5.108.653-1.935 1.941-2.985 1.288-1.05 3.241-1.05zm-.024 1.819q-1.514 0-2.417 1.282-1.135 1.636-1.135 6.042 0 4.407 1.031 5.866 1.032 1.459 2.545 1.459 1.514 0 2.545-1.465 1.032-1.465 1.032-5.86 0-4.419-1.032-5.871-1.031-1.453-2.569-1.453zm-20.826-1.819q2.344 0 3.773 1.361 1.428 1.361 1.428 3.315 0 1.245-.653 2.166-.653.922-1.984 1.422 1.648.538 2.509 1.734.86 1.196.86 2.856 0 2.295-1.623 3.858-1.624 1.562-4.273 1.562-2.649 0-4.272-1.568-1.624-1.569-1.624-3.913 0-1.745.885-2.923t2.521-1.606q-1.367-.5-2.026-1.428-.66-.928-.66-2.221 0-1.954 1.404-3.284 1.404-1.331 3.736-1.331zm-.012 9.216q-1.55.001-2.569 1.026-1.019 1.025-1.019 2.563 0 .94.445 1.819.446.879 1.325 1.361.878.483 1.892.483 1.574 0 2.6-1.014 1.025-1.013 1.025-2.575 0-1.587-1.056-2.625-1.056-1.037-2.643-1.037zm.037-7.409q-1.257 0-2.087.806-.83.805-.83 1.928 0 1.27.817 2.075.818.806 2.124.806 1.27 0 2.082-.799.811-.8.811-1.96 0-1.208-.836-2.032-.836-.824-2.081-.824zm-87.549-1.807q2.344 0 3.772 1.361t1.428 3.315q0 1.245-.653 2.166-.653.922-1.983 1.422 1.648.538 2.508 1.734.861 1.196.861 2.856 0 2.295-1.624 3.858-1.623 1.562-4.272 1.562t-4.273-1.568q-1.623-1.569-1.623-3.913 0-1.745.885-2.923t2.521-1.606q-1.368-.5-2.027-1.428-.659-.928-.659-2.221 0-1.954 1.404-3.284 1.404-1.331 3.735-1.331zm-.012 9.216q-1.55.001-2.57 1.026-1.019 1.025-1.019 2.563 0 .94.446 1.819.445.879 1.324 1.361.879.483 1.892.483 1.575 0 2.6-1.014 1.026-1.013 1.026-2.575 0-1.587-1.056-2.625-1.056-1.037-2.643-1.037zm.036-7.409q-1.257 0-2.087.806-.83.805-.83 1.928 0 1.27.818 2.075.818.806 2.124.806 1.27 0 2.081-.799.812-.8.812-1.96 0-1.208-.836-2.032-.836-.824-2.081-.824zm-255.871-2.039q1.99 0 3.51.641 1.519.641 2.337 1.886.818 1.245.879 2.82l-2.271.171q-.183-1.697-1.238-2.564-1.056-.866-3.119-.866-2.149 0-3.131.787-.983.787-.983 1.898 0 .965.696 1.587.683.623 3.57 1.276 2.887.653 3.961 1.141 1.563.72 2.308 1.825.744 1.105.744 2.545 0 1.429-.818 2.692-.818 1.263-2.35 1.965-1.532.702-3.448.702-2.429 0-4.071-.708t-2.576-2.13q-.934-1.422-.982-3.217l2.233-.195q.159 1.343.739 2.204.58.86 1.801 1.391 1.22.531 2.746.531 1.355 0 2.393-.403 1.037-.403 1.544-1.104.506-.702.506-1.532 0-.843-.488-1.471-.488-.629-1.611-1.056-.72-.281-3.186-.873t-3.455-1.117q-1.281-.671-1.91-1.666-.629-.995-.629-2.228 0-1.355.769-2.533t2.246-1.788q1.477-.611 3.284-.611zm205.92 4.944q2.601 0 4.248 1.77 1.648 1.77 1.648 4.981 0 .195-.012.586l-9.668-.001q.122 2.137 1.209 3.272 1.086 1.135 2.71 1.135 1.208 0 2.063-.634.854-.635 1.355-2.027l2.27.281q-.537 1.99-1.99 3.088-1.452 1.099-3.711 1.099-2.844 0-4.51-1.752-1.666-1.751-1.666-4.913 0-3.272 1.684-5.078 1.685-1.807 4.37-1.807zm.025 1.807q-1.514 0-2.545 1.013-1.032 1.013-1.142 2.71h7.239q-.146-1.636-.83-2.454-1.05-1.269-2.722-1.269zm-41.577-1.807q1.66 0 2.697.391 1.038.39 1.526.982.489.592.684 1.496.11.561.11 2.026v2.93q0 3.064.14 3.876.141.811.556 1.556h-2.295q-.342-.684-.44-1.599-1.22 1.037-2.35 1.465-1.129.427-2.423.427-2.136 0-3.283-1.044-1.148-1.043-1.148-2.667 0-.952.433-1.739.434-.788 1.136-1.264t1.581-.72q.646-.171 1.953-.33 2.661-.317 3.918-.757.012-.451.012-.573 0-1.343-.622-1.892-.843-.745-2.503-.745-1.55 0-2.289.543-.738.543-1.092 1.923l-2.148-.293q.292-1.38.964-2.228.671-.848 1.941-1.306 1.269-.458 2.942-.458zm2.795 6.751q-1.196.488-3.589.83-1.355.195-1.916.439-.562.244-.867.714-.305.47-.305 1.044 0 .879.665 1.465.665.586 1.947.586 1.27 0 2.258-.556.989-.555 1.453-1.519.354-.745.354-2.198v-.805zm-56.14-6.458v7.19q0 1.721.134 2.319.208.867.879 1.361.672.495 1.66.495.989 0 1.856-.507.866-.506 1.227-1.379.36-.873.36-2.533v-6.946h2.197v12.964h-1.965v-1.904q-1.514 2.197-4.114 2.197-1.148 0-2.142-.439-.995-.44-1.478-1.105-.482-.666-.677-1.63-.134-.647-.134-2.051v-8.032h2.197zm-53.857-.293q2.111 0 3.454 1.068t1.721 3.034l-2.136.329q-.305-1.306-1.08-1.965-.775-.659-1.874-.659-1.66 0-2.698 1.19-1.037 1.19-1.037 3.766 0 2.612 1.001 3.796 1.001 1.184 2.612 1.184 1.294 0 2.161-.793.866-.794 1.098-2.442l2.161.281q-.354 2.234-1.813 3.498-1.459 1.263-3.583 1.263-2.661 0-4.278-1.74-1.618-1.739-1.618-4.986 0-2.1.696-3.674.696-1.575 2.118-2.362 1.422-.788 3.095-.788zm-13.819 0q2.6 0 4.248 1.77 1.648 1.77 1.648 4.981 0 .195-.012.586l-9.668-.001q.122 2.137 1.208 3.272 1.087 1.135 2.71 1.135 1.209 0 2.063-.634.855-.635 1.355-2.027l2.271.281q-.537 1.99-1.99 3.088-1.452 1.099-3.711 1.099-2.844 0-4.51-1.752-1.667-1.751-1.667-4.913 0-3.272 1.685-5.078 1.685-1.807 4.37-1.807zm.025 1.807q-1.514 0-2.546 1.013-1.031 1.013-1.141 2.71h7.239q-.147-1.636-.83-2.454-1.05-1.269-2.722-1.269zm-13.929-1.807q2.6 0 4.248 1.77 1.648 1.77 1.648 4.981 0 .195-.012.586l-9.668-.001q.122 2.137 1.209 3.272 1.086 1.135 2.71 1.135 1.208 0 2.063-.634.854-.635 1.355-2.027l2.27.281q-.537 1.99-1.99 3.088-1.452 1.099-3.711 1.099-2.844 0-4.51-1.752-1.666-1.751-1.666-4.913 0-3.272 1.684-5.078 1.685-1.807 4.37-1.807zm.025 1.807q-1.514 0-2.545 1.013-1.032 1.013-1.142 2.71h7.239q-.146-1.636-.83-2.454-1.05-1.269-2.722-1.269zm-65.198-1.807q1.66 0 2.698.391 1.037.39 1.526.982.488.592.683 1.496.11.561.11 2.026v2.93q0 3.064.141 3.876.14.811.555 1.556h-2.295q-.342-.684-.439-1.599-1.221 1.037-2.35 1.465-1.129.427-2.423.427-2.137 0-3.284-1.044-1.148-1.043-1.148-2.667 0-.952.434-1.739.433-.788 1.135-1.264t1.581-.72q.647-.171 1.953-.33 2.661-.317 3.918-.757.013-.451.013-.573 0-1.343-.623-1.892-.842-.745-2.502-.745-1.551 0-2.289.543-.739.543-1.093 1.923l-2.148-.293q.293-1.38.964-2.228.672-.848 1.941-1.306 1.27-.458 2.942-.458zm2.795 6.751q-1.196.488-3.588.83-1.355.195-1.917.439-.561.244-.867.714-.305.47-.305 1.044 0 .879.665 1.465.666.586 1.948.586 1.269 0 2.258-.556.989-.555 1.452-1.519.354-.745.354-2.198v-.805zm-40.856-6.458v7.19q0 1.721.134 2.319.207.867.879 1.361.671.495 1.66.495.989 0 1.855-.507.867-.506 1.227-1.379.36-.873.36-2.533v-6.946h2.197v12.964h-1.965v-1.904q-1.514 2.197-4.114 2.197-1.147 0-2.142-.439-.995-.44-1.477-1.105-.482-.666-.677-1.63-.135-.647-.135-2.051v-8.032h2.198zm509.423 0v1.453l-7.019 8.227-1.355 1.502q1.477-.11 2.771-.11h5.994v1.892h-11.475v-1.782l8.252-9.473q-1.403.073-2.478.073h-5.285v-1.782h10.595zm-25.256-4.932v7.349h9.302v-7.349h2.368v17.896h-2.368v-8.435h-9.302v8.435h-2.368v-17.896h2.368zm-78.467-.073v17.969h-2.197v-14.001q-.794.756-2.081 1.513-1.288.757-2.314 1.135v-2.124q1.844-.866 3.223-2.099 1.379-1.233 1.953-2.393h1.416zm-32.458 5.005v1.453l-7.019 8.227-1.355 1.502q1.477-.11 2.771-.11h5.993v1.892h-11.474v-1.782l8.252-9.473q-1.404.073-2.478.073h-5.286v-1.782h10.596zm-25.257-4.932v7.349h9.302v-7.349h2.368v17.896h-2.368v-8.435h-9.302v8.435h-2.368v-17.896h2.368zm-29.809-.073v17.969h-2.197v-14.001q-.794.756-2.082 1.513-1.288.757-2.313 1.135v-2.124q1.843-.866 3.223-2.099 1.379-1.233 1.953-2.393h1.416zm-18.445 15.466v2.503h-2.502v-2.503h2.502zm-47.046-10.754q1.172 0 2.155.421.982.421 1.471 1.105.488.684.683 1.624.122.61.122 2.136v7.971h-2.197v-7.886q0-1.343-.256-2.008-.257-.665-.91-1.062t-1.532-.397q-1.404 0-2.423.892-1.019.891-1.019 3.381v7.08h-2.198v-12.964h1.978v1.843q1.428-2.136 4.126-2.136zm-29.81-4.639q2.393 0 3.638.483 1.245.482 1.99 1.703.745 1.22.745 2.697 0 1.905-1.233 3.211-1.233 1.306-3.809 1.66.94.452 1.428.891 1.038.952 1.966 2.38l3.112 4.871h-2.978l-2.368-3.723q-1.038-1.611-1.709-2.466-.672-.854-1.203-1.196-.531-.342-1.08-.476-.403-.086-1.318-.086h-2.747v7.947h-2.368v-17.896h7.934zm.098 1.978h-5.664v5.92h5.09q1.624 0 2.539-.335.916-.336 1.392-1.074.476-.739.476-1.606 0-1.269-.921-2.087-.922-.818-2.912-.818zm-18.701-1.978v17.896h-2.197v-17.896h2.197zm-5.554 0v17.896h-2.197v-17.896h2.197zm-18.848 0v2.112h-9.705v5.542h8.399v2.112h-8.399v8.13h-2.368v-17.896h12.073zm-39.453 0v6.421q1.538-1.782 3.882-1.782 1.44 0 2.502.568 1.062.567 1.52 1.568.458 1.001.458 2.906v8.215h-2.197v-8.215q0-1.648-.715-2.399-.714-.751-2.02-.751-.976 0-1.837.507-.861.506-1.227 1.373-.366.867-.366 2.393v7.092h-2.197v-17.896h2.197zm-87.83 4.639q1.172 0 2.155.421.983.421 1.471 1.105.488.684.683 1.624.123.61.123 2.136l-.001 7.971h-2.197v-7.886q0-1.343-.256-2.008t-.909-1.062q-.654-.397-1.532-.397-1.404 0-2.424.892-1.019.891-1.019 3.381v7.08h-2.197v-12.964h1.977v1.843q1.429-2.136 4.126-2.136zm-27.27 0q1.929 0 2.966 1.068 1.038 1.068 1.038 3.29v8.899h-2.185v-8.167q0-1.318-.214-1.898-.214-.58-.775-.934-.562-.354-1.318-.354-1.368 0-2.271.91-.903.909-.903 2.911v7.532h-2.198v-8.423q.001-1.465-.537-2.197-.537-.733-1.757-.733-.928 0-1.715.489-.788.488-1.142 1.428-.354.94-.354 2.71v6.726h-2.197v-12.964h1.965v1.819q.611-.952 1.624-1.532 1.013-.58 2.307-.58 1.44 0 2.362.598.922.598 1.3 1.673 1.538-2.271 4.004-2.271zm-42.798-4.639v7.349h9.302v-7.349h2.368v17.896h-2.368v-8.435h-9.302v8.435h-2.368v-17.896h2.368zm406.14 10.315v2.21h-6.75v-2.21h6.75zm-88.928-5.383v2.503h-2.502v-2.503h2.502z" clip-path="url(#d)" filter="url(#e)" transform="translate(-20.5 -142)"/><text transform="translate(517.5 141.418)"><tspan x="-266.101" y="-7" fill="#FFF" font-family="Arial" font-size="25">Human Speech (Full Range): 18 Hz - 18,000 Hz</tspan></text><text transform="translate(381.753 20.499)"><tspan x="-229.747" y="5.5" fill="#FFF" font-family="Arial" font-size="25">Human Speech (Core): 500 Hz - 3,000</tspan></text><path fill="#363636" d="M154.008 25.999V8.104h2.368v7.348h9.302V8.104h2.368v17.895h-2.368v-8.435h-9.302v8.435zm26.196 0v-1.904q-1.513 2.197-4.113 2.197-1.148 0-2.143-.439-.995-.44-1.477-1.105-.482-.665-.677-1.63-.135-.647-.135-2.051v-8.032h2.198v7.19q0 1.721.134 2.319.207.867.879 1.362.671.494 1.66.494.989 0 1.855-.507.867-.506 1.227-1.379.36-.873.36-2.533v-6.946h2.198v12.964zm5.408 0V13.035h1.965v1.819q.611-.952 1.624-1.532 1.013-.58 2.307-.58 1.44 0 2.362.598.922.599 1.3 1.673 1.538-2.271 4.004-2.271 1.929 0 2.966 1.068 1.038 1.068 1.038 3.29v8.899h-2.185v-8.166q0-1.319-.214-1.899-.213-.579-.775-.933-.561-.354-1.318-.354-1.367 0-2.271.909-.903.909-.903 2.911v7.532h-2.197v-8.423q0-1.465-.537-2.197-.538-.732-1.758-.732-.928 0-1.715.488-.788.488-1.142 1.428-.354.94-.354 2.71v6.726zm29.285-1.599q-1.221 1.038-2.35 1.465-1.129.427-2.423.427-2.136 0-3.284-1.044-1.147-1.043-1.147-2.667 0-.952.433-1.739.433-.788 1.135-1.264t1.581-.72q.647-.171 1.953-.33 2.661-.317 3.919-.756.012-.452.012-.574 0-1.343-.623-1.892-.842-.745-2.502-.745-1.551 0-2.289.543-.739.543-1.093 1.923l-2.148-.293q.293-1.379.964-2.228.672-.848 1.941-1.306 1.27-.458 2.942-.458 1.66 0 2.698.391 1.038.39 1.526.983.488.592.683 1.495.11.561.11 2.026v2.93q0 3.064.141 3.876.14.811.555 1.556h-2.295q-.342-.684-.439-1.599zm-.183-4.907q-1.197.488-3.589.83-1.355.195-1.917.439-.561.244-.866.714-.306.47-.306 1.044 0 .879.666 1.465.665.586 1.947.586 1.269 0 2.258-.556.989-.555 1.453-1.519.354-.745.354-2.198zm5.627 6.506V13.035h1.978v1.843q1.428-2.136 4.126-2.136 1.171 0 2.154.421.983.422 1.471 1.105.488.684.684 1.624.122.61.122 2.136v7.971h-2.198v-7.886q0-1.342-.256-2.008-.256-.665-.909-1.062-.653-.396-1.532-.396-1.404 0-2.423.891-1.02.891-1.02 3.381v7.08zm20.325-5.749 2.234-.196q.158 1.343.738 2.204.58.86 1.801 1.391 1.22.531 2.746.531 1.355 0 2.393-.403 1.037-.402 1.544-1.104.507-.702.507-1.532 0-.843-.489-1.471-.488-.629-1.611-1.056-.72-.281-3.186-.873t-3.455-1.117q-1.281-.671-1.91-1.666-.629-.995-.629-2.228 0-1.355.769-2.533t2.246-1.788q1.478-.611 3.284-.611 1.99 0 3.51.641 1.519.641 2.337 1.886.818 1.245.879 2.82l-2.27.171q-.183-1.697-1.239-2.564-1.056-.866-3.119-.866-2.149 0-3.131.787-.983.787-.983 1.898 0 .965.696 1.587.683.623 3.57 1.276 2.887.653 3.962 1.141 1.562.72 2.307 1.825.744 1.105.744 2.545 0 1.429-.818 2.692-.817 1.263-2.349 1.965-1.532.702-3.449.702-2.429 0-4.071-.708t-2.576-2.13q-.933-1.422-.982-3.216zm17.199 10.717V13.035h2.002v1.685q.708-.989 1.6-1.483.891-.495 2.16-.495 1.66 0 2.93.855 1.269.854 1.916 2.411.647 1.556.647 3.411 0 1.99-.714 3.583-.714 1.593-2.075 2.442-1.361.848-2.863.848-1.098 0-1.971-.464t-1.434-1.172v6.311zm1.99-11.377q0 2.503 1.013 3.699 1.014 1.196 2.454 1.196 1.465 0 2.509-1.239 1.043-1.239 1.043-3.839 0-2.478-1.019-3.711-1.019-1.233-2.435-1.233-1.404 0-2.484 1.313-1.081 1.312-1.081 3.814zm20.789 2.234 2.27.281q-.537 1.99-1.989 3.088-1.453 1.099-3.711 1.099-2.845 0-4.511-1.752-1.666-1.751-1.666-4.913 0-3.272 1.684-5.078 1.685-1.807 4.371-1.807 2.6 0 4.248 1.77 1.648 1.77 1.648 4.981 0 .195-.013.586h-9.668q.122 2.136 1.209 3.271 1.086 1.135 2.71 1.135 1.208 0 2.063-.634.854-.635 1.355-2.027zm-7.215-3.552h7.239q-.146-1.636-.83-2.454-1.05-1.269-2.722-1.269-1.514 0-2.545 1.013-1.032 1.013-1.142 2.71zm21.119 3.552 2.27.281q-.537 1.99-1.99 3.088-1.452 1.099-3.711 1.099-2.844 0-4.51-1.752-1.666-1.751-1.666-4.913 0-3.272 1.684-5.078 1.685-1.807 4.37-1.807 2.6 0 4.248 1.77 1.648 1.77 1.648 4.981 0 .195-.012.586h-9.668q.122 2.136 1.209 3.271 1.086 1.135 2.71 1.135 1.208 0 2.063-.634.854-.635 1.355-2.027zm-7.215-3.552h7.239q-.146-1.636-.83-2.454-1.05-1.269-2.722-1.269-1.514 0-2.545 1.013-1.032 1.013-1.142 2.71zm20.703 2.979 2.161.28q-.354 2.234-1.813 3.498-1.458 1.263-3.583 1.263-2.661 0-4.278-1.739-1.618-1.74-1.618-4.987 0-2.1.696-3.674.696-1.575 2.118-2.362 1.422-.788 3.095-.788 2.112 0 3.454 1.068 1.343 1.068 1.721 3.034l-2.136.329q-.305-1.306-1.08-1.965-.775-.659-1.874-.659-1.66 0-2.698 1.19-1.037 1.19-1.037 3.766 0 2.612 1.001 3.796 1.001 1.184 2.612 1.184 1.294 0 2.161-.793.866-.794 1.098-2.441zm4.041 4.748V8.104h2.197v6.42q1.538-1.782 3.882-1.782 1.44 0 2.502.568 1.062.567 1.52 1.568.458 1.001.458 2.906v8.215h-2.197v-8.215q0-1.648-.714-2.399-.715-.751-2.021-.751-.976 0-1.837.507-.86.506-1.227 1.373-.366.867-.366 2.393v7.092zm25.049 5.261q-1.819-2.295-3.076-5.371-1.258-3.076-1.258-6.372 0-2.905.94-5.566 1.099-3.089 3.394-6.153h1.574q-1.477 2.539-1.953 3.626-.744 1.684-1.172 3.515-.524 2.283-.524 4.59 0 5.872 3.649 11.731zm17.175-11.535 2.368.598q-.744 2.917-2.679 4.449-1.935 1.532-4.731 1.532-2.893 0-4.705-1.178-1.813-1.178-2.759-3.412t-.946-4.797q0-2.795 1.068-4.877 1.068-2.081 3.04-3.161 1.971-1.081 4.339-1.081 2.686 0 4.517 1.368 1.831 1.367 2.551 3.845l-2.332.549q-.622-1.953-1.806-2.844-1.184-.891-2.979-.891-2.063 0-3.448.989-1.386.988-1.947 2.655-.562 1.666-.562 3.436 0 2.283.666 3.985.665 1.703 2.069 2.546 1.403.842 3.039.842 1.99 0 3.369-1.148 1.38-1.147 1.868-3.405zm4.187-.208q0-3.601 2.002-5.334 1.672-1.441 4.077-1.441 2.673 0 4.37 1.752t1.697 4.84q0 2.502-.751 3.937-.75 1.434-2.185 2.228-1.434.793-3.131.793-2.722 0-4.401-1.746-1.678-1.745-1.678-5.029zm2.258 0q0 2.49 1.087 3.729 1.086 1.239 2.734 1.239 1.636 0 2.722-1.245 1.087-1.245 1.087-3.796 0-2.405-1.093-3.644-1.092-1.239-2.716-1.239-1.648 0-2.734 1.233-1.087 1.233-1.087 3.723zm12.439 6.482V13.035h1.978v1.966q.757-1.38 1.398-1.819.64-.44 1.409-.44 1.111 0 2.259.708l-.757 2.039q-.806-.476-1.611-.476-.721 0-1.294.433-.574.433-.818 1.202-.366 1.172-.366 2.564v6.787zm17.224-4.175 2.271.281q-.537 1.99-1.99 3.088-1.452 1.099-3.711 1.099-2.844 0-4.51-1.752-1.667-1.751-1.667-4.913 0-3.272 1.685-5.078 1.685-1.807 4.37-1.807 2.6 0 4.248 1.77 1.648 1.77 1.648 4.981 0 .195-.012.586h-9.668q.122 2.136 1.208 3.271 1.087 1.135 2.71 1.135 1.209 0 2.063-.634.855-.635 1.355-2.027zm-7.214-3.552h7.239q-.147-1.636-.83-2.454-1.05-1.269-2.722-1.269-1.514 0-2.546 1.013-1.031 1.013-1.141 2.71zm13.684 12.988h-1.575q3.65-5.859 3.65-11.731 0-2.295-.525-4.553-.415-1.831-1.159-3.516-.476-1.098-1.966-3.662h1.575q2.295 3.064 3.394 6.153.94 2.661.94 5.566 0 3.296-1.264 6.372-1.263 3.076-3.07 5.371zm7.495-15.722v-2.503h2.503v2.503zm0 10.461v-2.502h2.503v2.502zm12.671-4.687 2.307-.196q.257 1.685 1.19 2.533.934.849 2.253.849 1.587 0 2.685-1.197 1.099-1.196 1.099-3.174 0-1.879-1.056-2.966-1.056-1.086-2.765-1.086-1.062 0-1.916.482-.855.482-1.343 1.251l-2.063-.268 1.733-9.192h8.899v2.099h-7.141l-.964 4.81q1.611-1.123 3.381-1.123 2.344 0 3.955 1.623 1.611 1.624 1.611 4.175 0 2.429-1.416 4.199-1.721 2.173-4.699 2.173-2.442 0-3.986-1.367t-1.764-3.625zm13.904-4.139q0-3.173.653-5.108.653-1.935 1.941-2.985 1.288-1.05 3.241-1.05 1.44 0 2.527.58 1.086.58 1.794 1.673.708 1.092 1.111 2.661.403 1.568.403 4.229 0 3.15-.647 5.085-.647 1.934-1.935 2.99-1.288 1.056-3.253 1.056-2.588 0-4.065-1.855-1.77-2.234-1.77-7.276zm2.258 0q0 4.407 1.032 5.866 1.031 1.459 2.545 1.459t2.545-1.465q1.032-1.465 1.032-5.86 0-4.419-1.032-5.871-1.031-1.453-2.57-1.453-1.513 0-2.417 1.282-1.135 1.636-1.135 6.042zm11.646 0q0-3.173.653-5.108.653-1.935 1.941-2.985 1.288-1.05 3.241-1.05 1.44 0 2.527.58 1.086.58 1.794 1.673.708 1.092 1.111 2.661.403 1.568.403 4.229 0 3.15-.647 5.085-.647 1.934-1.935 2.99-1.288 1.056-3.253 1.056-2.588 0-4.065-1.855-1.77-2.234-1.77-7.276zm2.258 0q0 4.407 1.032 5.866 1.031 1.459 2.545 1.459 1.513 0 2.545-1.465 1.031-1.465 1.031-5.86 0-4.419-1.031-5.871-1.032-1.453-2.57-1.453-1.513 0-2.417 1.282-1.135 1.636-1.135 6.042zm19.556 8.826V8.104h2.368v7.348h9.302V8.104h2.368v17.895h-2.368v-8.435h-9.302v8.435zm16.54 0v-1.782l8.252-9.473q-1.404.073-2.478.073h-5.285v-1.782h10.595v1.453l-7.019 8.227-1.355 1.502q1.477-.11 2.771-.11h5.994v1.892zm19.751-5.371v-2.21h6.751v2.21zm15.528.647 2.197-.293q.378 1.868 1.288 2.692.909.824 2.215.824 1.551 0 2.619-1.075 1.068-1.074 1.068-2.661 0-1.513-.989-2.496-.989-.983-2.515-.983-.622 0-1.55.244l.244-1.928q.22.024.354.024 1.404 0 2.527-.732 1.123-.733 1.123-2.259 0-1.208-.818-2.002-.818-.793-2.112-.793-1.281 0-2.136.806-.854.805-1.098 2.417l-2.198-.391q.403-2.209 1.831-3.424 1.429-1.215 3.553-1.215 1.464 0 2.697.629t1.886 1.715q.653 1.086.653 2.307 0 1.16-.622 2.112-.623.952-1.843 1.514 1.586.366 2.465 1.519.879 1.154.879 2.887 0 2.344-1.709 3.974-1.709 1.629-4.321 1.629-2.356 0-3.912-1.403-1.557-1.404-1.776-3.638zm15.075 4.724v-2.502h2.503v2.502q0 1.379-.489 2.228-.488.848-1.55 1.312l-.61-.94q.696-.305 1.025-.897.33-.592.366-1.703zm5.762-8.826q0-3.173.653-5.108.653-1.935 1.941-2.985 1.288-1.05 3.241-1.05 1.44 0 2.527.58 1.086.58 1.794 1.673.708 1.092 1.111 2.661.403 1.568.403 4.229 0 3.15-.647 5.085-.647 1.934-1.935 2.99-1.288 1.056-3.253 1.056-2.588 0-4.065-1.855-1.77-2.234-1.77-7.276zm2.258 0q0 4.407 1.032 5.866 1.031 1.459 2.545 1.459t2.545-1.465q1.032-1.465 1.032-5.86 0-4.419-1.032-5.871-1.031-1.453-2.57-1.453-1.513 0-2.417 1.282-1.135 1.636-1.135 6.042zm11.646 0q0-3.173.653-5.108.653-1.935 1.941-2.985 1.288-1.05 3.241-1.05 1.44 0 2.527.58 1.086.58 1.794 1.673.708 1.092 1.111 2.661.403 1.568.403 4.229 0 3.15-.647 5.085-.647 1.934-1.935 2.99-1.288 1.056-3.253 1.056-2.588 0-4.065-1.855-1.77-2.234-1.77-7.276zm2.258 0q0 4.407 1.032 5.866 1.031 1.459 2.545 1.459 1.513 0 2.545-1.465 1.031-1.465 1.031-5.86 0-4.419-1.031-5.871-1.032-1.453-2.57-1.453-1.513 0-2.417 1.282-1.135 1.636-1.135 6.042zm11.646 0q0-3.173.653-5.108.653-1.935 1.941-2.985 1.287-1.05 3.241-1.05 1.44 0 2.526.58 1.087.58 1.795 1.673.708 1.092 1.111 2.661.402 1.568.402 4.229 0 3.15-.646 5.085-.647 1.934-1.935 2.99-1.288 1.056-3.253 1.056-2.588 0-4.065-1.855-1.77-2.234-1.77-7.276zm2.258 0q0 4.407 1.031 5.866 1.032 1.459 2.546 1.459 1.513 0 2.545-1.465 1.031-1.465 1.031-5.86 0-4.419-1.031-5.871-1.032-1.453-2.57-1.453-1.514 0-2.417 1.282-1.135 1.636-1.135 6.042z"/><path fill="none" stroke="#363636" d="M154.008 25.999V8.104h2.368v7.348h9.302V8.104h2.368v17.895h-2.368v-8.435h-9.302v8.435zm26.196 0v-1.904q-1.513 2.197-4.113 2.197-1.148 0-2.143-.439-.995-.44-1.477-1.105-.482-.665-.677-1.63-.135-.647-.135-2.051v-8.032h2.198v7.19q0 1.721.134 2.319.207.867.879 1.362.671.494 1.66.494.989 0 1.855-.507.867-.506 1.227-1.379.36-.873.36-2.533v-6.946h2.198v12.964zm5.408 0V13.035h1.965v1.819q.611-.952 1.624-1.532 1.013-.58 2.307-.58 1.44 0 2.362.598.922.599 1.3 1.673 1.538-2.271 4.004-2.271 1.929 0 2.966 1.068 1.038 1.068 1.038 3.29v8.899h-2.185v-8.166q0-1.319-.214-1.899-.213-.579-.775-.933-.561-.354-1.318-.354-1.367 0-2.271.909-.903.909-.903 2.911v7.532h-2.197v-8.423q0-1.465-.537-2.197-.538-.732-1.758-.732-.928 0-1.715.488-.788.488-1.142 1.428-.354.94-.354 2.71v6.726zm29.285-1.599q-1.221 1.038-2.35 1.465-1.129.427-2.423.427-2.136 0-3.284-1.044-1.147-1.043-1.147-2.667 0-.952.433-1.739.433-.788 1.135-1.264t1.581-.72q.647-.171 1.953-.33 2.661-.317 3.919-.756.012-.452.012-.574 0-1.343-.623-1.892-.842-.745-2.502-.745-1.551 0-2.289.543-.739.543-1.093 1.923l-2.148-.293q.293-1.379.964-2.228.672-.848 1.941-1.306 1.27-.458 2.942-.458 1.66 0 2.698.391 1.038.39 1.526.983.488.592.683 1.495.11.561.11 2.026v2.93q0 3.064.141 3.876.14.811.555 1.556h-2.295q-.342-.684-.439-1.599zm-.183-4.907q-1.197.488-3.589.83-1.355.195-1.917.439-.561.244-.866.714-.306.47-.306 1.044 0 .879.666 1.465.665.586 1.947.586 1.269 0 2.258-.556.989-.555 1.453-1.519.354-.745.354-2.198zm5.627 6.506V13.035h1.978v1.843q1.428-2.136 4.126-2.136 1.171 0 2.154.421.983.422 1.471 1.105.488.684.684 1.624.122.61.122 2.136v7.971h-2.198v-7.886q0-1.342-.256-2.008-.256-.665-.909-1.062-.653-.396-1.532-.396-1.404 0-2.423.891-1.02.891-1.02 3.381v7.08zm20.325-5.749 2.234-.196q.158 1.343.738 2.204.58.86 1.801 1.391 1.22.531 2.746.531 1.355 0 2.393-.403 1.037-.402 1.544-1.104.507-.702.507-1.532 0-.843-.489-1.471-.488-.629-1.611-1.056-.72-.281-3.186-.873t-3.455-1.117q-1.281-.671-1.91-1.666-.629-.995-.629-2.228 0-1.355.769-2.533t2.246-1.788q1.478-.611 3.284-.611 1.99 0 3.51.641 1.519.641 2.337 1.886.818 1.245.879 2.82l-2.27.171q-.183-1.697-1.239-2.564-1.056-.866-3.119-.866-2.149 0-3.131.787-.983.787-.983 1.898 0 .965.696 1.587.683.623 3.57 1.276 2.887.653 3.962 1.141 1.562.72 2.307 1.825.744 1.105.744 2.545 0 1.429-.818 2.692-.817 1.263-2.349 1.965-1.532.702-3.449.702-2.429 0-4.071-.708t-2.576-2.13q-.933-1.422-.982-3.216zm17.199 10.717V13.035h2.002v1.685q.708-.989 1.6-1.483.891-.495 2.16-.495 1.66 0 2.93.855 1.269.854 1.916 2.411.647 1.556.647 3.411 0 1.99-.714 3.583-.714 1.593-2.075 2.442-1.361.848-2.863.848-1.098 0-1.971-.464t-1.434-1.172v6.311zm1.99-11.377q0 2.503 1.013 3.699 1.014 1.196 2.454 1.196 1.465 0 2.509-1.239 1.043-1.239 1.043-3.839 0-2.478-1.019-3.711-1.019-1.233-2.435-1.233-1.404 0-2.484 1.313-1.081 1.312-1.081 3.814zm20.789 2.234 2.27.281q-.537 1.99-1.989 3.088-1.453 1.099-3.711 1.099-2.845 0-4.511-1.752-1.666-1.751-1.666-4.913 0-3.272 1.684-5.078 1.685-1.807 4.371-1.807 2.6 0 4.248 1.77 1.648 1.77 1.648 4.981 0 .195-.013.586h-9.668q.122 2.136 1.209 3.271 1.086 1.135 2.71 1.135 1.208 0 2.063-.634.854-.635 1.355-2.027zm-7.215-3.552h7.239q-.146-1.636-.83-2.454-1.05-1.269-2.722-1.269-1.514 0-2.545 1.013-1.032 1.013-1.142 2.71zm21.119 3.552 2.27.281q-.537 1.99-1.99 3.088-1.452 1.099-3.711 1.099-2.844 0-4.51-1.752-1.666-1.751-1.666-4.913 0-3.272 1.684-5.078 1.685-1.807 4.37-1.807 2.6 0 4.248 1.77 1.648 1.77 1.648 4.981 0 .195-.012.586h-9.668q.122 2.136 1.209 3.271 1.086 1.135 2.71 1.135 1.208 0 2.063-.634.854-.635 1.355-2.027zm-7.215-3.552h7.239q-.146-1.636-.83-2.454-1.05-1.269-2.722-1.269-1.514 0-2.545 1.013-1.032 1.013-1.142 2.71zm20.703 2.979 2.161.28q-.354 2.234-1.813 3.498-1.458 1.263-3.583 1.263-2.661 0-4.278-1.739-1.618-1.74-1.618-4.987 0-2.1.696-3.674.696-1.575 2.118-2.362 1.422-.788 3.095-.788 2.112 0 3.454 1.068 1.343 1.068 1.721 3.034l-2.136.329q-.305-1.306-1.08-1.965-.775-.659-1.874-.659-1.66 0-2.698 1.19-1.037 1.19-1.037 3.766 0 2.612 1.001 3.796 1.001 1.184 2.612 1.184 1.294 0 2.161-.793.866-.794 1.098-2.441zm4.041 4.748V8.104h2.197v6.42q1.538-1.782 3.882-1.782 1.44 0 2.502.568 1.062.567 1.52 1.568.458 1.001.458 2.906v8.215h-2.197v-8.215q0-1.648-.714-2.399-.715-.751-2.021-.751-.976 0-1.837.507-.86.506-1.227 1.373-.366.867-.366 2.393v7.092zm25.049 5.261q-1.819-2.295-3.076-5.371-1.258-3.076-1.258-6.372 0-2.905.94-5.566 1.099-3.089 3.394-6.153h1.574q-1.477 2.539-1.953 3.626-.744 1.684-1.172 3.515-.524 2.283-.524 4.59 0 5.872 3.649 11.731zm17.175-11.535 2.368.598q-.744 2.917-2.679 4.449-1.935 1.532-4.731 1.532-2.893 0-4.705-1.178-1.813-1.178-2.759-3.412t-.946-4.797q0-2.795 1.068-4.877 1.068-2.081 3.04-3.161 1.971-1.081 4.339-1.081 2.686 0 4.517 1.368 1.831 1.367 2.551 3.845l-2.332.549q-.622-1.953-1.806-2.844-1.184-.891-2.979-.891-2.063 0-3.448.989-1.386.988-1.947 2.655-.562 1.666-.562 3.436 0 2.283.666 3.985.665 1.703 2.069 2.546 1.403.842 3.039.842 1.99 0 3.369-1.148 1.38-1.147 1.868-3.405zm4.187-.208q0-3.601 2.002-5.334 1.672-1.441 4.077-1.441 2.673 0 4.37 1.752t1.697 4.84q0 2.502-.751 3.937-.75 1.434-2.185 2.228-1.434.793-3.131.793-2.722 0-4.401-1.746-1.678-1.745-1.678-5.029zm2.258 0q0 2.49 1.087 3.729 1.086 1.239 2.734 1.239 1.636 0 2.722-1.245 1.087-1.245 1.087-3.796 0-2.405-1.093-3.644-1.092-1.239-2.716-1.239-1.648 0-2.734 1.233-1.087 1.233-1.087 3.723zm12.439 6.482V13.035h1.978v1.966q.757-1.38 1.398-1.819.64-.44 1.409-.44 1.111 0 2.259.708l-.757 2.039q-.806-.476-1.611-.476-.721 0-1.294.433-.574.433-.818 1.202-.366 1.172-.366 2.564v6.787zm17.224-4.175 2.271.281q-.537 1.99-1.99 3.088-1.452 1.099-3.711 1.099-2.844 0-4.51-1.752-1.667-1.751-1.667-4.913 0-3.272 1.685-5.078 1.685-1.807 4.37-1.807 2.6 0 4.248 1.77 1.648 1.77 1.648 4.981 0 .195-.012.586h-9.668q.122 2.136 1.208 3.271 1.087 1.135 2.71 1.135 1.209 0 2.063-.634.855-.635 1.355-2.027zm-7.214-3.552h7.239q-.147-1.636-.83-2.454-1.05-1.269-2.722-1.269-1.514 0-2.546 1.013-1.031 1.013-1.141 2.71zm13.684 12.988h-1.575q3.65-5.859 3.65-11.731 0-2.295-.525-4.553-.415-1.831-1.159-3.516-.476-1.098-1.966-3.662h1.575q2.295 3.064 3.394 6.153.94 2.661.94 5.566 0 3.296-1.264 6.372-1.263 3.076-3.07 5.371zm7.495-15.722v-2.503h2.503v2.503zm0 10.461v-2.502h2.503v2.502zm12.671-4.687 2.307-.196q.257 1.685 1.19 2.533.934.849 2.253.849 1.587 0 2.685-1.197 1.099-1.196 1.099-3.174 0-1.879-1.056-2.966-1.056-1.086-2.765-1.086-1.062 0-1.916.482-.855.482-1.343 1.251l-2.063-.268 1.733-9.192h8.899v2.099h-7.141l-.964 4.81q1.611-1.123 3.381-1.123 2.344 0 3.955 1.623 1.611 1.624 1.611 4.175 0 2.429-1.416 4.199-1.721 2.173-4.699 2.173-2.442 0-3.986-1.367t-1.764-3.625zm13.904-4.139q0-3.173.653-5.108.653-1.935 1.941-2.985 1.288-1.05 3.241-1.05 1.44 0 2.527.58 1.086.58 1.794 1.673.708 1.092 1.111 2.661.403 1.568.403 4.229 0 3.15-.647 5.085-.647 1.934-1.935 2.99-1.288 1.056-3.253 1.056-2.588 0-4.065-1.855-1.77-2.234-1.77-7.276zm2.258 0q0 4.407 1.032 5.866 1.031 1.459 2.545 1.459t2.545-1.465q1.032-1.465 1.032-5.86 0-4.419-1.032-5.871-1.031-1.453-2.57-1.453-1.513 0-2.417 1.282-1.135 1.636-1.135 6.042zm11.646 0q0-3.173.653-5.108.653-1.935 1.941-2.985 1.288-1.05 3.241-1.05 1.44 0 2.527.58 1.086.58 1.794 1.673.708 1.092 1.111 2.661.403 1.568.403 4.229 0 3.15-.647 5.085-.647 1.934-1.935 2.99-1.288 1.056-3.253 1.056-2.588 0-4.065-1.855-1.77-2.234-1.77-7.276zm2.258 0q0 4.407 1.032 5.866 1.031 1.459 2.545 1.459 1.513 0 2.545-1.465 1.031-1.465 1.031-5.86 0-4.419-1.031-5.871-1.032-1.453-2.57-1.453-1.513 0-2.417 1.282-1.135 1.636-1.135 6.042zm19.556 8.826V8.104h2.368v7.348h9.302V8.104h2.368v17.895h-2.368v-8.435h-9.302v8.435zm16.54 0v-1.782l8.252-9.473q-1.404.073-2.478.073h-5.285v-1.782h10.595v1.453l-7.019 8.227-1.355 1.502q1.477-.11 2.771-.11h5.994v1.892zm19.751-5.371v-2.21h6.751v2.21zm15.528.647 2.197-.293q.378 1.868 1.288 2.692.909.824 2.215.824 1.551 0 2.619-1.075 1.068-1.074 1.068-2.661 0-1.513-.989-2.496-.989-.983-2.515-.983-.622 0-1.55.244l.244-1.928q.22.024.354.024 1.404 0 2.527-.732 1.123-.733 1.123-2.259 0-1.208-.818-2.002-.818-.793-2.112-.793-1.281 0-2.136.806-.854.805-1.098 2.417l-2.198-.391q.403-2.209 1.831-3.424 1.429-1.215 3.553-1.215 1.464 0 2.697.629t1.886 1.715q.653 1.086.653 2.307 0 1.16-.622 2.112-.623.952-1.843 1.514 1.586.366 2.465 1.519.879 1.154.879 2.887 0 2.344-1.709 3.974-1.709 1.629-4.321 1.629-2.356 0-3.912-1.403-1.557-1.404-1.776-3.638zm15.075 4.724v-2.502h2.503v2.502q0 1.379-.489 2.228-.488.848-1.55 1.312l-.61-.94q.696-.305 1.025-.897.33-.592.366-1.703zm5.762-8.826q0-3.173.653-5.108.653-1.935 1.941-2.985 1.288-1.05 3.241-1.05 1.44 0 2.527.58 1.086.58 1.794 1.673.708 1.092 1.111 2.661.403 1.568.403 4.229 0 3.15-.647 5.085-.647 1.934-1.935 2.99-1.288 1.056-3.253 1.056-2.588 0-4.065-1.855-1.77-2.234-1.77-7.276zm2.258 0q0 4.407 1.032 5.866 1.031 1.459 2.545 1.459t2.545-1.465q1.032-1.465 1.032-5.86 0-4.419-1.032-5.871-1.031-1.453-2.57-1.453-1.513 0-2.417 1.282-1.135 1.636-1.135 6.042zm11.646 0q0-3.173.653-5.108.653-1.935 1.941-2.985 1.288-1.05 3.241-1.05 1.44 0 2.527.58 1.086.58 1.794 1.673.708 1.092 1.111 2.661.403 1.568.403 4.229 0 3.15-.647 5.085-.647 1.934-1.935 2.99-1.288 1.056-3.253 1.056-2.588 0-4.065-1.855-1.77-2.234-1.77-7.276zm2.258 0q0 4.407 1.032 5.866 1.031 1.459 2.545 1.459 1.513 0 2.545-1.465 1.031-1.465 1.031-5.86 0-4.419-1.031-5.871-1.032-1.453-2.57-1.453-1.513 0-2.417 1.282-1.135 1.636-1.135 6.042zm11.646 0q0-3.173.653-5.108.653-1.935 1.941-2.985 1.287-1.05 3.241-1.05 1.44 0 2.526.58 1.087.58 1.795 1.673.708 1.092 1.111 2.661.402 1.568.402 4.229 0 3.15-.646 5.085-.647 1.934-1.935 2.99-1.288 1.056-3.253 1.056-2.588 0-4.065-1.855-1.77-2.234-1.77-7.276zm2.258 0q0 4.407 1.031 5.866 1.032 1.459 2.546 1.459 1.513 0 2.545-1.465 1.031-1.465 1.031-5.86 0-4.419-1.031-5.871-1.032-1.453-2.57-1.453-1.514 0-2.417 1.282-1.135 1.636-1.135 6.042z"/><text transform="translate(30.752 228.389)"><tspan x="-18.505" y="-.5" font-family="Arial" font-size="18">0 Hz</tspan></text><text transform="translate(517.5 227.869)"><tspan x="-41.027" y="-2.058" font-family="Arial" font-size="18">10,000 Hz</tspan></text><text transform="translate(269.262 230.086)"><tspan x="-36.022" y="-3.756" font-family="Arial" font-size="18">5,000 Hz</tspan></text><text transform="translate(777.154 227.869)"><tspan x="-41.027" y="-1.539" font-family="Arial" font-size="18">15,000 Hz</tspan></text><text transform="translate(1040.154 227.869)"><tspan x="-41.027" y="-1.539" font-family="Arial" font-size="18">20,000 Hz</tspan></text></svg>